<svg xmlns="http://www.w3.org/2000/svg" xmlns:xlink="http://www.w3.org/1999/xlink" width="1366" zoomAndPan="magnify" viewBox="0 0 1024.5 465.749988" height="621" preserveAspectRatio="xMidYMid meet" version="1.0"><defs><clipPath id="ea2f1f6b1b"><path d="M 0.0234375 0 L 1023.976562 0 L 1023.976562 465.5 L 0.0234375 465.5 Z M 0.0234375 0 " clip-rule="nonzero"/></clipPath><clipPath id="f31c6fede2"><path d="M 512.1875 260 L 1023.976562 260 L 1023.976562 463.308594 L 512.1875 463.308594 Z M 512.1875 260 " clip-rule="nonzero"/></clipPath><clipPath id="5c6a832ebd"><path d="M 469.550781 292 L 977.425781 292 L 977.425781 465.5 L 469.550781 465.5 Z M 469.550781 292 " clip-rule="nonzero"/></clipPath></defs><g clip-path="url(#ea2f1f6b1b)"><path fill="#ffffff" d="M 0.0234375 0 L 1023.976562 0 L 1023.976562 465.5 L 0.0234375 465.5 Z M 0.0234375 0 " fill-opacity="1" fill-rule="nonzero"/><path fill="#e94342" d="M 0.0234375 0 L 1023.976562 0 L 1023.976562 465.5 L 0.0234375 465.5 Z M 0.0234375 0 " fill-opacity="1" fill-rule="nonzero"/></g><g clip-path="url(#f31c6fede2)"><path fill="#cb3a35" d="M 1106.242188 463.101562 C 1101.230469 450.980469 1086.082031 442.894531 1078.179688 432.902344 C 1064.796875 416 1058.144531 394.289062 1043.714844 377.691406 C 1038.777344 372 1033.453125 364.9375 1026.910156 361.046875 C 1019.761719 356.789062 1009.589844 357.953125 1003.195312 352.277344 C 993.921875 344.035156 982.316406 319.796875 972.035156 307.832031 C 963.640625 298.0625 942.011719 257.945312 925.808594 260.15625 C 913.730469 261.800781 900.875 286.296875 889.265625 293.46875 C 881.078125 298.523438 867.625 282.347656 855.390625 292.09375 C 847.527344 298.371094 843.960938 309.558594 837.25 317.046875 C 828.699219 326.59375 808.085938 352.371094 796.726562 357.519531 C 788.085938 361.433594 776.632812 360.964844 768.671875 366.347656 C 764.25 369.332031 760.878906 374.550781 755.601562 376.089844 C 744.015625 379.464844 730.265625 375.714844 718.335938 376.808594 C 715.605469 377.054688 708.277344 381.015625 706.066406 378.429688 C 697.246094 368.109375 682.609375 332.457031 664.539062 335.253906 C 659.488281 336.042969 651.457031 348.007812 647.296875 351.523438 C 639.066406 358.484375 629.777344 360.445312 622.53125 369.414062 C 614.808594 378.984375 612.75 391.59375 603.609375 400.421875 C 587.835938 415.667969 575.828125 409.0625 558.792969 417.75 C 550.621094 421.921875 544.78125 432.394531 538.585938 439.144531 C 530.820312 447.59375 519.265625 453.144531 512.425781 462.429688 Z M 1106.242188 463.101562 " fill-opacity="1" fill-rule="evenodd"/></g><g clip-path="url(#5c6a832ebd)"><path fill="#bc3734" d="M 977.085938 465.523438 C 972.808594 455.171875 959.867188 448.265625 953.117188 439.730469 C 941.691406 425.292969 936.007812 406.75 923.6875 392.574219 C 919.46875 387.71875 914.921875 381.683594 909.332031 378.359375 C 903.226562 374.726562 894.539062 375.71875 889.078125 370.871094 C 881.15625 363.832031 871.246094 343.132812 862.46875 332.914062 C 855.296875 324.570312 836.824219 290.304688 822.984375 292.191406 C 812.667969 293.597656 801.6875 314.519531 791.777344 320.644531 C 784.785156 324.960938 773.292969 311.148438 762.84375 319.46875 C 756.125 324.832031 753.082031 334.386719 747.347656 340.785156 C 740.046875 348.933594 722.441406 370.953125 712.742188 375.347656 C 705.359375 378.691406 695.578125 378.289062 688.777344 382.886719 C 685.003906 385.4375 682.125 389.894531 677.617188 391.210938 C 667.722656 394.09375 655.976562 390.890625 645.789062 391.824219 C 643.457031 392.035156 637.199219 395.417969 635.308594 393.207031 C 627.777344 384.394531 615.277344 353.945312 599.84375 356.335938 C 595.53125 357.007812 588.667969 367.226562 585.117188 370.230469 C 578.085938 376.171875 570.152344 377.847656 563.964844 385.507812 C 557.371094 393.679688 555.613281 404.453125 547.808594 411.992188 C 534.335938 425.011719 524.078125 419.371094 509.527344 426.789062 C 502.550781 430.355469 497.5625 439.300781 492.269531 445.0625 C 485.636719 452.28125 475.769531 457.019531 469.925781 464.949219 Z M 977.085938 465.523438 " fill-opacity="1" fill-rule="evenodd"/></g></svg>