<svg xmlns="http://www.w3.org/2000/svg" xmlns:xlink="http://www.w3.org/1999/xlink" width="1366" zoomAndPan="magnify" viewBox="0 0 1024.5 576" height="768" preserveAspectRatio="xMidYMid meet" version="1.0"><defs><filter x="0%" y="0%" width="100%" height="100%" id="384a487b69"><feColorMatrix values="0 0 0 0 1 0 0 0 0 1 0 0 0 0 1 0 0 0 1 0" color-interpolation-filters="sRGB"/></filter><clipPath id="e4ac76b25f"><path d="M 0 0.140625 L 1024 0.140625 L 1024 575.859375 L 0 575.859375 Z M 0 0.140625 " clip-rule="nonzero"/></clipPath><clipPath id="af97b83f6d"><path d="M 529 0.140625 L 1024 0.140625 L 1024 575.859375 L 529 575.859375 Z M 529 0.140625 " clip-rule="nonzero"/></clipPath><clipPath id="c763db99d9"><path d="M 1037.847656 -242.984375 L 1528.066406 200.28125 L 1008.613281 774.757812 L 518.394531 331.492188 Z M 1037.847656 -242.984375 " clip-rule="nonzero"/></clipPath><clipPath id="0784e00dbc"><path d="M 1055.640625 -226.898438 L 1510.273438 184.191406 C 1520.101562 193.078125 1520.863281 208.246094 1511.976562 218.074219 L 1026.242188 755.261719 C 1017.355469 765.089844 1002.1875 765.851562 992.359375 756.96875 L 537.726562 345.878906 C 527.898438 336.992188 527.136719 321.824219 536.019531 311.996094 L 1021.757812 -225.191406 C 1030.644531 -235.019531 1045.8125 -235.78125 1055.640625 -226.898438 Z M 1055.640625 -226.898438 " clip-rule="nonzero"/></clipPath><clipPath id="5524c62d58"><path d="M 1037.847656 -242.984375 L 1528.066406 200.28125 L 1010.34375 772.84375 L 520.125 329.578125 Z M 1037.847656 -242.984375 " clip-rule="nonzero"/></clipPath><clipPath id="dba89a4819"><path d="M 1037.847656 -242.988281 L 1528.066406 200.28125 L 1010.152344 773.054688 L 519.933594 329.789062 Z M 1037.847656 -242.988281 " clip-rule="nonzero"/></clipPath><linearGradient x1="-83.569658" gradientTransform="matrix(1.914922, 1.73151, -1.73151, 1.914922, 1037.847366, -242.986876)" y1="149.556" x2="208.749189" gradientUnits="userSpaceOnUse" y2="149.556" id="99cbecfecb"><stop stop-opacity="1" stop-color="rgb(100%, 87.098694%, 34.899902%)" offset="0"/><stop stop-opacity="1" stop-color="rgb(100%, 87.098694%, 34.899902%)" offset="0.25"/><stop stop-opacity="1" stop-color="rgb(100%, 87.098694%, 34.899902%)" offset="0.28125"/><stop stop-opacity="1" stop-color="rgb(100%, 86.909485%, 34.869385%)" offset="0.296875"/><stop stop-opacity="1" stop-color="rgb(100%, 86.584473%, 34.819031%)" offset="0.304688"/><stop stop-opacity="1" stop-color="rgb(100%, 86.315918%, 34.776306%)" offset="0.3125"/><stop stop-opacity="1" stop-color="rgb(100%, 86.045837%, 34.735107%)" offset="0.320312"/><stop stop-opacity="1" stop-color="rgb(100%, 85.777283%, 34.692383%)" offset="0.328125"/><stop stop-opacity="1" stop-color="rgb(100%, 85.507202%, 34.651184%)" offset="0.335938"/><stop stop-opacity="1" stop-color="rgb(100%, 85.238647%, 34.609985%)" offset="0.34375"/><stop stop-opacity="1" stop-color="rgb(100%, 84.968567%, 34.567261%)" offset="0.351562"/><stop stop-opacity="1" stop-color="rgb(100%, 84.700012%, 34.526062%)" offset="0.359375"/><stop stop-opacity="1" stop-color="rgb(100%, 84.429932%, 34.483337%)" offset="0.367188"/><stop stop-opacity="1" stop-color="rgb(100%, 84.159851%, 34.442139%)" offset="0.375"/><stop stop-opacity="1" stop-color="rgb(100%, 83.891296%, 34.399414%)" offset="0.382812"/><stop stop-opacity="1" stop-color="rgb(100%, 83.621216%, 34.358215%)" offset="0.390625"/><stop stop-opacity="1" stop-color="rgb(100%, 83.352661%, 34.315491%)" offset="0.398438"/><stop stop-opacity="1" stop-color="rgb(100%, 83.082581%, 34.274292%)" offset="0.40625"/><stop stop-opacity="1" stop-color="rgb(100%, 82.814026%, 34.231567%)" offset="0.414062"/><stop stop-opacity="1" stop-color="rgb(100%, 82.543945%, 34.190369%)" offset="0.421875"/><stop stop-opacity="1" stop-color="rgb(100%, 82.273865%, 34.147644%)" offset="0.429688"/><stop stop-opacity="1" stop-color="rgb(100%, 82.00531%, 34.106445%)" offset="0.4375"/><stop stop-opacity="1" stop-color="rgb(100%, 81.735229%, 34.063721%)" offset="0.445312"/><stop stop-opacity="1" stop-color="rgb(100%, 81.466675%, 34.022522%)" offset="0.453125"/><stop stop-opacity="1" stop-color="rgb(100%, 81.196594%, 33.979797%)" offset="0.460937"/><stop stop-opacity="1" stop-color="rgb(100%, 80.92804%, 33.938599%)" offset="0.46875"/><stop stop-opacity="1" stop-color="rgb(100%, 80.657959%, 33.895874%)" offset="0.476562"/><stop stop-opacity="1" stop-color="rgb(100%, 80.389404%, 33.854675%)" offset="0.484375"/><stop stop-opacity="1" stop-color="rgb(100%, 80.119324%, 33.811951%)" offset="0.492188"/><stop stop-opacity="1" stop-color="rgb(100%, 79.849243%, 33.770752%)" offset="0.5"/><stop stop-opacity="1" stop-color="rgb(100%, 79.580688%, 33.728027%)" offset="0.507812"/><stop stop-opacity="1" stop-color="rgb(100%, 79.310608%, 33.686829%)" offset="0.515625"/><stop stop-opacity="1" stop-color="rgb(100%, 79.042053%, 33.64563%)" offset="0.523438"/><stop stop-opacity="1" stop-color="rgb(100%, 78.771973%, 33.602905%)" offset="0.53125"/><stop stop-opacity="1" stop-color="rgb(100%, 78.503418%, 33.561707%)" offset="0.539062"/><stop stop-opacity="1" stop-color="rgb(100%, 78.233337%, 33.518982%)" offset="0.546875"/><stop stop-opacity="1" stop-color="rgb(100%, 77.963257%, 33.477783%)" offset="0.554688"/><stop stop-opacity="1" stop-color="rgb(100%, 77.694702%, 33.435059%)" offset="0.5625"/><stop stop-opacity="1" stop-color="rgb(100%, 77.424622%, 33.39386%)" offset="0.570312"/><stop stop-opacity="1" stop-color="rgb(100%, 77.156067%, 33.351135%)" offset="0.578125"/><stop stop-opacity="1" stop-color="rgb(100%, 76.885986%, 33.309937%)" offset="0.585938"/><stop stop-opacity="1" stop-color="rgb(100%, 76.617432%, 33.267212%)" offset="0.59375"/><stop stop-opacity="1" stop-color="rgb(100%, 76.347351%, 33.226013%)" offset="0.601562"/><stop stop-opacity="1" stop-color="rgb(100%, 76.078796%, 33.183289%)" offset="0.609375"/><stop stop-opacity="1" stop-color="rgb(100%, 75.808716%, 33.14209%)" offset="0.617188"/><stop stop-opacity="1" stop-color="rgb(100%, 75.538635%, 33.099365%)" offset="0.625"/><stop stop-opacity="1" stop-color="rgb(100%, 75.270081%, 33.058167%)" offset="0.632812"/><stop stop-opacity="1" stop-color="rgb(100%, 75%, 33.015442%)" offset="0.640625"/><stop stop-opacity="1" stop-color="rgb(100%, 74.731445%, 32.974243%)" offset="0.648438"/><stop stop-opacity="1" stop-color="rgb(100%, 74.461365%, 32.931519%)" offset="0.65625"/><stop stop-opacity="1" stop-color="rgb(100%, 74.19281%, 32.89032%)" offset="0.664062"/><stop stop-opacity="1" stop-color="rgb(100%, 73.922729%, 32.847595%)" offset="0.671875"/><stop stop-opacity="1" stop-color="rgb(100%, 73.654175%, 32.806396%)" offset="0.679688"/><stop stop-opacity="1" stop-color="rgb(100%, 73.384094%, 32.763672%)" offset="0.6875"/><stop stop-opacity="1" stop-color="rgb(100%, 73.114014%, 32.722473%)" offset="0.695312"/><stop stop-opacity="1" stop-color="rgb(100%, 72.845459%, 32.681274%)" offset="0.703125"/><stop stop-opacity="1" stop-color="rgb(100%, 72.575378%, 32.63855%)" offset="0.710938"/><stop stop-opacity="1" stop-color="rgb(100%, 72.306824%, 32.597351%)" offset="0.71875"/><stop stop-opacity="1" stop-color="rgb(100%, 72.036743%, 32.554626%)" offset="0.726562"/><stop stop-opacity="1" stop-color="rgb(100%, 71.768188%, 32.513428%)" offset="0.734375"/><stop stop-opacity="1" stop-color="rgb(100%, 71.498108%, 32.470703%)" offset="0.742187"/><stop stop-opacity="1" stop-color="rgb(100%, 71.228027%, 32.429504%)" offset="0.75"/><stop stop-opacity="1" stop-color="rgb(100%, 70.959473%, 32.38678%)" offset="0.757813"/><stop stop-opacity="1" stop-color="rgb(100%, 70.689392%, 32.345581%)" offset="0.765625"/><stop stop-opacity="1" stop-color="rgb(100%, 70.420837%, 32.302856%)" offset="0.773438"/><stop stop-opacity="1" stop-color="rgb(100%, 70.150757%, 32.261658%)" offset="0.78125"/><stop stop-opacity="1" stop-color="rgb(100%, 69.882202%, 32.218933%)" offset="0.789062"/><stop stop-opacity="1" stop-color="rgb(100%, 69.612122%, 32.177734%)" offset="0.796875"/><stop stop-opacity="1" stop-color="rgb(100%, 69.343567%, 32.13501%)" offset="0.804688"/><stop stop-opacity="1" stop-color="rgb(100%, 69.073486%, 32.093811%)" offset="0.8125"/><stop stop-opacity="1" stop-color="rgb(100%, 68.803406%, 32.051086%)" offset="0.820312"/><stop stop-opacity="1" stop-color="rgb(100%, 68.534851%, 32.009888%)" offset="0.828125"/><stop stop-opacity="1" stop-color="rgb(100%, 68.264771%, 31.967163%)" offset="0.835938"/><stop stop-opacity="1" stop-color="rgb(100%, 67.996216%, 31.925964%)" offset="0.84375"/><stop stop-opacity="1" stop-color="rgb(100%, 67.726135%, 31.88324%)" offset="0.851563"/><stop stop-opacity="1" stop-color="rgb(100%, 67.457581%, 31.842041%)" offset="0.859375"/><stop stop-opacity="1" stop-color="rgb(100%, 67.1875%, 31.799316%)" offset="0.867188"/><stop stop-opacity="1" stop-color="rgb(100%, 66.918945%, 31.758118%)" offset="0.875"/><stop stop-opacity="1" stop-color="rgb(100%, 66.648865%, 31.716919%)" offset="0.882812"/><stop stop-opacity="1" stop-color="rgb(100%, 66.378784%, 31.674194%)" offset="0.890625"/><stop stop-opacity="1" stop-color="rgb(100%, 66.110229%, 31.632996%)" offset="0.898437"/><stop stop-opacity="1" stop-color="rgb(100%, 65.840149%, 31.590271%)" offset="0.90625"/><stop stop-opacity="1" stop-color="rgb(100%, 65.571594%, 31.549072%)" offset="0.914063"/><stop stop-opacity="1" stop-color="rgb(100%, 65.301514%, 31.506348%)" offset="0.921875"/><stop stop-opacity="1" stop-color="rgb(100%, 65.032959%, 31.465149%)" offset="0.929688"/><stop stop-opacity="1" stop-color="rgb(100%, 64.762878%, 31.422424%)" offset="0.9375"/><stop stop-opacity="1" stop-color="rgb(100%, 64.492798%, 31.381226%)" offset="0.945312"/><stop stop-opacity="1" stop-color="rgb(100%, 64.224243%, 31.338501%)" offset="0.953125"/><stop stop-opacity="1" stop-color="rgb(100%, 63.954163%, 31.297302%)" offset="0.960938"/><stop stop-opacity="1" stop-color="rgb(100%, 63.685608%, 31.254578%)" offset="0.96875"/><stop stop-opacity="1" stop-color="rgb(100%, 63.415527%, 31.213379%)" offset="0.976562"/><stop stop-opacity="1" stop-color="rgb(100%, 63.146973%, 31.170654%)" offset="0.984375"/><stop stop-opacity="1" stop-color="rgb(100%, 62.876892%, 31.129456%)" offset="0.992187"/><stop stop-opacity="1" stop-color="rgb(100%, 62.608337%, 31.086731%)" offset="1"/></linearGradient><clipPath id="7794f2a2b5"><path d="M 0 166 L 219 166 L 219 575.859375 L 0 575.859375 Z M 0 166 " clip-rule="nonzero"/></clipPath><mask id="710b883485"><g filter="url(#384a487b69)"><rect x="-102.45" width="1229.4" fill="#000000" y="-57.6" height="691.2" fill-opacity="0.23"/></g></mask><clipPath id="74ee3da695"><path d="M 0.3125 0.554688 L 218.339844 0.554688 L 218.339844 409.855469 L 0.3125 409.855469 Z M 0.3125 0.554688 " clip-rule="nonzero"/></clipPath><clipPath id="573e9f6a00"><rect x="0" width="219" y="0" height="410"/></clipPath><clipPath id="e96d73ef51"><path d="M 19.707031 487.652344 L 54.996094 487.652344 L 54.996094 518.484375 L 19.707031 518.484375 Z M 19.707031 487.652344 " clip-rule="nonzero"/></clipPath><clipPath id="92dc16ca0e"><path d="M 37.328125 487.652344 L 54.945312 518.484375 L 19.707031 518.484375 Z M 37.328125 487.652344 " clip-rule="nonzero"/></clipPath><clipPath id="ee702d0817"><path d="M 41.691406 518.484375 L 76.527344 518.484375 L 76.527344 548.921875 L 41.691406 548.921875 Z M 41.691406 518.484375 " clip-rule="nonzero"/></clipPath><clipPath id="ba247ffb61"><path d="M 59.085938 518.484375 L 76.476562 548.921875 L 41.691406 548.921875 Z M 59.085938 518.484375 " clip-rule="nonzero"/></clipPath><clipPath id="cd6bf13598"><path d="M 11.375 431.425781 L 30.375 431.425781 L 30.375 448.027344 L 11.375 448.027344 Z M 11.375 431.425781 " clip-rule="nonzero"/></clipPath><clipPath id="df7caf3074"><path d="M 20.890625 448.027344 L 11.402344 431.425781 L 30.375 431.425781 Z M 20.890625 448.027344 " clip-rule="nonzero"/></clipPath><clipPath id="7310e54c06"><path d="M 0 455.25 L 22.816406 455.25 L 22.816406 475.21875 L 0 475.21875 Z M 0 455.25 " clip-rule="nonzero"/></clipPath><clipPath id="f450b5d631"><path d="M 11.40625 475.21875 L -0.0078125 455.25 L 22.816406 455.25 Z M 11.40625 475.21875 " clip-rule="nonzero"/></clipPath><clipPath id="89c6c7fbcb"><path d="M 54.414062 386.476562 L 72.058594 386.476562 L 72.058594 401.894531 L 54.414062 401.894531 Z M 54.414062 386.476562 " clip-rule="nonzero"/></clipPath><clipPath id="3ed6a45fad"><path d="M 63.222656 386.476562 L 72.03125 401.894531 L 54.414062 401.894531 Z M 63.222656 386.476562 " clip-rule="nonzero"/></clipPath><clipPath id="99e7c691a6"><path d="M 76.476562 355.644531 L 94.121094 355.644531 L 94.121094 371.058594 L 76.476562 371.058594 Z M 76.476562 355.644531 " clip-rule="nonzero"/></clipPath><clipPath id="68f8298324"><path d="M 85.285156 355.644531 L 94.09375 371.058594 L 76.476562 371.058594 Z M 85.285156 355.644531 " clip-rule="nonzero"/></clipPath></defs><g clip-path="url(#e4ac76b25f)"><path fill="#ffffff" d="M 0 0.140625 L 1024 0.140625 L 1024 575.859375 L 0 575.859375 Z M 0 0.140625 " fill-opacity="1" fill-rule="nonzero"/><path fill="#ffffff" d="M 0 0.140625 L 1024 0.140625 L 1024 575.859375 L 0 575.859375 Z M 0 0.140625 " fill-opacity="1" fill-rule="nonzero"/></g><g clip-path="url(#af97b83f6d)"><g clip-path="url(#c763db99d9)"><g clip-path="url(#0784e00dbc)"><g clip-path="url(#5524c62d58)"><g clip-path="url(#dba89a4819)"><path fill="url(#99cbecfecb)" d="M 750.640625 -247.039062 L 240.730469 316.886719 L 800.496094 823.039062 L 1310.40625 259.113281 Z M 750.640625 -247.039062 " fill-rule="nonzero"/></g></g></g></g></g><g clip-path="url(#7794f2a2b5)"><g mask="url(#710b883485)"><g transform="matrix(1, 0, 0, 1, 0, 166)"><g clip-path="url(#573e9f6a00)"><g clip-path="url(#74ee3da695)"><path fill="#ff0000" d="M 217.53125 1.015625 C 217.53125 1.070312 217.574219 1.113281 217.625 1.113281 C 217.679688 1.113281 217.722656 1.070312 217.722656 1.015625 C 217.722656 0.964844 217.679688 0.921875 217.625 0.921875 C 217.574219 0.921875 217.53125 0.964844 217.53125 1.015625 Z M 217.492188 26.222656 C 217.492188 26.296875 217.550781 26.355469 217.625 26.355469 C 217.703125 26.355469 217.761719 26.296875 217.761719 26.222656 C 217.761719 26.148438 217.703125 26.085938 217.625 26.085938 C 217.550781 26.085938 217.492188 26.148438 217.492188 26.222656 Z M 217.453125 51.425781 C 217.453125 51.523438 217.53125 51.601562 217.625 51.601562 C 217.722656 51.601562 217.800781 51.523438 217.800781 51.425781 C 217.800781 51.332031 217.722656 51.253906 217.625 51.253906 C 217.53125 51.253906 217.453125 51.332031 217.453125 51.425781 Z M 217.414062 76.632812 C 217.414062 76.75 217.507812 76.84375 217.625 76.84375 C 217.742188 76.84375 217.839844 76.75 217.839844 76.632812 C 217.839844 76.515625 217.742188 76.421875 217.625 76.421875 C 217.507812 76.421875 217.414062 76.515625 217.414062 76.632812 Z M 217.375 101.839844 C 217.375 101.976562 217.488281 102.089844 217.625 102.089844 C 217.765625 102.089844 217.878906 101.976562 217.878906 101.839844 C 217.878906 101.699219 217.765625 101.585938 217.625 101.585938 C 217.488281 101.585938 217.375 101.699219 217.375 101.839844 Z M 217.339844 127.042969 C 217.339844 127.203125 217.464844 127.332031 217.625 127.332031 C 217.785156 127.332031 217.917969 127.203125 217.917969 127.042969 C 217.917969 126.882812 217.785156 126.753906 217.625 126.753906 C 217.464844 126.753906 217.339844 126.882812 217.339844 127.042969 Z M 217.300781 152.25 C 217.300781 152.429688 217.445312 152.578125 217.625 152.578125 C 217.808594 152.578125 217.957031 152.429688 217.957031 152.25 C 217.957031 152.066406 217.808594 151.917969 217.625 151.917969 C 217.445312 151.917969 217.300781 152.066406 217.300781 152.25 Z M 217.261719 177.453125 C 217.261719 177.65625 217.425781 177.820312 217.625 177.820312 C 217.828125 177.820312 217.992188 177.65625 217.992188 177.453125 C 217.992188 177.25 217.828125 177.089844 217.625 177.089844 C 217.425781 177.089844 217.261719 177.25 217.261719 177.453125 Z M 217.222656 202.660156 C 217.222656 202.882812 217.402344 203.066406 217.625 203.066406 C 217.851562 203.066406 218.03125 202.882812 218.03125 202.660156 C 218.03125 202.433594 217.851562 202.253906 217.625 202.253906 C 217.402344 202.253906 217.222656 202.433594 217.222656 202.660156 Z M 217.183594 227.867188 C 217.183594 228.113281 217.382812 228.3125 217.625 228.3125 C 217.871094 228.3125 218.070312 228.113281 218.070312 227.867188 C 218.070312 227.617188 217.871094 227.421875 217.625 227.421875 C 217.382812 227.421875 217.183594 227.617188 217.183594 227.867188 Z M 217.144531 253.074219 C 217.144531 253.339844 217.359375 253.554688 217.625 253.554688 C 217.894531 253.554688 218.109375 253.339844 218.109375 253.074219 C 218.109375 252.804688 217.894531 252.589844 217.625 252.589844 C 217.359375 252.589844 217.144531 252.804688 217.144531 253.074219 Z M 217.105469 278.277344 C 217.105469 278.566406 217.339844 278.800781 217.625 278.800781 C 217.914062 278.800781 218.148438 278.566406 218.148438 278.277344 C 218.148438 277.988281 217.914062 277.753906 217.625 277.753906 C 217.339844 277.753906 217.105469 277.988281 217.105469 278.277344 Z M 217.070312 303.484375 C 217.070312 303.792969 217.316406 304.042969 217.625 304.042969 C 217.9375 304.042969 218.1875 303.792969 218.1875 303.484375 C 218.1875 303.171875 217.9375 302.925781 217.625 302.925781 C 217.316406 302.925781 217.070312 303.171875 217.070312 303.484375 Z M 217.03125 328.691406 C 217.03125 329.023438 217.296875 329.289062 217.625 329.289062 C 217.957031 329.289062 218.226562 329.023438 218.226562 328.691406 C 218.226562 328.359375 217.957031 328.089844 217.625 328.089844 C 217.296875 328.089844 217.03125 328.359375 217.03125 328.691406 Z M 216.988281 353.894531 C 216.988281 354.246094 217.273438 354.53125 217.625 354.53125 C 217.980469 354.53125 218.261719 354.246094 218.261719 353.894531 C 218.261719 353.542969 217.980469 353.257812 217.625 353.257812 C 217.273438 353.257812 216.988281 353.542969 216.988281 353.894531 Z M 216.949219 379.101562 C 216.949219 379.472656 217.253906 379.777344 217.625 379.777344 C 218 379.777344 218.300781 379.472656 218.300781 379.101562 C 218.300781 378.726562 218 378.425781 217.625 378.425781 C 217.253906 378.425781 216.949219 378.726562 216.949219 379.101562 Z M 216.910156 404.304688 C 216.910156 404.699219 217.230469 405.019531 217.625 405.019531 C 218.019531 405.019531 218.339844 404.699219 218.339844 404.304688 C 218.339844 403.910156 218.019531 403.589844 217.625 403.589844 C 217.230469 403.589844 216.910156 403.910156 216.910156 404.304688 Z M 194.203125 1.015625 C 194.203125 1.097656 194.269531 1.164062 194.351562 1.164062 C 194.433594 1.164062 194.5 1.097656 194.5 1.015625 C 194.5 0.933594 194.433594 0.867188 194.351562 0.867188 C 194.269531 0.867188 194.203125 0.933594 194.203125 1.015625 Z M 194.144531 26.222656 C 194.144531 26.335938 194.238281 26.425781 194.351562 26.425781 C 194.46875 26.425781 194.5625 26.335938 194.5625 26.222656 C 194.5625 26.109375 194.46875 26.011719 194.351562 26.011719 C 194.238281 26.011719 194.144531 26.109375 194.144531 26.222656 Z M 194.085938 51.425781 C 194.085938 51.574219 194.207031 51.691406 194.351562 51.691406 C 194.5 51.691406 194.617188 51.574219 194.617188 51.425781 C 194.617188 51.28125 194.5 51.160156 194.351562 51.160156 C 194.207031 51.160156 194.085938 51.28125 194.085938 51.425781 Z M 194.023438 76.632812 C 194.023438 76.8125 194.175781 76.957031 194.351562 76.957031 C 194.535156 76.957031 194.679688 76.8125 194.679688 76.632812 C 194.679688 76.449219 194.535156 76.304688 194.351562 76.304688 C 194.175781 76.304688 194.023438 76.449219 194.023438 76.632812 Z M 193.964844 101.839844 C 193.964844 102.054688 194.140625 102.222656 194.351562 102.222656 C 194.566406 102.222656 194.738281 102.054688 194.738281 101.839844 C 194.738281 101.625 194.566406 101.453125 194.351562 101.453125 C 194.140625 101.453125 193.964844 101.625 193.964844 101.839844 Z M 193.90625 127.042969 C 193.90625 127.289062 194.105469 127.488281 194.351562 127.488281 C 194.597656 127.488281 194.800781 127.289062 194.800781 127.042969 C 194.800781 126.800781 194.597656 126.597656 194.351562 126.597656 C 194.105469 126.597656 193.90625 126.800781 193.90625 127.042969 Z M 193.847656 152.25 C 193.847656 152.527344 194.074219 152.753906 194.351562 152.753906 C 194.632812 152.753906 194.855469 152.527344 194.855469 152.25 C 194.855469 151.972656 194.632812 151.746094 194.351562 151.746094 C 194.074219 151.746094 193.847656 151.972656 193.847656 152.25 Z M 193.785156 177.453125 C 193.785156 177.765625 194.042969 178.019531 194.351562 178.019531 C 194.664062 178.019531 194.917969 177.765625 194.917969 177.453125 C 194.917969 177.140625 194.664062 176.894531 194.351562 176.894531 C 194.042969 176.894531 193.785156 177.140625 193.785156 177.453125 Z M 193.730469 202.660156 C 193.730469 203.003906 194.007812 203.285156 194.351562 203.285156 C 194.699219 203.285156 194.976562 203.003906 194.976562 202.660156 C 194.976562 202.316406 194.699219 202.039062 194.351562 202.039062 C 194.007812 202.039062 193.730469 202.316406 193.730469 202.660156 Z M 193.667969 227.867188 C 193.667969 228.246094 193.976562 228.550781 194.351562 228.550781 C 194.730469 228.550781 195.035156 228.246094 195.035156 227.867188 C 195.035156 227.492188 194.730469 227.183594 194.351562 227.183594 C 193.976562 227.183594 193.667969 227.492188 193.667969 227.867188 Z M 193.609375 253.074219 C 193.609375 253.480469 193.945312 253.816406 194.351562 253.816406 C 194.765625 253.816406 195.09375 253.480469 195.09375 253.074219 C 195.09375 252.664062 194.765625 252.328125 194.351562 252.328125 C 193.945312 252.328125 193.609375 252.664062 193.609375 253.074219 Z M 193.550781 278.277344 C 193.550781 278.722656 193.910156 279.082031 194.351562 279.082031 C 194.796875 279.082031 195.15625 278.722656 195.15625 278.277344 C 195.15625 277.832031 194.796875 277.476562 194.351562 277.476562 C 193.910156 277.476562 193.550781 277.832031 193.550781 278.277344 Z M 193.492188 303.484375 C 193.492188 303.960938 193.875 304.347656 194.351562 304.347656 C 194.828125 304.347656 195.214844 303.960938 195.214844 303.484375 C 195.214844 303.007812 194.828125 302.621094 194.351562 302.621094 C 193.875 302.621094 193.492188 303.007812 193.492188 303.484375 Z M 193.429688 328.691406 C 193.429688 329.199219 193.84375 329.613281 194.351562 329.613281 C 194.859375 329.613281 195.273438 329.199219 195.273438 328.691406 C 195.273438 328.183594 194.859375 327.765625 194.351562 327.765625 C 193.84375 327.765625 193.429688 328.183594 193.429688 328.691406 Z M 193.371094 353.894531 C 193.371094 354.4375 193.8125 354.875 194.351562 354.875 C 194.894531 354.875 195.332031 354.4375 195.332031 353.894531 C 195.332031 353.351562 194.894531 352.914062 194.351562 352.914062 C 193.8125 352.914062 193.371094 353.351562 193.371094 353.894531 Z M 193.3125 379.101562 C 193.3125 379.675781 193.78125 380.144531 194.351562 380.144531 C 194.929688 380.144531 195.394531 379.675781 195.394531 379.101562 C 195.394531 378.523438 194.929688 378.058594 194.351562 378.058594 C 193.78125 378.058594 193.3125 378.523438 193.3125 379.101562 Z M 193.253906 404.304688 C 193.253906 404.914062 193.746094 405.40625 194.351562 405.40625 C 194.960938 405.40625 195.453125 404.914062 195.453125 404.304688 C 195.453125 403.699219 194.960938 403.207031 194.351562 403.207031 C 193.746094 403.207031 193.253906 403.699219 193.253906 404.304688 Z M 170.722656 1.015625 C 170.722656 1.132812 170.820312 1.226562 170.9375 1.226562 C 171.054688 1.226562 171.148438 1.132812 171.148438 1.015625 C 171.148438 0.898438 171.054688 0.804688 170.9375 0.804688 C 170.820312 0.804688 170.722656 0.898438 170.722656 1.015625 Z M 170.636719 26.222656 C 170.636719 26.386719 170.773438 26.519531 170.9375 26.519531 C 171.097656 26.519531 171.230469 26.386719 171.230469 26.222656 C 171.230469 26.058594 171.097656 25.921875 170.9375 25.921875 C 170.773438 25.921875 170.636719 26.058594 170.636719 26.222656 Z M 170.550781 51.425781 C 170.550781 51.640625 170.722656 51.808594 170.9375 51.808594 C 171.144531 51.808594 171.316406 51.640625 171.316406 51.425781 C 171.316406 51.214844 171.144531 51.046875 170.9375 51.046875 C 170.722656 51.046875 170.550781 51.214844 170.550781 51.425781 Z M 170.46875 76.632812 C 170.46875 76.890625 170.675781 77.101562 170.9375 77.101562 C 171.191406 77.101562 171.402344 76.890625 171.402344 76.632812 C 171.402344 76.375 171.191406 76.164062 170.9375 76.164062 C 170.675781 76.164062 170.46875 76.375 170.46875 76.632812 Z M 170.382812 101.839844 C 170.382812 102.140625 170.628906 102.390625 170.9375 102.390625 C 171.242188 102.390625 171.488281 102.140625 171.488281 101.839844 C 171.488281 101.535156 171.242188 101.285156 170.9375 101.285156 C 170.628906 101.285156 170.382812 101.535156 170.382812 101.839844 Z M 170.300781 127.042969 C 170.300781 127.398438 170.582031 127.679688 170.9375 127.679688 C 171.289062 127.679688 171.574219 127.398438 171.574219 127.042969 C 171.574219 126.691406 171.289062 126.410156 170.9375 126.410156 C 170.582031 126.410156 170.300781 126.691406 170.300781 127.042969 Z M 170.214844 152.25 C 170.214844 152.648438 170.539062 152.972656 170.9375 152.972656 C 171.335938 152.972656 171.65625 152.648438 171.65625 152.25 C 171.65625 151.851562 171.335938 151.527344 170.9375 151.527344 C 170.539062 151.527344 170.214844 151.851562 170.214844 152.25 Z M 170.128906 177.453125 C 170.128906 177.902344 170.492188 178.261719 170.9375 178.261719 C 171.378906 178.261719 171.742188 177.902344 171.742188 177.453125 C 171.742188 177.011719 171.378906 176.648438 170.9375 176.648438 C 170.492188 176.648438 170.128906 177.011719 170.128906 177.453125 Z M 170.042969 202.660156 C 170.042969 203.152344 170.441406 203.550781 170.9375 203.550781 C 171.425781 203.550781 171.828125 203.152344 171.828125 202.660156 C 171.828125 202.167969 171.425781 201.769531 170.9375 201.769531 C 170.441406 201.769531 170.042969 202.167969 170.042969 202.660156 Z M 169.957031 227.867188 C 169.957031 228.40625 170.394531 228.84375 170.9375 228.84375 C 171.472656 228.84375 171.914062 228.40625 171.914062 227.867188 C 171.914062 227.328125 171.472656 226.890625 170.9375 226.890625 C 170.394531 226.890625 169.957031 227.328125 169.957031 227.867188 Z M 169.871094 253.074219 C 169.871094 253.660156 170.347656 254.132812 170.9375 254.132812 C 171.523438 254.132812 172 253.660156 172 253.074219 C 172 252.484375 171.523438 252.007812 170.9375 252.007812 C 170.347656 252.007812 169.871094 252.484375 169.871094 253.074219 Z M 169.789062 278.277344 C 169.789062 278.910156 170.304688 279.425781 170.9375 279.425781 C 171.570312 279.425781 172.082031 278.910156 172.082031 278.277344 C 172.082031 277.644531 171.570312 277.132812 170.9375 277.132812 C 170.304688 277.132812 169.789062 277.644531 169.789062 278.277344 Z M 169.703125 303.484375 C 169.703125 304.164062 170.257812 304.714844 170.9375 304.714844 C 171.613281 304.714844 172.167969 304.164062 172.167969 303.484375 C 172.167969 302.804688 171.613281 302.253906 170.9375 302.253906 C 170.257812 302.253906 169.703125 302.804688 169.703125 303.484375 Z M 169.621094 328.691406 C 169.621094 329.417969 170.207031 330.007812 170.9375 330.007812 C 171.660156 330.007812 172.25 329.417969 172.25 328.691406 C 172.25 327.960938 171.660156 327.371094 170.9375 327.371094 C 170.207031 327.371094 169.621094 327.960938 169.621094 328.691406 Z M 169.535156 353.894531 C 169.535156 354.667969 170.160156 355.296875 170.9375 355.296875 C 171.707031 355.296875 172.335938 354.667969 172.335938 353.894531 C 172.335938 353.121094 171.707031 352.496094 170.9375 352.496094 C 170.160156 352.496094 169.535156 353.121094 169.535156 353.894531 Z M 169.449219 379.101562 C 169.449219 379.921875 170.113281 380.585938 170.9375 380.585938 C 171.757812 380.585938 172.421875 379.921875 172.421875 379.101562 C 172.421875 378.28125 171.757812 377.613281 170.9375 377.613281 C 170.113281 377.613281 169.449219 378.28125 169.449219 379.101562 Z M 169.363281 404.304688 C 169.363281 405.171875 170.070312 405.878906 170.9375 405.878906 C 171.804688 405.878906 172.507812 405.171875 172.507812 404.304688 C 172.507812 403.4375 171.804688 402.734375 170.9375 402.734375 C 170.070312 402.734375 169.363281 403.4375 169.363281 404.304688 Z M 147.144531 1.015625 C 147.144531 1.171875 147.273438 1.296875 147.429688 1.296875 C 147.585938 1.296875 147.710938 1.171875 147.710938 1.015625 C 147.710938 0.859375 147.585938 0.730469 147.429688 0.730469 C 147.273438 0.730469 147.144531 0.859375 147.144531 1.015625 Z M 147.03125 26.222656 C 147.03125 26.441406 147.210938 26.617188 147.429688 26.617188 C 147.652344 26.617188 147.824219 26.441406 147.824219 26.222656 C 147.824219 26 147.652344 25.828125 147.429688 25.828125 C 147.210938 25.828125 147.03125 26 147.03125 26.222656 Z M 146.921875 51.425781 C 146.921875 51.707031 147.148438 51.933594 147.429688 51.933594 C 147.710938 51.933594 147.9375 51.707031 147.9375 51.425781 C 147.9375 51.144531 147.710938 50.917969 147.429688 50.917969 C 147.148438 50.917969 146.921875 51.144531 146.921875 51.425781 Z M 146.808594 76.632812 C 146.808594 76.976562 147.085938 77.257812 147.429688 77.257812 C 147.777344 77.257812 148.050781 76.976562 148.050781 76.632812 C 148.050781 76.289062 147.777344 76.007812 147.429688 76.007812 C 147.085938 76.007812 146.808594 76.289062 146.808594 76.632812 Z M 146.695312 101.839844 C 146.695312 102.246094 147.023438 102.574219 147.429688 102.574219 C 147.835938 102.574219 148.167969 102.246094 148.167969 101.839844 C 148.167969 101.429688 147.835938 101.105469 147.429688 101.105469 C 147.023438 101.105469 146.695312 101.429688 146.695312 101.839844 Z M 146.582031 127.042969 C 146.582031 127.515625 146.960938 127.894531 147.429688 127.894531 C 147.898438 127.894531 148.28125 127.515625 148.28125 127.042969 C 148.28125 126.574219 147.898438 126.195312 147.429688 126.195312 C 146.960938 126.195312 146.582031 126.574219 146.582031 127.042969 Z M 146.46875 152.25 C 146.46875 152.78125 146.898438 153.214844 147.429688 153.214844 C 147.960938 153.214844 148.394531 152.78125 148.394531 152.25 C 148.394531 151.714844 147.960938 151.289062 147.429688 151.289062 C 146.898438 151.289062 146.46875 151.714844 146.46875 152.25 Z M 146.351562 177.453125 C 146.351562 178.046875 146.835938 178.53125 147.429688 178.53125 C 148.023438 178.53125 148.503906 178.046875 148.503906 177.453125 C 148.503906 176.859375 148.023438 176.378906 147.429688 176.378906 C 146.835938 176.378906 146.351562 176.859375 146.351562 177.453125 Z M 146.238281 202.660156 C 146.238281 203.316406 146.773438 203.851562 147.429688 203.851562 C 148.089844 203.851562 148.617188 203.316406 148.617188 202.660156 C 148.617188 202.003906 148.089844 201.472656 147.429688 201.472656 C 146.773438 201.472656 146.238281 202.003906 146.238281 202.660156 Z M 146.128906 227.867188 C 146.128906 228.585938 146.710938 229.167969 147.429688 229.167969 C 148.148438 229.167969 148.730469 228.585938 148.730469 227.867188 C 148.730469 227.148438 148.148438 226.5625 147.429688 226.5625 C 146.710938 226.5625 146.128906 227.148438 146.128906 227.867188 Z M 146.015625 253.074219 C 146.015625 253.855469 146.648438 254.488281 147.429688 254.488281 C 148.210938 254.488281 148.84375 253.855469 148.84375 253.074219 C 148.84375 252.289062 148.210938 251.65625 147.429688 251.65625 C 146.648438 251.65625 146.015625 252.289062 146.015625 253.074219 Z M 145.902344 278.277344 C 145.902344 279.121094 146.585938 279.804688 147.429688 279.804688 C 148.273438 279.804688 148.960938 279.121094 148.960938 278.277344 C 148.960938 277.433594 148.273438 276.75 147.429688 276.75 C 146.585938 276.75 145.902344 277.433594 145.902344 278.277344 Z M 145.789062 303.484375 C 145.789062 304.394531 146.523438 305.125 147.429688 305.125 C 148.335938 305.125 149.074219 304.394531 149.074219 303.484375 C 149.074219 302.574219 148.335938 301.839844 147.429688 301.839844 C 146.523438 301.839844 145.789062 302.574219 145.789062 303.484375 Z M 145.675781 328.691406 C 145.675781 329.65625 146.460938 330.445312 147.429688 330.445312 C 148.398438 330.445312 149.183594 329.65625 149.183594 328.691406 C 149.183594 327.71875 148.398438 326.933594 147.429688 326.933594 C 146.460938 326.933594 145.675781 327.71875 145.675781 328.691406 Z M 145.558594 353.894531 C 145.558594 354.925781 146.398438 355.761719 147.429688 355.761719 C 148.460938 355.761719 149.296875 354.925781 149.296875 353.894531 C 149.296875 352.863281 148.460938 352.027344 147.429688 352.027344 C 146.398438 352.027344 145.558594 352.863281 145.558594 353.894531 Z M 145.449219 379.101562 C 145.449219 380.195312 146.335938 381.082031 147.429688 381.082031 C 148.527344 381.082031 149.410156 380.195312 149.410156 379.101562 C 149.410156 378.003906 148.527344 377.121094 147.429688 377.121094 C 146.335938 377.121094 145.449219 378.003906 145.449219 379.101562 Z M 145.335938 404.304688 C 145.335938 405.464844 146.269531 406.398438 147.429688 406.398438 C 148.585938 406.398438 149.523438 405.464844 149.523438 404.304688 C 149.523438 403.148438 148.585938 402.210938 147.429688 402.210938 C 146.269531 402.210938 145.335938 403.148438 145.335938 404.304688 Z M 123.847656 1.015625 C 123.847656 1.199219 123.996094 1.347656 124.179688 1.347656 C 124.367188 1.347656 124.515625 1.199219 124.515625 1.015625 C 124.515625 0.832031 124.367188 0.683594 124.179688 0.683594 C 123.996094 0.683594 123.847656 0.832031 123.847656 1.015625 Z M 123.714844 26.222656 C 123.714844 26.476562 123.925781 26.6875 124.179688 26.6875 C 124.441406 26.6875 124.648438 26.476562 124.648438 26.222656 C 124.648438 25.960938 124.441406 25.753906 124.179688 25.753906 C 123.925781 25.753906 123.714844 25.960938 123.714844 26.222656 Z M 123.582031 51.425781 C 123.582031 51.757812 123.851562 52.027344 124.179688 52.027344 C 124.511719 52.027344 124.78125 51.757812 124.78125 51.425781 C 124.78125 51.097656 124.511719 50.828125 124.179688 50.828125 C 123.851562 50.828125 123.582031 51.097656 123.582031 51.425781 Z M 123.449219 76.632812 C 123.449219 77.035156 123.777344 77.367188 124.179688 77.367188 C 124.585938 77.367188 124.914062 77.035156 124.914062 76.632812 C 124.914062 76.230469 124.585938 75.898438 124.179688 75.898438 C 123.777344 75.898438 123.449219 76.230469 123.449219 76.632812 Z M 123.316406 101.839844 C 123.316406 102.316406 123.703125 102.703125 124.179688 102.703125 C 124.660156 102.703125 125.046875 102.316406 125.046875 101.839844 C 125.046875 101.359375 124.660156 100.972656 124.179688 100.972656 C 123.703125 100.972656 123.316406 101.359375 123.316406 101.839844 Z M 123.183594 127.042969 C 123.183594 127.597656 123.628906 128.042969 124.179688 128.042969 C 124.730469 128.042969 125.179688 127.597656 125.179688 127.042969 C 125.179688 126.492188 124.730469 126.046875 124.179688 126.046875 C 123.628906 126.046875 123.183594 126.492188 123.183594 127.042969 Z M 123.050781 152.25 C 123.050781 152.875 123.554688 153.382812 124.179688 153.382812 C 124.808594 153.382812 125.316406 152.875 125.316406 152.25 C 125.316406 151.625 124.808594 151.117188 124.179688 151.117188 C 123.554688 151.117188 123.050781 151.625 123.050781 152.25 Z M 122.914062 177.453125 C 122.914062 178.15625 123.480469 178.71875 124.179688 178.71875 C 124.882812 178.71875 125.445312 178.15625 125.445312 177.453125 C 125.445312 176.757812 124.882812 176.1875 124.179688 176.1875 C 123.480469 176.1875 122.914062 176.757812 122.914062 177.453125 Z M 122.785156 202.660156 C 122.785156 203.433594 123.410156 204.058594 124.179688 204.058594 C 124.953125 204.058594 125.582031 203.433594 125.582031 202.660156 C 125.582031 201.886719 124.953125 201.261719 124.179688 201.261719 C 123.410156 201.261719 122.785156 201.886719 122.785156 202.660156 Z M 122.648438 227.867188 C 122.648438 228.710938 123.335938 229.398438 124.179688 229.398438 C 125.027344 229.398438 125.714844 228.710938 125.714844 227.867188 C 125.714844 227.023438 125.027344 226.335938 124.179688 226.335938 C 123.335938 226.335938 122.648438 227.023438 122.648438 227.867188 Z M 122.515625 253.074219 C 122.515625 253.992188 123.261719 254.738281 124.179688 254.738281 C 125.101562 254.738281 125.847656 253.992188 125.847656 253.074219 C 125.847656 252.152344 125.101562 251.410156 124.179688 251.410156 C 123.261719 251.410156 122.515625 252.152344 122.515625 253.074219 Z M 122.382812 278.277344 C 122.382812 279.269531 123.1875 280.078125 124.179688 280.078125 C 125.171875 280.078125 125.980469 279.269531 125.980469 278.277344 C 125.980469 277.285156 125.171875 276.480469 124.179688 276.480469 C 123.1875 276.480469 122.382812 277.285156 122.382812 278.277344 Z M 122.25 303.484375 C 122.25 304.554688 123.113281 305.417969 124.179688 305.417969 C 125.246094 305.417969 126.113281 304.554688 126.113281 303.484375 C 126.113281 302.414062 125.246094 301.550781 124.179688 301.550781 C 123.113281 301.550781 122.25 302.414062 122.25 303.484375 Z M 122.117188 328.691406 C 122.117188 329.828125 123.039062 330.753906 124.179688 330.753906 C 125.324219 330.753906 126.246094 329.828125 126.246094 328.691406 C 126.246094 327.550781 125.324219 326.625 124.179688 326.625 C 123.039062 326.625 122.117188 327.550781 122.117188 328.691406 Z M 121.984375 353.894531 C 121.984375 355.109375 122.96875 356.09375 124.179688 356.09375 C 125.398438 356.09375 126.378906 355.109375 126.378906 353.894531 C 126.378906 352.679688 125.398438 351.695312 124.179688 351.695312 C 122.96875 351.695312 121.984375 352.679688 121.984375 353.894531 Z M 121.847656 379.101562 C 121.847656 380.386719 122.894531 381.433594 124.179688 381.433594 C 125.46875 381.433594 126.511719 380.386719 126.511719 379.101562 C 126.511719 377.8125 125.46875 376.769531 124.179688 376.769531 C 122.894531 376.769531 121.847656 377.8125 121.847656 379.101562 Z M 121.71875 404.304688 C 121.71875 405.667969 122.820312 406.769531 124.179688 406.769531 C 125.542969 406.769531 126.644531 405.667969 126.644531 404.304688 C 126.644531 402.945312 125.542969 401.84375 124.179688 401.84375 C 122.820312 401.84375 121.71875 402.945312 121.71875 404.304688 Z M 100.429688 1.039062 C 100.429688 1.253906 100.609375 1.429688 100.824219 1.429688 C 101.042969 1.429688 101.214844 1.253906 101.214844 1.039062 C 101.214844 0.820312 101.042969 0.648438 100.824219 0.648438 C 100.609375 0.648438 100.429688 0.820312 100.429688 1.039062 Z M 100.273438 26.242188 C 100.273438 26.546875 100.519531 26.789062 100.824219 26.789062 C 101.128906 26.789062 101.371094 26.546875 101.371094 26.242188 C 101.371094 25.941406 101.128906 25.691406 100.824219 25.691406 C 100.519531 25.691406 100.273438 25.941406 100.273438 26.242188 Z M 100.117188 51.445312 C 100.117188 51.835938 100.433594 52.152344 100.824219 52.152344 C 101.210938 52.152344 101.527344 51.835938 101.527344 51.445312 C 101.527344 51.058594 101.210938 50.738281 100.824219 50.738281 C 100.433594 50.738281 100.117188 51.058594 100.117188 51.445312 Z M 99.960938 76.652344 C 99.960938 77.125 100.347656 77.511719 100.824219 77.511719 C 101.296875 77.511719 101.683594 77.125 101.683594 76.652344 C 101.683594 76.171875 101.296875 75.789062 100.824219 75.789062 C 100.347656 75.789062 99.960938 76.171875 99.960938 76.652344 Z M 99.804688 101.855469 C 99.804688 102.414062 100.261719 102.875 100.824219 102.875 C 101.386719 102.875 101.84375 102.414062 101.84375 101.855469 C 101.84375 101.292969 101.386719 100.835938 100.824219 100.835938 C 100.261719 100.835938 99.804688 101.292969 99.804688 101.855469 Z M 99.648438 127.058594 C 99.648438 127.710938 100.175781 128.234375 100.824219 128.234375 C 101.472656 128.234375 102 127.710938 102 127.058594 C 102 126.410156 101.472656 125.882812 100.824219 125.882812 C 100.175781 125.882812 99.648438 126.410156 99.648438 127.058594 Z M 99.492188 152.265625 C 99.492188 153 100.089844 153.597656 100.824219 153.597656 C 101.5625 153.597656 102.15625 153 102.15625 152.265625 C 102.15625 151.527344 101.5625 150.929688 100.824219 150.929688 C 100.089844 150.929688 99.492188 151.527344 99.492188 152.265625 Z M 99.335938 177.46875 C 99.335938 178.289062 100 178.953125 100.824219 178.953125 C 101.644531 178.953125 102.3125 178.289062 102.3125 177.46875 C 102.3125 176.644531 101.644531 175.980469 100.824219 175.980469 C 100 175.980469 99.335938 176.644531 99.335938 177.46875 Z M 99.179688 202.671875 C 99.179688 203.582031 99.914062 204.320312 100.824219 204.320312 C 101.730469 204.320312 102.46875 203.582031 102.46875 202.671875 C 102.46875 201.761719 101.730469 201.027344 100.824219 201.027344 C 99.914062 201.027344 99.179688 201.761719 99.179688 202.671875 Z M 99.023438 227.875 C 99.023438 228.871094 99.828125 229.675781 100.824219 229.675781 C 101.820312 229.675781 102.628906 228.871094 102.628906 227.875 C 102.628906 226.882812 101.820312 226.074219 100.824219 226.074219 C 99.828125 226.074219 99.023438 226.882812 99.023438 227.875 Z M 98.867188 253.078125 C 98.867188 254.160156 99.742188 255.039062 100.824219 255.039062 C 101.90625 255.039062 102.785156 254.160156 102.785156 253.078125 C 102.785156 252 101.90625 251.121094 100.824219 251.121094 C 99.742188 251.121094 98.867188 252 98.867188 253.078125 Z M 98.710938 278.285156 C 98.710938 279.453125 99.65625 280.398438 100.824219 280.398438 C 101.992188 280.398438 102.941406 279.453125 102.941406 278.285156 C 102.941406 277.113281 101.992188 276.167969 100.824219 276.167969 C 99.65625 276.167969 98.710938 277.113281 98.710938 278.285156 Z M 98.554688 303.488281 C 98.554688 304.746094 99.570312 305.761719 100.824219 305.761719 C 102.082031 305.761719 103.097656 304.746094 103.097656 303.488281 C 103.097656 302.234375 102.082031 301.21875 100.824219 301.21875 C 99.570312 301.21875 98.554688 302.234375 98.554688 303.488281 Z M 98.398438 328.695312 C 98.398438 330.035156 99.480469 331.121094 100.824219 331.121094 C 102.164062 331.121094 103.253906 330.035156 103.253906 328.695312 C 103.253906 327.351562 102.164062 326.261719 100.824219 326.261719 C 99.480469 326.261719 98.398438 327.351562 98.398438 328.695312 Z M 98.238281 353.898438 C 98.238281 355.324219 99.394531 356.484375 100.824219 356.484375 C 102.25 356.484375 103.410156 355.324219 103.410156 353.898438 C 103.410156 352.46875 102.25 351.3125 100.824219 351.3125 C 99.394531 351.3125 98.238281 352.46875 98.238281 353.898438 Z M 98.082031 379.101562 C 98.082031 380.617188 99.308594 381.84375 100.824219 381.84375 C 102.339844 381.84375 103.566406 380.617188 103.566406 379.101562 C 103.566406 377.585938 102.339844 376.359375 100.824219 376.359375 C 99.308594 376.359375 98.082031 377.585938 98.082031 379.101562 Z M 97.921875 404.304688 C 97.921875 405.910156 99.226562 407.207031 100.824219 407.207031 C 102.425781 407.207031 103.722656 405.910156 103.722656 404.304688 C 103.722656 402.707031 102.425781 401.40625 100.824219 401.40625 C 99.226562 401.40625 97.921875 402.707031 97.921875 404.304688 Z M 76.878906 1.015625 C 76.878906 1.269531 77.085938 1.476562 77.335938 1.476562 C 77.59375 1.476562 77.800781 1.269531 77.800781 1.015625 C 77.800781 0.761719 77.59375 0.554688 77.335938 0.554688 C 77.085938 0.554688 76.878906 0.761719 76.878906 1.015625 Z M 76.695312 26.222656 C 76.695312 26.578125 76.980469 26.867188 77.335938 26.867188 C 77.695312 26.867188 77.984375 26.578125 77.984375 26.222656 C 77.984375 25.867188 77.695312 25.578125 77.335938 25.578125 C 76.980469 25.578125 76.695312 25.867188 76.695312 26.222656 Z M 76.507812 51.425781 C 76.507812 51.886719 76.878906 52.253906 77.335938 52.253906 C 77.796875 52.253906 78.167969 51.886719 78.167969 51.425781 C 78.167969 50.96875 77.796875 50.597656 77.335938 50.597656 C 76.878906 50.597656 76.507812 50.96875 76.507812 51.425781 Z M 76.324219 76.632812 C 76.324219 77.191406 76.777344 77.648438 77.339844 77.648438 C 77.898438 77.648438 78.355469 77.191406 78.355469 76.632812 C 78.355469 76.074219 77.898438 75.617188 77.339844 75.617188 C 76.777344 75.617188 76.324219 76.074219 76.324219 76.632812 Z M 76.140625 101.839844 C 76.140625 102.5 76.675781 103.039062 77.335938 103.039062 C 78.003906 103.039062 78.535156 102.5 78.535156 101.839844 C 78.535156 101.175781 78.003906 100.636719 77.335938 100.636719 C 76.675781 100.636719 76.140625 101.175781 76.140625 101.839844 Z M 75.957031 127.042969 C 75.957031 127.808594 76.574219 128.429688 77.339844 128.429688 C 78.101562 128.429688 78.71875 127.808594 78.71875 127.042969 C 78.71875 126.28125 78.101562 125.660156 77.339844 125.660156 C 76.574219 125.660156 75.957031 126.28125 75.957031 127.042969 Z M 75.773438 152.25 C 75.773438 153.117188 76.472656 153.816406 77.339844 153.816406 C 78.203125 153.816406 78.90625 153.117188 78.90625 152.25 C 78.90625 151.382812 78.203125 150.679688 77.339844 150.679688 C 76.472656 150.679688 75.773438 151.382812 75.773438 152.25 Z M 75.589844 177.453125 C 75.589844 178.421875 76.371094 179.207031 77.339844 179.207031 C 78.304688 179.207031 79.089844 178.421875 79.089844 177.453125 C 79.089844 176.488281 78.304688 175.703125 77.339844 175.703125 C 76.371094 175.703125 75.589844 176.488281 75.589844 177.453125 Z M 75.402344 202.660156 C 75.402344 203.730469 76.269531 204.597656 77.339844 204.597656 C 78.40625 204.597656 79.273438 203.730469 79.273438 202.660156 C 79.273438 201.59375 78.40625 200.726562 77.339844 200.726562 C 76.269531 200.726562 75.402344 201.59375 75.402344 202.660156 Z M 75.21875 227.867188 C 75.21875 229.039062 76.167969 229.988281 77.339844 229.988281 C 78.511719 229.988281 79.460938 229.039062 79.460938 227.867188 C 79.460938 226.695312 78.511719 225.75 77.339844 225.75 C 76.167969 225.75 75.21875 226.695312 75.21875 227.867188 Z M 75.035156 253.074219 C 75.035156 254.34375 76.066406 255.375 77.339844 255.375 C 78.609375 255.375 79.640625 254.34375 79.640625 253.074219 C 79.640625 251.800781 78.609375 250.769531 77.339844 250.769531 C 76.066406 250.769531 75.035156 251.800781 75.035156 253.074219 Z M 74.847656 278.277344 C 74.847656 279.652344 75.964844 280.765625 77.339844 280.765625 C 78.714844 280.765625 79.828125 279.652344 79.828125 278.277344 C 79.828125 276.90625 78.714844 275.789062 77.339844 275.789062 C 75.964844 275.789062 74.847656 276.90625 74.847656 278.277344 Z M 74.667969 303.484375 C 74.667969 304.960938 75.863281 306.15625 77.339844 306.15625 C 78.816406 306.15625 80.011719 304.960938 80.011719 303.484375 C 80.011719 302.007812 78.816406 300.808594 77.339844 300.808594 C 75.863281 300.808594 74.667969 302.007812 74.667969 303.484375 Z M 74.480469 328.691406 C 74.480469 330.265625 75.757812 331.550781 77.339844 331.550781 C 78.917969 331.550781 80.195312 330.265625 80.195312 328.691406 C 80.195312 327.113281 78.917969 325.832031 77.339844 325.832031 C 75.757812 325.832031 74.480469 327.113281 74.480469 328.691406 Z M 74.296875 353.894531 C 74.296875 355.574219 75.660156 356.9375 77.339844 356.9375 C 79.019531 356.9375 80.382812 355.574219 80.382812 353.894531 C 80.382812 352.214844 79.019531 350.851562 77.339844 350.851562 C 75.660156 350.851562 74.296875 352.214844 74.296875 353.894531 Z M 74.113281 379.101562 C 74.113281 380.882812 75.554688 382.328125 77.339844 382.328125 C 79.121094 382.328125 80.566406 380.882812 80.566406 379.101562 C 80.566406 377.320312 79.121094 375.871094 77.339844 375.871094 C 75.554688 375.871094 74.113281 377.320312 74.113281 379.101562 Z M 73.929688 404.304688 C 73.929688 406.191406 75.457031 407.714844 77.339844 407.714844 C 79.222656 407.714844 80.75 406.191406 80.75 404.304688 C 80.75 402.421875 79.222656 400.894531 77.339844 400.894531 C 75.457031 400.894531 73.929688 402.421875 73.929688 404.304688 Z M 53.160156 1.015625 C 53.160156 1.316406 53.402344 1.558594 53.703125 1.558594 C 54.003906 1.558594 54.246094 1.316406 54.246094 1.015625 C 54.246094 0.714844 54.003906 0.472656 53.703125 0.472656 C 53.402344 0.472656 53.160156 0.714844 53.160156 1.015625 Z M 52.941406 26.222656 C 52.941406 26.640625 53.285156 26.980469 53.703125 26.980469 C 54.125 26.980469 54.460938 26.640625 54.460938 26.222656 C 54.460938 25.800781 54.125 25.464844 53.703125 25.464844 C 53.285156 25.464844 52.941406 25.800781 52.941406 26.222656 Z M 52.726562 51.425781 C 52.726562 51.96875 53.164062 52.402344 53.703125 52.402344 C 54.246094 52.402344 54.679688 51.96875 54.679688 51.425781 C 54.679688 50.886719 54.246094 50.453125 53.703125 50.453125 C 53.164062 50.453125 52.726562 50.886719 52.726562 51.425781 Z M 52.507812 76.632812 C 52.507812 77.292969 53.042969 77.824219 53.703125 77.824219 C 54.363281 77.824219 54.894531 77.292969 54.894531 76.632812 C 54.894531 75.972656 54.363281 75.441406 53.703125 75.441406 C 53.042969 75.441406 52.507812 75.972656 52.507812 76.632812 Z M 52.292969 101.839844 C 52.292969 102.617188 52.925781 103.246094 53.703125 103.246094 C 54.484375 103.246094 55.113281 102.617188 55.113281 101.839844 C 55.113281 101.0625 54.484375 100.429688 53.703125 100.429688 C 52.925781 100.429688 52.292969 101.0625 52.292969 101.839844 Z M 52.074219 127.042969 C 52.074219 127.941406 52.804688 128.667969 53.703125 128.667969 C 54.601562 128.667969 55.328125 127.941406 55.328125 127.042969 C 55.328125 126.144531 54.601562 125.417969 53.703125 125.417969 C 52.804688 125.417969 52.074219 126.144531 52.074219 127.042969 Z M 51.859375 152.25 C 51.859375 153.269531 52.683594 154.09375 53.703125 154.09375 C 54.722656 154.09375 55.546875 153.269531 55.546875 152.25 C 55.546875 151.234375 54.722656 150.402344 53.703125 150.402344 C 52.683594 150.402344 51.859375 151.234375 51.859375 152.25 Z M 51.640625 177.453125 C 51.640625 178.59375 52.566406 179.515625 53.703125 179.515625 C 54.84375 179.515625 55.761719 178.59375 55.761719 177.453125 C 55.761719 176.316406 54.84375 175.394531 53.703125 175.394531 C 52.566406 175.394531 51.640625 176.316406 51.640625 177.453125 Z M 51.425781 202.660156 C 51.425781 203.917969 52.445312 204.9375 53.703125 204.9375 C 54.960938 204.9375 55.980469 203.917969 55.980469 202.660156 C 55.980469 201.40625 54.960938 200.382812 53.703125 200.382812 C 52.445312 200.382812 51.425781 201.40625 51.425781 202.660156 Z M 51.207031 227.867188 C 51.207031 229.242188 52.324219 230.359375 53.703125 230.359375 C 55.082031 230.359375 56.195312 229.242188 56.195312 227.867188 C 56.195312 226.488281 55.082031 225.371094 53.703125 225.371094 C 52.324219 225.371094 51.207031 226.488281 51.207031 227.867188 Z M 50.992188 253.074219 C 50.992188 254.570312 52.207031 255.785156 53.703125 255.785156 C 55.199219 255.785156 56.414062 254.570312 56.414062 253.074219 C 56.414062 251.574219 55.199219 250.359375 53.703125 250.359375 C 52.207031 250.359375 50.992188 251.574219 50.992188 253.074219 Z M 50.773438 278.277344 C 50.773438 279.894531 52.085938 281.207031 53.703125 281.207031 C 55.320312 281.207031 56.628906 279.894531 56.628906 278.277344 C 56.628906 276.660156 55.320312 275.351562 53.703125 275.351562 C 52.085938 275.351562 50.773438 276.660156 50.773438 278.277344 Z M 50.558594 303.484375 C 50.558594 305.222656 51.964844 306.628906 53.703125 306.628906 C 55.4375 306.628906 56.847656 305.222656 56.847656 303.484375 C 56.847656 301.746094 55.4375 300.339844 53.703125 300.339844 C 51.964844 300.339844 50.558594 301.746094 50.558594 303.484375 Z M 50.339844 328.691406 C 50.339844 330.546875 51.84375 332.050781 53.703125 332.050781 C 55.558594 332.050781 57.0625 330.546875 57.0625 328.691406 C 57.0625 326.832031 55.558594 325.328125 53.703125 325.328125 C 51.84375 325.328125 50.339844 326.832031 50.339844 328.691406 Z M 50.125 353.894531 C 50.125 355.871094 51.726562 357.476562 53.703125 357.476562 C 55.679688 357.476562 57.285156 355.871094 57.285156 353.894531 C 57.285156 351.917969 55.679688 350.316406 53.703125 350.316406 C 51.726562 350.316406 50.125 351.917969 50.125 353.894531 Z M 49.90625 379.101562 C 49.90625 381.199219 51.605469 382.898438 53.703125 382.898438 C 55.800781 382.898438 57.496094 381.199219 57.496094 379.101562 C 57.496094 377.003906 55.800781 375.304688 53.703125 375.304688 C 51.605469 375.304688 49.90625 377.003906 49.90625 379.101562 Z M 49.691406 404.304688 C 49.691406 406.523438 51.484375 408.320312 53.703125 408.320312 C 55.917969 408.320312 57.71875 406.523438 57.71875 404.304688 C 57.71875 402.089844 55.917969 400.292969 53.703125 400.292969 C 51.484375 400.292969 49.691406 402.089844 49.691406 404.304688 Z M 29.253906 1.011719 C 29.253906 1.363281 29.539062 1.648438 29.890625 1.648438 C 30.246094 1.648438 30.53125 1.363281 30.53125 1.011719 C 30.53125 0.660156 30.246094 0.375 29.890625 0.375 C 29.539062 0.375 29.253906 0.660156 29.253906 1.011719 Z M 28.996094 26.21875 C 28.996094 26.710938 29.394531 27.109375 29.890625 27.109375 C 30.382812 27.109375 30.78125 26.710938 30.78125 26.21875 C 30.78125 25.726562 30.382812 25.324219 29.890625 25.324219 C 29.394531 25.324219 28.996094 25.726562 28.996094 26.21875 Z M 28.742188 51.421875 C 28.742188 52.058594 29.257812 52.574219 29.890625 52.574219 C 30.527344 52.574219 31.039062 52.058594 31.039062 51.421875 C 31.039062 50.789062 30.527344 50.273438 29.890625 50.273438 C 29.257812 50.273438 28.742188 50.789062 28.742188 51.421875 Z M 28.484375 76.628906 C 28.484375 77.40625 29.113281 78.03125 29.890625 78.03125 C 30.664062 78.03125 31.292969 77.40625 31.292969 76.628906 C 31.292969 75.855469 30.664062 75.226562 29.890625 75.226562 C 29.113281 75.226562 28.484375 75.855469 28.484375 76.628906 Z M 28.234375 101.835938 C 28.234375 102.753906 28.976562 103.492188 29.890625 103.492188 C 30.808594 103.492188 31.550781 102.753906 31.550781 101.835938 C 31.550781 100.917969 30.808594 100.175781 29.890625 100.175781 C 28.976562 100.175781 28.234375 100.917969 28.234375 101.835938 Z M 27.976562 127.042969 C 27.976562 128.097656 28.832031 128.953125 29.890625 128.953125 C 30.945312 128.953125 31.804688 128.097656 31.804688 127.042969 C 31.804688 125.984375 30.945312 125.128906 29.890625 125.128906 C 28.832031 125.128906 27.976562 125.984375 27.976562 127.042969 Z M 27.71875 152.246094 C 27.71875 153.445312 28.691406 154.414062 29.890625 154.414062 C 31.085938 154.414062 32.058594 153.445312 32.058594 152.246094 C 32.058594 151.046875 31.085938 150.078125 29.890625 150.078125 C 28.691406 150.078125 27.71875 151.046875 27.71875 152.246094 Z M 27.464844 177.449219 C 27.464844 178.792969 28.550781 179.875 29.890625 179.875 C 31.230469 179.875 32.3125 178.792969 32.3125 177.449219 C 32.3125 176.113281 31.230469 175.03125 29.890625 175.03125 C 28.550781 175.03125 27.464844 176.113281 27.464844 177.449219 Z M 27.210938 202.65625 C 27.210938 204.136719 28.410156 205.335938 29.890625 205.335938 C 31.367188 205.335938 32.570312 204.136719 32.570312 202.65625 C 32.570312 201.175781 31.367188 199.980469 29.890625 199.980469 C 28.410156 199.980469 27.210938 201.175781 27.210938 202.65625 Z M 26.957031 227.863281 C 26.957031 229.484375 28.273438 230.796875 29.890625 230.796875 C 31.511719 230.796875 32.828125 229.484375 32.828125 227.863281 C 32.828125 226.242188 31.511719 224.925781 29.890625 224.925781 C 28.273438 224.925781 26.957031 226.242188 26.957031 227.863281 Z M 26.699219 253.070312 C 26.699219 254.828125 28.128906 256.257812 29.890625 256.257812 C 31.652344 256.257812 33.082031 254.828125 33.082031 253.070312 C 33.082031 251.304688 31.652344 249.878906 29.890625 249.878906 C 28.128906 249.878906 26.699219 251.304688 26.699219 253.070312 Z M 26.445312 278.273438 C 26.445312 280.175781 27.988281 281.71875 29.890625 281.71875 C 31.792969 281.71875 33.335938 280.175781 33.335938 278.273438 C 33.335938 276.371094 31.792969 274.828125 29.890625 274.828125 C 27.988281 274.828125 26.445312 276.371094 26.445312 278.273438 Z M 26.1875 303.480469 C 26.1875 305.523438 27.847656 307.179688 29.890625 307.179688 C 31.933594 307.179688 33.589844 305.523438 33.589844 303.480469 C 33.589844 301.4375 31.933594 299.777344 29.890625 299.777344 C 27.847656 299.777344 26.1875 301.4375 26.1875 303.480469 Z M 25.9375 328.683594 C 25.9375 330.871094 27.707031 332.640625 29.890625 332.640625 C 32.074219 332.640625 33.847656 330.871094 33.847656 328.683594 C 33.847656 326.5 32.074219 324.730469 29.890625 324.730469 C 27.707031 324.730469 25.9375 326.5 25.9375 328.683594 Z M 25.679688 353.890625 C 25.679688 356.21875 27.5625 358.101562 29.890625 358.101562 C 32.214844 358.101562 34.097656 356.21875 34.097656 353.890625 C 34.097656 351.566406 32.214844 349.679688 29.890625 349.679688 C 27.5625 349.679688 25.679688 351.566406 25.679688 353.890625 Z M 25.421875 379.097656 C 25.421875 381.5625 27.421875 383.5625 29.890625 383.5625 C 32.355469 383.5625 34.355469 381.5625 34.355469 379.097656 C 34.355469 376.628906 32.355469 374.632812 29.890625 374.632812 C 27.421875 374.632812 25.421875 376.628906 25.421875 379.097656 Z M 25.167969 404.300781 C 25.167969 406.910156 27.285156 409.023438 29.890625 409.023438 C 32.496094 409.023438 34.609375 406.910156 34.609375 404.300781 C 34.609375 401.691406 32.496094 399.582031 29.890625 399.582031 C 27.285156 399.582031 25.167969 401.691406 25.167969 404.300781 Z M 5.117188 1.011719 C 5.117188 1.425781 5.457031 1.761719 5.867188 1.761719 C 6.285156 1.761719 6.617188 1.425781 6.617188 1.011719 C 6.617188 0.597656 6.285156 0.261719 5.867188 0.261719 C 5.457031 0.261719 5.117188 0.597656 5.117188 1.011719 Z M 4.820312 26.21875 C 4.820312 26.796875 5.289062 27.269531 5.867188 27.269531 C 6.449219 27.269531 6.921875 26.796875 6.921875 26.21875 C 6.921875 25.636719 6.449219 25.167969 5.867188 25.167969 C 5.289062 25.167969 4.820312 25.636719 4.820312 26.21875 Z M 4.515625 51.421875 C 4.515625 52.167969 5.121094 52.773438 5.867188 52.773438 C 6.613281 52.773438 7.21875 52.167969 7.21875 51.421875 C 7.21875 50.679688 6.613281 50.074219 5.867188 50.074219 C 5.121094 50.074219 4.515625 50.679688 4.515625 51.421875 Z M 4.21875 76.628906 C 4.21875 77.542969 4.957031 78.28125 5.867188 78.28125 C 6.78125 78.28125 7.523438 77.542969 7.523438 76.628906 C 7.523438 75.71875 6.78125 74.976562 5.867188 74.976562 C 4.957031 74.976562 4.21875 75.71875 4.21875 76.628906 Z M 3.921875 101.835938 C 3.921875 102.914062 4.792969 103.789062 5.867188 103.789062 C 6.945312 103.789062 7.820312 102.914062 7.820312 101.835938 C 7.820312 100.757812 6.945312 99.882812 5.867188 99.882812 C 4.792969 99.882812 3.921875 100.757812 3.921875 101.835938 Z M 3.617188 127.042969 C 3.617188 128.285156 4.625 129.292969 5.867188 129.292969 C 7.113281 129.292969 8.121094 128.285156 8.121094 127.042969 C 8.121094 125.796875 7.113281 124.789062 5.867188 124.789062 C 4.625 124.789062 3.617188 125.796875 3.617188 127.042969 Z M 3.316406 152.246094 C 3.316406 153.652344 4.460938 154.800781 5.867188 154.800781 C 7.28125 154.800781 8.421875 153.652344 8.421875 152.246094 C 8.421875 150.839844 7.28125 149.695312 5.867188 149.695312 C 4.460938 149.695312 3.316406 150.839844 3.316406 152.246094 Z M 3.015625 177.449219 C 3.015625 179.027344 4.292969 180.304688 5.867188 180.304688 C 7.445312 180.304688 8.71875 179.027344 8.71875 177.449219 C 8.71875 175.875 7.445312 174.597656 5.867188 174.597656 C 4.292969 174.597656 3.015625 175.875 3.015625 177.449219 Z M 2.71875 202.65625 C 2.71875 204.398438 4.128906 205.808594 5.867188 205.808594 C 7.609375 205.808594 9.023438 204.398438 9.023438 202.65625 C 9.023438 200.917969 7.609375 199.503906 5.867188 199.503906 C 4.128906 199.503906 2.71875 200.917969 2.71875 202.65625 Z M 2.417969 227.863281 C 2.417969 229.769531 3.960938 231.316406 5.867188 231.316406 C 7.773438 231.316406 9.320312 229.769531 9.320312 227.863281 C 9.320312 225.953125 7.773438 224.410156 5.867188 224.410156 C 3.960938 224.410156 2.417969 225.953125 2.417969 227.863281 Z M 2.117188 253.070312 C 2.117188 255.140625 3.796875 256.820312 5.867188 256.820312 C 7.941406 256.820312 9.625 255.140625 9.625 253.070312 C 9.625 250.996094 7.941406 249.316406 5.867188 249.316406 C 3.796875 249.316406 2.117188 250.996094 2.117188 253.070312 Z M 1.816406 278.273438 C 1.816406 280.515625 3.632812 282.328125 5.867188 282.328125 C 8.109375 282.328125 9.921875 280.515625 9.921875 278.273438 C 9.921875 276.039062 8.109375 274.222656 5.867188 274.222656 C 3.632812 274.222656 1.816406 276.039062 1.816406 278.273438 Z M 1.515625 303.480469 C 1.515625 305.882812 3.464844 307.832031 5.867188 307.832031 C 8.273438 307.832031 10.222656 305.882812 10.222656 303.480469 C 10.222656 301.074219 8.273438 299.128906 5.867188 299.128906 C 3.464844 299.128906 1.515625 301.074219 1.515625 303.480469 Z M 1.214844 328.683594 C 1.214844 331.253906 3.296875 333.339844 5.867188 333.339844 C 8.4375 333.339844 10.523438 331.253906 10.523438 328.683594 C 10.523438 326.113281 8.4375 324.035156 5.867188 324.035156 C 3.296875 324.035156 1.214844 326.113281 1.214844 328.683594 Z M 0.914062 353.890625 C 0.914062 356.625 3.132812 358.84375 5.867188 358.84375 C 8.605469 358.84375 10.824219 356.625 10.824219 353.890625 C 10.824219 351.15625 8.605469 348.9375 5.867188 348.9375 C 3.132812 348.9375 0.914062 351.15625 0.914062 353.890625 Z M 0.617188 379.097656 C 0.617188 382 2.96875 384.347656 5.867188 384.347656 C 8.773438 384.347656 11.125 382 11.125 379.097656 C 11.125 376.195312 8.773438 373.84375 5.867188 373.84375 C 2.96875 373.84375 0.617188 376.195312 0.617188 379.097656 Z M 5.867188 398.75 C 8.9375 398.75 11.425781 401.234375 11.425781 404.300781 C 11.425781 407.371094 8.9375 409.855469 5.867188 409.855469 C 2.800781 409.855469 0.316406 407.371094 0.316406 404.300781 C 0.316406 401.234375 2.800781 398.75 5.867188 398.75 " fill-opacity="1" fill-rule="nonzero"/></g></g></g></g></g><g clip-path="url(#e96d73ef51)"><g clip-path="url(#92dc16ca0e)"><path fill="#de0f3f" d="M 19.707031 487.652344 L 54.996094 487.652344 L 54.996094 518.484375 L 19.707031 518.484375 Z M 19.707031 487.652344 " fill-opacity="1" fill-rule="nonzero"/></g></g><g clip-path="url(#ee702d0817)"><g clip-path="url(#ba247ffb61)"><path fill="#ffc504" d="M 41.691406 518.484375 L 76.527344 518.484375 L 76.527344 548.921875 L 41.691406 548.921875 Z M 41.691406 518.484375 " fill-opacity="1" fill-rule="nonzero"/></g></g><g clip-path="url(#cd6bf13598)"><g clip-path="url(#df7caf3074)"><path fill="#05624d" d="M 30.375 448.027344 L 11.375 448.027344 L 11.375 431.425781 L 30.375 431.425781 Z M 30.375 448.027344 " fill-opacity="1" fill-rule="nonzero"/></g></g><g clip-path="url(#7310e54c06)"><g clip-path="url(#f450b5d631)"><path fill="#145da0" d="M 22.816406 475.21875 L -0.0429688 475.21875 L -0.0429688 455.25 L 22.816406 455.25 Z M 22.816406 475.21875 " fill-opacity="1" fill-rule="nonzero"/></g></g><g clip-path="url(#89c6c7fbcb)"><g clip-path="url(#3ed6a45fad)"><path fill="#de0f3f" d="M 54.414062 386.476562 L 72.058594 386.476562 L 72.058594 401.894531 L 54.414062 401.894531 Z M 54.414062 386.476562 " fill-opacity="1" fill-rule="nonzero"/></g></g><g clip-path="url(#99e7c691a6)"><g clip-path="url(#68f8298324)"><path fill="#de0f3f" d="M 76.476562 355.644531 L 94.121094 355.644531 L 94.121094 371.058594 L 76.476562 371.058594 Z M 76.476562 355.644531 " fill-opacity="1" fill-rule="nonzero"/></g></g></svg>