<svg xmlns="http://www.w3.org/2000/svg" xmlns:xlink="http://www.w3.org/1999/xlink" width="1366" zoomAndPan="magnify" viewBox="0 0 1024.5 576" height="768" preserveAspectRatio="xMidYMid meet" version="1.0"><defs><filter x="0%" y="0%" width="100%" height="100%" id="20dae5de07"><feColorMatrix values="0 0 0 0 1 0 0 0 0 1 0 0 0 0 1 0 0 0 1 0" color-interpolation-filters="sRGB"/></filter><clipPath id="99f4cf5b38"><path d="M 0 0.140625 L 1024 0.140625 L 1024 575.859375 L 0 575.859375 Z M 0 0.140625 " clip-rule="nonzero"/></clipPath><clipPath id="04a2a82638"><path d="M 0 398 L 319 398 L 319 575.859375 L 0 575.859375 Z M 0 398 " clip-rule="nonzero"/></clipPath><mask id="3d3c99eff7"><g filter="url(#20dae5de07)"><rect x="-102.45" width="1229.4" fill="#000000" y="-57.6" height="691.2" fill-opacity="0.26"/></g></mask><clipPath id="688ff33948"><path d="M 0 3.894531 L 316.183594 3.894531 L 316.183594 177.859375 L 0 177.859375 Z M 0 3.894531 " clip-rule="nonzero"/></clipPath><clipPath id="acb75db417"><rect x="0" width="319" y="0" height="178"/></clipPath><clipPath id="a4afc74b7f"><path d="M 19.707031 487.652344 L 54.996094 487.652344 L 54.996094 518.484375 L 19.707031 518.484375 Z M 19.707031 487.652344 " clip-rule="nonzero"/></clipPath><clipPath id="1615cd68a9"><path d="M 37.328125 487.652344 L 54.945312 518.484375 L 19.707031 518.484375 Z M 37.328125 487.652344 " clip-rule="nonzero"/></clipPath><clipPath id="432fef5c8f"><path d="M 41.691406 518.484375 L 76.527344 518.484375 L 76.527344 548.921875 L 41.691406 548.921875 Z M 41.691406 518.484375 " clip-rule="nonzero"/></clipPath><clipPath id="7200194220"><path d="M 59.085938 518.484375 L 76.476562 548.921875 L 41.691406 548.921875 Z M 59.085938 518.484375 " clip-rule="nonzero"/></clipPath><clipPath id="d8beec0d71"><path d="M 11.375 431.425781 L 30.375 431.425781 L 30.375 448.027344 L 11.375 448.027344 Z M 11.375 431.425781 " clip-rule="nonzero"/></clipPath><clipPath id="a9f3608657"><path d="M 20.890625 448.027344 L 11.402344 431.425781 L 30.375 431.425781 Z M 20.890625 448.027344 " clip-rule="nonzero"/></clipPath><clipPath id="763344ba10"><path d="M 0 455.25 L 22.816406 455.25 L 22.816406 475.21875 L 0 475.21875 Z M 0 455.25 " clip-rule="nonzero"/></clipPath><clipPath id="c6c1cb0b62"><path d="M 11.40625 475.21875 L -0.0078125 455.25 L 22.816406 455.25 Z M 11.40625 475.21875 " clip-rule="nonzero"/></clipPath><clipPath id="cf050dcbfa"><path d="M 54.414062 386.476562 L 72.058594 386.476562 L 72.058594 401.894531 L 54.414062 401.894531 Z M 54.414062 386.476562 " clip-rule="nonzero"/></clipPath><clipPath id="6b2f55a83f"><path d="M 63.222656 386.476562 L 72.03125 401.894531 L 54.414062 401.894531 Z M 63.222656 386.476562 " clip-rule="nonzero"/></clipPath><clipPath id="dc16c07f5f"><path d="M 76.476562 355.644531 L 94.121094 355.644531 L 94.121094 371.058594 L 76.476562 371.058594 Z M 76.476562 355.644531 " clip-rule="nonzero"/></clipPath><clipPath id="c4ac559125"><path d="M 85.285156 355.644531 L 94.09375 371.058594 L 76.476562 371.058594 Z M 85.285156 355.644531 " clip-rule="nonzero"/></clipPath><clipPath id="9fbd775ce2"><path d="M 892 0.140625 L 1024 0.140625 L 1024 217 L 892 217 Z M 892 0.140625 " clip-rule="nonzero"/></clipPath><mask id="7cd4c0d55e"><g filter="url(#20dae5de07)"><rect x="-102.45" width="1229.4" fill="#000000" y="-57.6" height="691.2" fill-opacity="0.26"/></g></mask><clipPath id="a34d3b2898"><path d="M 4 0.140625 L 132 0.140625 L 132 215 L 4 215 Z M 4 0.140625 " clip-rule="nonzero"/></clipPath><clipPath id="89ef293913"><rect x="0" width="132" y="0" height="217"/></clipPath></defs><g clip-path="url(#99f4cf5b38)"><path fill="#ffffff" d="M 0 0.140625 L 1024 0.140625 L 1024 575.859375 L 0 575.859375 Z M 0 0.140625 " fill-opacity="1" fill-rule="nonzero"/><path fill="#ffffff" d="M 0 0.140625 L 1024 0.140625 L 1024 575.859375 L 0 575.859375 Z M 0 0.140625 " fill-opacity="1" fill-rule="nonzero"/></g><g clip-path="url(#04a2a82638)"><g mask="url(#3d3c99eff7)"><g transform="matrix(1, 0, 0, 1, 0, 398)"><g clip-path="url(#acb75db417)"><g clip-path="url(#688ff33948)"><path fill="#ff9e9e" d="M 124.425781 60.578125 C 126.636719 60.578125 128.851562 60.628906 131.0625 60.738281 C 133.273438 60.847656 135.476562 61.011719 137.679688 61.226562 C 139.882812 61.445312 142.078125 61.714844 144.269531 62.039062 C 146.457031 62.363281 148.640625 62.742188 150.808594 63.175781 C 152.980469 63.605469 155.140625 64.089844 157.285156 64.628906 C 159.433594 65.167969 161.566406 65.757812 163.683594 66.398438 C 165.800781 67.042969 167.902344 67.738281 169.988281 68.480469 C 172.070312 69.226562 174.136719 70.023438 176.179688 70.871094 C 178.226562 71.71875 180.25 72.613281 182.25 73.5625 C 184.25 74.507812 186.226562 75.503906 188.179688 76.546875 C 190.132812 77.589844 192.058594 78.679688 193.957031 79.816406 C 195.855469 80.957031 197.722656 82.140625 199.5625 83.371094 C 201.402344 84.597656 203.214844 85.875 204.992188 87.191406 C 206.769531 88.511719 208.511719 89.871094 210.222656 91.277344 C 211.933594 92.679688 213.609375 94.125 215.25 95.613281 C 216.890625 97.097656 218.492188 98.625 220.058594 100.1875 C 221.625 101.753906 223.148438 103.355469 224.636719 104.996094 C 226.121094 106.636719 227.566406 108.3125 228.972656 110.023438 C 230.375 111.734375 231.738281 113.480469 233.054688 115.257812 C 234.375 117.035156 235.648438 118.84375 236.878906 120.683594 C 238.109375 122.523438 239.292969 124.394531 240.429688 126.292969 C 241.566406 128.191406 242.65625 130.117188 243.703125 132.066406 C 244.746094 134.019531 245.738281 135.996094 246.6875 137.996094 C 247.632812 140 248.527344 142.019531 249.375 144.066406 C 250.222656 146.109375 251.019531 148.175781 251.765625 150.257812 C 252.511719 152.34375 253.203125 154.445312 253.847656 156.5625 C 254.488281 158.679688 255.082031 160.8125 255.617188 162.960938 C 256.15625 165.109375 256.640625 167.265625 257.074219 169.4375 C 257.503906 171.609375 257.882812 173.789062 258.207031 175.976562 C 258.53125 178.167969 258.804688 180.363281 259.019531 182.566406 C 259.238281 184.769531 259.398438 186.976562 259.507812 189.1875 C 259.617188 191.398438 259.671875 193.609375 259.671875 195.824219 C 259.671875 198.035156 259.617188 200.25 259.507812 202.460938 C 259.398438 204.671875 259.238281 206.875 259.019531 209.078125 C 258.804688 211.28125 258.53125 213.476562 258.207031 215.667969 C 257.882812 217.855469 257.503906 220.039062 257.074219 222.207031 C 256.640625 224.378906 256.15625 226.539062 255.617188 228.683594 C 255.082031 230.832031 254.488281 232.964844 253.847656 235.082031 C 253.203125 237.199219 252.511719 239.300781 251.765625 241.386719 C 251.019531 243.46875 250.222656 245.535156 249.375 247.578125 C 248.527344 249.625 247.632812 251.648438 246.6875 253.648438 C 245.738281 255.648438 244.746094 257.625 243.703125 259.578125 C 242.65625 261.53125 241.566406 263.457031 240.429688 265.355469 C 239.292969 267.253906 238.109375 269.121094 236.878906 270.960938 C 235.648438 272.800781 234.375 274.613281 233.054688 276.390625 C 231.738281 278.167969 230.375 279.910156 228.972656 281.621094 C 227.566406 283.332031 226.121094 285.007812 224.636719 286.648438 C 223.148438 288.289062 221.625 289.890625 220.058594 291.457031 C 218.492188 293.023438 216.890625 294.546875 215.25 296.035156 C 213.609375 297.519531 211.933594 298.964844 210.222656 300.371094 C 208.511719 301.773438 206.769531 303.136719 204.992188 304.453125 C 203.214844 305.773438 201.402344 307.046875 199.5625 308.277344 C 197.722656 309.507812 195.855469 310.691406 193.957031 311.828125 C 192.058594 312.964844 190.132812 314.054688 188.179688 315.101562 C 186.226562 316.144531 184.25 317.136719 182.25 318.085938 C 180.25 319.03125 178.226562 319.925781 176.179688 320.773438 C 174.136719 321.621094 172.070312 322.417969 169.988281 323.164062 C 167.902344 323.910156 165.800781 324.601562 163.683594 325.246094 C 161.566406 325.886719 159.433594 326.480469 157.285156 327.015625 C 155.140625 327.554688 152.980469 328.039062 150.808594 328.472656 C 148.640625 328.902344 146.457031 329.28125 144.269531 329.605469 C 142.078125 329.929688 139.882812 330.203125 137.679688 330.417969 C 135.476562 330.636719 133.273438 330.796875 131.0625 330.90625 C 128.851562 331.015625 126.636719 331.070312 124.425781 331.070312 C 122.210938 331.070312 120 331.015625 117.789062 330.90625 C 115.578125 330.796875 113.371094 330.636719 111.167969 330.417969 C 108.964844 330.203125 106.769531 329.929688 104.578125 329.605469 C 102.390625 329.28125 100.210938 328.902344 98.039062 328.472656 C 95.867188 328.039062 93.710938 327.554688 91.5625 327.015625 C 89.414062 326.480469 87.28125 325.886719 85.164062 325.246094 C 83.046875 324.601562 80.945312 323.910156 78.863281 323.164062 C 76.777344 322.417969 74.710938 321.621094 72.667969 320.773438 C 70.621094 319.925781 68.601562 319.03125 66.597656 318.085938 C 64.597656 317.136719 62.621094 316.144531 60.667969 315.101562 C 58.71875 314.054688 56.792969 312.964844 54.894531 311.828125 C 52.996094 310.691406 51.125 309.507812 49.285156 308.277344 C 47.445312 307.046875 45.636719 305.773438 43.859375 304.453125 C 42.082031 303.136719 40.335938 301.773438 38.625 300.371094 C 36.914062 298.964844 35.238281 297.519531 33.597656 296.035156 C 31.957031 294.546875 30.355469 293.023438 28.789062 291.457031 C 27.226562 289.890625 25.699219 288.289062 24.214844 286.648438 C 22.726562 285.007812 21.28125 283.332031 19.878906 281.621094 C 18.472656 279.910156 17.113281 278.167969 15.792969 276.390625 C 14.476562 274.613281 13.199219 272.800781 11.972656 270.960938 C 10.742188 269.121094 9.558594 267.253906 8.417969 265.355469 C 7.28125 263.457031 6.191406 261.53125 5.148438 259.578125 C 4.105469 257.625 3.109375 255.648438 2.164062 253.648438 C 1.214844 251.648438 0.320312 249.625 -0.527344 247.578125 C -1.375 245.535156 -2.171875 243.46875 -2.917969 241.386719 C -3.660156 239.300781 -4.355469 237.199219 -5 235.082031 C -5.640625 232.964844 -6.230469 230.832031 -6.769531 228.683594 C -7.308594 226.539062 -7.792969 224.378906 -8.222656 222.207031 C -8.65625 220.039062 -9.035156 217.855469 -9.359375 215.667969 C -9.683594 213.476562 -9.953125 211.28125 -10.171875 209.078125 C -10.386719 206.875 -10.550781 204.671875 -10.660156 202.460938 C -10.769531 200.25 -10.820312 198.035156 -10.820312 195.824219 C -10.820312 193.609375 -10.765625 191.398438 -10.652344 189.1875 C -10.542969 186.976562 -10.378906 184.773438 -10.160156 182.570312 C -9.941406 180.367188 -9.667969 178.171875 -9.34375 175.984375 C -9.015625 173.796875 -8.636719 171.617188 -8.203125 169.445312 C -7.773438 167.277344 -7.285156 165.117188 -6.746094 162.972656 C -6.207031 160.824219 -5.617188 158.691406 -4.972656 156.574219 C -4.328125 154.457031 -3.632812 152.359375 -2.886719 150.273438 C -2.140625 148.191406 -1.34375 146.128906 -0.496094 144.082031 C 0.351562 142.039062 1.25 140.019531 2.195312 138.019531 C 3.140625 136.015625 4.136719 134.042969 5.179688 132.089844 C 6.226562 130.140625 7.316406 128.214844 8.453125 126.316406 C 9.59375 124.417969 10.777344 122.550781 12.007812 120.710938 C 13.234375 118.871094 14.511719 117.0625 15.828125 115.285156 C 17.148438 113.507812 18.507812 111.765625 19.914062 110.054688 C 21.316406 108.34375 22.761719 106.667969 24.246094 105.027344 C 25.734375 103.390625 27.257812 101.785156 28.824219 100.222656 C 30.390625 98.65625 31.992188 97.132812 33.628906 95.644531 C 35.269531 94.160156 36.945312 92.714844 38.65625 91.3125 C 40.367188 89.90625 42.109375 88.546875 43.886719 87.226562 C 45.664062 85.910156 47.472656 84.632812 49.3125 83.40625 C 51.152344 82.175781 53.019531 80.992188 54.917969 79.851562 C 56.816406 78.714844 58.742188 77.625 60.691406 76.578125 C 62.644531 75.535156 64.621094 74.539062 66.621094 73.59375 C 68.621094 72.648438 70.640625 71.75 72.683594 70.902344 C 74.730469 70.054688 76.792969 69.257812 78.875 68.511719 C 80.960938 67.765625 83.058594 67.070312 85.175781 66.425781 C 87.292969 65.78125 89.425781 65.191406 91.574219 64.652344 C 93.71875 64.113281 95.878906 63.625 98.046875 63.195312 C 100.21875 62.761719 102.398438 62.382812 104.585938 62.054688 C 106.773438 61.730469 108.96875 61.457031 111.171875 61.238281 C 113.375 61.019531 115.578125 60.855469 117.789062 60.746094 C 120 60.632812 122.210938 60.578125 124.425781 60.578125 M 124.425781 3.894531 C 121.285156 3.890625 118.144531 3.96875 115.007812 4.121094 C 111.867188 4.277344 108.738281 4.507812 105.609375 4.8125 C 102.484375 5.121094 99.367188 5.503906 96.261719 5.964844 C 93.152344 6.425781 90.058594 6.960938 86.980469 7.574219 C 83.898438 8.1875 80.832031 8.875 77.785156 9.636719 C 74.738281 10.398438 71.710938 11.234375 68.707031 12.148438 C 65.699219 13.058594 62.71875 14.042969 59.761719 15.101562 C 56.800781 16.160156 53.871094 17.289062 50.96875 18.488281 C 48.066406 19.691406 45.195312 20.964844 42.355469 22.304688 C 39.515625 23.648438 36.710938 25.058594 33.941406 26.539062 C 31.171875 28.019531 28.4375 29.566406 25.742188 31.183594 C 23.050781 32.796875 20.394531 34.476562 17.785156 36.21875 C 15.171875 37.964844 12.605469 39.773438 10.082031 41.644531 C 7.558594 43.515625 5.082031 45.445312 2.652344 47.4375 C 0.222656 49.429688 -2.152344 51.480469 -4.480469 53.589844 C -6.808594 55.699219 -9.085938 57.863281 -11.304688 60.085938 C -13.527344 62.304688 -15.691406 64.582031 -17.804688 66.90625 C -19.914062 69.234375 -21.964844 71.613281 -23.957031 74.039062 C -25.949219 76.46875 -27.882812 78.941406 -29.753906 81.464844 C -31.625 83.988281 -33.433594 86.554688 -35.179688 89.167969 C -36.925781 91.777344 -38.605469 94.433594 -40.222656 97.125 C -41.835938 99.820312 -43.386719 102.550781 -44.867188 105.320312 C -46.347656 108.09375 -47.761719 110.898438 -49.105469 113.738281 C -50.445312 116.574219 -51.71875 119.445312 -52.921875 122.347656 C -54.125 125.25 -55.253906 128.179688 -56.3125 131.136719 C -57.375 134.09375 -58.359375 137.078125 -59.269531 140.082031 C -60.183594 143.089844 -61.019531 146.113281 -61.785156 149.160156 C -62.546875 152.207031 -63.238281 155.273438 -63.851562 158.351562 C -64.464844 161.433594 -65 164.527344 -65.460938 167.636719 C -65.921875 170.742188 -66.308594 173.859375 -66.617188 176.984375 C -66.925781 180.109375 -67.15625 183.242188 -67.3125 186.378906 C -67.464844 189.515625 -67.542969 192.65625 -67.542969 195.796875 C -67.542969 198.9375 -67.46875 202.078125 -67.3125 205.214844 C -67.160156 208.351562 -66.929688 211.484375 -66.621094 214.609375 C -66.3125 217.738281 -65.929688 220.855469 -65.46875 223.960938 C -65.007812 227.070312 -64.472656 230.164062 -63.859375 233.242188 C -63.246094 236.324219 -62.558594 239.386719 -61.796875 242.4375 C -61.035156 245.484375 -60.195312 248.507812 -59.285156 251.515625 C -58.375 254.523438 -57.390625 257.503906 -56.332031 260.460938 C -55.273438 263.417969 -54.144531 266.347656 -52.941406 269.25 C -51.738281 272.152344 -50.46875 275.023438 -49.125 277.863281 C -47.78125 280.703125 -46.371094 283.507812 -44.890625 286.28125 C -43.410156 289.050781 -41.863281 291.78125 -40.246094 294.476562 C -38.632812 297.171875 -36.953125 299.824219 -35.207031 302.4375 C -33.464844 305.046875 -31.65625 307.617188 -29.785156 310.140625 C -27.914062 312.664062 -25.980469 315.136719 -23.988281 317.566406 C -21.996094 319.996094 -19.945312 322.375 -17.835938 324.699219 C -15.726562 327.027344 -13.5625 329.304688 -11.339844 331.523438 C -9.121094 333.746094 -6.847656 335.910156 -4.519531 338.019531 C -2.191406 340.132812 0.1875 342.183594 2.613281 344.175781 C 5.042969 346.167969 7.515625 348.101562 10.039062 349.972656 C 12.5625 351.84375 15.128906 353.652344 17.742188 355.398438 C 20.351562 357.144531 23.007812 358.824219 25.699219 360.4375 C 28.394531 362.054688 31.125 363.601562 33.898438 365.082031 C 36.667969 366.5625 39.472656 367.976562 42.3125 369.320312 C 45.152344 370.664062 48.023438 371.933594 50.921875 373.136719 C 53.824219 374.339844 56.753906 375.46875 59.714844 376.527344 C 62.671875 377.585938 65.652344 378.574219 68.65625 379.484375 C 71.664062 380.394531 74.691406 381.234375 77.738281 381.996094 C 80.785156 382.761719 83.847656 383.449219 86.929688 384.0625 C 90.011719 384.675781 93.105469 385.210938 96.210938 385.671875 C 99.316406 386.136719 102.433594 386.519531 105.5625 386.828125 C 108.6875 387.136719 111.820312 387.367188 114.957031 387.519531 C 118.09375 387.675781 121.234375 387.753906 124.375 387.753906 C 127.515625 387.753906 130.65625 387.675781 133.792969 387.523438 C 136.929688 387.367188 140.0625 387.136719 143.1875 386.828125 C 146.3125 386.523438 149.429688 386.136719 152.539062 385.675781 C 155.644531 385.214844 158.738281 384.679688 161.820312 384.066406 C 164.902344 383.453125 167.964844 382.765625 171.011719 382.003906 C 174.058594 381.242188 177.085938 380.402344 180.089844 379.492188 C 183.097656 378.578125 186.078125 377.59375 189.035156 376.535156 C 191.996094 375.480469 194.925781 374.347656 197.828125 373.148438 C 200.730469 371.945312 203.597656 370.671875 206.4375 369.328125 C 209.277344 367.988281 212.082031 366.574219 214.855469 365.09375 C 217.625 363.613281 220.355469 362.066406 223.050781 360.453125 C 225.746094 358.835938 228.398438 357.15625 231.011719 355.410156 C 233.621094 353.667969 236.191406 351.859375 238.714844 349.988281 C 241.238281 348.117188 243.710938 346.183594 246.140625 344.191406 C 248.570312 342.199219 250.945312 340.148438 253.273438 338.039062 C 255.601562 335.929688 257.875 333.761719 260.097656 331.542969 C 262.320312 329.320312 264.484375 327.046875 266.59375 324.71875 C 268.703125 322.390625 270.753906 320.015625 272.746094 317.585938 C 274.738281 315.160156 276.671875 312.683594 278.542969 310.160156 C 280.414062 307.636719 282.222656 305.070312 283.96875 302.457031 C 285.714844 299.847656 287.394531 297.191406 289.007812 294.5 C 290.625 291.804688 292.171875 289.070312 293.652344 286.300781 C 295.132812 283.53125 296.546875 280.726562 297.886719 277.886719 C 299.230469 275.046875 300.503906 272.175781 301.707031 269.273438 C 302.90625 266.371094 304.039062 263.441406 305.097656 260.484375 C 306.15625 257.527344 307.140625 254.546875 308.050781 251.539062 C 308.964844 248.535156 309.800781 245.507812 310.566406 242.460938 C 311.328125 239.414062 312.015625 236.347656 312.628906 233.269531 C 313.242188 230.1875 313.777344 227.09375 314.238281 223.984375 C 314.699219 220.878906 315.085938 217.761719 315.394531 214.636719 C 315.699219 211.511719 315.929688 208.378906 316.085938 205.242188 C 316.238281 202.105469 316.316406 198.964844 316.316406 195.824219 C 316.316406 192.683594 316.238281 189.542969 316.085938 186.40625 C 315.929688 183.269531 315.699219 180.136719 315.394531 177.011719 C 315.085938 173.886719 314.699219 170.769531 314.238281 167.664062 C 313.777344 164.558594 313.242188 161.464844 312.628906 158.382812 C 312.015625 155.304688 311.328125 152.238281 310.566406 149.195312 C 309.804688 146.148438 308.964844 143.121094 308.054688 140.117188 C 307.144531 137.109375 306.15625 134.128906 305.101562 131.171875 C 304.042969 128.214844 302.914062 125.285156 301.710938 122.382812 C 300.507812 119.480469 299.238281 116.609375 297.894531 113.773438 C 296.550781 110.933594 295.140625 108.128906 293.660156 105.359375 C 292.179688 102.589844 290.632812 99.855469 289.015625 97.164062 C 287.402344 94.46875 285.722656 91.816406 283.980469 89.203125 C 282.234375 86.59375 280.425781 84.027344 278.554688 81.503906 C 276.683594 78.980469 274.753906 76.503906 272.761719 74.078125 C 270.769531 71.648438 268.71875 69.269531 266.609375 66.945312 C 264.5 64.617188 262.335938 62.34375 260.113281 60.121094 C 257.894531 57.898438 255.621094 55.734375 253.292969 53.625 C 250.96875 51.515625 248.589844 49.464844 246.164062 47.472656 C 243.734375 45.480469 241.261719 43.546875 238.738281 41.675781 C 236.214844 39.804688 233.648438 37.996094 231.035156 36.253906 C 228.425781 34.507812 225.773438 32.828125 223.078125 31.210938 C 220.386719 29.597656 217.65625 28.050781 214.886719 26.566406 C 212.117188 25.085938 209.3125 23.675781 206.472656 22.332031 C 203.632812 20.988281 200.761719 19.714844 197.863281 18.511719 C 194.960938 17.3125 192.03125 16.179688 189.074219 15.121094 C 186.117188 14.0625 183.136719 13.078125 180.128906 12.167969 C 177.125 11.253906 174.097656 10.417969 171.054688 9.652344 C 168.007812 8.890625 164.941406 8.199219 161.863281 7.585938 C 158.78125 6.972656 155.6875 6.4375 152.582031 5.976562 C 149.476562 5.515625 146.359375 5.128906 143.234375 4.820312 C 140.109375 4.511719 136.976562 4.28125 133.839844 4.125 C 130.703125 3.972656 127.566406 3.894531 124.425781 3.894531 Z M 124.425781 3.894531 " fill-opacity="1" fill-rule="nonzero"/></g></g></g></g></g><g clip-path="url(#a4afc74b7f)"><g clip-path="url(#1615cd68a9)"><path fill="#de0f3f" d="M 19.707031 487.652344 L 54.996094 487.652344 L 54.996094 518.484375 L 19.707031 518.484375 Z M 19.707031 487.652344 " fill-opacity="1" fill-rule="nonzero"/></g></g><g clip-path="url(#432fef5c8f)"><g clip-path="url(#7200194220)"><path fill="#ffc504" d="M 41.691406 518.484375 L 76.527344 518.484375 L 76.527344 548.921875 L 41.691406 548.921875 Z M 41.691406 518.484375 " fill-opacity="1" fill-rule="nonzero"/></g></g><g clip-path="url(#d8beec0d71)"><g clip-path="url(#a9f3608657)"><path fill="#05624d" d="M 30.375 448.027344 L 11.375 448.027344 L 11.375 431.425781 L 30.375 431.425781 Z M 30.375 448.027344 " fill-opacity="1" fill-rule="nonzero"/></g></g><g clip-path="url(#763344ba10)"><g clip-path="url(#c6c1cb0b62)"><path fill="#145da0" d="M 22.816406 475.21875 L -0.0429688 475.21875 L -0.0429688 455.25 L 22.816406 455.25 Z M 22.816406 475.21875 " fill-opacity="1" fill-rule="nonzero"/></g></g><g clip-path="url(#cf050dcbfa)"><g clip-path="url(#6b2f55a83f)"><path fill="#de0f3f" d="M 54.414062 386.476562 L 72.058594 386.476562 L 72.058594 401.894531 L 54.414062 401.894531 Z M 54.414062 386.476562 " fill-opacity="1" fill-rule="nonzero"/></g></g><g clip-path="url(#dc16c07f5f)"><g clip-path="url(#c4ac559125)"><path fill="#de0f3f" d="M 76.476562 355.644531 L 94.121094 355.644531 L 94.121094 371.058594 L 76.476562 371.058594 Z M 76.476562 355.644531 " fill-opacity="1" fill-rule="nonzero"/></g></g><g clip-path="url(#9fbd775ce2)"><g mask="url(#7cd4c0d55e)"><g transform="matrix(1, 0, 0, 1, 892, 0.000000000000055289)"><g clip-path="url(#89ef293913)"><g clip-path="url(#a34d3b2898)"><path fill="#ff9e9e" d="M 196.128906 -112.792969 C 198.339844 -112.792969 200.550781 -112.742188 202.761719 -112.632812 C 204.972656 -112.523438 207.179688 -112.359375 209.382812 -112.144531 C 211.585938 -111.925781 213.78125 -111.65625 215.972656 -111.332031 C 218.160156 -111.007812 220.339844 -110.628906 222.511719 -110.195312 C 224.683594 -109.765625 226.84375 -109.28125 228.988281 -108.742188 C 231.136719 -108.203125 233.269531 -107.613281 235.386719 -106.972656 C 237.503906 -106.328125 239.605469 -105.632812 241.691406 -104.890625 C 243.773438 -104.144531 245.839844 -103.347656 247.882812 -102.5 C 249.929688 -101.652344 251.953125 -100.757812 253.953125 -99.808594 C 255.953125 -98.863281 257.929688 -97.867188 259.882812 -96.824219 C 261.832031 -95.78125 263.757812 -94.691406 265.65625 -93.554688 C 267.554688 -92.414062 269.425781 -91.230469 271.265625 -90 C 273.105469 -88.773438 274.914062 -87.496094 276.691406 -86.179688 C 278.472656 -84.859375 280.214844 -83.5 281.925781 -82.09375 C 283.636719 -80.691406 285.3125 -79.246094 286.953125 -77.757812 C 288.59375 -76.273438 290.195312 -74.746094 291.761719 -73.183594 C 293.324219 -71.617188 294.851562 -70.015625 296.339844 -68.375 C 297.824219 -66.734375 299.269531 -65.058594 300.675781 -63.347656 C 302.078125 -61.636719 303.441406 -59.890625 304.757812 -58.113281 C 306.078125 -56.335938 307.351562 -54.527344 308.582031 -52.6875 C 309.808594 -50.847656 310.992188 -48.976562 312.132812 -47.078125 C 313.269531 -45.179688 314.359375 -43.253906 315.402344 -41.304688 C 316.445312 -39.351562 317.441406 -37.375 318.386719 -35.375 C 319.335938 -33.371094 320.230469 -31.351562 321.078125 -29.304688 C 321.925781 -27.261719 322.722656 -25.195312 323.46875 -23.113281 C 324.214844 -21.027344 324.90625 -18.925781 325.550781 -16.808594 C 326.191406 -14.691406 326.78125 -12.558594 327.320312 -10.410156 C 327.859375 -8.261719 328.34375 -6.105469 328.773438 -3.933594 C 329.207031 -1.761719 329.585938 0.417969 329.910156 2.605469 C 330.234375 4.796875 330.503906 6.992188 330.722656 9.195312 C 330.9375 11.398438 331.101562 13.605469 331.210938 15.816406 C 331.320312 18.027344 331.375 20.238281 331.375 22.453125 C 331.375 24.664062 331.320312 26.878906 331.210938 29.089844 C 331.101562 31.300781 330.9375 33.503906 330.722656 35.707031 C 330.503906 37.910156 330.234375 40.105469 329.910156 42.296875 C 329.585938 44.484375 329.207031 46.667969 328.773438 48.835938 C 328.34375 51.007812 327.859375 53.167969 327.320312 55.3125 C 326.78125 57.460938 326.191406 59.59375 325.550781 61.710938 C 324.90625 63.828125 324.214844 65.929688 323.46875 68.015625 C 322.722656 70.097656 321.925781 72.164062 321.078125 74.207031 C 320.230469 76.253906 319.335938 78.277344 318.386719 80.277344 C 317.441406 82.277344 316.445312 84.253906 315.402344 86.207031 C 314.359375 88.160156 313.269531 90.085938 312.132812 91.984375 C 310.992188 93.882812 309.808594 95.75 308.582031 97.589844 C 307.351562 99.429688 306.078125 101.242188 304.757812 103.019531 C 303.441406 104.796875 302.078125 106.539062 300.675781 108.25 C 299.269531 109.960938 297.824219 111.636719 296.339844 113.277344 C 294.851562 114.917969 293.324219 116.519531 291.761719 118.085938 C 290.195312 119.652344 288.59375 121.175781 286.953125 122.664062 C 285.3125 124.148438 283.636719 125.59375 281.925781 127 C 280.214844 128.402344 278.472656 129.765625 276.691406 131.082031 C 274.914062 132.402344 273.105469 133.675781 271.265625 134.90625 C 269.425781 136.136719 267.554688 137.320312 265.65625 138.457031 C 263.757812 139.59375 261.832031 140.683594 259.882812 141.730469 C 257.929688 142.773438 255.953125 143.765625 253.953125 144.714844 C 251.953125 145.660156 249.929688 146.554688 247.882812 147.402344 C 245.839844 148.25 243.773438 149.046875 241.691406 149.792969 C 239.605469 150.539062 237.503906 151.230469 235.386719 151.875 C 233.269531 152.515625 231.136719 153.109375 228.988281 153.644531 C 226.84375 154.183594 224.683594 154.667969 222.511719 155.101562 C 220.339844 155.53125 218.160156 155.910156 215.972656 156.234375 C 213.78125 156.558594 211.585938 156.832031 209.382812 157.046875 C 207.179688 157.265625 204.972656 157.425781 202.761719 157.535156 C 200.550781 157.644531 198.339844 157.699219 196.128906 157.699219 C 193.914062 157.699219 191.703125 157.644531 189.492188 157.535156 C 187.28125 157.425781 185.074219 157.265625 182.871094 157.046875 C 180.667969 156.832031 178.472656 156.558594 176.28125 156.234375 C 174.09375 155.910156 171.914062 155.53125 169.742188 155.101562 C 167.570312 154.667969 165.410156 154.183594 163.265625 153.644531 C 161.117188 153.109375 158.984375 152.515625 156.867188 151.875 C 154.75 151.230469 152.648438 150.539062 150.5625 149.792969 C 148.480469 149.046875 146.414062 148.25 144.371094 147.402344 C 142.324219 146.554688 140.300781 145.660156 138.300781 144.714844 C 136.300781 143.765625 134.324219 142.773438 132.371094 141.730469 C 130.421875 140.683594 128.496094 139.59375 126.597656 138.457031 C 124.699219 137.320312 122.828125 136.136719 120.988281 134.90625 C 119.148438 133.675781 117.339844 132.402344 115.5625 131.082031 C 113.78125 129.765625 112.039062 128.402344 110.328125 127 C 108.617188 125.59375 106.941406 124.148438 105.300781 122.664062 C 103.660156 121.175781 102.058594 119.652344 100.492188 118.085938 C 98.929688 116.519531 97.402344 114.917969 95.914062 113.277344 C 94.429688 111.636719 92.984375 109.960938 91.578125 108.25 C 90.175781 106.539062 88.8125 104.796875 87.496094 103.019531 C 86.175781 101.242188 84.902344 99.429688 83.671875 97.589844 C 82.445312 95.75 81.261719 93.882812 80.121094 91.984375 C 78.984375 90.085938 77.894531 88.160156 76.851562 86.207031 C 75.808594 84.253906 74.8125 82.277344 73.867188 80.277344 C 72.917969 78.277344 72.023438 76.253906 71.175781 74.207031 C 70.328125 72.164062 69.53125 70.097656 68.785156 68.015625 C 68.039062 65.929688 67.347656 63.828125 66.703125 61.710938 C 66.0625 59.59375 65.472656 57.460938 64.933594 55.3125 C 64.394531 53.167969 63.910156 51.007812 63.480469 48.835938 C 63.046875 46.667969 62.667969 44.484375 62.34375 42.296875 C 62.019531 40.105469 61.75 37.910156 61.53125 35.707031 C 61.316406 33.503906 61.152344 31.300781 61.042969 29.089844 C 60.933594 26.878906 60.878906 24.664062 60.878906 22.453125 C 60.882812 20.238281 60.9375 18.027344 61.046875 15.816406 C 61.160156 13.605469 61.324219 11.402344 61.542969 9.199219 C 61.761719 6.996094 62.03125 4.800781 62.359375 2.613281 C 62.683594 0.425781 63.066406 -1.753906 63.496094 -3.925781 C 63.929688 -6.09375 64.417969 -8.253906 64.957031 -10.398438 C 65.496094 -12.546875 66.085938 -14.679688 66.730469 -16.796875 C 67.371094 -18.914062 68.066406 -21.011719 68.8125 -23.097656 C 69.5625 -25.179688 70.359375 -27.242188 71.207031 -29.289062 C 72.054688 -31.332031 72.949219 -33.351562 73.898438 -35.351562 C 74.84375 -37.355469 75.839844 -39.328125 76.882812 -41.28125 C 77.925781 -43.230469 79.019531 -45.15625 80.15625 -47.054688 C 81.292969 -48.953125 82.476562 -50.820312 83.707031 -52.660156 C 84.9375 -54.5 86.210938 -56.308594 87.53125 -58.085938 C 88.847656 -59.863281 90.210938 -61.605469 91.613281 -63.316406 C 93.019531 -65.027344 94.464844 -66.703125 95.949219 -68.34375 C 97.4375 -69.980469 98.960938 -71.585938 100.527344 -73.148438 C 102.089844 -74.714844 103.691406 -76.238281 105.332031 -77.726562 C 106.972656 -79.210938 108.648438 -80.65625 110.359375 -82.058594 C 112.066406 -83.464844 113.8125 -84.824219 115.589844 -86.144531 C 117.367188 -87.460938 119.175781 -88.738281 121.015625 -89.964844 C 122.855469 -91.195312 124.722656 -92.378906 126.621094 -93.519531 C 128.519531 -94.65625 130.441406 -95.746094 132.394531 -96.792969 C 134.347656 -97.835938 136.320312 -98.832031 138.320312 -99.777344 C 140.320312 -100.722656 142.34375 -101.621094 144.386719 -102.46875 C 146.433594 -103.316406 148.496094 -104.113281 150.578125 -104.859375 C 152.660156 -105.605469 154.761719 -106.300781 156.878906 -106.945312 C 158.996094 -107.589844 161.128906 -108.179688 163.273438 -108.71875 C 165.421875 -109.257812 167.578125 -109.746094 169.75 -110.175781 C 171.917969 -110.609375 174.097656 -110.988281 176.289062 -111.316406 C 178.476562 -111.640625 180.671875 -111.914062 182.875 -112.132812 C 185.074219 -112.351562 187.28125 -112.515625 189.492188 -112.625 C 191.703125 -112.738281 193.914062 -112.792969 196.128906 -112.792969 M 196.128906 -169.476562 C 192.984375 -169.480469 189.847656 -169.402344 186.707031 -169.25 C 183.570312 -169.09375 180.441406 -168.863281 177.3125 -168.558594 C 174.1875 -168.25 171.070312 -167.867188 167.964844 -167.40625 C 164.855469 -166.945312 161.761719 -166.410156 158.679688 -165.796875 C 155.601562 -165.183594 152.535156 -164.496094 149.488281 -163.734375 C 146.441406 -162.972656 143.414062 -162.136719 140.410156 -161.222656 C 137.402344 -160.3125 134.421875 -159.328125 131.464844 -158.269531 C 128.503906 -157.210938 125.574219 -156.082031 122.671875 -154.882812 C 119.769531 -153.679688 116.898438 -152.40625 114.058594 -151.066406 C 111.21875 -149.722656 108.414062 -148.3125 105.644531 -146.832031 C 102.875 -145.351562 100.140625 -143.804688 97.445312 -142.1875 C 94.75 -140.574219 92.097656 -138.894531 89.484375 -137.152344 C 86.875 -135.40625 84.304688 -133.597656 81.78125 -131.726562 C 79.257812 -129.855469 76.785156 -127.925781 74.355469 -125.933594 C 71.925781 -123.941406 69.546875 -121.890625 67.21875 -119.78125 C 64.894531 -117.671875 62.617188 -115.507812 60.394531 -113.285156 C 58.175781 -111.066406 56.007812 -108.789062 53.898438 -106.464844 C 51.789062 -104.136719 49.738281 -101.757812 47.746094 -99.332031 C 45.75 -96.902344 43.820312 -94.429688 41.949219 -91.90625 C 40.074219 -89.382812 38.265625 -86.816406 36.523438 -84.203125 C 34.777344 -81.59375 33.097656 -78.9375 31.480469 -76.246094 C 29.863281 -73.550781 28.316406 -70.820312 26.835938 -68.050781 C 25.355469 -65.277344 23.941406 -62.472656 22.597656 -59.632812 C 21.253906 -56.796875 19.980469 -53.925781 18.78125 -51.023438 C 17.578125 -48.121094 16.445312 -45.191406 15.386719 -42.234375 C 14.328125 -39.277344 13.34375 -36.292969 12.429688 -33.289062 C 11.519531 -30.28125 10.679688 -27.257812 9.917969 -24.210938 C 9.152344 -21.164062 8.464844 -18.097656 7.851562 -15.019531 C 7.238281 -11.9375 6.703125 -8.84375 6.242188 -5.734375 C 5.777344 -2.628906 5.394531 0.488281 5.085938 3.613281 C 4.777344 6.738281 4.546875 9.871094 4.390625 13.007812 C 4.238281 16.144531 4.160156 19.285156 4.160156 22.425781 C 4.160156 25.566406 4.234375 28.707031 4.390625 31.84375 C 4.542969 34.980469 4.773438 38.113281 5.082031 41.238281 C 5.386719 44.367188 5.773438 47.484375 6.234375 50.589844 C 6.695312 53.699219 7.230469 56.792969 7.84375 59.871094 C 8.453125 62.953125 9.140625 66.015625 9.90625 69.066406 C 10.667969 72.113281 11.503906 75.136719 12.417969 78.144531 C 13.328125 81.152344 14.3125 84.132812 15.371094 87.089844 C 16.429688 90.046875 17.558594 92.976562 18.761719 95.878906 C 19.960938 98.78125 21.234375 101.652344 22.578125 104.492188 C 23.917969 107.332031 25.332031 110.136719 26.8125 112.910156 C 28.292969 115.679688 29.839844 118.410156 31.453125 121.105469 C 33.070312 123.800781 34.75 126.453125 36.492188 129.066406 C 38.238281 131.675781 40.046875 134.246094 41.917969 136.769531 C 43.789062 139.292969 45.71875 141.765625 47.710938 144.195312 C 49.707031 146.625 51.757812 149.003906 53.867188 151.328125 C 55.976562 153.65625 58.140625 155.933594 60.359375 158.152344 C 62.582031 160.375 64.855469 162.539062 67.183594 164.648438 C 69.511719 166.761719 71.886719 168.8125 74.316406 170.804688 C 76.742188 172.796875 79.21875 174.730469 81.742188 176.601562 C 84.265625 178.472656 86.832031 180.28125 89.445312 182.027344 C 92.054688 183.773438 94.707031 185.453125 97.402344 187.066406 C 100.097656 188.683594 102.828125 190.230469 105.597656 191.710938 C 108.371094 193.191406 111.175781 194.605469 114.015625 195.949219 C 116.851562 197.292969 119.722656 198.5625 122.625 199.765625 C 125.527344 200.96875 128.457031 202.097656 131.414062 203.15625 C 134.371094 204.214844 137.355469 205.203125 140.359375 206.113281 C 143.367188 207.023438 146.394531 207.863281 149.441406 208.625 C 152.488281 209.390625 155.550781 210.078125 158.632812 210.691406 C 161.710938 211.304688 164.804688 211.839844 167.914062 212.300781 C 171.019531 212.765625 174.136719 213.148438 177.261719 213.457031 C 180.390625 213.765625 183.519531 213.996094 186.660156 214.148438 C 189.796875 214.304688 192.933594 214.382812 196.078125 214.382812 C 199.21875 214.382812 202.355469 214.304688 205.496094 214.152344 C 208.632812 213.996094 211.765625 213.765625 214.890625 213.457031 C 218.015625 213.152344 221.132812 212.765625 224.238281 212.304688 C 227.347656 211.84375 230.441406 211.308594 233.523438 210.695312 C 236.601562 210.082031 239.667969 209.394531 242.714844 208.632812 C 245.761719 207.871094 248.789062 207.03125 251.792969 206.121094 C 254.800781 205.207031 257.78125 204.222656 260.738281 203.164062 C 263.695312 202.109375 266.625 200.976562 269.527344 199.777344 C 272.429688 198.574219 275.300781 197.300781 278.140625 195.957031 C 280.980469 194.617188 283.785156 193.203125 286.558594 191.722656 C 289.328125 190.242188 292.058594 188.695312 294.753906 187.082031 C 297.449219 185.464844 300.101562 183.785156 302.714844 182.039062 C 305.324219 180.296875 307.894531 178.488281 310.414062 176.617188 C 312.9375 174.746094 315.414062 172.8125 317.84375 170.820312 C 320.269531 168.828125 322.648438 166.777344 324.976562 164.667969 C 327.304688 162.558594 329.578125 160.390625 331.800781 158.171875 C 334.019531 155.949219 336.1875 153.675781 338.296875 151.347656 C 340.40625 149.019531 342.457031 146.644531 344.449219 144.214844 C 346.441406 141.789062 348.375 139.3125 350.246094 136.789062 C 352.117188 134.265625 353.925781 131.699219 355.671875 129.085938 C 357.414062 126.476562 359.097656 123.820312 360.710938 121.128906 C 362.324219 118.433594 363.875 115.699219 365.355469 112.929688 C 366.835938 110.160156 368.246094 107.355469 369.589844 104.515625 C 370.933594 101.675781 372.207031 98.804688 373.410156 95.902344 C 374.609375 93 375.742188 90.070312 376.800781 87.113281 C 377.855469 84.15625 378.84375 81.175781 379.753906 78.167969 C 380.667969 75.164062 381.503906 72.136719 382.265625 69.089844 C 383.03125 66.042969 383.71875 62.976562 384.332031 59.898438 C 384.945312 56.816406 385.480469 53.722656 385.941406 50.613281 C 386.402344 47.507812 386.785156 44.390625 387.09375 41.265625 C 387.402344 38.140625 387.632812 35.007812 387.789062 31.871094 C 387.941406 28.734375 388.019531 25.59375 388.019531 22.453125 C 388.019531 19.3125 387.941406 16.171875 387.789062 13.035156 C 387.632812 9.898438 387.402344 6.765625 387.09375 3.640625 C 386.789062 0.515625 386.402344 -2.601562 385.941406 -5.707031 C 385.480469 -8.8125 384.945312 -11.90625 384.332031 -14.988281 C 383.71875 -18.066406 383.03125 -21.132812 382.269531 -24.175781 C 381.503906 -27.222656 380.667969 -30.25 379.757812 -33.253906 C 378.84375 -36.261719 377.859375 -39.242188 376.800781 -42.199219 C 375.746094 -45.15625 374.613281 -48.085938 373.414062 -50.988281 C 372.210938 -53.890625 370.9375 -56.761719 369.597656 -59.597656 C 368.253906 -62.4375 366.84375 -65.242188 365.363281 -68.011719 C 363.882812 -70.78125 362.335938 -73.515625 360.71875 -76.207031 C 359.105469 -78.902344 357.425781 -81.554688 355.679688 -84.167969 C 353.9375 -86.777344 352.128906 -89.34375 350.257812 -91.867188 C 348.386719 -94.390625 346.457031 -96.867188 344.464844 -99.292969 C 342.472656 -101.722656 340.421875 -104.101562 338.3125 -106.425781 C 336.203125 -108.753906 334.039062 -111.027344 331.816406 -113.25 C 329.597656 -115.472656 327.324219 -117.636719 324.996094 -119.746094 C 322.667969 -121.855469 320.292969 -123.90625 317.863281 -125.898438 C 315.4375 -127.890625 312.960938 -129.824219 310.441406 -131.695312 C 307.917969 -133.566406 305.351562 -135.375 302.738281 -137.117188 C 300.128906 -138.863281 297.476562 -140.542969 294.78125 -142.160156 C 292.089844 -143.773438 289.355469 -145.320312 286.585938 -146.804688 C 283.816406 -148.285156 281.011719 -149.695312 278.175781 -151.039062 C 275.335938 -152.382812 272.464844 -153.65625 269.5625 -154.859375 C 266.664062 -156.058594 263.734375 -157.191406 260.777344 -158.25 C 257.820312 -159.308594 254.839844 -160.292969 251.832031 -161.203125 C 248.828125 -162.117188 245.800781 -162.953125 242.753906 -163.71875 C 239.707031 -164.480469 236.644531 -165.171875 233.566406 -165.785156 C 230.484375 -166.398438 227.390625 -166.933594 224.285156 -167.394531 C 221.179688 -167.855469 218.0625 -168.242188 214.9375 -168.550781 C 211.8125 -168.859375 208.679688 -169.089844 205.542969 -169.246094 C 202.40625 -169.398438 199.269531 -169.476562 196.128906 -169.476562 Z M 196.128906 -169.476562 " fill-opacity="1" fill-rule="nonzero"/></g></g></g></g></g></svg>