<svg xmlns="http://www.w3.org/2000/svg" xmlns:xlink="http://www.w3.org/1999/xlink" width="1366" zoomAndPan="magnify" viewBox="0 0 1024.5 576" height="768" preserveAspectRatio="xMidYMid meet" version="1.0"><defs><filter x="0%" y="0%" width="100%" height="100%" id="fd567b8c98"><feColorMatrix values="0 0 0 0 1 0 0 0 0 1 0 0 0 0 1 0 0 0 1 0" color-interpolation-filters="sRGB"/></filter><clipPath id="98301f88a2"><path d="M 0 0.140625 L 1024 0.140625 L 1024 575.859375 L 0 575.859375 Z M 0 0.140625 " clip-rule="nonzero"/></clipPath><clipPath id="3f9359e331"><path d="M 0 454.085938 L 4 454.085938 L 4 459 L 0 459 Z M 0 454.085938 " clip-rule="nonzero"/></clipPath><clipPath id="c0fa96b30e"><path d="M 24 454.085938 L 29 454.085938 L 29 459 L 24 459 Z M 24 454.085938 " clip-rule="nonzero"/></clipPath><clipPath id="03db3b2845"><path d="M 49 454.085938 L 54 454.085938 L 54 459 L 49 459 Z M 49 454.085938 " clip-rule="nonzero"/></clipPath><clipPath id="6b7d5088b0"><path d="M 73 454.085938 L 79 454.085938 L 79 459 L 73 459 Z M 73 454.085938 " clip-rule="nonzero"/></clipPath><clipPath id="5a7dcf713b"><path d="M 98 454.085938 L 103 454.085938 L 103 459 L 98 459 Z M 98 454.085938 " clip-rule="nonzero"/></clipPath><clipPath id="f885aaa746"><path d="M 123 454.085938 L 128 454.085938 L 128 459 L 123 459 Z M 123 454.085938 " clip-rule="nonzero"/></clipPath><clipPath id="b517fcacc8"><path d="M 148 454.085938 L 153 454.085938 L 153 459 L 148 459 Z M 148 454.085938 " clip-rule="nonzero"/></clipPath><clipPath id="25b0cdca6e"><path d="M 172 454.085938 L 178 454.085938 L 178 459 L 172 459 Z M 172 454.085938 " clip-rule="nonzero"/></clipPath><clipPath id="188429c3ab"><path d="M 197 454.085938 L 202 454.085938 L 202 459 L 197 459 Z M 197 454.085938 " clip-rule="nonzero"/></clipPath><clipPath id="085214a13f"><path d="M 222 454.085938 L 227 454.085938 L 227 459 L 222 459 Z M 222 454.085938 " clip-rule="nonzero"/></clipPath><clipPath id="d781688b91"><path d="M 247 454.085938 L 251.386719 454.085938 L 251.386719 458.898438 L 247 458.898438 Z M 247 454.085938 " clip-rule="nonzero"/></clipPath><clipPath id="b7beb45d36"><path d="M 247 478.757812 L 251.386719 478.757812 L 251.386719 483.570312 L 247 483.570312 Z M 247 478.757812 " clip-rule="nonzero"/></clipPath><clipPath id="bcfba2c2f1"><path d="M 247 503.425781 L 251.386719 503.425781 L 251.386719 508 L 247 508 Z M 247 503.425781 " clip-rule="nonzero"/></clipPath><clipPath id="a954d9d09e"><path d="M 247 528.097656 L 251.386719 528.097656 L 251.386719 532.910156 L 247 532.910156 Z M 247 528.097656 " clip-rule="nonzero"/></clipPath><clipPath id="d6847fee5a"><path d="M 791.222656 9.585938 L 795.8125 9.585938 L 795.8125 14.398438 L 791.222656 14.398438 Z M 791.222656 9.585938 " clip-rule="nonzero"/></clipPath><clipPath id="78593421c7"><path d="M 791.222656 34.257812 L 795.8125 34.257812 L 795.8125 39 L 791.222656 39 Z M 791.222656 34.257812 " clip-rule="nonzero"/></clipPath><clipPath id="f06da38239"><path d="M 791.222656 59 L 795.8125 59 L 795.8125 63.742188 L 791.222656 63.742188 Z M 791.222656 59 " clip-rule="nonzero"/></clipPath><clipPath id="e3af50403a"><path d="M 1013.636719 158.210938 L 1018.449219 158.210938 L 1018.449219 162.5625 L 1013.636719 162.5625 Z M 1013.636719 158.210938 " clip-rule="nonzero"/></clipPath><clipPath id="7f04ee1cc9"><path d="M 989 158.210938 L 993.78125 158.210938 L 993.78125 162.5625 L 989 162.5625 Z M 989 158.210938 " clip-rule="nonzero"/></clipPath><clipPath id="854793f2ff"><path d="M 770 240 L 1024 240 L 1024 575.859375 L 770 575.859375 Z M 770 240 " clip-rule="nonzero"/></clipPath><mask id="f2d8f20c59"><g filter="url(#fd567b8c98)"><rect x="-102.45" width="1229.4" fill="#000000" y="-57.6" height="691.2" fill-opacity="0.39"/></g></mask><clipPath id="935fd55d9a"><path d="M 14 20 L 254 20 L 254 335.859375 L 14 335.859375 Z M 14 20 " clip-rule="nonzero"/></clipPath><clipPath id="ce4f7a3973"><path d="M 0.242188 335.855469 L 581.300781 1.9375 L 659.738281 138.429688 L 78.679688 472.347656 Z M 0.242188 335.855469 " clip-rule="nonzero"/></clipPath><clipPath id="76c750990e"><path d="M 0.242188 335.855469 L 581.300781 1.9375 L 659.738281 138.429688 L 78.679688 472.347656 Z M 0.242188 335.855469 " clip-rule="nonzero"/></clipPath><clipPath id="2249172d66"><path d="M 493.628906 233.058594 C 446.613281 260.078125 405.832031 249.105469 376.066406 241.089844 C 350.074219 234.09375 339.800781 232.308594 326.773438 239.792969 C 314.546875 246.820312 311.789062 255.277344 306.5 279.613281 C 300.441406 307.367188 291.289062 349.339844 243.714844 376.679688 C 198.003906 402.945312 158.535156 392.355469 129.75 384.625 C 103.773438 377.652344 91.535156 374.976562 73.980469 385.0625 C 55.105469 395.875 31.003906 389.386719 20.152344 370.5 C 9.296875 351.617188 15.828125 327.523438 34.6875 316.683594 C 81.277344 289.910156 121.136719 300.632812 150.214844 308.441406 C 175.703125 315.304688 187.691406 317.914062 204.417969 308.300781 C 220.988281 298.777344 224.0625 287.480469 229.445312 262.804688 C 235.566406 234.800781 243.925781 196.441406 287.480469 171.414062 C 329.9375 147.011719 368.457031 157.371094 396.546875 164.9375 C 422.914062 172.035156 436.378906 175 454.332031 164.679688 C 471.382812 154.882812 475.097656 143.960938 481.835938 120.171875 C 489.898438 91.835938 500.898438 53.019531 549.058594 25.34375 C 567.945312 14.488281 592.039062 21.019531 602.875 39.878906 C 613.714844 58.738281 607.199219 82.855469 588.339844 93.695312 C 568.789062 104.929688 564.824219 116.53125 557.667969 141.691406 C 549.875 169.199219 539.207031 206.867188 493.628906 233.058594 Z M 493.628906 233.058594 " clip-rule="nonzero"/></clipPath><linearGradient x1="2.555223" gradientTransform="matrix(2.663772, -1.530788, 1.530788, 2.663772, 0.510547, 336.325219)" y1="25.413" x2="123.731483" gradientUnits="userSpaceOnUse" y2="25.413" id="24287c06a5"><stop stop-opacity="1" stop-color="rgb(99.806213%, 77.534485%, 21.304321%)" offset="0"/><stop stop-opacity="1" stop-color="rgb(99.734497%, 77.362061%, 21.342468%)" offset="0.015625"/><stop stop-opacity="1" stop-color="rgb(99.591064%, 77.018738%, 21.421814%)" offset="0.03125"/><stop stop-opacity="1" stop-color="rgb(99.447632%, 76.675415%, 21.499634%)" offset="0.046875"/><stop stop-opacity="1" stop-color="rgb(99.304199%, 76.332092%, 21.577454%)" offset="0.0625"/><stop stop-opacity="1" stop-color="rgb(99.160767%, 75.987244%, 21.655273%)" offset="0.078125"/><stop stop-opacity="1" stop-color="rgb(99.017334%, 75.643921%, 21.734619%)" offset="0.09375"/><stop stop-opacity="1" stop-color="rgb(98.873901%, 75.300598%, 21.812439%)" offset="0.109375"/><stop stop-opacity="1" stop-color="rgb(98.731995%, 74.95575%, 21.890259%)" offset="0.125"/><stop stop-opacity="1" stop-color="rgb(98.588562%, 74.612427%, 21.968079%)" offset="0.140625"/><stop stop-opacity="1" stop-color="rgb(98.445129%, 74.269104%, 22.045898%)" offset="0.15625"/><stop stop-opacity="1" stop-color="rgb(98.301697%, 73.924255%, 22.125244%)" offset="0.171875"/><stop stop-opacity="1" stop-color="rgb(98.158264%, 73.580933%, 22.203064%)" offset="0.1875"/><stop stop-opacity="1" stop-color="rgb(98.014832%, 73.23761%, 22.280884%)" offset="0.203125"/><stop stop-opacity="1" stop-color="rgb(97.871399%, 72.892761%, 22.358704%)" offset="0.21875"/><stop stop-opacity="1" stop-color="rgb(97.727966%, 72.549438%, 22.436523%)" offset="0.234375"/><stop stop-opacity="1" stop-color="rgb(97.58606%, 72.206116%, 22.515869%)" offset="0.25"/><stop stop-opacity="1" stop-color="rgb(97.442627%, 71.861267%, 22.593689%)" offset="0.265625"/><stop stop-opacity="1" stop-color="rgb(97.299194%, 71.517944%, 22.671509%)" offset="0.28125"/><stop stop-opacity="1" stop-color="rgb(97.155762%, 71.174622%, 22.749329%)" offset="0.296875"/><stop stop-opacity="1" stop-color="rgb(97.012329%, 70.829773%, 22.827148%)" offset="0.3125"/><stop stop-opacity="1" stop-color="rgb(96.868896%, 70.48645%, 22.906494%)" offset="0.328125"/><stop stop-opacity="1" stop-color="rgb(96.725464%, 70.143127%, 22.984314%)" offset="0.34375"/><stop stop-opacity="1" stop-color="rgb(96.582031%, 69.798279%, 23.062134%)" offset="0.359375"/><stop stop-opacity="1" stop-color="rgb(96.438599%, 69.454956%, 23.139954%)" offset="0.375"/><stop stop-opacity="1" stop-color="rgb(96.296692%, 69.111633%, 23.217773%)" offset="0.390625"/><stop stop-opacity="1" stop-color="rgb(96.153259%, 68.766785%, 23.297119%)" offset="0.40625"/><stop stop-opacity="1" stop-color="rgb(96.009827%, 68.423462%, 23.374939%)" offset="0.421875"/><stop stop-opacity="1" stop-color="rgb(95.866394%, 68.080139%, 23.452759%)" offset="0.4375"/><stop stop-opacity="1" stop-color="rgb(95.722961%, 67.735291%, 23.530579%)" offset="0.453125"/><stop stop-opacity="1" stop-color="rgb(95.579529%, 67.391968%, 23.609924%)" offset="0.46875"/><stop stop-opacity="1" stop-color="rgb(95.436096%, 67.048645%, 23.687744%)" offset="0.484375"/><stop stop-opacity="1" stop-color="rgb(95.292664%, 66.703796%, 23.765564%)" offset="0.5"/><stop stop-opacity="1" stop-color="rgb(95.149231%, 66.360474%, 23.843384%)" offset="0.515625"/><stop stop-opacity="1" stop-color="rgb(95.007324%, 66.017151%, 23.921204%)" offset="0.53125"/><stop stop-opacity="1" stop-color="rgb(94.863892%, 65.673828%, 24.000549%)" offset="0.546875"/><stop stop-opacity="1" stop-color="rgb(94.720459%, 65.328979%, 24.078369%)" offset="0.5625"/><stop stop-opacity="1" stop-color="rgb(94.577026%, 64.985657%, 24.156189%)" offset="0.578125"/><stop stop-opacity="1" stop-color="rgb(94.433594%, 64.642334%, 24.234009%)" offset="0.59375"/><stop stop-opacity="1" stop-color="rgb(94.290161%, 64.297485%, 24.311829%)" offset="0.609375"/><stop stop-opacity="1" stop-color="rgb(94.146729%, 63.954163%, 24.391174%)" offset="0.625"/><stop stop-opacity="1" stop-color="rgb(94.003296%, 63.61084%, 24.468994%)" offset="0.640625"/><stop stop-opacity="1" stop-color="rgb(93.861389%, 63.265991%, 24.546814%)" offset="0.65625"/><stop stop-opacity="1" stop-color="rgb(93.717957%, 62.922668%, 24.624634%)" offset="0.671875"/><stop stop-opacity="1" stop-color="rgb(93.574524%, 62.579346%, 24.702454%)" offset="0.6875"/><stop stop-opacity="1" stop-color="rgb(93.431091%, 62.234497%, 24.781799%)" offset="0.703125"/><stop stop-opacity="1" stop-color="rgb(93.287659%, 61.891174%, 24.859619%)" offset="0.71875"/><stop stop-opacity="1" stop-color="rgb(93.144226%, 61.547852%, 24.937439%)" offset="0.734375"/><stop stop-opacity="1" stop-color="rgb(93.000793%, 61.203003%, 25.015259%)" offset="0.75"/><stop stop-opacity="1" stop-color="rgb(92.857361%, 60.85968%, 25.094604%)" offset="0.765625"/><stop stop-opacity="1" stop-color="rgb(92.713928%, 60.516357%, 25.172424%)" offset="0.78125"/><stop stop-opacity="1" stop-color="rgb(92.572021%, 60.171509%, 25.250244%)" offset="0.796875"/><stop stop-opacity="1" stop-color="rgb(92.428589%, 59.828186%, 25.328064%)" offset="0.8125"/><stop stop-opacity="1" stop-color="rgb(92.285156%, 59.484863%, 25.405884%)" offset="0.828125"/><stop stop-opacity="1" stop-color="rgb(92.141724%, 59.140015%, 25.485229%)" offset="0.84375"/><stop stop-opacity="1" stop-color="rgb(91.998291%, 58.796692%, 25.563049%)" offset="0.859375"/><stop stop-opacity="1" stop-color="rgb(91.854858%, 58.453369%, 25.640869%)" offset="0.875"/><stop stop-opacity="1" stop-color="rgb(91.711426%, 58.108521%, 25.718689%)" offset="0.890625"/><stop stop-opacity="1" stop-color="rgb(91.567993%, 57.765198%, 25.796509%)" offset="0.90625"/><stop stop-opacity="1" stop-color="rgb(91.426086%, 57.421875%, 25.875854%)" offset="0.921875"/><stop stop-opacity="1" stop-color="rgb(91.282654%, 57.077026%, 25.953674%)" offset="0.9375"/><stop stop-opacity="1" stop-color="rgb(91.139221%, 56.733704%, 26.031494%)" offset="0.953125"/><stop stop-opacity="1" stop-color="rgb(90.995789%, 56.390381%, 26.109314%)" offset="0.96875"/><stop stop-opacity="1" stop-color="rgb(90.852356%, 56.045532%, 26.187134%)" offset="0.984375"/><stop stop-opacity="1" stop-color="rgb(90.708923%, 55.702209%, 26.266479%)" offset="1"/></linearGradient><clipPath id="c806e94e74"><rect x="0" width="254" y="0" height="336"/></clipPath></defs><g clip-path="url(#98301f88a2)"><path fill="#ffffff" d="M 0 0.140625 L 1024 0.140625 L 1024 575.859375 L 0 575.859375 Z M 0 0.140625 " fill-opacity="1" fill-rule="nonzero"/><path fill="#fdd954" d="M 0 0.140625 L 1024 0.140625 L 1024 575.859375 L 0 575.859375 Z M 0 0.140625 " fill-opacity="1" fill-rule="nonzero"/></g><g clip-path="url(#3f9359e331)"><path fill="#d5624d" d="M 3.914062 456.253906 C 3.914062 457.449219 2.945312 458.421875 1.746094 458.421875 C 0.550781 458.421875 -0.417969 457.449219 -0.417969 456.253906 C -0.417969 455.054688 0.550781 454.085938 1.746094 454.085938 C 2.945312 454.085938 3.914062 455.054688 3.914062 456.253906 " fill-opacity="1" fill-rule="nonzero"/></g><g clip-path="url(#c0fa96b30e)"><path fill="#d5624d" d="M 28.675781 456.253906 C 28.675781 457.449219 27.703125 458.421875 26.503906 458.421875 C 25.308594 458.421875 24.335938 457.449219 24.335938 456.253906 C 24.335938 455.054688 25.308594 454.085938 26.503906 454.085938 C 27.703125 454.085938 28.675781 455.054688 28.675781 456.253906 " fill-opacity="1" fill-rule="nonzero"/></g><g clip-path="url(#03db3b2845)"><path fill="#d5624d" d="M 53.433594 456.253906 C 53.433594 457.449219 52.460938 458.421875 51.265625 458.421875 C 50.066406 458.421875 49.097656 457.449219 49.097656 456.253906 C 49.097656 455.054688 50.066406 454.085938 51.265625 454.085938 C 52.460938 454.085938 53.433594 455.054688 53.433594 456.253906 " fill-opacity="1" fill-rule="nonzero"/></g><g clip-path="url(#6b7d5088b0)"><path fill="#d5624d" d="M 78.191406 456.253906 C 78.191406 457.449219 77.222656 458.421875 76.023438 458.421875 C 74.824219 458.421875 73.855469 457.449219 73.855469 456.253906 C 73.855469 455.054688 74.824219 454.085938 76.023438 454.085938 C 77.222656 454.085938 78.191406 455.054688 78.191406 456.253906 " fill-opacity="1" fill-rule="nonzero"/></g><g clip-path="url(#5a7dcf713b)"><path fill="#d5624d" d="M 102.949219 456.253906 C 102.949219 457.449219 101.980469 458.421875 100.78125 458.421875 C 99.585938 458.421875 98.613281 457.449219 98.613281 456.253906 C 98.613281 455.054688 99.585938 454.085938 100.78125 454.085938 C 101.980469 454.085938 102.949219 455.054688 102.949219 456.253906 " fill-opacity="1" fill-rule="nonzero"/></g><g clip-path="url(#f885aaa746)"><path fill="#d5624d" d="M 127.710938 456.253906 C 127.710938 457.449219 126.738281 458.421875 125.542969 458.421875 C 124.34375 458.421875 123.371094 457.449219 123.371094 456.253906 C 123.371094 455.054688 124.34375 454.085938 125.542969 454.085938 C 126.738281 454.085938 127.710938 455.054688 127.710938 456.253906 " fill-opacity="1" fill-rule="nonzero"/></g><g clip-path="url(#b517fcacc8)"><path fill="#d5624d" d="M 152.464844 456.253906 C 152.464844 457.449219 151.496094 458.421875 150.300781 458.421875 C 149.101562 458.421875 148.132812 457.449219 148.132812 456.253906 C 148.132812 455.054688 149.101562 454.085938 150.300781 454.085938 C 151.496094 454.085938 152.464844 455.054688 152.464844 456.253906 " fill-opacity="1" fill-rule="nonzero"/></g><g clip-path="url(#25b0cdca6e)"><path fill="#d5624d" d="M 177.226562 456.253906 C 177.226562 457.449219 176.257812 458.421875 175.058594 458.421875 C 173.859375 458.421875 172.890625 457.449219 172.890625 456.253906 C 172.890625 455.054688 173.859375 454.085938 175.058594 454.085938 C 176.257812 454.085938 177.226562 455.054688 177.226562 456.253906 " fill-opacity="1" fill-rule="nonzero"/></g><g clip-path="url(#188429c3ab)"><path fill="#d5624d" d="M 201.984375 456.253906 C 201.984375 457.449219 201.015625 458.421875 199.816406 458.421875 C 198.621094 458.421875 197.648438 457.449219 197.648438 456.253906 C 197.648438 455.054688 198.621094 454.085938 199.816406 454.085938 C 201.015625 454.085938 201.984375 455.054688 201.984375 456.253906 " fill-opacity="1" fill-rule="nonzero"/></g><g clip-path="url(#085214a13f)"><path fill="#d5624d" d="M 226.742188 456.253906 C 226.742188 457.449219 225.773438 458.421875 224.578125 458.421875 C 223.378906 458.421875 222.410156 457.449219 222.410156 456.253906 C 222.410156 455.054688 223.378906 454.085938 224.578125 454.085938 C 225.773438 454.085938 226.742188 455.054688 226.742188 456.253906 " fill-opacity="1" fill-rule="nonzero"/></g><g clip-path="url(#d781688b91)"><path fill="#d5624d" d="M 251.503906 456.253906 C 251.503906 457.449219 250.535156 458.421875 249.335938 458.421875 C 248.136719 458.421875 247.167969 457.449219 247.167969 456.253906 C 247.167969 455.054688 248.136719 454.085938 249.335938 454.085938 C 250.535156 454.085938 251.503906 455.054688 251.503906 456.253906 " fill-opacity="1" fill-rule="nonzero"/></g><path fill="#d5624d" d="M 3.914062 481.011719 C 3.914062 482.210938 2.945312 483.179688 1.746094 483.179688 C 0.550781 483.179688 -0.417969 482.210938 -0.417969 481.011719 C -0.417969 479.816406 0.550781 478.84375 1.746094 478.84375 C 2.945312 478.84375 3.914062 479.816406 3.914062 481.011719 " fill-opacity="1" fill-rule="nonzero"/><path fill="#d5624d" d="M 28.675781 481.011719 C 28.675781 482.210938 27.703125 483.179688 26.503906 483.179688 C 25.308594 483.179688 24.335938 482.210938 24.335938 481.011719 C 24.335938 479.816406 25.308594 478.84375 26.503906 478.84375 C 27.703125 478.84375 28.675781 479.816406 28.675781 481.011719 " fill-opacity="1" fill-rule="nonzero"/><path fill="#d5624d" d="M 53.433594 481.011719 C 53.433594 482.210938 52.460938 483.179688 51.265625 483.179688 C 50.066406 483.179688 49.097656 482.210938 49.097656 481.011719 C 49.097656 479.816406 50.066406 478.84375 51.265625 478.84375 C 52.460938 478.84375 53.433594 479.816406 53.433594 481.011719 " fill-opacity="1" fill-rule="nonzero"/><path fill="#d5624d" d="M 78.191406 481.011719 C 78.191406 482.210938 77.222656 483.179688 76.023438 483.179688 C 74.824219 483.179688 73.855469 482.210938 73.855469 481.011719 C 73.855469 479.816406 74.824219 478.84375 76.023438 478.84375 C 77.222656 478.84375 78.191406 479.816406 78.191406 481.011719 " fill-opacity="1" fill-rule="nonzero"/><path fill="#d5624d" d="M 102.949219 481.011719 C 102.949219 482.210938 101.980469 483.179688 100.78125 483.179688 C 99.585938 483.179688 98.613281 482.210938 98.613281 481.011719 C 98.613281 479.816406 99.585938 478.84375 100.78125 478.84375 C 101.980469 478.84375 102.949219 479.816406 102.949219 481.011719 " fill-opacity="1" fill-rule="nonzero"/><path fill="#d5624d" d="M 127.710938 481.011719 C 127.710938 482.210938 126.738281 483.179688 125.542969 483.179688 C 124.34375 483.179688 123.371094 482.210938 123.371094 481.011719 C 123.371094 479.816406 124.34375 478.84375 125.542969 478.84375 C 126.738281 478.84375 127.710938 479.816406 127.710938 481.011719 " fill-opacity="1" fill-rule="nonzero"/><path fill="#d5624d" d="M 152.464844 481.011719 C 152.464844 482.210938 151.496094 483.179688 150.300781 483.179688 C 149.101562 483.179688 148.132812 482.210938 148.132812 481.011719 C 148.132812 479.816406 149.101562 478.84375 150.300781 478.84375 C 151.496094 478.84375 152.464844 479.816406 152.464844 481.011719 " fill-opacity="1" fill-rule="nonzero"/><path fill="#d5624d" d="M 177.226562 481.011719 C 177.226562 482.210938 176.257812 483.179688 175.058594 483.179688 C 173.859375 483.179688 172.890625 482.210938 172.890625 481.011719 C 172.890625 479.816406 173.859375 478.84375 175.058594 478.84375 C 176.257812 478.84375 177.226562 479.816406 177.226562 481.011719 " fill-opacity="1" fill-rule="nonzero"/><path fill="#d5624d" d="M 201.984375 481.011719 C 201.984375 482.210938 201.015625 483.179688 199.816406 483.179688 C 198.621094 483.179688 197.648438 482.210938 197.648438 481.011719 C 197.648438 479.816406 198.621094 478.84375 199.816406 478.84375 C 201.015625 478.84375 201.984375 479.816406 201.984375 481.011719 " fill-opacity="1" fill-rule="nonzero"/><path fill="#d5624d" d="M 226.742188 481.011719 C 226.742188 482.210938 225.773438 483.179688 224.578125 483.179688 C 223.378906 483.179688 222.410156 482.210938 222.410156 481.011719 C 222.410156 479.816406 223.378906 478.84375 224.578125 478.84375 C 225.773438 478.84375 226.742188 479.816406 226.742188 481.011719 " fill-opacity="1" fill-rule="nonzero"/><g clip-path="url(#b7beb45d36)"><path fill="#d5624d" d="M 251.503906 481.011719 C 251.503906 482.210938 250.535156 483.179688 249.335938 483.179688 C 248.136719 483.179688 247.167969 482.210938 247.167969 481.011719 C 247.167969 479.816406 248.136719 478.84375 249.335938 478.84375 C 250.535156 478.84375 251.503906 479.816406 251.503906 481.011719 " fill-opacity="1" fill-rule="nonzero"/></g><path fill="#d5624d" d="M 3.914062 505.769531 C 3.914062 506.96875 2.945312 507.9375 1.746094 507.9375 C 0.550781 507.9375 -0.417969 506.96875 -0.417969 505.769531 C -0.417969 504.570312 0.550781 503.601562 1.746094 503.601562 C 2.945312 503.601562 3.914062 504.570312 3.914062 505.769531 " fill-opacity="1" fill-rule="nonzero"/><path fill="#d5624d" d="M 28.675781 505.769531 C 28.675781 506.96875 27.703125 507.9375 26.503906 507.9375 C 25.308594 507.9375 24.335938 506.96875 24.335938 505.769531 C 24.335938 504.570312 25.308594 503.601562 26.503906 503.601562 C 27.703125 503.601562 28.675781 504.570312 28.675781 505.769531 " fill-opacity="1" fill-rule="nonzero"/><path fill="#d5624d" d="M 53.433594 505.769531 C 53.433594 506.96875 52.460938 507.9375 51.265625 507.9375 C 50.066406 507.9375 49.097656 506.96875 49.097656 505.769531 C 49.097656 504.570312 50.066406 503.601562 51.265625 503.601562 C 52.460938 503.601562 53.433594 504.570312 53.433594 505.769531 " fill-opacity="1" fill-rule="nonzero"/><path fill="#d5624d" d="M 78.191406 505.769531 C 78.191406 506.96875 77.222656 507.9375 76.023438 507.9375 C 74.824219 507.9375 73.855469 506.96875 73.855469 505.769531 C 73.855469 504.570312 74.824219 503.601562 76.023438 503.601562 C 77.222656 503.601562 78.191406 504.570312 78.191406 505.769531 " fill-opacity="1" fill-rule="nonzero"/><path fill="#d5624d" d="M 102.949219 505.769531 C 102.949219 506.96875 101.980469 507.9375 100.78125 507.9375 C 99.585938 507.9375 98.613281 506.96875 98.613281 505.769531 C 98.613281 504.570312 99.585938 503.601562 100.78125 503.601562 C 101.980469 503.601562 102.949219 504.570312 102.949219 505.769531 " fill-opacity="1" fill-rule="nonzero"/><path fill="#d5624d" d="M 127.710938 505.769531 C 127.710938 506.96875 126.738281 507.9375 125.542969 507.9375 C 124.34375 507.9375 123.371094 506.96875 123.371094 505.769531 C 123.371094 504.570312 124.34375 503.601562 125.542969 503.601562 C 126.738281 503.601562 127.710938 504.570312 127.710938 505.769531 " fill-opacity="1" fill-rule="nonzero"/><path fill="#d5624d" d="M 152.464844 505.769531 C 152.464844 506.96875 151.496094 507.9375 150.300781 507.9375 C 149.101562 507.9375 148.132812 506.96875 148.132812 505.769531 C 148.132812 504.570312 149.101562 503.601562 150.300781 503.601562 C 151.496094 503.601562 152.464844 504.570312 152.464844 505.769531 " fill-opacity="1" fill-rule="nonzero"/><path fill="#d5624d" d="M 177.226562 505.769531 C 177.226562 506.96875 176.257812 507.9375 175.058594 507.9375 C 173.859375 507.9375 172.890625 506.96875 172.890625 505.769531 C 172.890625 504.570312 173.859375 503.601562 175.058594 503.601562 C 176.257812 503.601562 177.226562 504.570312 177.226562 505.769531 " fill-opacity="1" fill-rule="nonzero"/><path fill="#d5624d" d="M 201.984375 505.769531 C 201.984375 506.96875 201.015625 507.9375 199.816406 507.9375 C 198.621094 507.9375 197.648438 506.96875 197.648438 505.769531 C 197.648438 504.570312 198.621094 503.601562 199.816406 503.601562 C 201.015625 503.601562 201.984375 504.570312 201.984375 505.769531 " fill-opacity="1" fill-rule="nonzero"/><path fill="#d5624d" d="M 226.742188 505.769531 C 226.742188 506.96875 225.773438 507.9375 224.578125 507.9375 C 223.378906 507.9375 222.410156 506.96875 222.410156 505.769531 C 222.410156 504.570312 223.378906 503.601562 224.578125 503.601562 C 225.773438 503.601562 226.742188 504.570312 226.742188 505.769531 " fill-opacity="1" fill-rule="nonzero"/><g clip-path="url(#bcfba2c2f1)"><path fill="#d5624d" d="M 251.503906 505.769531 C 251.503906 506.96875 250.535156 507.9375 249.335938 507.9375 C 248.136719 507.9375 247.167969 506.96875 247.167969 505.769531 C 247.167969 504.570312 248.136719 503.601562 249.335938 503.601562 C 250.535156 503.601562 251.503906 504.570312 251.503906 505.769531 " fill-opacity="1" fill-rule="nonzero"/></g><path fill="#d5624d" d="M 3.914062 530.527344 C 3.914062 531.726562 2.945312 532.699219 1.746094 532.699219 C 0.550781 532.699219 -0.417969 531.726562 -0.417969 530.527344 C -0.417969 529.332031 0.550781 528.363281 1.746094 528.363281 C 2.945312 528.363281 3.914062 529.332031 3.914062 530.527344 " fill-opacity="1" fill-rule="nonzero"/><path fill="#d5624d" d="M 28.675781 530.527344 C 28.675781 531.726562 27.703125 532.699219 26.503906 532.699219 C 25.308594 532.699219 24.335938 531.726562 24.335938 530.527344 C 24.335938 529.332031 25.308594 528.363281 26.503906 528.363281 C 27.703125 528.363281 28.675781 529.332031 28.675781 530.527344 " fill-opacity="1" fill-rule="nonzero"/><path fill="#d5624d" d="M 53.433594 530.527344 C 53.433594 531.726562 52.460938 532.699219 51.265625 532.699219 C 50.066406 532.699219 49.097656 531.726562 49.097656 530.527344 C 49.097656 529.332031 50.066406 528.363281 51.265625 528.363281 C 52.460938 528.363281 53.433594 529.332031 53.433594 530.527344 " fill-opacity="1" fill-rule="nonzero"/><path fill="#d5624d" d="M 78.191406 530.527344 C 78.191406 531.726562 77.222656 532.699219 76.023438 532.699219 C 74.824219 532.699219 73.855469 531.726562 73.855469 530.527344 C 73.855469 529.332031 74.824219 528.363281 76.023438 528.363281 C 77.222656 528.363281 78.191406 529.332031 78.191406 530.527344 " fill-opacity="1" fill-rule="nonzero"/><path fill="#d5624d" d="M 102.949219 530.527344 C 102.949219 531.726562 101.980469 532.699219 100.78125 532.699219 C 99.585938 532.699219 98.613281 531.726562 98.613281 530.527344 C 98.613281 529.332031 99.585938 528.363281 100.78125 528.363281 C 101.980469 528.363281 102.949219 529.332031 102.949219 530.527344 " fill-opacity="1" fill-rule="nonzero"/><path fill="#d5624d" d="M 127.710938 530.527344 C 127.710938 531.726562 126.738281 532.699219 125.542969 532.699219 C 124.34375 532.699219 123.371094 531.726562 123.371094 530.527344 C 123.371094 529.332031 124.34375 528.363281 125.542969 528.363281 C 126.738281 528.363281 127.710938 529.332031 127.710938 530.527344 " fill-opacity="1" fill-rule="nonzero"/><path fill="#d5624d" d="M 152.464844 530.527344 C 152.464844 531.726562 151.496094 532.699219 150.300781 532.699219 C 149.101562 532.699219 148.132812 531.726562 148.132812 530.527344 C 148.132812 529.332031 149.101562 528.363281 150.300781 528.363281 C 151.496094 528.363281 152.464844 529.332031 152.464844 530.527344 " fill-opacity="1" fill-rule="nonzero"/><path fill="#d5624d" d="M 177.226562 530.527344 C 177.226562 531.726562 176.257812 532.699219 175.058594 532.699219 C 173.859375 532.699219 172.890625 531.726562 172.890625 530.527344 C 172.890625 529.332031 173.859375 528.363281 175.058594 528.363281 C 176.257812 528.363281 177.226562 529.332031 177.226562 530.527344 " fill-opacity="1" fill-rule="nonzero"/><path fill="#d5624d" d="M 201.984375 530.527344 C 201.984375 531.726562 201.015625 532.699219 199.816406 532.699219 C 198.621094 532.699219 197.648438 531.726562 197.648438 530.527344 C 197.648438 529.332031 198.621094 528.363281 199.816406 528.363281 C 201.015625 528.363281 201.984375 529.332031 201.984375 530.527344 " fill-opacity="1" fill-rule="nonzero"/><path fill="#d5624d" d="M 226.742188 530.527344 C 226.742188 531.726562 225.773438 532.699219 224.578125 532.699219 C 223.378906 532.699219 222.410156 531.726562 222.410156 530.527344 C 222.410156 529.332031 223.378906 528.363281 224.578125 528.363281 C 225.773438 528.363281 226.742188 529.332031 226.742188 530.527344 " fill-opacity="1" fill-rule="nonzero"/><g clip-path="url(#a954d9d09e)"><path fill="#d5624d" d="M 251.503906 530.527344 C 251.503906 531.726562 250.535156 532.699219 249.335938 532.699219 C 248.136719 532.699219 247.167969 531.726562 247.167969 530.527344 C 247.167969 529.332031 248.136719 528.363281 249.335938 528.363281 C 250.535156 528.363281 251.503906 529.332031 251.503906 530.527344 " fill-opacity="1" fill-rule="nonzero"/></g><path fill="#d5624d" d="M 3.914062 555.289062 C 3.914062 556.484375 2.945312 557.457031 1.746094 557.457031 C 0.550781 557.457031 -0.417969 556.484375 -0.417969 555.289062 C -0.417969 554.09375 0.550781 553.121094 1.746094 553.121094 C 2.945312 553.121094 3.914062 554.09375 3.914062 555.289062 " fill-opacity="1" fill-rule="nonzero"/><path fill="#d5624d" d="M 28.675781 555.289062 C 28.675781 556.484375 27.703125 557.457031 26.503906 557.457031 C 25.308594 557.457031 24.335938 556.484375 24.335938 555.289062 C 24.335938 554.09375 25.308594 553.121094 26.503906 553.121094 C 27.703125 553.121094 28.675781 554.09375 28.675781 555.289062 " fill-opacity="1" fill-rule="nonzero"/><path fill="#d5624d" d="M 53.433594 555.289062 C 53.433594 556.484375 52.460938 557.457031 51.265625 557.457031 C 50.066406 557.457031 49.097656 556.484375 49.097656 555.289062 C 49.097656 554.09375 50.066406 553.121094 51.265625 553.121094 C 52.460938 553.121094 53.433594 554.09375 53.433594 555.289062 " fill-opacity="1" fill-rule="nonzero"/><path fill="#d5624d" d="M 1013.9375 11.839844 C 1013.9375 13.039062 1014.910156 14.007812 1016.105469 14.007812 C 1017.304688 14.007812 1018.273438 13.039062 1018.273438 11.839844 C 1018.273438 10.644531 1017.304688 9.671875 1016.105469 9.671875 C 1014.910156 9.671875 1013.9375 10.644531 1013.9375 11.839844 " fill-opacity="1" fill-rule="nonzero"/><path fill="#d5624d" d="M 989.179688 11.839844 C 989.179688 13.039062 990.152344 14.007812 991.347656 14.007812 C 992.542969 14.007812 993.515625 13.039062 993.515625 11.839844 C 993.515625 10.644531 992.542969 9.671875 991.347656 9.671875 C 990.152344 9.671875 989.179688 10.644531 989.179688 11.839844 " fill-opacity="1" fill-rule="nonzero"/><path fill="#d5624d" d="M 964.421875 11.839844 C 964.421875 13.039062 965.390625 14.007812 966.589844 14.007812 C 967.785156 14.007812 968.757812 13.039062 968.757812 11.839844 C 968.757812 10.644531 967.785156 9.671875 966.589844 9.671875 C 965.390625 9.671875 964.421875 10.644531 964.421875 11.839844 " fill-opacity="1" fill-rule="nonzero"/><path fill="#d5624d" d="M 939.664062 11.839844 C 939.664062 13.039062 940.632812 14.007812 941.828125 14.007812 C 943.027344 14.007812 943.996094 13.039062 943.996094 11.839844 C 943.996094 10.644531 943.027344 9.671875 941.828125 9.671875 C 940.632812 9.671875 939.664062 10.644531 939.664062 11.839844 " fill-opacity="1" fill-rule="nonzero"/><path fill="#d5624d" d="M 914.902344 11.839844 C 914.902344 13.039062 915.875 14.007812 917.070312 14.007812 C 918.269531 14.007812 919.238281 13.039062 919.238281 11.839844 C 919.238281 10.644531 918.269531 9.671875 917.070312 9.671875 C 915.875 9.671875 914.902344 10.644531 914.902344 11.839844 " fill-opacity="1" fill-rule="nonzero"/><path fill="#d5624d" d="M 890.144531 11.839844 C 890.144531 13.039062 891.117188 14.007812 892.3125 14.007812 C 893.507812 14.007812 894.480469 13.039062 894.480469 11.839844 C 894.480469 10.644531 893.507812 9.671875 892.3125 9.671875 C 891.117188 9.671875 890.144531 10.644531 890.144531 11.839844 " fill-opacity="1" fill-rule="nonzero"/><path fill="#d5624d" d="M 865.386719 11.839844 C 865.386719 13.039062 866.355469 14.007812 867.550781 14.007812 C 868.75 14.007812 869.71875 13.039062 869.71875 11.839844 C 869.71875 10.644531 868.75 9.671875 867.550781 9.671875 C 866.355469 9.671875 865.386719 10.644531 865.386719 11.839844 " fill-opacity="1" fill-rule="nonzero"/><path fill="#d5624d" d="M 840.628906 11.839844 C 840.628906 13.039062 841.597656 14.007812 842.792969 14.007812 C 843.992188 14.007812 844.960938 13.039062 844.960938 11.839844 C 844.960938 10.644531 843.992188 9.671875 842.792969 9.671875 C 841.597656 9.671875 840.628906 10.644531 840.628906 11.839844 " fill-opacity="1" fill-rule="nonzero"/><path fill="#d5624d" d="M 815.867188 11.839844 C 815.867188 13.039062 816.839844 14.007812 818.035156 14.007812 C 819.234375 14.007812 820.203125 13.039062 820.203125 11.839844 C 820.203125 10.644531 819.234375 9.671875 818.035156 9.671875 C 816.839844 9.671875 815.867188 10.644531 815.867188 11.839844 " fill-opacity="1" fill-rule="nonzero"/><g clip-path="url(#d6847fee5a)"><path fill="#d5624d" d="M 791.109375 11.839844 C 791.109375 13.039062 792.078125 14.007812 793.277344 14.007812 C 794.472656 14.007812 795.445312 13.039062 795.445312 11.839844 C 795.445312 10.644531 794.472656 9.671875 793.277344 9.671875 C 792.078125 9.671875 791.109375 10.644531 791.109375 11.839844 " fill-opacity="1" fill-rule="nonzero"/></g><path fill="#d5624d" d="M 1013.9375 36.601562 C 1013.9375 37.796875 1014.910156 38.765625 1016.105469 38.765625 C 1017.304688 38.765625 1018.273438 37.796875 1018.273438 36.601562 C 1018.273438 35.402344 1017.304688 34.429688 1016.105469 34.429688 C 1014.910156 34.429688 1013.9375 35.402344 1013.9375 36.601562 " fill-opacity="1" fill-rule="nonzero"/><path fill="#d5624d" d="M 989.179688 36.601562 C 989.179688 37.796875 990.152344 38.765625 991.347656 38.765625 C 992.542969 38.765625 993.515625 37.796875 993.515625 36.601562 C 993.515625 35.402344 992.542969 34.429688 991.347656 34.429688 C 990.152344 34.429688 989.179688 35.402344 989.179688 36.601562 " fill-opacity="1" fill-rule="nonzero"/><path fill="#d5624d" d="M 964.421875 36.601562 C 964.421875 37.796875 965.390625 38.765625 966.589844 38.765625 C 967.785156 38.765625 968.757812 37.796875 968.757812 36.601562 C 968.757812 35.402344 967.785156 34.429688 966.589844 34.429688 C 965.390625 34.429688 964.421875 35.402344 964.421875 36.601562 " fill-opacity="1" fill-rule="nonzero"/><path fill="#d5624d" d="M 939.664062 36.601562 C 939.664062 37.796875 940.632812 38.765625 941.828125 38.765625 C 943.027344 38.765625 943.996094 37.796875 943.996094 36.601562 C 943.996094 35.402344 943.027344 34.429688 941.828125 34.429688 C 940.632812 34.429688 939.664062 35.402344 939.664062 36.601562 " fill-opacity="1" fill-rule="nonzero"/><path fill="#d5624d" d="M 914.902344 36.601562 C 914.902344 37.796875 915.875 38.765625 917.070312 38.765625 C 918.269531 38.765625 919.238281 37.796875 919.238281 36.601562 C 919.238281 35.402344 918.269531 34.429688 917.070312 34.429688 C 915.875 34.429688 914.902344 35.402344 914.902344 36.601562 " fill-opacity="1" fill-rule="nonzero"/><path fill="#d5624d" d="M 890.144531 36.601562 C 890.144531 37.796875 891.117188 38.765625 892.3125 38.765625 C 893.507812 38.765625 894.480469 37.796875 894.480469 36.601562 C 894.480469 35.402344 893.507812 34.429688 892.3125 34.429688 C 891.117188 34.429688 890.144531 35.402344 890.144531 36.601562 " fill-opacity="1" fill-rule="nonzero"/><path fill="#d5624d" d="M 865.386719 36.601562 C 865.386719 37.796875 866.355469 38.765625 867.550781 38.765625 C 868.75 38.765625 869.71875 37.796875 869.71875 36.601562 C 869.71875 35.402344 868.75 34.429688 867.550781 34.429688 C 866.355469 34.429688 865.386719 35.402344 865.386719 36.601562 " fill-opacity="1" fill-rule="nonzero"/><path fill="#d5624d" d="M 840.628906 36.601562 C 840.628906 37.796875 841.597656 38.765625 842.792969 38.765625 C 843.992188 38.765625 844.960938 37.796875 844.960938 36.601562 C 844.960938 35.402344 843.992188 34.429688 842.792969 34.429688 C 841.597656 34.429688 840.628906 35.402344 840.628906 36.601562 " fill-opacity="1" fill-rule="nonzero"/><path fill="#d5624d" d="M 815.867188 36.601562 C 815.867188 37.796875 816.839844 38.765625 818.035156 38.765625 C 819.234375 38.765625 820.203125 37.796875 820.203125 36.601562 C 820.203125 35.402344 819.234375 34.429688 818.035156 34.429688 C 816.839844 34.429688 815.867188 35.402344 815.867188 36.601562 " fill-opacity="1" fill-rule="nonzero"/><g clip-path="url(#78593421c7)"><path fill="#d5624d" d="M 791.109375 36.601562 C 791.109375 37.796875 792.078125 38.765625 793.277344 38.765625 C 794.472656 38.765625 795.445312 37.796875 795.445312 36.601562 C 795.445312 35.402344 794.472656 34.429688 793.277344 34.429688 C 792.078125 34.429688 791.109375 35.402344 791.109375 36.601562 " fill-opacity="1" fill-rule="nonzero"/></g><path fill="#d5624d" d="M 1013.9375 61.355469 C 1013.9375 62.554688 1014.910156 63.527344 1016.105469 63.527344 C 1017.304688 63.527344 1018.273438 62.554688 1018.273438 61.355469 C 1018.273438 60.160156 1017.304688 59.191406 1016.105469 59.191406 C 1014.910156 59.191406 1013.9375 60.160156 1013.9375 61.355469 " fill-opacity="1" fill-rule="nonzero"/><path fill="#d5624d" d="M 989.179688 61.355469 C 989.179688 62.554688 990.152344 63.527344 991.347656 63.527344 C 992.542969 63.527344 993.515625 62.554688 993.515625 61.355469 C 993.515625 60.160156 992.542969 59.191406 991.347656 59.191406 C 990.152344 59.191406 989.179688 60.160156 989.179688 61.355469 " fill-opacity="1" fill-rule="nonzero"/><path fill="#d5624d" d="M 964.421875 61.355469 C 964.421875 62.554688 965.390625 63.527344 966.589844 63.527344 C 967.785156 63.527344 968.757812 62.554688 968.757812 61.355469 C 968.757812 60.160156 967.785156 59.191406 966.589844 59.191406 C 965.390625 59.191406 964.421875 60.160156 964.421875 61.355469 " fill-opacity="1" fill-rule="nonzero"/><path fill="#d5624d" d="M 939.664062 61.355469 C 939.664062 62.554688 940.632812 63.527344 941.828125 63.527344 C 943.027344 63.527344 943.996094 62.554688 943.996094 61.355469 C 943.996094 60.160156 943.027344 59.191406 941.828125 59.191406 C 940.632812 59.191406 939.664062 60.160156 939.664062 61.355469 " fill-opacity="1" fill-rule="nonzero"/><path fill="#d5624d" d="M 914.902344 61.355469 C 914.902344 62.554688 915.875 63.527344 917.070312 63.527344 C 918.269531 63.527344 919.238281 62.554688 919.238281 61.355469 C 919.238281 60.160156 918.269531 59.191406 917.070312 59.191406 C 915.875 59.191406 914.902344 60.160156 914.902344 61.355469 " fill-opacity="1" fill-rule="nonzero"/><path fill="#d5624d" d="M 890.144531 61.355469 C 890.144531 62.554688 891.117188 63.527344 892.3125 63.527344 C 893.507812 63.527344 894.480469 62.554688 894.480469 61.355469 C 894.480469 60.160156 893.507812 59.191406 892.3125 59.191406 C 891.117188 59.191406 890.144531 60.160156 890.144531 61.355469 " fill-opacity="1" fill-rule="nonzero"/><path fill="#d5624d" d="M 865.386719 61.355469 C 865.386719 62.554688 866.355469 63.527344 867.550781 63.527344 C 868.75 63.527344 869.71875 62.554688 869.71875 61.355469 C 869.71875 60.160156 868.75 59.191406 867.550781 59.191406 C 866.355469 59.191406 865.386719 60.160156 865.386719 61.355469 " fill-opacity="1" fill-rule="nonzero"/><path fill="#d5624d" d="M 840.628906 61.355469 C 840.628906 62.554688 841.597656 63.527344 842.792969 63.527344 C 843.992188 63.527344 844.960938 62.554688 844.960938 61.355469 C 844.960938 60.160156 843.992188 59.191406 842.792969 59.191406 C 841.597656 59.191406 840.628906 60.160156 840.628906 61.355469 " fill-opacity="1" fill-rule="nonzero"/><path fill="#d5624d" d="M 815.867188 61.355469 C 815.867188 62.554688 816.839844 63.527344 818.035156 63.527344 C 819.234375 63.527344 820.203125 62.554688 820.203125 61.355469 C 820.203125 60.160156 819.234375 59.191406 818.035156 59.191406 C 816.839844 59.191406 815.867188 60.160156 815.867188 61.355469 " fill-opacity="1" fill-rule="nonzero"/><g clip-path="url(#f06da38239)"><path fill="#d5624d" d="M 791.109375 61.355469 C 791.109375 62.554688 792.078125 63.527344 793.277344 63.527344 C 794.472656 63.527344 795.445312 62.554688 795.445312 61.355469 C 795.445312 60.160156 794.472656 59.191406 793.277344 59.191406 C 792.078125 59.191406 791.109375 60.160156 791.109375 61.355469 " fill-opacity="1" fill-rule="nonzero"/></g><path fill="#d5624d" d="M 1013.9375 86.117188 C 1013.9375 87.3125 1014.910156 88.285156 1016.105469 88.285156 C 1017.304688 88.285156 1018.273438 87.3125 1018.273438 86.117188 C 1018.273438 84.921875 1017.304688 83.949219 1016.105469 83.949219 C 1014.910156 83.949219 1013.9375 84.921875 1013.9375 86.117188 " fill-opacity="1" fill-rule="nonzero"/><path fill="#d5624d" d="M 989.179688 86.117188 C 989.179688 87.3125 990.152344 88.285156 991.347656 88.285156 C 992.542969 88.285156 993.515625 87.3125 993.515625 86.117188 C 993.515625 84.921875 992.542969 83.949219 991.347656 83.949219 C 990.152344 83.949219 989.179688 84.921875 989.179688 86.117188 " fill-opacity="1" fill-rule="nonzero"/><path fill="#d5624d" d="M 1013.9375 110.875 C 1013.9375 112.074219 1014.910156 113.042969 1016.105469 113.042969 C 1017.304688 113.042969 1018.273438 112.074219 1018.273438 110.875 C 1018.273438 109.679688 1017.304688 108.707031 1016.105469 108.707031 C 1014.910156 108.707031 1013.9375 109.679688 1013.9375 110.875 " fill-opacity="1" fill-rule="nonzero"/><path fill="#d5624d" d="M 989.179688 110.875 C 989.179688 112.074219 990.152344 113.042969 991.347656 113.042969 C 992.542969 113.042969 993.515625 112.074219 993.515625 110.875 C 993.515625 109.679688 992.542969 108.707031 991.347656 108.707031 C 990.152344 108.707031 989.179688 109.679688 989.179688 110.875 " fill-opacity="1" fill-rule="nonzero"/><path fill="#d5624d" d="M 1013.9375 135.632812 C 1013.9375 136.832031 1014.910156 137.800781 1016.105469 137.800781 C 1017.304688 137.800781 1018.273438 136.832031 1018.273438 135.632812 C 1018.273438 134.4375 1017.304688 133.46875 1016.105469 133.46875 C 1014.910156 133.46875 1013.9375 134.4375 1013.9375 135.632812 " fill-opacity="1" fill-rule="nonzero"/><path fill="#d5624d" d="M 989.179688 135.632812 C 989.179688 136.832031 990.152344 137.800781 991.347656 137.800781 C 992.542969 137.800781 993.515625 136.832031 993.515625 135.632812 C 993.515625 134.4375 992.542969 133.46875 991.347656 133.46875 C 990.152344 133.46875 989.179688 134.4375 989.179688 135.632812 " fill-opacity="1" fill-rule="nonzero"/><g clip-path="url(#e3af50403a)"><path fill="#d5624d" d="M 1013.9375 160.394531 C 1013.9375 161.589844 1014.910156 162.5625 1016.105469 162.5625 C 1017.304688 162.5625 1018.273438 161.589844 1018.273438 160.394531 C 1018.273438 159.195312 1017.304688 158.226562 1016.105469 158.226562 C 1014.910156 158.226562 1013.9375 159.195312 1013.9375 160.394531 " fill-opacity="1" fill-rule="nonzero"/></g><g clip-path="url(#7f04ee1cc9)"><path fill="#d5624d" d="M 989.179688 160.394531 C 989.179688 161.589844 990.152344 162.5625 991.347656 162.5625 C 992.542969 162.5625 993.515625 161.589844 993.515625 160.394531 C 993.515625 159.195312 992.542969 158.226562 991.347656 158.226562 C 990.152344 158.226562 989.179688 159.195312 989.179688 160.394531 " fill-opacity="1" fill-rule="nonzero"/></g><g clip-path="url(#854793f2ff)"><g mask="url(#f2d8f20c59)"><g transform="matrix(1, 0, 0, 1, 770, 240)"><g clip-path="url(#c806e94e74)"><g clip-path="url(#935fd55d9a)"><g clip-path="url(#ce4f7a3973)"><g clip-path="url(#76c750990e)"><g clip-path="url(#2249172d66)"><path fill="url(#24287c06a5)" d="M -129.535156 94.273438 L 70.046875 441.570312 L 392.832031 256.078125 L 193.25 -91.222656 Z M -129.535156 94.273438 " fill-rule="nonzero"/></g></g></g></g></g></g></g></g></svg>