<svg xmlns="http://www.w3.org/2000/svg" xmlns:xlink="http://www.w3.org/1999/xlink" width="1366" zoomAndPan="magnify" viewBox="0 0 1024.5 576" height="768" preserveAspectRatio="xMidYMid meet" version="1.0"><defs><clipPath id="b9933542a7"><path d="M 251.628906 15.003906 L 817.601562 15.003906 L 817.601562 560.738281 L 251.628906 560.738281 Z M 251.628906 15.003906 " clip-rule="nonzero"/></clipPath></defs><g clip-path="url(#b9933542a7)"><path fill="#231f20" d="M 792.425781 282.082031 C 792.621094 281.570312 792.460938 280.964844 792.035156 280.609375 L 740.457031 236.730469 C 740.136719 236.445312 739.691406 236.359375 739.285156 236.445312 L 704.160156 244.855469 L 701.230469 237.261719 C 701.089844 236.871094 700.769531 236.589844 700.363281 236.464844 C 699.972656 236.359375 699.546875 236.429688 699.207031 236.660156 L 680.058594 250.640625 L 650.097656 257.828125 C 646.921875 241.449219 641.082031 226.546875 632.6875 213.449219 L 658.171875 197.816406 L 681.601562 194.164062 C 682.007812 194.089844 682.363281 193.84375 682.558594 193.488281 C 682.753906 193.117188 682.773438 192.691406 682.613281 192.316406 L 679.3125 184.863281 L 710.105469 165.984375 C 710.460938 165.773438 710.710938 165.382812 710.746094 164.957031 L 716.175781 97.457031 C 716.210938 96.910156 715.910156 96.375 715.414062 96.144531 C 714.914062 95.914062 714.3125 96.019531 713.921875 96.410156 L 616.675781 193.628906 C 615.789062 192.761719 614.902344 191.890625 614.015625 191.058594 L 711.277344 93.785156 C 711.667969 93.394531 711.773438 92.792969 711.542969 92.296875 C 711.3125 91.78125 710.816406 91.480469 710.230469 91.53125 L 642.714844 96.960938 C 642.289062 96.996094 641.914062 97.226562 641.683594 97.601562 L 622.800781 128.386719 L 615.34375 125.085938 C 614.972656 124.925781 614.527344 124.945312 614.171875 125.140625 C 613.820312 125.335938 613.550781 125.6875 613.5 126.097656 L 609.84375 149.519531 L 593.710938 175.816406 C 580.308594 167.742188 565.4375 162.136719 549.445312 159.136719 L 556.988281 127.640625 L 570.957031 108.496094 C 571.203125 108.160156 571.273438 107.730469 571.152344 107.34375 C 571.027344 106.953125 570.742188 106.632812 570.351562 106.472656 L 562.753906 103.542969 L 571.167969 68.429688 C 571.273438 68.023438 571.167969 67.578125 570.882812 67.257812 L 527.007812 15.640625 C 526.65625 15.214844 526.050781 15.054688 525.535156 15.25 C 525.023438 15.445312 524.667969 15.945312 524.667969 16.492188 L 524.667969 156.632812 C 523.441406 156.617188 522.199219 156.617188 520.957031 156.632812 L 520.957031 16.511719 C 520.957031 15.960938 520.601562 15.445312 520.085938 15.269531 C 519.574219 15.074219 518.96875 15.234375 518.613281 15.660156 L 474.722656 67.222656 C 474.4375 67.542969 474.347656 67.984375 474.4375 68.394531 L 482.851562 103.507812 L 475.253906 106.4375 C 474.863281 106.578125 474.578125 106.898438 474.457031 107.304688 C 474.332031 107.695312 474.421875 108.140625 474.652344 108.460938 L 488.636719 127.605469 L 496.179688 159.101562 C 480.207031 162.097656 465.332031 167.707031 451.914062 175.78125 L 435.78125 149.484375 L 432.125 126.0625 C 432.054688 125.652344 431.804688 125.296875 431.449219 125.105469 C 431.078125 124.910156 430.652344 124.890625 430.277344 125.050781 L 422.824219 128.351562 L 403.941406 97.566406 C 403.726562 97.210938 403.335938 96.960938 402.910156 96.925781 L 335.394531 91.496094 C 334.84375 91.460938 334.3125 91.761719 334.082031 92.257812 C 333.851562 92.773438 333.957031 93.359375 334.347656 93.75 L 431.644531 191.023438 C 430.757812 191.855469 429.851562 192.726562 428.984375 193.59375 L 331.738281 96.375 C 331.347656 95.984375 330.742188 95.878906 330.246094 96.109375 C 329.730469 96.339844 329.429688 96.875 329.484375 97.421875 L 334.914062 164.921875 C 334.949219 165.347656 335.179688 165.71875 335.554688 165.949219 L 366.347656 184.828125 L 363.046875 192.28125 C 362.886719 192.65625 362.90625 193.097656 363.101562 193.453125 C 363.296875 193.808594 363.648438 194.074219 364.058594 194.128906 L 387.488281 197.78125 L 412.972656 213.414062 C 404.578125 226.507812 398.738281 241.414062 395.5625 257.792969 L 365.601562 250.605469 L 346.453125 236.625 C 346.113281 236.375 345.6875 236.304688 345.296875 236.429688 C 344.90625 236.550781 344.585938 236.835938 344.429688 237.226562 L 341.5 244.820312 L 306.375 236.410156 C 305.949219 236.320312 305.523438 236.410156 305.203125 236.695312 L 253.625 280.574219 C 253.199219 280.929688 253.039062 281.535156 253.234375 282.046875 C 253.429688 282.582031 253.925781 282.917969 254.476562 282.917969 L 392.847656 282.917969 C 392.8125 283.519531 392.792969 284.125 392.777344 284.78125 C 392.792969 285.402344 392.8125 286.003906 392.847656 286.609375 L 254.460938 286.609375 C 253.910156 286.609375 253.394531 286.964844 253.21875 287.476562 C 253.023438 287.992188 253.183594 288.59375 253.609375 288.949219 L 305.183594 332.832031 C 305.503906 333.097656 305.929688 333.203125 306.355469 333.113281 L 341.480469 324.703125 L 344.410156 332.296875 C 344.550781 332.6875 344.871094 332.972656 345.28125 333.097656 C 345.671875 333.222656 346.113281 333.132812 346.433594 332.902344 L 365.585938 318.917969 L 395.542969 311.734375 C 398.722656 328.09375 404.5625 343.015625 412.957031 356.109375 L 387.46875 371.742188 L 364.039062 375.398438 C 363.632812 375.46875 363.277344 375.71875 363.082031 376.074219 C 362.886719 376.445312 362.867188 376.871094 363.027344 377.242188 L 366.328125 384.695312 L 335.535156 403.574219 C 335.179688 403.804688 334.933594 404.179688 334.898438 404.605469 L 329.464844 472.101562 C 329.414062 472.652344 329.730469 473.183594 330.230469 473.414062 C 330.726562 473.644531 331.328125 473.539062 331.71875 473.148438 L 428.964844 375.929688 C 429.851562 376.816406 430.742188 377.667969 431.628906 378.503906 L 334.347656 475.773438 C 333.957031 476.164062 333.851562 476.769531 334.082031 477.265625 C 334.3125 477.761719 334.84375 478.046875 335.394531 478.027344 L 402.910156 472.597656 C 403.335938 472.5625 403.707031 472.332031 403.941406 471.960938 L 422.824219 441.175781 L 430.277344 444.476562 C 430.652344 444.632812 431.09375 444.617188 431.449219 444.421875 C 431.804688 444.226562 432.070312 443.871094 432.125 443.464844 L 435.78125 420.042969 L 451.914062 393.746094 C 465.316406 401.820312 480.1875 407.425781 496.179688 410.425781 L 488.636719 441.917969 L 474.652344 461.066406 C 474.402344 461.402344 474.332031 461.828125 474.457031 462.21875 C 474.578125 462.609375 474.863281 462.929688 475.253906 463.089844 L 482.851562 466.015625 L 474.4375 501.132812 C 474.332031 501.539062 474.4375 501.984375 474.722656 502.300781 L 518.613281 553.867188 C 518.96875 554.292969 519.574219 554.453125 520.085938 554.257812 C 520.621094 554.0625 520.957031 553.5625 520.957031 553.015625 L 520.957031 412.875 C 522.183594 412.890625 523.425781 412.890625 524.667969 412.875 L 524.667969 553.015625 C 524.667969 553.5625 525.023438 554.078125 525.535156 554.257812 C 525.679688 554.308594 525.839844 554.34375 525.996094 554.34375 C 526.386719 554.34375 526.761719 554.183594 527.007812 553.882812 L 570.902344 502.320312 C 571.1875 502 571.273438 501.558594 571.1875 501.148438 L 562.773438 466.035156 L 570.371094 463.105469 C 570.761719 462.964844 571.042969 462.644531 571.167969 462.238281 C 571.292969 461.847656 571.203125 461.402344 570.972656 461.082031 L 557.003906 441.9375 L 549.460938 410.441406 C 565.4375 407.445312 580.308594 401.835938 593.726562 393.761719 L 609.859375 420.058594 L 613.515625 443.480469 C 613.589844 443.890625 613.835938 444.246094 614.191406 444.441406 C 614.5625 444.632812 614.988281 444.652344 615.363281 444.492188 L 622.816406 441.191406 L 641.703125 471.976562 C 641.933594 472.332031 642.304688 472.582031 642.730469 472.617188 L 710.246094 478.046875 C 710.832031 478.082031 711.332031 477.78125 711.5625 477.285156 C 711.792969 476.769531 711.683594 476.183594 711.292969 475.792969 L 613.996094 378.519531 C 614.882812 377.6875 615.769531 376.835938 616.660156 375.949219 L 713.902344 473.167969 C 714.292969 473.558594 714.898438 473.664062 715.394531 473.433594 C 715.910156 473.203125 716.210938 472.671875 716.15625 472.121094 L 710.726562 404.621094 C 710.691406 404.195312 710.460938 403.824219 710.089844 403.59375 L 679.292969 384.714844 L 682.59375 377.261719 C 682.753906 376.886719 682.738281 376.445312 682.542969 376.089844 C 682.347656 375.734375 681.992188 375.46875 681.582031 375.414062 L 658.15625 371.761719 L 632.667969 356.128906 C 641.0625 343.035156 646.902344 328.128906 650.078125 311.75 L 680.039062 318.9375 L 699.191406 332.917969 C 699.527344 333.167969 699.953125 333.238281 700.34375 333.113281 C 700.734375 332.992188 701.054688 332.707031 701.214844 332.316406 L 704.140625 324.722656 L 739.265625 333.132812 C 739.675781 333.222656 740.117188 333.132812 740.4375 332.847656 L 792.015625 288.96875 C 792.441406 288.613281 792.601562 288.011719 792.40625 287.496094 C 792.210938 286.960938 791.714844 286.625 791.164062 286.625 L 652.796875 286.625 C 652.832031 286.023438 652.847656 285.417969 652.867188 284.796875 L 652.867188 284.761719 C 652.847656 284.140625 652.832031 283.539062 652.796875 282.933594 L 791.164062 282.933594 C 791.730469 282.953125 792.230469 282.597656 792.425781 282.082031 Z M 651.410156 280.292969 C 651.054688 280.292969 650.699219 280.433594 650.453125 280.699219 C 650.203125 280.964844 650.0625 281.300781 650.078125 281.675781 L 650.132812 282.863281 C 650.167969 283.503906 650.203125 284.160156 650.203125 284.816406 C 650.1875 285.453125 650.167969 286.09375 650.132812 286.714844 L 650.078125 287.957031 C 650.0625 288.3125 650.203125 288.667969 650.453125 288.933594 C 650.699219 289.199219 651.054688 289.339844 651.410156 289.339844 L 787.5625 289.339844 L 739.25 330.433594 L 703.644531 321.902344 C 702.988281 321.742188 702.332031 322.097656 702.082031 322.71875 L 699.351562 329.777344 L 681.386719 316.667969 C 681.246094 316.558594 681.085938 316.488281 680.910156 316.453125 L 649.316406 308.875 C 648.960938 308.789062 648.589844 308.859375 648.285156 309.054688 C 647.984375 309.25 647.773438 309.570312 647.699219 309.921875 C 644.578125 326.957031 638.507812 342.414062 629.667969 355.84375 C 629.472656 356.144531 629.402344 356.519531 629.472656 356.875 C 629.542969 357.230469 629.773438 357.53125 630.078125 357.726562 L 656.964844 374.210938 C 657.109375 374.296875 657.285156 374.367188 657.464844 374.386719 L 679.4375 377.8125 L 676.367188 384.730469 C 676.097656 385.335938 676.3125 386.0625 676.878906 386.398438 L 708.117188 405.546875 L 713.210938 468.75 L 617.582031 373.144531 C 617.332031 372.894531 616.996094 372.753906 616.640625 372.753906 C 616.234375 372.773438 615.949219 372.894531 615.683594 373.144531 C 614.191406 374.671875 612.664062 376.125 611.15625 377.507812 C 610.890625 377.757812 610.730469 378.09375 610.710938 378.46875 C 610.695312 378.839844 610.855469 379.175781 611.101562 379.445312 L 706.820312 475.136719 L 643.601562 470.042969 L 624.46875 438.851562 C 624.113281 438.28125 623.402344 438.050781 622.800781 438.335938 L 615.878906 441.40625 L 612.453125 419.4375 C 612.417969 419.261719 612.363281 419.101562 612.273438 418.941406 L 595.308594 391.277344 C 595.128906 390.976562 594.828125 390.765625 594.472656 390.675781 C 594.136719 390.605469 593.761719 390.65625 593.460938 390.835938 C 579.671875 399.335938 564.230469 405.15625 547.597656 408.117188 C 547.242188 408.1875 546.921875 408.382812 546.710938 408.703125 C 546.515625 409.003906 546.445312 409.378906 546.53125 409.75 L 554.46875 442.878906 C 554.503906 443.054688 554.589844 443.214844 554.679688 443.355469 L 567.796875 461.3125 L 560.730469 464.046875 C 560.109375 464.277344 559.757812 464.953125 559.914062 465.589844 L 568.453125 501.183594 L 527.347656 549.484375 L 527.347656 411.613281 C 527.347656 411.257812 527.203125 410.902344 526.9375 410.65625 C 526.671875 410.40625 526.316406 410.265625 525.980469 410.28125 C 523.886719 410.335938 521.773438 410.335938 519.679688 410.28125 C 519.304688 410.265625 518.96875 410.40625 518.722656 410.65625 C 518.472656 410.902344 518.3125 411.242188 518.3125 411.613281 L 518.3125 549.484375 L 477.207031 501.183594 L 485.742188 465.589844 C 485.902344 464.933594 485.546875 464.277344 484.925781 464.046875 L 477.863281 461.3125 L 490.980469 443.355469 C 491.085938 443.214844 491.15625 443.054688 491.191406 442.878906 L 499.125 409.75 C 499.214844 409.394531 499.144531 409.023438 498.949219 408.703125 C 498.753906 408.382812 498.433594 408.1875 498.0625 408.117188 C 481.429688 405.15625 466.007812 399.351562 452.199219 390.835938 C 451.898438 390.65625 451.523438 390.585938 451.1875 390.675781 C 450.847656 390.765625 450.546875 390.976562 450.351562 391.277344 L 433.386719 418.941406 C 433.296875 419.082031 433.226562 419.261719 433.207031 419.4375 L 429.78125 441.40625 L 422.859375 438.335938 C 422.257812 438.070312 421.527344 438.28125 421.191406 438.851562 L 402.058594 470.042969 L 338.820312 475.136719 L 434.539062 379.445312 C 434.804688 379.195312 434.929688 378.839844 434.929688 378.46875 C 434.929688 378.09375 434.769531 377.757812 434.484375 377.511719 C 432.976562 376.144531 431.46875 374.671875 429.960938 373.144531 C 429.710938 372.894531 429.375 372.753906 429.019531 372.753906 C 428.71875 372.808594 428.328125 372.894531 428.078125 373.144531 L 332.449219 468.75 L 337.542969 405.546875 L 368.726562 386.417969 C 369.292969 386.0625 369.523438 385.351562 369.242188 384.75 L 366.171875 377.828125 L 388.144531 374.40625 C 388.320312 374.367188 388.480469 374.316406 388.640625 374.226562 L 415.53125 357.742188 C 415.832031 357.546875 416.0625 357.246094 416.132812 356.890625 C 416.203125 356.535156 416.152344 356.164062 415.957031 355.863281 C 407.117188 342.429688 401.0625 326.976562 397.921875 309.941406 C 397.851562 309.585938 397.640625 309.265625 397.335938 309.070312 C 397.035156 308.875 396.644531 308.804688 396.308594 308.894531 L 364.734375 316.453125 C 364.554688 316.488281 364.394531 316.578125 364.253906 316.667969 L 346.292969 329.777344 L 343.558594 322.714844 C 343.308594 322.097656 342.652344 321.757812 342.015625 321.902344 L 306.410156 330.433594 L 258.097656 289.339844 L 394.25 289.339844 C 394.605469 289.339844 394.957031 289.199219 395.207031 288.933594 C 395.457031 288.667969 395.597656 288.328125 395.578125 287.957031 L 395.527344 286.730469 C 395.492188 286.09375 395.457031 285.453125 395.457031 284.851562 C 395.472656 284.195312 395.492188 283.554688 395.527344 282.917969 L 395.578125 281.691406 C 395.597656 281.339844 395.457031 280.984375 395.207031 280.71875 C 394.957031 280.449219 394.605469 280.308594 394.25 280.308594 L 258.082031 280.308594 L 306.390625 239.214844 L 341.996094 247.75 C 342.652344 247.890625 343.308594 247.554688 343.539062 246.933594 L 346.273438 239.871094 L 364.234375 252.984375 C 364.378906 253.089844 364.539062 253.160156 364.714844 253.195312 L 396.308594 260.773438 C 396.664062 260.863281 397.035156 260.789062 397.335938 260.59375 C 397.640625 260.398438 397.851562 260.082031 397.921875 259.726562 C 401.046875 242.691406 407.117188 227.238281 415.957031 213.804688 C 416.152344 213.503906 416.222656 213.128906 416.132812 212.777344 C 416.0625 212.421875 415.832031 212.121094 415.53125 211.925781 L 388.640625 195.441406 C 388.5 195.351562 388.320312 195.28125 388.144531 195.261719 L 366.171875 191.839844 L 369.242188 184.917969 C 369.507812 184.316406 369.292969 183.585938 368.726562 183.25 L 337.507812 164.050781 L 332.414062 100.828125 L 428.042969 196.433594 C 428.289062 196.683594 428.628906 196.824219 428.984375 196.824219 C 429.339844 196.824219 429.675781 196.683594 429.921875 196.433594 C 431.414062 194.925781 432.941406 193.453125 434.449219 192.070312 C 434.714844 191.820312 434.875 191.484375 434.875 191.109375 C 434.875 190.753906 434.75 190.402344 434.484375 190.136719 L 338.765625 94.441406 L 402.003906 99.535156 L 421.136719 130.726562 C 421.492188 131.296875 422.203125 131.527344 422.804688 131.242188 L 429.730469 128.171875 L 433.152344 150.140625 C 433.191406 150.316406 433.242188 150.476562 433.332031 150.636719 L 450.300781 178.300781 C 450.476562 178.601562 450.777344 178.8125 451.132812 178.902344 C 451.472656 178.992188 451.84375 178.921875 452.144531 178.742188 C 465.9375 170.242188 481.378906 164.425781 498.007812 161.460938 C 498.363281 161.390625 498.683594 161.195312 498.894531 160.875 C 499.109375 160.554688 499.160156 160.199219 499.074219 159.828125 L 491.140625 126.699219 C 491.105469 126.523438 491.015625 126.363281 490.925781 126.222656 L 477.808594 108.265625 L 484.875 105.53125 C 485.496094 105.285156 485.851562 104.628906 485.691406 103.988281 L 477.152344 68.394531 L 518.257812 20.09375 L 518.257812 157.964844 C 518.257812 158.320312 518.402344 158.675781 518.667969 158.921875 C 518.933594 159.171875 519.253906 159.3125 519.625 159.296875 C 521.71875 159.242188 523.832031 159.242188 525.925781 159.296875 C 526.265625 159.277344 526.636719 159.171875 526.886719 158.921875 C 527.132812 158.675781 527.292969 158.335938 527.292969 157.964844 L 527.292969 20.132812 L 568.398438 68.429688 L 559.863281 104.023438 C 559.703125 104.679688 560.058594 105.335938 560.679688 105.566406 L 567.742188 108.300781 L 554.625 126.257812 C 554.519531 126.398438 554.449219 126.558594 554.414062 126.734375 L 546.480469 159.863281 C 546.390625 160.21875 546.460938 160.589844 546.65625 160.910156 C 546.851562 161.210938 547.171875 161.425781 547.542969 161.496094 C 564.175781 164.460938 579.597656 170.261719 593.40625 178.777344 C 593.710938 178.957031 594.0625 179.027344 594.417969 178.9375 C 594.757812 178.851562 595.058594 178.636719 595.253906 178.335938 L 612.222656 150.691406 C 612.308594 150.546875 612.382812 150.371094 612.398438 150.195312 L 615.824219 128.226562 L 622.746094 131.296875 C 623.351562 131.5625 624.078125 131.347656 624.414062 130.78125 L 643.546875 99.589844 L 706.769531 94.496094 L 611.121094 190.136719 C 610.871094 190.402344 610.730469 190.738281 610.730469 191.109375 C 610.730469 191.484375 610.890625 191.820312 611.175781 192.070312 C 612.699219 193.453125 614.210938 194.925781 615.699219 196.433594 C 615.949219 196.683594 616.285156 196.824219 616.640625 196.824219 C 616.960938 196.804688 617.332031 196.683594 617.582031 196.433594 L 713.210938 100.828125 L 708.117188 164.050781 L 676.914062 183.179688 C 676.347656 183.535156 676.117188 184.242188 676.402344 184.847656 L 679.472656 191.765625 L 657.5 195.191406 C 657.320312 195.226562 657.160156 195.28125 657 195.371094 L 630.113281 211.851562 C 629.808594 212.046875 629.597656 212.351562 629.507812 212.703125 C 629.4375 213.058594 629.492188 213.433594 629.703125 213.734375 C 638.542969 227.167969 644.59375 242.621094 647.738281 259.65625 C 647.808594 260.011719 648.019531 260.328125 648.324219 260.523438 C 648.625 260.71875 649.015625 260.789062 649.351562 260.703125 L 680.925781 253.144531 C 681.105469 253.109375 681.265625 253.019531 681.40625 252.929688 L 699.367188 239.816406 L 702.101562 246.878906 C 702.347656 247.5 703.007812 247.855469 703.664062 247.695312 L 739.265625 239.160156 L 787.578125 280.253906 L 651.410156 280.253906 Z M 206.625 273.566406 L 176.773438 269.238281 L 163.425781 242.195312 C 162.984375 241.289062 161.492188 241.289062 161.046875 242.195312 L 147.699219 269.238281 L 117.847656 273.566406 C 117.351562 273.636719 116.925781 273.992188 116.765625 274.472656 C 116.605469 274.949219 116.746094 275.484375 117.101562 275.835938 L 138.703125 296.882812 L 133.609375 326.601562 C 133.519531 327.097656 133.734375 327.613281 134.140625 327.898438 C 134.550781 328.199219 135.097656 328.234375 135.542969 328.003906 L 162.238281 313.96875 L 188.929688 328.003906 C 189.125 328.109375 189.339844 328.164062 189.550781 328.164062 C 189.835938 328.164062 190.101562 328.074219 190.332031 327.914062 C 190.742188 327.613281 190.953125 327.117188 190.867188 326.621094 L 185.773438 296.898438 L 207.371094 275.855469 C 207.726562 275.5 207.867188 274.96875 207.710938 274.488281 C 207.550781 274.011719 207.140625 273.636719 206.625 273.566406 Z M 183.410156 295.460938 C 183.09375 295.765625 182.949219 296.207031 183.019531 296.632812 L 187.777344 324.382812 L 162.839844 311.273438 C 162.449219 311.078125 161.988281 311.058594 161.597656 311.273438 L 136.660156 324.382812 L 141.417969 296.632812 C 141.488281 296.207031 141.347656 295.765625 141.027344 295.460938 L 120.882812 275.800781 L 148.765625 271.757812 C 149.191406 271.683594 149.582031 271.417969 149.757812 271.027344 L 162.21875 245.78125 L 174.679688 271.027344 C 174.875 271.417969 175.246094 271.683594 175.671875 271.757812 L 203.554688 275.800781 Z M 928.875 274.472656 C 928.71875 273.992188 928.308594 273.636719 927.792969 273.566406 L 897.941406 269.238281 L 884.59375 242.195312 C 884.148438 241.289062 882.660156 241.289062 882.199219 242.195312 L 868.851562 269.238281 L 838.996094 273.566406 C 838.5 273.636719 838.074219 273.992188 837.914062 274.472656 C 837.753906 274.949219 837.898438 275.484375 838.25 275.835938 L 859.851562 296.882812 L 854.757812 326.601562 C 854.667969 327.097656 854.882812 327.613281 855.289062 327.898438 C 855.699219 328.199219 856.25 328.234375 856.691406 328.003906 L 883.40625 313.96875 L 910.097656 328.003906 C 910.292969 328.109375 910.507812 328.164062 910.71875 328.164062 C 911.003906 328.164062 911.269531 328.074219 911.5 327.914062 C 911.910156 327.613281 912.121094 327.117188 912.035156 326.621094 L 906.941406 296.898438 L 928.539062 275.855469 C 928.894531 275.484375 929.035156 274.949219 928.875 274.472656 Z M 904.578125 295.460938 C 904.257812 295.765625 904.117188 296.207031 904.1875 296.632812 L 908.945312 324.382812 L 884.007812 311.273438 C 883.617188 311.078125 883.15625 311.078125 882.765625 311.273438 L 857.828125 324.382812 L 862.585938 296.632812 C 862.65625 296.207031 862.515625 295.765625 862.195312 295.460938 L 842.015625 275.800781 L 869.898438 271.757812 C 870.339844 271.683594 870.714844 271.417969 870.910156 271.027344 L 883.367188 245.78125 L 895.828125 271.027344 C 896.023438 271.417969 896.398438 271.683594 896.839844 271.757812 L 924.722656 275.800781 Z M 567.210938 650.730469 L 537.355469 646.398438 L 524.011719 619.359375 C 523.566406 618.453125 522.074219 618.453125 521.632812 619.359375 L 508.285156 646.398438 L 478.429688 650.730469 C 477.933594 650.800781 477.507812 651.15625 477.347656 651.632812 C 477.1875 652.113281 477.332031 652.644531 477.6875 653 L 499.285156 674.042969 L 494.191406 703.765625 C 494.101562 704.261719 494.316406 704.777344 494.722656 705.0625 C 494.957031 705.238281 495.238281 705.308594 495.503906 705.308594 C 495.71875 705.308594 495.929688 705.257812 496.125 705.148438 L 522.820312 691.113281 L 549.53125 705.148438 C 549.976562 705.378906 550.527344 705.34375 550.933594 705.042969 C 551.34375 704.742188 551.554688 704.246094 551.46875 703.75 L 546.375 674.027344 L 567.972656 652.984375 C 568.328125 652.628906 568.46875 652.097656 568.3125 651.617188 C 568.132812 651.15625 567.726562 650.800781 567.210938 650.730469 Z M 543.996094 672.625 C 543.675781 672.925781 543.535156 673.371094 543.605469 673.796875 L 548.359375 701.546875 L 523.425781 688.433594 C 523.035156 688.222656 522.574219 688.222656 522.183594 688.433594 L 497.246094 701.546875 L 502 673.796875 C 502.074219 673.371094 501.929688 672.925781 501.609375 672.625 L 481.429688 652.964844 L 509.3125 648.917969 C 509.738281 648.847656 510.128906 648.582031 510.308594 648.191406 L 522.765625 622.941406 L 535.226562 648.191406 C 535.421875 648.582031 535.796875 648.867188 536.238281 648.917969 L 564.121094 652.964844 Z M 543.996094 672.625 " fill-opacity="1" fill-rule="nonzero"/></g></svg>