<svg width="66" height="68" viewBox="0 0 66 68" fill="none" xmlns="http://www.w3.org/2000/svg">
<path d="M7.64509 9.0125L9.44089 7.45627H47.7446C49.213 7.45627 50.4035 8.66717 50.4035 10.1643V64.4187C50.4035 65.9136 49.0135 66.652 47.5428 66.652L7.51282 66.2476L7.64509 9.0125Z" fill="#5D748A"/>
<mask id="mask0_135_3422" style="mask-type:luminance" maskUnits="userSpaceOnUse" x="3" y="6" width="48" height="62">
<path d="M3.15454 6.89056H50.7914V67.1404H3.15454V6.89056Z" fill="white"/>
</mask>
<g mask="url(#mask0_135_3422)">
<path d="M50.4036 64.4187C50.4036 65.9159 49.2131 67.1268 47.7446 67.1268H6.78202L3.38995 38.7785L6.78202 7.45627H9.44097V63.201C9.44097 63.8757 9.97679 64.4187 10.6382 64.4187H50.4036Z" fill="#3F597D"/>
</g>
<path d="M6.71473 66.652L3.45718 66.4498C1.98871 66.4498 0.795992 65.2366 0.795992 63.744L0.331909 10.5006C0.331909 9.00568 1.19057 7.45627 2.65905 7.45627H6.78199V64.4187L6.18339 65.4342L6.71473 66.652Z" fill="#FFBF54"/>
<path d="M24.7355 45.0988C24.7332 45.0988 24.7332 45.0988 24.7332 45.0988L18.106 45.0715C17.5545 45.0692 17.1084 44.6149 17.1106 44.0537C17.1128 43.4948 17.559 43.0427 18.1083 43.0427H18.1128L24.74 43.0677C25.2915 43.07 25.7354 43.5266 25.7331 44.0855C25.7309 44.6467 25.2847 45.0988 24.7355 45.0988Z" fill="#3F597D"/>
<path d="M24.7355 49.8333C24.7333 49.8333 24.7333 49.8333 24.731 49.8333L14.01 49.7834C13.4585 49.7811 13.0146 49.3244 13.0169 48.7633C13.0191 48.2044 13.4652 47.7523 14.0145 47.7523H14.019L24.74 47.8046C25.2915 47.8068 25.7354 48.2635 25.7332 48.8224C25.7309 49.3812 25.2848 49.8333 24.7355 49.8333Z" fill="#3F597D"/>
<mask id="mask1_135_3422" style="mask-type:luminance" maskUnits="userSpaceOnUse" x="0" y="6" width="8" height="62">
<path d="M0 6.89056H7.17199V67.1404H0V6.89056Z" fill="white"/>
</mask>
<g mask="url(#mask1_135_3422)">
<path d="M6.78187 64.4187V67.1268H2.65893C1.19046 67.1268 -0.0022583 65.9136 -0.0022583 64.4187V10.1643C-0.0022583 8.66717 1.18822 7.45627 2.65893 7.45627V63.4736C2.65893 63.9962 3.07594 64.4187 3.58934 64.4187H6.78187Z" fill="#FFA442"/>
</g>
<path d="M24.305 21.8508L20.2449 19.7857C20.0588 19.6902 19.8368 19.6902 19.6507 19.7857L16.8887 21.1897L16.0502 20.8875C15.6085 21.1124 15.0884 20.7853 15.0884 20.2809L15.326 8.13327C15.326 6.63839 15.7587 5.15259 17.2272 5.15259L18.8235 4.88678H22.6079C24.0763 4.88678 25.2668 6.09768 25.2668 7.59257V21.2465C25.2668 21.7486 24.7467 22.0757 24.305 21.8508Z" fill="#DC4955"/>
<path d="M19.5499 4.88678C18.0791 4.88678 16.8887 6.09768 16.8887 7.59257V21.1897L15.5906 21.8508C15.1489 22.0757 14.6288 21.7486 14.6288 21.2465V7.59257C14.6288 6.09768 15.8193 4.88678 17.2877 4.88678H19.5499Z" fill="#D82F3C"/>
<path d="M13.9629 35.3298H42.9558C43.6911 35.3298 44.2852 35.9364 44.2852 36.6815V38.0356C44.2852 38.783 43.6911 39.3873 42.9558 39.3873H13.9629C13.2298 39.3873 12.6334 38.783 12.6334 38.0356V36.6815C12.6334 35.9364 13.2298 35.3298 13.9629 35.3298Z" fill="#FFBF54"/>
<path d="M33.9118 64.555H23.0069C22.4554 64.555 22.0093 64.1006 22.0093 63.5395C22.0093 62.9806 22.4554 62.5262 23.0069 62.5262H33.9118C34.4633 62.5262 34.9094 62.9806 34.9094 63.5395C34.9094 64.1006 34.4633 64.555 33.9118 64.555Z" fill="#FFBF54"/>
<mask id="mask2_135_3422" style="mask-type:luminance" maskUnits="userSpaceOnUse" x="22" y="0" width="44" height="60">
<path d="M22.6683 0H65.8281V59.2343H22.6683V0Z" fill="white"/>
</mask>
<g mask="url(#mask2_135_3422)">
<path d="M62.241 59.0206H25.7331C24.2646 59.0206 23.0742 57.8097 23.0742 56.3148L23.3275 3.56213C23.3275 2.06951 23.3992 0.0157471 24.8677 0.0157471H63.1714C64.6399 0.0157471 65.8303 1.22665 65.8303 2.72154V56.9782C65.8303 58.4731 63.7095 59.0206 62.241 59.0206Z" fill="#FAF8F8"/>
</g>
<mask id="mask3_135_3422" style="mask-type:luminance" maskUnits="userSpaceOnUse" x="22" y="0" width="44" height="60">
<path d="M22.0945 0H65.8282V59.8159H22.0945V0Z" fill="white"/>
</mask>
<g mask="url(#mask3_135_3422)">
<path d="M65.8304 56.9782C65.8304 58.4731 64.6399 59.684 63.1714 59.684H24.8678C23.3993 59.684 22.2088 58.4731 22.2088 56.9782V2.72154C22.2088 1.22665 23.3993 0.0157471 24.8678 0.0157471V55.6242C24.8678 56.3716 25.4641 56.9782 26.1995 56.9782H65.8304Z" fill="#F0E9E6"/>
</g>
<path d="M31.199 4.66185L31.5173 4.4801H57.1854C57.9208 4.4801 58.5149 5.08669 58.5149 5.83186V6.50888L57.6002 7.08593C57.6002 7.83337 57.4186 8.05375 56.6832 8.05375L31.5622 8.13326C30.8268 8.13326 30.2327 7.52667 30.2327 6.7815L29.8695 6.01588C29.8695 5.26844 30.4659 4.66185 31.199 4.66185Z" fill="#AAD8DE"/>
<path d="M58.5149 6.50888V7.18589C58.5149 7.93334 57.9208 8.53992 57.1854 8.53992H30.8538C30.1184 8.53992 29.5243 7.93334 29.5243 7.18589V5.83186C29.5243 5.08669 30.1184 4.4801 30.8538 4.4801H31.5174V5.69782C31.5174 6.14538 31.8761 6.50888 32.3155 6.50888H58.5149Z" fill="#94CCD4"/>
<path d="M50.3362 14.29H37.5706C37.0191 14.29 36.5707 13.8357 36.5707 13.2745C36.5707 12.7134 37.0191 12.2613 37.5706 12.2613H50.3362C50.8878 12.2613 51.3339 12.7134 51.3339 13.2745C51.3339 13.8357 50.8878 14.29 50.3362 14.29Z" fill="#F0E9E6"/>
<path d="M36.1515 18.1318H29.058C28.5065 18.1318 28.0603 17.6774 28.0603 17.1162C28.0603 16.5574 28.5065 16.103 29.058 16.103H36.1515C36.7008 16.103 37.1492 16.5574 37.1492 17.1162C37.1492 17.6774 36.7008 18.1318 36.1515 18.1318Z" fill="#F0E9E6"/>
<path d="M40.5278 21.9734H29.058C28.5065 21.9734 28.0603 21.5191 28.0603 20.9602C28.0603 20.399 28.5065 19.9447 29.058 19.9447H40.5278C41.0793 19.9447 41.5254 20.399 41.5254 20.9602C41.5254 21.5191 41.0793 21.9734 40.5278 21.9734Z" fill="#F0E9E6"/>
<path d="M58.9812 25.8175H31.7169C31.1676 25.8175 30.7214 25.3608 30.7214 24.8019C30.7214 24.2408 31.1676 23.7864 31.7169 23.7864H58.9812C59.5327 23.7864 59.9788 24.2408 59.9788 24.8019C59.9788 25.3608 59.5327 25.8175 58.9812 25.8175Z" fill="#F0E9E6"/>
<path d="M41.3595 29.6592H29.058C28.5065 29.6592 28.0603 29.2048 28.0603 28.6437C28.0603 28.0825 28.5065 27.6282 29.058 27.6282H41.3595C41.9111 27.6282 42.3572 28.0825 42.3572 28.6437C42.3572 29.2048 41.9111 29.6592 41.3595 29.6592Z" fill="#F0E9E6"/>
<path d="M58.9812 29.6592H46.1483C45.5968 29.6592 45.1506 29.2048 45.1506 28.6437C45.1506 28.0825 45.5968 27.6282 46.1483 27.6282H58.9812C59.5327 27.6282 59.9789 28.0825 59.9789 28.6437C59.9789 29.2048 59.5327 29.6592 58.9812 29.6592Z" fill="#F0E9E6"/>
<path d="M44.0857 33.5009H29.058C28.5065 33.5009 28.0603 33.0466 28.0603 32.4854C28.0603 31.9243 28.5065 31.4722 29.058 31.4722H44.0857C44.6373 31.4722 45.0834 31.9243 45.0834 32.4854C45.0834 33.0466 44.6373 33.5009 44.0857 33.5009Z" fill="#F0E9E6"/>
<path d="M58.9812 37.3426H31.7169C31.1676 37.3426 30.7214 36.8882 30.7214 36.3271C30.7214 35.7682 31.1676 35.3138 31.7169 35.3138H58.9812C59.5327 35.3138 59.9788 35.7682 59.9788 36.3271C59.9788 36.8882 59.5327 37.3426 58.9812 37.3426Z" fill="#F0E9E6"/>
<path d="M58.9812 41.1844H29.058C28.5065 41.1844 28.0603 40.73 28.0603 40.1711C28.0603 39.61 28.5065 39.1556 29.058 39.1556H58.9812C59.5328 39.1556 59.9789 39.61 59.9789 40.1711C59.9789 40.73 59.5328 41.1844 58.9812 41.1844Z" fill="#F0E9E6"/>
<path d="M46.8792 45.0284H29.058C28.5065 45.0284 28.0603 44.574 28.0603 44.0128C28.0603 43.4517 28.5065 42.9973 29.058 42.9973H46.8792C47.4307 42.9973 47.8769 43.4517 47.8769 44.0128C47.8769 44.574 47.4307 45.0284 46.8792 45.0284Z" fill="#F0E9E6"/>
<path d="M58.9812 45.0284H51.5334C50.9819 45.0284 50.5358 44.574 50.5358 44.0128C50.5358 43.4517 50.9819 42.9973 51.5334 42.9973H58.9812C59.5327 42.9973 59.9788 43.4517 59.9788 44.0128C59.9788 44.574 59.5327 45.0284 58.9812 45.0284Z" fill="#F0E9E6"/>
<path d="M58.9812 48.87H29.058C28.5065 48.87 28.0603 48.4157 28.0603 47.8545C28.0603 47.2934 28.5065 46.839 29.058 46.839H58.9812C59.5328 46.839 59.9789 47.2934 59.9789 47.8545C59.9789 48.4157 59.5328 48.87 58.9812 48.87Z" fill="#F0E9E6"/>
<path d="M58.1091 53.9136C58.1091 52.8504 58.4275 51.8394 59.3915 51.5781C59.5776 51.5259 59.7749 51.4986 59.9789 51.4986C61.2277 51.4986 62.241 52.5278 62.241 53.7978C62.241 53.9568 62.2231 54.1135 62.194 54.2612C61.9832 55.3108 61.1716 55.5903 60.0798 55.5903C58.831 55.5903 58.1091 55.1836 58.1091 53.9136Z" fill="#DC4955"/>
<path d="M62.1626 54.3975C61.9025 55.3767 61.0237 56.0991 59.9789 56.0991C58.7302 56.0991 57.7168 55.07 57.7168 53.7977C57.7168 52.7345 58.4275 51.8417 59.3915 51.5781C59.34 51.7667 59.3131 51.9666 59.3131 52.1756C59.3131 53.4456 60.3264 54.4748 61.5752 54.4748C61.7792 54.4748 61.9743 54.4475 62.1626 54.3975Z" fill="#D82F3C"/>
<path d="M53.3293 54.7451H43.4872C42.9356 54.7451 42.4895 54.2908 42.4895 53.7319C42.4895 53.1707 42.9356 52.7164 43.4872 52.7164H53.3293C53.8808 52.7164 54.327 53.1707 54.327 53.7319C54.327 54.2908 53.8808 54.7451 53.3293 54.7451Z" fill="#AAD8DE"/>
</svg>
