<svg width="73" height="74" viewBox="0 0 73 74" fill="none" xmlns="http://www.w3.org/2000/svg">
<mask id="mask0_136_3424" style="mask-type:luminance" maskUnits="userSpaceOnUse" x="0" y="0" width="73" height="74">
<path d="M0 0H72.7108V73.2449H0V0Z" fill="white"/>
</mask>
<g mask="url(#mask0_136_3424)">
<path d="M72.6167 36.6225C72.6167 56.8511 56.376 73.2449 36.351 73.2449C16.3192 73.2449 0.0784912 56.8511 0.0784912 36.6225C0.0784912 16.3938 16.3192 0 36.351 0C56.376 0 72.6167 16.3938 72.6167 36.6225Z" fill="#FC545D"/>
</g>
<path d="M63.7992 36.6225C63.7992 36.7883 63.7992 36.9587 63.7947 37.1268C63.5301 52.212 51.3451 64.346 36.3488 64.346C21.1573 64.346 8.89612 51.9053 8.89612 36.6225C8.89612 21.3147 21.1865 8.89893 36.3488 8.89893C51.5111 8.89893 63.7992 21.3147 63.7992 36.6225Z" fill="#F14448"/>
<path d="M63.2879 17.0776V56.1673C63.2879 59.2979 60.7747 61.8356 57.6764 61.8356H15.0211C11.9204 61.8356 9.40723 59.2979 9.40723 56.1673V17.0776C9.40723 13.947 11.9204 11.4093 15.0211 11.4093H57.6764C60.7747 11.4093 63.2879 13.947 63.2879 17.0776Z" fill="#24272B"/>
<path d="M59.5349 26.0106V55.5766C59.5349 57.0738 58.322 58.2983 56.8378 58.2983H15.864C14.3754 58.2983 13.1692 57.0669 13.1692 55.5766V26.0106C13.1692 24.2067 14.6175 22.7436 16.4021 22.7436H56.2998C58.0866 22.7436 59.5349 24.2067 59.5349 26.0106Z" fill="white"/>
<path d="M18.8279 17.1071C18.8279 18.1681 17.9692 19.0359 16.9178 19.0359C15.8663 19.0359 15.0054 18.1681 15.0054 17.1071C15.0054 16.0439 15.8663 15.1783 16.9178 15.1783C17.9692 15.1783 18.8279 16.0439 18.8279 17.1071Z" fill="#43A1FF"/>
<path d="M18.6127 17.9841C18.2966 18.6066 17.6576 19.036 16.9155 19.036C15.8618 19.036 15.0054 18.1704 15.0054 17.1072C15.0054 16.3574 15.4313 15.7009 16.0591 15.3874C15.2094 16.9958 16.9581 18.8383 18.6127 17.9841Z" fill="#2C8CFF"/>
<path d="M25.4619 17.1071C25.4619 18.1681 24.6032 19.0359 23.5517 19.0359C22.5003 19.0359 21.6416 18.1681 21.6416 17.1071C21.6416 16.0439 22.5003 15.1783 23.5517 15.1783C24.6032 15.1783 25.4619 16.0439 25.4619 17.1071Z" fill="#4FE88D"/>
<path d="M25.2488 17.9841C24.9305 18.6066 24.2915 19.036 23.5494 19.036C22.4979 19.036 21.6393 18.1704 21.6393 17.1072C21.6393 16.3574 22.0653 15.7054 22.6863 15.3874C21.8388 16.9958 23.5898 18.8383 25.2488 17.9841Z" fill="#35D175"/>
<path d="M32.0958 17.1071C32.0958 18.1681 31.2371 19.0359 30.1857 19.0359C29.1342 19.0359 28.2755 18.1681 28.2755 17.1071C28.2755 16.0439 29.1342 15.1783 30.1857 15.1783C31.2371 15.1783 32.0958 16.0439 32.0958 17.1071Z" fill="#FC545D"/>
<path d="M31.8873 17.9841C31.5667 18.6066 30.9277 19.036 30.1857 19.036C29.1319 19.036 28.2755 18.1704 28.2755 17.1072C28.2755 16.3574 28.7015 15.7122 29.3158 15.3874C28.4773 17.0435 30.2529 18.827 31.8873 17.9841Z" fill="#F14448"/>
<path d="M55.8447 18.6088H36.7075C35.9676 18.6088 35.369 18.0045 35.369 17.2593C35.369 16.5119 35.9676 15.9099 36.7075 15.9099H55.8447C56.5823 15.9099 57.1809 16.5119 57.1809 17.2593C57.1809 18.0045 56.5823 18.6088 55.8447 18.6088Z" fill="#13181E"/>
<path d="M57.08 16.7391C56.5913 16.5323 57.5867 16.6732 37.4249 16.63C36.4877 16.63 35.8196 17.5956 36.1963 18.5066C34.8422 17.9364 35.2479 15.9144 36.703 15.9144H55.8492C56.3985 15.9144 56.8805 16.2529 57.08 16.7391Z" fill="black"/>
<path d="M36.3465 12.6656H48.4104C48.8251 12.6656 49.1614 13.0041 49.1614 13.4221C49.1614 13.8424 48.8251 14.181 48.4104 14.181H36.3465C35.9317 14.181 35.5977 13.8424 35.5977 13.4221C35.5977 13.0041 35.9317 12.6656 36.3465 12.6656Z" fill="white" fill-opacity="0.3"/>
<path d="M18.8279 17.1071C18.8279 18.1681 17.9692 19.0359 16.9178 19.0359C15.8663 19.0359 15.0054 18.1681 15.0054 17.1071C15.0054 16.0439 15.8663 15.1783 16.9178 15.1783C17.9692 15.1783 18.8279 16.0439 18.8279 17.1071Z" fill="#43A1FF"/>
<path d="M18.6127 17.9841C18.2966 18.6066 17.6576 19.036 16.9155 19.036C15.8618 19.036 15.0054 18.1704 15.0054 17.1072C15.0054 16.3574 15.4313 15.7009 16.0591 15.3874C15.2094 16.9958 16.9581 18.8383 18.6127 17.9841Z" fill="#2C8CFF"/>
<path d="M25.4619 17.1071C25.4619 18.1681 24.6032 19.0359 23.5517 19.0359C22.5003 19.0359 21.6416 18.1681 21.6416 17.1071C21.6416 16.0439 22.5003 15.1783 23.5517 15.1783C24.6032 15.1783 25.4619 16.0439 25.4619 17.1071Z" fill="#4FE88D"/>
<path d="M25.2488 17.9841C24.9305 18.6066 24.2915 19.036 23.5494 19.036C22.4979 19.036 21.6393 18.1704 21.6393 17.1072C21.6393 16.3574 22.0653 15.7054 22.6863 15.3874C21.8388 16.9958 23.5898 18.8383 25.2488 17.9841Z" fill="#35D175"/>
<path d="M32.0958 17.1071C32.0958 18.1681 31.2371 19.0359 30.1857 19.0359C29.1342 19.0359 28.2755 18.1681 28.2755 17.1071C28.2755 16.0439 29.1342 15.1783 30.1857 15.1783C31.2371 15.1783 32.0958 16.0439 32.0958 17.1071Z" fill="#FC545D"/>
<path d="M31.8873 17.9841C31.5667 18.6066 30.9277 19.036 30.1857 19.036C29.1319 19.036 28.2755 18.1704 28.2755 17.1072C28.2755 16.3574 28.7015 15.7122 29.3158 15.3874C28.4773 17.0435 30.2529 18.827 31.8873 17.9841Z" fill="#F14448"/>
<path d="M55.8447 18.6088H36.7075C35.9676 18.6088 35.369 18.0045 35.369 17.2593C35.369 16.5119 35.9676 15.9099 36.7075 15.9099H55.8447C56.5823 15.9099 57.1809 16.5119 57.1809 17.2593C57.1809 18.0045 56.5823 18.6088 55.8447 18.6088Z" fill="#13181E"/>
<path d="M57.08 16.7391C56.5913 16.5323 57.5867 16.6732 37.4249 16.63C36.4877 16.63 35.8196 17.5956 36.1963 18.5066C34.8422 17.9364 35.2479 15.9144 36.703 15.9144H55.8492C56.3985 15.9144 56.8805 16.2529 57.08 16.7391Z" fill="black"/>
<path d="M59.5349 26.0106V55.5766C59.5349 57.0738 58.322 58.2983 56.8378 58.2983H15.864C14.3754 58.2983 13.1692 57.0669 13.1692 55.5766V26.0106C13.1692 24.2067 14.6175 22.7436 16.4021 22.7436H56.2998C58.0866 22.7436 59.5349 24.2067 59.5349 26.0106Z" fill="white"/>
<path d="M6.92322 36.0136H65.7721V45.0283H6.92322V36.0136Z" fill="#43A1FF"/>
<path d="M6.92542 43.1177H65.7698V45.0283H6.92542V43.1177Z" fill="#2C8CFF"/>
<path d="M60.7389 33.8303V24.5907C60.7389 24.1726 61.0752 23.8341 61.4899 23.8341C61.9047 23.8341 62.241 24.1726 62.241 24.5907V33.8303C62.241 34.2484 61.9047 34.5891 61.4899 34.5891C61.0752 34.5891 60.7389 34.2484 60.7389 33.8303Z" fill="white" fill-opacity="0.3"/>
<path d="M65.772 36.0136L63.288 33.1669V36.0136H65.772Z" fill="#2C8CFF"/>
<path d="M6.92322 36.0136L9.4073 33.1669V36.0136H6.92322Z" fill="#2C8CFF"/>
<path d="M44.6642 51.9576H42.0142V47.557C42.0142 44.4036 39.4718 41.8387 36.3488 41.8387C33.2258 41.8387 30.6856 44.4036 30.6856 47.557V51.9576H28.0356V47.557C28.0356 42.9269 31.764 39.1602 36.3488 39.1602C40.9336 39.1602 44.6642 42.9269 44.6642 47.557V51.9576Z" fill="#24272B"/>
<path d="M36.8845 39.1874C32.5441 39.46 29.105 43.1132 29.105 47.5592V51.9598H28.0333V47.5592C28.0333 42.9291 31.7617 39.1624 36.3532 39.1624C36.5325 39.1624 36.7097 39.1692 36.8845 39.1874Z" fill="#13181E"/>
<path d="M43.0835 47.5592V51.9598H42.0141V47.5592C42.0141 44.5876 39.7587 42.134 36.8845 41.8591C37.0594 41.8409 37.2365 41.8364 37.4181 41.8364C40.5389 41.8364 43.0835 44.4058 43.0835 47.5592Z" fill="#13181E"/>
<path d="M47.3635 54.4111L47.3186 67.6993C47.3142 69.0465 46.2313 70.1324 44.8996 70.1279L27.7442 70.0711C26.4125 70.0665 25.3364 68.9715 25.3408 67.6266L25.3834 54.3384C25.3879 52.9935 26.4708 51.9053 27.8025 51.9098L44.9579 51.9666C46.2896 51.9711 47.368 53.0662 47.3635 54.4111Z" fill="#FFBC50"/>
<path d="M44.4736 55.1018C44.4736 55.388 44.2471 55.622 43.9601 55.622H28.827C28.5423 55.622 28.3136 55.3903 28.3136 55.1018C28.3136 54.8155 28.5423 54.5838 28.827 54.5838H43.9601C44.2449 54.5838 44.4736 54.8155 44.4736 55.1018Z" fill="#F49F16"/>
<path d="M44.4736 67.3767C44.4736 67.6629 44.2471 67.8947 43.9601 67.8947H28.827C28.5423 67.8947 28.3136 67.6629 28.3136 67.3767C28.3136 67.0904 28.5423 66.8587 28.827 66.8587H43.9601C44.2449 66.8587 44.4736 67.0904 44.4736 67.3767Z" fill="#F49F16"/>
<path d="M46.2335 59.248V65.4161C46.2335 65.6955 46.0093 65.9204 45.7335 65.9204C45.4555 65.9204 45.2313 65.6955 45.2313 65.4161V59.248C45.2313 58.9685 45.4555 58.7413 45.7335 58.7413C46.0093 58.7413 46.2335 58.9685 46.2335 59.248Z" fill="white" fill-opacity="0.3"/>
<path d="M46.2335 56.6239V57.4872C46.2335 57.7667 46.0093 57.9939 45.7335 57.9939C45.4555 57.9939 45.2313 57.7667 45.2313 57.4872V56.6239C45.2313 56.3445 45.4555 56.1173 45.7335 56.1173C46.0093 56.1173 46.2335 56.3445 46.2335 56.6239Z" fill="white" fill-opacity="0.3"/>
<path d="M37.8531 60.786C37.6423 61.0041 37.5504 61.3062 37.6154 61.6016L37.7679 62.3104L38.1871 64.2324C38.2544 64.5459 38.0212 64.8458 37.7006 64.8458H35.0036C34.6852 64.8458 34.4476 64.5459 34.5148 64.2324C34.5283 64.1756 35.1269 61.4221 35.0888 61.5993C35.1515 61.3131 35.0708 61.0109 34.8668 60.7996C33.6741 59.5796 34.3355 57.544 35.9362 57.2328C37.9988 56.8307 39.2521 59.3343 37.8531 60.786Z" fill="#24272B"/>
<path d="M35.8174 60.7996C36.0215 61.0109 36.1022 61.3131 36.0416 61.5993L35.4655 64.2324C35.3982 64.5459 35.6359 64.8458 35.9542 64.8458H35.0036C34.6875 64.8458 34.4476 64.5459 34.5171 64.2324L35.0888 61.5993C35.1538 61.3131 35.0709 61.0109 34.8669 60.7996C33.6786 59.591 34.3266 57.5463 35.9363 57.2328C36.2434 57.176 36.5416 57.1828 36.8174 57.2487C35.2413 57.6145 34.6561 59.6205 35.8174 60.7996Z" fill="#13181E"/>
<path d="M37.9809 37.5789V43.4653C37.9809 43.8629 37.6603 44.19 37.2657 44.19H35.4296C35.035 44.19 34.7122 43.8629 34.7122 43.4653V37.5789C34.7122 37.1745 35.035 36.8564 35.4296 36.8564H37.2657C37.6603 36.8564 37.9809 37.1745 37.9809 37.5789Z" fill="#FFBC50"/>
<path d="M22.3791 38.2968H8.48803C8.13605 38.2968 7.85132 38.0083 7.85132 37.6539C7.85132 37.2995 8.13605 37.0109 8.48803 37.0109H22.3791C22.7311 37.0109 23.0158 37.2995 23.0158 37.6539C23.0158 38.0083 22.7311 38.2968 22.3791 38.2968Z" fill="white" fill-opacity="0.3"/>
<path d="M28.7486 38.2968H24.5942C24.2422 38.2968 23.9575 38.0083 23.9575 37.6539C23.9575 37.2995 24.2422 37.0109 24.5942 37.0109H28.7486C29.1005 37.0109 29.3853 37.2995 29.3853 37.6539C29.3853 38.0083 29.1005 38.2968 28.7486 38.2968Z" fill="white" fill-opacity="0.3"/>
<path d="M30.6856 26.1515C30.6856 26.5695 30.3471 26.9125 29.9278 26.9125H16.5748C16.1556 26.9125 15.817 26.5695 15.817 26.1515C15.817 25.7289 16.1556 25.3858 16.5748 25.3858H29.9278C30.3471 25.3858 30.6856 25.7289 30.6856 26.1515Z" fill="#4FE88D"/>
<path d="M19.375 26.9171H16.5748C16.1556 26.9171 15.817 26.574 15.817 26.1492C15.817 25.7266 16.1556 25.3881 16.5748 25.3881H19.375C18.9557 25.3881 18.615 25.7266 18.615 26.1492C18.615 26.574 18.9557 26.9171 19.375 26.9171Z" fill="#35D175"/>
<path d="M25.0202 30.0635C25.0202 30.4816 24.6794 30.8246 24.2602 30.8246H16.5748C16.1556 30.8246 15.817 30.4816 15.817 30.0635C15.817 29.6387 16.1556 29.2957 16.5748 29.2957H24.2602C24.6794 29.2957 25.0202 29.6387 25.0202 30.0635Z" fill="#FC545D"/>
<path d="M19.375 30.8246H16.5748C16.1556 30.8246 15.817 30.4816 15.817 30.0567C15.817 29.6342 16.1556 29.2957 16.5748 29.2957H19.375C18.9557 29.2957 18.615 29.6342 18.615 30.0567C18.615 30.4816 18.9557 30.8246 19.375 30.8246Z" fill="#F14448"/>
</svg>
