<svg width="72" height="92" viewBox="0 0 72 92" fill="none" xmlns="http://www.w3.org/2000/svg">
<mask id="mask0_135_3420" style="mask-type:luminance" maskUnits="userSpaceOnUse" x="15" y="0" width="39" height="63">
<path d="M15.5227 0.499649H53.4026V62.0694H15.5227V0.499649Z" fill="white"/>
</mask>
<g mask="url(#mask0_135_3420)">
<path d="M53.0305 58.1164L45.5155 61.8059L41.1123 52.7185L36.4782 43.1017L31.8239 33.4849L15.8949 0.499657H25.1855L36.4782 23.8453L41.1325 33.4849L45.7666 43.0789L53.0305 58.1164Z" fill="#446C9E"/>
</g>
<path d="M57.3529 55.3334C57.3529 56.024 57.3193 56.7124 57.252 57.4008C57.1848 58.0869 57.0839 58.7684 56.9516 59.4477C56.8171 60.1247 56.6512 60.7927 56.4539 61.4538C56.2544 62.1149 56.0235 62.7646 55.7634 63.403C55.5011 64.0414 55.2096 64.6639 54.8868 65.275C54.564 65.8839 54.2142 66.4746 53.8331 67.0494C53.4542 67.6242 53.0484 68.1785 52.6135 68.7124C52.1808 69.2463 51.7212 69.7574 51.2369 70.2459C50.7549 70.7343 50.2482 71.1978 49.7191 71.634C49.1922 72.0725 48.643 72.4837 48.0758 72.8676C47.5063 73.2516 46.9212 73.606 46.3181 73.9309C45.715 74.258 45.0985 74.5533 44.4662 74.8169C43.834 75.0804 43.1906 75.3144 42.5381 75.5143C41.8835 75.7143 41.2199 75.8824 40.5495 76.0164C39.8792 76.1505 39.2044 76.2527 38.5228 76.3209C37.8435 76.389 37.162 76.4231 36.4782 76.4231C35.7944 76.4231 35.1128 76.389 34.4313 76.3209C33.752 76.2527 33.0749 76.1505 32.4045 76.0164C31.7342 75.8824 31.0728 75.7143 30.4182 75.5143C29.7635 75.3144 29.1201 75.0804 28.4901 74.8169C27.8579 74.5533 27.2413 74.258 26.6383 73.9309C26.0352 73.606 25.45 73.2516 24.8806 72.8676C24.3111 72.4837 23.7641 72.0725 23.235 71.634C22.7059 71.1978 22.2014 70.7343 21.7172 70.2459C21.2352 69.7574 20.7756 69.2463 20.3429 68.7124C19.9079 68.1785 19.5021 67.6242 19.121 67.0494C18.7421 66.4746 18.3901 65.8839 18.0673 65.275C17.7467 64.6639 17.4552 64.0414 17.1929 63.403C16.9306 62.7646 16.7019 62.1149 16.5024 61.4538C16.3029 60.7927 16.137 60.1247 16.0047 59.4477C15.8702 58.7684 15.7715 58.0869 15.7043 57.4008C15.637 56.7124 15.6034 56.024 15.6034 55.3334C15.6034 54.6427 15.637 53.9521 15.7043 53.266C15.7715 52.5776 15.8702 51.896 16.0047 51.219C16.137 50.5397 16.3029 49.8718 16.5024 49.2107C16.7019 48.5496 16.9306 47.8998 17.1929 47.2614C17.4552 46.623 17.7467 46.0006 18.0673 45.3917C18.3901 44.7828 18.7421 44.1899 19.121 43.6151C19.5021 43.0426 19.9079 42.4882 20.3429 41.9544C20.7756 41.4205 21.2352 40.9093 21.7172 40.4209C22.2014 39.9324 22.7059 39.4689 23.235 39.0305C23.7641 38.592 24.3111 38.1808 24.8806 37.7968C25.45 37.4129 26.0352 37.0585 26.6383 36.7336C27.2413 36.4087 27.8579 36.1134 28.4901 35.8476C29.1201 35.5841 29.7635 35.3523 30.4182 35.1501C31.0728 34.9502 31.7342 34.7821 32.4045 34.648C33.0749 34.514 33.752 34.4118 34.4313 34.3436C35.1128 34.2777 35.7944 34.2437 36.4782 34.2437C37.162 34.2437 37.8435 34.2777 38.5228 34.3436C39.2044 34.4118 39.8792 34.514 40.5495 34.648C41.2199 34.7821 41.8835 34.9502 42.5381 35.1501C43.1906 35.3523 43.834 35.5841 44.4662 35.8476C45.0985 36.1134 45.715 36.4087 46.3181 36.7336C46.9212 37.0585 47.5063 37.4129 48.0758 37.7968C48.643 38.1808 49.1922 38.592 49.7191 39.0305C50.2482 39.4689 50.7549 39.9324 51.2369 40.4209C51.7212 40.9093 52.1808 41.4205 52.6135 41.9544C53.0484 42.4882 53.4542 43.0426 53.8331 43.6151C54.2142 44.1899 54.564 44.7828 54.8868 45.3917C55.2096 46.0006 55.5011 46.623 55.7634 47.2614C56.0235 47.8998 56.2544 48.5496 56.4539 49.2107C56.6512 49.8718 56.8171 50.5397 56.9516 51.219C57.0839 51.896 57.1848 52.5776 57.252 53.266C57.3193 53.9521 57.3529 54.6427 57.3529 55.3334Z" fill="#F7D70E"/>
<path d="M36.4782 41.6885L39.5048 51.1145H49.3358L41.3836 56.935L44.4102 66.3837L36.4782 60.5405L28.5462 66.3837L31.5728 56.935L23.6184 51.1145H33.4516L36.4782 41.6885Z" fill="#F8F6F7"/>
<mask id="mask1_135_3420" style="mask-type:luminance" maskUnits="userSpaceOnUse" x="33" y="82" width="7" height="10">
<path d="M33.8887 82.4254H39.0541V91.1857H33.8887V82.4254Z" fill="white"/>
</mask>
<g mask="url(#mask1_135_3420)">
<path d="M36.4781 91.1856C36.2001 91.1856 35.9356 91.1311 35.6777 91.0243C35.4222 90.9176 35.198 90.7653 35.0007 90.5677C34.8056 90.37 34.6554 90.1406 34.55 89.8839C34.4424 89.6249 34.3909 89.3545 34.3909 89.0751V84.8585C34.3909 84.5791 34.4424 84.3087 34.55 84.0497C34.6554 83.793 34.8056 83.5635 35.0007 83.3659C35.198 83.1682 35.4222 83.016 35.6777 82.9092C35.9356 82.8025 36.2001 82.7479 36.4781 82.7479C36.7539 82.7479 37.0207 82.8025 37.2763 82.9092C37.5318 83.016 37.7583 83.1682 37.9533 83.3659C38.1484 83.5635 38.3008 83.793 38.4062 84.0497C38.5116 84.3087 38.5654 84.5791 38.5654 84.8585V89.0751C38.5654 89.3545 38.5116 89.6249 38.4062 89.8839C38.3008 90.1406 38.1484 90.37 37.9533 90.5677C37.7583 90.7653 37.5318 90.9176 37.2763 91.0243C37.0207 91.1311 36.7539 91.1856 36.4781 91.1856Z" fill="#FBE639"/>
</g>
<path d="M60.0859 81.294C59.5164 81.2917 59.0299 81.0872 58.6241 80.6828L55.6603 77.709C55.4652 77.509 55.3128 77.2818 55.2074 77.0206C55.102 76.7616 55.0482 76.4912 55.0482 76.2118C55.0482 75.9301 55.102 75.6597 55.2074 75.4007C55.315 75.1418 55.4652 74.9123 55.6625 74.7146C55.8576 74.517 56.0862 74.3625 56.3418 74.2557C56.5974 74.1489 56.8664 74.0944 57.1444 74.0944C57.4202 74.0944 57.6892 74.1489 57.9448 74.2557C58.2026 74.3625 58.4291 74.5147 58.6241 74.7146L61.5274 77.709C61.7158 77.9043 61.8593 78.1293 61.9601 78.3837C62.0633 78.6382 62.1126 78.9017 62.1126 79.1743C62.1126 79.4469 62.0633 79.7105 61.9601 79.9649C61.8593 80.2194 61.7158 80.4443 61.5274 80.6397C61.1351 81.0554 60.6553 81.2735 60.0859 81.294Z" fill="#FBE639"/>
<mask id="mask2_135_3420" style="mask-type:luminance" maskUnits="userSpaceOnUse" x="63" y="52" width="9" height="6">
<path d="M63.1597 52.7639H71.9728V57.9983H63.1597V52.7639Z" fill="white"/>
</mask>
<g mask="url(#mask2_135_3420)">
<path d="M69.8765 57.4416H65.702C65.424 57.4416 65.1594 57.3871 64.9016 57.2803C64.646 57.1736 64.4218 57.0213 64.2246 56.8237C64.0295 56.626 63.8793 56.3989 63.7739 56.1399C63.6663 55.8809 63.6147 55.6128 63.6147 55.3334C63.6147 55.0539 63.6663 54.7836 63.7739 54.5246C63.8793 54.2679 64.0295 54.0384 64.2246 53.8407C64.4218 53.6431 64.646 53.4909 64.9016 53.3841C65.1594 53.2773 65.424 53.2228 65.702 53.2228H69.8765C70.1523 53.2228 70.4191 53.2773 70.6746 53.3841C70.9302 53.4909 71.1567 53.6431 71.3517 53.8407C71.549 54.0384 71.6992 54.2679 71.8046 54.5246C71.91 54.7836 71.9638 55.0539 71.9638 55.3334C71.9638 55.6128 71.91 55.8809 71.8046 56.1399C71.6992 56.3989 71.549 56.626 71.3517 56.8237C71.1567 57.0213 70.9302 57.1736 70.6746 57.2803C70.4191 57.3871 70.1523 57.4416 69.8765 57.4416Z" fill="#FBE639"/>
</g>
<mask id="mask3_135_3420" style="mask-type:luminance" maskUnits="userSpaceOnUse" x="0" y="52" width="10" height="6">
<path d="M0.983643 52.7639H9.78329V57.9983H0.983643V52.7639Z" fill="white"/>
</mask>
<g mask="url(#mask3_135_3420)">
<path d="M7.25444 57.4416H3.07993C2.80193 57.4416 2.53514 57.3871 2.27955 57.2803C2.02397 57.1736 1.79978 57.0213 1.60249 56.8237C1.40744 56.626 1.25723 56.3989 1.14961 56.1399C1.04424 55.8809 0.992676 55.6128 0.992676 55.3334C0.992676 55.0539 1.04424 54.7836 1.14961 54.5246C1.25723 54.2679 1.40744 54.0384 1.60249 53.8407C1.79978 53.6431 2.02397 53.4909 2.27955 53.3841C2.53514 53.2773 2.80193 53.2228 3.07993 53.2228H7.25444C7.53019 53.2228 7.79699 53.2773 8.05257 53.3841C8.30815 53.4909 8.53459 53.6431 8.72964 53.8407C8.92469 54.0384 9.07714 54.2679 9.18251 54.5246C9.28788 54.7836 9.34169 55.0539 9.34169 55.3334C9.34169 55.6128 9.28788 55.8809 9.18251 56.1399C9.07714 56.3989 8.92469 56.626 8.72964 56.8237C8.53459 57.0213 8.30815 57.1736 8.05257 57.2803C7.79699 57.3871 7.53019 57.4416 7.25444 57.4416Z" fill="#FBE639"/>
</g>
<path d="M12.8682 81.2939C12.301 81.2735 11.8212 81.0554 11.4289 80.6397C11.2338 80.442 11.0836 80.2148 10.9805 79.9581C10.8751 79.6991 10.8213 79.431 10.8213 79.1539C10.8213 78.8744 10.8751 78.6063 10.9805 78.3496C11.0836 78.0906 11.2338 77.8634 11.4289 77.6658L14.3725 74.6715C14.5676 74.4738 14.794 74.3193 15.0518 74.2125C15.3097 74.1035 15.5765 74.0512 15.8545 74.0512C16.1325 74.049 16.3993 74.1035 16.6571 74.2103C16.9149 74.3193 17.1413 74.4715 17.3364 74.6715C17.5337 74.8691 17.6861 75.0986 17.7915 75.3576C17.8991 75.6166 17.9507 75.8869 17.9507 76.1686C17.9507 76.4503 17.8969 76.7207 17.7915 76.9797C17.6839 77.2387 17.5337 77.4681 17.3364 77.6658L14.3299 80.6397C13.9331 81.0622 13.4444 81.2803 12.8682 81.2939Z" fill="#FBE639"/>
</svg>
