<svg width="101" height="102" viewBox="0 0 101 102" fill="none" xmlns="http://www.w3.org/2000/svg">
<mask id="mask0_135_3423" style="mask-type:luminance" maskUnits="userSpaceOnUse" x="50" y="12" width="51" height="72">
<path d="M50.9087 12.8579H100.159V83.1357H50.9087V12.8579Z" fill="white"/>
</mask>
<g mask="url(#mask0_135_3423)">
<path d="M98.6053 83.0018H52.1288C51.6131 83.0018 51.1952 82.5523 51.1952 81.9964V14.0761C51.1952 13.5065 51.6232 13.0466 52.1491 13.0466H99.1614C99.6872 13.0466 100.115 13.5065 100.115 14.0761C100.115 14.0761 100.115 70.9537 100.115 81.3753C100.115 82.2744 99.4378 83.0018 98.6053 83.0018Z" fill="#DDE2F6"/>
</g>
<path d="M92.5519 76.9384H46.0754C45.5597 76.9384 45.1451 76.4888 45.1451 75.9329V8.01261C45.1451 7.44298 45.5698 6.98315 46.0956 6.98315H93.108C93.6338 6.98315 94.0619 7.44298 94.0619 8.01261C94.0619 8.01261 94.0619 64.8903 94.0619 75.3084C94.0619 76.2109 93.3844 76.9384 92.5519 76.9384Z" fill="#F7F9FA"/>
<path d="M83.9096 66.9835H77.1854C76.3596 66.9835 75.6888 67.6698 75.6888 68.514C75.6888 69.3616 76.3596 70.0444 77.1854 70.0444H83.9096C84.7388 70.0444 85.4095 69.3616 85.4095 68.514C85.4095 67.6698 84.7388 66.9835 83.9096 66.9835Z" fill="#DDE2F6"/>
<path d="M73.8486 17.3876H83.9097C84.7389 17.3876 85.4096 16.7047 85.4096 15.8571C85.4096 15.013 84.7389 14.3301 83.9097 14.3301H73.8486C73.0195 14.3301 72.3488 15.013 72.3488 15.8571C72.3488 16.7047 73.0195 17.3876 73.8486 17.3876Z" fill="#DDE2F6"/>
<path d="M83.9097 26.2924H55.2938C54.468 26.2924 53.7972 26.9787 53.7972 27.8228C53.7972 28.6704 54.468 29.3533 55.2938 29.3533H83.9097C84.7389 29.3533 85.4096 28.6704 85.4096 27.8228C85.4096 26.9787 84.7389 26.2924 83.9097 26.2924Z" fill="#DDE2F6"/>
<path d="M83.9097 33.7937H55.2938C54.468 33.7937 53.7972 34.48 53.7972 35.3242C53.7972 36.1683 54.468 36.8546 55.2938 36.8546H83.9097C84.7389 36.8546 85.4096 36.1683 85.4096 35.3242C85.4096 34.48 84.7389 33.7937 83.9097 33.7937Z" fill="#DDE2F6"/>
<path d="M79.255 42.8255C79.255 41.9814 78.5842 41.295 77.7551 41.295H55.2938C54.468 41.295 53.7972 41.9814 53.7972 42.8255C53.7972 43.6697 54.468 44.356 55.2938 44.356H77.7551C78.5842 44.356 79.255 43.6697 79.255 42.8255Z" fill="#DDE2F6"/>
<path d="M7.85999 53.5044H14.6955V97.9599H7.85999V53.5044Z" fill="#DDE2F6"/>
<path d="M26.452 53.5044H33.2875V97.9599H26.452V53.5044Z" fill="#DDE2F6"/>
<path d="M45.0472 53.5044H51.8793V97.9599H45.0472V53.5044Z" fill="#DDE2F6"/>
<path d="M14.8034 67.3369H7.75218C6.00286 67.3369 4.58386 65.8853 4.58386 64.0975V64.0941C4.58386 62.3063 6.00286 60.8582 7.75218 60.8582H14.8034C16.5527 60.8582 17.9717 62.3063 17.9717 64.0941V64.0975C17.9717 65.8853 16.5527 67.3369 14.8034 67.3369Z" fill="#7F95E0"/>
<path d="M14.8034 94.5044H7.75218C6.00286 94.5044 4.58386 93.0563 4.58386 91.265C4.58386 89.4772 6.00286 88.0256 7.75218 88.0256H14.8034C16.5527 88.0256 17.9717 89.4772 17.9717 91.265C17.9717 93.0563 16.5527 94.5044 14.8034 94.5044Z" fill="#7F95E0"/>
<path d="M51.9872 67.3369H44.9394C43.1867 67.3369 41.7677 65.8853 41.7677 64.0975V64.0941C41.7677 62.3063 43.1867 60.8582 44.9394 60.8582H51.9872C53.7365 60.8582 55.1555 62.3063 55.1555 64.0941V64.0975C55.1555 65.8853 53.7365 67.3369 51.9872 67.3369Z" fill="#7F95E0"/>
<path d="M51.9872 94.5044H44.9394C43.1867 94.5044 41.7677 93.0563 41.7677 91.265C41.7677 89.4772 43.1867 88.0256 44.9394 88.0256H51.9872C53.7365 88.0256 55.1555 89.4772 55.1555 91.265C55.1555 93.0563 53.7365 94.5044 51.9872 94.5044Z" fill="#7F95E0"/>
<path d="M51.9873 60.8582H45.9945C47.7472 60.8582 49.1662 62.3063 49.1662 64.0941V64.0975C49.1662 65.8853 47.7472 67.3369 45.9945 67.3369H51.9873C53.7367 67.3369 55.1557 65.8853 55.1557 64.0975V64.0941C55.1557 62.3063 53.7367 60.8582 51.9873 60.8582Z" fill="#617ED9"/>
<path d="M51.9873 88.0256H45.9945C47.7472 88.0256 49.1662 89.4772 49.1662 91.265C49.1662 93.0563 47.7472 94.5044 45.9945 94.5044H51.9873C53.7367 94.5044 55.1557 93.0563 55.1557 91.265C55.1557 89.4772 53.7367 88.0256 51.9873 88.0256Z" fill="#617ED9"/>
<path d="M33.3954 67.3369H26.3442C24.5949 67.3369 23.1759 65.8853 23.1759 64.0975V64.0941C23.1759 62.3063 24.5949 60.8582 26.3442 60.8582H33.3954C35.1447 60.8582 36.5637 62.3063 36.5637 64.0941V64.0975C36.5637 65.8853 35.1447 67.3369 33.3954 67.3369Z" fill="#7F95E0"/>
<path d="M33.3954 94.5044H26.3442C24.5949 94.5044 23.1759 93.0563 23.1759 91.265C23.1759 89.4772 24.5949 88.0256 26.3442 88.0256H33.3954C35.1447 88.0256 36.5637 89.4772 36.5637 91.265C36.5637 93.0563 35.1447 94.5044 33.3954 94.5044Z" fill="#7F95E0"/>
<path d="M2.01901 56.3561L27.4565 40.9108C28.9429 40.0083 30.7967 40.0083 32.2865 40.9108L57.724 56.3561C59.7902 57.612 58.9206 60.8583 56.514 60.8583H3.22566C0.819095 60.8583 -0.0505071 57.612 2.01901 56.3561Z" fill="#B1BEEB"/>
<path d="M57.7239 56.3561L32.2864 40.9108C30.7966 40.0083 28.9428 40.0083 27.4564 40.9108L25.8756 41.8716L49.7323 56.3561C51.8019 57.612 50.9323 60.8583 48.5257 60.8583H56.5139C58.9205 60.8583 59.7901 57.612 57.7239 56.3561Z" fill="#99A8E5"/>
<mask id="mask1_135_3423" style="mask-type:luminance" maskUnits="userSpaceOnUse" x="0" y="93" width="60" height="9">
<path d="M0 93.6774H59.5373V101.412H0V93.6774Z" fill="white"/>
</mask>
<g mask="url(#mask1_135_3423)">
<path d="M55.5061 101.412H4.23674C2.36946 101.412 0.856079 99.8678 0.856079 97.9599V97.9565C0.856079 96.052 2.36946 94.5043 4.23674 94.5043H55.5061C57.37 94.5043 58.8834 96.052 58.8834 97.9565V97.9599C58.8834 99.8678 57.37 101.412 55.5061 101.412Z" fill="#B1BEEB"/>
</g>
<mask id="mask2_135_3423" style="mask-type:luminance" maskUnits="userSpaceOnUse" x="47" y="93" width="13" height="9">
<path d="M47.4572 93.6774H59.5372V101.412H47.4572V93.6774Z" fill="white"/>
</mask>
<g mask="url(#mask2_135_3423)">
<path d="M55.506 94.5043H47.5178C49.3817 94.5043 50.8951 96.052 50.8951 97.9565V97.9599C50.8951 99.8678 49.3817 101.412 47.5178 101.412H55.506C57.3699 101.412 58.8833 99.8678 58.8833 97.9599V97.9565C58.8833 96.052 57.3699 94.5043 55.506 94.5043Z" fill="#99A8E5"/>
</g>
<mask id="mask3_135_3423" style="mask-type:luminance" maskUnits="userSpaceOnUse" x="37" y="0" width="23" height="22">
<path d="M37.9658 0H59.5373V21.6427H37.9658V0Z" fill="white"/>
</mask>
<g mask="url(#mask3_135_3423)">
<path d="M58.1856 20.8397L49.2739 16.1454C49.011 16.0047 48.6976 16.0047 48.4346 16.1454L39.5229 20.8397C38.9129 21.1623 38.1848 20.7093 38.1848 20.0058V0.936808C38.1848 0.418647 38.596 0 39.1016 0H58.6036C59.1125 0 59.5204 0.418647 59.5204 0.936808V20.0058C59.5204 20.7093 58.7957 21.1623 58.1856 20.8397Z" fill="#FFCD55"/>
</g>
<mask id="mask4_135_3423" style="mask-type:luminance" maskUnits="userSpaceOnUse" x="50" y="0" width="10" height="22">
<path d="M50.0458 0H59.5372V21.6427H50.0458V0Z" fill="white"/>
</mask>
<g mask="url(#mask4_135_3423)">
<path d="M58.6036 0H50.6154C51.1209 0 51.5321 0.418647 51.5321 0.936808V17.3361L58.1856 20.8397C58.7957 21.1623 59.5203 20.7093 59.5203 20.0058V0.936808C59.5203 0.418647 59.1125 0 58.6036 0Z" fill="#FFBE46"/>
</g>
<path d="M77.8563 61.0023C79.609 62.2514 81.8234 62.8554 83.8997 62.2034C85.6827 61.644 84.9209 58.7753 83.1278 59.338C81.8369 59.743 80.3539 59.2625 79.2551 58.3772C79.4573 57.509 79.4236 56.6203 79.0191 55.8722C78.3753 54.6814 76.8249 54.4756 75.8137 55.3128C74.634 56.284 75.0318 57.7938 75.7699 58.8988C75.3789 59.29 74.8363 59.4581 74.1116 59.4581C73.488 59.4547 72.8712 59.2866 72.2982 59.0086C73.4982 56.2256 73.9667 50.32 69.9658 49.5582C68.1457 49.2116 66.3661 50.2239 65.8538 52.0632C65.1257 54.6814 66.4807 57.6909 68.439 59.7361C68.0379 60.1479 67.5727 60.4704 67.0368 60.6695C65.2909 61.3146 66.0459 64.1868 67.812 63.5348C68.9479 63.1127 69.9254 62.4058 70.7175 61.5136C72.9117 62.6906 76.0126 63.0029 77.8563 61.0023ZM68.6749 52.7941C68.7625 52.5299 68.9446 52.4372 69.3086 52.4544C70.8085 52.5573 70.1579 56.1879 69.949 56.9463C69.5715 56.4315 69.2546 55.8825 69.0423 55.3712C68.7322 54.6231 68.4019 53.6177 68.6749 52.7941Z" fill="#FE93D3"/>
</svg>
