<svg width="60" height="61" viewBox="0 0 60 61" fill="none" xmlns="http://www.w3.org/2000/svg">
<path d="M23.8431 6.51206C23.9038 6.53608 23.9644 6.56353 24.0217 6.59442L22.4477 10.6402C20.3141 9.12346 18.2446 9.11659 16.3065 10.5956C15.9358 10.8632 15.6122 11.1824 15.3358 11.5496C15.0594 11.9133 14.8404 12.3148 14.6819 12.7472C14.5235 13.1795 14.4325 13.6256 14.4056 14.0889C14.3786 14.5487 14.419 15.0017 14.5269 15.4512C15.0055 17.7538 16.5054 19.1024 18.9794 19.4764L17.3952 23.5359L12.2282 21.453C12.1844 21.4358 12.1439 21.4186 12.1035 21.3946C11.9855 21.3226 11.8608 21.2814 11.726 21.2677C11.635 21.2779 11.5507 21.2677 11.4597 21.2677C11.1092 21.2127 10.7788 21.2779 10.4721 21.4632C10.1924 21.6966 10.1924 22.2079 10.1823 22.6162V22.6917C10.1856 22.9216 10.2025 23.1516 10.2328 23.378C10.2834 23.6594 10.2935 23.9408 10.2665 24.2256C10.216 24.5139 10.125 24.7884 9.9834 25.0458C9.84521 25.3066 9.66657 25.533 9.45085 25.7286C9.23514 25.9277 8.99246 26.0821 8.72618 26.1953C8.45991 26.3086 8.18016 26.3738 7.89029 26.3909C7.60042 26.4149 7.31056 26.3909 7.02743 26.3189C6.74093 26.2434 6.47803 26.1267 6.23198 25.9654C5.98593 25.8041 5.77022 25.6051 5.59158 25.3718C5.40957 25.135 5.268 24.8776 5.17363 24.5997C5.07588 24.3183 5.02532 24.0266 5.02195 23.7315C5.01858 23.4329 5.0624 23.1413 5.15341 22.8599C5.24441 22.5751 5.37923 22.3143 5.55787 22.0775C5.73314 21.8407 5.94211 21.6383 6.18479 21.4701C6.25895 21.4186 6.3331 21.3706 6.41736 21.3191C6.81171 21.0755 7.30719 20.7769 7.21618 20.0632C7.12518 19.3529 6.55555 19.1435 6.1039 18.9754C6.03649 18.9514 5.96908 18.9239 5.89493 18.8999L0.734619 16.8204L0.768325 16.738C0.825624 16.5527 0.893036 16.3777 0.960446 16.2096L1.30424 15.3139C3.20186 10.4823 5.09611 5.64731 6.99372 0.808854C7.28022 0.0642113 7.53638 -0.0558924 8.23746 0.222062C12.6967 2.02018 17.1559 3.81831 21.6152 5.613L23.8431 6.51206ZM59.2372 36.4693V36.4213L57.3092 36.411C55.2633 36.411 53.2612 36.411 51.249 36.4282C50.9827 36.4796 50.7232 36.4419 50.4771 36.3218C50.2311 36.2017 50.0423 36.0198 49.9143 35.7762C49.7997 35.5291 49.7727 35.2752 49.8367 35.0109C49.8974 34.7433 50.0322 34.5271 50.2446 34.3624C50.4097 34.1736 50.5547 33.9712 50.6794 33.7516C50.8041 33.5354 50.9086 33.3055 50.9861 33.0687C51.067 32.8285 51.1209 32.5848 51.1513 32.3343C51.1816 32.0838 51.1883 31.8333 51.1681 31.5794C51.1479 31.3289 51.1007 31.0818 51.0333 30.8416C50.9625 30.598 50.8715 30.3646 50.7535 30.1416C50.6389 29.9185 50.5007 29.7092 50.3423 29.5171C50.1839 29.3215 50.0086 29.1464 49.8165 28.9886C49.4559 28.6866 49.0581 28.467 48.6166 28.3194C48.1751 28.1719 47.72 28.1136 47.2583 28.141C46.7931 28.1685 46.3516 28.2817 45.9303 28.4773C45.5056 28.6729 45.1348 28.9406 44.8113 29.2803C44.4843 29.6166 44.2315 30.0009 44.0495 30.4333C43.8675 30.8691 43.7731 31.3186 43.7596 31.7922C43.7495 32.2623 43.8237 32.7187 43.9855 33.1613C44.1439 33.604 44.3798 34.0021 44.6899 34.3521C44.882 34.534 45.0067 34.7536 45.0674 35.0144C45.1247 35.2717 45.1045 35.5257 45.0101 35.7762C44.8955 36.0129 44.7203 36.1914 44.4911 36.3115C44.2585 36.4316 44.0124 36.4728 43.7563 36.4282H43.7226C41.5654 36.411 39.4049 36.4213 37.2376 36.4213H35.9433C35.8759 36.4213 35.8119 36.4282 35.7445 36.4385V42.7387C38.5218 41.8431 40.8239 42.4711 42.5934 44.633C42.9743 45.0893 43.2777 45.5938 43.5001 46.1463C43.7259 46.6987 43.8608 47.2718 43.9079 47.8689C43.9551 48.466 43.9113 49.0528 43.7765 49.6361C43.645 50.2161 43.426 50.7651 43.1226 51.2764C41.4744 54.0559 38.9937 54.9687 35.7613 53.9976V60.3082H57.6463C58.917 60.3082 59.2608 59.9582 59.2608 58.6439V36.9292C59.2608 36.7747 59.254 36.6238 59.2372 36.4693Z" fill="#72D6FE"/>
<path d="M59.2608 11.9373V34.1256H53.032C53.9791 30.8622 53.0961 28.3606 50.4097 26.6757C49.9041 26.36 49.3615 26.1301 48.7851 25.9894C48.2054 25.8453 47.6223 25.7973 47.0291 25.8419C46.4359 25.8865 45.8662 26.0238 45.3135 26.2502C44.7641 26.4767 44.2619 26.7821 43.8068 27.1699C41.6699 28.9714 41.0464 31.3152 41.9362 34.129H35.704V26.1507C35.7546 25.8762 35.7209 25.6085 35.6063 25.3546C35.4917 25.1007 35.3164 24.9016 35.0771 24.761C34.8243 24.6546 34.5648 24.6374 34.2985 24.6992C34.0322 24.7644 33.8064 24.8982 33.6278 25.1075C33.2638 25.4198 32.8559 25.6532 32.4043 25.8041C31.9526 25.9586 31.4908 26.0169 31.0156 25.986C30.5404 25.9517 30.0887 25.8316 29.6606 25.6188C29.2326 25.4095 28.8585 25.1247 28.5416 24.7644C28.2214 24.4075 27.9787 24.006 27.8102 23.5531C27.6417 23.1035 27.5642 22.6368 27.5709 22.1564C27.581 21.6726 27.6754 21.2093 27.8574 20.7666C28.0428 20.3206 28.2989 19.9259 28.6293 19.5828C28.9596 19.2362 29.3438 18.9617 29.7786 18.7661C30.2134 18.5705 30.6651 18.4675 31.1403 18.4504C31.6156 18.4366 32.0773 18.5121 32.5222 18.6803C32.9671 18.8484 33.3682 19.0955 33.7154 19.4249C33.8974 19.6308 34.1199 19.7543 34.3861 19.8024C34.6524 19.8504 34.9052 19.8058 35.1445 19.6754C35.3602 19.5347 35.522 19.346 35.6299 19.1058C35.7377 18.869 35.7714 18.6185 35.7377 18.3611C35.7108 16.3434 35.7108 14.36 35.7209 12.2667V10.3245H35.7681C35.9197 10.3073 36.0714 10.3005 36.2231 10.3005C43.3788 10.3005 50.5311 10.3005 57.68 10.3005C58.9237 10.3039 59.2608 10.6539 59.2608 11.9373ZM39.5431 44.9761C39.2195 44.8011 38.8791 44.681 38.5184 44.6192C38.1578 44.554 37.7971 44.5472 37.4331 44.5986C37.0691 44.6501 36.7253 44.7599 36.395 44.9212C36.0647 45.0825 35.7681 45.2952 35.5052 45.5526C35.3063 45.7208 34.6962 46.2561 34.0862 45.8374C33.7154 45.5526 33.5098 45.1717 33.4694 44.6982C33.4458 42.7731 33.4626 40.8137 33.4694 38.916L33.4862 36.7953C33.4828 36.6855 33.4727 36.5792 33.4525 36.4693H27.2777C27.9889 39.9352 27.2878 42.1691 25.0363 43.6927C24.5408 44.0324 24.0082 44.2898 23.4352 44.4648C22.8623 44.6398 22.2791 44.7256 21.6826 44.7187C21.0826 44.7153 20.4995 44.6192 19.9299 44.4339C19.3636 44.2486 18.8344 43.9844 18.3423 43.6344C16.1515 42.0868 15.4673 39.8117 16.1919 36.4796H10.0002V58.637C10.0002 59.9994 10.307 60.3082 11.6586 60.3082H33.4694C33.4828 60.2533 33.493 60.1984 33.493 60.1435V58.6919C33.5031 56.5438 33.4997 54.3922 33.4862 52.2407C33.439 51.9696 33.4694 51.7053 33.584 51.4548C33.6952 51.2043 33.8705 51.0087 34.103 50.8681C34.3558 50.7445 34.6153 50.7171 34.8884 50.7788C35.158 50.8406 35.3805 50.9813 35.5557 51.2009C35.7546 51.3759 35.9703 51.5269 36.1995 51.6539C36.4321 51.7808 36.6748 51.8804 36.9275 51.9558C37.1803 52.0313 37.4365 52.076 37.6994 52.0965C37.9589 52.1137 38.2218 52.1068 38.4814 52.0691C38.7409 52.0313 38.9971 51.9627 39.2431 51.8701C39.4892 51.7774 39.7217 51.6607 39.9442 51.5166C40.1666 51.3725 40.3689 51.2078 40.5576 51.019C40.743 50.8303 40.9082 50.6244 41.0497 50.4014C41.1947 50.1783 41.3126 49.9415 41.407 49.691C41.5014 49.444 41.5654 49.1866 41.6059 48.9224C41.6463 48.6581 41.6564 48.3939 41.6429 48.1263C41.6261 47.8586 41.5823 47.5978 41.5115 47.3404C41.4373 47.0831 41.343 46.8394 41.2182 46.6027C41.0935 46.3659 40.9486 46.1463 40.7801 45.9438C40.6082 45.7379 40.4194 45.556 40.2138 45.3913C40.0049 45.23 39.7824 45.0894 39.5431 44.9761Z" fill="#D7F7FF"/>
</svg>
