<svg width="104" height="117" viewBox="0 0 104 117" fill="none" xmlns="http://www.w3.org/2000/svg">
<mask id="mask0_135_1978" style="mask-type:luminance" maskUnits="userSpaceOnUse" x="0" y="19" width="84" height="98">
<path d="M0 19.4774H83.1143V116.559H0V19.4774Z" fill="white"/>
</mask>
<g mask="url(#mask0_135_1978)">
<path d="M0.272949 20.0333H82.703V116.559H0.272949V20.0333Z" fill="#E6E6E8"/>
</g>
<mask id="mask1_135_1978" style="mask-type:luminance" maskUnits="userSpaceOnUse" x="40" y="19" width="44" height="98">
<path d="M40.8341 19.4774H83.1142V116.559H40.8341V19.4774Z" fill="white"/>
</mask>
<g mask="url(#mask1_135_1978)">
<path d="M41.4879 20.0333H82.703V116.559H41.4879V20.0333Z" fill="#D4D8DB"/>
</g>
<path d="M13.6541 39.7029H30.0686V56.4591H13.6541V39.7029Z" fill="#61C2A6"/>
<path d="M13.6541 64.2898H30.0686V81.046H13.6541V64.2898Z" fill="#E8664A"/>
<path d="M13.6541 89.0586H30.0686V105.815H13.6541V89.0586Z" fill="#FAD22C"/>
<path d="M35.0637 43.8928H65.3986V52.0873H35.0637V43.8928Z" fill="#1E87B7"/>
<path d="M35.0637 68.6616H65.3986V76.8561H35.0637V68.6616Z" fill="#1E87B7"/>
<path d="M35.0637 93.4304H65.3986V101.625H35.0637V93.4304Z" fill="#1E87B7"/>
<path d="M41.488 43.8928H65.3987V52.0873H41.488V43.8928Z" fill="#1576AC"/>
<path d="M41.488 68.6616H65.3987V76.8561H41.488V68.6616Z" fill="#1576AC"/>
<path d="M41.488 93.4304H65.3987V101.625H41.488V93.4304Z" fill="#1576AC"/>
<path d="M20.7895 76.856L16.1516 72.3024L18.6492 69.7528L20.7895 71.9387L25.0734 67.385L27.3924 69.9346L20.7895 76.856Z" fill="#465C6A"/>
<path d="M56.8341 12.7482H26.1453C25.0734 12.7482 24.0016 13.6575 24.0016 14.9341V33.5089H58.9744V14.9341C58.9744 13.6575 58.0812 12.7482 56.8341 12.7482Z" fill="#465C6A"/>
<mask id="mask2_135_1978" style="mask-type:luminance" maskUnits="userSpaceOnUse" x="27" y="0" width="28" height="33">
<path d="M27.8912 0H54.6399V32.6545H27.8912V0Z" fill="white"/>
</mask>
<g mask="url(#mask2_135_1978)">
<path d="M53.2647 29.6862H47.3763V8.37637C49.5166 8.37637 51.303 6.37235 51.303 4.18647C51.303 1.81871 49.5166 0 47.1977 0H35.421C33.1021 0 31.3191 1.81871 31.3191 4.18647C31.3191 6.37235 33.1021 8.37637 35.2424 8.37637V29.6862H29.354C28.6429 29.6862 28.1069 30.2318 28.1069 30.9593C28.1069 31.6902 28.6429 32.2358 29.354 32.2358H36.3142C37.0288 32.2358 37.5613 31.6902 37.5613 30.9593V7.10327C37.5613 6.37236 37.0288 5.82674 36.3142 5.82674H35.2424C34.3526 5.82674 33.638 5.09926 33.638 4.18647C33.638 3.27711 34.3526 2.54963 35.2424 2.54963H47.0191C47.9123 2.54963 48.6268 3.27711 48.6268 4.18647C48.6268 5.09926 48.2695 6.00861 47.3763 6.00861H46.3045C45.5933 6.00861 45.0574 6.55423 45.0574 7.28514V30.9593C45.0574 31.6902 45.5933 32.2358 46.3045 32.2358H53.2647C53.9793 32.2358 54.5118 31.6902 54.5118 30.9593C54.5118 30.2318 53.9793 29.6862 53.2647 29.6862Z" fill="#FAD22C"/>
</g>
<path d="M24.0016 27.8641H34.7064V33.5089H24.0016V27.8641Z" fill="#3B4C56"/>
<path d="M48.2695 27.8641H58.9744V33.5089H48.2695V27.8641Z" fill="#3B4C56"/>
<mask id="mask3_135_1978" style="mask-type:luminance" maskUnits="userSpaceOnUse" x="48" y="58" width="56" height="56">
<path d="M48.5999 58.1302H103.493V113.474H48.5999V58.1302Z" fill="white"/>
</mask>
<g mask="url(#mask3_135_1978)">
<path d="M103.223 85.7815C103.223 86.6806 103.179 87.5796 103.095 88.4753C103.007 89.3709 102.876 90.2631 102.704 91.145C102.532 92.0303 102.32 92.9019 102.063 93.7632C101.807 94.6246 101.511 95.4721 101.174 96.306C100.833 97.1364 100.459 97.9497 100.041 98.7424C99.6266 99.5385 99.1715 100.311 98.6828 101.059C98.1907 101.807 97.6683 102.531 97.1088 103.227C96.5493 103.924 95.956 104.59 95.3325 105.225C94.7089 105.863 94.0551 106.467 93.3742 107.04C92.69 107.609 91.9822 108.145 91.2508 108.646C90.516 109.147 89.761 109.61 88.9824 110.032C88.2038 110.458 87.405 110.842 86.5927 111.189C85.777 111.532 84.9478 111.837 84.1018 112.098C83.2558 112.359 82.4031 112.578 81.5368 112.753C80.6706 112.928 79.801 113.059 78.9213 113.148C78.045 113.237 77.1619 113.282 76.2822 113.282C75.3991 113.282 74.5194 113.237 73.6397 113.148C72.7633 113.059 71.8903 112.928 71.0241 112.753C70.1579 112.578 69.3051 112.359 68.4591 112.098C67.6165 111.837 66.7873 111.532 65.9717 111.189C65.156 110.842 64.3572 110.458 63.5819 110.032C62.8033 109.61 62.045 109.147 61.3136 108.646C60.5788 108.145 59.871 107.609 59.1901 107.04C58.5059 106.467 57.8554 105.863 57.2285 105.225C56.6049 104.59 56.0151 103.924 55.4556 103.227C54.896 102.531 54.3702 101.807 53.8781 101.059C53.3894 100.311 52.9344 99.5385 52.5198 98.7424C52.1052 97.9497 51.7277 97.1364 51.3907 96.306C51.0536 95.4721 50.7536 94.6246 50.4975 93.7632C50.2413 92.9019 50.029 92.0303 49.8571 91.145C49.6852 90.2631 49.5537 89.3709 49.4695 88.4753C49.3818 87.5796 49.338 86.6806 49.338 85.7815C49.338 84.879 49.3818 83.9799 49.4695 83.0843C49.5537 82.1887 49.6852 81.2999 49.8571 80.4146C50.029 79.5327 50.2413 78.6576 50.4975 77.7963C50.7536 76.935 51.0536 76.0874 51.3907 75.257C51.7277 74.4231 52.1052 73.6099 52.5198 72.8172C52.9378 72.0211 53.3894 71.249 53.8781 70.5009C54.3702 69.7528 54.896 69.0288 55.4556 68.3322C56.0151 67.639 56.6049 66.9698 57.2285 66.335C57.8554 65.6967 58.5059 65.0928 59.1901 64.5232C59.871 63.9501 60.5788 63.4148 61.3136 62.9138C62.045 62.4128 62.8033 61.9495 63.5819 61.5274C64.3572 61.1019 65.156 60.7176 65.9717 60.371C66.7873 60.0279 67.6165 59.7259 68.4591 59.4651C69.3051 59.2009 70.1579 58.9847 71.0241 58.8062C71.8903 58.6312 72.7633 58.5008 73.6397 58.4116C74.5194 58.3224 75.3991 58.2778 76.2822 58.2778C77.1619 58.2778 78.045 58.3224 78.9213 58.4116C79.801 58.5008 80.6706 58.6312 81.5368 58.8062C82.4031 58.9847 83.2558 59.2009 84.1018 59.4651C84.9478 59.7259 85.777 60.0279 86.5927 60.371C87.405 60.7176 88.2038 61.1019 88.9824 61.5274C89.761 61.9495 90.516 62.4128 91.2508 62.9138C91.9822 63.4148 92.69 63.9501 93.3742 64.5232C94.0551 65.0928 94.7089 65.6967 95.3325 66.335C95.956 66.9698 96.5493 67.639 97.1088 68.3322C97.6683 69.0288 98.1907 69.7528 98.6828 70.5009C99.1715 71.249 99.6266 72.0211 100.041 72.8172C100.459 73.6099 100.833 74.4231 101.174 75.257C101.511 76.0874 101.807 76.935 102.063 77.7963C102.32 78.6576 102.532 79.5327 102.704 80.4146C102.876 81.2999 103.007 82.1887 103.095 83.0843C103.179 83.9799 103.223 84.879 103.223 85.7815Z" fill="#D95239"/>
</g>
<path d="M49.338 85.7814C49.338 101.079 61.472 113.282 76.2822 113.282V58.2777C61.472 58.2777 49.338 70.6621 49.338 85.7814Z" fill="#E8664A"/>
<path d="M96.2628 85.7814C96.2628 86.4472 96.2325 87.1163 96.1684 87.7786C96.1044 88.4443 96.0066 89.1032 95.8819 89.7586C95.7538 90.414 95.5954 91.0626 95.4033 91.7008C95.2146 92.3391 94.9921 92.9705 94.7427 93.5847C94.4933 94.2024 94.2135 94.8064 93.9034 95.3966C93.5967 95.9834 93.2596 96.5565 92.8956 97.1124C92.5316 97.6683 92.144 98.2036 91.7294 98.7217C91.3148 99.2365 90.8733 99.7306 90.4115 100.204C89.9498 100.678 89.4644 101.124 88.9588 101.549C88.4532 101.971 87.9274 102.369 87.3848 102.74C86.8387 103.111 86.2792 103.454 85.6995 103.77C85.1231 104.085 84.5333 104.37 83.93 104.624C83.3233 104.881 82.7098 105.104 82.0829 105.3C81.456 105.492 80.8223 105.657 80.1785 105.787C79.5381 105.918 78.891 106.014 78.2405 106.079C77.59 106.144 76.9361 106.178 76.2822 106.178C75.6249 106.178 74.9744 106.144 74.3205 106.079C73.67 106.014 73.0229 105.918 72.3825 105.787C71.7421 105.657 71.105 105.492 70.4815 105.3C69.8546 105.104 69.2377 104.881 68.6344 104.624C68.0277 104.37 67.4379 104.085 66.8615 103.77C66.2851 103.454 65.7223 103.111 65.1796 102.74C64.6336 102.369 64.1078 101.971 63.6022 101.549C63.0966 101.124 62.6146 100.678 62.1495 100.204C61.6877 99.7306 61.2496 99.2365 60.835 98.7217C60.417 98.2036 60.0294 97.6683 59.6654 97.1124C59.3014 96.5565 58.9643 95.9834 58.6576 95.3966C58.3475 94.8064 58.0678 94.2024 57.8183 93.5847C57.5689 92.9705 57.3465 92.3391 57.1577 91.7008C56.969 91.0626 56.8105 90.414 56.6825 89.7586C56.5544 89.1032 56.4566 88.4443 56.3926 87.7786C56.3286 87.1163 56.2982 86.4472 56.2982 85.7814C56.2982 85.1123 56.3286 84.4466 56.3926 83.7809C56.4566 83.1151 56.5544 82.4563 56.6825 81.8009C56.8105 81.1454 56.969 80.4969 57.1577 79.8586C57.3465 79.2203 57.5689 78.5924 57.8183 77.9747C58.0678 77.357 58.3475 76.7531 58.6576 76.1629C58.9643 75.5761 59.3014 75.003 59.6654 74.4471C60.0294 73.8912 60.417 73.3559 60.835 72.8411C61.2496 72.323 61.6877 71.8288 62.1495 71.3553C62.6146 70.8852 63.0966 70.4356 63.6022 70.0135C64.1078 69.588 64.6336 69.19 65.1796 68.8194C65.7223 68.4488 66.2851 68.1056 66.8615 67.7899C67.4379 67.4742 68.0277 67.1894 68.6344 66.9355C69.2377 66.6781 69.8546 66.4551 70.4815 66.2595C71.105 66.0673 71.7421 65.906 72.3825 65.7756C73.0229 65.6452 73.67 65.5457 74.3205 65.4805C74.9744 65.4153 75.6249 65.381 76.2822 65.381C76.9361 65.381 77.59 65.4153 78.2405 65.4805C78.891 65.5457 79.5381 65.6452 80.1785 65.7756C80.8223 65.906 81.456 66.0673 82.0829 66.2595C82.7098 66.4551 83.3233 66.6781 83.93 66.9355C84.5333 67.1894 85.1231 67.4742 85.6995 67.7899C86.2792 68.1056 86.8387 68.4488 87.3848 68.8194C87.9274 69.19 88.4532 69.588 88.9588 70.0135C89.4644 70.4356 89.9498 70.8852 90.4115 71.3553C90.8733 71.8288 91.3148 72.323 91.7294 72.8411C92.144 73.3559 92.5316 73.8912 92.8956 74.4471C93.2596 75.003 93.5967 75.5761 93.9034 76.1629C94.2135 76.7531 94.4933 77.357 94.7427 77.9747C94.9921 78.5924 95.2146 79.2203 95.4033 79.8586C95.5954 80.4969 95.7538 81.1454 95.8819 81.8009C96.0066 82.4563 96.1044 83.1151 96.1684 83.7809C96.2325 84.4466 96.2628 85.1123 96.2628 85.7814Z" fill="#D4D8DB"/>
<path d="M90.1992 85.7815C90.1992 86.2448 90.1756 86.708 90.1318 87.1713C90.088 87.6345 90.0206 88.0943 89.9296 88.5507C89.8419 89.0071 89.7307 89.4601 89.5993 89.9028C89.4678 90.3489 89.3128 90.7881 89.1375 91.217C88.9656 91.646 88.7701 92.0681 88.5544 92.4764C88.3387 92.8882 88.1061 93.2863 87.8533 93.674C87.6005 94.0583 87.3275 94.4324 87.0376 94.7927C86.7511 95.153 86.4444 95.4962 86.1208 95.8256C85.8006 96.155 85.4636 96.4673 85.1097 96.7624C84.7591 97.0575 84.3918 97.332 84.0143 97.5928C83.6334 97.8502 83.2424 98.0904 82.8413 98.31C82.4402 98.5262 82.029 98.7252 81.6077 98.9037C81.1864 99.0821 80.7583 99.24 80.3201 99.3738C79.8853 99.5076 79.4438 99.6209 78.9955 99.7135C78.5506 99.8027 78.0989 99.8714 77.6439 99.916C77.1923 99.964 76.7372 99.9846 76.2822 99.9846C75.8238 99.9846 75.3688 99.964 74.9172 99.916C74.4621 99.8714 74.0138 99.8027 73.5656 99.7135C73.1173 99.6209 72.6757 99.5076 72.2409 99.3738C71.8061 99.24 71.3747 99.0821 70.9568 98.9037C70.5354 98.7252 70.1209 98.5262 69.7198 98.31C69.3187 98.0904 68.9277 97.8502 68.5502 97.5928C68.1693 97.332 67.8053 97.0575 67.4514 96.7624C67.1009 96.4673 66.7638 96.155 66.4402 95.8256C66.1167 95.4962 65.8133 95.153 65.5234 94.7927C65.2336 94.4324 64.9639 94.0583 64.7078 93.674C64.455 93.2863 64.2224 92.8882 64.0067 92.4764C63.791 92.0681 63.5989 91.646 63.4236 91.217C63.2483 90.7881 63.0966 90.3489 62.9618 89.9028C62.8304 89.4601 62.7191 89.0071 62.6315 88.5507C62.5439 88.0943 62.4765 87.6345 62.4293 87.1713C62.3855 86.708 62.3652 86.2448 62.3652 85.7815C62.3652 85.3148 62.3855 84.8515 62.4293 84.3883C62.4765 83.925 62.5439 83.4652 62.6315 83.0088C62.7191 82.5524 62.8304 82.1029 62.9618 81.6568C63.0966 81.2107 63.2483 80.7749 63.4236 80.3425C63.5989 79.9136 63.791 79.4949 64.0067 79.0831C64.2224 78.6748 64.455 78.2733 64.7078 77.889C64.9639 77.5012 65.2336 77.1272 65.5234 76.7669C65.8133 76.41 66.1167 76.0634 66.4402 75.734C66.7638 75.4045 67.1009 75.0957 67.4514 74.8006C67.8053 74.5055 68.1693 74.2275 68.5502 73.9702C68.9277 73.7094 69.3187 73.4726 69.7198 73.253C70.1209 73.0334 70.5354 72.8343 70.9568 72.6559C71.3747 72.4774 71.8061 72.3196 72.2409 72.1858C72.6757 72.0519 73.1173 71.9387 73.5656 71.846C74.0138 71.7568 74.4621 71.6882 74.9172 71.6436C75.3688 71.5955 75.8238 71.575 76.2822 71.575C76.7372 71.575 77.1923 71.5955 77.6439 71.6436C78.0989 71.6882 78.5506 71.7568 78.9955 71.846C79.4438 71.9387 79.8853 72.0519 80.3201 72.1858C80.7583 72.3196 81.1864 72.4774 81.6077 72.6559C82.029 72.8343 82.4402 73.0334 82.8413 73.253C83.2424 73.4726 83.6334 73.7094 84.0143 73.9702C84.3918 74.2275 84.7591 74.5055 85.1097 74.8006C85.4636 75.0957 85.8006 75.4045 86.1208 75.734C86.4444 76.0634 86.7511 76.41 87.0376 76.7669C87.3275 77.1272 87.6005 77.5012 87.8533 77.889C88.1061 78.2733 88.3387 78.6748 88.5544 79.0831C88.7701 79.4949 88.9656 79.9136 89.1375 80.3425C89.3128 80.7749 89.4678 81.2107 89.5993 81.6568C89.7307 82.1029 89.8419 82.5524 89.9296 83.0088C90.0206 83.4652 90.088 83.925 90.1318 84.3883C90.1756 84.8515 90.1992 85.3148 90.1992 85.7815Z" fill="#E6E6E8"/>
<path d="M82.5244 85.7814C82.5244 86.2001 82.4873 86.6119 82.4064 87.0236C82.3255 87.4354 82.2075 87.8335 82.0491 88.2178C81.8941 88.6056 81.702 88.9728 81.4728 89.3228C81.2469 89.6694 80.9874 89.9919 80.6975 90.287C80.4077 90.5821 80.0908 90.8464 79.7504 91.0797C79.41 91.3131 79.0493 91.5087 78.6718 91.6699C78.291 91.8278 77.9 91.9513 77.4989 92.0337C77.0978 92.1126 76.69 92.1538 76.2821 92.1538C75.8709 92.1538 75.4631 92.1126 75.062 92.0337C74.6609 91.9513 74.2699 91.8278 73.8924 91.6699C73.5115 91.5087 73.1509 91.3131 72.8105 91.0797C72.47 90.8464 72.1566 90.5821 71.8667 90.287C71.5735 89.9919 71.3173 89.6694 71.0881 89.3228C70.8623 88.9728 70.6668 88.6056 70.5117 88.2178C70.3533 87.8335 70.2354 87.4354 70.1545 87.0236C70.0769 86.6119 70.0365 86.2001 70.0365 85.7814C70.0365 85.3628 70.0769 84.9476 70.1545 84.5358C70.2354 84.1274 70.3533 83.7259 70.5117 83.3416C70.6668 82.9538 70.8623 82.5867 71.0881 82.2401C71.3173 81.8901 71.5735 81.5675 71.8667 81.2724C72.1566 80.9773 72.47 80.7131 72.8105 80.4797C73.1509 80.2464 73.5115 80.0508 73.8924 79.8895C74.2699 79.7316 74.6609 79.6115 75.062 79.5292C75.4631 79.4468 75.8709 79.4056 76.2821 79.4056C76.69 79.4056 77.0978 79.4468 77.4989 79.5292C77.9 79.6115 78.291 79.7316 78.6718 79.8895C79.0493 80.0508 79.41 80.2464 79.7504 80.4797C80.0908 80.7131 80.4077 80.9773 80.6975 81.2724C80.9874 81.5675 81.2469 81.8901 81.4728 82.2401C81.702 82.5867 81.8941 82.9538 82.0491 83.3416C82.2075 83.7259 82.3255 84.1274 82.4064 84.5358C82.4873 84.9476 82.5244 85.3628 82.5244 85.7814Z" fill="#E8664A"/>
<path d="M76.2821 65.5629V71.7568C83.9535 71.7568 90.1991 78.1326 90.1991 85.9633C90.1991 93.7941 83.9535 100.166 76.2821 100.166V106.36C87.3442 106.36 96.2627 97.2531 96.2627 85.9633C96.2627 74.6702 87.3442 65.5629 76.2821 65.5629Z" fill="#E6E6E8"/>
<path d="M82.5244 85.7815C82.5244 89.2405 79.6695 92.1538 76.2821 92.1538V99.9846C83.9535 99.9846 90.1991 93.6123 90.1991 85.7815C90.1991 77.9473 83.9535 71.575 76.2821 71.575V79.4057C79.8481 79.4057 82.5244 82.3191 82.5244 85.7815Z" fill="#E8664A"/>
<path d="M62.3652 85.7815C62.3652 93.6123 68.6075 99.9846 76.2822 99.9846V92.1538C72.8915 92.1538 70.0366 89.2405 70.0366 85.7815C70.0366 82.3191 72.8915 79.4057 76.2822 79.4057V71.575C68.6075 71.575 62.3652 77.9473 62.3652 85.7815Z" fill="#D95239"/>
<path d="M82.5244 85.7814C82.5244 82.319 79.6695 79.4056 76.2821 79.4056V92.1538C79.8481 92.1538 82.5244 89.4223 82.5244 85.7814Z" fill="#D4D8DB"/>
<path d="M70.0365 85.7814C70.0365 89.2404 72.8914 92.1538 76.2821 92.1538V79.4056C72.8914 79.4056 70.0365 82.319 70.0365 85.7814Z" fill="#E6E6E8"/>
<path d="M99.8322 62.2858C98.9424 61.3764 97.5133 61.3764 96.6201 62.2858L75.9249 83.4137C75.0317 84.3231 75.0317 85.7815 75.9249 86.6908C76.8147 87.6002 78.2438 87.6002 79.137 86.6908L99.8322 65.5629C100.547 64.6535 100.547 63.1951 99.8322 62.2858Z" fill="#465C6A"/>
<path d="M99.8321 62.2858C99.6535 62.2858 99.6535 62.2858 99.8321 62.2858L75.9248 86.509C76.8146 87.4183 78.2437 87.4183 79.1369 86.509L99.8321 65.5629C100.547 64.6535 100.547 63.1951 99.8321 62.2858Z" fill="#3B4C56"/>
<mask id="mask4_135_1978" style="mask-type:luminance" maskUnits="userSpaceOnUse" x="89" y="66" width="15" height="11">
<path d="M89.1543 66.0364H103.493V76.5781H89.1543V66.0364Z" fill="white"/>
</mask>
<g mask="url(#mask4_135_1978)">
<path d="M102.687 67.385L98.4064 66.8394L89.6632 75.7648L94.4797 76.3104C94.6584 76.3104 94.6584 76.3104 94.837 76.1286L102.866 67.9306C103.223 67.7488 103.044 67.385 102.687 67.385Z" fill="#E0B624"/>
</g>
<path d="M94.8371 59.1905C94.8371 58.8268 94.4798 58.8268 94.3012 59.0086L86.2725 67.2031C86.2725 67.2031 86.0939 67.385 86.0939 67.5669L86.6298 72.4843L95.373 63.5623L94.8371 59.1905Z" fill="#FAD22C"/>
</svg>
