<svg width="136" height="138" viewBox="0 0 136 138" fill="none" xmlns="http://www.w3.org/2000/svg">
<mask id="mask0_135_1939" style="mask-type:luminance" maskUnits="userSpaceOnUse" x="0" y="0" width="136" height="138">
<path d="M0 0H135.189V137.632H0V0Z" fill="white"/>
</mask>
<g mask="url(#mask0_135_1939)">
<path fill-rule="evenodd" clip-rule="evenodd" d="M125.924 137.632H9.26563C4.11881 137.632 0 133.36 0 128.199V9.43328C0 4.19333 4.11881 0 9.26563 0H125.924C130.99 0 135.189 4.19333 135.189 9.43328V128.199C135.189 133.36 130.99 137.632 125.924 137.632Z" fill="#CFDFE8"/>
</g>
<mask id="mask1_135_1939" style="mask-type:luminance" maskUnits="userSpaceOnUse" x="0" y="0" width="136" height="34">
<path d="M0 0H135.189V33.955H0V0Z" fill="white"/>
</mask>
<g mask="url(#mask1_135_1939)">
<path fill-rule="evenodd" clip-rule="evenodd" d="M0 33.9447V9.43328C0 4.19333 4.11881 0 9.26563 0H125.924C130.99 0 135.189 4.19333 135.189 9.43328V33.9447H0Z" fill="#42C7F4"/>
</g>
<mask id="mask2_135_1939" style="mask-type:luminance" maskUnits="userSpaceOnUse" x="64" y="0" width="72" height="34">
<path d="M64.1313 0H135.189V33.955H64.1313V0Z" fill="white"/>
</mask>
<g mask="url(#mask2_135_1939)">
<path fill-rule="evenodd" clip-rule="evenodd" d="M64.4651 0H125.924C130.99 0 135.189 4.19333 135.189 9.43328V33.9447H73.4173L64.4651 0Z" fill="#3BB3DC"/>
</g>
<path fill-rule="evenodd" clip-rule="evenodd" d="M35.8761 24.1065C31.9966 24.1065 28.8282 20.9632 28.8282 17.0135C28.8282 13.0604 31.9966 9.8382 35.8761 9.8382C39.7589 9.8382 42.8464 13.0604 42.8464 17.0135C42.8464 20.9632 39.7589 24.1065 35.8761 24.1065Z" fill="#FFC738"/>
<path fill-rule="evenodd" clip-rule="evenodd" d="M54.5658 24.1065C50.6863 24.1065 47.5179 20.9632 47.5179 17.0135C47.5179 13.0604 50.6863 9.8382 54.5658 9.8382C58.4486 9.8382 61.6169 13.0604 61.6169 17.0135C61.6169 20.9632 58.4486 24.1065 54.5658 24.1065Z" fill="#1A7547"/>
<path fill-rule="evenodd" clip-rule="evenodd" d="M17.1088 24.1065C13.2259 24.1065 10.0576 20.9632 10.0576 17.0135C10.0576 13.0604 13.2259 9.8382 17.1088 9.8382C20.9883 9.8382 24.1566 13.0604 24.1566 17.0135C24.1566 20.9632 20.9883 24.1065 17.1088 24.1065Z" fill="#FF4755"/>
<path fill-rule="evenodd" clip-rule="evenodd" d="M123.466 23.705H86.2455C85.3759 23.705 84.6614 22.9775 84.6614 22.0922V11.9314C84.6614 11.0461 85.3759 10.322 86.2455 10.322H123.466C124.339 10.322 125.051 11.0461 125.051 11.9314V22.0922C125.051 22.9775 124.339 23.705 123.466 23.705Z" fill="#2B83A0"/>
<path fill-rule="evenodd" clip-rule="evenodd" d="M60.6664 81.1111H12.5147C10.0576 81.1111 8.0791 79.0179 8.0791 76.5163V43.4604C8.0791 40.9588 10.0576 38.9445 12.5147 38.9445H60.6664C63.1201 38.9445 65.0986 40.9588 65.0986 43.4604V76.5163C65.0986 79.0179 63.1201 81.1111 60.6664 81.1111ZM122.674 129.41H74.5261C72.0689 129.41 70.0904 127.392 70.0904 124.894V91.7557C70.0904 89.2576 72.0689 87.2398 74.5261 87.2398H122.674C125.131 87.2398 127.11 89.2576 127.11 91.7557V124.894C127.11 127.392 125.131 129.41 122.674 129.41ZM60.6664 129.41H12.5147C10.0576 129.41 8.0791 127.392 8.0791 124.894V91.7557C8.0791 89.2576 10.0576 87.2398 12.5147 87.2398H60.6664C63.1201 87.2398 65.0986 89.2576 65.0986 91.7557V124.894C65.0986 127.392 63.1201 129.41 60.6664 129.41ZM122.674 81.1111H74.5261C72.0689 81.1111 70.0904 79.0179 70.0904 76.5163V43.4604C70.0904 40.9588 72.0689 38.9445 74.5261 38.9445H122.674C125.131 38.9445 127.11 40.9588 127.11 43.4604V76.5163C127.11 79.0179 125.131 81.1111 122.674 81.1111Z" fill="#434377"/>
<path fill-rule="evenodd" clip-rule="evenodd" d="M8.0791 72.7279V69.5023H18.6121C19.485 69.5023 20.1962 70.2263 20.1962 71.1151C20.1962 72.0004 19.485 72.7279 18.6121 72.7279H8.0791ZM8.0791 67.083V63.8574H15.5246C16.3942 63.8574 17.1088 64.5849 17.1088 65.4702C17.1088 66.359 16.3942 67.083 15.5246 67.083H8.0791ZM8.0791 56.1193V52.8936H15.5246C16.3942 52.8936 17.1088 53.6177 17.1088 54.5065C17.1088 55.3918 16.3942 56.1193 15.5246 56.1193H8.0791ZM8.0791 50.4744V47.2488H18.6121C19.485 47.2488 20.1962 47.9728 20.1962 48.8616C20.1962 49.7469 19.485 50.4744 18.6121 50.4744H8.0791ZM65.0986 47.2488V50.4744H54.4882C53.6152 50.4744 52.904 49.7469 52.904 48.8616C52.904 47.9728 53.6152 47.2488 54.4882 47.2488H65.0986ZM65.0986 52.8936V56.1193H57.5756C56.706 56.1193 55.9914 55.3918 55.9914 54.5065C55.9914 53.6177 56.706 52.8936 57.5756 52.8936H65.0986ZM65.0986 63.8574V67.083H57.5756C56.706 67.083 55.9914 66.359 55.9914 65.4702C55.9914 64.5849 56.706 63.8574 57.5756 63.8574H65.0986ZM65.0986 69.5023V72.7279H54.4882C53.6152 72.7279 52.904 72.0004 52.904 71.1151C52.904 70.2263 53.6152 69.5023 54.4882 69.5023H65.0986Z" fill="#313156"/>
<path fill-rule="evenodd" clip-rule="evenodd" d="M36.5906 75.0647C28.4339 75.0647 21.7804 68.2909 21.7804 59.9866C21.7804 51.6823 28.4339 44.9119 36.5906 44.9119C44.7473 44.9119 51.3199 51.6823 51.3199 59.9866C51.3199 68.2909 44.7473 75.0647 36.5906 75.0647Z" fill="#FF4755"/>
<path fill-rule="evenodd" clip-rule="evenodd" d="M32.6301 68.6958C30.9651 68.6958 29.6202 67.3266 29.5427 65.6314V54.424C29.5427 52.7323 30.9651 51.2808 32.6301 51.2808C33.1829 51.2808 33.8166 51.442 34.2918 51.7646L43.6384 57.2448C44.5888 57.811 45.2225 58.8576 45.2225 59.9866C45.2225 61.1155 44.5888 62.1656 43.6384 62.7284L34.2143 68.2909C33.7391 68.5345 33.1829 68.6958 32.6301 68.6958Z" fill="#E3E8EB"/>
<path fill-rule="evenodd" clip-rule="evenodd" d="M105.333 116.024C104.46 116.024 103.749 115.3 103.749 114.411C103.749 113.525 104.46 112.801 105.333 112.801C107.787 112.801 98.6794 110.543 98.6794 108.042C98.6794 105.544 107.787 103.848 105.333 103.848C104.46 103.848 103.749 103.124 103.749 102.236C103.749 101.35 104.46 100.626 105.333 100.626C109.529 100.626 112.933 104.092 112.933 108.364C112.933 112.558 109.529 116.024 105.333 116.024Z" fill="#B8BCBF"/>
<path fill-rule="evenodd" clip-rule="evenodd" d="M118.084 109.977H115.943C115.074 109.977 114.359 109.253 114.359 108.364C114.359 107.479 115.074 106.752 115.943 106.752H118.084C118.953 106.752 119.668 107.479 119.668 108.364C119.668 109.253 118.953 109.977 118.084 109.977Z" fill="#E3E8EB"/>
<path fill-rule="evenodd" clip-rule="evenodd" d="M116.341 116.428C116.102 116.428 115.866 116.346 115.549 116.185L113.726 115.138C112.934 114.654 112.698 113.687 113.092 112.88C113.567 112.156 114.518 111.834 115.31 112.317L117.133 113.443C117.925 113.848 118.161 114.816 117.767 115.622C117.45 116.106 116.894 116.428 116.341 116.428Z" fill="#E3E8EB"/>
<path fill-rule="evenodd" clip-rule="evenodd" d="M111.747 121.185C111.191 121.185 110.638 120.862 110.321 120.378L109.29 118.443C108.815 117.719 109.054 116.669 109.846 116.267C110.557 115.783 111.589 116.106 111.983 116.83L113.092 118.765C113.49 119.493 113.25 120.539 112.539 120.944C112.222 121.106 111.983 121.185 111.747 121.185Z" fill="#E3E8EB"/>
<path fill-rule="evenodd" clip-rule="evenodd" d="M114.518 104.576C113.965 104.576 113.409 104.253 113.092 103.769C112.698 102.963 112.934 101.995 113.726 101.512L115.549 100.465C116.341 99.9811 117.292 100.304 117.767 101.028C118.161 101.834 117.925 102.802 117.133 103.203L115.31 104.332C115.074 104.494 114.757 104.576 114.518 104.576Z" fill="#E3E8EB"/>
<path fill-rule="evenodd" clip-rule="evenodd" d="M110.638 100.626C110.321 100.626 110.082 100.544 109.846 100.383C109.054 99.9811 108.815 98.931 109.29 98.207L110.321 96.2716C110.797 95.5441 111.747 95.2216 112.539 95.7054C113.25 96.1103 113.49 97.1569 113.092 97.8844L111.983 99.8198C111.666 100.304 111.191 100.626 110.638 100.626Z" fill="#E3E8EB"/>
<path fill-rule="evenodd" clip-rule="evenodd" d="M113.725 72.4843H83.3939C80.4649 72.4843 78.0078 70.0651 78.0078 67.0041C78.0078 64.0187 80.4649 61.5205 83.3939 61.5205H113.725C116.735 61.5205 119.193 64.0187 119.193 67.0041C119.193 70.0651 116.735 72.4843 113.725 72.4843ZM113.725 58.4562H83.3939C80.4649 58.4562 78.0078 55.958 78.0078 52.9726C78.0078 49.9082 80.4649 47.489 83.3939 47.489H113.725C116.735 47.489 119.193 49.9082 119.193 52.9726C119.193 55.958 116.735 58.4562 113.725 58.4562Z" fill="#F9AF44"/>
<path fill-rule="evenodd" clip-rule="evenodd" d="M50.9255 122.636H22.1747C20.1962 122.636 18.6121 121.023 18.6121 119.009V97.9634C18.6121 96.9167 19.0098 95.9491 19.721 95.1426C20.513 94.4152 21.4635 94.0137 22.4916 94.0137H28.5922C29.2259 94.0137 31.1235 94.0137 32.5493 96.1893C33.4222 97.5619 33.7391 97.4795 35.6401 97.4006C35.7985 97.3182 35.9569 97.3182 36.1928 97.3182C36.1928 97.3182 36.1928 97.3182 36.2737 97.3182H50.8446C50.9255 97.3182 50.9255 97.3182 50.9255 97.3182C52.904 97.3182 54.5657 98.9311 54.5657 100.949V119.009C54.5657 121.023 52.904 122.636 50.9255 122.636Z" fill="#F9AF44"/>
<path fill-rule="evenodd" clip-rule="evenodd" d="M18.6121 108.124V97.5619C18.693 96.8344 18.9289 96.1893 19.3266 95.7054L19.4041 95.6265V95.5441L19.485 95.4652C19.5626 95.3829 19.6401 95.3039 19.721 95.1426C19.8794 95.0603 19.9569 94.9814 20.0378 94.899L20.1153 94.8201H20.1962V94.7377H20.2737C20.749 94.3362 21.3826 94.0926 22.0972 94.0137H28.5922C29.2259 94.0137 31.1235 94.0137 32.5493 96.1893L32.6302 96.2716C33.0245 96.9167 33.2638 97.157 33.7391 97.3182C33.975 97.4795 34.2918 97.4795 34.6896 97.4006C35.0064 97.4006 35.3232 97.4006 35.6401 97.4006C35.7985 97.3182 35.9569 97.3182 36.1928 97.3182H50.9255C52.904 97.3182 54.5657 98.9311 54.5657 100.949V102.558V104.977H44.5889C44.1136 104.977 43.1631 104.977 42.4486 105.705C42.1317 106.106 41.9733 106.429 41.8183 106.673C41.1037 107.719 40.5509 108.124 38.9668 108.124C38.8084 108.124 38.65 108.124 38.4915 108.124H18.6121ZM38.4915 105.705C38.5691 105.705 38.5691 105.705 38.5691 105.705C39.2836 105.784 39.5196 105.705 39.5196 105.705L39.6005 105.623C39.442 105.705 39.2836 105.705 38.4915 105.705ZM39.7589 105.382C39.9948 105.06 40.2341 104.655 40.6285 104.171C40.0757 104.816 39.9173 105.139 39.7589 105.382Z" fill="#FB8E37"/>
<path fill-rule="evenodd" clip-rule="evenodd" d="M47.3594 118.041H25.8183C25.1846 118.041 24.6318 117.475 24.6318 116.83V111.511C24.6318 110.866 25.1846 110.3 25.8183 110.3H47.3594C47.9931 110.3 48.5492 110.866 48.5492 111.511V116.83C48.5492 117.475 47.9931 118.041 47.3594 118.041Z" fill="#37414F"/>
<path fill-rule="evenodd" clip-rule="evenodd" d="M38.4107 103.526H24.4735C23.7589 103.526 23.2062 102.963 23.2062 102.318C23.2062 101.673 23.7589 101.11 24.4735 101.11H38.4107C39.0444 101.11 39.6005 101.673 39.6005 102.318C39.6005 102.963 39.0444 103.526 38.4107 103.526Z" fill="#E3E8EB"/>
<path fill-rule="evenodd" clip-rule="evenodd" d="M89.4913 117.475H83.5524C80.2257 117.475 77.5326 114.733 77.5326 111.35V105.3C77.5326 101.913 80.2257 99.1747 83.5524 99.1747H89.7306C89.7306 99.1747 89.8081 99.1747 89.889 99.1747C90.917 99.1747 96.3032 98.8522 104.382 92.6411C104.858 92.2396 105.491 92.1573 106.044 92.4798C106.6 92.7235 106.917 93.2862 106.917 93.9314V122.797C106.917 123.364 106.6 123.926 106.044 124.17C105.808 124.328 105.569 124.41 105.333 124.41C105.016 124.41 104.618 124.249 104.382 124.009C96.3032 117.798 90.917 117.475 89.889 117.475C89.8081 117.475 89.7306 117.475 89.6497 117.475C89.5722 117.475 89.5722 117.475 89.4913 117.475Z" fill="#1D81CE"/>
<path fill-rule="evenodd" clip-rule="evenodd" d="M106.917 115.862V93.9313C106.917 92.5621 105.41 91.8347 104.382 92.6411C98.0458 97.4795 93.3742 98.7698 91.1564 99.0923V117.557C93.4517 117.88 98.2042 119.249 104.382 124.009C105.41 124.812 106.917 124.088 106.917 122.797V115.862Z" fill="#E3E8EB"/>
</svg>
