<svg width="87" height="88" viewBox="0 0 87 88" fill="none" xmlns="http://www.w3.org/2000/svg">
<mask id="mask0_137_3426" style="mask-type:luminance" maskUnits="userSpaceOnUse" x="0" y="0" width="87" height="88">
<path d="M0 0H86.0482V87.1964H0V0Z" fill="white"/>
</mask>
<g mask="url(#mask0_137_3426)">
<path d="M86.0571 43.5996C86.0571 44.313 86.0392 45.0264 86.0033 45.7375C85.9697 46.4508 85.9181 47.1619 85.8486 47.873C85.7791 48.5841 85.6939 49.2907 85.5908 49.9972C85.4877 50.7038 85.3666 51.4058 85.2299 52.1055C85.0909 52.8052 84.9384 53.5027 84.7658 54.1934C84.5954 54.8863 84.4071 55.5746 84.203 56.2562C83.999 56.94 83.7771 57.617 83.5417 58.2895C83.304 58.962 83.0507 59.6276 82.7794 60.2865C82.5104 60.9453 82.2257 61.5974 81.9252 62.2426C81.6226 62.8878 81.3065 63.5262 80.9746 64.1555C80.6428 64.7848 80.2953 65.405 79.9344 66.0161C79.5712 66.6295 79.1945 67.2316 78.8044 67.8245C78.4121 68.4198 78.0063 69.0014 77.5871 69.5761C77.1678 70.1487 76.7351 70.7121 76.289 71.2619C75.8406 71.8139 75.381 72.3546 74.9079 72.884C74.4349 73.4111 73.9506 73.929 73.4529 74.4334C72.9552 74.9377 72.444 75.4307 71.9217 75.9101C71.4015 76.3895 70.8679 76.8552 70.3232 77.3073C69.7784 77.7594 69.2246 78.2001 68.6574 78.625C68.0924 79.0498 67.5162 79.461 66.9311 79.8563C66.3459 80.2539 65.7496 80.6356 65.1465 81.0013C64.5434 81.3694 63.9291 81.7193 63.3081 82.0578C62.6871 82.394 62.0593 82.7143 61.4226 83.0188C60.7859 83.3232 60.1425 83.614 59.4923 83.8866C58.8399 84.1592 58.183 84.416 57.5216 84.6568C56.858 84.8976 56.1899 85.1202 55.5151 85.327C54.8403 85.536 54.1632 85.7246 53.4794 85.8995C52.7956 86.0722 52.1096 86.2289 51.4191 86.3675C50.7285 86.5061 50.0335 86.6288 49.3385 86.7333C48.6413 86.8378 47.9418 86.9264 47.2423 86.9968C46.5406 87.065 45.8388 87.1172 45.1349 87.1536C44.4309 87.1876 43.7269 87.2058 43.023 87.2058C42.319 87.2058 41.615 87.1876 40.911 87.1536C40.2093 87.1172 39.5053 87.065 38.8059 86.9968C38.1041 86.9264 37.4069 86.8378 36.7096 86.7333C36.0124 86.6288 35.3196 86.5061 34.6291 86.3675C33.9364 86.2289 33.2503 86.0722 32.5665 85.8995C31.885 85.7246 31.2057 85.536 30.5308 85.327C29.8582 85.1202 29.1901 84.8976 28.5265 84.6568C27.8629 84.416 27.206 84.1592 26.5559 83.8866C25.9057 83.614 25.26 83.3232 24.6255 83.0188C23.9888 82.7143 23.3588 82.394 22.7378 82.0578C22.1168 81.7193 21.5048 81.3694 20.8994 81.0013C20.2963 80.6356 19.7022 80.2539 19.1148 79.8563C18.5297 79.461 17.9535 79.0498 17.3885 78.625C16.8236 78.2001 16.2676 77.7594 15.7228 77.3073C15.1802 76.8552 14.6466 76.3895 14.1243 75.9101C13.6019 75.4307 13.093 74.9377 12.5953 74.4334C12.0975 73.929 11.611 73.4111 11.138 72.884C10.6649 72.3546 10.2053 71.8139 9.75919 71.2619C9.3108 70.7121 8.87811 70.1487 8.45886 69.5761C8.03962 69.0014 7.63383 68.4198 7.24373 67.8245C6.85139 67.2316 6.47474 66.6295 6.11379 66.0161C5.75059 65.405 5.40309 64.7848 5.07128 64.1555C4.73947 63.5262 4.42336 62.8878 4.12294 62.2426C3.82027 61.5974 3.53555 60.9453 3.26651 60.2865C2.99748 59.6276 2.74414 58.962 2.50649 58.2895C2.26885 57.617 2.04689 56.94 1.84288 56.2562C1.63886 55.5746 1.45054 54.8863 1.28015 54.1934C1.10976 53.5027 0.955065 52.8052 0.818306 52.1055C0.679305 51.4058 0.560483 50.7038 0.457353 49.9972C0.351982 49.2907 0.266787 48.5841 0.197287 47.873C0.127786 47.1619 0.076222 46.4508 0.0425926 45.7375C0.00672146 45.0264 -0.00897217 44.313 -0.00897217 43.5996C-0.00897217 42.884 0.00672146 42.1729 0.0425926 41.4596C0.076222 40.7462 0.127786 40.0351 0.197287 39.324C0.266787 38.6152 0.351982 37.9064 0.457353 37.1998C0.560483 36.4933 0.679305 35.7912 0.818306 35.0915C0.955065 34.3918 1.10976 33.6943 1.28015 33.0037C1.45054 32.3108 1.63886 31.6224 1.84288 30.9408C2.04689 30.257 2.26885 29.58 2.50649 28.9075C2.74414 28.235 2.99748 27.5694 3.26651 26.9105C3.53555 26.2517 3.82027 25.5997 4.12294 24.9545C4.42336 24.3092 4.73947 23.6709 5.07128 23.0415C5.40309 22.4122 5.75059 21.792 6.11379 21.1809C6.47474 20.5675 6.85139 19.9654 7.24373 19.3725C7.63383 18.7795 8.03962 18.1957 8.45886 17.6209C8.87811 17.0484 9.3108 16.4872 9.75919 15.9352C10.2053 15.3831 10.6649 14.8424 11.138 14.313C11.611 13.786 12.0975 13.268 12.5953 12.7636C13.093 12.2593 13.6019 11.7663 14.1243 11.2869C14.6466 10.8098 15.1802 10.3418 15.7228 9.88972C16.2676 9.43762 16.8236 8.99915 17.3885 8.57204C17.9535 8.1472 18.5297 7.73827 19.1148 7.34069C19.7022 6.94539 20.2963 6.56144 20.8994 6.19567C21.5048 5.8299 22.1168 5.47776 22.7378 5.14153C23.3588 4.80529 23.9888 4.48269 24.6255 4.17826C25.26 3.87383 25.9057 3.58303 26.5559 3.3104C27.206 3.03778 27.8629 2.78106 28.5265 2.54024C29.1901 2.29942 29.8582 2.07678 30.5308 1.87004C31.2057 1.6633 31.885 1.47247 32.5665 1.29753C33.2503 1.12487 33.9364 0.968112 34.6291 0.829529C35.3196 0.690945 36.0124 0.568265 36.7096 0.463759C37.4069 0.359253 38.1041 0.27065 38.8059 0.202494C39.5053 0.132066 40.2093 0.0798136 40.911 0.0434638C41.615 0.00938571 42.319 -0.00878906 43.023 -0.00878906C43.7269 -0.00878906 44.4309 0.00938571 45.1349 0.0434638C45.8388 0.0798136 46.5406 0.132066 47.2423 0.202494C47.9418 0.27065 48.6413 0.359253 49.3385 0.463759C50.0335 0.568265 50.7285 0.690945 51.4191 0.829529C52.1096 0.968112 52.7956 1.12487 53.4794 1.29753C54.1632 1.47247 54.8403 1.6633 55.5151 1.87004C56.1899 2.07678 56.858 2.29942 57.5216 2.54024C58.183 2.78106 58.8399 3.03778 59.4923 3.3104C60.1425 3.58303 60.7859 3.87383 61.4226 4.17826C62.0593 4.48269 62.6871 4.80529 63.3081 5.14153C63.9291 5.47776 64.5434 5.8299 65.1465 6.19567C65.7496 6.56144 66.3459 6.94539 66.9311 7.34069C67.5162 7.73827 68.0924 8.1472 68.6574 8.57431C69.2246 8.99915 69.7784 9.43762 70.3232 9.88972C70.8679 10.3418 71.4015 10.8098 71.9217 11.2869C72.444 11.7663 72.9552 12.2593 73.4529 12.7636C73.9506 13.268 74.4349 13.786 74.9079 14.313C75.381 14.8424 75.8406 15.3831 76.289 15.9352C76.7351 16.4872 77.1678 17.0484 77.5871 17.6209C78.0063 18.1957 78.4121 18.7795 78.8044 19.3725C79.1945 19.9654 79.5712 20.5675 79.9344 21.1809C80.2953 21.792 80.6428 22.4122 80.9746 23.0415C81.3065 23.6709 81.6226 24.3092 81.9252 24.9545C82.2257 25.5997 82.5104 26.2517 82.7794 26.9105C83.0507 27.5694 83.304 28.235 83.5417 28.9075C83.7771 29.58 83.999 30.257 84.203 30.9408C84.4071 31.6224 84.5954 32.3108 84.7658 33.0037C84.9384 33.6943 85.0909 34.3918 85.2299 35.0915C85.3666 35.7912 85.4877 36.4933 85.5908 37.1998C85.6939 37.9064 85.7791 38.6152 85.8486 39.324C85.9181 40.0351 85.9697 40.7462 86.0033 41.4596C86.0392 42.1729 86.0571 42.884 86.0571 43.5996Z" fill="#FCC352"/>
</g>
<path d="M23.6234 17.0481H66.2384V74.1968H23.6234V17.0481Z" fill="#61ACCD"/>
<path d="M21.5698 15.0216H64.1847V72.1703H21.5698V15.0216Z" fill="#6ABCE1"/>
<path d="M19.8076 12.9996H62.4226V70.1483H19.8076V12.9996Z" fill="white"/>
<path d="M24.1615 29.5115H58.071V32.6422H24.1615V29.5115Z" fill="#6ABCE1"/>
<path d="M24.1615 29.5115H58.071V60.5429H24.1615V29.5115Z" stroke="#364B9B" stroke-width="0.408395" stroke-miterlimit="10"/>
<path d="M24.1615 29.5115H58.071V32.6422H24.1615V29.5115Z" stroke="#364B9B" stroke-width="0.129624" stroke-miterlimit="10"/>
<path d="M24.1615 32.6422H58.071V35.7728H24.1615V32.6422Z" stroke="#364B9B" stroke-width="0.129624" stroke-miterlimit="10"/>
<path d="M24.1615 35.7728H58.071V38.9012H24.1615V35.7728Z" stroke="#364B9B" stroke-width="0.129624" stroke-miterlimit="10"/>
<path d="M24.1615 38.9012H58.071V42.0318H24.1615V38.9012Z" stroke="#364B9B" stroke-width="0.129624" stroke-miterlimit="10"/>
<path d="M24.1615 42.0318H58.071V45.1602H24.1615V42.0318Z" stroke="#364B9B" stroke-width="0.129624" stroke-miterlimit="10"/>
<path d="M24.1615 45.1624H58.071V48.2908H24.1615V45.1624Z" stroke="#364B9B" stroke-width="0.129624" stroke-miterlimit="10"/>
<path d="M24.1615 48.2908H58.071V51.4214H24.1615V48.2908Z" stroke="#364B9B" stroke-width="0.129624" stroke-miterlimit="10"/>
<path d="M24.1615 51.4214H58.071V54.5498H24.1615V51.4214Z" stroke="#364B9B" stroke-width="0.129624" stroke-miterlimit="10"/>
<path d="M24.1615 54.5498H58.071V57.6804H24.1615V54.5498Z" stroke="#364B9B" stroke-width="0.129624" stroke-miterlimit="10"/>
<path d="M49.323 27.4635H59.9095V58.4949H49.323V27.4635Z" stroke="#364B9B" stroke-width="0.228014" stroke-miterlimit="10"/>
<path d="M26.6547 17.0242H36.2098V21.4248H26.6547V17.0242Z" fill="#54C0D3"/>
<path d="M42.9536 15H59.9095V16.4972H42.9536V15Z" fill="#6ABCE1"/>
<path d="M26 61.7345H59.9095V63.2294H26V61.7345Z" fill="#6ABCE1"/>
<path d="M31.2305 64.0223H54.679V65.5172H31.2305V64.0223Z" fill="#6ABCE1"/>
<path d="M46.0228 17.156H59.9094V18.6532H46.0228V17.156Z" fill="#6ABCE1"/>
<path d="M49.8453 19.3575H59.9094V20.8524H49.8453V19.3575Z" fill="#6ABCE1"/>
<path d="M54.6162 21.5566H59.9094V23.0537H54.6162V21.5566Z" fill="#6ABCE1"/>
</svg>
