<svg xmlns="http://www.w3.org/2000/svg" version="1.1" viewBox="57.78 39.3 363.53 428.2">
<path d="M0 0 C24.95022811 16.05440849 40.7780824 40.50345791 48 69 C49.77975935 77.29532258 51.04823709 85.69603398 52.40405273 94.06860352 C55.98385051 115.98158738 59.94426989 137.21833442 74.16894531 154.85424805 C77.50093267 159.08849124 80.09222028 163.49694057 82.5 168.3125 C82.82597168 168.95799805 83.15194336 169.60349609 83.48779297 170.26855469 C88.62193207 180.92987703 89.81261008 192.28813499 86 203.59765625 C84.33673156 207.59339878 82.25439423 211.31099126 80 215 C80.70125 215.185625 81.4025 215.37125 82.125 215.5625 C90.19033539 219.59516769 93.21764257 227.88147849 96 236 C101.4655409 252.79711493 101.7612463 272.47363161 101 290 C100.9383667 291.46711426 100.9383667 291.46711426 100.87548828 292.96386719 C95.88101315 401.11898685 95.88101315 401.11898685 83 414 C81.43094107 414.0969847 79.85749849 414.1237165 78.28544521 414.12304783 C76.74628119 414.1260344 76.74628119 414.1260344 75.17602295 414.12908131 C74.03499699 414.12616847 72.89397103 414.12325563 71.71836853 414.12025452 C70.51694971 414.12110894 69.31553089 414.12196337 68.07770544 414.12284368 C64.72788054 414.12421189 61.37811335 414.12106434 58.0282954 414.11606562 C54.42159896 414.11176449 50.81490445 414.1132073 47.20820618 414.1139679 C40.95435599 414.11449335 34.7005162 414.11134435 28.44666862 414.10573006 C19.4045516 414.0976179 10.36243963 414.09500013 1.32031936 414.09374207 C-13.34838695 414.0915511 -28.01708772 414.0848898 -42.68579102 414.07543945 C-56.93872042 414.06626649 -71.19164832 414.05918509 -85.44458008 414.05493164 C-86.32249405 414.05466892 -87.20040803 414.05440619 -88.10492546 414.05413551 C-92.50897177 414.05283051 -96.91301808 414.05156679 -101.3170644 414.05032361 C-137.87804685 414.0399496 -174.439023 414.02233007 -211 414 C-210.99333817 412.66481575 -210.99333817 412.66481575 -210.98654175 411.30265808 C-210.94630411 402.8737458 -210.91593428 394.44486624 -210.89637566 386.01587963 C-210.88598205 381.68347735 -210.8719046 377.35115508 -210.84912109 373.01879883 C-210.82723375 368.83017005 -210.8153982 364.64161777 -210.81024551 360.45293617 C-210.80657807 358.86272288 -210.7994173 357.27251331 -210.78853989 355.68233299 C-210.58798444 339.52373445 -210.58798444 339.52373445 -215.46875 324.30859375 C-215.9529541 323.35235107 -216.4371582 322.3961084 -216.93603516 321.41088867 C-217.45214355 320.42967041 -217.96825195 319.44845215 -218.5 318.4375 C-219.03028809 317.40407471 -219.56057617 316.37064941 -220.10693359 315.3059082 C-227.99955457 299.83367935 -227.99955457 299.83367935 -237 285 C-238.98515528 284.51184706 -240.9712087 284.0264953 -242.96484375 283.57421875 C-246.12702973 282.68200888 -247.81420808 281.44294391 -250 279 C-251.57172749 274.58419419 -252.07464301 271.42770371 -251.625 266.8125 C-251.42179268 260.96012906 -254.89720806 256.74764624 -258.0546875 252.11328125 C-261.62270096 246.40302678 -262.31564173 242.57820863 -261 236 C-260.690625 234.7934375 -260.690625 234.7934375 -260.375 233.5625 C-260.01216531 231.08312963 -260.15071129 229.33345517 -260.5 226.875 C-261 223 -261 223 -260 220 C-259.34 219.67 -258.68 219.34 -258 219 C-257.6836894 216.47855264 -257.6204938 213.98448848 -257.5390625 211.4453125 C-257 209 -257 209 -255.03125 207.5546875 C-252.72540585 206.11657916 -252.72540585 206.11657916 -252.2421875 203.1875 C-252.12101562 202.135625 -251.99984375 201.08375 -251.875 200 C-251.18834081 194.28251121 -251.18834081 194.28251121 -249 191 C-248.01 191 -247.02 191 -246 191 C-245.95512451 190.0620459 -245.91024902 189.1240918 -245.86401367 188.15771484 C-245.69012582 184.65700372 -245.50422298 181.15735154 -245.31030273 177.65771484 C-245.22902557 176.14689669 -245.15245738 174.63581718 -245.08081055 173.12451172 C-244.97660583 170.94411794 -244.85514136 168.76524541 -244.73046875 166.5859375 C-244.66239014 165.2767334 -244.59431152 163.9675293 -244.52416992 162.61865234 C-243.80606644 157.66116294 -242.65037493 154.32608523 -238.68774414 151.14208984 C-229.07152405 147.05591693 -214.09720806 150.40538214 -203.8112793 151.171875 C-201.04338445 151.37641257 -198.27476296 151.56747631 -195.50585938 151.7578125 C-193.72389942 151.8872121 -191.94199594 152.01739233 -190.16015625 152.1484375 C-189.34337906 152.20373627 -188.52660187 152.25903503 -187.68507385 152.31600952 C-175.98943239 153.21998155 -175.98943239 153.21998155 -171.625 157.125 C-167.91415749 163.69033676 -169.06238 171.22635412 -169.734375 178.45703125 C-169.89838977 180.47711209 -170.06110994 182.49729838 -170.22265625 184.51757812 C-170.48200247 187.6652764 -170.74989149 190.81132584 -171.04052734 193.95629883 C-172.81518188 210.16937442 -172.81518188 210.16937442 -167 225 C-166.67 225.99 -166.34 226.98 -166 228 C-164.00517939 224.04558739 -162.02856135 220.09331772 -160.17578125 216.0703125 C-155.57800351 206.24053848 -150.33570563 197.11461421 -141 191 C-135.75248168 189.1861628 -130.50969463 188.76554491 -125 189 C-124.97421875 188.41476563 -124.9484375 187.82953125 -124.921875 187.2265625 C-124.45393007 180.14357788 -123.10165749 173.4332858 -121.45996094 166.54736328 C-118.15027616 152.51368117 -117.1169635 138.74268031 -123.171875 125.421875 C-133.76998455 101.47799787 -135.51842616 73.01483049 -126.8125 48.25 C-115.6652655 21.59499514 -88.6690952 3.03206123 -62.74414062 -7.72729492 C-39.54099873 -17.00913821 -20.83858302 -12.65031937 0 0 Z " fill="#F30B0B" transform="translate(320,52)"/>
<path d="M0 0 C24.95022811 16.05440849 40.7780824 40.50345791 48 69 C49.77975935 77.29532258 51.04823709 85.69603398 52.40405273 94.06860352 C55.98385051 115.98158738 59.94426989 137.21833442 74.16894531 154.85424805 C77.50093267 159.08849124 80.09222028 163.49694057 82.5 168.3125 C82.82597168 168.95799805 83.15194336 169.60349609 83.48779297 170.26855469 C88.62975255 180.9461167 89.81285834 192.33547379 86 203.6640625 C84.40842747 207.38187645 82.32951395 210.70369172 80 214 C75.26818575 213.41900509 70.93006055 212.44996097 66.375 211.0625 C60.07547484 209.25374944 53.89896211 208.46459462 47.375 207.9375 C39.32053786 207.28535188 31.78676105 206.2673216 24 204 C23.2471875 203.78601563 22.494375 203.57203125 21.71875 203.3515625 C14.22733382 200.90244567 7.90848317 196.32509793 4.11376953 189.33447266 C-0.42676759 179.81745907 -0.37654691 170.10307221 -0.1875 159.8125 C-0.17241277 158.36915473 -0.15873157 156.92579404 -0.14648438 155.48242188 C-0.11382868 151.98795463 -0.06227452 148.49407988 0 145 C-0.45600586 145.59095459 -0.91201172 146.18190918 -1.38183594 146.79077148 C-15.29166342 164.75732646 -34.66812394 181.576471 -58.1875 184.75 C-63.37166181 185.62619636 -65.3015818 188.09852208 -68.3984375 192.1640625 C-70.5748517 194.65897634 -72.83727503 195.24697024 -76 196 C-76.33 196.66 -76.66 197.32 -77 198 C-87.73877267 196.33790675 -98.46116603 194.61613871 -109.15625 192.69140625 C-111.59223754 192.25322556 -114.02960651 191.82260158 -116.46875 191.40234375 C-117.4690625 191.22832031 -118.469375 191.05429688 -119.5 190.875 C-120.3559375 190.72804687 -121.211875 190.58109375 -122.09375 190.4296875 C-124 190 -124 190 -125 189 C-125.07958157 181.37608569 -123.21572824 173.91459965 -121.46020508 166.54711914 C-118.14881826 152.51432486 -117.1173397 138.74185266 -123.171875 125.421875 C-133.76998455 101.47799787 -135.51842616 73.01483049 -126.8125 48.25 C-115.6652655 21.59499514 -88.6690952 3.03206123 -62.74414062 -7.72729492 C-39.54099873 -17.00913821 -20.83858302 -12.65031937 0 0 Z " fill="#43224D" transform="translate(320,52)"/>
<path d="M0 0 C2.76789485 0.20453757 5.53651633 0.39560131 8.30541992 0.5859375 C10.08737988 0.7153371 11.86928335 0.84551733 13.65112305 0.9765625 C14.87628883 1.05951065 14.87628883 1.05951065 16.12620544 1.14413452 C27.82184691 2.04810655 27.82184691 2.04810655 32.1862793 5.953125 C35.89712181 12.51846176 34.74889929 20.05447912 34.0769043 27.28515625 C33.91288952 29.30523709 33.75016936 31.32542338 33.58862305 33.34570312 C33.32927683 36.4934014 33.0613878 39.63945084 32.77075195 42.78442383 C31.07502212 58.9734949 31.07502212 58.9734949 36.8112793 73.828125 C37.9206543 77.28125 37.9206543 77.28125 38.5612793 80.078125 C38.78299805 81.01140625 39.0047168 81.9446875 39.2331543 82.90625 C40.37429414 88.67363247 40.93664474 94.230941 40.953125 100.11083984 C40.95659943 100.8032225 40.96007385 101.49560516 40.96365356 102.20896912 C40.97096449 103.70390408 40.9763345 105.19884958 40.97994423 106.69379807 C40.9872068 109.08726075 41.00295272 111.4805296 41.02128601 113.87393188 C41.07323576 120.67699164 41.1214561 127.47995023 41.13720703 134.28320312 C41.18763974 153.22808238 41.61146721 171.48965627 45.31610107 190.14811707 C46.20758959 194.97303908 46.80971705 199.83798511 47.4362793 204.703125 C48.24811255 210.81501714 49.10988367 216.88590264 50.2800293 222.94140625 C51.47821088 229.45211352 52.43891269 236.00562811 53.4543457 242.546875 C53.77884874 244.62085337 54.11289525 246.69333288 54.44799805 248.765625 C54.62975586 249.9 54.81151367 251.034375 54.9987793 252.203125 C55.15733398 253.18023437 55.31588867 254.15734375 55.47924805 255.1640625 C55.8112793 257.828125 55.8112793 257.828125 55.8112793 262.828125 C35.0212793 262.828125 14.2312793 262.828125 -7.1887207 262.828125 C-7.16551758 257.68605469 -7.14231445 252.54398438 -7.1184082 247.24609375 C-7.10817735 243.96939593 -7.09854857 240.69271807 -7.09106445 237.41601562 C-7.07915428 232.22627624 -7.06513393 227.03660809 -7.0378418 221.84692383 C-7.01595445 217.65829505 -7.0041189 213.46974277 -6.99896622 209.28106117 C-6.99529877 207.69084788 -6.98813801 206.10063831 -6.97726059 204.51045799 C-6.76984226 188.35225677 -6.76984226 188.35225677 -11.6574707 173.13671875 C-12.1416748 172.18047607 -12.62587891 171.2242334 -13.12475586 170.23901367 C-13.64086426 169.25779541 -14.15697266 168.27657715 -14.6887207 167.265625 C-15.21900879 166.23219971 -15.74929687 165.19877441 -16.2956543 164.1340332 C-24.18827527 148.66180435 -24.18827527 148.66180435 -33.1887207 133.828125 C-35.17387599 133.33997206 -37.1599294 132.8546203 -39.15356445 132.40234375 C-42.31575044 131.51013388 -44.00292878 130.27106891 -46.1887207 127.828125 C-47.76044819 123.41231919 -48.26336371 120.25582871 -47.8137207 115.640625 C-47.61051338 109.78825406 -51.08592876 105.57577124 -54.2434082 100.94140625 C-57.81142166 95.23115178 -58.50436243 91.40633363 -57.1887207 84.828125 C-56.9824707 84.02375 -56.7762207 83.219375 -56.5637207 82.390625 C-56.20088601 79.91125463 -56.33943199 78.16158017 -56.6887207 75.703125 C-57.1887207 71.828125 -57.1887207 71.828125 -56.1887207 68.828125 C-55.1987207 68.333125 -55.1987207 68.333125 -54.1887207 67.828125 C-53.8724101 65.30667764 -53.8092145 62.81261348 -53.7277832 60.2734375 C-53.1887207 57.828125 -53.1887207 57.828125 -51.2199707 56.3828125 C-48.91412655 54.94470416 -48.91412655 54.94470416 -48.4309082 52.015625 C-48.30973633 50.96375 -48.18856445 49.911875 -48.0637207 48.828125 C-47.37706151 43.11063621 -47.37706151 43.11063621 -45.1887207 39.828125 C-44.1987207 39.828125 -43.2087207 39.828125 -42.1887207 39.828125 C-42.14384521 38.8901709 -42.09896973 37.9522168 -42.05273438 36.98583984 C-41.87884652 33.48512872 -41.69294368 29.98547654 -41.49902344 26.48583984 C-41.41774627 24.97502169 -41.34117808 23.46394218 -41.26953125 21.95263672 C-41.16532654 19.77224294 -41.04386207 17.59337041 -40.91918945 15.4140625 C-40.85111084 14.1048584 -40.78303223 12.7956543 -40.71289062 11.44677734 C-39.99478715 6.48928794 -38.83909563 3.15421023 -34.87646484 -0.02978516 C-25.26024476 -4.11595807 -10.28592876 -0.76649286 0 0 Z " fill="#FEA796" transform="translate(116.188720703125,203.171875)"/>
<path d="M0 0 C4.25280801 1.59986587 6.81299746 4.81778705 9.75 8.125 C10.83116442 9.31328926 11.91319407 10.50079188 12.99609375 11.6875 C14.67750304 13.54012057 16.3568725 15.39454618 18.03515625 17.25 C24.87088154 24.46131459 33.34262661 30.74906549 41.95703125 35.69921875 C42.63121094 36.12847656 43.30539062 36.55773437 44 37 C44 37.66 44 38.32 44 39 C43.24074219 39.24234375 42.48148437 39.4846875 41.69921875 39.734375 C40.70535156 40.06953125 39.71148437 40.4046875 38.6875 40.75 C37.70136719 41.07484375 36.71523438 41.3996875 35.69921875 41.734375 C32.7848521 43.10087977 31.66598799 44.29348026 30 47 C31.010625 46.566875 32.02125 46.13375 33.0625 45.6875 C33.70316406 45.41679687 34.34382813 45.14609375 35.00390625 44.8671875 C36.85686733 44.06218288 38.68020265 43.1899023 40.5 42.3125 C46.92138399 39.904481 51.81148714 40.99385931 58.0625 43.4375 C69.01515182 47.68543457 83.85362635 49.6195548 95.13671875 45.0625 C97.93028658 43.46952212 100.26372178 41.51532824 102.58984375 39.3046875 C105.6715518 36.45346731 108.73187051 36.65705449 112.74609375 36.734375 C116.31267085 37.15469951 117.71894926 38.24932116 120 41 C124.59385745 49.29498146 124.24644143 59.92190527 122.05078125 68.8671875 C118.75531364 78.70161136 115.33571874 84.33214063 106 89 C105.20078125 89.18175781 104.4015625 89.36351562 103.578125 89.55078125 C99.45149678 91.87044651 98.22388342 95.76445298 96.25 99.9375 C92.25708024 107.92259346 88.13826526 114.45887796 82 121 C81.24332031 121.84691406 80.48664063 122.69382812 79.70703125 123.56640625 C66.28352839 137.90962709 46.19376364 148.52391137 26.4375 149.5625 C18.50657053 149.3275791 13.40782282 146.43931841 7.88671875 140.8671875 C-8.63712539 121.42359615 -21.74285318 89.79416282 -22.3125 64.25 C-22.34988281 63.14140625 -22.38726562 62.0328125 -22.42578125 60.890625 C-22 58 -22 58 -20.16796875 56.171875 C-16.93238439 54.42291048 -14.38858456 53.87667671 -10.76953125 53.90234375 C-9.56586914 53.90717773 -9.56586914 53.90717773 -8.33789062 53.91210938 C-7.08782227 53.92467773 -7.08782227 53.92467773 -5.8125 53.9375 C-4.5450293 53.94426758 -4.5450293 53.94426758 -3.25195312 53.95117188 C-1.16793845 53.96294597 0.91603977 53.9808811 3 54 C3 53.34 3 52.68 3 52 C-5.66329943 49.83417514 -13.6819476 51.22731587 -22 54 C-23.28552729 35.68123613 -13.44153118 17.45953812 -3 3 C-2.02719612 1.97352418 -1.03665906 0.9619449 0 0 Z " fill="#FDA796" transform="translate(227,86)"/>
<path d="M0 0 C2.61596002 0.65399 3.45155853 1.62452428 5.25 3.5625 C4.8375 4.75875 4.425 5.955 4 7.1875 C0.81867344 16.76163442 -2.33606401 26.54850629 -3.75 36.5625 C-3.86988281 37.35914063 -3.98976563 38.15578125 -4.11328125 38.9765625 C-5.15672073 51.86610903 6.05150883 62.38231283 13.72119141 71.69091797 C16.09006823 74.59091953 18.38679475 77.54585743 20.6875 80.5 C29.22872443 91.40879734 37.94926516 102.17521607 47 112.66625977 C50.25 116.45731645 50.25 116.45731645 50.25 117.5625 C40.27076743 117.84160397 30.29247541 118.05428295 20.31012249 118.18424606 C15.67368083 118.24665328 11.03992499 118.33115433 6.4050293 118.46777344 C1.9243707 118.59900649 -2.55372064 118.67007686 -7.03615379 118.70102692 C-8.7384094 118.72305414 -10.44053775 118.76607454 -12.14168739 118.83126068 C-26.18653395 119.34760967 -26.18653395 119.34760967 -31.10409546 114.96057129 C-33.07208005 112.91848009 -34.67586704 110.84991816 -36.38322449 108.56134033 C-42.32607406 101.03140904 -51.95018314 97.42449114 -60.5 93.5625 C-71.55533779 88.53534883 -78.30156718 81.85119058 -84.75 71.5625 C-85.25917969 70.78519531 -85.76835937 70.00789063 -86.29296875 69.20703125 C-89.45680105 64.05804927 -90.29810048 60.5916053 -89.75 54.5625 C-86.75 54.5625 -86.75 54.5625 -84.6640625 56.64453125 C-83.90867188 57.54558594 -83.15328125 58.44664062 -82.375 59.375 C-79.40973685 62.90580303 -76.83508728 65.39004192 -72.75 67.5625 C-73.767335 66.3720016 -74.78912764 65.1853126 -75.8125 64 C-76.44414062 63.26523437 -77.07578125 62.53046875 -77.7265625 61.7734375 C-79.60977993 59.71571343 -81.58571842 57.95226317 -83.6875 56.125 C-86.40597513 53.4555064 -87.26262091 51.69735727 -87.4375 47.875 C-87.36289743 44.64413505 -86.91816371 43.74931284 -84.70703125 41.29296875 C-84.06121094 40.72191406 -83.41539062 40.15085937 -82.75 39.5625 C-81.82380859 40.23345703 -81.82380859 40.23345703 -80.87890625 40.91796875 C-75.34869522 44.86571452 -69.76823561 48.40801418 -63.75 51.5625 C-65.77732078 49.41635763 -67.78605763 47.78212872 -70.2890625 46.22265625 C-70.95164063 45.79919922 -71.61421875 45.37574219 -72.296875 44.93945312 C-73.68612134 44.0607287 -75.07940108 43.18834989 -76.4765625 42.32226562 C-77.1365625 41.89751953 -77.7965625 41.47277344 -78.4765625 41.03515625 C-79.08064941 40.65625244 -79.68473633 40.27734863 -80.30712891 39.88696289 C-82.16179988 38.18449419 -82.55728661 37.05956703 -82.75 34.5625 C-80.5 32 -80.5 32 -77.75 29.5625 C-74.81077768 26.85053714 -73.02758308 23.83834011 -71.03125 20.40234375 C-69.75 18.5625 -69.75 18.5625 -66.75 16.5625 C-60.3344703 16.00070767 -55.50973332 17.31289671 -49.5625 19.625 C-48.7367749 19.93574463 -47.9110498 20.24648926 -47.06030273 20.56665039 C-40.82262385 22.97992625 -35.07295589 25.86244142 -29.31640625 29.27734375 C-26.63226401 30.86100527 -26.63226401 30.86100527 -22.75 30.5625 C-22.21427368 29.51908447 -22.21427368 29.51908447 -21.66772461 28.45458984 C-20.02330815 25.27384811 -18.35571121 22.10582228 -16.6875 18.9375 C-16.12611328 17.84308594 -15.56472656 16.74867188 -14.98632812 15.62109375 C-7.51788818 1.53774986 -7.51788818 1.53774986 0 0 Z " fill="#FEA696" transform="translate(319.75,348.4375)"/>
<path d="M0 0 C1.09699219 0.02835938 2.19398437 0.05671875 3.32421875 0.0859375 C4.92716797 0.16714844 4.92716797 0.16714844 6.5625 0.25 C8.04943359 0.31960937 8.04943359 0.31960937 9.56640625 0.390625 C10.77103516 0.69226563 10.77103516 0.69226563 12 1 C13.17578125 3 13.17578125 3 14 5 C16.55519921 5.81171228 16.55519921 5.81171228 19 6 C19.33 5.01 19.66 4.02 20 3 C22.68777802 2.9455793 25.37443212 2.90612734 28.0625 2.875 C28.81466797 2.85824219 29.56683594 2.84148437 30.34179688 2.82421875 C35.21786606 2.7820017 39.41824911 3.12692191 44 5 C46.77577366 7.73947484 47.91396537 9.2997826 48.39404297 13.20703125 C48.31887451 14.99173828 48.31887451 14.99173828 48.2421875 16.8125 C48.20751877 17.78775635 48.20751877 17.78775635 48.17214966 18.78271484 C48.11932993 20.15812488 48.05653225 21.53318364 47.984375 22.90771484 C47.8768015 24.96553831 47.79878515 27.02269623 47.7265625 29.08203125 C47.39160204 37.49477979 46.47783975 45.71132375 45 54 C44.360625 54.144375 43.72125 54.28875 43.0625 54.4375 C41.02454854 54.81007181 41.02454854 54.81007181 40 56 C39.42775165 61.86554562 39.90202725 67.2142569 41.5 72.875 C43.2678355 79.38763927 43.2895378 85.29119722 43 92 C42.95644255 93.61196337 42.91351464 95.22394382 42.87109375 96.8359375 C42.81193139 98.53653037 42.75073906 100.23705385 42.6875 101.9375 C42.66526367 102.7426001 42.64302734 103.5477002 42.62011719 104.37719727 C42.35166378 110.16647964 41.41064579 114.61942464 37.12109375 118.85546875 C29.9047528 122.74936912 18.22703718 119.61333657 10.30102539 118.77807617 C5.65554861 118.29973743 1.04381015 117.92922518 -3.625 117.78515625 C-4.97851562 117.74152954 -4.97851562 117.74152954 -6.359375 117.69702148 C-8.07775544 117.65015367 -9.79665606 117.6188921 -11.515625 117.60571289 C-16.59659317 117.46217975 -19.32113112 116.83215509 -23 113 C-25.29626684 109.55559973 -25.24351772 108.2360534 -25.1875 104.1875 C-25.18105469 103.17042969 -25.17460938 102.15335937 -25.16796875 101.10546875 C-25 98 -25 98 -24.5300293 95.41748047 C-23.84855288 91.02351137 -23.60211557 86.65148151 -23.3515625 82.21484375 C-23.23403876 80.23615633 -23.11635636 78.25747833 -22.99853516 76.27880859 C-22.93788879 75.2435907 -22.87724243 74.2083728 -22.8147583 73.14178467 C-22.30101169 64.46658893 -21.74253217 55.79404647 -21.1953125 47.12091064 C-21.00960999 44.15355867 -20.82850341 41.18596026 -20.6484375 38.21826172 C-20.38396649 33.89579108 -20.09596465 29.57552725 -19.78875732 25.25588989 C-19.68037855 23.68015625 -19.58003606 22.10384741 -19.48809814 20.52706909 C-19.35971219 18.34669932 -19.20298853 16.17013302 -19.0390625 13.9921875 C-18.95865723 12.77901855 -18.87825195 11.56584961 -18.79541016 10.31591797 C-17.75343407 5.97211218 -16.10205664 4.18133865 -13 1 C-9.09760973 -0.95119513 -4.27827873 -0.11605688 0 0 Z " fill="#EBF1F2" transform="translate(98,209)"/>
<path d="M0 0 C1.09240124 3.49366788 1.0577062 6.63269902 0.95703125 10.27734375 C0.93576172 11.51419922 0.91449219 12.75105469 0.89257812 14.02539062 C0.83990651 16.59859183 0.77514205 19.17157887 0.69726562 21.74414062 C0.54195596 32.88617119 2.09509468 43.58827751 9.40625 52.41015625 C11.7407613 54.73894571 14.13954799 56.36545599 17 58 C13.18005343 67.83240685 -2.15774662 76.26698961 -11.21484375 80.50390625 C-22.61884358 85.35578981 -36.49288007 87.88368596 -48.5625 83.5 C-59.75202883 77.95388571 -70.64542124 67.37847987 -76 56 C-76 55.01 -76 54.02 -76 53 C-74.17588836 51.63757419 -72.24257898 50.64997177 -70.23828125 49.57421875 C-67.75359514 47.99596035 -67.75359514 47.99596035 -65.68359375 44.94921875 C-62.40512883 41.34624784 -60.48703801 40.97843397 -55.75 40.125 C-42.02672695 37.23454658 -29.81836718 30.89276785 -19 22 C-18.22398437 21.38640625 -17.44796875 20.7728125 -16.6484375 20.140625 C-10.09967192 14.69457253 -3.8385821 7.6771642 0 0 Z " fill="#FEA696" transform="translate(320,195)"/>
<path d="M0 0 C2.76789485 0.20453757 5.53651633 0.39560131 8.30541992 0.5859375 C10.08737988 0.7153371 11.86928335 0.84551733 13.65112305 0.9765625 C14.87628883 1.05951065 14.87628883 1.05951065 16.12620544 1.14413452 C27.82184691 2.04810655 27.82184691 2.04810655 32.1862793 5.953125 C35.75118849 12.26027203 34.84447121 19.66490317 34.32299805 26.65625 C34.22810844 28.02339142 34.22810844 28.02339142 34.13130188 29.41815186 C33.99634632 31.33112774 33.8574676 33.24383054 33.71484375 35.15625 C33.49844799 38.08260537 33.29961539 41.00980346 33.10229492 43.9375 C32.96858038 45.802159 32.83385021 47.66674552 32.69799805 49.53125 C32.63956223 50.40420715 32.5811264 51.27716431 32.5209198 52.17657471 C32.42621147 53.39869659 32.42621147 53.39869659 32.32958984 54.64550781 C32.25178535 55.71517792 32.25178535 55.71517792 32.17240906 56.80645752 C31.76408733 59.09231386 30.9357155 60.80774652 29.8112793 62.828125 C27.8112793 60.828125 27.8112793 60.828125 27.58959961 58.13500977 C27.61425293 56.4381604 27.61425293 56.4381604 27.6394043 54.70703125 C27.65680664 53.4452002 27.67420898 52.18336914 27.69213867 50.88330078 C27.79647618 46.87152342 27.97406344 42.86366318 28.1706543 38.85546875 C28.20211548 38.19116852 28.23357666 37.52686829 28.26599121 36.84243774 C28.53033851 31.28367077 28.53033851 31.28367077 28.68579102 28.6809082 C28.80428921 26.65620707 28.89602357 24.63173064 28.9831543 22.60546875 C29.04599609 21.42202881 29.10883789 20.23858887 29.17358398 19.01928711 C28.73083458 15.11957186 27.5783969 13.55579286 24.8112793 10.828125 C20.01506591 9.38926098 14.9132582 9.71079388 9.9362793 9.765625 C9.1525293 9.77013672 8.3687793 9.77464844 7.5612793 9.77929688 C5.64457916 9.79098407 3.72791881 9.80891592 1.8112793 9.828125 C1.4812793 10.488125 1.1512793 11.148125 0.8112793 11.828125 C-1.5637207 11.953125 -1.5637207 11.953125 -4.1887207 11.828125 C-4.8487207 11.168125 -5.5087207 10.508125 -6.1887207 9.828125 C-6.1887207 8.838125 -6.1887207 7.848125 -6.1887207 6.828125 C-9.91762326 6.7116388 -13.64605584 6.64077924 -17.3762207 6.578125 C-18.43131836 6.54460937 -19.48641602 6.51109375 -20.57348633 6.4765625 C-26.76710326 6.34796297 -26.76710326 6.34796297 -32.36450195 8.71875 C-35.26404133 12.07153643 -35.41043583 14.33728236 -35.74536133 18.70458984 C-35.84216187 19.94123383 -35.9389624 21.17787781 -36.03869629 22.45199585 C-36.14095145 23.81433912 -36.24303826 25.17669504 -36.3449707 26.5390625 C-36.45295648 27.94562984 -36.56123776 29.35217453 -36.6697998 30.75869751 C-36.89766062 33.72272625 -37.12262753 36.6869562 -37.34545898 39.65136719 C-37.62661269 43.39004089 -37.91366335 47.12823051 -38.20274353 50.86629868 C-39.80207642 71.36750577 -39.80207642 71.36750577 -40.87268066 91.90170288 C-41.03789628 95.9556493 -41.45800666 99.83853568 -42.1887207 103.828125 C-42.90151983 111.74789288 -42.90151983 111.74789288 -40.3137207 119.015625 C-36.29402071 122.44419264 -32.44999681 122.07875175 -27.3762207 122.265625 C-19.94835789 122.57872592 -12.58355508 123.12894834 -5.1887207 123.890625 C8.00560998 126.12572624 8.00560998 126.12572624 19.9987793 122.515625 C22.771203 118.40478985 23.02794709 115.05366335 23.34643555 110.19140625 C23.43344727 108.89267578 23.52045898 107.59394531 23.61010742 106.25585938 C23.69808354 104.88412006 23.78597305 103.5123752 23.8737793 102.140625 C23.96521344 100.75713744 24.05700613 99.37367352 24.14916992 97.99023438 C24.37340656 94.603081 24.59395898 91.21572801 24.8112793 87.828125 C30.62396893 96.54715945 28.03470612 110.39657594 27.1237793 120.453125 C27.04389771 121.57098389 27.04389771 121.57098389 26.96240234 122.71142578 C26.3866239 128.21968546 24.73378508 130.91164457 20.8112793 134.828125 C17.93903946 136.26424492 15.45077968 135.96003331 12.2487793 135.953125 C11.07186523 135.95570313 9.89495117 135.95828125 8.68237305 135.9609375 C5.29836665 135.84483637 2.01865013 135.49930785 -1.33935547 135.09570312 C-5.0588731 134.74641075 -8.78154376 134.59054694 -12.51293945 134.43359375 C-14.0513603 134.36413992 -15.58977162 134.29447487 -17.12817383 134.22460938 C-19.5108942 134.11705346 -21.89323683 134.01501413 -24.27685547 133.92944336 C-26.6066412 133.84373857 -28.93435526 133.73443477 -31.26293945 133.62109375 C-31.96932053 133.60112839 -32.6757016 133.58116302 -33.40348816 133.56059265 C-38.3860717 133.28956158 -41.33648327 131.96005734 -45.1887207 128.828125 C-47.56284027 125.26694565 -48.46482478 122.22587089 -47.96606445 117.89453125 C-47.25836003 110.88182383 -50.44081486 106.52263196 -54.2434082 100.94140625 C-57.81142166 95.23115178 -58.50436243 91.40633363 -57.1887207 84.828125 C-56.9824707 84.02375 -56.7762207 83.219375 -56.5637207 82.390625 C-56.20088601 79.91125463 -56.33943199 78.16158017 -56.6887207 75.703125 C-57.1887207 71.828125 -57.1887207 71.828125 -56.1887207 68.828125 C-55.1987207 68.333125 -55.1987207 68.333125 -54.1887207 67.828125 C-53.8724101 65.30667764 -53.8092145 62.81261348 -53.7277832 60.2734375 C-53.1887207 57.828125 -53.1887207 57.828125 -51.2199707 56.3828125 C-48.91412655 54.94470416 -48.91412655 54.94470416 -48.4309082 52.015625 C-48.30973633 50.96375 -48.18856445 49.911875 -48.0637207 48.828125 C-47.37706151 43.11063621 -47.37706151 43.11063621 -45.1887207 39.828125 C-44.1987207 39.828125 -43.2087207 39.828125 -42.1887207 39.828125 C-42.14384521 38.8901709 -42.09896973 37.9522168 -42.05273438 36.98583984 C-41.87884652 33.48512872 -41.69294368 29.98547654 -41.49902344 26.48583984 C-41.41774627 24.97502169 -41.34117808 23.46394218 -41.26953125 21.95263672 C-41.16532654 19.77224294 -41.04386207 17.59337041 -40.91918945 15.4140625 C-40.85111084 14.1048584 -40.78303223 12.7956543 -40.71289062 11.44677734 C-39.99478715 6.48928794 -38.83909563 3.15421023 -34.87646484 -0.02978516 C-25.26024476 -4.11595807 -10.28592876 -0.76649286 0 0 Z " fill="#482751" transform="translate(116.188720703125,203.171875)"/>
<path d="M0 0 C0.99 0 1.98 0 3 0 C3.0784613 7.9471259 2.87428546 15.82671515 2.37890625 23.7578125 C2.31468979 24.82691864 2.25047333 25.89602478 2.18431091 26.99752808 C2.04898502 29.23787677 1.91192729 31.47812149 1.77319336 33.71826172 C1.56261585 37.12312676 1.35802535 40.52831273 1.15429688 43.93359375 C1.02118549 46.12502142 0.88773352 48.31642843 0.75390625 50.5078125 C0.6934462 51.51224396 0.63298615 52.51667542 0.57069397 53.55154419 C0.18598117 59.71825171 -0.33781481 65.85685138 -1 72 C-7.51238739 65.94764881 -12.52568312 57.91315398 -13.22265625 48.9375 C-13 47 -13 47 -11.96875 45.09765625 C-10.68276666 42.31308749 -11.0393482 40.45442344 -11.4375 37.4375 C-12.09980431 32.29941292 -12.09980431 32.29941292 -11 29 C-10.34 28.67 -9.68 28.34 -9 28 C-8.6836894 25.47855264 -8.6204938 22.98448848 -8.5390625 20.4453125 C-8 18 -8 18 -6.03125 16.5546875 C-3.72540585 15.11657916 -3.72540585 15.11657916 -3.2421875 12.1875 C-3.12101562 11.135625 -2.99984375 10.08375 -2.875 9 C-2.18834081 3.28251121 -2.18834081 3.28251121 0 0 Z " fill="#FBA595" transform="translate(71,243)"/>
<path d="M0 0 C1.49385098 4.33509695 0.21015794 6.65491972 -1.71484375 10.62890625 C-5.83446201 18.22953932 -10.70370927 23.89030963 -19 27 C-24.96395567 27.91106256 -30.03620098 27.89576797 -35.5625 25.375 C-38.27456336 22.73247672 -40.07834108 20.25203818 -42 17 C-33.71932543 13.52247068 -25.40579738 10.13674326 -17.0625 6.8125 C-15.96615234 6.37486328 -14.86980469 5.93722656 -13.74023438 5.48632812 C-11.71769163 4.67903654 -9.69500588 3.87210305 -7.67211914 3.06567383 C-5.11406093 2.0454889 -2.55683174 1.02325432 0 0 Z " fill="#EDF1F1" transform="translate(285,184)"/>
<path d="M0 0 C0.66 0 1.32 0 2 0 C0.97621891 5.30504745 -0.3994511 10.27553158 -2.1875 15.375 C-6.21464478 27.02544578 -9.01578125 39.05077166 -12 51 C-12.24282715 51.96341309 -12.4856543 52.92682617 -12.73583984 53.91943359 C-20.19336666 83.62676125 -24.03509077 113.46100675 -26 144 C-26.33 144 -26.66 144 -27 144 C-29.30185281 131.92732132 -27.91113507 119.52563479 -26.375 107.4375 C-26.2434552 106.37876678 -26.2434552 106.37876678 -26.10925293 105.29864502 C-21.84524664 71.30329981 -15.49805654 30.99611308 0 0 Z " fill="#581F45" transform="translate(195,300)"/>
<path d="M0 0 C0.66 0 1.32 0 2 0 C1.68409263 5.7916352 0.48496247 10.96018779 -1.23828125 16.48046875 C-4.36413305 26.82616439 -6.71506706 37.31673784 -9 47.875 C-9.21622009 48.86526184 -9.43244019 49.85552368 -9.6552124 50.87579346 C-13.69600993 69.47242088 -16.71560834 88.11198112 -19 107 C-21 105 -21 105 -21.21875 101.07421875 C-21.08777487 95.58526941 -20.35239917 90.23046577 -19.5 84.8125 C-19.32694336 83.7080957 -19.15388672 82.60369141 -18.97558594 81.46582031 C-8.44416193 16.88832386 -8.44416193 16.88832386 0 0 Z " fill="#5C1E43" transform="translate(363,327)"/>
<path d="M0 0 C0.495 0.99 0.495 0.99 1 2 C0.34 2 -0.32 2 -1 2 C-1.22945313 2.69738281 -1.45890625 3.39476562 -1.6953125 4.11328125 C-9.94886091 22.37487488 -30.23973823 33.80077024 -48 40.9375 C-52.36660335 42.5419979 -56.36133301 43.67637207 -61 44 C-61 43.01 -61 42.02 -61 41 C-60.030625 40.731875 -59.06125 40.46375 -58.0625 40.1875 C-43.57008544 36.01787431 -30.21335878 30.33118894 -19 20 C-18.22140625 19.28972656 -17.4428125 18.57945312 -16.640625 17.84765625 C-11.86754051 13.29080209 -8.06021479 8.52903184 -4.5078125 2.96875 C-3 1 -3 1 0 0 Z " fill="#573055" transform="translate(321,193)"/>
<path d="M0 0 C0.66 0 1.32 0 2 0 C6.0219152 15.70462125 6.0219152 15.70462125 5 21 C2.5845076 23.44706746 -0.04502796 25.25867719 -3 27 C-2.67039784 32.01535052 -2.67039784 32.01535052 0 36 C2.95788569 36.4167552 2.95788569 36.4167552 6 36 C7.7511573 34.5833253 7.7511573 34.5833253 9 33 C9.66 33 10.32 33 11 33 C10.6875 34.875 10.6875 34.875 10 37 C6.30670342 39.46219772 3.2850656 39.79198683 -1 39 C-3.9838283 37.01078114 -5.60276841 35.61497432 -6.4765625 32.0625 C-6.77202976 27.95706014 -6.2983264 26.37895515 -3.6875 23.0625 C-1 21 -1 21 2 20 C1.855625 18.741875 1.71125 17.48375 1.5625 16.1875 C0.96183814 10.79870505 0.47449461 5.40116209 0 0 Z " fill="#F98D86" transform="translate(245,150)"/>
<path d="M0 0 C2.6875 0.375 2.6875 0.375 5 2.4375 C7.06467661 6.03156669 7.07285311 8.29025704 6.6875 12.375 C6.3575 13.035 6.0275 13.695 5.6875 14.375 C3.4375 14.6875 3.4375 14.6875 0.6875 14.375 C-1.79991914 12.22371859 -3.14495372 10.61298087 -3.59375 7.296875 C-3.625 5.125 -3.625 5.125 -3.3125 1.375 C-2.3125 0.375 -2.3125 0.375 0 0 Z " fill="#49264F" transform="translate(221.3125,149.625)"/>
<path d="M0 0 C5.4375 0.3625 5.4375 0.3625 7.875 3.125 C9.2474356 6.63233543 9.35247333 9.2637827 9 13 C8.34 13.66 7.68 14.32 7 15 C4.60922098 14.76863429 3.29482585 14.23586068 1.41796875 12.734375 C-0.34324972 10.58015736 -0.5143674 9.18805746 -0.75 6.4375 C-0.82734375 5.65246094 -0.9046875 4.86742187 -0.984375 4.05859375 C-1 2 -1 2 0 0 Z " fill="#48264F" transform="translate(267,137)"/>
<path d="M0 0 C2.3125 1.75 2.3125 1.75 4 4 C4 5.32 4 6.64 4 8 C3.34 8 2.68 8 2 8 C1.34 6.68 0.68 5.36 0 4 C-2.37374861 3.66574265 -2.37374861 3.66574265 -5 4 C-6.84315671 5.9004467 -6.84315671 5.9004467 -8 8 C-6.865625 8.5775 -5.73125 9.155 -4.5625 9.75 C-1.13016257 11.68760984 -1.13016257 11.68760984 -0.0625 14.25 C-0.041875 14.8275 -0.02125 15.405 0 16 C-3.875 14.125 -3.875 14.125 -5 13 C-6.66617115 12.95936168 -8.33388095 12.957279 -10 13 C-10.33 15.64 -10.66 18.28 -11 21 C-11.66 21 -12.32 21 -13 21 C-13.5133919 14.04068763 -13.06336588 8.82276142 -9 3 C-6.17013143 0.07884535 -4.04097261 -0.70717021 0 0 Z " fill="#F98E87" transform="translate(339,138)"/>
<path d="M0 0 C5.24284116 4.3690343 10.51941304 8.83277764 15 14 C15 14.66 15 15.32 15 16 C11.02459608 15.45666461 9.19220992 13.56530421 6.4375 10.75 C5.67308594 9.98171875 4.90867188 9.2134375 4.12109375 8.421875 C2.05976525 6.06824025 0.51496758 3.72984574 -1 1 C-0.67 0.67 -0.34 0.34 0 0 Z " fill="#5B3255" transform="translate(232,400)"/>
<path d="M0 0 C4.75940556 1.6265153 8.66614359 4.22253637 12.8125 7 C13.50537109 7.45117188 14.19824219 7.90234375 14.91210938 8.3671875 C16.64654913 9.52234147 18.32859656 10.75538259 20 12 C20 12.66 20 13.32 20 14 C16.30345441 13.34766842 13.69306017 11.71519986 10.5625 9.6875 C9.63566406 9.09324219 8.70882812 8.49898438 7.75390625 7.88671875 C5.04666958 6.03197363 2.46409493 4.16894018 0 2 C0 1.34 0 0.68 0 0 Z " fill="#542D52" transform="translate(236,386)"/>
<path d="M0 0 C8.06303849 0.51193895 14.26027394 2.50684929 21 7 C21 7.66 21 8.32 21 9 C10.5 5.5 10.5 5.5 0 2 C0 1.34 0 0.68 0 0 Z " fill="#5F3658" transform="translate(245,377)"/>
<path d="M0 0 C0.33 0 0.66 0 1 0 C0.67 8.91 0.34 17.82 0 27 C-0.33 27 -0.66 27 -1 27 C-1.87606304 22.45848918 -2.16400755 18.1233143 -2.1875 13.5 C-2.20167969 12.2315625 -2.21585938 10.963125 -2.23046875 9.65625 C-2.00497105 6.07886272 -1.29766722 3.3236694 0 0 Z " fill="#6B2A4A" transform="translate(169,417)"/>
<path d="M0 0 C0.99 0 1.98 0 3 0 C2.85691406 0.84820312 2.71382812 1.69640625 2.56640625 2.5703125 C1.99968273 6.00192112 1.4637299 9.43696464 0.9375 12.875 C0.76089844 14.02742188 0.58429688 15.17984375 0.40234375 16.3671875 C0.26957031 17.23601562 0.13679687 18.10484375 0 19 C-0.99 19 -1.98 19 -3 19 C-2.48446121 12.50149789 -1.53332291 6.33773468 0 0 Z " fill="#671D3F" transform="translate(174,375)"/>
<path d="M0 0 C1.19587778 3.58763335 0.68815865 5.03021679 -0.3125 8.625 C-0.57675781 9.60726563 -0.84101563 10.58953125 -1.11328125 11.6015625 C-2 14 -2 14 -4 15 C-3.40546697 4.44191344 -3.40546697 4.44191344 0 0 Z " fill="#521F47" transform="translate(360,342)"/>
<path d="M0 0 C4.1666604 0.47348414 6.92884715 1.04696841 10 4 C10 4.66 10 5.32 10 6 C5.56909529 4.79157144 3.01887244 3.48331435 0 0 Z " fill="#512C52" transform="translate(256,380)"/>
<path d="M0 0 C0.33 0 0.66 0 1 0 C1 2.97 1 5.94 1 9 C0.01 9.33 -0.98 9.66 -2 10 C-1.85950482 8.52031676 -1.71245174 7.04125484 -1.5625 5.5625 C-1.48128906 4.73878906 -1.40007812 3.91507812 -1.31640625 3.06640625 C-1 1 -1 1 0 0 Z " fill="#5C1E43" transform="translate(170,408)"/>
<path d="M0 0 C-2.76223278 2.76223278 -5.20706617 2.57856291 -9 3 C-9 2.01 -9 1.02 -9 0 C-5.67465243 -1.10844919 -3.37817425 -0.84454356 0 0 Z " fill="#613758" transform="translate(269,234)"/>
<path d="M0 0 C0.33 0.66 0.66 1.32 1 2 C1.66 2 2.32 2 3 2 C2.67 4.97 2.34 7.94 2 11 C1.01 10.67 0.02 10.34 -1 10 C-0.67 6.7 -0.34 3.4 0 0 Z " fill="#6D1C3D" transform="translate(344,410)"/>
<path d="M0 0 C0.33 0.66 0.66 1.32 1 2 C0.34 2 -0.32 2 -1 2 C-1.66 3.65 -2.32 5.3 -3 7 C-3.99 7 -4.98 7 -6 7 C-4.6875 4.0625 -4.6875 4.0625 -3 1 C-2.01 0.67 -1.02 0.34 0 0 Z " fill="#502B52" transform="translate(321,193)"/>
</svg>