<svg xmlns="http://www.w3.org/2000/svg" version="1.1" viewBox="16.68 73.6 469.32 385.4">
<path d="M0 0 C0.64382887 -0.00382555 1.28765774 -0.00765109 1.95099658 -0.01159257 C4.10036483 -0.02188064 6.24946385 -0.01793847 8.39884949 -0.01396179 C9.94323981 -0.01831067 11.48762797 -0.02349441 13.03201294 -0.02944946 C17.22222736 -0.04283374 21.41235154 -0.04341863 25.60258317 -0.04088616 C29.10391486 -0.03981578 32.60522833 -0.04470169 36.10655612 -0.04949158 C44.37001674 -0.0605854 52.6334319 -0.06102528 60.89689636 -0.05497742 C69.41235218 -0.04894075 77.92764263 -0.06124111 86.44307023 -0.08254749 C93.76129292 -0.10018287 101.07946307 -0.10616168 108.39770621 -0.10290974 C112.76528302 -0.10109938 117.13274194 -0.10370809 121.50029945 -0.11762428 C125.61010214 -0.13022909 129.7196479 -0.12823356 133.82944679 -0.11521339 C135.33383268 -0.1128536 136.8382368 -0.11556085 138.34260178 -0.12383652 C155.76375863 -0.2127255 155.76375863 -0.2127255 161.51286316 5.19819641 C161.96790222 5.87882141 162.42294128 6.55944641 162.89176941 7.26069641 C163.36485535 7.94132141 163.83794128 8.62194641 164.32536316 9.32319641 C166.78205759 13.53953011 166.59917473 17.54004775 166.56642151 22.26275635 C166.56315743 23.09681092 166.55989335 23.9308655 166.55653036 24.79019445 C166.47447714 36.60748886 166.04920402 48.41749803 165.65983582 60.22773743 C165.57417179 62.89407627 165.48874118 65.56042175 165.40356445 68.22677612 C165.17333968 75.41215505 164.93855088 82.59738023 164.70277071 89.78257871 C164.55529382 94.27752389 164.40880645 98.77250098 164.26250839 103.26748466 C163.85629338 115.74381243 163.44904905 128.2201054 163.0375309 140.6962595 C163.01132552 141.49076684 162.98512015 142.28527419 162.95812067 143.10385751 C162.90501057 144.71396285 162.85190004 146.32406817 162.7987891 147.93417347 C162.75925283 149.13281283 162.75925283 149.13281283 162.71891785 150.35566711 C162.69252693 151.1557467 162.66613602 151.95582628 162.63894539 152.7801507 C162.21047119 165.77617259 161.7897343 178.77243253 161.37232633 191.76881409 C160.94241323 205.15127945 160.50623896 218.53352869 160.063743 231.91558403 C159.81594241 239.41387963 159.57077262 246.91224006 159.33249283 254.4108448 C159.12988957 260.78565288 158.92152692 267.16024047 158.70574404 273.5346166 C158.59597062 276.78237589 158.48975903 280.03018137 158.38905907 283.27823639 C158.27925256 286.80574234 158.15912136 290.33275396 158.03645325 293.85983276 C158.0072604 294.87608201 157.97806754 295.89233126 157.94799006 296.93937594 C157.28035105 314.99765864 157.28035105 314.99765864 151.45426941 321.26069641 C143.48925606 326.875164 135.58003003 326.96794783 126.14152527 326.87593079 C124.61772037 326.87943814 123.09391916 326.88510362 121.57012939 326.89274597 C117.45843154 326.90691441 113.34740885 326.89001194 109.23577571 326.8664608 C104.91851946 326.84625199 100.60128853 326.85223649 96.28399658 326.85456848 C89.03717509 326.85451502 81.79061531 326.83482503 74.54386902 326.8026886 C66.18224087 326.76578685 57.82095507 326.75701622 49.45925611 326.76398611 C41.39251485 326.7703049 33.32589015 326.75951228 25.25917244 326.74002075 C21.8363484 326.73187587 18.41358418 326.72913181 14.99075127 326.73071289 C10.95634175 326.73159589 6.92225437 326.71726466 2.88792992 326.69148636 C1.41300265 326.68436307 -0.06195898 326.6822223 -1.53689957 326.6856041 C-19.29466695 326.71853622 -19.29466695 326.71853622 -25.70198059 321.50679016 C-26.14541809 320.90995422 -26.58885559 320.31311829 -27.04573059 319.69819641 C-27.50979309 319.09878235 -27.97385559 318.49936829 -28.45198059 317.88179016 C-30.94611826 314.18512183 -30.69027503 310.86420176 -30.67854309 306.54194641 C-30.67997818 305.38317993 -30.67997818 305.38317993 -30.68144226 304.20100403 C-30.6821238 302.56009337 -30.6802713 300.91918003 -30.67610168 299.27827454 C-30.67081101 296.7983928 -30.6760171 294.31869705 -30.68244934 291.83882141 C-30.68545149 283.91073639 -30.55449234 276.13864533 -29.54573059 268.26069641 C-30.40738831 268.29997253 -30.40738831 268.29997253 -31.28645325 268.34004211 C-33.9142623 268.44461441 -36.5416329 268.50920586 -39.17073059 268.57319641 C-40.0743634 268.61509094 -40.97799622 268.65698547 -41.90901184 268.70014954 C-46.36482084 268.78145992 -49.5538704 268.78042441 -53.13166809 265.92866516 C-60.64262741 257.62771821 -56.30001856 236.84400827 -55.76716614 226.0160675 C-55.68307334 224.25007998 -55.59928104 222.48407812 -55.51576233 220.71806335 C-55.29024158 215.97475818 -55.05958246 211.23171789 -54.82716346 206.48874617 C-54.68177528 203.52037159 -54.53723035 200.55195701 -54.3929081 197.58353043 C-53.94018526 188.27901524 -53.48409514 178.97467373 -53.02334374 169.67055261 C-52.49286584 158.95716016 -51.9739307 148.24328862 -51.46470994 137.52886522 C-51.06905349 129.21891245 -50.66308247 120.90950334 -50.24929267 112.60043395 C-50.00288297 107.64767468 -49.76086818 102.69479399 -49.52968407 97.74129868 C-49.31248206 93.09319454 -49.08249577 88.44589812 -48.84266663 83.79890823 C-48.75696497 82.09556027 -48.67586238 80.39197368 -48.59972572 78.68817139 C-48.4950074 76.36064057 -48.37365863 74.03454376 -48.24816895 71.70805359 C-48.18456523 70.40698355 -48.12096151 69.10591351 -48.05543041 67.7654171 C-47.37049078 63.05573899 -46.02927219 59.55438808 -42.40901184 56.39741516 C-38.44820369 54.82497973 -34.94888479 54.93538374 -30.73323059 55.07319641 C-29.94496887 55.08673157 -29.15670715 55.10026672 -28.34455872 55.11421204 C-26.4113189 55.14936185 -24.47843377 55.2031628 -22.54573059 55.26069641 C-22.55733215 54.13276672 -22.56893372 53.00483704 -22.58088684 51.84272766 C-22.64609344 42.91805318 -22.58199834 33.99374613 -22.29573059 25.07319641 C-22.28163147 24.21379456 -22.26753235 23.3543927 -22.25300598 22.46894836 C-22.0027655 16.07564719 -20.57389427 10.53932942 -16.13484192 5.73310852 C-11.06541495 1.25874942 -6.64557256 0.01186152 0 0 Z " fill="#E9E7FD" transform="translate(301.5457305908203,73.73930358886719)"/>
<path d="M0 0 C5.15315336 3.21543231 9.14899387 6.95583586 10.84765625 12.95703125 C11.76734882 18.11261555 10.99950083 21.54524773 8.5546875 26.1328125 C7.25390625 27.859375 7.25390625 27.859375 5.23828125 29.2421875 C2.65174028 31.35011656 2.17259537 33.19918146 1.19140625 36.359375 C-0.44317682 41.57881623 -0.44317682 41.57881623 -2.38671875 43.37890625 C-4.00119221 44.81387055 -4.00119221 44.81387055 -3.8203125 47.21484375 C-3.69269531 48.14941406 -3.56507812 49.08398438 -3.43359375 50.046875 C-0.62903835 76.04415825 -0.62903835 76.04415825 -7.93359375 86.359375 C-11.54459406 89.56915305 -14.03075283 90.06016467 -18.74609375 90.859375 C-18.58109375 91.375 -18.41609375 91.890625 -18.24609375 92.421875 C-17.59560375 95.59301376 -17.68402035 98.63155834 -17.74609375 101.859375 C-16.84632812 102.04371094 -15.9465625 102.22804688 -15.01953125 102.41796875 C4.14142541 106.73782371 25.68928657 114.6636694 42.03125 125.7421875 C42.76472656 126.11085938 43.49820313 126.47953125 44.25390625 126.859375 C47.20187921 125.71731037 49.29808314 124.09819237 51.58203125 121.9453125 C52.20964355 121.3562915 52.83725586 120.76727051 53.48388672 120.16040039 C54.15049316 119.52481201 54.81709961 118.88922363 55.50390625 118.234375 C56.19758301 117.58009521 56.89125977 116.92581543 57.60595703 116.25170898 C63.6023194 110.56210903 69.44219195 104.71896476 75.20019531 98.78857422 C75.8340918 98.14291504 76.46798828 97.49725586 77.12109375 96.83203125 C77.67909668 96.25718994 78.23709961 95.68234863 78.81201172 95.09008789 C80.25390625 93.859375 80.25390625 93.859375 82.25390625 93.859375 C82.86878906 92.73917969 83.48367187 91.61898437 84.1171875 90.46484375 C84.93332727 88.9920398 85.74974826 87.51939166 86.56640625 86.046875 C87.17258789 84.93989258 87.17258789 84.93989258 87.79101562 83.81054688 C88.18740234 83.09833984 88.58378906 82.38613281 88.9921875 81.65234375 C89.35352783 80.9977417 89.71486816 80.34313965 90.0871582 79.66870117 C91.29486845 77.79585316 92.62579062 76.37280575 94.25390625 74.859375 C95.57390625 75.519375 96.89390625 76.179375 98.25390625 76.859375 C98.25390625 79.169375 98.25390625 81.479375 98.25390625 83.859375 C98.83398438 83.29347656 99.4140625 82.72757812 100.01171875 82.14453125 C107.77060221 74.859375 107.77060221 74.859375 113.25390625 74.859375 C113.58390625 75.849375 113.91390625 76.839375 114.25390625 77.859375 C113.92390625 78.519375 113.59390625 79.179375 113.25390625 79.859375 C113.97578125 79.529375 114.69765625 79.199375 115.44140625 78.859375 C118.27088052 77.85333971 120.28286091 77.68960098 123.25390625 77.859375 C122.92390625 79.839375 122.59390625 81.819375 122.25390625 83.859375 C123.57390625 83.859375 124.89390625 83.859375 126.25390625 83.859375 C126.08890625 84.643125 125.92390625 85.426875 125.75390625 86.234375 C125.19153555 88.74145539 125.19153555 88.74145539 125.25390625 90.859375 C125.91390625 91.189375 126.57390625 91.519375 127.25390625 91.859375 C126.54530037 96.65288534 123.78292273 98.15831147 120.06640625 100.921875 C114.17395505 104.98111916 108.04958876 108.94726426 101.65625 112.16796875 C98.42188796 114.44516999 96.62367164 117.37172199 94.56640625 120.671875 C93.68799591 122.03111156 92.80774138 123.38915783 91.92578125 124.74609375 C91.48169922 125.43364746 91.03761719 126.12120117 90.58007812 126.82958984 C69.36180193 159.30542716 69.36180193 159.30542716 56.25390625 165.859375 C47.9512714 166.57994169 40.14598037 165.10958027 32.06640625 163.359375 C28.16828125 162.534375 24.27015625 161.709375 20.25390625 160.859375 C20.25390625 169.439375 20.25390625 178.019375 20.25390625 186.859375 C23.45013672 186.77236328 23.45013672 186.77236328 26.7109375 186.68359375 C28.77608519 186.64459355 30.84119179 186.61423799 32.90649414 186.5847168 C34.34125139 186.55957976 35.77588066 186.52546392 37.21020508 186.48217773 C39.27326995 186.42147835 41.3346424 186.39316147 43.3984375 186.37109375 C45.26012573 186.33181763 45.26012573 186.33181763 47.15942383 186.29174805 C50.25390625 186.859375 50.25390625 186.859375 51.99862671 189.00189209 C53.5749911 192.5902835 53.23825195 194.33486616 52.43286133 198.14672852 C52.05179985 200.01875694 52.05179985 200.01875694 51.66304016 201.92860413 C51.36707891 203.28195526 51.07053041 204.63517809 50.7734375 205.98828125 C50.48094982 207.38370871 50.19001291 208.77946205 49.90055847 210.17552185 C49.29068636 213.09741715 48.66835422 216.01626267 48.03588867 218.93334961 C47.22631716 222.66787716 46.43839985 226.40653025 45.6585741 230.14737034 C44.91265872 233.7209258 44.15594813 237.29216906 43.3984375 240.86328125 C43.18369246 241.88231631 43.18369246 241.88231631 42.96460915 242.92193794 C42.55632026 244.84969817 42.13930775 246.77560451 41.72192383 248.70141602 C41.36859734 250.34425316 41.36859734 250.34425316 41.00813293 252.02027893 C40.33106767 254.56892031 39.63332249 256.61969518 38.25390625 258.859375 C35.60932246 260.18166689 33.57629324 259.95614694 30.62890625 259.921875 C29.62601563 259.91285156 28.623125 259.90382813 27.58984375 259.89453125 C26.43355469 259.87712891 26.43355469 259.87712891 25.25390625 259.859375 C25.47046875 261.43525391 25.47046875 261.43525391 25.69140625 263.04296875 C26.66896119 270.36156191 27.5182334 277.45821491 27.25390625 284.859375 C25.60390625 284.859375 23.95390625 284.859375 22.25390625 284.859375 C22.58390625 287.829375 22.91390625 290.799375 23.25390625 293.859375 C23.25390625 300.789375 23.25390625 307.719375 23.25390625 314.859375 C136.11390625 314.859375 248.97390625 314.859375 365.25390625 314.859375 C365.25390625 316.509375 365.25390625 318.159375 365.25390625 319.859375 C210.48390625 319.859375 55.71390625 319.859375 -103.74609375 319.859375 C-103.74609375 318.209375 -103.74609375 316.559375 -103.74609375 314.859375 C-96.48609375 314.859375 -89.22609375 314.859375 -81.74609375 314.859375 C-81.74609375 304.959375 -81.74609375 295.059375 -81.74609375 284.859375 C-82.73609375 284.859375 -83.72609375 284.859375 -84.74609375 284.859375 C-85.07609375 268.689375 -85.40609375 252.519375 -85.74609375 235.859375 C-89.04609375 234.539375 -92.34609375 233.219375 -95.74609375 231.859375 C-99.05075544 229.85297326 -101.22592425 228.50766854 -102.41716003 224.73292542 C-103.54534095 218.81710866 -104.05245037 213.15440561 -104.046875 207.13671875 C-104.05242905 206.24137421 -104.05798309 205.34602966 -104.06370544 204.42355347 C-104.07541918 201.5478244 -104.06925647 198.67260327 -104.05859375 195.796875 C-104.05710327 194.81472015 -104.05561279 193.83256531 -104.05407715 192.82064819 C-104.01262123 177.65598101 -103.49761783 162.81242498 -100.74609375 147.859375 C-100.59624023 147.02970215 -100.44638672 146.2000293 -100.29199219 145.34521484 C-98.11282343 133.77156168 -95.2413729 122.85663604 -85.10131836 115.69824219 C-83.2398523 114.52752165 -81.35381335 113.43099431 -79.43359375 112.359375 C-78.74370361 111.97136719 -78.05381348 111.58335937 -77.34301758 111.18359375 C-70.12951564 107.282023 -62.62848979 104.99438916 -54.74609375 102.859375 C-53.75609375 102.529375 -52.76609375 102.199375 -51.74609375 101.859375 C-51.21957537 93.40410926 -53.37139017 88.22758102 -58.45092773 81.7175293 C-62.48678429 76.46230765 -65.62651086 70.91942098 -68.68359375 65.046875 C-69.14362793 64.17554932 -69.60366211 63.30422363 -70.07763672 62.40649414 C-75.74932367 51.38497013 -77.94346292 41.64657488 -78.05859375 29.296875 C-78.08759766 28.25595703 -78.11660156 27.21503906 -78.14648438 26.14257812 C-78.15486328 25.14033203 -78.16324219 24.13808594 -78.171875 23.10546875 C-78.18645752 22.19466553 -78.20104004 21.2838623 -78.21606445 20.34545898 C-77.59896087 17.08106117 -76.30393501 15.90874913 -73.74609375 13.859375 C-71.16796875 13.25 -71.16796875 13.25 -68.49609375 13.109375 C-67.15804687 13.02429688 -67.15804687 13.02429688 -65.79296875 12.9375 C-65.1175 12.91171875 -64.44203125 12.8859375 -63.74609375 12.859375 C-64.09671875 12.116875 -64.44734375 11.374375 -64.80859375 10.609375 C-65.81111493 7.6686462 -66.04352898 6.63959334 -64.74609375 3.859375 C-62.13855676 1.14567874 -60.70075848 0.85511193 -56.8828125 0.49609375 C-55.39964358 0.49741683 -53.91641715 0.51483474 -52.43359375 0.546875 C-51.69947266 0.54365234 -50.96535156 0.54042969 -50.20898438 0.53710938 C-45.4013356 0.58403407 -41.36257658 1.40540921 -36.74609375 2.859375 C-31.4734539 3.39557566 -28.07688365 2.71532819 -23.12109375 0.859375 C-15.64174166 -1.76927213 -7.53477635 -3.12966528 0 0 Z M-27.74609375 296.859375 C-28.25118583 299.10823738 -28.74998554 301.35851369 -29.24609375 303.609375 C-29.52453125 304.86234375 -29.80296875 306.1153125 -30.08984375 307.40625 C-30.87056278 310.92849745 -30.87056278 310.92849745 -30.74609375 314.859375 C-28.43609375 314.859375 -26.12609375 314.859375 -23.74609375 314.859375 C-24.33100254 308.71783275 -25.28675627 302.85257651 -26.74609375 296.859375 C-27.07609375 296.859375 -27.40609375 296.859375 -27.74609375 296.859375 Z " fill="#FBC0BB" transform="translate(120.74609375,139.140625)"/>
<path d="M0 0 C0.64382887 -0.00382555 1.28765774 -0.00765109 1.95099658 -0.01159257 C4.10036483 -0.02188064 6.24946385 -0.01793847 8.39884949 -0.01396179 C9.94323981 -0.01831067 11.48762797 -0.02349441 13.03201294 -0.02944946 C17.22222736 -0.04283374 21.41235154 -0.04341863 25.60258317 -0.04088616 C29.10391486 -0.03981578 32.60522833 -0.04470169 36.10655612 -0.04949158 C44.37001674 -0.0605854 52.6334319 -0.06102528 60.89689636 -0.05497742 C69.41235218 -0.04894075 77.92764263 -0.06124111 86.44307023 -0.08254749 C93.76129292 -0.10018287 101.07946307 -0.10616168 108.39770621 -0.10290974 C112.76528302 -0.10109938 117.13274194 -0.10370809 121.50029945 -0.11762428 C125.61010214 -0.13022909 129.7196479 -0.12823356 133.82944679 -0.11521339 C135.33383268 -0.1128536 136.8382368 -0.11556085 138.34260178 -0.12383652 C155.76375863 -0.2127255 155.76375863 -0.2127255 161.51286316 5.19819641 C161.96790222 5.87882141 162.42294128 6.55944641 162.89176941 7.26069641 C163.36485535 7.94132141 163.83794128 8.62194641 164.32536316 9.32319641 C166.78205759 13.53953011 166.59917473 17.54004775 166.56642151 22.26275635 C166.56315743 23.09681092 166.55989335 23.9308655 166.55653036 24.79019445 C166.47447714 36.60748886 166.04920402 48.41749803 165.65983582 60.22773743 C165.57417179 62.89407627 165.48874118 65.56042175 165.40356445 68.22677612 C165.17333968 75.41215505 164.93855088 82.59738023 164.70277071 89.78257871 C164.55529382 94.27752389 164.40880645 98.77250098 164.26250839 103.26748466 C163.85629338 115.74381243 163.44904905 128.2201054 163.0375309 140.6962595 C163.01132552 141.49076684 162.98512015 142.28527419 162.95812067 143.10385751 C162.90501057 144.71396285 162.85190004 146.32406817 162.7987891 147.93417347 C162.75925283 149.13281283 162.75925283 149.13281283 162.71891785 150.35566711 C162.69252693 151.1557467 162.66613602 151.95582628 162.63894539 152.7801507 C162.21047119 165.77617259 161.7897343 178.77243253 161.37232633 191.76881409 C160.94241323 205.15127945 160.50623896 218.53352869 160.063743 231.91558403 C159.81594241 239.41387963 159.57077262 246.91224006 159.33249283 254.4108448 C159.12988957 260.78565288 158.92152692 267.16024047 158.70574404 273.5346166 C158.59597062 276.78237589 158.48975903 280.03018137 158.38905907 283.27823639 C158.27925256 286.80574234 158.15912136 290.33275396 158.03645325 293.85983276 C158.0072604 294.87608201 157.97806754 295.89233126 157.94799006 296.93937594 C157.28035105 314.99765864 157.28035105 314.99765864 151.45426941 321.26069641 C143.48925606 326.875164 135.58003003 326.96794783 126.14152527 326.87593079 C124.61772037 326.87943814 123.09391916 326.88510362 121.57012939 326.89274597 C117.45843154 326.90691441 113.34740885 326.89001194 109.23577571 326.8664608 C104.91851946 326.84625199 100.60128853 326.85223649 96.28399658 326.85456848 C89.03717509 326.85451502 81.79061531 326.83482503 74.54386902 326.8026886 C66.18224087 326.76578685 57.82095507 326.75701622 49.45925611 326.76398611 C41.39251485 326.7703049 33.32589015 326.75951228 25.25917244 326.74002075 C21.8363484 326.73187587 18.41358418 326.72913181 14.99075127 326.73071289 C10.95634175 326.73159589 6.92225437 326.71726466 2.88792992 326.69148636 C1.41300265 326.68436307 -0.06195898 326.6822223 -1.53689957 326.6856041 C-19.29466695 326.71853622 -19.29466695 326.71853622 -25.70198059 321.50679016 C-26.14541809 320.90995422 -26.58885559 320.31311829 -27.04573059 319.69819641 C-27.74182434 318.79907532 -27.74182434 318.79907532 -28.45198059 317.88179016 C-30.94611826 314.18512183 -30.69027503 310.86420176 -30.67854309 306.54194641 C-30.67949982 305.76943542 -30.68045654 304.99692444 -30.68144226 304.20100403 C-30.6821238 302.56009337 -30.6802713 300.91918003 -30.67610168 299.27827454 C-30.67081101 296.7983928 -30.6760171 294.31869705 -30.68244934 291.83882141 C-30.68545149 283.91073639 -30.55449234 276.13864533 -29.54573059 268.26069641 C-27.23573059 268.26069641 -24.92573059 268.26069641 -22.54573059 268.26069641 C-22.51994934 269.20171204 -22.49416809 270.14272766 -22.46760559 271.11225891 C-22.24454187 280.53588495 -22.24454187 280.53588495 -17.54573059 288.26069641 C-14.82824354 289.61943994 -12.68785422 289.39601968 -9.64428711 289.40786743 C-7.75781715 289.41860039 -7.75781715 289.41860039 -5.83323669 289.42955017 C-4.43165613 289.43239056 -3.0300753 289.43510227 -1.62849426 289.43769836 C-0.15849649 289.44396199 1.3114997 289.4506087 2.78149414 289.45761108 C6.78157834 289.47502971 10.78165058 289.48557512 14.78176332 289.49381661 C17.2800551 289.49896479 19.77834315 289.50504059 22.27663231 289.51132774 C30.09078568 289.53038197 37.90492958 289.54461278 45.71910173 289.55293971 C54.74379317 289.56271497 63.76823953 289.58904089 72.79284459 289.62944061 C79.76530665 289.65958419 86.73769837 289.67440689 93.71022433 289.67772073 C97.87604715 289.68007317 102.04160821 289.68905857 106.20736122 289.7141819 C110.12673573 289.73743721 114.04567566 289.74170634 117.96510124 289.73142052 C119.4030311 289.73092442 120.84098216 289.73726657 122.27884674 289.75097656 C124.24311011 289.76865667 126.20756161 289.75921666 128.171875 289.7484436 C129.27081998 289.75083196 130.36976496 289.75322031 131.5020113 289.75568104 C135.14964653 289.14410736 136.80418415 287.78521888 139.45426941 285.26069641 C141.8289641 281.87363307 141.78076378 278.60746657 141.92497253 274.54194641 C141.9513552 273.86881188 141.97773787 273.19567736 142.00492001 272.50214481 C142.09066835 270.25522612 142.16313095 268.0080822 142.23551941 265.76069641 C142.29369059 264.15979301 142.35263249 262.55891746 142.41229248 260.95806885 C142.57111214 256.62940384 142.71809882 252.30040983 142.86267471 247.97124863 C142.98539256 244.33967229 143.11492211 240.70835196 143.24447346 237.07701397 C144.18514808 210.68771828 145.01124698 184.29455645 145.75065613 157.89888 C145.76977177 157.21665375 145.78888741 156.53442749 145.80858231 155.83152771 C145.82765514 155.1506308 145.84672798 154.46973389 145.86637878 153.76820374 C145.88542267 153.08850273 145.90446655 152.40880173 145.92408752 151.70850372 C145.96233076 150.34347887 146.00053897 148.97845304 146.03871155 147.61342621 C146.31349178 137.81871409 146.61891091 128.025344 146.94847679 118.2323246 C147.02044458 116.0917882 147.09179461 113.95123204 147.16296387 111.81066895 C147.53113362 100.75261136 147.53113362 100.75261136 147.71430969 95.5509491 C148.1817697 82.2724461 148.5660531 68.99117274 148.67689133 55.70441818 C148.69602392 53.73495475 148.72917474 51.76564334 148.76264954 49.79637146 C148.77024796 48.01116592 148.77024796 48.01116592 148.77799988 46.18989563 C148.78814117 45.13938019 148.79828247 44.08886475 148.80873108 43.0065155 C148.39379815 39.7922589 147.76081655 38.51854327 145.45426941 36.26069641 C141.6484694 34.39590093 138.56546163 34.00654474 134.35064697 33.99327087 C133.12397812 33.98474091 131.89730927 33.97621094 130.63346863 33.96742249 C129.28215014 33.96812144 127.93083175 33.96904446 126.57951355 33.97016907 C125.15010223 33.96418183 123.72069414 33.95737584 122.29129028 33.94981384 C118.41525671 33.93216849 114.53931148 33.92745914 110.66324162 33.92618227 C108.24046554 33.92475952 105.81771185 33.92048763 103.39494133 33.91518784 C94.93952384 33.89669389 86.48416935 33.88851661 78.0287323 33.89009094 C70.15166071 33.89129286 62.27486289 33.87017927 54.39786059 33.83860362 C47.62998068 33.81244236 40.86219023 33.80172355 34.09426016 33.80300176 C30.05421819 33.80351135 26.0144197 33.79782974 21.97442818 33.77664566 C18.17481891 33.75726508 14.3756855 33.75713716 10.57605934 33.77167892 C9.1837062 33.77376823 7.79132328 33.76905873 6.39902115 33.75695801 C-3.45084158 33.45314826 -3.45084158 33.45314826 -11.54573059 38.26069641 C-13.97052796 41.89789246 -13.93235636 44.11773123 -14.17073059 48.44819641 C-14.24549622 49.7205011 -14.32026184 50.99280579 -14.39729309 52.30366516 C-14.44627747 53.27948547 -14.49526184 54.25530579 -14.54573059 55.26069641 C-17.18573059 55.26069641 -19.82573059 55.26069641 -22.54573059 55.26069641 C-22.64924869 45.19643633 -22.61857293 35.1334672 -22.29573059 25.07319641 C-22.28163147 24.21379456 -22.26753235 23.3543927 -22.25300598 22.46894836 C-22.0027655 16.07564719 -20.57389427 10.53932942 -16.13484192 5.73310852 C-11.06541495 1.25874942 -6.64557256 0.01186152 0 0 Z " fill="#3B6EC9" transform="translate(301.5457305908203,73.73930358886719)"/>
<path d="M0 0 C10.5861027 10.02588923 18.52910174 27.08098965 22 41 C22.40992187 42.64355469 22.40992187 42.64355469 22.828125 44.3203125 C24.95437676 54.47212238 25.57661712 64.73024523 26.1875 75.0625 C26.23038147 75.77835266 26.27326294 76.49420532 26.31744385 77.23175049 C26.91603209 87.49582143 27.10110092 97.71967781 27 108 C26.34 108 25.68 108 25 108 C24.67 115.92 24.34 123.84 24 132 C25.65 132 27.3 132 29 132 C29.09961729 136.41074704 29.17181669 140.82088095 29.21972656 145.23242188 C29.23971919 146.7299339 29.26692299 148.22736908 29.30175781 149.72460938 C29.52628454 159.63020023 29.58661781 167.07777601 22.4375 174.75 C10.33517469 183.72816615 -6.00566516 182.14842835 -20.25 182.0625 C-25.1175 182.041875 -29.985 182.02125 -35 182 C-35.33 165.83 -35.66 149.66 -36 133 C-39.3 131.68 -42.6 130.36 -46 129 C-49.30466169 126.99359826 -51.4798305 125.64829354 -52.67106628 121.87355042 C-53.7992472 115.95773366 -54.30635662 110.29503061 -54.30078125 104.27734375 C-54.3063353 103.38199921 -54.31188934 102.48665466 -54.31761169 101.56417847 C-54.32932543 98.6884494 -54.32316272 95.81322827 -54.3125 92.9375 C-54.31100952 91.95534515 -54.30951904 90.97319031 -54.3079834 89.96127319 C-54.26652748 74.79660601 -53.75152408 59.95304998 -51 45 C-50.85014648 44.17032715 -50.70029297 43.3406543 -50.54589844 42.48583984 C-48.36672968 30.91218668 -45.49527915 19.99726104 -35.35522461 12.83886719 C-33.49371829 11.66812134 -31.60797693 10.57126567 -29.6875 9.5 C-28.99615967 9.11271729 -28.30481934 8.72543457 -27.5925293 8.32641602 C-20.19524105 4.33760848 -8.58336474 -1.59758058 0 0 Z " fill="#FD6081" transform="translate(71,242)"/>
<path d="M0 0 C1.22529419 -0.00708481 2.45058838 -0.01416962 3.7130127 -0.02146912 C5.06796302 -0.01917536 6.42291298 -0.01666567 7.77786255 -0.01396179 C9.20712551 -0.0183098 10.63638614 -0.02349324 12.06564331 -0.02944946 C15.94587711 -0.04284235 19.82601352 -0.04341774 23.70626593 -0.04088616 C26.94677709 -0.03981649 30.18726855 -0.04469982 33.4277755 -0.04949158 C41.07410857 -0.06058812 48.72039251 -0.06102359 56.36672974 -0.05497742 C64.25112025 -0.04893877 72.13533225 -0.06124546 80.0196923 -0.08254749 C86.79179676 -0.10017069 93.56384445 -0.10616365 100.335971 -0.10290974 C104.37933271 -0.10109763 108.42256713 -0.10372571 112.46590805 -0.11762428 C116.26954899 -0.13020948 120.07291205 -0.12825214 123.87654877 -0.11521339 C125.2705075 -0.11284942 126.66448583 -0.11557592 128.05842209 -0.12383652 C129.96535463 -0.13431997 131.87236648 -0.12439178 133.77929688 -0.11352539 C135.37818913 -0.113777 135.37818913 -0.113777 137.00938225 -0.1140337 C141.37776432 0.43030561 144.74738256 1.99657688 147.87030029 5.10687256 C149.3134355 7.81835546 149.38004809 9.65372955 149.35794067 12.72187805 C149.35549347 13.84226974 149.35304626 14.96266144 149.3505249 16.11700439 C149.33057465 17.35164932 149.31062439 18.58629425 149.29006958 19.85835266 C149.27890106 21.17449051 149.26773254 22.49062836 149.25622559 23.84664917 C149.07509582 41.50249864 148.38182513 59.152112 147.74555588 76.79597473 C147.45989377 84.77350035 147.18747354 92.75149817 146.91357994 100.72943497 C146.84425997 102.74768804 146.77476254 104.76593502 146.70508766 106.78417587 C146.08347727 124.80833561 145.55543454 142.83397035 145.07278442 160.86231995 C144.77302652 172.02521318 144.44943795 183.18746034 144.12802124 194.3497467 C144.01705246 198.24593661 143.90995503 202.14221961 143.80325317 206.03852844 C143.63685617 212.03880568 143.4505738 218.03814254 143.24810791 224.03730774 C143.1781697 226.19563011 143.11471342 228.35417416 143.05834961 230.51289368 C142.98141426 233.42061511 142.88109528 236.32659176 142.77444458 239.23335266 C142.75770187 240.07028152 142.74095917 240.90721039 142.72370911 241.76950073 C142.4620043 247.84344534 140.82105595 251.63867291 136.26283932 255.9004221 C133.31939573 257.68293381 131.30722629 257.6407661 127.87467957 257.64837646 C125.98408562 257.66323341 125.98408562 257.66323341 124.05529785 257.6783905 C122.66097925 257.67415248 121.26666159 257.66959463 119.87234497 257.66474915 C118.40204855 257.6704522 116.93175656 257.67741621 115.46147156 257.68554688 C111.46970071 257.70350105 107.47814941 257.70230568 103.4863503 257.69660449 C100.15377957 257.69351579 96.82125121 257.69960155 93.4886865 257.70564324 C85.62662801 257.71969435 77.76467817 257.71812241 69.90261841 257.70674133 C61.79207409 257.69525999 53.68186043 257.70933458 45.57135969 257.73613781 C38.60732826 257.75829044 31.64340066 257.76493317 24.67933649 257.7590614 C20.52028038 257.75568949 16.36143623 257.75812223 12.20240974 257.77531242 C8.29117451 257.79077261 4.38042929 257.78683677 0.46921349 257.76800728 C-0.9654773 257.76431873 -2.40020432 257.76743769 -3.83486176 257.77789307 C-5.79468128 257.79108422 -7.75462723 257.77715894 -9.71443176 257.76190186 C-10.8107791 257.76169257 -11.90712645 257.76148329 -13.03669643 257.76126766 C-16.6800901 257.14233945 -18.34953722 255.80107795 -20.98336792 253.26069641 C-22.57749076 250.07245074 -22.08511527 246.63172979 -22.04586792 243.13569641 C-22.0413562 242.38159485 -22.03684448 241.62749329 -22.03219604 240.85054016 C-22.02040291 238.98722515 -22.00246734 237.12395086 -21.98336792 235.26069641 C-21.30253049 235.25922985 -20.62169306 235.25776329 -19.92022419 235.25625229 C-3.35310923 235.21919889 13.21376755 235.16020387 29.78071117 235.07679367 C37.79237898 235.03698604 45.80394831 235.00460236 53.81570435 234.98970032 C60.79885123 234.97669267 67.78178161 234.94975092 74.76480657 234.90608335 C78.462243 234.88344827 82.15941219 234.86778693 85.85692406 234.86881256 C89.98492972 234.8696965 94.11214591 234.83947167 98.24002075 234.80659485 C99.4656926 234.81162521 100.69136444 234.81665558 101.95417786 234.82183838 C108.41279313 234.80385966 108.41279313 234.80385966 114.25267029 232.35157776 C117.4592668 228.5506945 117.30714685 225.06864575 117.54153442 220.28096008 C117.58568607 219.4508929 117.62983772 218.62082571 117.6753273 217.76560497 C117.82201993 214.98683079 117.96230124 212.20777048 118.10256958 209.42866516 C118.20477059 207.46661997 118.30734744 205.50459432 118.41027832 203.54258728 C118.68571694 198.2699589 118.95553311 192.99705648 119.22419739 187.72407913 C119.44682972 183.368247 119.67273378 179.0125873 119.89871979 174.65692806 C121.51682103 143.46699714 123.09097614 112.2747402 124.58926392 81.07881165 C124.86307419 75.38502676 125.14666982 69.69186872 125.43963623 63.9990387 C126.05862222 51.91638093 126.05862222 51.91638093 126.39163208 39.82319641 C126.42901489 38.85833313 126.46639771 37.89346985 126.50491333 36.89936829 C126.58363864 31.08534426 126.58363864 31.08534426 123.61819458 26.16304016 C119.94660628 23.47826013 118.18809779 23.13191161 113.68896484 23.10247803 C111.99359589 23.0877948 111.99359589 23.0877948 110.26397705 23.07281494 C109.01816864 23.06705948 107.77236023 23.06130402 106.48880005 23.05537415 C105.18152954 23.04547455 103.87425903 23.03557495 102.52737427 23.02537537 C98.9367178 22.99829611 95.34604814 22.97730294 91.75534582 22.95737338 C88.00502452 22.93553243 84.25474399 22.90813451 80.50445557 22.88131714 C73.40010142 22.83136464 66.29572468 22.78643532 59.19132626 22.74329478 C51.1043452 22.69394423 43.01740506 22.63901802 34.93046355 22.58361518 C18.29255742 22.46975588 1.65461382 22.36292546 -14.98336792 22.26069641 C-15.04422924 20.00582218 -15.08780995 17.75047663 -15.12399292 15.49507141 C-15.15009644 14.23920227 -15.17619995 12.98333313 -15.20309448 11.68940735 C-14.99119451 8.38282595 -14.79441827 7.01239589 -12.73336792 4.51069641 C-8.36464388 0.93628583 -5.66646516 0.01092076 0 0 Z " fill="#FDFDFE" transform="translate(301.9833679199219,106.73930358886719)"/>
<path d="M0 0 C3.5144738 -0.10163932 7.02852462 -0.17097236 10.5440979 -0.22088623 C11.94316673 -0.24417593 13.34212224 -0.27577515 14.74081421 -0.31573486 C16.72139241 -0.36955093 18.70284296 -0.38762585 20.68408203 -0.40429688 C21.83344238 -0.42411621 22.98280273 -0.44393555 24.16699219 -0.46435547 C27.02001953 0.11914062 27.02001953 0.11914062 28.74964905 2.26264954 C30.34629494 5.85278708 30.00619138 7.58598874 29.19897461 11.40649414 C28.81791313 13.27852257 28.81791313 13.27852257 28.42915344 15.18836975 C28.13319219 16.54172089 27.83664369 17.89494371 27.53955078 19.24804688 C27.2470631 20.64347434 26.95612619 22.03922767 26.66667175 23.43528748 C26.05679964 26.35718277 25.4344675 29.2760283 24.80200195 32.19311523 C23.99243044 35.92764279 23.20451313 39.66629588 22.42468739 43.40713596 C21.678772 46.98069143 20.92206142 50.55193469 20.16455078 54.12304688 C20.02138742 54.80240358 19.87822407 55.48176029 19.73072243 56.18170357 C19.32243354 58.10946379 18.90542103 60.03537014 18.48803711 61.96118164 C18.13471062 63.60401878 18.13471062 63.60401878 17.77424622 65.28004456 C17.09718095 67.82868593 16.39943577 69.87946081 15.02001953 72.11914062 C12.37543574 73.44143252 10.34240652 73.21591257 7.39501953 73.18164062 C5.89068359 73.16810547 5.89068359 73.16810547 4.35595703 73.15429688 C3.58509766 73.14269531 2.81423828 73.13109375 2.02001953 73.11914062 C2.23658203 74.69501953 2.23658203 74.69501953 2.45751953 76.30273438 C3.43507448 83.62132754 4.28434668 90.71798053 4.02001953 98.11914062 C2.37001953 98.11914062 0.72001953 98.11914062 -0.97998047 98.11914062 C-0.48498047 102.57414062 -0.48498047 102.57414062 0.02001953 107.11914062 C0.02001953 114.04914063 0.02001953 120.97914063 0.02001953 128.11914062 C112.88001953 128.11914062 225.74001953 128.11914062 342.02001953 128.11914062 C342.02001953 129.76914062 342.02001953 131.41914063 342.02001953 133.11914062 C187.25001953 133.11914062 32.48001953 133.11914062 -126.97998047 133.11914062 C-126.97998047 131.46914063 -126.97998047 129.81914062 -126.97998047 128.11914062 C-119.71998047 128.11914062 -112.45998047 128.11914062 -104.97998047 128.11914062 C-104.97998047 118.21914063 -104.97998047 108.31914062 -104.97998047 98.11914062 C-91.72998047 97.68164062 -91.72998047 97.68164062 -87.63134766 97.55102539 C-67.79748385 97.5293122 -67.79748385 97.5293122 -50.12060547 89.63085938 C-46.36089733 85.35142688 -44.77207061 80.63758934 -44.56591797 75.03710938 C-44.52724609 74.10576172 -44.48857422 73.17441406 -44.44873047 72.21484375 C-44.41779297 71.25513672 -44.38685547 70.29542969 -44.35498047 69.30664062 C-44.31630859 68.32759766 -44.27763672 67.34855469 -44.23779297 66.33984375 C-44.14387231 63.93312688 -44.05819846 61.52641051 -43.97998047 59.11914062 C-41.99998047 59.11914062 -40.01998047 59.11914062 -37.97998047 59.11914062 C-37.83560547 58.00539063 -37.69123047 56.89164062 -37.54248047 55.74414062 C-36.97998047 52.11914062 -36.97998047 52.11914062 -35.97998047 50.11914062 C-29.04998047 50.11914062 -22.11998047 50.11914062 -14.97998047 50.11914062 C-15.76305001 46.37222616 -15.76305001 46.37222616 -16.97998047 44.11914062 C-15.27841797 43.93351562 -15.27841797 43.93351562 -13.54248047 43.74414062 C-12.36685547 43.53789062 -11.19123047 43.33164062 -9.97998047 43.11914062 C-9.48498047 42.12914062 -9.48498047 42.12914062 -8.97998047 41.11914062 C-10.29998047 40.45914063 -11.61998047 39.79914063 -12.97998047 39.11914062 C-11.32998047 38.78914063 -9.67998047 38.45914063 -7.97998047 38.11914062 C-8.62066023 35.03154504 -8.62066023 35.03154504 -10.82763672 34.16992188 C-11.55853516 33.92628906 -12.28943359 33.68265625 -13.04248047 33.43164062 C-14.14269531 33.05458984 -14.14269531 33.05458984 -15.26513672 32.66992188 C-15.83103516 32.48816406 -16.39693359 32.30640625 -16.97998047 32.11914062 C-16.64998047 31.45914062 -16.31998047 30.79914063 -15.97998047 30.11914062 C-15.31998047 30.11914062 -14.65998047 30.11914062 -13.97998047 30.11914062 C-14.47498047 28.63414062 -14.47498047 28.63414062 -14.97998047 27.11914062 C-20.25998047 26.78914063 -25.53998047 26.45914062 -30.97998047 26.11914062 C-29.10498047 13.52985491 -29.10498047 13.52985491 -27.97998047 7.43164062 C-27.83560547 6.64402344 -27.69123047 5.85640625 -27.54248047 5.04492188 C-26.97998047 3.11914062 -26.97998047 3.11914062 -24.97998047 1.11914062 C-22.05607342 0.79186064 -19.22726827 0.59764406 -16.29248047 0.49414062 C-15.39287598 0.45981934 -14.49327148 0.42549805 -13.56640625 0.39013672 C-9.04490008 0.23738822 -4.52205631 0.13536765 0 0 Z M-50.97998047 110.11914062 C-51.48507255 112.368003 -51.98387226 114.61827931 -52.47998047 116.86914062 C-52.75841797 118.12210938 -53.03685547 119.37507813 -53.32373047 120.66601562 C-54.1044495 124.18826308 -54.1044495 124.18826308 -53.97998047 128.11914062 C-51.66998047 128.11914062 -49.35998047 128.11914062 -46.97998047 128.11914062 C-47.56488925 121.97759838 -48.52064299 116.11234213 -49.97998047 110.11914062 C-50.30998047 110.11914062 -50.63998047 110.11914062 -50.97998047 110.11914062 Z " fill="#396CC7" transform="translate(143.97998046875,325.880859375)"/>
<path d="M0 0 C1.32 0.66 2.64 1.32 4 2 C4 4.31 4 6.62 4 9 C4.58007812 8.43410156 5.16015625 7.86820313 5.7578125 7.28515625 C13.51669596 0 13.51669596 0 19 0 C19.33 0.99 19.66 1.98 20 3 C19.67 3.66 19.34 4.32 19 5 C19.721875 4.67 20.44375 4.34 21.1875 4 C24.01697427 2.99396471 26.02895466 2.83022598 29 3 C28.67 4.98 28.34 6.96 28 9 C29.32 9 30.64 9 32 9 C31.835 9.78375 31.67 10.5675 31.5 11.375 C30.9376293 13.88208039 30.9376293 13.88208039 31 16 C31.66 16.33 32.32 16.66 33 17 C32.29139412 21.79351034 29.52901648 23.29893647 25.8125 26.0625 C19.9200488 30.12174416 13.79568251 34.08788926 7.40234375 37.30859375 C4.16798171 39.58579499 2.36976539 42.51234699 0.3125 45.8125 C-0.56591034 47.17173656 -1.44616487 48.52978283 -2.328125 49.88671875 C-2.77220703 50.57427246 -3.21628906 51.26182617 -3.67382812 51.97021484 C-24.89210432 84.44605216 -24.89210432 84.44605216 -38 91 C-46.30308807 91.72060602 -54.10618006 90.25166279 -62.1875 88.5 C-63.33025391 88.26152344 -64.47300781 88.02304687 -65.65039062 87.77734375 C-68.43580392 87.1946213 -71.21871267 86.60205183 -74 86 C-73.99476318 86.78238037 -73.98952637 87.56476074 -73.98413086 88.37084961 C-73.96342894 91.89305833 -73.95036162 95.4152543 -73.9375 98.9375 C-73.92912109 100.16919922 -73.92074219 101.40089844 -73.91210938 102.66992188 C-73.90888672 103.83974609 -73.90566406 105.00957031 -73.90234375 106.21484375 C-73.89710693 107.29886475 -73.89187012 108.38288574 -73.88647461 109.49975586 C-74 112 -74 112 -75 113 C-76.55948542 113.15686249 -78.12542668 113.25076639 -79.69140625 113.31640625 C-80.63564453 113.35830078 -81.57988281 113.40019531 -82.55273438 113.44335938 C-83.54595703 113.48267578 -84.53917969 113.52199219 -85.5625 113.5625 C-86.55958984 113.60568359 -87.55667969 113.64886719 -88.58398438 113.69335938 C-91.0558415 113.79980298 -93.5278031 113.90181928 -96 114 C-97.21380435 118.12591478 -98.31492651 122.21354539 -99.125 126.4375 C-99.29257813 127.30246094 -99.46015625 128.16742188 -99.6328125 129.05859375 C-99.75398438 129.69925781 -99.87515625 130.33992187 -100 131 C-100.33 130.34 -100.66 129.68 -101 129 C-101.66 129 -102.32 129 -103 129 C-104.63785061 125.72429878 -104.54221811 122.06260047 -104.84790039 118.45458984 C-104.92607498 117.56981964 -105.00424957 116.68504944 -105.08479309 115.77346802 C-105.34317948 112.83630034 -105.59556833 109.89865197 -105.84765625 106.9609375 C-106.02533028 104.92027572 -106.20326656 102.87963675 -106.38145447 100.83901978 C-106.75473462 96.55354753 -107.12510573 92.26783643 -107.4934082 87.98193359 C-107.96462838 82.50061614 -108.4425383 77.01990742 -108.92260075 71.53935814 C-109.29147746 67.32042297 -109.6569901 63.10120154 -110.02148247 58.88188553 C-110.19632758 56.86208239 -110.37215539 54.84236407 -110.54899788 52.82273483 C-110.79653743 49.98936139 -111.03959328 47.15563704 -111.28149414 44.32177734 C-111.39134644 43.07923187 -111.39134644 43.07923187 -111.50341797 41.81158447 C-111.92084146 36.854517 -112.06537247 31.97483831 -112 27 C-91.8857795 31.12082168 -69.30672687 39.30120626 -52.22265625 50.8828125 C-51.48917969 51.25148438 -50.75570312 51.62015625 -50 52 C-47.05202704 50.85793537 -44.95582311 49.23881737 -42.671875 47.0859375 C-41.73045654 46.20240601 -41.73045654 46.20240601 -40.77001953 45.30102539 C-40.10341309 44.66543701 -39.43680664 44.02984863 -38.75 43.375 C-38.05632324 42.72072021 -37.36264648 42.06644043 -36.64794922 41.39233398 C-30.65158685 35.70273403 -24.8117143 29.85958976 -19.05371094 23.92919922 C-18.41981445 23.28354004 -17.78591797 22.63788086 -17.1328125 21.97265625 C-16.57480957 21.39781494 -16.01680664 20.82297363 -15.44189453 20.23071289 C-14 19 -14 19 -12 19 C-11.38511719 17.87980469 -10.77023438 16.75960937 -10.13671875 15.60546875 C-9.32057898 14.1326648 -8.50415799 12.66001666 -7.6875 11.1875 C-7.28337891 10.44951172 -6.87925781 9.71152344 -6.46289062 8.95117188 C-6.06650391 8.23896484 -5.67011719 7.52675781 -5.26171875 6.79296875 C-4.90037842 6.1383667 -4.53903809 5.48376465 -4.16674805 4.80932617 C-2.9590378 2.93647816 -1.62811563 1.51343075 0 0 Z " fill="#FD6081" transform="translate(215,214)"/>
<path d="M0 0 C3.5144738 -0.10163932 7.02852462 -0.17097236 10.5440979 -0.22088623 C11.94316673 -0.24417593 13.34212224 -0.27577515 14.74081421 -0.31573486 C16.72139241 -0.36955093 18.70284296 -0.38762585 20.68408203 -0.40429688 C21.83344238 -0.42411621 22.98280273 -0.44393555 24.16699219 -0.46435547 C27.02001953 0.11914062 27.02001953 0.11914062 28.74964905 2.26264954 C30.34629494 5.85278708 30.00619138 7.58598874 29.19897461 11.40649414 C28.81791313 13.27852257 28.81791313 13.27852257 28.42915344 15.18836975 C28.13319219 16.54172089 27.83664369 17.89494371 27.53955078 19.24804688 C27.2470631 20.64347434 26.95612619 22.03922767 26.66667175 23.43528748 C26.05679964 26.35718277 25.4344675 29.2760283 24.80200195 32.19311523 C23.99243044 35.92764279 23.20451313 39.66629588 22.42468739 43.40713596 C21.678772 46.98069143 20.92206142 50.55193469 20.16455078 54.12304688 C20.02138742 54.80240358 19.87822407 55.48176029 19.73072243 56.18170357 C19.32243354 58.10946379 18.90542103 60.03537014 18.48803711 61.96118164 C18.25248611 63.0564064 18.01693512 64.15163116 17.77424622 65.28004456 C17.09718095 67.82868593 16.39943577 69.87946081 15.02001953 72.11914062 C12.53100429 73.36364825 10.92558564 73.21596108 8.14306641 73.17260742 C7.1286145 73.15896652 6.1141626 73.14532562 5.06896973 73.13127136 C3.97000366 73.11051041 2.8710376 73.08974945 1.73876953 73.06835938 C0.61434448 73.04949173 -0.51008057 73.03062408 -1.6685791 73.01118469 C-4.04928475 72.96925617 -6.42994223 72.92451423 -8.81054688 72.87719727 C-12.46458292 72.80693669 -16.11863318 72.7526473 -19.77294922 72.69921875 C-22.08156125 72.65657755 -24.39015603 72.61298964 -26.69873047 72.56835938 C-27.79769653 72.55367111 -28.8966626 72.53898285 -30.02893066 72.52384949 C-31.04338257 72.50075211 -32.05783447 72.47765472 -33.10302734 72.45385742 C-33.99856323 72.43751755 -34.89409912 72.42117767 -35.81677246 72.40434265 C-37.97998047 72.11914062 -37.97998047 72.11914062 -39.97998047 70.11914062 C-39.52220897 63.7103397 -38.87447162 55.90812294 -35.97998047 50.11914062 C-29.04998047 50.11914062 -22.11998047 50.11914062 -14.97998047 50.11914062 C-15.76305001 46.37222616 -15.76305001 46.37222616 -16.97998047 44.11914062 C-15.27841797 43.93351562 -15.27841797 43.93351562 -13.54248047 43.74414062 C-12.36685547 43.53789062 -11.19123047 43.33164062 -9.97998047 43.11914062 C-9.64998047 42.45914063 -9.31998047 41.79914063 -8.97998047 41.11914062 C-10.29998047 40.45914063 -11.61998047 39.79914063 -12.97998047 39.11914062 C-10.50498047 38.62414062 -10.50498047 38.62414062 -7.97998047 38.11914062 C-8.62066023 35.03154504 -8.62066023 35.03154504 -10.82763672 34.16992188 C-11.55853516 33.92628906 -12.28943359 33.68265625 -13.04248047 33.43164062 C-14.14269531 33.05458984 -14.14269531 33.05458984 -15.26513672 32.66992188 C-15.83103516 32.48816406 -16.39693359 32.30640625 -16.97998047 32.11914062 C-16.64998047 31.45914062 -16.31998047 30.79914063 -15.97998047 30.11914062 C-15.31998047 30.11914062 -14.65998047 30.11914062 -13.97998047 30.11914062 C-14.30998047 29.12914062 -14.63998047 28.13914062 -14.97998047 27.11914062 C-20.25998047 26.78914063 -25.53998047 26.45914062 -30.97998047 26.11914062 C-29.10498047 13.52985491 -29.10498047 13.52985491 -27.97998047 7.43164062 C-27.76341797 6.25021484 -27.76341797 6.25021484 -27.54248047 5.04492188 C-26.97998047 3.11914062 -26.97998047 3.11914062 -24.97998047 1.11914062 C-22.05607342 0.79186064 -19.22726827 0.59764406 -16.29248047 0.49414062 C-15.39287598 0.45981934 -14.49327148 0.42549805 -13.56640625 0.39013672 C-9.04490008 0.23738822 -4.52205631 0.13536765 0 0 Z " fill="#080E2B" transform="translate(143.97998046875,325.880859375)"/>
<path d="M0 0 C5.15315336 3.21543231 9.14899387 6.95583586 10.84765625 12.95703125 C11.76734882 18.11261555 10.99950083 21.54524773 8.5546875 26.1328125 C7.25390625 27.859375 7.25390625 27.859375 5.23046875 29.24609375 C2.04459864 31.84641856 1.59948432 35.329143 0.4765625 39.16796875 C-1.00638985 42.43235907 -2.83685333 43.83201306 -5.74609375 45.859375 C-6.41793993 43.75685639 -7.08340343 41.65229737 -7.74609375 39.546875 C-8.11734375 38.37511719 -8.48859375 37.20335937 -8.87109375 35.99609375 C-9.74609375 32.859375 -9.74609375 32.859375 -9.74609375 29.859375 C-14.69609375 28.869375 -14.69609375 28.869375 -19.74609375 27.859375 C-20.40609375 29.179375 -21.06609375 30.499375 -21.74609375 31.859375 C-24.85595582 33.93261638 -25.63717762 34.13329686 -29.18359375 34.109375 C-29.94542969 34.11453125 -30.70726562 34.1196875 -31.4921875 34.125 C-33.96052393 33.8341042 -35.60377975 33.08913156 -37.74609375 31.859375 C-38.17921875 33.3134375 -38.17921875 33.3134375 -38.62109375 34.796875 C-39.74609375 37.859375 -39.74609375 37.859375 -41.74609375 38.859375 C-44.41845585 38.99352972 -47.06859863 38.90256041 -49.74609375 38.859375 C-49.74609375 43.149375 -49.74609375 47.439375 -49.74609375 51.859375 C-51.06609375 51.859375 -52.38609375 51.859375 -53.74609375 51.859375 C-54.40609375 49.879375 -55.06609375 47.899375 -55.74609375 45.859375 C-59.17839823 46.12331001 -59.17839823 46.12331001 -62.74609375 46.859375 C-65.06929244 49.72666134 -65.06929244 49.72666134 -64.68359375 53.234375 C-63.56146317 57.57327991 -62.10131522 58.96168373 -58.74609375 61.859375 C-54.43766158 65.65489858 -51.79385839 69.17982541 -50.74609375 74.859375 C-50.41387981 80.18965321 -50.57132802 85.52578386 -50.74609375 90.859375 C-58.96450224 83.10073761 -64.31414705 72.9277162 -69.62109375 63.046875 C-69.99008789 62.36657227 -70.35908203 61.68626953 -70.73925781 60.98535156 C-76.19259452 50.6054494 -77.95007654 40.93715436 -78.05859375 29.296875 C-78.08759766 28.25595703 -78.11660156 27.21503906 -78.14648438 26.14257812 C-78.15486328 25.14033203 -78.16324219 24.13808594 -78.171875 23.10546875 C-78.18645752 22.19466553 -78.20104004 21.2838623 -78.21606445 20.34545898 C-77.59896087 17.08106117 -76.30393501 15.90874913 -73.74609375 13.859375 C-71.16796875 13.25 -71.16796875 13.25 -68.49609375 13.109375 C-67.15804687 13.02429688 -67.15804687 13.02429688 -65.79296875 12.9375 C-65.1175 12.91171875 -64.44203125 12.8859375 -63.74609375 12.859375 C-64.09671875 12.116875 -64.44734375 11.374375 -64.80859375 10.609375 C-65.81111493 7.6686462 -66.04352898 6.63959334 -64.74609375 3.859375 C-62.13855676 1.14567874 -60.70075848 0.85511193 -56.8828125 0.49609375 C-55.39964358 0.49741683 -53.91641715 0.51483474 -52.43359375 0.546875 C-51.69947266 0.54365234 -50.96535156 0.54042969 -50.20898438 0.53710938 C-45.4013356 0.58403407 -41.36257658 1.40540921 -36.74609375 2.859375 C-31.4734539 3.39557566 -28.07688365 2.71532819 -23.12109375 0.859375 C-15.64174166 -1.76927213 -7.53477635 -3.12966528 0 0 Z " fill="#0F1738" transform="translate(120.74609375,139.140625)"/>
<path d="M0 0 C6.7522374 5.65303596 12.9510755 12.28377873 13.91064453 21.36083984 C14.50823371 30.45206324 14.89384103 39.39576044 9.6875 47.25 C9.048125 48.3225 8.40875 49.395 7.75 50.5 C5.60534432 53.35954091 3.28371389 55.79802021 0.6875 58.25 C0.48447266 57.4146875 0.48447266 57.4146875 0.27734375 56.5625 C-1.89974113 48.84492966 -5.67004724 43.53546055 -12.5 39.25 C-21.71524428 36.83288675 -29.94321471 37.71351799 -38.3125 42.25 C-44.2446323 46.05551883 -46.56062014 50.97912332 -49.3125 57.25 C-52.3125 56.25 -52.3125 56.25 -53.8828125 53.6328125 C-54.39585937 52.55773437 -54.90890625 51.48265625 -55.4375 50.375 C-55.95570313 49.30507812 -56.47390625 48.23515625 -57.0078125 47.1328125 C-60.52498303 39.36133988 -60.47247719 30.13322105 -58.51171875 21.87890625 C-53.82935422 9.50523504 -44.86977319 1.62141365 -33.06640625 -3.77734375 C-21.63385075 -8.19956219 -10.54854379 -5.57281559 0 0 Z " fill="#FD6282" transform="translate(355.3125,180.75)"/>
<path d="M0 0 C2.27200868 0.02784952 4.5440223 0.05529755 6.81604004 0.08239746 C8.60987877 0.11145424 8.60987877 0.11145424 10.43995667 0.14109802 C16.59459235 0.2268658 22.74916649 0.21660464 28.90429688 0.22070312 C41.65468553 0.25121232 54.4049366 0.30887821 67.15517807 0.37628555 C74.81911457 0.41634683 82.48294203 0.44865311 90.14697266 0.46337891 C96.90580394 0.47638107 103.66441103 0.50326106 110.42311597 0.54699588 C113.98045405 0.56954951 117.53751659 0.58529672 121.09493256 0.58426666 C125.0381323 0.58338418 128.98075834 0.61356627 132.92382812 0.64648438 C134.09152237 0.64145401 135.25921661 0.63642365 136.46229553 0.63124084 C144.3123672 0.73302716 144.3123672 0.73302716 148.25738525 2.97650146 C153.04106109 8.66709916 152.12011719 10.98600594 152.12011719 19.19238281 C95.69011719 19.19238281 39.26011719 19.19238281 -18.87988281 19.19238281 C-18.87988281 7.43376212 -18.87988281 7.43376212 -15.87988281 3.19238281 C-11.11704671 -0.86794436 -5.91216791 -0.14238323 0 0 Z " fill="#A8ACC7" transform="translate(272.8798828125,128.8076171875)"/>
<path d="M0 0 C11.85710665 -0.06960594 23.71416443 -0.12286515 35.57143402 -0.15543652 C41.07764418 -0.17107159 46.58371422 -0.19227058 52.08984375 -0.22631836 C57.4066556 -0.25898857 62.72333292 -0.27686925 68.04023743 -0.28463173 C70.06555803 -0.29016147 72.09087153 -0.30095969 74.11613464 -0.31719017 C76.95974459 -0.33906616 79.8028034 -0.34196266 82.64648438 -0.34057617 C83.47799011 -0.351362 84.30949585 -0.36214783 85.16619873 -0.3732605 C91.38066372 -0.34061698 97.34995035 0.50583563 102.05859375 4.9375 C102.51363281 5.618125 102.96867187 6.29875 103.4375 7 C103.91058594 7.680625 104.38367188 8.36125 104.87109375 9.0625 C107.32778819 13.2788337 107.14490533 17.27935134 107.1121521 22.00205994 C107.10888802 22.83611451 107.10562394 23.67016909 107.10226095 24.52949804 C107.02020773 36.34679245 106.59493461 48.15680162 106.20556641 59.96704102 C106.11990238 62.63337986 106.03447177 65.29972534 105.94929504 67.96607971 C105.71907027 75.15145864 105.48428147 82.33668382 105.2485013 89.5218823 C105.10102441 94.01682748 104.95453704 98.51180457 104.80823898 103.00678825 C104.40202397 115.48311601 103.99477964 127.95940899 103.58326149 140.43556309 C103.55705611 141.23007043 103.53085074 142.02457778 103.50385126 142.8431611 C103.45074116 144.45326644 103.39763063 146.06337176 103.34451969 147.67347706 C103.31816218 148.47256996 103.29180466 149.27166286 103.26464844 150.0949707 C103.22506207 151.29509008 103.22506207 151.29509008 103.18467598 152.51945429 C102.75620178 165.51547617 102.33546489 178.51173612 101.91805692 191.50811768 C101.48814382 204.89058304 101.05196955 218.27283228 100.60947359 231.65488762 C100.361673 239.15318322 100.11650321 246.65154365 99.87822342 254.15014839 C99.67562016 260.52495647 99.46725751 266.89954406 99.25147463 273.27392019 C99.14170121 276.52167948 99.03548962 279.76948496 98.93478966 283.01753998 C98.82498315 286.54504593 98.70485196 290.07205755 98.58218384 293.59913635 C98.55299099 294.6153856 98.52379813 295.63163485 98.49372065 296.67867953 C97.82608164 314.73696223 97.82608164 314.73696223 92 321 C88.79930824 322.99913757 85.56675192 324.75101544 82 326 C81.34 325.67 80.68 325.34 80 325 C80.763125 324.649375 81.52625 324.29875 82.3125 323.9375 C85.77208986 321.44337708 87.01154974 319.03882697 88 315 C89.09730265 305.80719873 89.22452631 296.51582728 89.4296875 287.26953125 C89.46447024 285.82993644 89.4996547 284.39035128 89.53520203 282.95077515 C89.61122896 279.85836096 89.68565209 276.76591454 89.75881958 273.6734314 C89.95916849 265.24293394 90.17541021 256.8128404 90.39453125 248.3828125 C90.42908196 247.05207608 90.42908196 247.05207608 90.46433067 245.6944561 C91.03482676 223.85066821 91.73652794 202.01130674 92.46347809 180.1722374 C92.56200073 177.20254921 92.65941724 174.23282662 92.75653076 171.26309204 C92.91083365 166.55090066 93.06795512 161.83881143 93.22733498 157.12678909 C93.28553027 155.39779864 93.3429753 153.66878273 93.39957237 151.93973923 C93.65770322 144.08382089 93.95397566 136.2447672 94.50927734 128.40307617 C95.08107032 120.29646265 95.32463345 112.19212174 95.53515625 104.0703125 C95.57843451 102.46686449 95.62184913 100.86342015 95.66539001 99.25997925 C95.75560716 95.9101863 95.8435457 92.56034307 95.92993164 89.21044922 C96.0167421 85.85227617 96.10686879 82.49422191 96.20043945 79.13623047 C96.49489432 68.5559615 96.75104387 57.97565651 96.95316315 47.39320374 C97.0003063 44.98434896 97.05209942 42.5756225 97.10418701 40.16687012 C97.18475916 36.31070329 97.24202438 32.45481482 97.28182793 28.59801865 C97.2994502 27.17041771 97.32386677 25.74288187 97.35560799 24.31552505 C97.39763648 22.35373576 97.41124393 20.39139986 97.42358398 18.42919922 C97.44605446 16.77608231 97.44605446 16.77608231 97.46897888 15.08956909 C96.75941579 10.41506396 94.45022986 7.27444442 90.9375 4.1875 C86.71585978 1.60004309 82.54828156 1.82937825 77.76489258 1.79467773 C76.92564743 1.78477814 76.08640228 1.77487854 75.22172546 1.76467896 C72.44602282 1.73307604 69.67030305 1.70831126 66.89453125 1.68359375 C64.97067315 1.66302318 63.04681957 1.64202668 61.12297058 1.62062073 C56.05790864 1.56541068 50.99280598 1.51599666 45.92767334 1.46777344 C40.75968805 1.41755065 35.59176192 1.36186864 30.42382812 1.30664062 C20.28260262 1.19907209 10.14132576 1.09762418 0 1 C0 0.67 0 0.34 0 0 Z " fill="#1D5AB5" transform="translate(361,74)"/>
<path d="M0 0 C2.41469 0.93471871 4.79157812 1.89962034 7.125 3.0234375 C13.278381 6.00310218 13.278381 6.00310218 20 6 C22.84920053 4.12230858 22.84920053 4.12230858 25 2 C26.57998851 3.57998851 26.32437987 5.30543302 26.52490234 7.49926758 C26.61534317 8.46529404 26.705784 9.4313205 26.79896545 10.42662048 C26.89366623 11.48853104 26.988367 12.55044159 27.0859375 13.64453125 C27.1875267 14.74571793 27.28911591 15.8469046 27.39378357 16.98146057 C27.72542441 20.59140576 28.05037745 24.20191746 28.375 27.8125 C28.59962503 30.27622527 28.82447911 32.73992967 29.04956055 35.20361328 C30.80151571 54.46062146 32.45624797 73.72520813 34 93 C34.66 93 35.32 93 36 93 C35.67 95.97 35.34 98.94 35 102 C40.28 102 45.56 102 51 102 C51.33 103.32 51.66 104.64 52 106 C51.01 106.495 51.01 106.495 50 107 C52.64 108.32 55.28 109.64 58 111 C58 111.99 58 112.98 58 114 C57.01 114.66 56.02 115.32 55 116 C55.99 116.495 55.99 116.495 57 117 C56.505 118.485 56.505 118.485 56 120 C53.03 120.495 53.03 120.495 50 121 C50.99 121.99 50.99 121.99 52 123 C51.505 124.98 51.505 124.98 51 127 C44.07 126.67 37.14 126.34 30 126 C29.34 128.97 28.68 131.94 28 135 C26.02 135 24.04 135 22 135 C22 131.37 22 127.74 22 124 C20.35 124 18.7 124 17 124 C16.97287675 121.12493579 16.95310149 118.25013092 16.9375 115.375 C16.92912109 114.56675781 16.92074219 113.75851562 16.91210938 112.92578125 C16.8941045 108.49658082 17.10377338 104.36116576 18 100 C18.66 100 19.32 100 20 100 C19.64224839 93.18966993 19.26797715 86.38038115 18.88305664 79.5715332 C18.75439296 77.26281519 18.62929409 74.95389528 18.50805664 72.64477539 C17.19535655 47.73588605 13.84440194 26.80022341 1.5390625 4.9140625 C0 2 0 2 0 0 Z " fill="#EAE4FA" transform="translate(78,250)"/>
<path d="M0 0 C154.77 0 309.54 0 469 0 C469 1.65 469 3.3 469 5 C314.23 5 159.46 5 0 5 C0 3.35 0 1.7 0 0 Z " fill="#1A3A49" transform="translate(17,454)"/>
<path d="M0 0 C13.26459209 -0.04626195 26.52916512 -0.08183788 39.79382133 -0.10362434 C45.95258297 -0.1140787 52.11128957 -0.12826797 58.27001953 -0.15087891 C64.20924549 -0.17254846 70.14841839 -0.18455617 76.08768082 -0.18975449 C78.35798097 -0.19346086 80.62827809 -0.20069805 82.89855576 -0.21146011 C86.06899124 -0.22589677 89.23920511 -0.22798123 92.40966797 -0.22705078 C93.35625275 -0.23424133 94.30283752 -0.24143188 95.27810669 -0.24884033 C96.13909973 -0.246091 97.00009277 -0.24334167 97.88717651 -0.24050903 C98.637516 -0.24235262 99.38785549 -0.24419621 100.16093254 -0.24609566 C102 0 102 0 104 2 C104.68335598 7.58267091 103.96649007 13.49100661 103 19 C101 21 101 21 99.14810848 21.24888897 C98.39169347 21.2483442 97.63527845 21.24779943 96.85594177 21.24723816 C95.98797974 21.25143265 95.1200177 21.25562714 94.22575378 21.25994873 C93.27138931 21.25432922 92.31702484 21.24870972 91.33374023 21.24291992 C89.82878494 21.24576744 89.82878494 21.24576744 88.29342651 21.24867249 C84.96507035 21.25238818 81.63693063 21.24166544 78.30859375 21.23046875 C76.00456264 21.22927738 73.70053104 21.2288237 71.39649963 21.2290802 C66.56353727 21.227514 61.73064884 21.21921339 56.89770508 21.20581055 C50.68748452 21.18881102 44.47734524 21.18499639 38.26710415 21.18575573 C33.50864377 21.18548446 28.75020133 21.18001033 23.9917469 21.17275429 C21.70109251 21.1695613 19.41043608 21.16759875 17.11977959 21.16686058 C13.92543919 21.16470421 10.73118687 21.15597554 7.53686523 21.14526367 C6.10228218 21.14594345 6.10228218 21.14594345 4.63871765 21.14663696 C3.77357544 21.14237198 2.90843323 21.13810699 2.01707458 21.13371277 C0.8830176 21.131199 0.8830176 21.131199 -0.27394962 21.12863445 C-2 21 -2 21 -3 20 C-2.96158081 17.7687316 -2.84335377 15.53865011 -2.6875 13.3125 C-2.60886719 12.09175781 -2.53023438 10.87101562 -2.44921875 9.61328125 C-2.01870619 6.15046282 -1.14878373 3.27898256 0 0 Z " fill="#A9ADC8" transform="translate(279,261)"/>
<path d="M0 0 C1.12356101 0.00081715 1.12356101 0.00081715 2.26982021 0.00165081 C3.55914204 -0.00464092 3.55914204 -0.00464092 4.87451077 -0.01105976 C5.8195245 -0.00544025 6.76453823 0.00017925 7.73818874 0.00596905 C8.7317387 0.0040707 9.72528866 0.00217236 10.74894619 0.00021648 C14.04483751 -0.00349911 17.34051025 0.00722338 20.6363821 0.01842022 C22.91799296 0.0196116 25.19960432 0.02006527 27.48121548 0.01980877 C32.26709969 0.02137495 37.05290925 0.02967543 41.83877468 0.04307842 C47.98846128 0.06007804 54.1380658 0.06389257 60.28777313 0.06313324 C64.99991045 0.06340451 69.71202965 0.06887867 74.42416096 0.07613468 C76.69248664 0.07932764 78.96081438 0.08129021 81.22914219 0.08202839 C84.39234992 0.08418479 87.55546871 0.09291351 90.71865749 0.1036253 C92.13921444 0.10294552 92.13921444 0.10294552 93.58846951 0.10225201 C100.04925211 0.13441523 100.04925211 0.13441523 101.16372585 1.24888897 C101.2904035 4.23907058 101.34893424 7.19583005 101.35122585 10.18638897 C101.36347195 11.02363506 101.37571804 11.86088116 101.38833523 12.72349834 C101.39026882 13.52465069 101.39220242 14.32580303 101.3941946 15.15123272 C101.39830349 15.8884959 101.40241238 16.62575909 101.40664577 17.38536358 C101.16372585 19.24888897 101.16372585 19.24888897 99.16372585 21.24888897 C97.31183434 21.49777794 97.31183434 21.49777794 95.01966763 21.49612713 C94.15170559 21.50032162 93.28374355 21.50451611 92.38947964 21.5088377 C91.43511517 21.50321819 90.48075069 21.49759869 89.49746609 21.49180889 C87.9925108 21.49465641 87.9925108 21.49465641 86.45715237 21.49756145 C83.12879621 21.50127715 79.80065649 21.49055441 76.4723196 21.47935772 C74.16828849 21.47816635 71.86425689 21.47771267 69.56022549 21.47796917 C64.72726312 21.47640297 59.8943747 21.46810236 55.06143093 21.45469952 C48.85121038 21.43769999 42.6410711 21.43388536 36.43083 21.4346447 C31.67236962 21.43437343 26.91392719 21.4288993 22.15547276 21.42164326 C19.86481837 21.41845027 17.57416194 21.41648772 15.28350544 21.41574955 C12.08916504 21.41359317 8.89491272 21.40486451 5.70059109 21.39415264 C4.26600803 21.39483242 4.26600803 21.39483242 2.8024435 21.39552593 C1.93730129 21.39126095 1.07215908 21.38699596 0.18080044 21.38260174 C-0.95325655 21.38008797 -0.95325655 21.38008797 -2.11022377 21.37752342 C-3.83627415 21.24888897 -3.83627415 21.24888897 -4.83627415 20.24888897 C-4.79791853 17.25420065 -4.69090854 14.29920249 -4.52377415 11.31138897 C-4.48832493 10.47414288 -4.45287571 9.63689678 -4.41635227 8.77427959 C-4.37316868 7.97312725 -4.32998508 7.17197491 -4.2854929 6.34654522 C-4.24770725 5.60928204 -4.20992161 4.87201885 -4.17099094 4.11241436 C-3.69431071 1.45851192 -2.69519179 0.36530684 0 0 Z " fill="#A9ACC7" transform="translate(278.8362741470337,288.7511110305786)"/>
<path d="M0 0 C1.244571 3.58879719 0.74691925 6.03002821 -0.125 9.6875 C-2.03112424 18.00031959 -3.66753653 26.35782117 -5.28564453 34.73120117 C-5.49302246 35.7854126 -5.70040039 36.83962402 -5.9140625 37.92578125 C-6.0992041 38.87880127 -6.2843457 39.83182129 -6.47509766 40.8137207 C-7 43 -7 43 -8 44 C-9.56547048 44.09326716 -11.13512772 44.11745582 -12.70336914 44.11352539 C-13.70433121 44.11344986 -14.70529327 44.11337433 -15.73658752 44.11329651 C-16.8251152 44.10813522 -17.91364288 44.10297394 -19.03515625 44.09765625 C-20.14354355 44.0962413 -21.25193085 44.09482635 -22.39390564 44.09336853 C-25.95013069 44.08775033 -29.50629383 44.07519475 -33.0625 44.0625 C-35.46679597 44.05748734 -37.87109292 44.05292403 -40.27539062 44.04882812 C-46.18363706 44.0386239 -52.09174885 44.01905205 -58 44 C-58 33.77 -58 23.54 -58 13 C-44.75 12.5625 -44.75 12.5625 -40.65136719 12.43188477 C-20.68001958 12.49206991 -20.68001958 12.49206991 -3.0703125 4.3359375 C-1.53828344 2.58599406 -1.53828344 2.58599406 0 0 Z " fill="#3A6CC7" transform="translate(97,411)"/>
<path d="M0 0 C0.66 0 1.32 0 2 0 C2.61875 1.03125 3.2375 2.0625 3.875 3.125 C7.99122119 9.2066241 15.94900042 12.54583702 23 14 C21.44268446 26.13632114 16.10238226 36.73945656 7 45 C2.60372013 47.97316799 2.60372013 47.97316799 -0.8125 48.125 C-7.51347567 45.75994976 -12.40786665 40.3854302 -15.90234375 34.30859375 C-19.03886982 27.7118432 -21.29457277 21.35340925 -21 14 C-20.11957031 13.69707031 -19.23914063 13.39414062 -18.33203125 13.08203125 C-10.5751332 10.28403806 -6.15369543 8.32173077 -1.3125 1.6875 C-0.6628125 0.8521875 -0.6628125 0.8521875 0 0 Z " fill="#F9DAE0" transform="translate(219,347)"/>
<path d="M0 0 C17.36776763 -0.09347659 34.73545665 -0.16399541 52.10341835 -0.20724869 C60.16782673 -0.22786652 68.23207872 -0.25597207 76.29638672 -0.30175781 C83.32594323 -0.34164962 90.35538648 -0.36743849 97.38505304 -0.37635398 C101.10663334 -0.38156482 104.82788963 -0.39379549 108.549366 -0.42292023 C112.70574515 -0.45518417 116.86156241 -0.45595792 121.01806641 -0.45410156 C122.24949371 -0.46848267 123.48092102 -0.48286377 124.74966431 -0.49768066 C131.09794468 -0.46694575 135.25535368 -0.42778583 140 4 C142.09492302 7.14238454 142.25111127 7.8491009 142.24145508 11.42553711 C142.2419133 12.3211586 142.24237152 13.21678009 142.24284363 14.13954163 C142.23102554 15.11314133 142.21920746 16.08674103 142.20703125 17.08984375 C142.200168 18.11279037 142.19330475 19.135737 142.18623352 20.18968201 C142.06905513 30.84897104 141.51502052 41.47866021 140.88964844 52.11834717 C140.53106169 58.22785555 140.19495705 64.33862459 139.85546875 70.44921875 C139.78419769 71.72238953 139.71292664 72.9955603 139.63949585 74.30731201 C138.92209745 87.20306219 138.29745889 100.10277918 137.68502808 113.00387573 C137.50036262 116.86741323 137.31150306 120.73072371 137.12133789 124.59399414 C136.56912256 135.85221474 136.02627872 147.11003069 135.57330704 158.37270546 C135.32831883 164.45935025 135.06248208 170.54492501 134.79077148 176.63043213 C134.68114382 179.18944688 134.57992906 181.7488373 134.48754883 184.30853271 C134.35935725 187.84238216 134.20243052 191.37387757 134.0390625 194.90625 C134.0087796 195.94697662 133.9784967 196.98770325 133.94729614 198.05996704 C133.71307227 202.56067036 133.49272619 205.99952304 130.67333984 209.63867188 C127.42872862 212.50459696 125.2668754 212.83267155 121 213 C121.804375 212.21625 122.60875 211.4325 123.4375 210.625 C126.49878038 207.48905424 127.10460175 206.11786619 127.33932495 201.9074707 C127.3893504 201.04730347 127.43937584 200.18713623 127.49091721 199.30090332 C127.54144871 198.35211304 127.59198021 197.40332275 127.64404297 196.42578125 C127.70067738 195.42470337 127.75731178 194.42362549 127.81566238 193.39221191 C128.00417985 190.03255002 128.18586239 186.67255726 128.3671875 183.3125 C128.49877622 180.92862096 128.63052384 178.54475069 128.76242065 176.16088867 C130.30200642 148.1203154 131.66224694 120.07042308 133.02668762 92.02089691 C133.51863982 81.90838932 134.01209265 71.79595831 134.50884628 61.6836853 C134.69034567 57.97645041 134.86967291 54.2691149 135.04885864 50.56176758 C136.02729177 30.50824162 136.02729177 30.50824162 136.79660034 21.46508789 C137.76901183 13.12029085 137.76901183 13.12029085 135.125 5.4375 C133.23715667 2.96011374 133.23715667 2.96011374 131 2 C129.26444817 1.8949984 127.52491068 1.85341718 125.78622437 1.84178162 C124.68122086 1.8319928 123.57621735 1.82220398 122.43772888 1.81211853 C121.21997269 1.80636307 120.00221649 1.8006076 118.74755859 1.79467773 C116.8305439 1.77982834 116.8305439 1.77982834 114.87480164 1.76467896 C111.36472155 1.73760125 107.85462799 1.71660724 104.34450102 1.69667697 C100.67826081 1.67483506 97.0120623 1.6474376 93.34585571 1.62062073 C86.40087393 1.57066952 79.45586903 1.52573972 72.51084197 1.48259836 C64.60523533 1.43324671 56.69967053 1.37832091 48.79410434 1.32291877 C32.52944144 1.20906146 16.26474022 1.10223061 0 1 C0 0.67 0 0.34 0 0 Z " fill="#D7D9F2" transform="translate(287,129)"/>
<path d="M0 0 C5.15654905 3.99216701 10.21797195 9.3294163 11.19140625 15.9609375 C10.81640625 18.40625 10.81640625 18.40625 9.12890625 20.1015625 C-1.79817687 26.85715781 -11.61694954 29.89328432 -24.5 27.20703125 C-29.97474306 25.5733743 -35.47523537 22.86552207 -39.18359375 18.40625 C-39.29899801 13.44386672 -37.11077512 10.1277972 -34.1328125 6.37109375 C-25.4666377 -2.36454938 -11.18029128 -6.53545211 0 0 Z " fill="#FEFDFE" transform="translate(345.18359375,220.59375)"/>
<path d="M0 0 C1.32 0.66 2.64 1.32 4 2 C4 4.31 4 6.62 4 9 C4.58007812 8.43410156 5.16015625 7.86820313 5.7578125 7.28515625 C13.51669596 0 13.51669596 0 19 0 C19.33 0.99 19.66 1.98 20 3 C19.67 3.66 19.34 4.32 19 5 C19.721875 4.67 20.44375 4.34 21.1875 4 C24.01697427 2.99396471 26.02895466 2.83022598 29 3 C28.67 4.98 28.34 6.96 28 9 C29.32 9 30.64 9 32 9 C31.835 9.78375 31.67 10.5675 31.5 11.375 C30.9376293 13.88208039 30.9376293 13.88208039 31 16 C31.66 16.33 32.32 16.66 33 17 C32.29181546 21.79066012 29.5331121 23.29488601 25.8203125 26.05859375 C21.58509037 28.97397519 17.2252942 31.65050266 12.8203125 34.30078125 C10.85127836 35.48711069 8.91271569 36.72485621 7 38 C3.77004658 37.67185258 2.1007588 36.48419749 -0.1640625 34.234375 C-0.72867188 33.67363281 -1.29328125 33.11289063 -1.875 32.53515625 C-2.4525 31.94605469 -3.03 31.35695312 -3.625 30.75 C-4.21023437 30.17636719 -4.79546875 29.60273438 -5.3984375 29.01171875 C-11.49037075 22.87786853 -11.49037075 22.87786853 -12 19 C-10.95636795 16.07285318 -9.42872614 13.51973369 -7.8125 10.875 C-7.1927832 9.80185547 -7.1927832 9.80185547 -6.56054688 8.70703125 C-4.62332882 5.41160467 -2.79889812 2.63289172 0 0 Z " fill="#FEC2BC" transform="translate(215,214)"/>
<path d="M0 0 C0.33 0.66 0.66 1.32 1 2 C1.66 2 2.32 2 3 2 C2.67 4.97 2.34 7.94 2 11 C7.28 11 12.56 11 18 11 C18.495 12.98 18.495 12.98 19 15 C18.34 15.33 17.68 15.66 17 16 C19.64 17.32 22.28 18.64 25 20 C25 20.99 25 21.98 25 23 C24.01 23.66 23.02 24.32 22 25 C22.66 25.33 23.32 25.66 24 26 C23.505 27.485 23.505 27.485 23 29 C20.03 29.495 20.03 29.495 17 30 C17.66 30.66 18.32 31.32 19 32 C18.67 33.32 18.34 34.64 18 36 C11.07 35.67 4.14 35.34 -3 35 C-3.66 37.97 -4.32 40.94 -5 44 C-6.98 44 -8.96 44 -11 44 C-11 40.37 -11 36.74 -11 33 C-12.65 33 -14.3 33 -16 33 C-16.02712325 30.12493579 -16.04689851 27.25013092 -16.0625 24.375 C-16.07087891 23.56675781 -16.07925781 22.75851562 -16.08789062 21.92578125 C-16.1058955 17.49658082 -15.89622662 13.36116576 -15 9 C-14.34 9 -13.68 9 -13 9 C-13 7.02 -13 5.04 -13 3 C-12.34 4.32 -11.68 5.64 -11 7 C-10.37351562 6.71125 -9.74703125 6.4225 -9.1015625 6.125 C-7.87566406 5.568125 -7.87566406 5.568125 -6.625 5 C-5.81289062 4.62875 -5.00078125 4.2575 -4.1640625 3.875 C-2 3 -2 3 0 3 C0 2.01 0 1.02 0 0 Z " fill="#FACDC2" transform="translate(111,341)"/>
<path d="M0 0 C2.69990662 1.79993774 4.5418865 3.083773 6 6 C6.04022391 8.3329866 6.04320247 10.66706666 6 13 C6.99 13.33 7.98 13.66 9 14 C10.63405901 17.26811802 10.18453757 20.84999407 10.1875 24.4375 C10.19974609 25.21416016 10.21199219 25.99082031 10.22460938 26.79101562 C10.23474195 30.71232309 10.2225417 32.66618745 8 36 C5.78515625 36.38818359 5.78515625 36.38818359 3.0625 36.3984375 C1.59683594 36.40423828 1.59683594 36.40423828 0.1015625 36.41015625 C-0.92195313 36.39855469 -1.94546875 36.38695312 -3 36.375 C-4.02351563 36.38660156 -5.04703125 36.39820313 -6.1015625 36.41015625 C-7.07867187 36.40628906 -8.05578125 36.40242188 -9.0625 36.3984375 C-9.96097656 36.39505371 -10.85945313 36.39166992 -11.78515625 36.38818359 C-12.51605469 36.26008301 -13.24695313 36.13198242 -14 36 C-16.56628339 32.15057491 -16.29464462 28.95702113 -16.25 24.5 C-16.25773437 23.72785156 -16.26546875 22.95570312 -16.2734375 22.16015625 C-16.25993153 18.26368532 -16.20675169 16.31012753 -14 13 C-13.34 13 -12.68 13 -12 13 C-12.061875 11.39125 -12.061875 11.39125 -12.125 9.75 C-11.95462478 4.63874346 -11.95462478 4.63874346 -10 2 C-6.77706714 -0.3020949 -3.88003676 -0.47510654 0 0 Z M-6.75 5.125 C-8.5133966 7.77009491 -8.20694492 9.89582621 -8 13 C-4.7 13 -1.4 13 2 13 C2.36017076 8.83296056 2.36017076 8.83296056 0.75 5.125 C-1.89802025 3.42270126 -4.10197975 3.42270126 -6.75 5.125 Z " fill="#F9DAE0" transform="translate(127,79)"/>
<path d="M0 0 C9.57 0 19.14 0 29 0 C31.28571429 18.14285714 31.28571429 18.14285714 31 26 C20.61871087 25.79008423 14.95414423 23.27815373 7.75 15.875 C3.10003084 10.93680961 2.61389617 7.18821446 0 0 Z " fill="#F95F80" transform="translate(117,398)"/>
<path d="M0 0 C3.56268053 2.16858815 5.45038819 4.16453549 7 8 C7.33403245 12.78779839 6.66898085 16.15021351 3.6875 19.9375 C-1.0794521 23.59585859 -3.84522899 24.53989219 -10 24 C-13.5386994 22.34860695 -14.81070153 21.28394771 -17 18 C-17.66100598 13.95742659 -17.91928345 9.79827957 -16.01953125 6.08203125 C-11.59886613 0.57320241 -6.99413938 -1.14019767 0 0 Z " fill="#FEFBFC" transform="translate(339,190)"/>
<path d="M0 0 C1.03253906 0.00902344 2.06507812 0.01804687 3.12890625 0.02734375 C4.27166016 0.04474609 4.27166016 0.04474609 5.4375 0.0625 C2.65781649 2.84218351 -0.54658575 3.29222045 -4.25 4.25 C-11.68787428 6.24405795 -19.07229638 8.37709225 -26.4375 10.625 C-27.41702637 10.92374023 -28.39655273 11.22248047 -29.40576172 11.53027344 C-35.49061154 13.39793126 -41.54063284 15.33662226 -47.55078125 17.43359375 C-49.5625 18.0625 -49.5625 18.0625 -51.5625 18.0625 C-51.5625 12.4525 -51.5625 6.8425 -51.5625 1.0625 C-49.06816406 1.07410156 -46.57382812 1.08570313 -44.00390625 1.09765625 C-41.56128059 1.10547732 -39.11865637 1.11153669 -36.67602539 1.11743164 C-34.99144862 1.12242943 -33.30687612 1.12922989 -31.62231445 1.13793945 C-29.18700094 1.15020622 -26.75174526 1.15577398 -24.31640625 1.16015625 C-23.20489952 1.16789818 -23.20489952 1.16789818 -22.07093811 1.17579651 C-17.51449752 1.17627445 -13.08648782 0.86091621 -8.56567383 0.28735352 C-5.70508909 -0.0337432 -2.87585527 -0.03305581 0 0 Z " fill="#BC4869" transform="translate(87.5625,373.9375)"/>
<path d="M0 0 C3.96635751 2.74593982 4.0102389 4.0511945 5 9 C8.96 10.32 12.92 11.64 17 13 C17.33 12.34 17.66 11.68 18 11 C21.3125 11.125 21.3125 11.125 25 12 C27.10333756 14.95781845 28.16782739 16.72451182 27.6875 20.375 C27.3471875 21.179375 27.3471875 21.179375 27 22 C21.2073537 21.38574623 16.05390934 19.84466956 10.5625 17.9375 C9.73556641 17.65583984 8.90863281 17.37417969 8.05664062 17.08398438 C6.03587662 16.39482208 4.01766718 15.6981769 2 15 C1.55398437 15.47824219 1.10796875 15.95648438 0.6484375 16.44921875 C-1.54584381 18.51350709 -3.01259444 18.78661389 -6 19 C-9.81263347 17.93600927 -10.75011007 17.3748349 -13 14 C-13.83571542 9.30239966 -13.62775298 5.96124676 -11 1.9375 C-6.83994881 -0.74919973 -4.89701312 -0.6995733 0 0 Z M-6 5 C-8.26839983 6.83265325 -8.26839983 6.83265325 -8.1875 9.5625 C-8.27003323 11.94689723 -8.27003323 11.94689723 -7 13 C-5.33382885 13.04063832 -3.66611905 13.042721 -2 13 C-1.67 10.69 -1.34 8.38 -1 6 C-3.39719432 5.32041397 -3.39719432 5.32041397 -6 5 Z " fill="#EAE8FE" transform="translate(195,137)"/>
<path d="M0 0 C7.16650549 8.53155416 7.19334606 17.9558994 7.1875 28.5 C7.18814453 29.69149658 7.18878906 30.88299316 7.18945312 32.1105957 C7.12653271 42.8263719 6.27636691 53.36740783 5 64 C6.95486328 64.17402344 6.95486328 64.17402344 8.94921875 64.3515625 C13.7454801 64.88604324 18.19545208 66.00546803 22.8125 67.375 C24.37855316 67.82544814 25.94496153 68.27466313 27.51171875 68.72265625 C28.2701709 68.94066895 29.02862305 69.15868164 29.81005859 69.38330078 C34.5095951 70.70671541 39.25430399 71.85544979 44 73 C44 73.33 44 73.66 44 74 C33.44115941 73.42881373 23.03797741 72.35069066 12.5625 70.9375 C11.13742794 70.74890902 9.71229783 70.56075621 8.28710938 70.37304688 C4.85739291 69.92038244 1.42848595 69.4619035 -2 69 C-0.12690984 57.46931471 -0.12690984 57.46931471 0.8515625 52.83984375 C2.69998992 43.51368722 3.31704871 34.44730597 3.375 24.9375 C3.38869629 23.79595459 3.40239258 22.65440918 3.41650391 21.47827148 C3.38380516 15.45860943 2.89915563 10.41538777 0.64306641 4.80688477 C0 3 0 3 0 0 Z " fill="#BD4869" transform="translate(48,274)"/>
<path d="M0 0 C1.08003296 0.00326294 1.08003296 0.00326294 2.18188477 0.0065918 C4.37697108 0.0097488 6.57070573 -0.01369198 8.765625 -0.0390625 C10.15950351 -0.04133581 11.55338564 -0.04203884 12.94726562 -0.04101562 C14.85270142 -0.04548706 14.85270142 -0.04548706 16.79663086 -0.05004883 C19.95117188 0.32226562 19.95117188 0.32226562 21.89672852 1.68481445 C22.95117188 3.32226562 22.95117188 3.32226562 22.82617188 5.88476562 C21.95117188 8.32226562 21.95117188 8.32226562 18.95117188 10.32226562 C14.66626275 10.70852546 10.37242836 10.65145253 6.07226562 10.63793945 C3.95846138 10.63477653 1.84605341 10.65825576 -0.26757812 10.68359375 C-1.61132636 10.68586657 -2.95507836 10.68657032 -4.29882812 10.68554688 C-5.52085937 10.68852783 -6.74289062 10.69150879 -8.00195312 10.69458008 C-11.04882812 10.32226562 -11.04882812 10.32226562 -12.98242188 8.9597168 C-14.04882812 7.32226562 -14.04882812 7.32226562 -13.86132812 4.75976562 C-11.71289264 -1.68554083 -5.708159 0.02285414 0 0 Z " fill="#FCFCFE" transform="translate(356.048828125,373.677734375)"/>
<path d="M0 0 C0.33 0 0.66 0 1 0 C1.18987524 8.91771527 0.66241669 17.52917319 -0.4375 26.375 C-1.46616 35.01277958 -2.3558933 43.58450813 -2.69140625 52.27734375 C-2.99803798 54.98268949 -3.60973147 56.68288578 -5 59 C-5.51770354 57.23426114 -6.01298494 55.46194837 -6.5 53.6875 C-6.7784375 52.70136719 -7.056875 51.71523438 -7.34375 50.69921875 C-8.94375129 41.68016386 -7.78625791 33.45381976 -5.6875 24.625 C-5.4603833 23.62782959 -5.2332666 22.63065918 -4.99926758 21.60327148 C-4.34341239 18.73294329 -3.67285469 15.86638175 -3 13 C-2.66538178 11.5406586 -2.3318887 10.08105832 -2 8.62109375 C-1.34330784 5.74490837 -0.67785836 2.87125368 0 0 Z " fill="#1F5BB6" transform="translate(102,393)"/>
<path d="M0 0 C2.71452522 3.28818306 5.08627994 6.61578873 7.3125 10.25 C10.56437396 15.43751322 14.14196969 20.25075296 18 25 C14.15296347 26.42482835 11.22112899 25.57917819 7.3125 24.625 C6.15363281 24.34914063 4.99476563 24.07328125 3.80078125 23.7890625 C1 23 1 23 0 22 C-0.08700342 20.36527118 -0.10701063 18.72685945 -0.09765625 17.08984375 C-0.09443359 16.10048828 -0.09121094 15.11113281 -0.08789062 14.09179688 C-0.07951172 13.05087891 -0.07113281 12.00996094 -0.0625 10.9375 C-0.05798828 9.89271484 -0.05347656 8.84792969 -0.04882812 7.77148438 C-0.03699913 5.1809334 -0.02051689 2.59049441 0 0 Z " fill="#BE496A" transform="translate(140,277)"/>
<path d="M0 0 C11.88 0 23.76 0 36 0 C36 1.32 36 2.64 36 4 C24.12 4 12.24 4 0 4 C0 2.68 0 1.36 0 0 Z " fill="#F2F5FB" transform="translate(352,95)"/>
<path d="M0 0 C12.54 0 25.08 0 38 0 C38 0.99 38 1.98 38 3 C25.46 3 12.92 3 0 3 C0 2.01 0 1.02 0 0 Z " fill="#E6E4FB" transform="translate(296,270)"/>
<path d="M0 0 C7.26 0 14.52 0 22 0 C22 1.32 22 2.64 22 4 C14.74 4 7.48 4 0 4 C0 2.68 0 1.36 0 0 Z " fill="#DFDEF5" transform="translate(342,270)"/>
<path d="M0 0 C0.99 0.33 1.98 0.66 3 1 C3 1.66 3 2.32 3 3 C1.53125 4.14501953 1.53125 4.14501953 -0.5 5.3828125 C-1.221875 5.82753906 -1.94375 6.27226562 -2.6875 6.73046875 C-3.8321875 7.42076172 -3.8321875 7.42076172 -5 8.125 C-6.1446875 8.82689453 -6.1446875 8.82689453 -7.3125 9.54296875 C-9.20449273 10.7018143 -11.10034852 11.85376747 -13 13 C-15.52588702 10.63707344 -16.88820837 9.33537489 -18 6 C-17.01 5.67 -16.02 5.34 -15 5 C-14.39285156 5.38027344 -13.78570312 5.76054687 -13.16015625 6.15234375 C-12.44730469 6.43207031 -11.73445312 6.71179688 -11 7 C-8.19186213 5.65536443 -8.19186213 5.65536443 -5.4375 3.5625 C-2.55859375 1.50390625 -2.55859375 1.50390625 0 0 Z " fill="#FEFBFC" transform="translate(228,366)"/>
<path d="M0 0 C2.5 0.25 2.5 0.25 4.5 2.25 C4.125 5.375 4.125 5.375 3.5 8.25 C0.625 8.875 0.625 8.875 -2.5 9.25 C-4.5 7.25 -4.5 7.25 -4.75 4.75 C-4.40058445 1.25584452 -3.49415548 0.34941555 0 0 Z " fill="#F9FAFD" transform="translate(370.5,81.75)"/>
<path d="M0 0 C2.31 0 4.62 0 7 0 C6.67 3.3 6.34 6.6 6 10 C4.02 10 2.04 10 0 10 C0 6.7 0 3.4 0 0 Z " fill="#E9E4FA" transform="translate(100,375)"/>
<path d="M0 0 C1.98 0 3.96 0 6 0 C5.87431641 1.15628906 5.87431641 1.15628906 5.74609375 2.3359375 C5.64425781 3.33882813 5.54242188 4.34171875 5.4375 5.375 C5.33308594 6.37273437 5.22867188 7.37046875 5.12109375 8.3984375 C4.78855292 10.984037 4.78855292 10.984037 6 13 C5.01 13.33 4.02 13.66 3 14 C2.67 12.68 2.34 11.36 2 10 C1.67 12.31 1.34 14.62 1 17 C0.67 17 0.34 17 0 17 C0 11.39 0 5.78 0 0 Z " fill="#4564B8" transform="translate(100,385)"/>
<path d="M0 0 C0.96099609 0.30744141 0.96099609 0.30744141 1.94140625 0.62109375 C6.97287851 2.18827364 11.75988003 3.43042174 17 4 C17 5.65 17 7.3 17 9 C15.10213071 8.23419309 13.20678756 7.46212423 11.3125 6.6875 C9.72888672 6.04361328 9.72888672 6.04361328 8.11328125 5.38671875 C5.23929482 4.10658678 2.62161868 2.73639679 0 1 C0 0.67 0 0.34 0 0 Z " fill="#F2908E" transform="translate(85,226)"/>
<path d="M0 0 C1.32 0.66 2.64 1.32 4 2 C3.67 4.64 3.34 7.28 3 10 C1.68 10 0.36 10 -1 10 C-1.9765625 3.9453125 -1.9765625 3.9453125 -2 2 C-1.34 1.34 -0.68 0.68 0 0 Z " fill="#FEFCFD" transform="translate(123,98)"/>
<path d="M0 0 C2.0625 0.4375 2.0625 0.4375 4 1 C4.625 2.875 4.625 2.875 5 5 C4.34 5.66 3.68 6.32 3 7 C0.375 6.625 0.375 6.625 -2 6 C-1.125 1.125 -1.125 1.125 0 0 Z " fill="#E1E0F6" transform="translate(339,296)"/>
<path d="M0 0 C2.0625 0.4375 2.0625 0.4375 4 1 C4.625 2.875 4.625 2.875 5 5 C4.34 5.66 3.68 6.32 3 7 C0.375 6.625 0.375 6.625 -2 6 C-1.125 1.125 -1.125 1.125 0 0 Z " fill="#E1E0F6" transform="translate(326,296)"/>
<path d="M0 0 C2.0625 0.4375 2.0625 0.4375 4 1 C4.625 2.875 4.625 2.875 5 5 C4.34 5.66 3.68 6.32 3 7 C0.375 6.625 0.375 6.625 -2 6 C-1.125 1.125 -1.125 1.125 0 0 Z " fill="#E2E0F7" transform="translate(352,296)"/>
<path d="M0 0 C0.33 0 0.66 0 1 0 C1 4.29 1 8.58 1 13 C1.66 13 2.32 13 3 13 C3 16.96 3 20.92 3 25 C2.67 25 2.34 25 2 25 C1.67 23.02 1.34 21.04 1 19 C0.67 19 0.34 19 0 19 C0 12.73 0 6.46 0 0 Z " fill="#D25071" transform="translate(52,292)"/>
<path d="M0 0 C2.125 0.375 2.125 0.375 4 1 C4 2.65 4 4.3 4 6 C2.35 6.33 0.7 6.66 -1 7 C-1.625 4.625 -1.625 4.625 -2 2 C-1.34 1.34 -0.68 0.68 0 0 Z " fill="#E3E2F8" transform="translate(313,296)"/>
<path d="M0 0 C2.125 0.375 2.125 0.375 4 1 C4 2.65 4 4.3 4 6 C2.35 6.33 0.7 6.66 -1 7 C-1.625 4.625 -1.625 4.625 -2 2 C-1.34 1.34 -0.68 0.68 0 0 Z " fill="#E4E2F8" transform="translate(300,296)"/>
<path d="M0 0 C1.32 0.33 2.64 0.66 4 1 C3.67 2.65 3.34 4.3 3 6 C2.01 6 1.02 6 0 6 C0 4.02 0 2.04 0 0 Z " fill="#2B2C48" transform="translate(89,189)"/>
<path d="M0 0 C1.98 0.495 1.98 0.495 4 1 C3.67 2.32 3.34 3.64 3 5 C1.68 4.67 0.36 4.34 -1 4 C-0.67 2.68 -0.34 1.36 0 0 Z " fill="#F0F1F5" transform="translate(404,137)"/>
<path d="M0 0 C1.98 0.495 1.98 0.495 4 1 C3.67 2.32 3.34 3.64 3 5 C1.68 4.67 0.36 4.34 -1 4 C-0.67 2.68 -0.34 1.36 0 0 Z " fill="#F1F2F6" transform="translate(397,137)"/>
<path d="M0 0 C0.99 0.33 1.98 0.66 3 1 C2.67 2.65 2.34 4.3 2 6 C1.01 5.67 0.02 5.34 -1 5 C-0.67 3.35 -0.34 1.7 0 0 Z " fill="#151C3C" transform="translate(108,189)"/>
<path d="M0 0 C0.99 0.33 1.98 0.66 3 1 C2.67 2.32 2.34 3.64 2 5 C0.68 4.67 -0.64 4.34 -2 4 C-1.34 2.68 -0.68 1.36 0 0 Z " fill="#F4F5F8" transform="translate(412,137)"/>
</svg>