<svg xmlns="http://www.w3.org/2000/svg" version="1.1" viewBox="13 111 474 338.27">
<path d="M0 0 C7.38433392 1.45027835 14.26406284 3.71819567 21.33203125 6.28125 C22.48620041 6.69540161 23.64036957 7.10955322 24.82951355 7.53625488 C27.25502549 8.40782782 29.67959786 9.28201947 32.10327148 10.15869141 C35.81601203 11.50127 39.53174938 12.83527155 43.24804688 14.16796875 C45.6095549 15.01772939 47.9708892 15.86797299 50.33203125 16.71875 C51.44246292 17.11775513 52.55289459 17.51676025 53.69697571 17.92785645 C54.72872421 18.30164429 55.76047272 18.67543213 56.82348633 19.06054688 C57.72899734 19.3876062 58.63450836 19.71466553 59.56745911 20.05163574 C61.79146563 20.9186996 63.88722421 21.8925085 66 23 C65.33654156 28.25727825 63.74419696 32.92859068 61.9375 37.875 C61.65583984 38.65875 61.37417969 39.4425 61.08398438 40.25 C60.39386218 42.16830576 59.69755684 44.08438519 59 46 C60.9377253 46.00213753 60.9377253 46.00213753 62.91459656 46.00431824 C75.08346428 46.02098125 87.25199729 46.06373386 99.42068768 46.13209057 C105.6769103 46.16639429 111.93288785 46.19147588 118.18920898 46.19555664 C124.22594291 46.19983222 130.26212365 46.22823437 136.29868507 46.27343178 C138.60274853 46.28643033 140.90687811 46.29070617 143.21097374 46.28615379 C146.43642427 46.28126482 149.66024742 46.30726662 152.88549805 46.34057617 C153.83999847 46.33195053 154.7944989 46.32332489 155.77792358 46.31443787 C160.33266425 46.39338889 162.35810787 46.50781771 166.06965637 49.35371399 C168.78734607 53.07936372 169.12080009 55.69839327 169.0625 60.1875 C169.05347656 61.08855469 169.04445313 61.98960937 169.03515625 62.91796875 C169.01775391 63.94857422 169.01775391 63.94857422 169 65 C170.09465576 64.60619141 171.18931152 64.21238281 172.31713867 63.80664062 C176.38641653 62.345052 180.45934524 60.89388205 184.53344727 59.44580078 C186.29487493 58.81809673 188.05530536 58.18758685 189.81469727 57.55419922 C192.34653715 56.64328027 194.88181395 55.74257439 197.41796875 54.84375 C198.20149216 54.55939087 198.98501556 54.27503174 199.7922821 53.98205566 C203.64929973 52.62619607 206.84589367 51.62399734 211 52 C214.32978224 59.15252428 217.12316915 66.46093491 219.8125 73.875 C220.23208984 75.00164062 220.65167969 76.12828125 221.08398438 77.2890625 C221.47521484 78.36671875 221.86644531 79.444375 222.26953125 80.5546875 C222.62635986 81.52905762 222.98318848 82.50342773 223.35083008 83.50732422 C224 86 224 86 223 89 C220.4921875 90.21875 220.4921875 90.21875 216.875 91.5 C216.20791016 91.73992676 215.54082031 91.97985352 214.85351562 92.22705078 C213.24511811 92.80301225 211.63452929 93.37287087 210.02246094 93.93847656 C206.35707719 95.22580197 202.69815971 96.53087413 199.0390625 97.8359375 C191.3641049 100.57072684 183.68333219 103.28883173 176 106 C181.67746343 109.78497562 188.66196325 110.03649057 195.34765625 110.55859375 C196.41121338 110.64294678 197.47477051 110.7272998 198.57055664 110.81420898 C199.7731311 110.90617554 199.7731311 110.90617554 201 111 C201.20054415 116.27932467 201.34419976 121.55634753 201.43945312 126.83862305 C201.47922951 128.62807916 201.53347447 130.41728333 201.60351562 132.20581055 C202.27605337 149.84509107 197.38408561 160.52195045 186 174 C185.38125 174.886875 184.7625 175.77375 184.125 176.6875 C180.29028216 180.8605753 175.38256029 184.20581324 170 186 C169.67 197.22 169.34 208.44 169 220 C171.64 220.33 174.28 220.66 177 221 C179 222.25 179 222.25 180 224 C180.4375 226.4375 180.4375 226.4375 180 229 C178 231.3125 178 231.3125 176 233 C176.60328125 233.38671875 177.2065625 233.7734375 177.828125 234.171875 C185.76625659 239.34446397 185.76625659 239.34446397 189 243 C189.721875 242.05125 190.44375 241.1025 191.1875 240.125 C193.5935458 237.29002124 195.25034224 235.76697545 199 235 C204.29679296 235.01933136 208.77802014 235.59896067 213 239 C221 247.57142857 221 247.57142857 221 253 C220.1646875 252.70996094 220.1646875 252.70996094 219.3125 252.4140625 C214.24882873 250.68625575 209.20677935 249.2306933 204 248 C204 248.99 204 249.98 204 251 C204.72445313 251.10957031 205.44890625 251.21914063 206.1953125 251.33203125 C218.32057416 253.32057416 218.32057416 253.32057416 222 257 C222.23961213 261.23314767 222.32488647 264.36736489 220 268 C219.195625 266.9171875 219.195625 266.9171875 218.375 265.8125 C214.61864954 261.36419025 211.1079306 257.53893505 205 257 C205.75880526 260.23977803 205.75880526 260.23977803 208.8125 262.0625 C212.90277413 265.32085397 215.04427086 269.90277789 216 275 C214.8868901 279.1609108 212.53072464 282.30747016 210 285.75 C209.29875 286.71421875 208.5975 287.6784375 207.875 288.671875 C206 291 206 291 204 292 C203.76925781 291.28714844 203.53851563 290.57429688 203.30078125 289.83984375 C201.13584582 283.32559353 201.13584582 283.32559353 197.4375 277.625 C193.67940784 272.90418669 193.07133705 266.79218812 192 261 C191.34 261.33 190.68 261.66 190 262 C189.5316735 264.58605332 189.5316735 264.58605332 189.375 267.5625 C189.30023438 268.57441406 189.22546875 269.58632813 189.1484375 270.62890625 C189.09945313 271.41136719 189.05046875 272.19382812 189 273 C183.55608698 271.1637227 181.51856147 268.41865859 178 264 C179.32 261.03 180.64 258.06 182 255 C181.67 254.67 181.34 254.34 181 254 C179.35 256.31 177.7 258.62 176 261 C175.34 260.67 174.68 260.34 174 260 C173.03215639 262.90353084 172.73435711 265.21798774 172.5 268.25390625 C172.4175 269.27291016 172.335 270.29191406 172.25 271.34179688 C172.08303193 273.49281517 171.91636635 275.64385696 171.75 277.79492188 C171.6675 278.81263672 171.585 279.83035156 171.5 280.87890625 C171.4278125 281.8129126 171.355625 282.74691895 171.28125 283.70922852 C171 286 171 286 170 288 C173.63 288 177.26 288 181 288 C181 294.27 181 300.54 181 307 C182.29164063 306.96519531 183.58328125 306.93039062 184.9140625 306.89453125 C198.17944075 306.65971382 211.2816519 307.2896304 224.5 308.3125 C225.2980304 308.3714444 226.09606079 308.43038879 226.91827393 308.49111938 C237.78303298 309.30499297 248.33531988 310.766009 259 313 C259.33 313.99 259.66 314.98 260 316 C216.42246677 333.19385665 151.2755826 324.85500328 104.8515625 325.5546875 C104.16731783 325.56519913 103.48307317 325.57571077 102.77809381 325.58654094 C68.25938511 326.11552802 33.74237873 326.1206468 -0.77957559 326.0720275 C-9.12903818 326.06048353 -17.47850205 326.05526255 -25.82797074 326.05032361 C-42.88532324 326.04010469 -59.94265946 326.02273451 -77 326 C-76.195625 326.61875 -75.39125 327.2375 -74.5625 327.875 C-72 330 -72 330 -71 332 C-71 334.86569063 -72.05960637 335.94896989 -74 338 C-81.69034526 339.40607059 -88.78905033 334.98850122 -95 331 C-95.58007812 330.50242187 -96.16015625 330.00484375 -96.7578125 329.4921875 C-104.32852098 324.45384144 -113.08164108 324.40238284 -121.86137199 324.03372192 C-124.20967058 323.93509225 -126.55678308 323.82075325 -128.90419006 323.70288086 C-133.07103036 323.49620462 -137.23837064 323.30316767 -141.40606689 323.11462402 C-181.09290176 321.31759266 -181.09290176 321.31759266 -197.00390625 319.5 C-198.04731674 319.38148682 -199.09072723 319.26297363 -200.16575623 319.14086914 C-205.00251238 318.54086036 -209.42981295 317.79083018 -214 316 C-213.67 315.01 -213.34 314.02 -213 313 C-200.73052054 310.39685726 -188.49545826 309.01516486 -176 308 C-176.66 307.01 -177.32 306.02 -178 305 C-178.28761292 302.47770691 -178.28761292 302.47770691 -178.33813477 299.43041992 C-178.36057755 298.28880905 -178.38302032 297.14719818 -178.40614319 295.97099304 C-178.4235984 294.11943352 -178.4235984 294.11943352 -178.44140625 292.23046875 C-178.45517807 290.96157303 -178.46894989 289.69267731 -178.48313904 288.3853302 C-178.50643455 285.69773881 -178.52434433 283.01061613 -178.53540039 280.32299805 C-178.5519372 276.88912455 -178.61034238 273.45731488 -178.67854404 270.02413464 C-178.73423538 266.73893027 -178.74057207 263.45357596 -178.75390625 260.16796875 C-178.78376114 258.93966843 -178.81361603 257.7113681 -178.84437561 256.44584656 C-178.80144473 248.10788113 -178.80144473 248.10788113 -176.48164368 244.90109253 C-169.30096216 238.60399126 -158.46307801 235 -149 235 C-149 231.7 -149 228.4 -149 225 C-150.2375 224.95875 -151.475 224.9175 -152.75 224.875 C-154.859375 224.8046875 -154.859375 224.8046875 -157 224 C-160.43563845 219.84989785 -161.72323522 216.12550531 -162.6875 210.875 C-162.80851074 210.2262793 -162.92952148 209.57755859 -163.05419922 208.90917969 C-163.9735972 203.75601076 -164.48942778 198.61283011 -164.7890625 193.390625 C-164.91983758 190.85445304 -164.91983758 190.85445304 -166 188 C-167.14721817 167.12945405 -167.14721817 167.12945405 -160.625 159.0625 C-155.89558376 155.3465301 -150.75301589 154.36512241 -145 153 C-145.495 152.484375 -145.99 151.96875 -146.5 151.4375 C-148.88187616 147.56695123 -148.37375074 143.86968903 -147.51220703 139.55981445 C-146.8383264 136.83260079 -146.08950558 134.13707194 -145.3125 131.4375 C-145.06822266 130.51775391 -144.82394531 129.59800781 -144.57226562 128.65039062 C-142.75312324 122.24424617 -140.66779612 117.30547185 -134.8125 113.625 C-127.88362365 112.0852497 -121.13370159 112.15140293 -115 116 C-110.89079467 120.64286836 -108.79875237 125.75014318 -109 132 C-109.81675865 140.00670975 -112.28869142 147.4583504 -115 155 C-116.65 155.33 -118.3 155.66 -120 156 C-120 156.66 -120 157.32 -120 158 C-119.43152344 158.14695312 -118.86304687 158.29390625 -118.27734375 158.4453125 C-111.51333157 160.41015076 -106.25496028 162.96985821 -102.71484375 169.296875 C-100.31917987 174.82665113 -99.53919468 180.04035125 -99 186 C-95.8742604 185.89037184 -92.74975219 185.75968759 -89.625 185.625 C-88.29082031 185.57859375 -88.29082031 185.57859375 -86.9296875 185.53125 C-86.07890625 185.49257813 -85.228125 185.45390625 -84.3515625 185.4140625 C-83.56604004 185.3826416 -82.78051758 185.3512207 -81.97119141 185.31884766 C-79.76997061 185.1600535 -79.76997061 185.1600535 -78 183 C-77.69957384 180.62304889 -77.69957384 180.62304889 -77.75517273 177.81987 C-77.75123505 176.72209229 -77.74729736 175.62431458 -77.74324036 174.49327087 C-77.74893539 173.2833699 -77.75463043 172.07346893 -77.76049805 170.8269043 C-77.75740625 168.87744592 -77.7543082 166.92798755 -77.75097525 164.97852957 C-77.74914829 162.879235 -77.75209392 160.77999125 -77.75617027 158.6807003 C-77.7637659 154.30626151 -77.75314011 149.93198697 -77.7389679 145.55757141 C-77.70118915 133.11723218 -77.68303517 120.67696626 -77.69458008 108.23657227 C-77.70079692 101.36841146 -77.6892122 94.50051478 -77.65813476 87.63241893 C-77.63947324 83.28485239 -77.64280547 78.93803347 -77.66230237 74.59047925 C-77.67080392 71.24727177 -77.64674754 67.90444051 -77.62768555 64.5612793 C-77.63945328 63.35745102 -77.65122101 62.15362274 -77.66334534 60.91331482 C-77.57371468 52.91528963 -77.57371468 52.91528963 -74.96670532 48.75613403 C-71.22607774 46.54187859 -68.13659325 46.29183055 -63.9050293 46.34057617 C-63.10450638 46.33009247 -62.30398346 46.31960876 -61.47920227 46.30880737 C-58.84381148 46.28009835 -56.20973764 46.2863437 -53.57421875 46.29296875 C-51.74288795 46.27985114 -49.91157161 46.26454672 -48.08027649 46.24714661 C-43.26830414 46.20729089 -38.45671022 46.1971058 -33.64459229 46.19311523 C-28.73104366 46.18378488 -23.81771749 46.14637194 -18.90429688 46.11132812 C-9.26954165 46.04674647 0.36504727 46.01351111 10 46 C9.44014404 45.79842285 8.88028809 45.5968457 8.3034668 45.38916016 C5.7632897 44.4719252 3.22539252 43.54853634 0.6875 42.625 C-0.63411133 42.14933594 -0.63411133 42.14933594 -1.98242188 41.6640625 C-2.82998047 41.3546875 -3.67753906 41.0453125 -4.55078125 40.7265625 C-5.33106689 40.44377441 -6.11135254 40.16098633 -6.9152832 39.86962891 C-9 39 -9 39 -12 37 C-11.36691342 32.31956888 -10.10458094 28.0536325 -8.49609375 23.6328125 C-8.2533522 22.95322479 -8.01061066 22.27363708 -7.76051331 21.57345581 C-6.9909039 19.42224016 -6.21432677 17.27361853 -5.4375 15.125 C-4.91164544 13.6590205 -4.3862501 12.19287619 -3.86132812 10.7265625 C-2.57952211 7.14911361 -1.29146487 3.57397278 0 0 Z M169 225 C169 225.99 169 226.98 169 228 C170.32 228.33 171.64 228.66 173 229 C172.67 228.01 172.34 227.02 172 226 C171.01 225.67 170.02 225.34 169 225 Z M174 244 C174 244.66 174 245.32 174 246 C176.31 246 178.62 246 181 246 C181.33 245.34 181.66 244.68 182 244 C177.89776415 242.98459888 177.89776415 242.98459888 174 244 Z M196 244 C195.67 244.66 195.34 245.32 195 246 C196.65 245.67 198.3 245.34 200 245 C198.68 244.67 197.36 244.34 196 244 Z M169 251 C169 259.25 169 267.5 169 276 C169.33 276 169.66 276 170 276 C170.42337709 272.58615895 170.80884836 269.1690675 171.1875 265.75 C171.30802734 264.78191406 171.42855469 263.81382812 171.55273438 262.81640625 C171.70258789 261.41455078 171.70258789 261.41455078 171.85546875 259.984375 C171.95496826 259.12553711 172.05446777 258.26669922 172.15698242 257.38183594 C172.18389579 254.48673788 172.18389579 254.48673788 169 251 Z " fill="#DAE3FC" transform="translate(227,111)"/>
<path d="M0 0 C7.38433392 1.45027835 14.26406284 3.71819567 21.33203125 6.28125 C22.48620041 6.69540161 23.64036957 7.10955322 24.82951355 7.53625488 C27.25502549 8.40782782 29.67959786 9.28201947 32.10327148 10.15869141 C35.81601203 11.50127 39.53174938 12.83527155 43.24804688 14.16796875 C45.6095549 15.01772939 47.9708892 15.86797299 50.33203125 16.71875 C51.44246292 17.11775513 52.55289459 17.51676025 53.69697571 17.92785645 C54.72872421 18.30164429 55.76047272 18.67543213 56.82348633 19.06054688 C57.72899734 19.3876062 58.63450836 19.71466553 59.56745911 20.05163574 C61.79146563 20.9186996 63.88722421 21.8925085 66 23 C65.33654156 28.25727825 63.74419696 32.92859068 61.9375 37.875 C61.65583984 38.65875 61.37417969 39.4425 61.08398438 40.25 C60.39386218 42.16830576 59.69755684 44.08438519 59 46 C60.9377253 46.00213753 60.9377253 46.00213753 62.91459656 46.00431824 C75.08346428 46.02098125 87.25199729 46.06373386 99.42068768 46.13209057 C105.6769103 46.16639429 111.93288785 46.19147588 118.18920898 46.19555664 C124.22594291 46.19983222 130.26212365 46.22823437 136.29868507 46.27343178 C138.60274853 46.28643033 140.90687811 46.29070617 143.21097374 46.28615379 C146.43642427 46.28126482 149.66024742 46.30726662 152.88549805 46.34057617 C153.83999847 46.33195053 154.7944989 46.32332489 155.77792358 46.31443787 C160.33266425 46.39338889 162.35810787 46.50781771 166.06965637 49.35371399 C168.78734607 53.07936372 169.12080009 55.69839327 169.0625 60.1875 C169.05347656 61.08855469 169.04445313 61.98960937 169.03515625 62.91796875 C169.01775391 63.94857422 169.01775391 63.94857422 169 65 C170.09465576 64.60619141 171.18931152 64.21238281 172.31713867 63.80664062 C176.38641653 62.345052 180.45934524 60.89388205 184.53344727 59.44580078 C186.29487493 58.81809673 188.05530536 58.18758685 189.81469727 57.55419922 C192.34653715 56.64328027 194.88181395 55.74257439 197.41796875 54.84375 C198.20149216 54.55939087 198.98501556 54.27503174 199.7922821 53.98205566 C203.64929973 52.62619607 206.84589367 51.62399734 211 52 C214.32978224 59.15252428 217.12316915 66.46093491 219.8125 73.875 C220.23208984 75.00164062 220.65167969 76.12828125 221.08398438 77.2890625 C221.47521484 78.36671875 221.86644531 79.444375 222.26953125 80.5546875 C222.62635986 81.52905762 222.98318848 82.50342773 223.35083008 83.50732422 C224 86 224 86 223 89 C220.4921875 90.21875 220.4921875 90.21875 216.875 91.5 C216.20791016 91.73992676 215.54082031 91.97985352 214.85351562 92.22705078 C213.24511811 92.80301225 211.63452929 93.37287087 210.02246094 93.93847656 C206.35707719 95.22580197 202.69815971 96.53087413 199.0390625 97.8359375 C191.3641049 100.57072684 183.68333219 103.28883173 176 106 C181.67746343 109.78497562 188.66196325 110.03649057 195.34765625 110.55859375 C196.41121338 110.64294678 197.47477051 110.7272998 198.57055664 110.81420898 C199.7731311 110.90617554 199.7731311 110.90617554 201 111 C201.20054415 116.27932467 201.34419976 121.55634753 201.43945312 126.83862305 C201.47922951 128.62807916 201.53347447 130.41728333 201.60351562 132.20581055 C202.27605337 149.84509107 197.38408561 160.52195045 186 174 C185.38125 174.886875 184.7625 175.77375 184.125 176.6875 C180.29028216 180.8605753 175.38256029 184.20581324 170 186 C169.67 197.55 169.34 209.1 169 221 C168.34 221 167.68 221 167 221 C167 209.12 167 197.24 167 185 C164.36 185 161.72 185 159 185 C146.35363108 180.00640971 138.99010466 166.40561895 133 155 C132.64108673 154.36112854 132.28217346 153.72225708 131.91238403 153.06402588 C130.91573711 150.80937765 130.75743603 149.32510719 130.77294922 146.87402344 C130.77310028 146.07349548 130.77325134 145.27296753 130.77340698 144.44818115 C130.78372955 143.59387512 130.79405212 142.73956909 130.8046875 141.859375 C130.80893234 140.53610199 130.80893234 140.53610199 130.81326294 139.18609619 C130.82444039 136.37392501 130.84954049 133.5620746 130.875 130.75 C130.88503295 128.84115044 130.89415825 126.93229588 130.90234375 125.0234375 C130.92437176 120.34883511 130.95888489 115.67447191 131 111 C131.90983643 110.95609131 132.81967285 110.91218262 133.75708008 110.86694336 C140.72471906 110.4628157 147.09222891 109.86849183 153.6875 107.5625 C154.36232422 107.34529297 155.03714844 107.12808594 155.73242188 106.90429688 C158.82851346 105.8804652 161.26967049 104.82021968 164 103 C164.99 103 165.98 103 167 103 C166.93304206 96.09453828 166.84325202 89.1896446 166.73754883 82.28466797 C166.70428532 79.93545281 166.67625788 77.58615745 166.65356445 75.23681641 C166.62004532 71.8606548 166.56772951 68.48522907 166.51171875 65.109375 C166.50213387 63.53261993 166.50213387 63.53261993 166.49235535 61.92401123 C166.47256119 60.94329651 166.45276703 59.96258179 166.43237305 58.95214844 C166.42126999 58.09055115 166.41016693 57.22895386 166.39872742 56.34124756 C165.87089585 53.24192627 165.34252399 52.14938359 163 50 C159.92188458 49.37683517 156.86209316 49.46553858 153.73118591 49.49879456 C152.77039897 49.49326016 151.80961202 49.48772576 150.81971031 49.48202366 C147.5858461 49.46836169 144.35274628 49.48341662 141.11889648 49.49829102 C138.80645417 49.49450989 136.49401412 49.48901156 134.18157959 49.48191833 C127.89040553 49.4679204 121.59950363 49.4791637 115.3083446 49.49562955 C108.73624613 49.5094451 102.16416401 49.50302403 95.59205627 49.49949646 C84.5548987 49.4960608 73.51784375 49.5102058 62.48071289 49.53344727 C51.11673961 49.5573744 39.75290997 49.56444978 28.38891602 49.55395508 C14.70447972 49.54134013 1.02014468 49.54382576 -12.66428947 49.55961418 C-17.89594002 49.56538636 -23.12754252 49.56528167 -28.3591938 49.56054878 C-34.51431705 49.55579175 -40.66924038 49.56582772 -46.82432556 49.58750343 C-49.08912418 49.59308865 -51.35394194 49.59352083 -53.61874199 49.58855057 C-56.6987763 49.58263674 -59.77819124 49.59502754 -62.85816956 49.61231995 C-63.76467036 49.6063099 -64.67117117 49.60029986 -65.6051417 49.59410769 C-68.33396173 49.58625858 -68.33396173 49.58625858 -72 50 C-74.21342475 53.32013712 -74.24813445 54.31989944 -74.24050903 58.18217468 C-74.24325836 59.25489624 -74.24600769 60.3276178 -74.24884033 61.43284607 C-74.24164978 62.60960403 -74.23445923 63.786362 -74.22705078 64.9987793 C-74.22734283 66.23792084 -74.22763489 67.47706238 -74.22793579 68.75375366 C-74.22678027 72.15232301 -74.21674213 75.5506501 -74.20278788 78.94917655 C-74.19029484 82.50060041 -74.18911115 86.05202741 -74.18673706 89.60346985 C-74.18051809 96.32889331 -74.16410165 103.05425184 -74.14403808 109.77964669 C-74.12169205 117.43615153 -74.11068892 125.09265946 -74.10064721 132.74918878 C-74.07973577 148.49949681 -74.04455171 164.24974003 -74 180 C-73.37351563 179.57847656 -72.74703125 179.15695312 -72.1015625 178.72265625 C-70.87566406 177.90087891 -70.87566406 177.90087891 -69.625 177.0625 C-68.81289062 176.51722656 -68.00078125 175.97195313 -67.1640625 175.41015625 C-63.23556249 172.8502492 -60.72851733 172.67942255 -56 173 C-51.6573318 174.65434979 -49.25941432 177.59289237 -47.0300293 181.55932617 C-43.39409018 190.17475243 -47.04715277 199.83334244 -49.8125 208.1875 C-50.16892578 209.31091797 -50.52535156 210.43433594 -50.89257812 211.59179688 C-52.77042476 217.45963692 -54.77620962 223.25462358 -57 229 C-59.31 229.33 -61.62 229.66 -64 230 C-63.97350778 233.3634269 -63.97350778 233.3634269 -63 237 C-60.18288354 239.12821884 -60.18288354 239.12821884 -57 241 C-53.75489583 244.5012966 -52.70785508 247.26768923 -52.5 251.9375 C-53.02545624 264.89875393 -58.19249627 279.38499254 -64 291 C-64.23098721 294.19715627 -64.39485742 297.38713267 -64.51757812 300.58984375 C-64.78599531 305.78599531 -64.78599531 305.78599531 -67 308 C5.6 308.33 78.2 308.66 153 309 C153 304.05 153 299.1 153 294 C162.24 294 171.48 294 181 294 C181 298.29 181 302.58 181 307 C182.29164063 306.96519531 183.58328125 306.93039062 184.9140625 306.89453125 C198.17944075 306.65971382 211.2816519 307.2896304 224.5 308.3125 C225.2980304 308.3714444 226.09606079 308.43038879 226.91827393 308.49111938 C237.78303298 309.30499297 248.33531988 310.766009 259 313 C259.33 313.99 259.66 314.98 260 316 C216.42246677 333.19385665 151.2755826 324.85500328 104.8515625 325.5546875 C104.16731783 325.56519913 103.48307317 325.57571077 102.77809381 325.58654094 C68.25938511 326.11552802 33.74237873 326.1206468 -0.77957559 326.0720275 C-9.12903818 326.06048353 -17.47850205 326.05526255 -25.82797074 326.05032361 C-42.88532324 326.04010469 -59.94265946 326.02273451 -77 326 C-76.195625 326.61875 -75.39125 327.2375 -74.5625 327.875 C-72 330 -72 330 -71 332 C-71 334.86569063 -72.05960637 335.94896989 -74 338 C-81.69034526 339.40607059 -88.78905033 334.98850122 -95 331 C-95.58007812 330.50242187 -96.16015625 330.00484375 -96.7578125 329.4921875 C-104.32852098 324.45384144 -113.08164108 324.40238284 -121.86137199 324.03372192 C-124.20967058 323.93509225 -126.55678308 323.82075325 -128.90419006 323.70288086 C-133.07103036 323.49620462 -137.23837064 323.30316767 -141.40606689 323.11462402 C-181.09290176 321.31759266 -181.09290176 321.31759266 -197.00390625 319.5 C-198.04731674 319.38148682 -199.09072723 319.26297363 -200.16575623 319.14086914 C-205.00251238 318.54086036 -209.42981295 317.79083018 -214 316 C-213.67 315.01 -213.34 314.02 -213 313 C-200.73052054 310.39685726 -188.49545826 309.01516486 -176 308 C-176.66 307.01 -177.32 306.02 -178 305 C-178.28761292 302.47770691 -178.28761292 302.47770691 -178.33813477 299.43041992 C-178.36057755 298.28880905 -178.38302032 297.14719818 -178.40614319 295.97099304 C-178.4235984 294.11943352 -178.4235984 294.11943352 -178.44140625 292.23046875 C-178.45517807 290.96157303 -178.46894989 289.69267731 -178.48313904 288.3853302 C-178.50643455 285.69773881 -178.52434433 283.01061613 -178.53540039 280.32299805 C-178.5519372 276.88912455 -178.61034238 273.45731488 -178.67854404 270.02413464 C-178.73423538 266.73893027 -178.74057207 263.45357596 -178.75390625 260.16796875 C-178.78376114 258.93966843 -178.81361603 257.7113681 -178.84437561 256.44584656 C-178.80144473 248.10788113 -178.80144473 248.10788113 -176.48164368 244.90109253 C-169.30096216 238.60399126 -158.46307801 235 -149 235 C-149 231.7 -149 228.4 -149 225 C-150.2375 224.95875 -151.475 224.9175 -152.75 224.875 C-154.859375 224.8046875 -154.859375 224.8046875 -157 224 C-160.43563845 219.84989785 -161.72323522 216.12550531 -162.6875 210.875 C-162.80851074 210.2262793 -162.92952148 209.57755859 -163.05419922 208.90917969 C-163.9735972 203.75601076 -164.48942778 198.61283011 -164.7890625 193.390625 C-164.91983758 190.85445304 -164.91983758 190.85445304 -166 188 C-167.14721817 167.12945405 -167.14721817 167.12945405 -160.625 159.0625 C-155.89558376 155.3465301 -150.75301589 154.36512241 -145 153 C-145.495 152.484375 -145.99 151.96875 -146.5 151.4375 C-148.88187616 147.56695123 -148.37375074 143.86968903 -147.51220703 139.55981445 C-146.8383264 136.83260079 -146.08950558 134.13707194 -145.3125 131.4375 C-145.06822266 130.51775391 -144.82394531 129.59800781 -144.57226562 128.65039062 C-142.75312324 122.24424617 -140.66779612 117.30547185 -134.8125 113.625 C-127.88362365 112.0852497 -121.13370159 112.15140293 -115 116 C-110.89079467 120.64286836 -108.79875237 125.75014318 -109 132 C-109.81675865 140.00670975 -112.28869142 147.4583504 -115 155 C-116.65 155.33 -118.3 155.66 -120 156 C-120 156.66 -120 157.32 -120 158 C-119.43152344 158.14695312 -118.86304687 158.29390625 -118.27734375 158.4453125 C-111.51333157 160.41015076 -106.25496028 162.96985821 -102.71484375 169.296875 C-100.31917987 174.82665113 -99.53919468 180.04035125 -99 186 C-95.8742604 185.89037184 -92.74975219 185.75968759 -89.625 185.625 C-88.29082031 185.57859375 -88.29082031 185.57859375 -86.9296875 185.53125 C-86.07890625 185.49257813 -85.228125 185.45390625 -84.3515625 185.4140625 C-83.56604004 185.3826416 -82.78051758 185.3512207 -81.97119141 185.31884766 C-79.76997061 185.1600535 -79.76997061 185.1600535 -78 183 C-77.69957384 180.62304889 -77.69957384 180.62304889 -77.75517273 177.81987 C-77.75123505 176.72209229 -77.74729736 175.62431458 -77.74324036 174.49327087 C-77.74893539 173.2833699 -77.75463043 172.07346893 -77.76049805 170.8269043 C-77.75740625 168.87744592 -77.7543082 166.92798755 -77.75097525 164.97852957 C-77.74914829 162.879235 -77.75209392 160.77999125 -77.75617027 158.6807003 C-77.7637659 154.30626151 -77.75314011 149.93198697 -77.7389679 145.55757141 C-77.70118915 133.11723218 -77.68303517 120.67696626 -77.69458008 108.23657227 C-77.70079692 101.36841146 -77.6892122 94.50051478 -77.65813476 87.63241893 C-77.63947324 83.28485239 -77.64280547 78.93803347 -77.66230237 74.59047925 C-77.67080392 71.24727177 -77.64674754 67.90444051 -77.62768555 64.5612793 C-77.63945328 63.35745102 -77.65122101 62.15362274 -77.66334534 60.91331482 C-77.57371468 52.91528963 -77.57371468 52.91528963 -74.96670532 48.75613403 C-71.22607774 46.54187859 -68.13659325 46.29183055 -63.9050293 46.34057617 C-63.10450638 46.33009247 -62.30398346 46.31960876 -61.47920227 46.30880737 C-58.84381148 46.28009835 -56.20973764 46.2863437 -53.57421875 46.29296875 C-51.74288795 46.27985114 -49.91157161 46.26454672 -48.08027649 46.24714661 C-43.26830414 46.20729089 -38.45671022 46.1971058 -33.64459229 46.19311523 C-28.73104366 46.18378488 -23.81771749 46.14637194 -18.90429688 46.11132812 C-9.26954165 46.04674647 0.36504727 46.01351111 10 46 C9.44014404 45.79842285 8.88028809 45.5968457 8.3034668 45.38916016 C5.7632897 44.4719252 3.22539252 43.54853634 0.6875 42.625 C-0.63411133 42.14933594 -0.63411133 42.14933594 -1.98242188 41.6640625 C-2.82998047 41.3546875 -3.67753906 41.0453125 -4.55078125 40.7265625 C-5.33106689 40.44377441 -6.11135254 40.16098633 -6.9152832 39.86962891 C-9 39 -9 39 -12 37 C-11.36691342 32.31956888 -10.10458094 28.0536325 -8.49609375 23.6328125 C-8.2533522 22.95322479 -8.01061066 22.27363708 -7.76051331 21.57345581 C-6.9909039 19.42224016 -6.21432677 17.27361853 -5.4375 15.125 C-4.91164544 13.6590205 -4.3862501 12.19287619 -3.86132812 10.7265625 C-2.57952211 7.14911361 -1.29146487 3.57397278 0 0 Z " fill="#202552" transform="translate(227,111)"/>
<path d="M0 0 C13.69890821 3.11227432 29.2389556 1.61055283 43.18359375 1.49609375 C42.85359375 3.47609375 42.52359375 5.45609375 42.18359375 7.49609375 C43.00859375 7.44066406 43.83359375 7.38523437 44.68359375 7.328125 C48.93326081 7.53207108 52.243374 8.6689792 56.18359375 10.18359375 C56.869375 10.42787109 57.55515625 10.67214844 58.26171875 10.92382812 C63.71081269 12.97763739 68.20379709 15.54928658 71.53515625 20.5078125 C76.00346728 34.20883849 67.38592523 54.0914308 61.18359375 66.49609375 C60.95260654 69.69325002 60.78873633 72.88322642 60.66601562 76.0859375 C60.39759844 81.28208906 60.39759844 81.28208906 58.18359375 83.49609375 C130.78359375 83.82609375 203.38359375 84.15609375 278.18359375 84.49609375 C278.18359375 79.54609375 278.18359375 74.59609375 278.18359375 69.49609375 C287.42359375 69.49609375 296.66359375 69.49609375 306.18359375 69.49609375 C306.18359375 73.78609375 306.18359375 78.07609375 306.18359375 82.49609375 C307.47523438 82.46128906 308.766875 82.42648437 310.09765625 82.390625 C323.3630345 82.15580757 336.46524565 82.78572415 349.68359375 83.80859375 C350.48162415 83.86753815 351.27965454 83.92648254 352.10186768 83.98721313 C362.96662673 84.80108672 373.51891363 86.26210275 384.18359375 88.49609375 C384.51359375 89.48609375 384.84359375 90.47609375 385.18359375 91.49609375 C341.60606052 108.6899504 276.45917635 100.35109703 230.03515625 101.05078125 C229.35091158 101.06129288 228.66666692 101.07180452 227.96168756 101.08263469 C193.44297886 101.61162177 158.92597248 101.61674055 124.40401816 101.56812125 C116.05455557 101.55657728 107.7050917 101.5513563 99.35562301 101.54641736 C82.29827051 101.53619844 65.24093429 101.51882826 48.18359375 101.49609375 C48.98796875 102.11484375 49.79234375 102.73359375 50.62109375 103.37109375 C53.18359375 105.49609375 53.18359375 105.49609375 54.18359375 107.49609375 C54.18359375 110.36178438 53.12398738 111.44506364 51.18359375 113.49609375 C43.49324849 114.90216434 36.39454342 110.48459497 30.18359375 106.49609375 C29.60351562 105.99851562 29.0234375 105.5009375 28.42578125 104.98828125 C20.85507277 99.94993519 12.10195267 99.89847659 3.32222176 99.52981567 C0.97392317 99.431186 -1.37318933 99.316847 -3.72059631 99.19897461 C-7.88743661 98.99229837 -12.05477689 98.79926142 -16.22247314 98.61071777 C-55.90930801 96.81368641 -55.90930801 96.81368641 -71.8203125 94.99609375 C-72.86372299 94.87758057 -73.90713348 94.75906738 -74.98216248 94.63696289 C-79.81891863 94.03695411 -84.2462192 93.28692393 -88.81640625 91.49609375 C-88.48640625 90.50609375 -88.15640625 89.51609375 -87.81640625 88.49609375 C-75.54692679 85.89295101 -63.31186451 84.51125861 -50.81640625 83.49609375 C-51.47640625 82.50609375 -52.13640625 81.51609375 -52.81640625 80.49609375 C-53.10401917 77.97380066 -53.10401917 77.97380066 -53.15454102 74.92651367 C-53.1769838 73.7849028 -53.19942657 72.64329193 -53.22254944 71.46708679 C-53.24000465 69.61552727 -53.24000465 69.61552727 -53.2578125 67.7265625 C-53.27158432 66.45766678 -53.28535614 65.18877106 -53.29954529 63.88142395 C-53.3228408 61.19383256 -53.34075058 58.50670988 -53.35180664 55.8190918 C-53.36834345 52.3852183 -53.42674863 48.95340863 -53.49495029 45.52022839 C-53.55064163 42.23502402 -53.55697832 38.94966971 -53.5703125 35.6640625 C-53.60016739 34.43576218 -53.63002228 33.20746185 -53.66078186 31.94194031 C-53.61785098 23.60397488 -53.61785098 23.60397488 -51.29804993 20.39718628 C-44.11736841 14.10008501 -33.27948426 10.49609375 -23.81640625 10.49609375 C-23.81640625 8.51609375 -23.81640625 6.53609375 -23.81640625 4.49609375 C-21.83640625 3.50609375 -19.85640625 2.51609375 -17.81640625 1.49609375 C-17.81640625 0.83609375 -17.81640625 0.17609375 -17.81640625 -0.50390625 C-11.76209899 -1.66324168 -5.9867473 -1.66083957 0 0 Z " fill="#202855" transform="translate(101.81640625,335.50390625)"/>
<path d="M0 0 C0.95937582 -0.00694553 1.91875163 -0.01389106 2.90719944 -0.02104706 C6.13636949 -0.03940901 9.36481248 -0.02902705 12.5940094 -0.01878357 C14.90320895 -0.02583738 17.21240388 -0.03458012 19.52159119 -0.04489136 C25.8046149 -0.06745544 32.08738755 -0.06442915 38.37043643 -0.05556989 C43.6092994 -0.05047152 48.84811471 -0.0577432 54.08697277 -0.06504196 C67.14983963 -0.08303748 80.21256597 -0.07660756 93.27542777 -0.05887216 C104.62462159 -0.04417608 115.97355066 -0.05880034 127.32271039 -0.08764232 C138.97102505 -0.11702448 150.61920665 -0.12750349 162.26755673 -0.11846012 C168.80924094 -0.11352109 175.35071931 -0.11579936 181.89237785 -0.13624763 C188.04267678 -0.15455097 194.19248225 -0.14871114 200.34275436 -0.12404823 C202.60349211 -0.11902341 204.86426711 -0.12257309 207.1249752 -0.13519669 C210.20465899 -0.15103637 213.28269976 -0.13626147 216.36230469 -0.11352539 C217.26297981 -0.12536112 218.16365494 -0.13719685 219.09162325 -0.14939123 C225.13048604 -0.05843224 225.13048604 -0.05843224 228.30097675 2.90008163 C229.87644493 5.75336405 230.23217125 7.34641833 230.19874573 10.58033752 C230.1984436 11.56097672 230.19814148 12.54161591 230.1978302 13.55197144 C230.17718506 14.59798019 230.15653992 15.64398895 230.13526917 16.72169495 C230.12960937 17.80222641 230.12394958 18.88275787 230.11811829 19.99603271 C230.0957646 23.44019758 230.04556807 26.88331434 229.99464417 30.3271637 C229.97457795 32.66503928 229.9563274 35.00293119 229.93995667 37.34083557 C229.89590312 43.06580131 229.82900037 48.79015761 229.74464417 54.5146637 C228.28838966 55.18585919 226.82956549 55.85148177 225.36964417 56.5146637 C224.55753479 56.8859137 223.74542542 57.2571637 222.90870667 57.6396637 C220.74464417 58.5146637 220.74464417 58.5146637 218.74464417 58.5146637 C218.74464417 50.9246637 218.74464417 43.3346637 218.74464417 35.5146637 C146.14464417 35.5146637 73.54464417 35.5146637 -1.25535583 35.5146637 C-0.92535583 65.2146637 -0.59535583 94.9146637 -0.25535583 125.5146637 C-10.25535583 131.5146637 -10.25535583 131.5146637 -12.25535583 132.5146637 C-12.32541883 115.89464036 -12.37833067 99.27466488 -12.41079235 82.65452957 C-12.42626511 74.93761002 -12.44736235 67.22078219 -12.48167419 59.50392151 C-12.51156414 52.77835903 -12.53092787 46.05286299 -12.53762132 39.32723594 C-12.5415343 35.76562767 -12.55073859 32.20420944 -12.57254601 28.64266205 C-12.59668585 24.66799339 -12.59732608 20.69351112 -12.59593201 16.71876526 C-12.60671783 15.53625183 -12.61750366 14.3537384 -12.62861633 13.13539124 C-12.62449234 12.05288086 -12.62036835 10.97037048 -12.61611938 9.85505676 C-12.61888476 8.91482792 -12.62165014 7.97459908 -12.62449932 7.00587845 C-11.49071146 -0.64564228 -6.51251456 -0.05943933 0 0 Z " fill="#FEA897" transform="translate(164.25535583496094,159.48533630371094)"/>
<path d="M0 0 C3.63 0.66 7.26 1.32 11 2 C11 13.88 11 25.76 11 38 C14.465 37.505 14.465 37.505 18 37 C20.9375 37.9375 20.9375 37.9375 23 39 C23.75 42.25 23.75 42.25 24 46 C22.0625 48.4375 22.0625 48.4375 20 50 C20.60328125 50.38671875 21.2065625 50.7734375 21.828125 51.171875 C29.76625659 56.34446397 29.76625659 56.34446397 33 60 C33.721875 59.05125 34.44375 58.1025 35.1875 57.125 C37.5935458 54.29002124 39.25034224 52.76697545 43 52 C48.29679296 52.01933136 52.77802014 52.59896067 57 56 C65 64.57142857 65 64.57142857 65 70 C64.1646875 69.70996094 64.1646875 69.70996094 63.3125 69.4140625 C58.24882873 67.68625575 53.20677935 66.2306933 48 65 C48 65.99 48 66.98 48 68 C48.72445313 68.10957031 49.44890625 68.21914063 50.1953125 68.33203125 C62.32057416 70.32057416 62.32057416 70.32057416 66 74 C66.23961213 78.23314767 66.32488647 81.36736489 64 85 C63.195625 83.9171875 63.195625 83.9171875 62.375 82.8125 C58.61864954 78.36419025 55.1079306 74.53893505 49 74 C49.75880526 77.23977803 49.75880526 77.23977803 52.8125 79.0625 C56.90277413 82.32085397 59.04427086 86.90277789 60 92 C58.8868901 96.1609108 56.53072464 99.30747016 54 102.75 C53.29875 103.71421875 52.5975 104.6784375 51.875 105.671875 C50 108 50 108 48 109 C47.76925781 108.28714844 47.53851563 107.57429688 47.30078125 106.83984375 C45.13584582 100.32559353 45.13584582 100.32559353 41.4375 94.625 C37.67940784 89.90418669 37.07133705 83.79218812 36 78 C35.34 78.33 34.68 78.66 34 79 C33.5316735 81.58605332 33.5316735 81.58605332 33.375 84.5625 C33.30023438 85.57441406 33.22546875 86.58632813 33.1484375 87.62890625 C33.09945313 88.41136719 33.05046875 89.19382812 33 90 C27.55608698 88.1637227 25.51856147 85.41865859 22 81 C23.32 78.03 24.64 75.06 26 72 C25.67 71.67 25.34 71.34 25 71 C22.525 74.465 22.525 74.465 20 78 C19.34 77.67 18.68 77.34 18 77 C17.03215639 79.90353084 16.73435711 82.21798774 16.5 85.25390625 C16.4175 86.27291016 16.335 87.29191406 16.25 88.34179688 C16.08303193 90.49281517 15.91636635 92.64385696 15.75 94.79492188 C15.6675 95.81263672 15.585 96.83035156 15.5 97.87890625 C15.4278125 98.8129126 15.355625 99.74691895 15.28125 100.70922852 C15 103 15 103 14 105 C17.63 105 21.26 105 25 105 C25 106.98 25 108.96 25 111 C15.76 111 6.52 111 -3 111 C-3 115.95 -3 120.9 -3 126 C-75.93 126 -148.86 126 -224 126 C-223.34 125.01 -222.68 124.02 -222 123 C-221.70008931 120.41114829 -221.49134775 117.90850918 -221.375 115.3125 C-221.33632812 114.61060547 -221.29765625 113.90871094 -221.2578125 113.18554688 C-221.1637666 111.45745345 -221.0808032 109.72876325 -221 108 C-220.67 108 -220.34 108 -220 108 C-220 110.31 -220 112.62 -220 115 C-148.72 115 -77.44 115 -4 115 C-4 111.7 -4 108.4 -4 105 C-2.68 105 -1.36 105 0 105 C0 89.16 0 73.32 0 57 C-1.32 56.67 -2.64 56.34 -4 56 C-3.525625 55.2575 -3.05125 54.515 -2.5625 53.75 C-1.22130673 51.38949985 -0.487688 49.63351523 0 47 C-2.73059074 48.1124629 -4.16022013 49.17395328 -6.1875 51.375 C-9.23649978 54.22073313 -11.89353822 55.48580922 -15.71875 57.0078125 C-18.29649704 58.1289559 -20.61670412 59.51463602 -23 61 C-24.0524714 48.65434342 -24.0524714 48.65434342 -21.72265625 44.9921875 C-17.53745638 41.82244429 -13.13625207 41.27032906 -8 41 C-8 40.34 -8 39.68 -8 39 C-11.96769422 37.01615289 -16.85529486 37.67369435 -21 39 C-20.125 34.125 -20.125 34.125 -19 33 C-13.46185633 33.15449757 -8.25368138 34.32329318 -3 36 C-5.31881505 33.32098068 -7.31814468 32.33795597 -10.6875 31.3125 C-11.49574219 31.06113281 -12.30398438 30.80976563 -13.13671875 30.55078125 C-13.75160156 30.36902344 -14.36648438 30.18726563 -15 30 C-9.4362505 25.62848254 -7.55499262 25 0 25 C0 16.75 0 8.5 0 0 Z M13 42 C13 42.99 13 43.98 13 45 C14.32 45.33 15.64 45.66 17 46 C16.67 45.01 16.34 44.02 16 43 C15.01 42.67 14.02 42.34 13 42 Z M18 61 C18 61.66 18 62.32 18 63 C20.31 63 22.62 63 25 63 C25.33 62.34 25.66 61.68 26 61 C21.89776415 59.98459888 21.89776415 59.98459888 18 61 Z M40 61 C39.67 61.66 39.34 62.32 39 63 C40.65 62.67 42.3 62.34 44 62 C42.68 61.67 41.36 61.34 40 61 Z M13 68 C13 76.25 13 84.5 13 93 C13.33 93 13.66 93 14 93 C14.42337709 89.58615895 14.80884836 86.1690675 15.1875 82.75 C15.30802734 81.78191406 15.42855469 80.81382812 15.55273438 79.81640625 C15.70258789 78.41455078 15.70258789 78.41455078 15.85546875 76.984375 C15.95496826 76.12553711 16.05446777 75.26669922 16.15698242 74.38183594 C16.18389579 71.48673788 16.18389579 71.48673788 13 68 Z " fill="#FBA596" transform="translate(383,294)"/>
<path d="M0 0 C14.93007705 -0.42011039 29.6835001 0.15886094 44.5625 1.3125 C45.35875793 1.3714444 46.15501587 1.43038879 46.97540283 1.49111938 C57.82035993 2.30568475 68.35438697 3.77172127 79 6 C79.33 6.99 79.66 7.98 80 9 C6.8558157 37.85961013 -109.37266676 19.34507806 -187.74061584 19.04898071 C-197.0359381 19.01443021 -206.33033168 18.99747984 -215.62565899 19.0353756 C-221.55880708 19.05817454 -227.49134754 19.04361164 -233.42446899 19.01019287 C-235.73792618 19.0034805 -238.05146725 19.01017684 -240.36483765 19.03131104 C-243.46212819 19.05751607 -246.5552407 19.03547346 -249.65234375 19 C-250.96715729 19.02910965 -250.96715729 19.02910965 -252.30853271 19.05880737 C-256.00965098 18.96950711 -258.13558818 18.8056353 -260.90701294 16.22265625 C-265 10.95112664 -265 10.95112664 -265 8 C-253.49121396 2.41526513 -241.18804222 3.47306491 -228.72021484 3.56176758 C-226.25866833 3.5645359 -223.79711927 3.56552107 -221.33557129 3.56486511 C-216.05473456 3.56733476 -210.77414808 3.58192192 -205.49338913 3.60764503 C-197.85636101 3.64473609 -190.21942591 3.65849191 -182.58231838 3.66654237 C-170.1858433 3.68014244 -157.78947455 3.71085429 -145.39306641 3.75317383 C-133.3631288 3.7941918 -121.33320248 3.82958162 -109.30322266 3.85571289 C-108.56075725 3.85732919 -107.81829184 3.85894548 -107.05332749 3.86061076 C-98.95182241 3.87808237 -90.85031484 3.89393036 -82.74880409 3.90852642 C-82.03750692 3.90981425 -81.32620974 3.91110208 -80.59335811 3.91242894 C-76.32925652 3.92014798 -76.32925652 3.92014798 -72.06515463 3.92769953 C-63.7399866 3.94235059 -55.4148635 3.96199382 -47.08973081 3.9905025 C-41.26218016 4.01041328 -35.43462374 4.02593503 -29.60705566 4.03993416 C-27.21161975 4.04662502 -24.81618805 4.0550763 -22.42076492 4.06537247 C-19.16407935 4.0792082 -15.9074338 4.08701863 -12.65072632 4.09333801 C-11.69200036 4.09897933 -10.73327441 4.10462065 -9.74549615 4.11043292 C-8.87806555 4.11090867 -8.01063494 4.11138442 -7.11691856 4.11187458 C-6.36474222 4.11442259 -5.61256587 4.1169706 -4.8375963 4.11959583 C-2.90262102 4.11305241 -2.90262102 4.11305241 -1 3 C-0.67 2.01 -0.34 1.02 0 0 Z " fill="#D9E3FD" transform="translate(407,418)"/>
<path d="M0 0 C56.1 0 112.2 0 170 0 C170 7.59 170 15.18 170 23 C113.9 23 57.8 23 0 23 C0 15.41 0 7.82 0 0 Z " fill="#F30D0E" transform="translate(188,359)"/>
<path d="M0 0 C4.10920533 4.64286836 6.20124763 9.75014318 6 16 C5.18324135 24.00670975 2.71130858 31.4583504 0 39 C-2.475 39.495 -2.475 39.495 -5 40 C-5 40.66 -5 41.32 -5 42 C-4.43152344 42.14695312 -3.86304688 42.29390625 -3.27734375 42.4453125 C3.48666843 44.41015076 8.74503972 46.96985821 12.28515625 53.296875 C14.80628998 59.11626611 15.26128005 63.35152047 16 70 C5.605 70.495 5.605 70.495 -5 71 C-6.18010925 76.90054623 -7.13721024 82.02906461 -7.6875 87.875 C-8.52562051 93.43409621 -8.52562051 93.43409621 -10.4375 95.71484375 C-17.65236767 100.24024066 -25.19960576 97.56007885 -33 96 C-33 87.75 -33 79.5 -33 71 C-34.485 71.495 -34.485 71.495 -36 72 C-38.57265818 72.07029121 -41.11641431 72.09370832 -43.6875 72.0625 C-44.38939453 72.05798828 -45.09128906 72.05347656 -45.81445312 72.04882812 C-47.54300538 72.03706927 -49.27151365 72.01913454 -51 72 C-51.66543486 50.53356417 -51.66543486 50.53356417 -45.625 43.0625 C-40.89558376 39.3465301 -35.75301589 38.36512241 -30 37 C-30.495 36.484375 -30.99 35.96875 -31.5 35.4375 C-33.88187616 31.56695123 -33.37375074 27.86968903 -32.51220703 23.55981445 C-31.8383264 20.83260079 -31.08950558 18.13707194 -30.3125 15.4375 C-30.06822266 14.51775391 -29.82394531 13.59800781 -29.57226562 12.65039062 C-27.75312324 6.24424617 -25.66779612 1.30547185 -19.8125 -2.375 C-12.88362365 -3.9147503 -6.13370159 -3.84859707 0 0 Z " fill="#F20B0B" transform="translate(112,227)"/>
<path d="M0 0 C3.43910244 1.36724154 6.76773514 2.90713745 10.12890625 4.45703125 C17.01956557 7.0870171 24.71512325 7.3072169 32 8 C33.84232403 47.35330106 33.84232403 47.35330106 23 60 C22.15637456 61.13364207 21.32043267 62.27304161 20.4921875 63.41796875 C15.09424046 70.65191621 9.56561551 75.8868769 0.5625 77.6875 C-9.91085883 75.66632549 -16.07346192 68.33419417 -22 60 C-22.845625 58.99710937 -23.69125 57.99421875 -24.5625 56.9609375 C-34.79800096 43.49338027 -31.77135263 24.98084424 -31 9 C-29.93056152 8.8138916 -28.86112305 8.6277832 -27.75927734 8.43603516 C-26.32643843 8.17903948 -24.89366175 7.92169665 -23.4609375 7.6640625 C-22.75960693 7.54297119 -22.05827637 7.42187988 -21.33569336 7.29711914 C-13.84105502 5.93485078 -6.82350659 3.41175329 0 0 Z " fill="#C6101A" transform="translate(392,217)"/>
<path d="M0 0 C1.37447548 0.00213753 1.37447548 0.00213753 2.77671814 0.00431824 C3.81441849 0.00124161 4.85211884 -0.00183502 5.92126465 -0.00500488 C7.60723 0.00577339 7.60723 0.00577339 9.32725525 0.01676941 C11.0507444 0.01745674 11.0507444 0.01745674 12.80905151 0.01815796 C15.24099254 0.0211829 17.67293159 0.02907637 20.10484314 0.04142761 C23.8424612 0.05967889 27.57983167 0.06193739 31.31748962 0.06169128 C33.67491366 0.06660644 36.032336 0.07243475 38.38975525 0.07926941 C40.07875694 0.08093864 40.07875694 0.08093864 41.80187988 0.0826416 C42.83642807 0.08902145 43.87097626 0.09540131 44.93687439 0.10197449 C46.31015648 0.10769218 46.31015648 0.10769218 47.71118164 0.11352539 C49.792099 0.24723816 49.792099 0.24723816 50.792099 1.24723816 C50.89638775 3.07750988 50.93064274 4.91181271 50.93736267 6.74504089 C50.94374252 7.91973434 50.95012238 9.0944278 50.95669556 10.30471802 C50.95780838 11.5838356 50.9589212 12.86295319 50.96006775 14.18083191 C50.96506035 16.13594444 50.96506035 16.13594444 50.97015381 18.1305542 C50.976151 20.8938225 50.97799311 23.6570595 50.97740173 26.42033386 C50.97730009 29.96592289 50.9909513 33.51131173 51.00817394 37.05685329 C51.02194913 40.43151615 51.02138223 43.80614125 51.02256775 47.18083191 C51.02975327 48.45792526 51.03693878 49.73501862 51.04434204 51.05081177 C51.04126541 52.22865738 51.03818878 53.40650299 51.03501892 54.62004089 C51.03644394 55.66071213 51.03786896 56.70138336 51.03933716 57.77359009 C50.792099 60.24723816 50.792099 60.24723816 48.792099 62.24723816 C46.62889099 62.50793457 46.62889099 62.50793457 43.91514587 62.52189636 C42.39346802 62.53619438 42.39346802 62.53619438 40.84104919 62.55078125 C39.74208313 62.54986984 38.64311707 62.54895844 37.510849 62.54801941 C36.38642395 62.55230453 35.2619989 62.55658966 34.10350037 62.56100464 C31.7228513 62.56675535 29.34218466 62.56724278 26.96153259 62.56291199 C23.30709565 62.55975113 19.65346704 62.58320604 15.99913025 62.60856628 C13.69053753 62.61083899 11.38194261 62.61154291 9.073349 62.61051941 C7.97438293 62.61972916 6.87541687 62.6289389 5.7431488 62.63842773 C4.22147095 62.62908455 4.22147095 62.62908455 2.66905212 62.61955261 C1.77351624 62.62018204 0.87798035 62.62081146 -0.04469299 62.62145996 C-0.75855164 62.49796677 -1.47241028 62.37447357 -2.207901 62.24723816 C-4.46870928 58.85602574 -4.46036365 57.6815072 -4.46669006 53.70597839 C-4.47299438 52.57147751 -4.47929871 51.43697662 -4.48579407 50.26809692 C-4.48174561 49.04304947 -4.47769714 47.81800201 -4.473526 46.55583191 C-4.47543945 45.29964554 -4.47735291 44.04345917 -4.47932434 42.74920654 C-4.48068633 40.09191647 -4.47799081 37.43499344 -4.46864319 34.77775574 C-4.45723709 31.36896043 -4.46381777 27.96047965 -4.47578812 24.55169582 C-4.48474351 21.30306313 -4.47847817 18.0544687 -4.473526 14.80583191 C-4.47757446 13.57876022 -4.48162292 12.35168854 -4.48579407 11.08743286 C-4.47948975 9.95608414 -4.47318542 8.82473541 -4.46669006 7.65910339 C-4.46509888 6.65999435 -4.46350769 5.66088531 -4.46186829 4.63150024 C-4.11884719 1.41119497 -3.25445272 0.36442979 0 0 Z " fill="#F41614" transform="translate(80.20790100097656,142.7527618408203)"/>
<path d="M0 0 C7.67536627 -0.02312821 15.35072896 -0.04091753 23.02612209 -0.05181217 C26.58977422 -0.05703995 30.15340257 -0.06413569 33.71704102 -0.07543945 C37.81006097 -0.08834176 41.9030558 -0.09322906 45.99609375 -0.09765625 C47.92418129 -0.10539818 47.92418129 -0.10539818 49.89122009 -0.11329651 C51.07236893 -0.11337204 52.25351776 -0.11344757 53.47045898 -0.11352539 C55.03932106 -0.11685631 55.03932106 -0.11685631 56.63987732 -0.12025452 C59 0 59 0 60 1 C59.73069565 4.01806602 59.39197707 6.99699322 59 10 C58.87866699 10.95535645 58.75733398 11.91071289 58.63232422 12.89501953 C58.24076426 15.9517613 57.8403716 19.00722974 57.4375 22.0625 C57.29892578 23.11888672 57.16035156 24.17527344 57.01757812 25.26367188 C56.67917298 27.84255246 56.33996428 30.42132457 56 33 C57.485 33.99 57.485 33.99 59 35 C58.67 35.763125 58.34 36.52625 58 37.3125 C56.82563314 39.99069135 56.82563314 39.99069135 57 43 C56.71372955 45.67356157 56.34968449 48.33365575 56 51 C55.13117188 50.72285156 54.26234375 50.44570313 53.3671875 50.16015625 C52.21476562 49.79792969 51.06234375 49.43570313 49.875 49.0625 C48.73804688 48.70285156 47.60109375 48.34320313 46.4296875 47.97265625 C43.28567301 47.08101661 40.23105607 46.46648986 37 46 C37.33 44.02 37.66 42.04 38 40 C36.98969727 40.05329468 36.98969727 40.05329468 35.95898438 40.10766602 C2.66091509 41.80718404 2.66091509 41.80718404 -7.3125 38.875 C-12.26612102 37.6995645 -17.021125 37.91497276 -22 39 C-22.33 39.66 -22.66 40.32 -23 41 C-24.97888961 41.72693904 -26.97954558 42.39816251 -29 43 C-29 41.68 -29 40.36 -29 39 C-30.2375 38.95875 -31.475 38.9175 -32.75 38.875 C-34.859375 38.8046875 -34.859375 38.8046875 -37 38 C-40.3757713 33.90390137 -41.71597166 30.23462485 -42.6875 25.0625 C-42.80778564 24.42368896 -42.92807129 23.78487793 -43.05200195 23.12670898 C-44.29324831 16.11293992 -44.66148572 9.10879985 -45 2 C-36.585 1.505 -36.585 1.505 -28 1 C-28 9.25 -28 17.5 -28 26 C-25.298125 26.226875 -22.59625 26.45375 -19.8125 26.6875 C-18.97050049 26.76701904 -18.12850098 26.84653809 -17.26098633 26.9284668 C-12.52264497 27.26470711 -9.96396873 26.90392436 -6 24 C-5.34 24 -4.68 24 -4 24 C-3.81824219 22.15535156 -3.81824219 22.15535156 -3.6328125 20.2734375 C-3.46389705 18.6405882 -3.29460636 17.00777768 -3.125 15.375 C-3.04636719 14.56675781 -2.96773437 13.75851562 -2.88671875 12.92578125 C-2.80292969 12.13300781 -2.71914062 11.34023438 -2.6328125 10.5234375 C-2.55949707 9.80075684 -2.48618164 9.07807617 -2.41064453 8.33349609 C-1.9015314 5.44045015 -0.94788224 2.77666822 0 0 Z " fill="#FCA696" transform="translate(107,297)"/>
<path d="M0 0 C7.38433392 1.45027835 14.26406284 3.71819567 21.33203125 6.28125 C22.48620041 6.69540161 23.64036957 7.10955322 24.82951355 7.53625488 C27.25502549 8.40782782 29.67959786 9.28201947 32.10327148 10.15869141 C35.81601203 11.50127 39.53174938 12.83527155 43.24804688 14.16796875 C45.6095549 15.01772939 47.9708892 15.86797299 50.33203125 16.71875 C51.44246292 17.11775513 52.55289459 17.51676025 53.69697571 17.92785645 C55.24459846 18.48853821 55.24459846 18.48853821 56.82348633 19.06054688 C57.72899734 19.3876062 58.63450836 19.71466553 59.56745911 20.05163574 C61.79146563 20.9186996 63.88722421 21.8925085 66 23 C65.33331575 28.22513781 63.78006593 32.88793082 62 37.8125 C61.72671875 38.58787109 61.4534375 39.36324219 61.171875 40.16210938 C59.13686224 45.86313776 59.13686224 45.86313776 58 47 C50.9462401 47.43547186 43.87830276 47.49597791 36.8125 47.5625 C35.7840094 47.57222839 34.7555188 47.58195679 33.69586182 47.59197998 C16.9598914 47.67246507 2.30919023 46.53946016 -12 37 C-11.36691342 32.31956888 -10.10458094 28.0536325 -8.49609375 23.6328125 C-8.13198143 22.61343094 -8.13198143 22.61343094 -7.76051331 21.57345581 C-6.9909039 19.42224016 -6.21432677 17.27361853 -5.4375 15.125 C-4.91164544 13.6590205 -4.3862501 12.19287619 -3.86132812 10.7265625 C-2.57952211 7.14911361 -1.29146487 3.57397278 0 0 Z " fill="#DAE2FC" transform="translate(227,111)"/>
<path d="M0 0 C0.33 1.32 0.66 2.64 1 4 C10.24 4 19.48 4 29 4 C29 4.66 29 5.32 29 6 C19.76 6 10.52 6 1 6 C1 10.95 1 15.9 1 21 C-71.93 21 -144.86 21 -220 21 C-219.01 19.515 -219.01 19.515 -218 18 C-217.70008931 15.41114829 -217.49134775 12.90850918 -217.375 10.3125 C-217.33632812 9.61060547 -217.29765625 8.90871094 -217.2578125 8.18554688 C-217.1637666 6.45745345 -217.0808032 4.72876325 -217 3 C-216.67 3 -216.34 3 -216 3 C-216 5.31 -216 7.62 -216 10 C-144.72 10 -73.44 10 0 10 C0 6.7 0 3.4 0 0 Z " fill="#FCA696" transform="translate(379,399)"/>
<path d="M0 0 C7.32400191 4.2863421 12.25802434 10.72937799 14.5 18.9375 C15.91947829 28.47003096 14.04870005 36.05810931 8.5 43.9375 C2.66210158 50.13032306 -5.04043482 52.96763064 -13.4375 53.375 C-20.73353238 53.10309817 -27.01788111 50.67910119 -32.375 45.6875 C-38.61049607 38.84904323 -41.02067553 31.15902978 -40.8984375 22.015625 C-39.89186956 14.23939424 -36.03733391 7.73634931 -30 2.8125 C-21.46969527 -3.39978714 -9.58485514 -4.41484237 0 0 Z " fill="#EDA095" transform="translate(285.5,205.0625)"/>
<path d="M0 0 C1.11696762 0.00222061 2.23393524 0.00444122 3.38475037 0.00672913 C4.64598221 0.00680466 5.90721405 0.00688019 7.20666504 0.00695801 C8.59341979 0.01206542 9.98017414 0.01728142 11.3669281 0.02259827 C12.77797394 0.0244625 14.18902042 0.02588638 15.60006714 0.02688599 C19.3204272 0.03071072 23.04074845 0.04054062 26.76109314 0.05158997 C31.22141976 0.06359991 35.68175933 0.06820654 40.14209747 0.07404327 C46.92409929 0.08375241 53.70601588 0.10290923 60.48802185 0.12025452 C60.48802185 11.34025452 60.48802185 22.56025452 60.48802185 34.12025452 C39.69802185 34.12025452 18.90802185 34.12025452 -2.51197815 34.12025452 C-3.99322859 31.15775364 -3.64188499 28.48112557 -3.64479065 25.17884827 C-3.64574738 24.49597244 -3.6467041 23.81309662 -3.64768982 23.10952759 C-3.64837038 21.66624357 -3.64652474 20.22295648 -3.64234924 18.77967834 C-3.63699097 16.56305623 -3.64230258 14.346636 -3.6486969 12.13002014 C-3.64803626 10.72962907 -3.64675538 9.32923812 -3.64479065 7.92884827 C-3.64366272 6.64808411 -3.64253479 5.36731995 -3.64137268 4.04774475 C-3.46980505 0.16610802 -3.46980505 0.16610802 0 0 Z " fill="#DFDBEF" transform="translate(416.51197814941406,290.87974548339844)"/>
<path d="M0 0 C3.32978224 7.15252428 6.12316915 14.46093491 8.8125 21.875 C9.23208984 23.00164062 9.65167969 24.12828125 10.08398438 25.2890625 C10.47521484 26.36671875 10.86644531 27.444375 11.26953125 28.5546875 C11.80477417 30.01624268 11.80477417 30.01624268 12.35083008 31.50732422 C13 34 13 34 12 37 C9.4921875 38.21875 9.4921875 38.21875 5.875 39.5 C5.20355957 39.73992676 4.53211914 39.97985352 3.84033203 40.22705078 C2.22721044 40.80210356 0.6122735 41.37207567 -1.00390625 41.93847656 C-3.90825723 42.96749531 -6.80271091 44.02161009 -9.69534302 45.08306885 C-12.46895432 46.09937718 -15.24587119 47.10644956 -18.02337646 48.11206055 C-19.41945394 48.61886996 -20.81452713 49.1284548 -22.20855713 49.64086914 C-24.20088926 50.37152342 -26.19740301 51.08944778 -28.1953125 51.8046875 C-29.94352295 52.43866455 -29.94352295 52.43866455 -31.72705078 53.08544922 C-35.67280933 54.18800118 -39.23551035 54.88224482 -43 53 C-43 40.13 -43 27.26 -43 14 C-34.93064085 10.77225634 -26.85835347 7.69784855 -18.6875 4.75 C-18.06157959 4.51990234 -17.43565918 4.28980469 -16.79077148 4.05273438 C-14.95057655 3.37638474 -13.10618876 2.7114776 -11.26171875 2.046875 C-10.17850342 1.65338867 -9.09528809 1.25990234 -7.97924805 0.85449219 C-5.14009932 0.04018255 -2.93073838 -0.17780559 0 0 Z " fill="#DAE2FB" transform="translate(438,163)"/>
<path d="M0 0 C0.14852367 4.62632203 0.25729019 9.25125242 0.32958984 13.87939453 C0.35973081 15.45288263 0.40065294 17.02620312 0.45263672 18.59912109 C0.52558491 20.86337587 0.55947806 23.12540814 0.5859375 25.390625 C0.61690521 26.09181458 0.64787292 26.79300415 0.67977905 27.51544189 C0.68115234 29.51660156 0.68115234 29.51660156 0 33 C-4.6068892 36.92039367 -4.6068892 36.92039367 -8.1875 37.125 C-10.96961781 35.39816826 -11.74836334 32.94134616 -13 30 C-13.99 30 -14.98 30 -16 30 C-15.54601811 33.08707688 -14.84597571 35.30804858 -13.4375 38.125 C-12 41 -12 41 -12 44 C-6.06 41.525 -6.06 41.525 0 39 C0 50.55 0 62.1 0 74 C-7.16566422 74 -9.6999878 72.48601715 -15 68 C-18.06097705 64.90383931 -20.50381814 61.55989573 -23 58 C-23.825 57.01902344 -24.65 56.03804688 -25.5 55.02734375 C-35.7698823 41.48625498 -32.77526506 23.06190176 -32 7 C-30.39475464 6.7230127 -30.39475464 6.7230127 -28.75708008 6.44042969 C-27.32366534 6.18460946 -25.89031933 5.92840391 -24.45703125 5.671875 C-23.755177 5.55183105 -23.05332275 5.43178711 -22.3302002 5.30810547 C-16.36525065 4.22763581 -11.13616464 2.31917854 -5.57421875 -0.109375 C-3 -1 -3 -1 0 0 Z " fill="#F10B0C" transform="translate(393,219)"/>
<path d="M0 0 C0.44988281 0.38671875 0.89976563 0.7734375 1.36328125 1.171875 C14.29538471 11.64195475 32.63890259 14.20676408 48.875 14.09765625 C50.08990112 14.09553383 50.08990112 14.09553383 51.3293457 14.09336853 C53.88626994 14.08782383 56.44310276 14.07528207 59 14.0625 C60.74609247 14.05747784 62.49218634 14.05291619 64.23828125 14.04882812 C68.49222209 14.0378726 72.74609561 14.02064694 77 14 C76.62746094 14.60328125 76.25492187 15.2065625 75.87109375 15.828125 C75.16146484 17.02695312 75.16146484 17.02695312 74.4375 18.25 C73.72400391 19.43335938 73.72400391 19.43335938 72.99609375 20.640625 C71.80827328 22.92056577 71.80827328 22.92056577 72.24267578 25.2331543 C72.85513486 27.134757 72.85513486 27.134757 74.6796875 28.01953125 C75.76636719 28.41205078 75.76636719 28.41205078 76.875 28.8125 C80.76804489 30.37467725 84.11880765 32.25732381 87.625 34.5625 C93.61478236 38.46379479 98.78982617 41.12071051 106 42 C105.34 42.99 104.68 43.98 104 45 C95.28535405 44.96219243 87.91343496 42.21463532 81.2421875 36.4921875 C73.67147902 31.45384144 64.91835892 31.40238284 56.13862801 31.03372192 C53.79032942 30.93509225 51.44321692 30.82075325 49.09580994 30.70288086 C44.92896964 30.49620462 40.76162936 30.30316767 36.59393311 30.11462402 C-3.09290176 28.31759266 -3.09290176 28.31759266 -19.00390625 26.5 C-20.04731674 26.38148682 -21.09072723 26.26297363 -22.16575623 26.14086914 C-27.00251238 25.54086036 -31.42981295 24.79083018 -36 23 C-35.505 21.515 -35.505 21.515 -35 20 C-22.73052054 17.39685726 -10.49545826 16.01516486 2 15 C1.34 14.01 0.68 13.02 0 12 C-0.1953125 9.08203125 -0.1953125 9.08203125 -0.125 5.8125 C-0.10695312 4.72582031 -0.08890625 3.63914062 -0.0703125 2.51953125 C-0.04710937 1.68808594 -0.02390625 0.85664063 0 0 Z " fill="#1C2552" transform="translate(49,404)"/>
<path d="M0 0 C27.06 0 54.12 0 82 0 C82 5.28 82 10.56 82 16 C54.94 16 27.88 16 0 16 C0 10.72 0 5.44 0 0 Z " fill="#FBA595" transform="translate(280,305)"/>
<path d="M0 0 C27.06 0 54.12 0 82 0 C82 5.28 82 10.56 82 16 C54.94 16 27.88 16 0 16 C0 10.72 0 5.44 0 0 Z " fill="#FDA696" transform="translate(188,305)"/>
<path d="M0 0 C27.06 0 54.12 0 82 0 C82 5.28 82 10.56 82 16 C54.94 16 27.88 16 0 16 C0 10.72 0 5.44 0 0 Z " fill="#FEA998" transform="translate(280,276)"/>
<path d="M0 0 C27.06 0 54.12 0 82 0 C82 5.28 82 10.56 82 16 C54.94 16 27.88 16 0 16 C0 10.72 0 5.44 0 0 Z " fill="#FEA998" transform="translate(188,276)"/>
<path d="M0 0 C0.17015625 0.79664063 0.3403125 1.59328125 0.515625 2.4140625 C2.83349903 12.77858393 2.83349903 12.77858393 10.17578125 20.0625 C13.84742367 22.08679316 17.2762811 22.86303598 21.4375 23.5 C22.14253662 23.61255127 22.84757324 23.72510254 23.57397461 23.84106445 C25.15103784 24.09274313 26.72898277 24.33893869 28.30761719 24.58056641 C32.46580188 25.22835035 36.61400343 25.9342912 40.76391602 26.6328125 C45.50784289 27.43054782 50.25387409 28.2154718 55 29 C55 29.33 55 29.66 55 30 C30.58037936 34.20122506 -1.77770773 35.30447616 -23.9375 22.4375 C-26.80034982 20.15890524 -27.6929003 19.23301954 -29 16 C-29 12.29826378 -28.13391666 11.14078418 -25.5625 8.4375 C-18.61110261 3.13643436 -8.66898648 0 0 0 Z " fill="#FBA191" transform="translate(78,346)"/>
<path d="M0 0 C0.66 0 1.32 0 2 0 C0.89392144 8.71919377 -0.31359307 17.37061984 -2 26 C-1.030625 26.12375 -0.06125 26.2475 0.9375 26.375 C1.948125 26.58125 2.95875 26.7875 4 27 C4.495 27.99 4.495 27.99 5 29 C4.38125 29.556875 3.7625 30.11375 3.125 30.6875 C0.84331642 32.84913819 0.84331642 32.84913819 0.125 35.6875 C-0.24625 36.450625 -0.6175 37.21375 -1 38 C-5.36026092 39.48886958 -9.35191187 38.7793966 -13.8125 38.19921875 C-16.70824346 37.93549926 -19.20220477 38.23060631 -22 39 C-22.33 39.66 -22.66 40.32 -23 41 C-24.97888961 41.72693904 -26.97954558 42.39816251 -29 43 C-29 41.68 -29 40.36 -29 39 C-30.2375 38.95875 -31.475 38.9175 -32.75 38.875 C-34.859375 38.8046875 -34.859375 38.8046875 -37 38 C-40.3757713 33.90390137 -41.71597166 30.23462485 -42.6875 25.0625 C-42.80778564 24.42368896 -42.92807129 23.78487793 -43.05200195 23.12670898 C-44.29324831 16.11293992 -44.66148572 9.10879985 -45 2 C-36.585 1.505 -36.585 1.505 -28 1 C-28 9.25 -28 17.5 -28 26 C-25.298125 26.226875 -22.59625 26.45375 -19.8125 26.6875 C-18.97050049 26.76701904 -18.12850098 26.84653809 -17.26098633 26.9284668 C-12.52264497 27.26470711 -9.96396873 26.90392436 -6 24 C-5.34 24 -4.68 24 -4 24 C-3.81824219 22.15535156 -3.81824219 22.15535156 -3.6328125 20.2734375 C-3.46389705 18.6405882 -3.29460636 17.00777768 -3.125 15.375 C-3.04636719 14.56675781 -2.96773437 13.75851562 -2.88671875 12.92578125 C-2.40468596 8.36500951 -1.6615882 4.31454415 0 0 Z " fill="#D88961" transform="translate(107,297)"/>
<path d="M0 0 C4.0033707 3.37125953 6.94863364 7.07861196 7.72265625 12.38208008 C7.80546773 20.18040801 6.00069787 26.82166579 3.5625 34.1875 C3.20607422 35.31091797 2.84964844 36.43433594 2.48242188 37.59179688 C1.47545852 40.7383264 0.43283177 43.8702644 -0.625 47 C-0.89675049 47.83853516 -1.16850098 48.67707031 -1.44848633 49.54101562 C-2.1953125 51.73046875 -2.1953125 51.73046875 -3.625 55 C-6.6875 56.125 -6.6875 56.125 -9.625 56 C-10.285 55.34 -10.945 54.68 -11.625 54 C-10.305 51.69 -8.985 49.38 -7.625 47 C-8.945 46.34 -10.265 45.68 -11.625 45 C-11.53935791 44.35039307 -11.45371582 43.70078613 -11.36547852 43.03149414 C-10.97188683 40.04195132 -10.57968514 37.05222765 -10.1875 34.0625 C-10.05279297 33.04091797 -9.91808594 32.01933594 -9.77929688 30.96679688 C-9.64716797 29.95810547 -9.51503906 28.94941406 -9.37890625 27.91015625 C-9.25845947 26.99371338 -9.1380127 26.07727051 -9.01391602 25.13305664 C-8.51244815 21.09329701 -8.07454079 17.04586715 -7.625 13 C-13.895 12.67 -20.165 12.34 -26.625 12 C-20.94807692 6.32307692 -20.94807692 6.32307692 -17.5625 3.8125 C-16.91152344 3.32394531 -16.26054687 2.83539063 -15.58984375 2.33203125 C-10.47414778 -1.13606482 -6.03251892 -2.29810244 0 0 Z " fill="#1C2553" transform="translate(173.625,285)"/>
<path d="M0 0 C0.9603791 -0.00779995 1.9207582 -0.01559991 2.9102397 -0.02363622 C6.13101942 -0.04359327 9.35062246 -0.02777657 12.57141113 -0.01205444 C14.87928457 -0.01882888 17.18715261 -0.02773102 19.49501038 -0.03860474 C25.76564566 -0.06142498 32.03587024 -0.05255015 38.30651283 -0.03670931 C44.86385849 -0.0240646 51.42116861 -0.03578645 57.97851562 -0.04364014 C69.69686907 -0.05432415 81.41504949 -0.03777009 93.13337296 -0.01234345 C103.75750572 0.00999533 114.38136533 0.00611517 125.00549316 -0.01693726 C137.34405481 -0.04369717 149.68244228 -0.05365377 162.021029 -0.03887594 C168.55208553 -0.03107428 175.08295391 -0.03005971 181.61399841 -0.04655838 C187.75367431 -0.06098452 193.89283355 -0.05101456 200.03245354 -0.0220871 C202.28792906 -0.01546647 204.54344795 -0.01739051 206.79890633 -0.02840042 C209.87377063 -0.04202822 212.94697078 -0.0249724 216.02172852 0 C216.91812656 -0.01115361 217.8145246 -0.02230722 218.73808622 -0.03379881 C223.14666541 0.03583706 224.95288122 0.20183881 228.54143524 2.9871006 C231.2118979 6.57742958 231.63525259 9.03581233 231.53259277 13.38174438 C231.51249649 14.34251389 231.49240021 15.30328339 231.47169495 16.29316711 C231.44465988 17.32762466 231.41762482 18.36208221 231.38977051 19.42788696 C231.36615952 20.48905228 231.34254852 21.55021759 231.31822205 22.64353943 C231.24157975 26.03663491 231.1575575 29.4295025 231.07336426 32.82241821 C231.02014416 35.12123514 230.96740376 37.42006323 230.91516113 39.71890259 C230.7859638 45.35771582 230.65070506 50.99635945 230.51086426 56.63491821 C230.18086426 56.63491821 229.85086426 56.63491821 229.51086426 56.63491821 C229.50499802 56.02992493 229.49913177 55.42493164 229.49308777 54.80160522 C229.42917578 48.50728987 229.34476177 42.21348686 229.24841309 35.91958618 C229.21514958 33.57037102 229.18712214 31.22107566 229.16442871 28.87173462 C229.13090957 25.49557301 229.07859377 22.12014729 229.02258301 18.74429321 C229.01299812 17.16753815 229.01299812 17.16753815 229.0032196 15.55892944 C228.98342545 14.57821472 228.96363129 13.5975 228.9432373 12.58706665 C228.93213425 11.72546936 228.92103119 10.86387207 228.90959167 9.97616577 C228.38176011 6.87684448 227.85338824 5.7843018 225.51086426 3.63491821 C222.43274884 3.01175338 219.37295742 3.10045679 216.24205017 3.13371277 C215.28126322 3.12817837 214.32047628 3.12264398 213.33057457 3.11694187 C210.09671036 3.10327991 206.86361054 3.11833483 203.62976074 3.13320923 C201.31731843 3.1294281 199.00487837 3.12392977 196.69244385 3.11683655 C190.40126979 3.10283862 184.11036789 3.11408191 177.81920886 3.13054776 C171.24711038 3.14436331 164.67502827 3.13794224 158.10292053 3.13441467 C147.06576296 3.13097902 136.02870801 3.14512401 124.99157715 3.16836548 C113.62760386 3.19229261 102.26377423 3.19936799 90.89978027 3.18887329 C77.21534398 3.17625834 63.53100894 3.17874397 49.84657478 3.19453239 C44.61492423 3.20030457 39.38332174 3.20019988 34.15167046 3.195467 C27.99654721 3.19070996 21.84162388 3.20074594 15.6865387 3.22242165 C13.42174008 3.22800686 11.15692232 3.22843905 8.89212227 3.22346878 C5.81208796 3.21755495 2.73267301 3.22994576 -0.3473053 3.24723816 C-1.70705651 3.23822309 -1.70705651 3.23822309 -3.09427744 3.2290259 C-5.82309747 3.22117679 -5.82309747 3.22117679 -9.48913574 3.63491821 C-11.70647849 6.96093233 -11.74499958 8.01556615 -11.76760864 11.89302063 C-11.77877213 12.9825705 -11.78993561 14.07212036 -11.80143738 15.19468689 C-11.80359756 16.39014633 -11.80575775 17.58560577 -11.8079834 18.81729126 C-11.81802902 20.07593994 -11.82807465 21.33458862 -11.83842468 22.63137817 C-11.86575349 26.08355679 -11.88088254 29.53569453 -11.89385271 32.98795295 C-11.90947071 36.59548624 -11.93626514 40.20293591 -11.96188354 43.81040955 C-12.00869498 50.64201831 -12.0454276 57.47364277 -12.07855642 64.3053301 C-12.11676114 72.08281236 -12.16617559 79.86021069 -12.21654058 87.63762224 C-12.31989558 103.63666025 -12.40914433 119.6357453 -12.48913574 135.63491821 C-13.14913574 135.63491821 -13.80913574 135.63491821 -14.48913574 135.63491821 C-14.60594663 118.77143852 -14.69411268 101.90808512 -14.7481966 85.0442934 C-14.77397642 77.2140939 -14.80912232 69.3841458 -14.86633301 61.55410767 C-14.91617524 54.72928502 -14.94842839 47.90464445 -14.95957822 41.07964486 C-14.96609575 37.46588012 -14.98140796 33.85263623 -15.01778603 30.23903847 C-15.05807207 26.20450378 -15.05908468 22.17087407 -15.0567627 18.13613892 C-15.08372726 16.33970947 -15.08372726 16.33970947 -15.11123657 14.50698853 C-15.10436325 13.40627518 -15.09748993 12.30556183 -15.09040833 11.17149353 C-15.09501729 10.21743779 -15.09962626 9.26338205 -15.10437489 8.28041553 C-13.2072868 0.12303235 -7.03059778 -0.08747959 0 0 Z " fill="#483E5F" transform="translate(164.4891357421875,157.36508178710938)"/>
<path d="M0 0 C4.10920533 4.64286836 6.20124763 9.75014318 6 16 C5.22395095 23.60763236 3.60043409 32.22335215 0 39 C-3.31199982 40.85927322 -5.12875768 41 -9 41 C-9 40.01 -9 39.02 -9 38 C-8.2575 37.505 -7.515 37.01 -6.75 36.5 C-1.51094246 31.73722042 0.25345345 23.90555555 1 17 C0.236875 16.773125 -0.52625 16.54625 -1.3125 16.3125 C-4.54736301 14.73268318 -5.41641358 13.16717283 -7 10 C-8.7297971 10.99795986 -10.45898209 11.99701177 -12.18359375 13.00390625 C-14 14 -14 14 -16.3125 14.8125 C-19.14089964 16.8028553 -19.28144463 19.76650085 -20 23 C-20.33 22.34 -20.66 21.68 -21 21 C-21.99 21 -22.98 21 -24 21 C-23.67 20.01 -23.34 19.02 -23 18 C-23.66 18 -24.32 18 -25 18 C-23.91215032 21.24983135 -23.91215032 21.24983135 -22 24 C-22.13240752 28.92963395 -22.83862209 33.53315231 -25 38 C-27.93167219 37.68306247 -29.58982661 37.36774166 -31.8125 35.375 C-34.97012336 29.05975328 -32.14479124 21.80348008 -30.3125 15.4375 C-30.06822266 14.51775391 -29.82394531 13.59800781 -29.57226562 12.65039062 C-27.75312324 6.24424617 -25.66779612 1.30547185 -19.8125 -2.375 C-12.88362365 -3.9147503 -6.13370159 -3.84859707 0 0 Z " fill="#1C2551" transform="translate(112,227)"/>
<path d="M0 0 C1.423125 1.36125 1.423125 1.36125 2.875 2.75 C17.62223379 15.14116685 41.08628153 14.58613027 59.25 14.25 C61.18227268 14.22985862 63.11456617 14.21162166 65.046875 14.1953125 C69.69844852 14.15202642 74.3489808 14.08344362 79 14 C79.33 11.69 79.66 9.38 80 7 C83.82990706 7.64743667 86.5283898 9.45311237 89.75 11.5625 C90.73484375 12.20316406 91.7196875 12.84382813 92.734375 13.50390625 C93.48203125 13.99761719 94.2296875 14.49132812 95 15 C94.855625 15.70125 94.71125 16.4025 94.5625 17.125 C94.2840625 18.548125 94.2840625 18.548125 94 20 C93.73960937 20.98742187 93.47921875 21.97484375 93.2109375 22.9921875 C92.93172849 26.97350111 94.05533557 28.14418926 96.625 31.125 C97.31851563 31.95257813 98.01203125 32.78015625 98.7265625 33.6328125 C100.97375863 36.07695623 100.97375863 36.07695623 103.71875 38.16796875 C106 40 106 40 106.875 42.1875 C106.91625 42.785625 106.9575 43.38375 107 44 C106 45 106 45 104.25 45.0546875 C95.00757153 44.31657689 88.60385025 39.47098123 81.1484375 34.34375 C79.12797232 33.08004087 77.22420332 32.21021104 75 31.375 C72 30 72 30 71.16015625 28.1796875 C70.94775294 25.28893021 71.81870783 24.11896415 73.4375 21.75 C74.14712891 20.69039063 74.14712891 20.69039063 74.87109375 19.609375 C75.24363281 19.07828125 75.61617188 18.5471875 76 18 C74.998479 18.01571045 73.99695801 18.0314209 72.96508789 18.04760742 C69.16113705 18.10292391 65.35721955 18.13670967 61.55297852 18.16479492 C59.92303442 18.17965472 58.29312859 18.19994836 56.66333008 18.22631836 C38.27881358 18.51579361 16.10616996 17.51325286 1.625 4.9375 C0 3 0 3 0 0 Z " fill="#EF1011" transform="translate(49,401)"/>
<path d="M0 0 C7.88596464 -0.29532459 13.51950661 0.54048081 20.63671875 3.921875 C30.30078897 8.26746362 41.06565777 9.28948214 51.546875 9.546875 C52.2680249 9.5676561 52.9891748 9.58843719 53.73217773 9.60984802 C56.00366007 9.67448809 58.27524362 9.73382426 60.546875 9.79296875 C62.10027029 9.83623565 63.65365587 9.87985233 65.20703125 9.92382812 C68.98687924 10.03007971 72.76682752 10.13157955 76.546875 10.23046875 C76.216875 11.88046875 75.886875 13.53046875 75.546875 15.23046875 C63.94195578 15.37255493 52.3872242 14.94821919 40.796875 14.41796875 C39.84120636 14.37478516 38.88553772 14.33160156 37.90090942 14.28710938 C24.73958634 13.68255127 11.60887309 12.88946369 -1.515625 11.73046875 C-2.54991638 11.64096451 -2.54991638 11.64096451 -3.60510254 11.5496521 C-24.4817296 9.71616645 -24.4817296 9.71616645 -29.453125 7.23046875 C-29.123125 6.24046875 -28.793125 5.25046875 -28.453125 4.23046875 C-18.96524687 2.3794594 -9.65290246 0.6442548 0 0 Z " fill="#D7E1FB" transform="translate(42.453125,419.76953125)"/>
<path d="M0 0 C2 3 2 3 2.875 5.0625 C4.25342569 7.43645536 5.55004594 7.88413023 8 9 C7.69187412 16.51827153 6.57281214 22.91810841 1.4921875 28.72265625 C0 30 0 30 -2 30 C-1.95875 31.27875 -1.9175 32.5575 -1.875 33.875 C-1.8046875 36.0546875 -1.8046875 36.0546875 -2 38 C-4 40 -4 40 -7.1875 40.125 C-11.77592535 38.77103842 -13.84573888 37.06587596 -16.8203125 33.390625 C-18.62013288 29.74330688 -17.85960154 27.16628681 -16.68359375 23.39453125 C-15.93846613 20.78445563 -15.78282123 18.70116098 -16 16 C-16.98731742 14.65724831 -17.98594743 13.32267727 -19 12 C-18.67 11.01 -18.34 10.02 -18 9 C-17.01 9 -16.02 9 -15 9 C-15.66 10.32 -16.32 11.64 -17 13 C-15.04105639 12.88693303 -15.04105639 12.88693303 -13 12 C-12.73058594 11.21367187 -12.46117188 10.42734375 -12.18359375 9.6171875 C-10.66627012 6.26204945 -9.26512084 5.75367104 -5.9375 4.3125 C-2.25394643 2.92864394 -2.25394643 2.92864394 0 0 Z " fill="#D58A62" transform="translate(105,235)"/>
<path d="M0 0 C9.24 0 18.48 0 28 0 C28 13 28 13 26 17 C22.23845432 18.88077284 17.70176726 18.22802645 13.5625 18.25 C12.59505859 18.270625 11.62761719 18.29125 10.63085938 18.3125 C9.23770508 18.32023437 9.23770508 18.32023437 7.81640625 18.328125 C6.53938843 18.34214355 6.53938843 18.34214355 5.23657227 18.35644531 C3 18 3 18 1.21728516 16.70288086 C-0.80836467 13.86916494 -0.30819715 10.65249976 -0.1875 7.3125 C-0.125625 4.899375 -0.06375 2.48625 0 0 Z " fill="#1B2553" transform="translate(380,405)"/>
<path d="M0 0 C-0.33 6.27 -0.66 12.54 -1 19 C-1.99 19 -2.98 19 -4 19 C-4 13.06 -4 7.12 -4 1 C-4.66 1 -5.32 1 -6 1 C-6 7.27 -6 13.54 -6 20 C-7.32 20 -8.64 20 -10 20 C-10 16.04 -10 12.08 -10 8 C-10.99 8.495 -10.99 8.495 -12 9 C-12 12.3 -12 15.6 -12 19 C-13.32 19 -14.64 19 -16 19 C-16 15.7 -16 12.4 -16 9 C-16.66 8.67 -17.32 8.34 -18 8 C-18 11.96 -18 15.92 -18 20 C-19.32 20 -20.64 20 -22 20 C-22.33 14.06 -22.66 8.12 -23 2 C-23.33 7.61 -23.66 13.22 -24 19 C-24.99 19 -25.98 19 -27 19 C-27.33 12.73 -27.66 6.46 -28 0 C-16.11684139 -8.41167407 -12.46614031 -7.33987701 0 0 Z " fill="#DBE0F8" transform="translate(287,224)"/>
<path d="M0 0 C0 1.32 0 2.64 0 4 C-0.80824219 4.25394531 -1.61648437 4.50789063 -2.44921875 4.76953125 C-4.05216797 5.28580078 -4.05216797 5.28580078 -5.6875 5.8125 C-7.27111328 6.31716797 -7.27111328 6.31716797 -8.88671875 6.83203125 C-11.8939738 7.96022355 -14.38537632 9.13778602 -17 11 C-18.24677006 13.89706707 -18.24677006 13.89706707 -18 17 C-14.55437047 22.57863828 -6.80451237 24.25560173 -0.83129883 25.84106445 C9.53300562 28.1282545 19.41985159 28.32574178 30 28.125 C32.4663679 28.08966244 34.93267823 28.0589232 37.39916992 28.03366089 C38.91634752 28.01697887 40.43347558 27.99409635 41.95043945 27.96365356 C46.43469267 27.90040037 50.59479953 28.2612352 55 29 C55 29.33 55 29.66 55 30 C30.58037936 34.20122506 -1.77770773 35.30447616 -23.9375 22.4375 C-26.80034982 20.15890524 -27.6929003 19.23301954 -29 16 C-29 12.29826378 -28.13391666 11.14078418 -25.5625 8.4375 C-18.61110261 3.13643436 -8.66898648 0 0 0 Z " fill="#FAA393" transform="translate(78,346)"/>
<path d="M0 0 C1.423125 1.36125 1.423125 1.36125 2.875 2.75 C17.62223379 15.14116685 41.08628153 14.58613027 59.25 14.25 C61.18227268 14.22985862 63.11456617 14.21162166 65.046875 14.1953125 C69.69844852 14.15202642 74.3489808 14.08344362 79 14 C79.33 11.69 79.66 9.38 80 7 C83.82990706 7.64743667 86.5283898 9.45311237 89.75 11.5625 C90.73484375 12.20316406 91.7196875 12.84382813 92.734375 13.50390625 C93.48203125 13.99761719 94.2296875 14.49132812 95 15 C94.38550003 18.33822957 93.65439171 21.02209492 92 24 C85.82726847 23.57429438 81.57782148 22.57782148 77 18 C74.45961423 17.94831946 71.945261 17.95853479 69.40625 18.0078125 C67.80078813 18.02538041 66.19531888 18.04228346 64.58984375 18.05859375 C62.07156438 18.08909781 59.55366532 18.12398985 57.03564453 18.17138672 C38.52073797 18.50141409 16.23278115 17.62320468 1.625 4.9375 C0 3 0 3 0 0 Z " fill="#D28E89" transform="translate(49,401)"/>
<path d="M0 0 C0.33 0 0.66 0 1 0 C1.66 9.24 2.32 18.48 3 28 C3.66 25.36 4.32 22.72 5 20 C5.33 20 5.66 20 6 20 C4.43333333 48.13333333 4.43333333 48.13333333 3 51 C6.63 51 10.26 51 14 51 C14 52.32 14 53.64 14 55 C4.76 55 -4.48 55 -14 55 C-14 53.68 -14 52.36 -14 51 C-10.04 51 -6.08 51 -2 51 C-2.01160156 49.98808594 -2.02320313 48.97617187 -2.03515625 47.93359375 C-2.11122021 37.7831509 -1.9343352 27.64420186 -1.62667847 17.49880981 C-1.58381313 16.08029926 -1.54257969 14.66173847 -1.50296021 13.24313354 C-1.44593192 11.23224868 -1.3813301 9.22158293 -1.31640625 7.2109375 C-1.27974854 6.03837402 -1.24309082 4.86581055 -1.20532227 3.65771484 C-1 1 -1 1 0 0 Z " fill="#2E2F57" transform="translate(394,348)"/>
<path d="M0 0 C2 0.33333333 4 0.66666667 6 1 C6.33 0.67 6.66 0.34 7 0 C9.82416382 -0.12663091 12.61294793 -0.18520548 15.4375 -0.1875 C16.22705078 -0.19974609 17.01660156 -0.21199219 17.83007812 -0.22460938 C19.88807435 -0.22987279 21.94562009 -0.12206285 24 0 C24.66 0.66 25.32 1.32 26 2 C25.69496569 4.00451121 25.35919321 6.00448218 25 8 C25.3577614 10.27650745 25.3577614 10.27650745 26 12 C25.01 12 24.02 12 23 12 C22.67 11.34 22.34 10.68 22 10 C21.67 10.66 21.34 11.32 21 12 C19.68 12 18.36 12 17 12 C17 9.03 17 6.06 17 3 C16.01 3 15.02 3 14 3 C14 5.97 14 8.94 14 12 C12.68 12 11.36 12 10 12 C10 9.03 10 6.06 10 3 C5.65815798 3.18464366 5.65815798 3.18464366 2 5 C3.32 5.33 4.64 5.66 6 6 C6.33 7.32 6.66 8.64 7 10 C4 12 4 12 1.3125 11.625 C0.549375 11.41875 -0.21375 11.2125 -1 11 C-1.33 10.01 -1.66 9.02 -2 8 C-1.34 7.67 -0.68 7.34 0 7 C-0.66 6.34 -1.32 5.68 -2 5 C-1.46428571 1.46428571 -1.46428571 1.46428571 0 0 Z " fill="#E29AAB" transform="translate(253,364)"/>
<path d="M0 0 C0 0.66 0 1.32 0 2 C-0.69867188 2.33773438 -1.39734375 2.67546875 -2.1171875 3.0234375 C-3.02726562 3.46945312 -3.93734375 3.91546875 -4.875 4.375 C-5.77992187 4.81585938 -6.68484375 5.25671875 -7.6171875 5.7109375 C-10.09534472 6.90502699 -10.09534472 6.90502699 -12 9 C-11.98333671 11.50324332 -11.98333671 11.50324332 -11 14 C-8.03317921 16.67287311 -5.0168263 17.88565559 -1.25 19.125 C-0.26515625 19.45757812 0.7196875 19.79015625 1.734375 20.1328125 C10.32377264 22.4137291 19.16701911 22.29863524 28 22.5625 C29.36068789 22.60578135 30.72136515 22.64939839 32.08203125 22.69335938 C35.38793157 22.79886683 38.69389999 22.90098256 42 23 C42.495 23.99 42.495 23.99 43 25 C38.71739885 25.07552747 34.43517522 25.12923302 30.15209961 25.16479492 C28.70248646 25.17965701 27.25291635 25.19995267 25.8034668 25.22631836 C11.21845154 25.48450502 -5.06937313 24.65419257 -17.1875 15.625 C-19 13 -19 13 -19.3125 10 C-17.37209807 5.56479558 -14.2831037 4.01602572 -10 2 C-6.64830843 0.72410952 -3.61693739 0 0 0 Z " fill="#F41312" transform="translate(78,350)"/>
<path d="M0 0 C1.32 0.66 2.64 1.32 4 2 C3.67 2.763125 3.34 3.52625 3 4.3125 C1.82563314 6.99069135 1.82563314 6.99069135 2 10 C1.71372955 12.67356157 1.34968449 15.33365575 1 18 C0.13117188 17.72285156 -0.73765625 17.44570313 -1.6328125 17.16015625 C-2.78523438 16.79792969 -3.93765625 16.43570312 -5.125 16.0625 C-6.26195312 15.70285156 -7.39890625 15.34320313 -8.5703125 14.97265625 C-11.71432699 14.08101661 -14.76894393 13.46648986 -18 13 C-17.67 11.02 -17.34 9.04 -17 7 C-18.01030273 7.05329468 -18.01030273 7.05329468 -19.04101562 7.10766602 C-32.11492062 7.77495207 -44.95290112 8.26387694 -58 7 C-58 6.67 -58 6.34 -58 6 C-39.19 6 -20.38 6 -1 6 C-1 4.35 -1 2.7 -1 1 C-0.67 0.67 -0.34 0.34 0 0 Z " fill="#C28168" transform="translate(162,330)"/>
<path d="M0 0 C2.0625 0.4375 2.0625 0.4375 4 1 C3.890625 2.76171875 3.890625 2.76171875 3 5 C0.92123245 6.45693968 -1.02007039 7.6380133 -3.25 8.8125 C-3.87173096 9.15216797 -4.49346191 9.49183594 -5.1340332 9.84179688 C-6.43284235 10.549373 -7.73475396 11.25128106 -9.03955078 11.94775391 C-10.94336854 12.96960379 -12.83045416 14.01704852 -14.71484375 15.07421875 C-23.59723631 20 -23.59723631 20 -27 20 C-27.86846831 18.25705322 -28.71930627 16.50531337 -29.5625 14.75 C-30.27599609 13.28820312 -30.27599609 13.28820312 -31.00390625 11.796875 C-32.03510273 8.90143703 -32.11346788 7.80033839 -31 5 C-29.1875 5.125 -29.1875 5.125 -27 6 C-25.25 9.0625 -25.25 9.0625 -24 12 C-20.86157983 11.34350512 -18.31716822 10.24909365 -15.48828125 8.75 C-14.64845703 8.3065625 -13.80863281 7.863125 -12.94335938 7.40625 C-12.07517578 6.9421875 -11.20699219 6.478125 -10.3125 6 C-9.43271484 5.5359375 -8.55292969 5.071875 -7.64648438 4.59375 C-3.57383911 2.65388579 -3.57383911 2.65388579 0 0 Z " fill="#DAD8F1" transform="translate(408,243)"/>
<path d="M0 0 C1.40958984 -0.00193359 1.40958984 -0.00193359 2.84765625 -0.00390625 C3.83636719 -0.00003906 4.82507813 0.00382813 5.84375 0.0078125 C7.32681641 0.00201172 7.32681641 0.00201172 8.83984375 -0.00390625 C9.77957031 -0.00261719 10.71929687 -0.00132812 11.6875 0 C12.55568359 0.00112793 13.42386719 0.00225586 14.31835938 0.00341797 C16.34375 0.1328125 16.34375 0.1328125 17.34375 1.1328125 C17.34375 3.7728125 17.34375 6.4128125 17.34375 9.1328125 C9.75375 9.1328125 2.16375 9.1328125 -5.65625 9.1328125 C-5.65625 0.00734851 -5.65625 0.00734851 0 0 Z " fill="#FEA695" transform="translate(97.65625,165.8671875)"/>
<path d="M0 0 C3.82990706 0.64743667 6.5283898 2.45311237 9.75 4.5625 C11.22726563 5.52349609 11.22726563 5.52349609 12.734375 6.50390625 C13.48203125 6.99761719 14.2296875 7.49132812 15 8 C14.38550003 11.33822957 13.65439171 14.02209492 12 17 C6.13345665 16.5954108 2.68613941 15.83411406 -2 12 C-4.375 9.25 -4.375 9.25 -6 7 C-4.35 7 -2.7 7 -1 7 C-0.67 4.69 -0.34 2.38 0 0 Z " fill="#D38862" transform="translate(129,408)"/>
<path d="M0 0 C3.375 -0.125 3.375 -0.125 7 0 C7.66 0.66 8.32 1.32 9 2 C9.99 1.34 10.98 0.68 12 0 C15.1875 0.375 15.1875 0.375 18 1 C18.33 1.99 18.66 2.98 19 4 C17.02 4 15.04 4 13 4 C13.33 5.32 13.66 6.64 14 8 C14 7.01 14 6.02 14 5 C15.65 5 17.3 5 19 5 C19.125 7.375 19.125 7.375 19 10 C18.34 10.66 17.68 11.32 17 12 C10.42307692 11.42307692 10.42307692 11.42307692 9 10 C8.67 10.66 8.34 11.32 8 12 C5.36 12 2.72 12 0 12 C0 8.04 0 4.08 0 0 Z " fill="#EA565F" transform="translate(226,364)"/>
<path d="M0 0 C0.40089844 0.38671875 0.80179688 0.7734375 1.21484375 1.171875 C15.38651151 14.15453662 37.89351122 15.20278762 56.25 15.125 C57.35013428 15.12306641 58.45026855 15.12113281 59.58374023 15.11914062 C67.09803613 15.07915029 74.52642686 14.8320479 82 14 C81.67 14.66 81.34 15.32 81 16 C72.50816577 18.37443208 63.56020639 18.35192498 54.8125 18.3125 C53.53890625 18.30831055 52.2653125 18.30412109 50.953125 18.29980469 C41.30416104 18.18446865 32.3606797 17.37828344 23 15 C21.80246094 14.69835937 20.60492188 14.39671875 19.37109375 14.0859375 C11.89771578 11.99441193 4.45500852 9.68251278 0 3 C0 2.01 0 1.02 0 0 Z " fill="#DC938C" transform="translate(49,387)"/>
<path d="M0 0 C2.4375 2.125 2.4375 2.125 4 5 C3.936318 8.18409977 3.51040601 10.14932332 1.875 12.875 C-1.12446786 14.67468071 -3.59386668 14.36494286 -7 14 C-8.9375 12.9375 -8.9375 12.9375 -10 11 C-10.50030235 7.06905293 -10.5996142 4.8994213 -8.375 1.5625 C-5.2629338 -0.48491197 -3.65605504 -0.68551032 0 0 Z " fill="#FEA090" transform="translate(107,150)"/>
<path d="M0 0 C1.26650391 0.433125 1.26650391 0.433125 2.55859375 0.875 C6.04018927 2.01313792 9.52967241 3.03272314 13.0625 4 C14.24972656 4.33 15.43695313 4.66 16.66015625 5 C30.41272914 8.30428528 43.74142231 8.23956596 57.8125 8.125 C59.96939688 8.11494907 62.1262983 8.10582696 64.28320312 8.09765625 C69.52223585 8.07581271 74.76109625 8.042503 80 8 C72.06985326 13.28676449 58.56255385 11.24197858 49.3125 11.25 C48.60789642 11.25067474 47.90329285 11.25134949 47.17733765 11.25204468 C12.16575113 11.19889974 12.16575113 11.19889974 1.1484375 1.34375 C0.76945312 0.9003125 0.39046875 0.456875 0 0 Z " fill="#C28584" transform="translate(54,380)"/>
<path d="M0 0 C0.721875 0.00257813 1.44375 0.00515625 2.1875 0.0078125 C2.909375 0.00523437 3.63125 0.00265625 4.375 0 C6.1875 0.1328125 6.1875 0.1328125 7.1875 1.1328125 C7.26075168 3.99548817 7.27988205 6.8335315 7.25 9.6953125 C7.24548828 10.50162109 7.24097656 11.30792969 7.23632812 12.13867188 C7.22450518 14.13675006 7.20656914 16.13479033 7.1875 18.1328125 C8.1775 18.4628125 9.1675 18.7928125 10.1875 19.1328125 C8.8675 19.1328125 7.5475 19.1328125 6.1875 19.1328125 C6.1875 15.1728125 6.1875 11.2128125 6.1875 7.1328125 C5.1975 7.6278125 5.1975 7.6278125 4.1875 8.1328125 C4.1875 11.4328125 4.1875 14.7328125 4.1875 18.1328125 C2.8675 18.1328125 1.5475 18.1328125 0.1875 18.1328125 C0.1875 14.8328125 0.1875 11.5328125 0.1875 8.1328125 C-0.4725 7.8028125 -1.1325 7.4728125 -1.8125 7.1328125 C-1.8125 11.0928125 -1.8125 15.0528125 -1.8125 19.1328125 C-3.1325 18.8028125 -4.4525 18.4728125 -5.8125 18.1328125 C-4.8225 18.1328125 -3.8325 18.1328125 -2.8125 18.1328125 C-2.82410156 16.91722656 -2.83570313 15.70164063 -2.84765625 14.44921875 C-2.85703278 12.86458486 -2.86613313 11.27994932 -2.875 9.6953125 C-2.88337891 8.89287109 -2.89175781 8.09042969 -2.90039062 7.26367188 C-2.9090143 5.21986029 -2.8647815 3.17597348 -2.8125 1.1328125 C-1.8125 0.1328125 -1.8125 0.1328125 0 0 Z " fill="#EDC4C8" transform="translate(270.8125,224.8671875)"/>
<path d="M0 0 C2 3 2 3 2.0625 5.5 C1 8 1 8 -2.125 9.875 C-5.94591925 11.29103426 -9.03102754 10.89099382 -13 10 C-13.625 7.6875 -13.625 7.6875 -14 5 C-10.71582666 0.07373999 -5.71843392 -0.64982204 0 0 Z " fill="#FDAA9B" transform="translate(438,191)"/>
<path d="M0 0 C13.2 0 26.4 0 40 0 C40 0.99 40 1.98 40 3 C26.8 3 13.6 3 0 3 C0 2.01 0 1.02 0 0 Z " fill="#E3D5E4" transform="translate(301,283)"/>
<path d="M0 0 C13.2 0 26.4 0 40 0 C40 0.99 40 1.98 40 3 C26.8 3 13.6 3 0 3 C0 2.01 0 1.02 0 0 Z " fill="#E3D5E4" transform="translate(209,283)"/>
<path d="M0 0 C0.33 0.66 0.66 1.32 1 2 C1.99 1.67 2.98 1.34 4 1 C4.99 1.66 5.98 2.32 7 3 C8.36125 3.2165625 8.36125 3.2165625 9.75 3.4375 C13.5666585 4.09807551 16.48923741 5.38504921 20 7 C20 7.99 20 8.98 20 10 C17.69 9.34 15.38 8.68 13 8 C12.67 8.99 12.34 9.98 12 11 C5.73 8.69 -0.54 6.38 -7 4 C-4 3 -4 3 -1 4 C-0.67 2.68 -0.34 1.36 0 0 Z " fill="#E2D6E6" transform="translate(229,139)"/>
<path d="M0 0 C2.72274244 0.95295985 3.97489421 1.41788511 5.5 3.875 C5.375 6.9375 5.375 6.9375 4.5 9.875 C1.29191085 12.0137261 0.22301503 12.35230962 -3.5 11.875 C-5.81282587 8.40576119 -5.92478586 6.95294425 -5.5 2.875 C-3.85007404 0.18301554 -3.1686832 -0.15843416 0 0 Z " fill="#DCCBE2" transform="translate(312.5,364.125)"/>
<path d="M0 0 C7.92 0 15.84 0 24 0 C23.67 1.98 23.34 3.96 23 6 C15.1753241 5.32545897 7.65443386 3.73123042 0 2 C0 1.34 0 0.68 0 0 Z " fill="#262F5C" transform="translate(121,337)"/>
<path d="M0 0 C4 1 4 1 6 4 C6.33 2.68 6.66 1.36 7 0 C7.99 0 8.98 0 10 0 C10 3.96 10 7.92 10 12 C6 11 6 11 4 8 C3.67 9.32 3.34 10.64 3 12 C2.01 12 1.02 12 0 12 C0 8.04 0 4.08 0 0 Z " fill="#DCD3EB" transform="translate(319,364)"/>
<path d="M0 0 C0.87527344 -0.01417969 1.75054687 -0.02835937 2.65234375 -0.04296875 C5.0625 0.1875 5.0625 0.1875 8.0625 2.1875 C8.0625 3.5075 8.0625 4.8275 8.0625 6.1875 C0.8025 6.1875 -6.4575 6.1875 -13.9375 6.1875 C-13.2775 4.8675 -12.6175 3.5475 -11.9375 2.1875 C-11.2775 2.1875 -10.6175 2.1875 -9.9375 2.1875 C-9.2775 2.8475 -8.6175 3.5075 -7.9375 4.1875 C-7.6075 3.1975 -7.2775 2.2075 -6.9375 1.1875 C-4.47380468 -0.04434766 -2.7480499 0.02017658 0 0 Z " fill="#986C77" transform="translate(225.9375,309.8125)"/>
<path d="M0 0 C3.375 -0.125 3.375 -0.125 7 0 C7.66 0.66 8.32 1.32 9 2 C8.70241581 4.3381615 8.36760731 6.67182036 8 9 C8.33 9.99 8.66 10.98 9 12 C7.0625 11.625 7.0625 11.625 5 11 C4.67 10.34 4.34 9.68 4 9 C3.67 9.99 3.34 10.98 3 12 C2.01 12 1.02 12 0 12 C0 8.04 0 4.08 0 0 Z " fill="#DEBED3" transform="translate(216,364)"/>
<path d="M0 0 C4.19469571 0.59924224 8.00999834 1.57499941 12 3 C11.125 7.75 11.125 7.75 10 10 C8.54096742 9.69078116 7.08279278 9.37751201 5.625 9.0625 C4.81289062 8.88847656 4.00078125 8.71445313 3.1640625 8.53515625 C1 8 1 8 -1 7 C-0.67 4.69 -0.34 2.38 0 0 Z " fill="#FDAA9B" transform="translate(229,119)"/>
<path d="M0 0 C0.33 0.99 0.66 1.98 1 3 C-0.98 3 -2.96 3 -5 3 C-4.67 4.32 -4.34 5.64 -4 7 C-4 6.01 -4 5.02 -4 4 C-2.35 4 -0.7 4 1 4 C1.125 6.375 1.125 6.375 1 9 C0.34 9.66 -0.32 10.32 -1 11 C-4.5625 10.75 -4.5625 10.75 -8 10 C-9.39935013 7.20129973 -9.25265405 5.09501208 -9 2 C-6.6888271 -1.98035333 -4.06268971 -0.99310193 0 0 Z " fill="#DCCBE2" transform="translate(244,365)"/>
<path d="M0 0 C0.51949219 0.433125 1.03898437 0.86625 1.57421875 1.3125 C2.62029297 2.1478125 2.62029297 2.1478125 3.6875 3 C4.37199219 3.556875 5.05648437 4.11375 5.76171875 4.6875 C8.44765761 6.2625008 9.93300939 6.39638005 13 6 C16.16666667 4.16666667 16.16666667 4.16666667 18 1 C18.21381839 4.13600307 18.19750037 6.48649905 17.0625 9.4375 C14.06489233 11.7084149 11.7640895 11.0477589 8.15625 10.5546875 C6 10 6 10 3 8 C3 7.34 3 6.68 3 6 C2.34 6 1.68 6 1 6 C0.34 4.35 -0.32 2.7 -1 1 C-0.67 0.67 -0.34 0.34 0 0 Z " fill="#D71115" transform="translate(88,268)"/>
<path d="M0 0 C1.32 0 2.64 0 4 0 C5.32 3.63 6.64 7.26 8 11 C6.68 11 5.36 11 4 11 C4 10.34 4 9.68 4 9 C2.8553125 9.495 2.8553125 9.495 1.6875 10 C-1 11 -1 11 -4 11 C-3.5247412 9.35303396 -3.04468109 7.70745272 -2.5625 6.0625 C-2.29566406 5.14597656 -2.02882813 4.22945313 -1.75390625 3.28515625 C-1 1 -1 1 0 0 Z " fill="#DDC4DB" transform="translate(284,365)"/>
<path d="M0 0 C0.33 0 0.66 0 1 0 C1.33 8.91 1.66 17.82 2 27 C3.98 26.34 5.96 25.68 8 25 C8.66 25 9.32 25 10 25 C10 25.99 10 26.98 10 28 C10.66 28.66 11.32 29.32 12 30 C7.375 32.125 7.375 32.125 4 31 C4.33 30.67 4.66 30.34 5 30 C3.68 30 2.36 30 1 30 C1 32.97 1 35.94 1 39 C0.67 39 0.34 39 0 39 C0 26.13 0 13.26 0 0 Z " fill="#C8C4DA" transform="translate(395,177)"/>
<path d="M0 0 C2.00720923 0.28674418 4.0085944 0.61866701 6 1 C6 1.99 6 2.98 6 4 C4.68 4.33 3.36 4.66 2 5 C3.32 5.33 4.64 5.66 6 6 C6.33 7.32 6.66 8.64 7 10 C4 12 4 12 1.3125 11.625 C0.549375 11.41875 -0.21375 11.2125 -1 11 C-1.33 10.01 -1.66 9.02 -2 8 C-1.34 7.67 -0.68 7.34 0 7 C-0.66 6.34 -1.32 5.68 -2 5 C-1.46428571 1.46428571 -1.46428571 1.46428571 0 0 Z " fill="#DEC0D6" transform="translate(253,364)"/>
<path d="M0 0 C1.79356554 0.01168447 3.58693086 0.10920715 5.375 0.25 C6.35210937 0.31703125 7.32921875 0.3840625 8.3359375 0.453125 C11.25014861 1.05135015 12.26795962 1.6199173 14 4 C14 4.66 14 5.32 14 6 C9.05 6 4.1 6 -1 6 C-1 1 -1 1 0 0 Z " fill="#FDAA9B" transform="translate(261,152)"/>
<path d="M0 0 C1.08809212 0.03541649 1.08809212 0.03541649 2.19816589 0.07154846 C4.5008217 0.14773945 6.80310264 0.23195328 9.10546875 0.31640625 C10.67250808 0.36967166 12.23956536 0.42241171 13.80664062 0.47460938 C17.63565123 0.60329367 21.46434616 0.73917087 25.29296875 0.87890625 C25.78796875 1.86890625 25.78796875 1.86890625 26.29296875 2.87890625 C21.86385469 2.90377387 17.4347785 2.92184514 13.00561523 2.93383789 C11.50137625 2.9388418 9.99714207 2.94564698 8.49291992 2.9543457 C6.32078866 2.96658509 4.14872216 2.97217411 1.9765625 2.9765625 C0.67259521 2.98179932 -0.63137207 2.98703613 -1.97485352 2.99243164 C-5.65904158 2.880366 -9.07674591 2.47265411 -12.70703125 1.87890625 C-12.70703125 1.54890625 -12.70703125 1.21890625 -12.70703125 0.87890625 C-8.43270081 -0.19601004 -4.36844254 -0.16967863 0 0 Z " fill="#F42522" transform="translate(94.70703125,372.12109375)"/>
<path d="M0 0 C2.31 0 4.62 0 7 0 C8.125 4.75 8.125 4.75 7 7 C7.39938767 9.09821215 7.39938767 9.09821215 8 11 C7.01 11 6.02 11 5 11 C4.67 9.68 4.34 8.36 4 7 C3.34 7 2.68 7 2 7 C2 7.99 2 8.98 2 10 C1.34 10 0.68 10 0 10 C0 6.7 0 3.4 0 0 Z " fill="#DCCCE3" transform="translate(271,365)"/>
<path d="M0 0 C1.423125 1.36125 1.423125 1.36125 2.875 2.75 C10.270564 9.04882705 19.7286058 10.89720956 29 13 C29 13.66 29 14.32 29 15 C18.23530979 14.53298524 9.46321467 11.97191059 1.36328125 4.68359375 C0 3 0 3 0 0 Z " fill="#EE9E92" transform="translate(49,401)"/>
<path d="M0 0 C0.625 2.3125 0.625 2.3125 1 5 C0.01 6.485 0.01 6.485 -1 8 C-3.5 8.375 -3.5 8.375 -6 8 C-8 5 -8 5 -7.75 2.375 C-7.5025 1.59125 -7.255 0.8075 -7 0 C-4.3333581 -1.33332095 -2.83319697 -0.67102033 0 0 Z " fill="#2C2E57" transform="translate(138,315)"/>
<path d="M0 0 C0.66 0 1.32 0 2 0 C0.89392144 8.71919377 -0.31359307 17.37061984 -2 26 C-2.66 26 -3.32 26 -4 26 C-2.8258427 2.8258427 -2.8258427 2.8258427 0 0 Z " fill="#27234E" transform="translate(107,297)"/>
<path d="M0 0 C2.64 0 5.28 0 8 0 C8 1.98 8 3.96 8 6 C5.36 6 2.72 6 0 6 C0 4.02 0 2.04 0 0 Z " fill="#F1BDBB" transform="translate(269,225)"/>
<path d="M0 0 C2.5625 0.1875 2.5625 0.1875 4.5625 2.1875 C4.02678571 5.72321429 4.02678571 5.72321429 2.5625 7.1875 C0.0625 7.3125 0.0625 7.3125 -2.4375 7.1875 C-3.4375 6.1875 -3.4375 6.1875 -3.5625 3.6875 C-3.39599509 0.35740177 -3.31519894 0.2550153 0 0 Z " fill="#DCDFF6" transform="translate(194.4375,172.8125)"/>
<path d="M0 0 C2.5625 0.1875 2.5625 0.1875 4.5625 2.1875 C4.02678571 5.72321429 4.02678571 5.72321429 2.5625 7.1875 C0.0625 7.3125 0.0625 7.3125 -2.4375 7.1875 C-3.4375 6.1875 -3.4375 6.1875 -3.5625 3.6875 C-3.39599509 0.35740177 -3.31519894 0.2550153 0 0 Z " fill="#DCDFF6" transform="translate(167.4375,172.8125)"/>
<path d="M0 0 C0 1.65 0 3.3 0 5 C-3.3 5 -6.6 5 -10 5 C-9.625 2.5625 -9.625 2.5625 -9 0 C-5.93109813 -1.53445094 -3.29905734 -0.54984289 0 0 Z " fill="#7F5E70" transform="translate(245,311)"/>
<path d="M0 0 C2.97 0 5.94 0 9 0 C9 0.66 9 1.32 9 2 C8.01 2 7.02 2 6 2 C6 4.97 6 7.94 6 11 C5.01 11 4.02 11 3 11 C3 8.03 3 5.06 3 2 C2.01 2 1.02 2 0 2 C0 1.34 0 0.68 0 0 Z " fill="#DADCF5" transform="translate(292,365)"/>
<path d="M0 0 C4.95 0 9.9 0 15 0 C14.67 1.32 14.34 2.64 14 4 C9.05 4 4.1 4 -1 4 C-0.67 2.68 -0.34 1.36 0 0 Z " fill="#D41016" transform="translate(62,295)"/>
<path d="M0 0 C2.5 0.125 2.5 0.125 3.5 1.125 C3.625 3.625 3.625 3.625 3.5 6.125 C2.5 7.125 2.5 7.125 0 7.25 C-2.5 7.125 -2.5 7.125 -3.5 6.125 C-3.625 3.625 -3.625 3.625 -3.5 1.125 C-2.5 0.125 -2.5 0.125 0 0 Z " fill="#DBE1FA" transform="translate(181.5,172.875)"/>
<path d="M0 0 C1.98 0 3.96 0 6 0 C6 0.66 6 1.32 6 2 C4.68 2 3.36 2 2 2 C2 2.66 2 3.32 2 4 C3.32 4 4.64 4 6 4 C6 4.66 6 5.32 6 6 C4.68 6 3.36 6 2 6 C2 6.66 2 7.32 2 8 C3.32 8 4.64 8 6 8 C6 8.66 6 9.32 6 10 C4.02 10 2.04 10 0 10 C0 6.7 0 3.4 0 0 Z " fill="#DADFF9" transform="translate(227,365)"/>
<path d="M0 0 C2.125 0.375 2.125 0.375 4 1 C4.38218767 2.65614657 4.71395102 4.32457024 5 6 C4 7 4 7 1.4375 7.0625 C0.2309375 7.0315625 0.2309375 7.0315625 -1 7 C-1.625 4.625 -1.625 4.625 -2 2 C-1.34 1.34 -0.68 0.68 0 0 Z " fill="#F32424" transform="translate(424,311)"/>
<path d="M0 0 C1.32 0 2.64 0 4 0 C4 3.3 4 6.6 4 10 C2.68 10 1.36 10 0 10 C0 6.7 0 3.4 0 0 Z " fill="#DAE3FD" transform="translate(271,233)"/>
<path d="M0 0 C0.99 0 1.98 0 3 0 C3 3.96 3 7.92 3 12 C2.01 12 1.02 12 0 12 C0 8.04 0 4.08 0 0 Z " fill="#DDC9E0" transform="translate(247,364)"/>
<path d="M0 0 C0.42410156 0.39832031 0.84820312 0.79664063 1.28515625 1.20703125 C5.32767445 4.85862461 8.88650302 7.12157254 14 9 C14 9.99 14 10.98 14 12 C8.18366895 10.69132551 3.88893096 7.43180204 0 3 C0 2.01 0 1.02 0 0 Z " fill="#E1978E" transform="translate(49,401)"/>
<path d="M0 0 C1.32 0 2.64 0 4 0 C4 0.99 4 1.98 4 3 C4.66 3.33 5.32 3.66 6 4 C6 2.68 6 1.36 6 0 C7.32 0.33 8.64 0.66 10 1 C10 2.32 10 3.64 10 5 C6.7 5 3.4 5 0 5 C0 3.35 0 1.7 0 0 Z " fill="#3E385C" transform="translate(316,311)"/>
<path d="M0 0 C0.99 0 1.98 0 3 0 C3 3.63 3 7.26 3 11 C2.01 11 1.02 11 0 11 C0 7.37 0 3.74 0 0 Z " fill="#DADFF8" transform="translate(302,365)"/>
<path d="M0 0 C0.99 0 1.98 0 3 0 C3.33 1.65 3.66 3.3 4 5 C-2.625 5.25 -2.625 5.25 -6 3 C-5.67 2.34 -5.34 1.68 -5 1 C-4.34 1 -3.68 1 -3 1 C-2.34 1.66 -1.68 2.32 -1 3 C-0.67 2.01 -0.34 1.02 0 0 Z " fill="#40395D" transform="translate(311,311)"/>
<path d="M0 0 C0.99 0 1.98 0 3 0 C3 1.32 3 2.64 3 4 C-3.625 5.125 -3.625 5.125 -7 4 C-6.34 3.01 -5.68 2.02 -5 1 C-4.34 1 -3.68 1 -3 1 C-2.34 1.66 -1.68 2.32 -1 3 C-0.67 2.01 -0.34 1.02 0 0 Z " fill="#413A5D" transform="translate(219,311)"/>
<path d="M0 0 C0.99 0.33 1.98 0.66 3 1 C2.67 3.31 2.34 5.62 2 8 C-0.475 7.01 -0.475 7.01 -3 6 C-2.01 4.02 -1.02 2.04 0 0 Z " fill="#EAA69D" transform="translate(161,340)"/>
<path d="M0 0 C1.32 0.33 2.64 0.66 4 1 C4 2.32 4 3.64 4 5 C1.69 5 -0.62 5 -3 5 C-3.33 4.34 -3.66 3.68 -4 3 C-3.34 2.34 -2.68 1.68 -2 1 C-2 1.99 -2 2.98 -2 4 C-1.34 4 -0.68 4 0 4 C0 2.68 0 1.36 0 0 Z " fill="#4A3F60" transform="translate(230,311)"/>
<path d="M0 0 C-0.99 1.485 -0.99 1.485 -2 3 C-5.625 3.6875 -5.625 3.6875 -9 4 C-8 1 -8 1 -5.625 -0.25 C-3 -1 -3 -1 0 0 Z " fill="#292B56" transform="translate(388,218)"/>
<path d="M0 0 C2.64 0.99 5.28 1.98 8 3 C8 3.99 8 4.98 8 6 C6.88625 5.5359375 6.88625 5.5359375 5.75 5.0625 C3.49307824 4.1905075 1.3549847 3.52332993 -1 3 C-0.67 2.01 -0.34 1.02 0 0 Z " fill="#E4D3E1" transform="translate(241,143)"/>
<path d="M0 0 C0.48210938 0.42152344 0.96421875 0.84304688 1.4609375 1.27734375 C2.09257813 1.82519531 2.72421875 2.37304688 3.375 2.9375 C4.00148438 3.48277344 4.62796875 4.02804687 5.2734375 4.58984375 C6.95632334 6.06958624 6.95632334 6.06958624 9 7 C8.67 7.99 8.34 8.98 8 10 C2.25 6.375 2.25 6.375 0 3 C0 2.01 0 1.02 0 0 Z " fill="#C98986" transform="translate(49,387)"/>
<path d="M0 0 C0.99 0 1.98 0 3 0 C2.34 1.32 1.68 2.64 1 4 C1.99 4 2.98 4 4 4 C4.33 5.32 4.66 6.64 5 8 C4.01 8.495 4.01 8.495 3 9 C0.9375 6.1875 0.9375 6.1875 -1 3 C-0.67 2.01 -0.34 1.02 0 0 Z " fill="#BF7F60" transform="translate(87,244)"/>
<path d="M0 0 C0 1.98 0 3.96 0 6 C-1.65 6 -3.3 6 -5 6 C-5 5.34 -5 4.68 -5 4 C-4.34 3.67 -3.68 3.34 -3 3 C-3.66 2.34 -4.32 1.68 -5 1 C-2 0 -2 0 0 0 Z " fill="#A5705D" transform="translate(113,244)"/>
<path d="M0 0 C2.97 0.495 2.97 0.495 6 1 C6.33 2.32 6.66 3.64 7 5 C4.69 4.34 2.38 3.68 0 3 C0 2.01 0 1.02 0 0 Z " fill="#E3D4E3" transform="translate(250,147)"/>
<path d="M0 0 C0.99 0.33 1.98 0.66 3 1 C2.67 2.65 2.34 4.3 2 6 C1.01 5.67 0.02 5.34 -1 5 C-0.67 3.35 -0.34 1.7 0 0 Z " fill="#F21516" transform="translate(311,367)"/>
<path d="M0 0 C-0.66 1.32 -1.32 2.64 -2 4 C-2.66 3.67 -3.32 3.34 -4 3 C-4 2.34 -4 1.68 -4 1 C-4.66 1 -5.32 1 -6 1 C-6.33 1.66 -6.66 2.32 -7 3 C-7 2.01 -7 1.02 -7 0 C-3.86650268 -1.04449911 -3.01031744 -0.93423645 0 0 Z " fill="#A4737B" transform="translate(312,311)"/>
<path d="M0 0 C-0.66 1.32 -1.32 2.64 -2 4 C-2.66 3.67 -3.32 3.34 -4 3 C-4 2.34 -4 1.68 -4 1 C-4.66 1 -5.32 1 -6 1 C-6.33 1.66 -6.66 2.32 -7 3 C-7 2.01 -7 1.02 -7 0 C-3.86650268 -1.04449911 -3.01031744 -0.93423645 0 0 Z " fill="#A4737B" transform="translate(220,311)"/>
<path d="M0 0 C0.98120464 3.05263664 0.98120464 4.94736336 0 8 C-0.99 8 -1.98 8 -3 8 C-2.45276317 4.62537285 -1.9451 2.91765 0 0 Z " fill="#4F3354" transform="translate(107,304)"/>
<path d="M0 0 C2.97 0.99 5.94 1.98 9 3 C9 3.33 9 3.66 9 4 C3.375 4.25 3.375 4.25 0 2 C0 1.34 0 0.68 0 0 Z " fill="#E69A8F" transform="translate(58,395)"/>
<path d="M0 0 C2.97 0.495 2.97 0.495 6 1 C6 1.33 6 1.66 6 2 C4.35 2 2.7 2 1 2 C1 2.99 1 3.98 1 5 C1.66 5.33 2.32 5.66 3 6 C1.68 5.67 0.36 5.34 -1 5 C-0.67 3.35 -0.34 1.7 0 0 Z " fill="#EF2D31" transform="translate(239,367)"/>
<path d="M0 0 C1.65 0 3.3 0 5 0 C5.33 0.99 5.66 1.98 6 3 C3.69 3 1.38 3 -1 3 C-0.67 2.01 -0.34 1.02 0 0 Z " fill="#DBD6EE" transform="translate(239,365)"/>
<path d="M0 0 C2.31 0 4.62 0 7 0 C6 2 6 2 2.9375 3.125 C1.968125 3.41375 0.99875 3.7025 0 4 C0 2.68 0 1.36 0 0 Z " fill="#D70E14" transform="translate(78,336)"/>
<path d="M0 0 C1.32 0 2.64 0 4 0 C4.33 1.65 4.66 3.3 5 5 C3.35 5 1.7 5 0 5 C0 3.35 0 1.7 0 0 Z " fill="#40395D" transform="translate(333,311)"/>
<path d="M0 0 C0.99 0 1.98 0 3 0 C3.33 1.65 3.66 3.3 4 5 C2.35 5 0.7 5 -1 5 C-0.67 3.35 -0.34 1.7 0 0 Z " fill="#3F395C" transform="translate(328,311)"/>
<path d="M0 0 C0.99 0 1.98 0 3 0 C3.33 1.65 3.66 3.3 4 5 C2.35 5 0.7 5 -1 5 C-0.67 3.35 -0.34 1.7 0 0 Z " fill="#3F395C" transform="translate(236,311)"/>
</svg>