<svg xmlns="http://www.w3.org/2000/svg" version="1.1" viewBox="40.76 41.59 426.63 440.41">
<path d="M0 0 C1.82341502 -0.01173486 1.82341502 -0.01173486 3.68366671 -0.02370679 C5.02930871 -0.01722089 6.37494938 -0.01045093 7.72058868 -0.00342751 C9.15264985 -0.00688422 10.58470836 -0.01164888 12.0167613 -0.01760924 C15.95222993 -0.03014712 19.88748066 -0.02393625 23.82295012 -0.01465058 C28.06704809 -0.00787182 32.31110819 -0.01833549 36.55519867 -0.02659035 C44.86947691 -0.03994242 53.18367399 -0.03704339 61.49795544 -0.02835242 C68.25409368 -0.02158208 75.01020914 -0.02065634 81.76634979 -0.02392387 C82.72727908 -0.02438357 83.68820836 -0.02484327 84.67825672 -0.0253169 C86.6302594 -0.02627606 88.58226208 -0.0272487 90.53426474 -0.02823468 C108.84571648 -0.03679289 127.15712319 -0.02694767 145.46856755 -0.01083358 C161.18658966 0.00256999 176.90454531 0.00024202 192.62256622 -0.01358986 C210.86771314 -0.02963806 229.11282058 -0.03596887 247.35797358 -0.02675307 C249.30286566 -0.0257974 251.24775775 -0.02485429 253.19264984 -0.02392387 C254.62810149 -0.02322963 254.62810149 -0.02322963 256.09255216 -0.02252137 C262.84194127 -0.0199292 269.59130537 -0.02430737 276.34069061 -0.03136253 C284.5639845 -0.03976929 292.78719245 -0.03751478 301.01047647 -0.0215203 C305.20753102 -0.01362646 309.4044422 -0.01056489 313.60149574 -0.02046776 C317.44190278 -0.0293922 321.28203326 -0.0245192 325.12241513 -0.0085351 C326.51332515 -0.00517772 327.90425843 -0.00690283 329.29515356 -0.01416247 C331.18308622 -0.02326217 333.07108414 -0.01214997 334.95899963 0 C336.00849431 0.00048706 337.05798898 0.00097411 338.13928652 0.00147593 C341.48049978 0.44385639 343.31333583 1.33063415 345.97949982 3.37752342 C347.8024845 6.09406333 348.22995305 8.22657786 348.23397541 11.46336079 C348.2398076 12.27290586 348.2456398 13.08245094 348.25164872 13.91652769 C348.2478694 14.80027478 348.24409008 15.68402187 348.24019623 16.59454918 C348.24402178 17.53773964 348.24784732 18.48093011 348.25178879 19.45270211 C348.26212793 22.62097683 348.25812489 25.78907064 348.25415802 28.95735741 C348.25850397 31.22566967 348.26368673 33.49398045 348.26964569 35.76228905 C348.28305918 41.92956308 348.28361176 48.09677591 348.28108239 54.26406169 C348.28001431 59.40842563 348.28489184 64.5527771 348.28968781 69.69713837 C348.30142629 82.52513075 348.30055326 95.35307908 348.294131 108.18107206 C348.2889614 119.32253319 348.30021794 130.46390689 348.31922922 141.60535073 C348.33859913 153.04462969 348.34657356 164.48385116 348.34310597 175.92314965 C348.34129026 182.34575613 348.34395803 188.76828254 348.35782051 195.19087601 C348.37036596 201.22945176 348.36848584 207.26785213 348.35540962 213.30642509 C348.35303716 215.52482029 348.35580236 217.74322769 348.36403275 219.96160889 C348.37444512 222.98578269 348.36644372 226.00936199 348.35372162 229.03351402 C348.3610959 229.91503039 348.36847019 230.79654676 348.37606794 231.70477575 C348.33456051 236.38252157 348.13144097 239.65166419 344.97949982 243.37752342 C341.72900821 245.4362349 339.1582369 245.62651789 335.34919357 245.62361908 C334.19519223 245.62760118 333.0411909 245.63158327 331.85221982 245.63568604 C329.94951388 245.62694752 329.94951388 245.62694752 328.00836945 245.61803246 C326.64785709 245.61890444 325.28734506 245.6206553 323.92683482 245.62321079 C320.18471155 245.62768966 316.44270243 245.61967326 312.70059371 245.60965466 C308.66654317 245.60103022 304.63249924 245.60393961 300.59844208 245.60545921 C293.60798615 245.6065087 286.61756752 245.60022542 279.62712097 245.58898354 C269.52007226 245.57274016 259.4130416 245.56752172 249.30598125 245.56500755 C232.90856966 245.56062862 216.51117795 245.54731415 200.11377716 245.52840233 C184.18376515 245.51004865 168.25375854 245.49588964 152.3237381 245.4873867 C150.85123212 245.48659853 150.85123212 245.48659853 149.34897855 245.48579444 C144.42430168 245.48318439 139.49962477 245.48065697 134.57494783 245.47817063 C93.70978466 245.45743197 52.84464338 245.42220105 11.97949982 245.37752342 C12.33391144 246.05154198 12.68832306 246.72556053 13.05347443 247.42000389 C13.51246124 248.31090721 13.97144806 249.20181053 14.44434357 250.11971092 C14.90188019 250.99997948 15.35941681 251.88024803 15.83081818 252.78719139 C17.59760697 256.77138462 17.60927782 259.03905275 16.97949982 263.37752342 C16.01581868 265.48010046 14.92850363 267.48148087 13.81934357 269.51033592 C12.47528854 272.49851408 12.95954465 274.31765793 13.97949982 277.37752342 C14.68075097 278.65227842 15.38967334 279.92283102 16.10449982 281.19002342 C18.09981357 285.04860811 18.4041243 287.84748929 17.75293732 292.12361717 C16.84756381 294.76200362 15.53147341 296.26163135 13.72949982 298.37752342 C11.32570997 301.59017146 10.79422021 303.65463053 11.25293732 307.54939842 C11.75498298 310.5590912 12.41082249 313.51811747 13.11231232 316.48689842 C13.81767143 319.65148256 14.16880966 322.17187672 13.97949982 325.37752342 C12.65949982 325.70752342 11.33949982 326.03752342 9.97949982 326.37752342 C10.30949982 329.01752342 10.63949982 331.65752342 10.97949982 334.37752342 C12.158992 334.25635155 13.33848419 334.13517967 14.55371857 334.01033592 C56.73644344 329.77929369 56.73644344 329.77929369 75.97949982 330.37752342 C76.13761691 336.41326428 75.5707252 342.00810298 74.55371857 347.95174217 C74.40546127 348.83860207 74.25720398 349.72546196 74.10445404 350.6391964 C73.79087655 352.50119408 73.47386326 354.36261611 73.15357208 356.22347069 C72.66697263 359.06518217 72.19870253 361.90952745 71.73145294 364.75447655 C71.42331594 366.57042008 71.1141079 368.38618226 70.80371857 370.20174217 C70.66608597 371.04766426 70.52845337 371.89358635 70.38665009 372.76514244 C69.59977177 377.23412536 68.68651291 380.61478952 65.97949982 384.37752342 C84.40685952 392.10367063 100.51478873 394.84805415 120.31934357 395.22322655 C122.97949982 395.37752342 122.97949982 395.37752342 124.97949982 396.37752342 C125.27082794 395.88123436 125.56215607 395.3849453 125.86231232 394.87361717 C128.0096642 391.31495541 130.15933418 388.0637913 132.97949982 385.00252342 C135.39484784 382.30374171 136.93597888 379.65255823 138.47949982 376.37752342 C141.07662991 370.92521505 143.89741463 365.66769862 149.66699982 363.25252342 C151.97949982 363.37752342 151.97949982 363.37752342 153.72949982 364.62752342 C156.51546547 368.52787534 156.29663614 372.95942647 156.54199982 377.56502342 C156.60677521 378.68940819 156.60677521 378.68940819 156.67285919 379.8365078 C156.77872667 381.68330717 156.87959741 383.53039177 156.97949982 385.37752342 C158.95949982 385.04752342 160.93949982 384.71752342 162.97949982 384.37752342 C166.27246266 389.31696769 165.53309079 394.56430938 164.412117 400.2608242 C163.62880878 403.34478285 162.76338284 406.39074565 161.85449982 409.44002342 C161.53972687 410.52605858 161.22495392 411.61209373 160.9006424 412.73103905 C158.96216164 419.32606124 156.91335996 425.8806975 154.66699982 432.37752342 C154.42513947 433.08272118 154.18327911 433.78791893 153.93408966 434.51448631 C152.22912115 439.25271276 152.22912115 439.25271276 149.97949982 440.37752342 C142.82091845 439.3723158 136.10830229 437.82249375 129.78028107 434.29939842 C125.04757786 431.8765829 120.14668308 430.75355154 114.97949982 432.37752342 C113.98949982 432.70752342 112.99949982 433.03752342 111.97949982 433.37752342 C109.85945022 432.944137 107.75956631 432.41050607 105.67481232 431.83064842 C86.72201263 426.84417377 68.2472219 424.37003896 48.66699982 423.37752342 C47.5610849 423.32003929 46.45516998 423.26255516 45.31574249 423.20332909 C37.87234477 422.83086239 30.42976896 422.56456954 22.97949982 422.37752342 C21.93617493 422.34983879 20.89285004 422.32215416 19.81790924 422.2936306 C3.71969589 421.90047473 3.71969589 421.90047473 -11.95800018 425.19002342 C-13.86434216 425.74627086 -15.77190795 426.29834077 -17.68065643 426.84627342 C-18.58316132 427.1118203 -19.4856662 427.37736717 -20.41551971 427.65096092 C-34.61462759 431.61127442 -55.41897009 436.6640574 -69.02050018 429.37752342 C-76.497255 422.39921892 -77.59321855 413.19243399 -78.02050018 403.37752342 C-78.08495331 402.27795311 -78.14940643 401.1783828 -78.21581268 400.04549217 C-78.61840729 387.65899818 -75.97463688 375.88341775 -72.87987518 363.94783592 C-72.02812459 360.40919935 -71.74870971 358.73868395 -73.02050018 355.37752342 C-74.33371876 353.69496212 -75.66663083 352.0275517 -77.02050018 350.37752342 C-78.30422174 346.88424475 -77.9947027 343.67402725 -77.70800018 340.00252342 C-77.62936737 338.90166405 -77.55073456 337.80080467 -77.46971893 336.66658592 C-77.01850301 333.36290062 -76.17539497 330.49809626 -75.02050018 327.37752342 C-76.50550018 325.89252342 -76.50550018 325.89252342 -78.02050018 324.37752342 C-76.26848076 320.39046015 -74.50832428 316.40711624 -72.74095917 312.42683983 C-72.14242584 311.07591519 -71.5460202 309.72404558 -70.95189667 308.37117577 C-63.0652637 290.42228694 -63.0652637 290.42228694 -58.02050018 285.37752342 C-58.53612518 284.59377342 -59.05175018 283.81002342 -59.58300018 283.00252342 C-61.50530006 278.15498461 -61.22792696 274.40436144 -60.02050018 269.37752342 C-58.13772127 265.88093401 -56.10574919 263.46475497 -53.33300018 260.62752342 C-50.55474325 256.72294611 -50.57731908 254.2931825 -50.30565643 249.64705467 C-50.02050018 247.37752342 -50.02050018 247.37752342 -48.39550018 244.94002342 C-46.02050018 243.37752342 -46.02050018 243.37752342 -42.52050018 242.50252342 C-40.59301889 241.8944127 -40.59301889 241.8944127 -39.02050018 240.37752342 C-37.6818137 236.92833447 -36.82627078 233.53409468 -36.04003143 229.92049217 C-34.15710711 223.37714979 -30.90435923 219.67248449 -25.02050018 216.37752342 C-20.81812698 214.62653459 -17.53676879 214.30225228 -13.02050018 214.37752342 C-13.02234377 213.32046353 -13.02418736 212.26340364 -13.02608681 211.17431164 C-13.07045997 185.46934619 -13.10333938 159.76438571 -13.12412453 134.05939007 C-13.13444288 121.62871821 -13.14851392 109.19807163 -13.17137909 96.767416 C-13.19129581 85.93452872 -13.20421255 75.10165974 -13.20867717 64.26875466 C-13.21128746 58.53132466 -13.21743443 52.79394705 -13.2319603 47.05653381 C-13.24551705 41.65825606 -13.24972667 36.26005235 -13.24671555 30.86175919 C-13.24726656 28.87879726 -13.25125532 26.89583289 -13.25891113 24.91288567 C-13.26884248 22.20828323 -13.26647564 19.5039614 -13.26100922 16.79935265 C-13.2668349 16.0123815 -13.27266058 15.22541036 -13.2786628 14.41459161 C-13.25626283 10.32208613 -13.15318934 6.92984993 -11.02050018 3.37752342 C-7.26189059 0.63039015 -4.61791615 0.00214312 0 0 Z M-6.02050018 342.37752342 C-6.22770133 351.43123227 -6.22770133 351.43123227 -5.02050018 360.37752342 C-1.9150939 357.27211714 -2.05528929 353.64962525 -2.02050018 349.37752342 C-2.46847674 346.88876479 -3.15583359 344.76807224 -4.02050018 342.37752342 C-4.68050018 342.37752342 -5.34050018 342.37752342 -6.02050018 342.37752342 Z " fill="#FEA796" transform="translate(119.02050018310547,41.62247657775879)"/>
<path d="M0 0 C3.32088274 2.05601711 5.83982644 4.18185729 7.65625 7.64453125 C8.25103002 10.74018884 8.20867937 13.75094043 8.15625 16.89453125 C8.25064662 23.82113091 8.95565041 28.53607641 12.5625 34.5859375 C14.48311062 38.20080105 14.243721 40.59750882 13.65625 44.64453125 C12.69256886 46.74710828 11.60525381 48.7484887 10.49609375 50.77734375 C9.15203872 53.76552191 9.63629483 55.58466575 10.65625 58.64453125 C11.35750115 59.91928625 12.06642352 61.18983885 12.78125 62.45703125 C14.77656376 66.31561594 15.08087449 69.11449712 14.4296875 73.390625 C13.52431399 76.02901144 12.2082236 77.52863918 10.40625 79.64453125 C8.00246016 82.85717929 7.47097039 84.92163836 7.9296875 88.81640625 C8.43173317 91.82609903 9.08757267 94.7851253 9.7890625 97.75390625 C10.49442162 100.91849039 10.84555984 103.43888455 10.65625 106.64453125 C9.33625 106.97453125 8.01625 107.30453125 6.65625 107.64453125 C7.15125 111.60453125 7.15125 111.60453125 7.65625 115.64453125 C8.83574219 115.52335937 10.01523438 115.4021875 11.23046875 115.27734375 C53.41319362 111.04630152 53.41319362 111.04630152 72.65625 111.64453125 C72.81436709 117.68027211 72.24747538 123.2751108 71.23046875 129.21875 C71.08221146 130.10560989 70.93395416 130.99246979 70.78120422 131.90620422 C70.46762674 133.76820191 70.15061344 135.62962393 69.83032227 137.49047852 C69.34372282 140.33218999 68.87545272 143.17653528 68.40820312 146.02148438 C68.10006612 147.83742791 67.79085808 149.65319009 67.48046875 151.46875 C67.34283615 152.31467209 67.20520355 153.16059418 67.06340027 154.03215027 C66.27652195 158.50113319 65.3632631 161.88179735 62.65625 165.64453125 C81.08360971 173.37067846 97.19153891 176.11506198 116.99609375 176.49023438 C119.65625 176.64453125 119.65625 176.64453125 121.65625 177.64453125 C121.94757813 177.14824219 122.23890625 176.65195312 122.5390625 176.140625 C124.68641438 172.58196324 126.83608437 169.33079913 129.65625 166.26953125 C132.07159802 163.57074953 133.61272906 160.91956606 135.15625 157.64453125 C137.75338009 152.19222288 140.57416481 146.93470645 146.34375 144.51953125 C148.65625 144.64453125 148.65625 144.64453125 150.40625 145.89453125 C153.19221566 149.79488317 152.97338632 154.2264343 153.21875 158.83203125 C153.26193359 159.58162109 153.30511719 160.33121094 153.34960938 161.10351562 C153.45547685 162.950315 153.5563476 164.79739959 153.65625 166.64453125 C155.63625 166.31453125 157.61625 165.98453125 159.65625 165.64453125 C162.94921285 170.58397552 162.20984098 175.83131721 161.08886719 181.52783203 C160.30555896 184.61179068 159.44013303 187.65775347 158.53125 190.70703125 C158.21647705 191.79306641 157.9017041 192.87910156 157.57739258 193.99804688 C155.63891182 200.59306907 153.59011015 207.14770533 151.34375 213.64453125 C151.10188965 214.349729 150.8600293 215.05492676 150.61083984 215.78149414 C148.90587133 220.51972058 148.90587133 220.51972058 146.65625 221.64453125 C139.49766863 220.63932363 132.78505248 219.08950158 126.45703125 215.56640625 C121.72432804 213.14359072 116.82343326 212.02055937 111.65625 213.64453125 C110.66625 213.97453125 109.67625 214.30453125 108.65625 214.64453125 C106.5362004 214.21114483 104.43631649 213.67751389 102.3515625 213.09765625 C83.39876282 208.11118159 64.92397208 205.63704679 45.34375 204.64453125 C44.23783508 204.58704712 43.13192017 204.52956299 41.99249268 204.47033691 C34.54909496 204.09787021 27.10651914 203.83157736 19.65625 203.64453125 C18.61292511 203.61684662 17.56960022 203.58916199 16.49465942 203.56063843 C0.39644607 203.16748255 0.39644607 203.16748255 -15.28125 206.45703125 C-17.18759198 207.01327868 -19.09515777 207.5653486 -21.00390625 208.11328125 C-21.90641113 208.37882813 -22.80891602 208.644375 -23.73876953 208.91796875 C-37.9378774 212.87828225 -58.74221991 217.93106523 -72.34375 210.64453125 C-79.82050482 203.66622675 -80.91646836 194.45944182 -81.34375 184.64453125 C-81.40820312 183.54496094 -81.47265625 182.44539062 -81.5390625 181.3125 C-81.9416571 168.92600601 -79.2978867 157.15042557 -76.203125 145.21484375 C-75.3513744 141.67620717 -75.07195953 140.00569178 -76.34375 136.64453125 C-77.65696858 134.96196995 -78.98988064 133.29455953 -80.34375 131.64453125 C-81.62747156 128.15125258 -81.31795251 124.94103508 -81.03125 121.26953125 C-80.95261719 120.16867187 -80.87398437 119.0678125 -80.79296875 117.93359375 C-80.34175282 114.62990845 -79.49864478 111.76510409 -78.34375 108.64453125 C-79.33375 107.65453125 -80.32375 106.66453125 -81.34375 105.64453125 C-79.59173057 101.65746798 -77.83157409 97.67412407 -76.06420898 93.69384766 C-75.46567566 92.34292302 -74.86927001 90.99105341 -74.27514648 89.63818359 C-66.38851351 71.68929476 -66.38851351 71.68929476 -61.34375 66.64453125 C-61.859375 65.86078125 -62.375 65.07703125 -62.90625 64.26953125 C-64.82854987 59.42199244 -64.55117678 55.67136926 -63.34375 50.64453125 C-61.46097109 47.14794184 -59.42899901 44.73176279 -56.65625 41.89453125 C-53.87799307 37.98995394 -53.9005689 35.56019033 -53.62890625 30.9140625 C-53.34375 28.64453125 -53.34375 28.64453125 -51.71875 26.20703125 C-49.34375 24.64453125 -49.34375 24.64453125 -45.84375 23.76953125 C-43.91626871 23.16142053 -43.91626871 23.16142053 -42.34375 21.64453125 C-41.00506352 18.1953423 -40.14952059 14.8011025 -39.36328125 11.1875 C-37.48035693 4.64415762 -34.22760905 0.93949232 -28.34375 -2.35546875 C-18.66555154 -6.18642231 -9.33036835 -3.83211557 0 0 Z M-9.34375 123.64453125 C-9.55095114 132.6982401 -9.55095114 132.6982401 -8.34375 141.64453125 C-5.23834372 138.53912497 -5.3785391 134.91663308 -5.34375 130.64453125 C-5.79172655 128.15577262 -6.47908341 126.03508006 -7.34375 123.64453125 C-8.00375 123.64453125 -8.66375 123.64453125 -9.34375 123.64453125 Z " fill="#ED0C0C" transform="translate(122.34375,260.35546875)"/>
<path d="M0 0 C3.59483799 1.64655649 6.68379387 3.82631652 9.9375 6.0625 C19.76428558 12.58563676 30.78475682 16.87968312 41.77294922 21.05322266 C42.6651416 21.39530762 43.55733398 21.73739258 44.4765625 22.08984375 C45.28174316 22.39140381 46.08692383 22.69296387 46.91650391 23.00366211 C49.8097722 24.38723698 51.34736583 26.29568954 53 29 C44.64736824 29.95458649 36.40215965 30.11039334 28 30 C31.53209334 33.86655104 31.53209334 33.86655104 36.390625 35.1328125 C37.33421875 35.13023437 38.2778125 35.12765625 39.25 35.125 C40.64992188 35.12886719 40.64992188 35.12886719 42.078125 35.1328125 C44.99446817 35.06068288 44.99446817 35.06068288 47.81176758 34.51855469 C50.87072676 34.02102583 53.84121354 33.7523478 56.93359375 33.5703125 C58.11751709 33.49868896 59.30144043 33.42706543 60.52124023 33.35327148 C61.81360596 33.27794189 63.10597168 33.2026123 64.4375 33.125 C65.81260675 33.04216822 67.18768747 32.95890319 68.56274414 32.87524414 C70.82019777 32.73790982 73.07766202 32.60078637 75.33518982 32.4646759 C85.15245521 31.87263825 94.96825958 31.25756061 104.78372192 30.63641357 C107.89468488 30.44020041 111.0058076 30.24667369 114.11694336 30.05322266 C116.06625278 29.93016009 118.01555332 29.8069567 119.96484375 29.68359375 C121.28506531 29.60242058 121.28506531 29.60242058 122.63195801 29.51960754 C126.72116907 29.25807395 130.75128903 28.90912634 134.81225586 28.35839844 C138.33366418 27.95283762 140.72868704 28.15674044 144.0390625 29.58203125 C144.9347998 29.93644287 145.83053711 30.29085449 146.75341797 30.65600586 C147.70104004 31.03764893 148.64866211 31.41929199 149.625 31.8125 C163.35625766 36.93127233 176.81398655 37.47709645 191.30810547 37.82983398 C194 38 194 38 196 39 C196.29132813 38.50371094 196.58265625 38.00742187 196.8828125 37.49609375 C199.03016438 33.93743199 201.17983437 30.68626788 204 27.625 C206.41534802 24.92621828 207.95647906 22.27503481 209.5 19 C212.09713009 13.54769163 214.91791481 8.2901752 220.6875 5.875 C223 6 223 6 224.75 7.25 C227.53596566 11.15035192 227.31713632 15.58190305 227.5625 20.1875 C227.62727539 21.31188477 227.62727539 21.31188477 227.69335938 22.45898438 C227.79922685 24.30578375 227.9000976 26.15286834 228 28 C230.97 27.505 230.97 27.505 234 27 C237.29296285 31.93944427 236.55359098 37.18678596 235.43261719 42.88330078 C234.64930896 45.96725943 233.78388303 49.01322222 232.875 52.0625 C232.56022705 53.14853516 232.2454541 54.23457031 231.92114258 55.35351562 C229.98266182 61.94853782 227.93386015 68.50317408 225.6875 75 C225.44563965 75.70519775 225.2037793 76.41039551 224.95458984 77.13696289 C223.24962133 81.87518933 223.24962133 81.87518933 221 83 C213.84141863 81.99479238 207.12880248 80.44497033 200.80078125 76.921875 C196.06807804 74.49905947 191.16718326 73.37602812 186 75 C185.01 75.33 184.02 75.66 183 76 C180.8799504 75.56661358 178.78006649 75.03298264 176.6953125 74.453125 C157.74251282 69.46665034 139.26772208 66.99251554 119.6875 66 C118.58158508 65.94251587 117.47567017 65.88503174 116.33624268 65.82580566 C108.89284496 65.45333896 101.45026914 65.18704611 94 65 C92.95667511 64.97231537 91.91335022 64.94463074 90.83840942 64.91610718 C74.74019607 64.5229513 74.74019607 64.5229513 59.0625 67.8125 C57.15615802 68.36874743 55.24859223 68.92081735 53.33984375 69.46875 C51.98608643 69.86707031 51.98608643 69.86707031 50.60498047 70.2734375 C36.4058726 74.233751 15.60153009 79.28653398 2 72 C-5.47675482 65.0216955 -6.57271836 55.81491057 -7 46 C-7.06445312 44.90042969 -7.12890625 43.80085938 -7.1953125 42.66796875 C-7.6672878 28.1468619 -4.18947256 13.83795483 0 0 Z " fill="#263036" transform="translate(48,399)"/>
<path d="M0 0 C1.21561001 -0.00782324 2.43122003 -0.01564648 3.68366671 -0.02370679 C5.02930871 -0.01722089 6.37494938 -0.01045093 7.72058868 -0.00342751 C9.15264985 -0.00688422 10.58470836 -0.01164888 12.0167613 -0.01760924 C15.95222993 -0.03014712 19.88748066 -0.02393625 23.82295012 -0.01465058 C28.06704809 -0.00787182 32.31110819 -0.01833549 36.55519867 -0.02659035 C44.86947691 -0.03994242 53.18367399 -0.03704339 61.49795544 -0.02835242 C68.25409368 -0.02158208 75.01020914 -0.02065634 81.76634979 -0.02392387 C82.72727908 -0.02438357 83.68820836 -0.02484327 84.67825672 -0.0253169 C86.6302594 -0.02627606 88.58226208 -0.0272487 90.53426474 -0.02823468 C108.84571648 -0.03679289 127.15712319 -0.02694767 145.46856755 -0.01083358 C161.18658966 0.00256999 176.90454531 0.00024202 192.62256622 -0.01358986 C210.86771314 -0.02963806 229.11282058 -0.03596887 247.35797358 -0.02675307 C249.30286566 -0.0257974 251.24775775 -0.02485429 253.19264984 -0.02392387 C254.62810149 -0.02322963 254.62810149 -0.02322963 256.09255216 -0.02252137 C262.84194127 -0.0199292 269.59130537 -0.02430737 276.34069061 -0.03136253 C284.5639845 -0.03976929 292.78719245 -0.03751478 301.01047647 -0.0215203 C305.20753102 -0.01362646 309.4044422 -0.01056489 313.60149574 -0.02046776 C317.44190278 -0.0293922 321.28203326 -0.0245192 325.12241513 -0.0085351 C326.51332515 -0.00517772 327.90425843 -0.00690283 329.29515356 -0.01416247 C331.18308622 -0.02326217 333.07108414 -0.01214997 334.95899963 0 C336.00849431 0.00048706 337.05798898 0.00097411 338.13928652 0.00147593 C341.48049978 0.44385639 343.31333583 1.33063415 345.97949982 3.37752342 C347.97949982 7.37752342 347.97949982 7.37752342 347.97949982 21.37752342 C228.84949982 21.37752342 109.71949982 21.37752342 -13.02050018 21.37752342 C-13.02050018 8.37752342 -13.02050018 8.37752342 -11.02050018 3.37752342 C-7.37957521 0.48108822 -4.58499382 0.00212784 0 0 Z " fill="#F41211" transform="translate(119.02050018310547,41.62247657775879)"/>
<path d="M0 0 C1.18632523 -0.00281982 2.37265045 -0.00563965 3.59492493 -0.00854492 C4.90821274 -0.00652069 6.22150055 -0.00449646 7.57458496 -0.00241089 C8.96225531 -0.00376491 10.3499253 -0.00554484 11.7375946 -0.00772095 C15.51641654 -0.01229524 19.2952113 -0.01050574 23.07403374 -0.00734186 C27.02005972 -0.00481824 30.9660833 -0.0071558 34.91210938 -0.00872803 C41.54000264 -0.01054972 48.16788479 -0.00814343 54.79577637 -0.00338745 C62.46940137 0.00205517 70.14299981 0.00029251 77.81662416 -0.00521386 C84.39325326 -0.00974501 90.96987434 -0.01039553 97.5465045 -0.00777519 C101.47960057 -0.00621242 105.41268414 -0.00601863 109.34577942 -0.00931168 C113.04258283 -0.01219042 116.73935183 -0.01021465 120.4361515 -0.00441742 C122.44817176 -0.00245419 124.46019492 -0.0054437 126.47221375 -0.00854492 C127.65853897 -0.0057251 128.8448642 -0.00290527 130.06713867 0 C131.10470055 0.00037703 132.14226242 0.00075405 133.21126556 0.0011425 C135.53356934 0.12698364 135.53356934 0.12698364 136.53356934 1.12698364 C136.63679131 2.52823701 136.67206364 3.93459634 136.67883301 5.33963013 C136.68521286 6.23403305 136.69159271 7.12843597 136.69816589 8.04994202 C136.69983513 9.50926903 136.69983513 9.50926903 136.70153809 10.99807739 C136.70486649 11.99074112 136.70819489 12.98340485 136.71162415 14.00614929 C136.71669774 16.11030614 136.71903234 18.21447107 136.71887207 20.31863403 C136.72105764 23.54720247 136.73920633 26.77542891 136.75817871 30.00393677 C136.76111266 32.04364913 136.76309744 34.08336313 136.76403809 36.12307739 C136.7712236 37.09393784 136.77840912 38.06479828 136.78581238 39.06507874 C136.78273575 39.96263382 136.77965912 40.8601889 136.77648926 41.78494263 C136.77791428 42.57690536 136.77933929 43.3688681 136.7808075 44.18482971 C136.53356934 46.12698364 136.53356934 46.12698364 134.53356934 48.12698364 C132.12224579 48.37866592 132.12224579 48.37866592 129.02954102 48.38095093 C127.86011459 48.38659058 126.69068817 48.39223022 125.48582458 48.39804077 C124.19640457 48.39399231 122.90698456 48.38994385 121.57849121 48.38577271 C120.21199863 48.38848163 118.84550751 48.39204201 117.47901917 48.39639282 C113.76214346 48.40553086 110.04537845 48.40196679 106.32850075 48.39563465 C102.44433919 48.39058195 98.56018731 48.39526407 94.67602539 48.39840698 C88.15244845 48.40204876 81.62891675 48.39724199 75.10534668 48.38772583 C67.55609305 48.37684086 60.00694744 48.38036629 52.45769644 48.39137864 C45.98378367 48.4004455 39.50990348 48.40173975 33.03598642 48.3965013 C29.166017 48.39337828 25.29609839 48.39298133 21.4261322 48.39957428 C17.78836939 48.4053384 14.15074626 48.40136813 10.51299858 48.38978577 C8.53577239 48.38586613 6.55853442 48.39183279 4.58131409 48.39804077 C3.41188766 48.39240112 2.24246124 48.38676147 1.03759766 48.38095093 C0.01700508 48.38019688 -1.00358749 48.37944283 -2.05510712 48.37866592 C-4.46643066 48.12698364 -4.46643066 48.12698364 -6.46643066 46.12698364 C-6.71366882 44.18482971 -6.71366882 44.18482971 -6.70935059 41.78494263 C-6.71242722 40.88738754 -6.71550385 39.98983246 -6.71867371 39.06507874 C-6.71148819 38.09421829 -6.70430267 37.12335785 -6.69689941 36.12307739 C-6.69644119 35.12945694 -6.69598297 34.13583649 -6.69551086 33.11210632 C-6.69248676 31.0097128 -6.68459576 28.90732155 -6.67224121 26.80496216 C-6.65398631 23.57433195 -6.65173147 20.34398816 -6.65197754 17.11331177 C-6.64706247 15.07489781 -6.64123419 13.03648581 -6.63439941 10.99807739 C-6.63328659 10.02519272 -6.63217377 9.05230804 -6.63102722 8.04994202 C-6.62464737 7.15553909 -6.61826752 6.26113617 -6.61169434 5.33963013 C-6.60788254 4.54846298 -6.60407074 3.75729584 -6.60014343 2.94215393 C-6.30880047 -1.01286917 -3.29915413 0.00119884 0 0 Z " fill="#F40C0B" transform="translate(315.4664306640625,123.87301635742188)"/>
<path d="M0 0 C0.66 0.33 1.32 0.66 2 1 C4.36509009 9.68745509 4.53538304 19.05001021 5 28 C5.99 25.69 6.98 23.38 8 21 C8.33 21 8.66 21 9 21 C9.495 28.425 9.495 28.425 10 36 C11.98 30.06 13.96 24.12 16 18 C16.33 18 16.66 18 17 18 C17.22520096 31.179453 17.11865386 43.96649546 15 57 C16.70982097 55.14718689 18.41791736 53.29283362 20.125 51.4375 C20.6298291 50.8904541 21.1346582 50.3434082 21.65478516 49.77978516 C24.32171323 46.87766613 26.89915128 43.94374933 29.375 40.875 C31.9218583 38.08558377 33.38073727 36.90481568 37 36 C37.66 36 38.32 36 39 36 C39.99 35.2575 39.99 35.2575 41 34.5 C43 33 43 33 45 33 C43.01121771 39.35033123 40.07547777 44.99285228 37 50.875 C36.41911621 51.98746094 35.83823242 53.09992188 35.23974609 54.24609375 C28.78236007 66.48375313 21.92242668 78.36399469 13 89 C15.31 89.33 17.62 89.66 20 90 C19.37522982 96.26927262 18.45141657 102.3813503 17.22265625 108.55859375 C17.05124619 109.42895767 16.87983612 110.29932159 16.70323181 111.19606018 C16.34297979 113.01741673 15.98069709 114.83837273 15.61645508 116.65893555 C15.05947416 119.45267721 14.51488884 122.24866331 13.97070312 125.04492188 C13.61793932 126.82046204 13.26444987 128.59585822 12.91015625 130.37109375 C12.74862564 131.20748886 12.58709503 132.04388397 12.42066956 132.90562439 C11.22885614 138.77114386 11.22885614 138.77114386 9 141 C5.92724609 141.22705078 5.92724609 141.22705078 2.0234375 141.1953125 C1.33819 141.1924826 0.6529425 141.18965271 -0.05307007 141.18673706 C-2.24389027 141.17553281 -4.43430316 141.15042859 -6.625 141.125 C-8.1093691 141.11497048 -9.5937446 141.10584458 -11.078125 141.09765625 C-14.71888261 141.07559294 -18.35940156 141.04106176 -22 141 C-24.87659863 130.33583581 -27.14478042 119.58861341 -29.25 108.75 C-29.38641907 108.05397675 -29.52283813 107.35795349 -29.66339111 106.64083862 C-30.05613935 104.63118912 -30.44318628 102.62053344 -30.828125 100.609375 C-31.0540332 99.43342773 -31.27994141 98.25748047 -31.51269531 97.04589844 C-32 94 -32 94 -32 90 C-30.515 89.505 -30.515 89.505 -29 89 C-29.64324219 88.03964844 -30.28648437 87.07929688 -30.94921875 86.08984375 C-38.36789626 74.88669459 -45.06461693 63.34655168 -51.56542969 51.59033203 C-52.83800809 49.29250071 -54.12335385 47.00251736 -55.4140625 44.71484375 C-56.06853736 43.53952376 -56.72226621 42.36378781 -57.375 41.1875 C-57.91898437 40.21167969 -58.46296875 39.23585938 -59.0234375 38.23046875 C-59.50683594 37.12638672 -59.50683594 37.12638672 -60 36 C-59.67 35.34 -59.34 34.68 -59 34 C-53.09563077 38.8836671 -47.96906227 44.1719243 -43 50 C-43.84884766 48.31970703 -43.84884766 48.31970703 -44.71484375 46.60546875 C-45.45583506 45.13286578 -46.19671466 43.66020659 -46.9375 42.1875 C-47.31068359 41.44951172 -47.68386719 40.71152344 -48.06835938 39.95117188 C-48.42607422 39.23896484 -48.78378906 38.52675781 -49.15234375 37.79296875 C-49.48226318 37.1383667 -49.81218262 36.48376465 -50.15209961 35.80932617 C-51 34 -51 34 -52 31 C-43.26770477 35.11042964 -37.88356145 42.58873267 -32 50 C-31.505 50.495 -31.505 50.495 -31 51 C-31.33 40.44 -31.66 29.88 -32 19 C-27.43439059 23.56560941 -26.21226822 28.96110566 -24 35 C-24 28.73 -24 22.46 -24 16 C-23.34 16 -22.68 16 -22 16 C-21.0394728 18.37413326 -20.08152647 20.74925519 -19.125 23.125 C-18.85558594 23.79015625 -18.58617187 24.4553125 -18.30859375 25.140625 C-17.91220703 26.12675781 -17.91220703 26.12675781 -17.5078125 27.1328125 C-17.26691895 27.72980957 -17.02602539 28.32680664 -16.77783203 28.94189453 C-15.77230628 31.60246642 -14.88726723 34.29802017 -14 37 C-13.85900879 36.07662842 -13.71801758 35.15325684 -13.57275391 34.2019043 C-13.04566741 30.77368365 -12.51192142 27.34663834 -11.97363281 23.92016602 C-11.74211453 22.43750866 -11.51325166 20.95443411 -11.28710938 19.47094727 C-10.96142144 17.33754843 -10.62618478 15.20583676 -10.2890625 13.07421875 C-9.99056396 11.14968872 -9.99056396 11.14968872 -9.68603516 9.1862793 C-9 6 -9 6 -7 3 C-5.29915181 8.32932432 -4.47986031 13.43109483 -4 19 C-2.33945169 12.71363856 -1.10690752 6.40593286 0 0 Z M-23 38 C-22 41 -22 41 -22 41 Z " fill="#FEA595" transform="translate(421,339)"/>
<path d="M0 0 C0.79664063 0.34933594 1.59328125 0.69867188 2.4140625 1.05859375 C3.47367188 1.51363281 4.53328125 1.96867187 5.625 2.4375 C6.66914062 2.88996094 7.71328125 3.34242188 8.7890625 3.80859375 C12.38743327 5.25882976 12.38743327 5.25882976 18 6 C17.34 10.29 16.68 14.58 16 19 C17.65 19.66 19.3 20.32 21 21 C27.10526113 24.39502673 32.54136733 28.36401724 37.8125 32.9375 C46.9027418 40.67186916 56.43739278 45.84458335 68 49 C68.56478646 44.81528251 69.0976704 40.62708895 69.625 36.4375 C69.78484375 35.25607422 69.9446875 34.07464844 70.109375 32.85742188 C70.8841964 26.57080279 71.21995715 21.94401569 69 16 C69.13268623 12.15209943 69.65634362 9.65742959 71.4375 6.25 C75.15062465 2.98969543 79.25612009 2.11354433 84 1 C84.495 4.465 84.495 4.465 85 8 C86.17949219 7.87882812 87.35898438 7.75765625 88.57421875 7.6328125 C130.75694362 3.40177027 130.75694362 3.40177027 150 4 C150.15811709 10.03574086 149.59122538 15.63057955 148.57421875 21.57421875 C148.42596146 22.46107864 148.27770416 23.34793854 148.12495422 24.26167297 C147.81137674 26.12367066 147.49436344 27.98509268 147.17407227 29.84594727 C146.68747282 32.68765874 146.21920272 35.53200403 145.75195312 38.37695312 C145.44381612 40.19289666 145.13460808 42.00865884 144.82421875 43.82421875 C144.68658615 44.67014084 144.54895355 45.51606293 144.40715027 46.38761902 C142.96843827 54.55861467 142.96843827 54.55861467 140 58 C133.87399748 61.6817946 127.37383985 61.71917645 120.3671875 62.1328125 C118.52569626 62.256064 118.52569626 62.256064 116.64700317 62.38180542 C112.72366656 62.64130253 108.79946216 62.88319019 104.875 63.125 C102.29029154 63.29446252 99.70565496 63.46502514 97.12109375 63.63671875 C84.91103486 64.43680143 72.70116414 65.18200545 60.47335815 65.65213013 C56.23308518 65.8282952 52.18241739 66.21975662 48 67 C37.63655972 67.88787901 37.63655972 67.88787901 33.3125 65.125 C32.549375 64.42375 31.78625 63.7225 31 63 C31 62.34 31 61.68 31 61 C38.92 60.34 46.84 59.68 55 59 C51.32646589 55.17291021 51.32646589 55.17291021 47.015625 53.359375 C45.87226685 52.96721802 45.87226685 52.96721802 44.70581055 52.56713867 C43.89539307 52.29748291 43.08497559 52.02782715 42.25 51.75 C30.09528642 47.46385805 18.88105158 42.30423909 8.3125 34.875 C7.74813232 34.47949951 7.18376465 34.08399902 6.60229492 33.67651367 C2.33973278 30.54874345 -1.74842663 26.99314952 -3.828125 22.01953125 C-4.48093216 14.34904716 -3.63860054 6.80260101 0 0 Z " fill="#FEA796" transform="translate(45,368)"/>
<path d="M0 0 C1.29920883 -0.01073296 1.29920883 -0.01073296 2.62466431 -0.02168274 C5.46516959 -0.03848209 8.30407691 -0.01921901 11.14453125 0.00219727 C13.13175588 0.00136776 15.11898043 -0.0010947 17.10620117 -0.00511169 C21.2620927 -0.00796371 25.41744353 0.00667328 29.57324219 0.03417969 C34.88608448 0.06826115 40.19796044 0.0622384 45.510849 0.04351711 C49.61169411 0.0329217 53.71231644 0.04190804 57.81314087 0.05690193 C59.77144712 0.06206554 61.72977681 0.06162417 63.68807983 0.05535698 C66.43057857 0.049874 69.1717188 0.07037789 71.9140625 0.09765625 C72.7142984 0.09113037 73.5145343 0.08460449 74.33901978 0.07788086 C79.95680615 0.17234676 84.25107163 1.5133053 88.95703125 4.63110352 C93.32192912 9.2198423 94.32470831 13.05430163 94.234375 19.21704102 C93.58841417 24.83962964 91.27502687 28.58208659 86.89453125 32.06860352 C81.98895817 34.6779509 77.88275695 34.78484231 72.44995117 34.79223633 C71.5813295 34.79720123 70.71270782 34.80216614 69.81776428 34.80728149 C66.94100149 34.82189948 64.06429385 34.82870468 61.1875 34.83422852 C59.18833922 34.83998046 57.18917845 34.84573819 55.1900177 34.85150146 C50.99606062 34.86201055 46.8021227 34.86785376 42.6081543 34.87133789 C37.23799563 34.87682106 31.86809071 34.90084578 26.49801159 34.92930984 C22.36728682 34.94794762 18.23662302 34.95314245 14.10585976 34.95467377 C12.12634202 34.95769847 10.14682531 34.96572083 8.16734886 34.97885895 C5.39546875 34.99594241 2.62420654 34.9940335 -0.14770508 34.98754883 C-0.96298676 34.99676361 -1.77826843 35.00597839 -2.61825562 35.01547241 C-8.89349375 34.96956019 -12.91194225 33.42310307 -17.79296875 29.31860352 C-21.34539638 25.07542607 -22.28354817 21.57823684 -21.91796875 16.13110352 C-21.16128614 11.06388066 -19.45613069 7.5674434 -15.37284851 4.29098606 C-10.15265255 0.77194772 -6.23045631 -0.09103283 0 0 Z M69.95703125 10.63110352 C71.16084573 13.12471922 72.41131847 15.31253434 73.95703125 17.63110352 C71.64703125 17.63110352 69.33703125 17.63110352 66.95703125 17.63110352 C66.95703125 17.96110352 66.95703125 18.29110352 66.95703125 18.63110352 C69.26703125 18.63110352 71.57703125 18.63110352 73.95703125 18.63110352 C71.97703125 21.60110352 71.97703125 21.60110352 69.95703125 24.63110352 C73.21246354 24.2823072 73.97576232 23.60977091 76.20703125 21.06860352 C76.78453125 20.26422852 77.36203125 19.45985352 77.95703125 18.63110352 C76.51626079 15.26930577 74.70953104 13.03954083 71.95703125 10.63110352 C71.29703125 10.63110352 70.63703125 10.63110352 69.95703125 10.63110352 Z M0.95703125 12.63110352 C0.29703125 13.29110352 -0.36296875 13.95110352 -1.04296875 14.63110352 C-1.04296875 15.62110352 -1.04296875 16.61110352 -1.04296875 17.63110352 C-0.08390625 18.06422852 -0.08390625 18.06422852 0.89453125 18.50610352 C2.95703125 19.63110352 2.95703125 19.63110352 3.95703125 21.63110352 C2.30703125 21.63110352 0.65703125 21.63110352 -1.04296875 21.63110352 C-0.71296875 22.29110352 -0.38296875 22.95110352 -0.04296875 23.63110352 C1.60703125 23.63110352 3.25703125 23.63110352 4.95703125 23.63110352 C5.28703125 21.98110352 5.61703125 20.33110352 5.95703125 18.63110352 C4.99796875 18.19797852 4.99796875 18.19797852 4.01953125 17.75610352 C1.95703125 16.63110352 1.95703125 16.63110352 0.95703125 14.63110352 C2.60703125 14.63110352 4.25703125 14.63110352 5.95703125 14.63110352 C5.62703125 13.97110352 5.29703125 13.31110352 4.95703125 12.63110352 C3.63703125 12.63110352 2.31703125 12.63110352 0.95703125 12.63110352 Z M8.95703125 12.63110352 C8.95703125 16.26110352 8.95703125 19.89110352 8.95703125 23.63110352 C9.61703125 23.63110352 10.27703125 23.63110352 10.95703125 23.63110352 C10.95703125 20.00110352 10.95703125 16.37110352 10.95703125 12.63110352 C10.29703125 12.63110352 9.63703125 12.63110352 8.95703125 12.63110352 Z M13.95703125 14.63110352 C13.62369792 18.13110352 13.62369792 18.13110352 13.95703125 21.63110352 C14.61703125 22.29110352 15.27703125 22.95110352 15.95703125 23.63110352 C19.55382191 23.30783799 19.55382191 23.30783799 22.95703125 22.63110352 C22.95703125 20.98110352 22.95703125 19.33110352 22.95703125 17.63110352 C21.63703125 17.63110352 20.31703125 17.63110352 18.95703125 17.63110352 C18.95703125 18.29110352 18.95703125 18.95110352 18.95703125 19.63110352 C19.61703125 19.63110352 20.27703125 19.63110352 20.95703125 19.63110352 C20.62703125 20.29110352 20.29703125 20.95110352 19.95703125 21.63110352 C18.63703125 21.63110352 17.31703125 21.63110352 15.95703125 21.63110352 C15.95703125 19.32110352 15.95703125 17.01110352 15.95703125 14.63110352 C18.26703125 14.63110352 20.57703125 14.63110352 22.95703125 14.63110352 C21.12999898 12.38191272 21.12999898 12.38191272 18.45703125 12.38110352 C15.78406352 12.38191272 15.78406352 12.38191272 13.95703125 14.63110352 Z M25.95703125 12.63110352 C25.95703125 16.26110352 25.95703125 19.89110352 25.95703125 23.63110352 C26.61703125 23.63110352 27.27703125 23.63110352 27.95703125 23.63110352 C28.28703125 21.98110352 28.61703125 20.33110352 28.95703125 18.63110352 C30.60703125 20.28110352 32.25703125 21.93110352 33.95703125 23.63110352 C33.95703125 20.00110352 33.95703125 16.37110352 33.95703125 12.63110352 C33.62703125 12.63110352 33.29703125 12.63110352 32.95703125 12.63110352 C32.62703125 14.61110352 32.29703125 16.59110352 31.95703125 18.63110352 C31.33828125 17.64110352 30.71953125 16.65110352 30.08203125 15.63110352 C29.03015625 14.14610352 29.03015625 14.14610352 27.95703125 12.63110352 C27.29703125 12.63110352 26.63703125 12.63110352 25.95703125 12.63110352 Z M40.95703125 12.63110352 C40.91578125 13.88922852 40.87453125 15.14735352 40.83203125 16.44360352 C40.80882812 17.15129883 40.785625 17.85899414 40.76171875 18.58813477 C40.82448663 20.9447007 40.82448663 20.9447007 42.95703125 23.63110352 C44.93703125 23.30110352 46.91703125 22.97110352 48.95703125 22.63110352 C48.95703125 19.33110352 48.95703125 16.03110352 48.95703125 12.63110352 C48.62703125 12.63110352 48.29703125 12.63110352 47.95703125 12.63110352 C47.62703125 15.27110352 47.29703125 17.91110352 46.95703125 20.63110352 C45.63703125 20.96110352 44.31703125 21.29110352 42.95703125 21.63110352 C42.95703125 18.66110352 42.95703125 15.69110352 42.95703125 12.63110352 C42.29703125 12.63110352 41.63703125 12.63110352 40.95703125 12.63110352 Z M52.95703125 12.63110352 C52.95703125 16.26110352 52.95703125 19.89110352 52.95703125 23.63110352 C53.28703125 22.31110352 53.61703125 20.99110352 53.95703125 19.63110352 C55.60703125 19.30110352 57.25703125 18.97110352 58.95703125 18.63110352 C59.28703125 17.31110352 59.61703125 15.99110352 59.95703125 14.63110352 C57.00325627 12.26130338 57.00325627 12.26130338 52.95703125 12.63110352 Z " fill="#F40B0B" transform="translate(175.04296875,298.368896484375)"/>
<path d="M0 0 C1.13457642 -0.00630432 2.26915283 -0.01260864 3.43811035 -0.019104 C5.28342346 -0.01303131 5.28342346 -0.01303131 7.16601562 -0.00683594 C9.0524176 -0.00970612 9.0524176 -0.00970612 10.97692871 -0.01263428 C13.64019438 -0.01399743 16.30309492 -0.011291 18.96630859 -0.00195312 C22.38297957 0.00944154 25.79933635 0.00288159 29.21599579 -0.00909805 C32.47018042 -0.01805547 35.7243269 -0.01178722 38.97851562 -0.00683594 C40.20872437 -0.0108844 41.43893311 -0.01493286 42.7064209 -0.019104 C44.40828552 -0.00964752 44.40828552 -0.00964752 46.14453125 0 C47.14665649 0.00159119 48.14878174 0.00318237 49.18127441 0.00482178 C51.57226562 0.25878906 51.57226562 0.25878906 53.57226562 2.25878906 C53.81277466 4.47341919 53.81277466 4.47341919 53.79931641 7.25927734 C53.79907471 8.31477783 53.79883301 9.37027832 53.79858398 10.45776367 C53.78323608 12.12657593 53.78323608 12.12657593 53.76757812 13.82910156 C53.76556396 14.84931396 53.7635498 15.86952637 53.76147461 16.9206543 C53.75098879 20.74174477 53.72306634 24.5627713 53.69726562 28.38378906 C53.65601563 36.92253906 53.61476563 45.46128906 53.57226562 54.25878906 C33.44226563 54.25878906 13.31226563 54.25878906 -7.42773438 54.25878906 C-7.46898437 45.72003906 -7.51023437 37.18128906 -7.55273438 28.38378906 C-7.57094238 25.68723145 -7.58915039 22.99067383 -7.60791016 20.21240234 C-7.61374916 18.08463745 -7.61884612 15.95687033 -7.62304688 13.82910156 C-7.63327881 12.71656006 -7.64351074 11.60401855 -7.65405273 10.45776367 C-7.65429443 9.40226318 -7.65453613 8.3467627 -7.65478516 7.25927734 C-7.65922638 6.33994415 -7.6636676 5.42061096 -7.66824341 4.47341919 C-7.14592476 -0.33614079 -4.05752141 0.00644258 0 0 Z " fill="#F40C0C" transform="translate(316.427734375,183.7412109375)"/>
<path d="M0 0 C1.13465195 -0.00637985 2.26930389 -0.0127597 3.43833923 -0.01933289 C4.67370926 -0.02044571 5.90907928 -0.02155853 7.18188477 -0.02270508 C9.07040916 -0.02769768 9.07040916 -0.02769768 10.99708557 -0.03279114 C13.66622437 -0.03786576 16.33526142 -0.04063047 19.00439453 -0.04003906 C22.42891817 -0.03993743 25.85323452 -0.05358833 29.27770901 -0.07081127 C32.53742665 -0.08458749 35.79714193 -0.08401959 39.05688477 -0.08520508 C40.29023056 -0.09239059 41.52357635 -0.09957611 42.79429626 -0.10697937 C44.50100243 -0.10236443 44.50100243 -0.10236443 46.2421875 -0.09765625 C47.74989967 -0.09979378 47.74989967 -0.09979378 49.28807068 -0.10197449 C51.68579102 0.14526367 51.68579102 0.14526367 53.68579102 2.14526367 C53.92630005 4.3598938 53.92630005 4.3598938 53.9128418 7.14575195 C53.9126001 8.20125244 53.9123584 9.25675293 53.91210938 10.34423828 C53.89676147 12.01305054 53.89676147 12.01305054 53.88110352 13.71557617 C53.87908936 14.73578857 53.8770752 15.75600098 53.875 16.80712891 C53.86451418 20.62821938 53.83659173 24.44924591 53.81079102 28.27026367 C53.76954102 36.80901367 53.72829102 45.34776367 53.68579102 54.14526367 C33.88579102 54.14526367 14.08579102 54.14526367 -6.31420898 54.14526367 C-6.33483398 45.42088867 -6.35545898 36.69651367 -6.37670898 27.70776367 C-6.38581299 24.94989502 -6.39491699 22.19202637 -6.40429688 19.35058594 C-6.40721583 17.1792811 -6.40976443 15.00797571 -6.41186523 12.83666992 C-6.4169812 11.69742065 -6.42209717 10.55817139 -6.42736816 9.38439941 C-6.42748901 8.30847534 -6.42760986 7.23255127 -6.42773438 6.12402344 C-6.42995499 5.18470474 -6.4321756 4.24538605 -6.4344635 3.27760315 C-6.1974346 -0.92536652 -3.62300466 0.0137504 0 0 Z " fill="#F40B0B" transform="translate(398.314208984375,183.854736328125)"/>
<path d="M0 0 C6.79912562 5.43414964 11.3687483 13.09953414 13.625 21.4609375 C14.60735612 31.73948473 14.37383636 41.47459855 8.625 50.4609375 C6.453125 52.28125 6.453125 52.28125 4.625 53.4609375 C4.32207031 52.92984375 4.01914063 52.39875 3.70703125 51.8515625 C-0.39000573 44.94332784 -4.72851785 41.0788949 -12.30078125 38.2265625 C-20.90833196 36.0828777 -31.07695583 36.18091087 -39.18359375 39.98046875 C-43.77482331 43.0822085 -47.88608501 47.48310752 -50.375 52.4609375 C-53.04873366 51.45543082 -54.23649632 50.66504818 -55.859375 48.2734375 C-60.21763094 38.58842431 -61.20075733 27.95776227 -58.67578125 17.58984375 C-57.75621437 15.351067 -56.71996288 13.47002802 -55.375 11.4609375 C-54.93929687 10.76871094 -54.50359375 10.07648438 -54.0546875 9.36328125 C-49.14997065 2.1938181 -41.70982817 -3.98023044 -33.13671875 -6.08984375 C-21.14511273 -8.04038787 -10.34590085 -6.70441601 0 0 Z " fill="#F2EFEF" transform="translate(227.375,93.5390625)"/>
<path d="M0 0 C3.32088274 2.05601711 5.83982644 4.18185729 7.65625 7.64453125 C8.25103002 10.74018884 8.20867937 13.75094043 8.15625 16.89453125 C8.25064662 23.82113091 8.95565041 28.53607641 12.5625 34.5859375 C14.48311062 38.20080105 14.243721 40.59750882 13.65625 44.64453125 C12.69256886 46.74710828 11.60525381 48.7484887 10.49609375 50.77734375 C9.15203872 53.76552191 9.63629483 55.58466575 10.65625 58.64453125 C11.35750115 59.91928625 12.06642352 61.18983885 12.78125 62.45703125 C14.77656376 66.31561594 15.08087449 69.11449712 14.4296875 73.390625 C13.52431399 76.02901144 12.2082236 77.52863918 10.40625 79.64453125 C8.00246016 82.85717929 7.47097039 84.92163836 7.9296875 88.81640625 C8.43173317 91.82609903 9.08757267 94.7851253 9.7890625 97.75390625 C10.49442162 100.91849039 10.84555984 103.43888455 10.65625 106.64453125 C8.67625 107.30453125 6.69625 107.96453125 4.65625 108.64453125 C5.14222656 108.22429687 5.62820312 107.8040625 6.12890625 107.37109375 C8.27421848 104.94595819 8.11973411 102.77430777 8.01171875 99.63671875 C6.47794803 86.7260773 3.4073317 74.10169377 -5.66015625 64.46875 C-8.90341604 60.95459148 -10.67693476 58.44560096 -11.34375 53.64453125 C-10.10625 53.27328125 -8.86875 52.90203125 -7.59375 52.51953125 C-3.17900327 50.83475158 -1.43420999 48.98625585 0.65625 44.64453125 C1.50227158 41.66886913 2.14123366 38.69397008 2.65625 35.64453125 C1.99625 35.64453125 1.33625 35.64453125 0.65625 35.64453125 C0.65625 34.65453125 0.65625 33.66453125 0.65625 32.64453125 C1.31625 32.64453125 1.97625 32.64453125 2.65625 32.64453125 C3.70345598 23.21265039 3.70345598 23.21265039 0.34375 14.83203125 C-2.20460624 12.49445562 -2.20460624 12.49445562 -5.34375 11.64453125 C-5.715 12.53140625 -6.08625 13.41828125 -6.46875 14.33203125 C-9.84234294 20.29204544 -14.21205758 22.89549197 -20.4140625 25.26171875 C-24.17078734 26.00697995 -26.21815073 24.72826409 -29.34375 22.64453125 C-31.49649948 22.95293724 -31.49649948 22.95293724 -33.34375 23.64453125 C-33.42379482 27.16650335 -33.38380702 30.26434594 -32.34375 33.64453125 C-31.71984375 33.71542969 -31.0959375 33.78632813 -30.453125 33.859375 C-28.34375 34.64453125 -28.34375 34.64453125 -27.296875 36.7109375 C-27.06484375 37.53464844 -26.8328125 38.35835938 -26.59375 39.20703125 C-26.35140625 40.03332031 -26.1090625 40.85960937 -25.859375 41.7109375 C-25.68921875 42.34902344 -25.5190625 42.98710937 -25.34375 43.64453125 C-26.33375 42.65453125 -27.32375 41.66453125 -28.34375 40.64453125 C-28.45332031 41.52496094 -28.56289062 42.40539062 -28.67578125 43.3125 C-28.91361328 45.05466797 -28.91361328 45.05466797 -29.15625 46.83203125 C-29.30707031 47.98058594 -29.45789063 49.12914062 -29.61328125 50.3125 C-30.38029876 53.81124833 -31.10363294 55.8575762 -33.34375 58.64453125 C-36.2421875 60.33984375 -36.2421875 60.33984375 -39.71875 61.76953125 C-40.63454834 62.14682373 -40.63454834 62.14682373 -41.56884766 62.53173828 C-47.65577467 64.94554665 -53.91651661 66.42741396 -60.34375 67.64453125 C-63.82405424 63.46816616 -64.46787613 60.00855341 -64.34375 54.64453125 C-63.44924607 49.57250362 -61.27014019 46.41591747 -57.71875 42.76953125 C-54.04940915 38.89335908 -53.75772862 36.04515281 -53.55859375 30.84375 C-53.34375 28.64453125 -53.34375 28.64453125 -51.71875 26.20703125 C-49.34375 24.64453125 -49.34375 24.64453125 -45.84375 23.76953125 C-43.91626871 23.16142053 -43.91626871 23.16142053 -42.34375 21.64453125 C-41.00506352 18.1953423 -40.14952059 14.8011025 -39.36328125 11.1875 C-37.48035693 4.64415762 -34.22760905 0.93949232 -28.34375 -2.35546875 C-18.66555154 -6.18642231 -9.33036835 -3.83211557 0 0 Z " fill="#263036" transform="translate(122.34375,260.35546875)"/>
<path d="M0 0 C1.08936356 -0.00571014 2.17872711 -0.01142029 3.30110168 -0.01730347 C4.50165192 -0.01842133 5.70220215 -0.01953918 6.93913269 -0.02069092 C8.19935745 -0.02565582 9.45958221 -0.03062073 10.75799561 -0.03573608 C14.22091184 -0.04886803 17.68380867 -0.05530673 21.14674592 -0.05974674 C23.31001882 -0.06267654 25.4732864 -0.0667812 27.63655663 -0.07125092 C34.40419834 -0.08492872 41.17182793 -0.09459366 47.93948251 -0.09845281 C55.75292866 -0.10293266 63.56619979 -0.12047587 71.37959272 -0.1494534 C77.41788142 -0.17107043 83.4561209 -0.18115712 89.49444789 -0.18249393 C93.10131503 -0.18354206 96.70801771 -0.18945135 100.31484413 -0.20731354 C104.33945454 -0.22685641 108.36369885 -0.2225052 112.38835144 -0.21600342 C113.58282898 -0.2252182 114.77730652 -0.23443298 116.00798035 -0.243927 C117.65471489 -0.23557327 117.65471489 -0.23557327 119.3347168 -0.22705078 C120.2861749 -0.22851734 121.237633 -0.2299839 122.21792316 -0.2314949 C126.33001565 0.34785746 128.96375808 2.24636611 131.85783386 5.14044189 C132.32800376 9.2936093 132.29805374 11.44216209 130.04533386 15.01544189 C126.73422735 18.23194536 124.0184368 18.26770391 119.59541321 18.28761292 C118.50467499 18.29476822 117.41393677 18.30192352 116.29014587 18.30929565 C115.09319092 18.31198456 113.89623596 18.31467346 112.66300964 18.31744385 C111.40263885 18.32401505 110.14226807 18.33058624 108.84370422 18.33735657 C104.66353117 18.35837494 100.48335784 18.36875528 96.30314636 18.37872314 C94.86350867 18.38277121 93.42387116 18.38688815 91.98423386 18.39107323 C85.22193827 18.4101182 78.45965356 18.42435198 71.69733632 18.4326852 C63.89233866 18.44246242 56.08762424 18.46879719 48.28272641 18.50918609 C42.24866498 18.53933972 36.21468481 18.55415325 30.1805495 18.55746621 C26.57699122 18.55981714 22.97373577 18.56878288 19.37025833 18.59392738 C15.35047286 18.62152475 11.33132128 18.61737937 7.31144714 18.6104126 C5.5220874 18.62962769 5.5220874 18.62962769 3.69657898 18.64923096 C-4.36784535 18.5981556 -4.36784535 18.5981556 -8.36753845 16.23387146 C-10.7350599 13.44103811 -11.10058255 11.67106826 -11.35310364 8.10919189 C-11.01082775 4.91461691 -9.41592737 3.28427391 -7.14216614 1.14044189 C-4.6060191 -0.12763162 -2.83999416 0.0088896 0 0 Z " fill="#F0EEEE" transform="translate(320.1421661376953,80.85955810546875)"/>
<path d="M0 0 C2.42688509 1.64401893 2.89889363 2.55908823 3.9375 5.3125 C4.2327194 8.08644833 4.44462231 10.7825511 4.5625 13.5625 C4.62050781 14.68011719 4.62050781 14.68011719 4.6796875 15.8203125 C4.77355108 17.6506524 4.85659718 19.48154143 4.9375 21.3125 C6.9175 20.9825 8.8975 20.6525 10.9375 20.3125 C14.23046285 25.25194427 13.49109098 30.49928596 12.37011719 36.19580078 C11.58680896 39.27975943 10.72138303 42.32572222 9.8125 45.375 C9.49772705 46.46103516 9.1829541 47.54707031 8.85864258 48.66601562 C6.92016182 55.26103782 4.87136015 61.81567408 2.625 68.3125 C2.26220947 69.37029663 2.26220947 69.37029663 1.89208984 70.44946289 C0.18712133 75.18768933 0.18712133 75.18768933 -2.0625 76.3125 C-9.13260721 75.31971592 -15.75576441 73.82833243 -21.9765625 70.296875 C-26.39838168 68.21017381 -31.30692842 67.35872575 -36.0625 66.3125 C-35.49660156 65.37148438 -34.93070313 64.43046875 -34.34765625 63.4609375 C-33.60628044 62.20341398 -32.86542234 60.94558515 -32.125 59.6875 C-31.56522461 58.76130859 -31.56522461 58.76130859 -30.99414062 57.81640625 C-28.75200829 53.97852208 -27.49941823 50.82038649 -27.0625 46.3125 C-28.76019531 45.48105469 -28.76019531 45.48105469 -30.4921875 44.6328125 C-31.97406303 43.9012537 -33.45582815 43.16947122 -34.9375 42.4375 C-35.68386719 42.07269531 -36.43023437 41.70789063 -37.19921875 41.33203125 C-37.91464844 40.97753906 -38.63007813 40.62304688 -39.3671875 40.2578125 C-40.02702637 39.93312988 -40.68686523 39.60844727 -41.36669922 39.27392578 C-43.0625 38.3125 -43.0625 38.3125 -45.0625 36.3125 C-41.21224121 36.91605408 -38.20148841 38.08022603 -34.75 39.875 C-33.86699219 40.33003906 -32.98398438 40.78507812 -32.07421875 41.25390625 C-31.41035156 41.60324219 -30.74648437 41.95257813 -30.0625 42.3125 C-29.7325 39.0125 -29.4025 35.7125 -29.0625 32.3125 C-28.4025 32.3125 -27.7425 32.3125 -27.0625 32.3125 C-25.90692626 30.7557501 -25.90692626 30.7557501 -24.8125 28.75 C-23.09625323 25.86771498 -21.34025289 23.3972383 -19.0625 20.9375 C-16.64715198 18.23871828 -15.10602094 15.58753481 -13.5625 12.3125 C-11.39071967 7.72373833 -8.87546404 3.71916459 -5.0625 0.3125 C-2.0625 -0.6875 -2.0625 -0.6875 0 0 Z " fill="#F8A494" transform="translate(271.0625,405.6875)"/>
<path d="M0 0 C17.16 0 34.32 0 52 0 C50.87439988 10.13040112 50.87439988 10.13040112 50.18383789 13.66186523 C49.95338524 14.85240761 49.95338524 14.85240761 49.71827698 16.06700134 C49.55472214 16.88922684 49.3911673 17.71145233 49.22265625 18.55859375 C49.05124619 19.42895767 48.87983612 20.29932159 48.70323181 21.19606018 C48.34297979 23.01741673 47.98069709 24.83837273 47.61645508 26.65893555 C47.05947416 29.45267721 46.51488884 32.24866331 45.97070312 35.04492188 C45.61793932 36.82046204 45.26444987 38.59585822 44.91015625 40.37109375 C44.74862564 41.20748886 44.58709503 42.04388397 44.42066956 42.90562439 C43.22885614 48.77114386 43.22885614 48.77114386 41 51 C37.92724609 51.22705078 37.92724609 51.22705078 34.0234375 51.1953125 C33.33819 51.1924826 32.6529425 51.18965271 31.94692993 51.18673706 C29.75610973 51.17553281 27.56569684 51.15042859 25.375 51.125 C23.8906309 51.11497048 22.4062554 51.10584458 20.921875 51.09765625 C17.28111739 51.07559294 13.64059844 51.04106176 10 51 C7.12340137 40.33583581 4.85521958 29.58861341 2.75 18.75 C2.5453714 17.70596512 2.5453714 17.70596512 2.33660889 16.64083862 C1.94386065 14.63118912 1.55681372 12.62053344 1.171875 10.609375 C0.9459668 9.43342773 0.72005859 8.25748047 0.48730469 7.04589844 C0 4 0 4 0 0 Z " fill="#253036" transform="translate(389,429)"/>
<path d="M0 0 C1.02818344 -0.00394272 2.05636688 -0.00788544 3.1157074 -0.01194763 C6.51114768 -0.01865542 9.90524092 0.01050009 13.30053711 0.04077148 C15.66035196 0.04502177 18.02017099 0.04735018 20.37998962 0.0478363 C25.32383184 0.05400189 30.26722103 0.07670466 35.2109375 0.11230469 C41.55200103 0.15760163 47.89265441 0.17233194 54.23386478 0.1760416 C59.10570836 0.18046762 63.97746563 0.1957666 68.84927177 0.21491814 C71.18768033 0.22380478 73.5260981 0.23053262 75.86451912 0.23507881 C79.1298894 0.24410953 82.39488677 0.26649009 85.66015625 0.29296875 C86.62909821 0.29363342 87.59804016 0.2942981 88.59634399 0.29498291 C89.93160378 0.3099456 89.93160378 0.3099456 91.2938385 0.32521057 C92.45108728 0.33218633 92.45108728 0.33218633 93.63171482 0.33930302 C96.10295122 0.64051005 97.66558193 1.26775116 99.76538086 2.59936523 C102.1108776 6.11761035 102.34529489 7.45712218 101.76538086 11.59936523 C99.59274586 14.17222247 97.78544248 16.08933443 94.76538086 17.59936523 C93.3830857 17.69931114 91.99615699 17.738729 90.61027527 17.74653625 C89.30438194 17.75726921 89.30438194 17.75726921 87.97210693 17.76821899 C87.0146759 17.7709079 86.05724487 17.7735968 85.07080078 17.77636719 C84.06416885 17.78293839 83.05753693 17.78950958 82.020401 17.79627991 C78.67888318 17.81604073 75.33741033 17.82768128 71.99584961 17.83764648 C70.85653803 17.84172201 69.71722645 17.84579754 68.54339027 17.84999657 C62.51411748 17.87086848 56.48486753 17.88516576 50.45556641 17.89453125 C44.22093749 17.9056023 37.98666484 17.94000738 31.75216198 17.97970295 C26.96437404 18.0058191 22.17667165 18.01421862 17.38881874 18.01781273 C15.0902802 18.02269106 12.79174578 18.03434026 10.4932766 18.05285072 C7.27794346 18.07713678 4.06354086 18.07629619 0.84814453 18.06933594 C-0.57889297 18.08855103 -0.57889297 18.08855103 -2.03475952 18.1081543 C-6.3010802 18.07445385 -8.60762413 17.98859596 -12.30229187 15.69499207 C-14.6001668 13.20292541 -15.16116172 12.15029588 -15.60961914 8.78686523 C-15.23461914 5.59936523 -15.23461914 5.59936523 -13.35084534 2.93760681 C-8.92115383 -0.38618556 -5.40184116 -0.08287414 0 0 Z " fill="#F0EDEC" transform="translate(161.234619140625,183.400634765625)"/>
<path d="M0 0 C20.13 0 40.26 0 61 0 C61 9.57 61 19.14 61 29 C59.25700612 30.74299388 56.85593748 30.12758682 54.48632812 30.12939453 C53.30840698 30.13254669 52.13048584 30.13569885 50.91687012 30.13894653 C49.63461548 30.1369223 48.35236084 30.13489807 47.03125 30.1328125 C45.72546997 30.13376923 44.41968994 30.13472595 43.07434082 30.13571167 C40.30687278 30.13718833 37.53943696 30.13503511 34.77197266 30.13037109 C31.21737351 30.12467381 27.66284986 30.12795298 24.10825348 30.13394356 C20.72841286 30.13841747 17.34859277 30.13528886 13.96875 30.1328125 C12.68649536 30.13483673 11.40424072 30.13686096 10.08312988 30.13894653 C8.31624817 30.13421829 8.31624817 30.13421829 6.51367188 30.12939453 C5.47078003 30.12859894 4.42788818 30.12780334 3.35339355 30.12698364 C1 30 1 30 0 29 C0 19.43 0 9.86 0 0 Z " fill="#F2F1F1" transform="translate(309,239)"/>
<path d="M0 0 C20.13 0 40.26 0 61 0 C61 9.57 61 19.14 61 29 C60 30 60 30 57.63987732 30.12025452 C56.59396927 30.11803391 55.54806122 30.11581329 54.47045898 30.11352539 C53.28931015 30.11344986 52.10816132 30.11337433 50.89122009 30.11329651 C49.6058284 30.10813522 48.32043671 30.10297394 46.99609375 30.09765625 C45.68794205 30.0962413 44.37979034 30.09482635 43.03199768 30.09336853 C39.54837141 30.0895441 36.06478661 30.07971446 32.58117676 30.06866455 C29.02873292 30.05844882 25.47628241 30.05387056 21.92382812 30.04882812 C14.94920168 30.03809212 7.97460283 30.0210166 1 30 C-3.47461979 21.05076043 0 10.00555401 0 0 Z " fill="#F2F1F1" transform="translate(391,239)"/>
<path d="M0 0 C1.55449608 -0.01292336 1.55449608 -0.01292336 3.14039612 -0.02610779 C6.56325308 -0.04879573 9.98529327 -0.04202371 13.40820312 -0.03295898 C15.78804773 -0.03819304 18.16789025 -0.04446872 20.54772949 -0.05174255 C25.5343604 -0.06215184 30.52070604 -0.05757704 35.50732422 -0.04296875 C41.90010038 -0.02577484 48.2919783 -0.04928205 54.68465424 -0.08445835 C59.59859177 -0.10640901 64.51231357 -0.10499652 69.42628479 -0.09669304 C71.78342169 -0.09587236 74.14057424 -0.10275793 76.49766541 -0.11746407 C79.79197579 -0.13486725 83.08466151 -0.12040123 86.37890625 -0.09765625 C87.84095238 -0.11519455 87.84095238 -0.11519455 89.33253479 -0.13308716 C93.94129738 -0.06828542 96.02522035 0.03036712 99.7947998 2.88539124 C101.68945312 5.53344727 101.68945312 5.53344727 102.31445312 8.53344727 C101.44448971 12.70927166 100.09013243 13.95673655 96.68945312 16.53344727 C93.25475687 17.27297915 89.8815724 17.21679124 86.37890625 17.18041992 C85.34257553 17.18918152 84.30624481 17.19794312 83.23851013 17.20697021 C79.81548095 17.22896312 76.39374527 17.21441076 72.97070312 17.19750977 C70.59085848 17.2008779 68.21101551 17.20573049 65.83117676 17.21200562 C60.84447852 17.21937685 55.8582282 17.20866266 50.87158203 17.18530273 C44.47877601 17.15681565 38.08701952 17.17321816 31.69425201 17.20316505 C26.78029468 17.22123075 21.86658628 17.21548316 16.95262146 17.20252609 C14.59549333 17.19919011 12.23834261 17.20328586 9.88124084 17.21492386 C6.58688476 17.22761975 3.29422937 17.20827079 0 17.18041992 C-0.97469742 17.19054108 -1.94939484 17.20066223 -2.95362854 17.21109009 C-7.53649584 17.13929328 -9.65123114 17.02554965 -13.41589355 14.21566772 C-15.31054688 11.53344727 -15.31054688 11.53344727 -15.93554688 7.97094727 C-15.31054688 4.53344727 -15.31054688 4.53344727 -13.41589355 2.35194397 C-8.94962341 -0.26351201 -5.09078494 -0.03408427 0 0 Z " fill="#EFEFEF" transform="translate(161.310546875,212.466552734375)"/>
<path d="M0 0 C4.01611878 2.11961824 6.53912477 4.16270303 9 8 C9.28614917 10.76133953 9.38589883 13.08145612 9.25 15.8125 C9.23195312 16.50537109 9.21390625 17.19824219 9.1953125 17.91210938 C9.14851064 19.60867664 9.07677624 21.30452476 9 23 C8.01 22.67 7.02 22.34 6 22 C6 22.99 6 23.98 6 25 C6.66 25 7.32 25 8 25 C7.73118823 31.04826484 7.08176177 35.2379446 3 40 C-0.43602812 42.57702109 -1.60072868 43 -6 43 C-5.69964844 43.51949219 -5.39929688 44.03898437 -5.08984375 44.57421875 C-2 50.24067797 -2 50.24067797 -2 53.8125 C-3.30781688 56.67334943 -4.15067726 57.61186841 -7 59 C-14.07284536 60.2630081 -18.34698986 57.52702784 -24.36328125 53.921875 C-26.83609322 52.11946983 -28.34815231 50.54824285 -30 48 C-29.54625 47.62875 -29.0925 47.2575 -28.625 46.875 C-24.1637507 41.72740466 -24.4380813 34.47899188 -24 28 C-23.01 28.99 -22.02 29.98 -21 31 C-21.33 30.401875 -21.66 29.80375 -22 29.1875 C-23 27 -23 27 -23 24 C-23.61875 23.9175 -24.2375 23.835 -24.875 23.75 C-27 23 -27 23 -28.25 21.3125 C-29.19468289 18.39972774 -29.26467309 16.04374056 -29 13 C-28.34 12.34 -27.68 11.68 -27 11 C-23.70285207 11.32971479 -22.3773161 11.6226839 -20 14 C-14.25326058 13.70116955 -9.44752756 11.60037945 -5 8 C-2.83652095 5.52745251 -1.38067075 2.97375237 0 0 Z " fill="#EDB5B3" transform="translate(117,271)"/>
<path d="M0 0 C0.79664063 0.34933594 1.59328125 0.69867188 2.4140625 1.05859375 C3.47367188 1.51363281 4.53328125 1.96867187 5.625 2.4375 C6.66914062 2.88996094 7.71328125 3.34242188 8.7890625 3.80859375 C12.38743327 5.25882976 12.38743327 5.25882976 18 6 C17.34 10.29 16.68 14.58 16 19 C17.65 19.66 19.3 20.32 21 21 C27.10526113 24.39502673 32.54136733 28.36401724 37.8125 32.9375 C46.81076402 40.5936105 56.42946425 46.19502164 68 49 C67.505 53.95 67.505 53.95 67 59 C65.08458862 59.10841951 63.16740227 59.18578079 61.25 59.25 C60.18265625 59.29640625 59.1153125 59.3428125 58.015625 59.390625 C54.22821417 58.90002774 53.63308959 57.67125031 51 55 C48.16868793 53.67428687 45.21381488 52.73617043 42.25 51.75 C30.09528642 47.46385805 18.88105158 42.30423909 8.3125 34.875 C7.74813232 34.47949951 7.18376465 34.08399902 6.60229492 33.67651367 C2.33973278 30.54874345 -1.74842663 26.99314952 -3.828125 22.01953125 C-4.48093216 14.34904716 -3.63860054 6.80260101 0 0 Z " fill="#FBBCB9" transform="translate(45,368)"/>
<path d="M0 0 C0.80419373 -0.00807175 1.60838745 -0.01614349 2.43695068 -0.02445984 C4.1417017 -0.03830173 5.84648045 -0.04902342 7.55126953 -0.05688477 C10.14800244 -0.07406085 12.74344976 -0.11793959 15.33984375 -0.16210938 C16.99738648 -0.1722398 18.65494003 -0.18075481 20.3125 -0.1875 C21.47063202 -0.21376213 21.47063202 -0.21376213 22.65216064 -0.24055481 C27.86766142 -0.21976295 30.76280837 0.8292167 34.921875 4.23828125 C37.83217888 7.73064591 38.39969819 10.69867711 38.2109375 15.24609375 C37.61317663 19.36579703 35.97740291 22.28170908 32.921875 25.05078125 C26.98723386 28.57447443 19.35102716 27.54010551 12.64428711 27.58837891 C10.95957618 27.60492909 9.2749352 27.63220719 7.59057617 27.67041016 C5.15246436 27.72537102 2.7159928 27.74707955 0.27734375 27.76171875 C-0.46973343 27.78438812 -1.21681061 27.8070575 -1.98652649 27.83041382 C-5.95132428 27.81451226 -8.47899942 27.30324951 -11.51635742 24.83129883 C-15.16549339 21.13764848 -16.38267954 18.59694246 -16.578125 13.42578125 C-16.50441254 8.44281896 -15.0050543 6.0255879 -11.5859375 2.515625 C-8.08839626 -0.44731796 -4.36195915 0.04129982 0 0 Z " fill="#293237" transform="translate(193.078125,241.76171875)"/>
<path d="M0 0 C4.14732667 3.01942195 8.23885466 6.02285012 10 11 C9.78039983 13.52062804 9.29480079 14.66689176 7.6171875 16.5625 C-2.74277479 25.11063032 -11.57838788 26.78772441 -25 26 C-32.54439437 24.8321371 -39.70415915 20.4047273 -45 15 C-45.55078125 12.55859375 -45.55078125 12.55859375 -45 10 C-41.09887657 3.88447075 -35.88787251 -1.16699965 -28.93359375 -3.4453125 C-19.16726672 -5.29194158 -8.6841925 -5.31906791 0 0 Z " fill="#F30C0C" transform="translate(222,134)"/>
<path d="M0 0 C3.59483799 1.64655649 6.68379387 3.82631652 9.9375 6.0625 C19.76428558 12.58563676 30.78475682 16.87968312 41.77294922 21.05322266 C42.6651416 21.39530762 43.55733398 21.73739258 44.4765625 22.08984375 C45.28174316 22.39140381 46.08692383 22.69296387 46.91650391 23.00366211 C49.8097722 24.38723698 51.34736583 26.29568954 53 29 C44.64736824 29.95458649 36.40215965 30.11039334 28 30 C28 30.66 28 31.32 28 32 C26.9378125 32.02578125 25.875625 32.0515625 24.78125 32.078125 C11.75189594 32.53432192 5.6367048 35.05380614 -3.99609375 44.171875 C-6 46 -6 46 -7 46 C-7.86214228 30.19405817 -4.56819507 15.08888674 0 0 Z " fill="#F30C0C" transform="translate(48,399)"/>
<path d="M0 0 C2.42688509 1.64401893 2.89889363 2.55908823 3.9375 5.3125 C4.2327194 8.08644833 4.44462231 10.7825511 4.5625 13.5625 C4.60117187 14.30757813 4.63984375 15.05265625 4.6796875 15.8203125 C4.77355108 17.6506524 4.85659718 19.48154143 4.9375 21.3125 C6.9175 20.9825 8.8975 20.6525 10.9375 20.3125 C10.9375 21.3025 10.9375 22.2925 10.9375 23.3125 C9.6175 23.6425 8.2975 23.9725 6.9375 24.3125 C6.60878906 25.91351563 6.60878906 25.91351563 6.2734375 27.546875 C4.47416563 36.08663032 2.42545371 44.50801009 -0.0625 52.875 C-0.2992041 53.68227539 -0.5359082 54.48955078 -0.77978516 55.32128906 C-2.46258436 60.85912453 -4.60096679 66.07627532 -7.0625 71.3125 C-8.33038761 67.50883716 -7.56430969 66.14668604 -6.26171875 62.39453125 C-5.86146484 61.22212891 -5.46121094 60.04972656 -5.04882812 58.84179688 C-4.4059082 57.00198242 -4.4059082 57.00198242 -3.75 55.125 C1.39620162 41.55883961 1.39620162 41.55883961 2.9375 27.3125 C2.45539063 27.8178125 1.97328125 28.323125 1.4765625 28.84375 C0.52910156 29.81828125 0.52910156 29.81828125 -0.4375 30.8125 C-1.37722656 31.78703125 -1.37722656 31.78703125 -2.3359375 32.78125 C-4.0625 34.3125 -4.0625 34.3125 -6.0625 34.3125 C-5.4025 36.9525 -4.7425 39.5925 -4.0625 42.3125 C-5.3825 41.9825 -6.7025 41.6525 -8.0625 41.3125 C-7.7325 42.6325 -7.4025 43.9525 -7.0625 45.3125 C-10.0625 43.3125 -10.0625 43.3125 -10.75 41.1875 C-10.853125 40.56875 -10.95625 39.95 -11.0625 39.3125 C-11.0625 41.9525 -11.0625 44.5925 -11.0625 47.3125 C-11.7225 46.9825 -12.3825 46.6525 -13.0625 46.3125 C-13.0625 44.6625 -13.0625 43.0125 -13.0625 41.3125 C-13.7225 41.3125 -14.3825 41.3125 -15.0625 41.3125 C-14.7325 43.9525 -14.4025 46.5925 -14.0625 49.3125 C-14.7225 48.9825 -15.3825 48.6525 -16.0625 48.3125 C-16.0625 47.6525 -16.0625 46.9925 -16.0625 46.3125 C-19.22916667 48.14583333 -19.22916667 48.14583333 -21.0625 51.3125 C-20.0625 43.88392857 -20.0625 43.88392857 -19.0625 40.3125 C-20.031875 39.77625 -21.00125 39.24 -22 38.6875 C-25.0625 36.3125 -25.0625 36.3125 -26.1875 33.4375 C-25.97107497 28.02687425 -22.59689449 24.90317085 -19.125 21.0625 C-16.70200895 18.31765801 -15.12225111 15.62258274 -13.5625 12.3125 C-11.39071967 7.72373833 -8.87546404 3.71916459 -5.0625 0.3125 C-2.0625 -0.6875 -2.0625 -0.6875 0 0 Z " fill="#F8A494" transform="translate(271.0625,405.6875)"/>
<path d="M0 0 C4.56005984 1.86547902 6.71582225 4.68544202 9 9 C9.66067786 12.96406718 9.20144076 14.61950078 7.3125 18.1875 C4.5580928 21.53745471 2.48417734 23.63646185 -1.921875 24.28125 C-6.39638862 24.48310776 -9.49302023 24.00598266 -13 21 C-15.88868756 16.6171637 -16.56796579 13.20635305 -16 8 C-12.8947692 0.80893919 -7.36028903 -1.07711547 0 0 Z " fill="#F30F0F" transform="translate(208,99)"/>
<path d="M0 0 C9.5200106 3.6890178 18.92391545 7.3264036 28.9453125 9.39453125 C29.96238281 9.69423828 29.96238281 9.69423828 31 10 C31.495 10.99 31.495 10.99 32 12 C25.39826461 13.29786347 19.04447056 12.86641257 12.35546875 12.4765625 C11.14933426 12.41093109 9.94319977 12.34529968 8.70051575 12.27767944 C6.16124396 12.1379664 3.62215569 11.99488191 1.08325195 11.84863281 C-2.81581376 11.62480978 -6.71540469 11.41317057 -10.61523438 11.203125 C-13.08337344 11.06582328 -15.55147398 10.92782678 -18.01953125 10.7890625 C-19.19030716 10.72546539 -20.36108307 10.66186829 -21.56733704 10.59634399 C-22.64573349 10.53312958 -23.72412994 10.46991516 -24.83520508 10.40478516 C-25.78671951 10.35069489 -26.73823395 10.29660461 -27.71858215 10.24087524 C-30 10 -30 10 -32 9 C-32 8.34 -32 7.68 -32 7 C-28.2535675 5.66032728 -24.5001497 4.34276172 -20.73901367 3.04492188 C-19.46153256 2.60069324 -18.18609109 2.15055224 -16.9128418 1.69433594 C-15.07892489 1.03839377 -13.23677111 0.40562705 -11.39453125 -0.2265625 C-10.28956299 -0.61408691 -9.18459473 -1.00161133 -8.04614258 -1.40087891 C-4.49909608 -2.09851873 -3.16627931 -1.62335572 0 0 Z " fill="#424B50" transform="translate(157,453)"/>
<path d="M0 0 C0.53625 0.680625 1.0725 1.36125 1.625 2.0625 C2.40875 3.031875 3.1925 4.00125 4 5 C4.43570313 5.58910156 4.87140625 6.17820312 5.3203125 6.78515625 C7.9988759 10.23215997 9.87314294 12.21252259 14.125 13.4375 C17.58611866 14.50705874 18.84134344 15.6768648 20.5625 18.875 C21.62781369 21.4554265 22 22.98569237 22 25.8125 C20.69218312 28.67334943 19.84932274 29.61186841 17 31 C9.92715464 32.2630081 5.65301014 29.52702784 -0.36328125 25.921875 C-2.83609322 24.11946983 -4.34815231 22.54824285 -6 20 C-5.54625 19.62875 -5.0925 19.2575 -4.625 18.875 C-0.1637507 13.72740466 -0.4380813 6.47899188 0 0 Z " fill="#F8BBB8" transform="translate(93,299)"/>
<path d="M0 0 C0.99 0 1.98 0 3 0 C3.680625 1.1446875 3.680625 1.1446875 4.375 2.3125 C6.21498538 5.35555274 7.87871115 6.397176 11 8 C10.7834375 8.7734375 10.7834375 8.7734375 10.5625 9.5625 C9.69682071 13.31377692 9 17.14254404 9 21 C9.9590625 21.309375 9.9590625 21.309375 10.9375 21.625 C13 23 13 23 14.0625 25.8125 C14 29 14 29 11.625 31.6875 C10.75875 32.450625 9.8925 33.21375 9 34 C8.67 34.99 8.34 35.98 8 37 C6.24871182 36.71617054 4.49899997 36.42260471 2.75 36.125 C1.77546875 35.96257812 0.8009375 35.80015625 -0.203125 35.6328125 C-2.77264117 35.05144152 -4.72071056 34.29159735 -7 33 C-6.51789063 32.26394531 -6.03578125 31.52789062 -5.5390625 30.76953125 C-4.90742188 29.79371094 -4.27578125 28.81789063 -3.625 27.8125 C-2.99851563 26.84957031 -2.37203125 25.88664062 -1.7265625 24.89453125 C1.19951167 20.25515615 1.19951167 20.25515615 1.78295898 14.98461914 C0.74859588 12.36274896 -0.27145701 11.99046355 -2.81640625 10.859375 C-3.58017578 10.51132812 -4.34394531 10.16328125 -5.13085938 9.8046875 C-5.93330078 9.45664062 -6.73574219 9.10859375 -7.5625 8.75 C-8.36880859 8.38648438 -9.17511719 8.02296875 -10.00585938 7.6484375 C-11.99843429 6.75236831 -13.9960918 5.87035558 -16 5 C-13 4 -13 4 -10.08203125 5.21484375 C-8.46361328 6.06755859 -8.46361328 6.06755859 -6.8125 6.9375 C-5.72582031 7.50339844 -4.63914063 8.06929688 -3.51953125 8.65234375 C-2.68808594 9.09707031 -1.85664063 9.54179687 -1 10 C-0.67 6.7 -0.34 3.4 0 0 Z " fill="#F3BBB9" transform="translate(242,438)"/>
<path d="M0 0 C-1.98878229 6.35033123 -4.92452223 11.99285228 -8 17.875 C-8.87132568 19.54369141 -8.87132568 19.54369141 -9.76025391 21.24609375 C-23.74034757 47.74034757 -23.74034757 47.74034757 -33 57 C-34.99958364 57.04080783 -37.00045254 57.04254356 -39 57 C-38.45085937 56.17435547 -38.45085937 56.17435547 -37.890625 55.33203125 C-33.76197518 48.99160473 -29.93834283 42.50684352 -26.1875 35.9375 C-25.671875 35.03668701 -25.15625 34.13587402 -24.625 33.20776367 C-22.11452864 28.79917876 -19.65084801 24.37481881 -17.28515625 19.88671875 C-6.74441481 0 -6.74441481 0 0 0 Z " fill="#F40D0D" transform="translate(466,372)"/>
<path d="M0 0 C0.33 0 0.66 0 1 0 C1.28825613 11.0542529 1.5322098 22.0543102 -0.25 33 C-0.35932861 33.70946777 -0.46865723 34.41893555 -0.58129883 35.14990234 C-1.87186583 42.22217564 -5.30363545 47.37954431 -9.75 52.9375 C-10.36359375 53.70964844 -10.9771875 54.48179687 -11.609375 55.27734375 C-12.06828125 55.84582031 -12.5271875 56.41429687 -13 57 C-14.17741347 53.54785574 -13.79795628 51.41410972 -12.8125 47.9375 C-11.60154594 43.43733289 -10.56382442 38.949404 -9.66015625 34.38085938 C-4.70144558 9.40289116 -4.70144558 9.40289116 0 0 Z " fill="#F40D0D" transform="translate(437,357)"/>
<path d="M0 0 C0.66 0.33 1.32 0.66 2 1 C7.90618266 18.86437966 4.73689216 41.90825508 -2 59 C-2.66 59.66 -3.32 60.32 -4 61 C-4.43628177 40.27325987 -4.62226239 20.34225713 0 0 Z " fill="#F40C0C" transform="translate(421,339)"/>
<path d="M0 0 C8.69960611 4.09504236 14.20039796 11.55942529 20 19 C20.556875 19.63679688 21.11375 20.27359375 21.6875 20.9296875 C23.46163843 23.72817967 23.78530416 26.23213895 24.25 29.5 C24.42015625 30.6240625 24.5903125 31.748125 24.765625 32.90625 C24.97363344 35.65196139 24.88243251 37.42833953 24 40 C16.80079398 31.80551204 11.48468124 22.84439987 6.375 13.25 C6.05787048 12.65544006 5.74074097 12.06088013 5.41400146 11.44830322 C0 1.26200911 0 1.26200911 0 0 Z " fill="#F40E0E" transform="translate(369,370)"/>
<path d="M0 0 C6.47774481 3.67655786 6.47774481 3.67655786 8 6 C8.24806737 8.71795554 8.13476345 11.25980988 8 14 C7.21625 14.2475 6.4325 14.495 5.625 14.75 C2.85960111 15.72120368 2.85960111 15.72120368 2.0625 18.0625 C1.711875 18.701875 1.36125 19.34125 1 20 C-2.125 20.75 -2.125 20.75 -5 21 C-4.67 22.65 -4.34 24.3 -4 26 C-6.375 26.625 -6.375 26.625 -9 27 C-11.41486943 24.58513057 -11.2961925 23.87292211 -11.3125 20.5625 C-11.32925781 19.78003906 -11.34601563 18.99757813 -11.36328125 18.19140625 C-10.91856176 15.50874352 -10.16630139 14.60117929 -8 13 C-5.8125 13.3125 -5.8125 13.3125 -4 14 C-4 13.67 -4 13.34 -4 13 C-5.65 12.67 -7.3 12.34 -9 12 C-8.2575 11.319375 -7.515 10.63875 -6.75 9.9375 C-3.75618047 6.96926868 -1.96562715 3.71285128 0 0 Z " fill="#F4B9B6" transform="translate(117,271)"/>
<path d="M0 0 C0.66 0 1.32 0 2 0 C2.9605272 2.37413326 3.91847353 4.74925519 4.875 7.125 C5.14441406 7.79015625 5.41382813 8.4553125 5.69140625 9.140625 C11.01294046 22.37956377 10.32588022 32.96165153 8 47 C0.49731642 33.03295066 -0.21643796 15.54746018 0 0 Z " fill="#F40C0C" transform="translate(397,355)"/>
<path d="M0 0 C0.33 0 0.66 0 1 0 C1.33 7.59 1.66 15.18 2 23 C4.3203125 20.9890625 4.3203125 20.9890625 6.6875 18.9375 C9.32421875 16.65234375 9.32421875 16.65234375 12 15 C14.83203125 15.25390625 14.83203125 15.25390625 17 16 C16.67 16.66 16.34 17.32 16 18 C13.9375 18.625 13.9375 18.625 12 19 C11.78085937 20.06734375 11.56171875 21.1346875 11.3359375 22.234375 C9.53666563 30.77413032 7.48795371 39.19551009 5 47.5625 C4.7632959 48.36977539 4.5265918 49.17705078 4.28271484 50.00878906 C2.59991564 55.54662453 0.46153321 60.76377532 -2 66 C-3.26788761 62.19633716 -2.50180969 60.83418604 -1.19921875 57.08203125 C-0.79896484 55.90962891 -0.39871094 54.73722656 0.01367188 53.52929688 C0.44228516 52.30275391 0.87089844 51.07621094 1.3125 49.8125 C6.45870162 36.24633961 6.45870162 36.24633961 8 22 C7.51789063 22.5053125 7.03578125 23.010625 6.5390625 23.53125 C5.59160156 24.50578125 5.59160156 24.50578125 4.625 25.5 C3.99851562 26.1496875 3.37203125 26.799375 2.7265625 27.46875 C1 29 1 29 -1 29 C-0.34 31.64 0.32 34.28 1 37 C-0.32 36.67 -1.64 36.34 -3 36 C-2.67 37.32 -2.34 38.64 -2 40 C-5.60654039 37.59563974 -5.85452932 36.05320393 -7 32 C-6.01 32 -5.02 32 -4 32 C-3.690625 31.360625 -3.38125 30.72125 -3.0625 30.0625 C-2 28 -2 28 -1 27 C-0.84174742 25.00217874 -0.74880829 22.99911166 -0.68359375 20.99609375 C-0.64169922 19.78115234 -0.59980469 18.56621094 -0.55664062 17.31445312 C-0.51732422 16.03505859 -0.47800781 14.75566406 -0.4375 13.4375 C-0.39431641 12.15423828 -0.35113281 10.87097656 -0.30664062 9.54882812 C-0.200152 6.36600147 -0.09814038 3.18309326 0 0 Z " fill="#765C5A" transform="translate(266,411)"/>
<path d="M0 0 C2.625 -0.1875 2.625 -0.1875 5 0 C7.65291908 3.99016284 7.51281297 8.24541503 7.625 12.875 C7.71201172 14.06029297 7.71201172 14.06029297 7.80078125 15.26953125 C7.88162413 19.00695984 7.83324979 21.12930078 5.17480469 23.90722656 C3.17310871 25.41092672 1.17027358 26.75449968 -1 28 C-1.22556502 23.89658886 -1.42750038 19.79235012 -1.625 15.6875 C-1.68945312 14.52025391 -1.75390625 13.35300781 -1.8203125 12.15039062 C-1.871875 11.03212891 -1.9234375 9.91386719 -1.9765625 8.76171875 C-2.02893066 7.73006592 -2.08129883 6.69841309 -2.13525391 5.63549805 C-2 3 -2 3 0 0 Z " fill="#F7A393" transform="translate(268,407)"/>
<path d="M0 0 C9.57 0.33 19.14 0.66 29 1 C29 4.96 29 8.92 29 13 C28.154375 12.59007812 27.30875 12.18015625 26.4375 11.7578125 C20.29375604 8.83953412 14.62796392 6.46039883 8 5 C5.29998545 4.07201573 2.65830713 3.04433494 0 2 C0 1.34 0 0.68 0 0 Z " fill="#374045" transform="translate(213,436)"/>
<path d="M0 0 C0.33 0 0.66 0 1 0 C1 4.95 1 9.9 1 15 C0.01 14.67 -0.98 14.34 -2 14 C-2 14.99 -2 15.98 -2 17 C-1.34 17 -0.68 17 0 17 C0 17.99 0 18.98 0 20 C-2.375 20.1875 -2.375 20.1875 -5 20 C-7 17 -7 17 -7 13 C-7.66 13 -8.32 13 -9 13 C-9.309375 13.969375 -9.61875 14.93875 -9.9375 15.9375 C-11 19 -11 19 -12 20 C-14.875 20.375 -14.875 20.375 -18 20 C-19.9375 17.9375 -19.9375 17.9375 -21 15 C-20.6875 11.1875 -20.6875 11.1875 -20 8 C-21.65 8 -23.3 8 -25 8 C-25 7.34 -25 6.68 -25 6 C-20.51023509 4.24789662 -16.81989758 3.62923865 -12 4 C-11.34 4.66 -10.68 5.32 -10 6 C-10.33 6.99 -10.66 7.98 -11 9 C-11.66 8.01 -12.32 7.02 -13 6 C-15.75641416 6.49756092 -15.75641416 6.49756092 -18 8 C-18.07179964 9.51928038 -18.08392007 11.04167482 -18.0625 12.5625 C-18.05347656 13.38878906 -18.04445313 14.21507812 -18.03515625 15.06640625 C-18.02355469 15.70449219 -18.01195313 16.34257812 -18 17 C-16.35 17.33 -14.7 17.66 -13 18 C-13 16.35 -13 14.7 -13 13 C-12.01 13 -11.02 13 -10 13 C-9.67 12.01 -9.34 11.02 -9 10 C-9 10.66 -9 11.32 -9 12 C-8.34 12 -7.68 12 -7 12 C-6.773125 11.195625 -6.54625 10.39125 -6.3125 9.5625 C-5.879375 8.716875 -5.44625 7.87125 -5 7 C-2.375 6.1875 -2.375 6.1875 0 6 C0 4.02 0 2.04 0 0 Z " fill="#62585B" transform="translate(125,279)"/>
<path d="M0 0 C1.35439668 2.70879335 1.06501451 5.00933268 1 8 C-3.455 8.495 -3.455 8.495 -8 9 C-10.03165952 13.33420699 -10.52060632 17.28596212 -11 22 C-11.66 22 -12.32 22 -13 22 C-14.7704631 16.89690047 -15.39609497 13.38493774 -14 8 C-11.43838495 3.49155752 -8.52116412 2.09119001 -3.8046875 0.48046875 C-2 0 -2 0 0 0 Z " fill="#F8BBB8" transform="translate(129,369)"/>
<path d="M0 0 C4.29 0 8.58 0 13 0 C13 4.29 13 8.58 13 13 C9.04 13 5.08 13 1 13 C1 12.01 1 11.02 1 10 C3.5 8.3125 3.5 8.3125 6 7 C4.68 5.68 3.36 4.36 2 3 C1.67 3.66 1.34 4.32 1 5 C0.67 3.35 0.34 1.7 0 0 Z " fill="#273136" transform="translate(198,249)"/>
<path d="M0 0 C-0.556875 0.226875 -1.11375 0.45375 -1.6875 0.6875 C-7.18399713 3.80713351 -10.35909934 8.42476528 -13 14 C-13.47116864 18.0049334 -13.11626861 20.5610635 -11 24 C-11.99 23.67 -12.98 23.34 -14 23 C-14.33 22.34 -14.66 21.68 -15 21 C-15 22.65 -15 24.3 -15 26 C-15.66 25.67 -16.32 25.34 -17 25 C-17 24.34 -17 23.68 -17 23 C-17.66 23 -18.32 23 -19 23 C-18.34 25.31 -17.68 27.62 -17 30 C-18.32 29.34 -19.64 28.68 -21 28 C-20.67 29.32 -20.34 30.64 -20 32 C-20.66 31.67 -21.32 31.34 -22 31 C-22 30.34 -22 29.68 -22 29 C-22.66 29.33 -23.32 29.66 -24 30 C-24.34900558 33.71736641 -24.34900558 33.71736641 -22.5 36.8125 C-22.005 37.204375 -21.51 37.59625 -21 38 C-22.875 37.6875 -22.875 37.6875 -25 37 C-27 34 -27 34 -27 31.3125 C-25.47368356 26.25657679 -22.31217374 22.14909851 -18.44921875 18.55859375 C-16.64762562 16.62103133 -15.7754782 14.65775931 -14.6875 12.25 C-12.43171264 7.59530886 -9.88565646 3.4716111 -6 0 C-3 -1 -3 -1 0 0 Z " fill="#926C66" transform="translate(272,406)"/>
<path d="M0 0 C5.94 0 11.88 0 18 0 C18 5.61 18 11.22 18 17 C12.06 17 6.12 17 0 17 C0 15.02 0 13.04 0 11 C0.66 11 1.32 11 2 11 C2 12.32 2 13.64 2 15 C6.29 15 10.58 15 15 15 C15 10.71 15 6.42 15 2 C10.71 2 6.42 2 2 2 C2 2.99 2 3.98 2 5 C1.34 5 0.68 5 0 5 C0 3.35 0 1.7 0 0 Z " fill="#D69185" transform="translate(196,247)"/>
<path d="M0 0 C2.5 0.25 2.5 0.25 4.5 2.25 C4.625 5.875 4.625 5.875 4.5 9.25 C1.125 9.375 1.125 9.375 -2.5 9.25 C-4.5 7.25 -4.5 7.25 -4.75 4.75 C-4.40058445 1.25584452 -3.49415548 0.34941555 0 0 Z " fill="#586065" transform="translate(319.5,84.75)"/>
<path d="M0 0 C2.125 0.375 2.125 0.375 4 1 C4 3.31 4 5.62 4 8 C3.01 7.67 2.02 7.34 1 7 C1 7.99 1 8.98 1 10 C1.66 10.33 2.32 10.66 3 11 C1.68 11.33 0.36 11.66 -1 12 C-3 9 -3 9 -2.75 5.4375 C-2 2 -2 2 0 0 Z " fill="#ECB4B2" transform="translate(122,286)"/>
<path d="M0 0 C2.5625 0.1875 2.5625 0.1875 4.5625 2.1875 C4.00694444 6.74305556 4.00694444 6.74305556 2.5625 8.1875 C0.0625 8.3125 0.0625 8.3125 -2.4375 8.1875 C-3.4375 7.1875 -3.4375 7.1875 -3.5625 4.1875 C-3.39891479 0.26145498 -3.39891479 0.26145498 0 0 Z " fill="#FE9C8C" transform="translate(139.4375,48.8125)"/>
<path d="M0 0 C1.2065625 0.0309375 1.2065625 0.0309375 2.4375 0.0625 C2.81813221 2.3885857 3.15019945 4.72305264 3.4375 7.0625 C2.4375 8.0625 2.4375 8.0625 0 8.25 C-2.5625 8.0625 -2.5625 8.0625 -4.5625 6.0625 C-3.83457637 0.09352625 -3.83457637 0.09352625 0 0 Z " fill="#FE9D8D" transform="translate(126.5625,48.9375)"/>
<path d="M0 0 C2.625 0.375 2.625 0.375 5 1 C5.625 3.375 5.625 3.375 6 6 C5.34 6.66 4.68 7.32 4 8 C1.375 7.625 1.375 7.625 -1 7 C-1.625 4.625 -1.625 4.625 -2 2 C-1.34 1.34 -0.68 0.68 0 0 Z " fill="#FEA493" transform="translate(151,49)"/>
<path d="M0 0 C0.5775 0.37125 1.155 0.7425 1.75 1.125 C2.4925 1.41375 3.235 1.7025 4 2 C5.32 1.34 6.64 0.68 8 0 C8.33 2.97 8.66 5.94 9 9 C8.34 8.67 7.68 8.34 7 8 C7 6.35 7 4.7 7 3 C6.34 3 5.68 3 5 3 C5.33 5.64 5.66 8.28 6 11 C5.34 10.67 4.68 10.34 4 10 C4 9.34 4 8.68 4 8 C0.83333333 9.83333333 0.83333333 9.83333333 -1 13 C-0.11494253 6.42528736 -0.11494253 6.42528736 0.625 3.6875 C1.20969226 1.89389066 1.20969226 1.89389066 0 0 Z " fill="#795F5D" transform="translate(251,444)"/>
<path d="M0 0 C1.32 0.66 2.64 1.32 4 2 C4 2.99 4 3.98 4 5 C2.02 5.99 2.02 5.99 0 7 C0 6.34 0 5.68 0 5 C-2.97 5 -5.94 5 -9 5 C-9 4.01 -9 3.02 -9 2 C-6.03 2 -3.06 2 0 2 C0 1.34 0 0.68 0 0 Z " fill="#C98A7F" transform="translate(200,252)"/>
<path d="M0 0 C0.66 0.66 1.32 1.32 2 2 C1.67 2.99 1.34 3.98 1 5 C0.34 4.01 -0.32 3.02 -1 2 C-3.75641416 2.49756092 -3.75641416 2.49756092 -6 4 C-6.36760731 6.32817964 -6.70241581 8.6618385 -7 11 C-7.66 11 -8.32 11 -9 11 C-8.67 8.69 -8.34 6.38 -8 4 C-9.65 4 -11.3 4 -13 4 C-13 3.34 -13 2.68 -13 2 C-8.51023509 0.24789662 -4.81989758 -0.37076135 0 0 Z " fill="#877173" transform="translate(113,283)"/>
<path d="M0 0 C1.58502671 3.17005342 1.60385067 6.49124878 2 10 C0.68 9.67 -0.64 9.34 -2 9 C-1.67 10.32 -1.34 11.64 -1 13 C-4.60654039 10.59563974 -4.85452932 9.05320393 -6 5 C-5.01 5 -4.02 5 -3 5 C-2.5359375 4.0409375 -2.5359375 4.0409375 -2.0625 3.0625 C-1 1 -1 1 0 0 Z " fill="#9A706A" transform="translate(265,438)"/>
<path d="M0 0 C0.66 0 1.32 0 2 0 C2.33 0.66 2.66 1.32 3 2 C3.66 2 4.32 2 5 2 C5 2.66 5 3.32 5 4 C4.34 4 3.68 4 3 4 C3 4.66 3 5.32 3 6 C3.66 6.33 4.32 6.66 5 7 C4.01 7 3.02 7 2 7 C2 7.99 2 8.98 2 10 C1.34 10 0.68 10 0 10 C-0.33 9.01 -0.66 8.02 -1 7 C-1.99 7.495 -1.99 7.495 -3 8 C-3 6 -3 4 -3 2 C-2.34 2 -1.68 2 -1 2 C-0.67 1.34 -0.34 0.68 0 0 Z " fill="#5E666A" transform="translate(182,188)"/>
<path d="M0 0 C0.66 0 1.32 0 2 0 C2.33 0.66 2.66 1.32 3 2 C3.66 2 4.32 2 5 2 C5 6 5 6 4 8 C3.67 7.67 3.34 7.34 3 7 C2.67 7.99 2.34 8.98 2 10 C1.34 10 0.68 10 0 10 C0 9.01 0 8.02 0 7 C-0.99 6.67 -1.98 6.34 -3 6 C-2.34 6 -1.68 6 -1 6 C-1 5.34 -1 4.68 -1 4 C-1.66 4 -2.32 4 -3 4 C-3 3.34 -3 2.68 -3 2 C-2.34 2 -1.68 2 -1 2 C-0.67 1.34 -0.34 0.68 0 0 Z " fill="#5E666A" transform="translate(194,188)"/>
<path d="M0 0 C0.66 0 1.32 0 2 0 C2.33 0.66 2.66 1.32 3 2 C3.66 2 4.32 2 5 2 C5 6 5 6 4 8 C3.67 7.67 3.34 7.34 3 7 C2.67 7.99 2.34 8.98 2 10 C1.34 10 0.68 10 0 10 C0 9.01 0 8.02 0 7 C-0.99 6.67 -1.98 6.34 -3 6 C-2.34 6 -1.68 6 -1 6 C-1 5.34 -1 4.68 -1 4 C-1.66 4 -2.32 4 -3 4 C-3 3.34 -3 2.68 -3 2 C-2.34 2 -1.68 2 -1 2 C-0.67 1.34 -0.34 0.68 0 0 Z " fill="#5E666A" transform="translate(157,188)"/>
<path d="M0 0 C1.44197868 2.88395737 1.58833581 5.82430479 2 9 C1.34 8.67 0.68 8.34 0 8 C0 7.34 0 6.68 0 6 C-0.99 6.495 -0.99 6.495 -2 7 C-2.34900558 10.71736641 -2.34900558 10.71736641 -0.5 13.8125 C-0.005 14.204375 0.49 14.59625 1 15 C-0.875 14.6875 -0.875 14.6875 -3 14 C-5 11 -5 11 -4.875 8.125 C-3.89056879 4.60917423 -2.44024453 2.67639722 0 0 Z " fill="#594E4F" transform="translate(250,429)"/>
<path d="M0 0 C-0.556875 0.226875 -1.11375 0.45375 -1.6875 0.6875 C-8.21240251 4.39082305 -11.42509214 10.67327304 -15 17 C-15.33 16.34 -15.66 15.68 -16 15 C-14.92578125 12.5390625 -14.92578125 12.5390625 -13.3125 9.625 C-12.79300781 8.66851562 -12.27351563 7.71203125 -11.73828125 6.7265625 C-8.74118481 2.02549886 -5.93898514 -1.97966171 0 0 Z " fill="#35393D" transform="translate(272,406)"/>
<path d="M0 0 C0.33 0.66 0.66 1.32 1 2 C1.66 2.33 2.32 2.66 3 3 C3 6 3 6 1.625 7.6875 C0 9 0 9 -2 9 C-2 8.34 -2 7.68 -2 7 C-2.99 6.67 -3.98 6.34 -5 6 C-5 3 -5 3 -3.625 1.3125 C-2 0 -2 0 0 0 Z " fill="#50595E" transform="translate(196,217)"/>
<path d="M0 0 C0.33 0.66 0.66 1.32 1 2 C1.66 2.33 2.32 2.66 3 3 C3 6 3 6 1.625 7.6875 C0 9 0 9 -2 9 C-2 8.34 -2 7.68 -2 7 C-2.99 6.67 -3.98 6.34 -5 6 C-5 3 -5 3 -3.625 1.3125 C-2 0 -2 0 0 0 Z " fill="#50595E" transform="translate(159,217)"/>
<path d="M0 0 C0.33 0.99 0.66 1.98 1 3 C2.32 2.67 3.64 2.34 5 2 C4.67 2.99 4.34 3.98 4 5 C4.33 5.66 4.66 6.32 5 7 C4.01 7 3.02 7 2 7 C2 7.66 2 8.32 2 9 C1.34 9 0.68 9 0 9 C-0.33 8.34 -0.66 7.68 -1 7 C-1.66 6.67 -2.32 6.34 -3 6 C-3 3 -3 3 -1.5 1.3125 C-0.7575 0.6628125 -0.7575 0.6628125 0 0 Z " fill="#495257" transform="translate(182,217)"/>
<path d="M0 0 C2.0625 0.4375 2.0625 0.4375 4 1 C4 2.65 4 4.3 4 6 C2.125 6.625 2.125 6.625 0 7 C-0.66 6.34 -1.32 5.68 -2 5 C-1.46428571 1.46428571 -1.46428571 1.46428571 0 0 Z " fill="#EBECEC" transform="translate(318,86)"/>
<path d="M0 0 C0.33 0.99 0.66 1.98 1 3 C1.99 2.67 2.98 2.34 4 2 C4 3.32 4 4.64 4 6 C2 7.75 2 7.75 0 9 C-0.33 8.34 -0.66 7.68 -1 7 C-1.66 6.67 -2.32 6.34 -3 6 C-3 4.68 -3 3.36 -3 2 C-2.34 2 -1.68 2 -1 2 C-0.67 1.34 -0.34 0.68 0 0 Z " fill="#394348" transform="translate(170,217)"/>
<path d="M0 0 C0.33 0.99 0.66 1.98 1 3 C1.99 2.67 2.98 2.34 4 2 C4 3.32 4 4.64 4 6 C2 7.75 2 7.75 0 9 C-0.33 8.34 -0.66 7.68 -1 7 C-1.66 6.67 -2.32 6.34 -3 6 C-2.67 4.68 -2.34 3.36 -2 2 C-1.34 2.33 -0.68 2.66 0 3 C0 2.01 0 1.02 0 0 Z " fill="#394348" transform="translate(207,188)"/>
<path d="M0 0 C0.33 0.99 0.66 1.98 1 3 C1.99 2.67 2.98 2.34 4 2 C4 3.32 4 4.64 4 6 C2 7.75 2 7.75 0 9 C-0.33 8.34 -0.66 7.68 -1 7 C-1.66 6.67 -2.32 6.34 -3 6 C-2.67 4.68 -2.34 3.36 -2 2 C-1.34 2.33 -0.68 2.66 0 3 C0 2.01 0 1.02 0 0 Z " fill="#394348" transform="translate(170,188)"/>
<path d="M0 0 C-1.04874998 2.62187494 -1.64931313 3.79371361 -4.125 5.25 C-4.74375 5.4975 -5.3625 5.745 -6 6 C-5.6875 4.125 -5.6875 4.125 -5 2 C-2 0 -2 0 0 0 Z " fill="#F8443E" transform="translate(113,43)"/>
<path d="M0 0 C1.32 0 2.64 0 4 0 C4 0.99 4 1.98 4 3 C2.68 3 1.36 3 0 3 C0 2.01 0 1.02 0 0 Z " fill="#F40B0B" transform="translate(229,313)"/>
</svg>