<svg xmlns="http://www.w3.org/2000/svg" version="1.1" viewBox="36.98 55.73 426.61 394.41">
<path d="M0 0 C2.09378362 1.51644015 3.96574423 3.11919162 5.86328125 4.87109375 C9.45584431 8.10778971 12.479814 8.85359903 17.23828125 9.62109375 C18.16640625 9.55921875 19.09453125 9.49734375 20.05078125 9.43359375 C22.23828125 9.62109375 22.23828125 9.62109375 23.98828125 11.55859375 C25.13482492 14.36762573 25.52520565 16.33847904 25.81640625 19.3125 C25.89793945 20.12017822 25.97947266 20.92785645 26.06347656 21.76000977 C26.12116211 22.37416748 26.17884766 22.9883252 26.23828125 23.62109375 C27.58560522 23.61694568 27.58560522 23.61694568 28.96014786 23.61271381 C50.8009221 23.54650311 72.64167908 23.49683711 94.4825325 23.46565723 C105.04454397 23.45017868 115.60648851 23.42907026 126.16845703 23.39477539 C135.37269184 23.36490331 144.57687818 23.34552594 153.78116012 23.33882827 C158.6561926 23.33491229 163.53108642 23.32568869 168.40607452 23.30390358 C172.99263409 23.28357304 177.57899757 23.27725299 182.16559792 23.28177071 C183.85066353 23.28094397 185.53573555 23.27495788 187.22076225 23.26347733 C189.51861265 23.24858665 191.81571939 23.25212722 194.11358643 23.2603302 C196.04382093 23.25618213 196.04382093 23.25618213 198.01305008 23.25195026 C201.23828125 23.62109375 201.23828125 23.62109375 203.65224934 24.56238842 C206.30038503 27.9997285 205.78408891 31.70713522 205.73948669 35.92114258 C205.74502109 36.88530751 205.75055549 37.84947245 205.75625759 38.8428545 C205.76991987 42.08820333 205.7548644 45.33279052 205.73999023 48.578125 C205.74377137 50.89879688 205.74926971 53.2194665 205.75636292 55.54013062 C205.77036145 61.85409801 205.75911678 68.16779425 205.7426517 74.48174667 C205.72883505 81.07873516 205.73525741 87.67570736 205.73878479 94.27270508 C205.74222058 105.35274476 205.72807527 116.43268223 205.70483398 127.51269531 C205.68091228 138.91833511 205.67382931 150.3238318 205.68432617 161.72949219 C205.69694529 175.46580378 205.69445121 189.20201451 205.67866707 202.93832397 C205.67289741 208.18868556 205.67299764 213.43899926 205.67773247 218.68936157 C205.68249278 224.86829005 205.67243972 231.04701958 205.65077782 237.22591019 C205.64519688 239.49835158 205.64475654 241.77081205 205.64973068 244.04325485 C205.65565322 247.13607489 205.64323656 250.2282804 205.6259613 253.32104492 C205.63497637 254.68226329 205.63497637 254.68226329 205.64417356 256.07098103 C205.63151365 257.31028763 205.63151365 257.31028763 205.61859798 258.57463074 C205.61756885 259.28877734 205.61653973 260.00292395 205.61547941 260.73871136 C205.11422151 263.24020565 204.27792299 264.11735061 202.23828125 265.62109375 C199.15264961 265.90978584 196.27004725 266.01242475 193.18379211 265.9818573 C192.24609535 265.98442057 191.30839858 265.98698385 190.34228677 265.9896248 C187.18675884 265.99458307 184.03170486 265.97803597 180.8762207 265.96166992 C178.61964937 265.96082409 176.3630772 265.96129793 174.10650635 265.96299744 C167.96837816 265.96386053 161.83042474 265.94618386 155.69233727 265.92527556 C149.28213902 265.90656112 142.87193706 265.90476246 136.4617157 265.90119934 C125.69864289 265.89292513 114.93564673 265.8741682 104.17260742 265.84741211 C93.08602216 265.81988034 81.99945434 265.79864246 70.9128418 265.78588867 C70.22960798 265.7851005 69.54637416 265.78431233 68.84243629 265.78350028 C65.41489599 265.7795852 61.98735556 265.77579407 58.55981505 265.77206457 C30.1192595 265.74095805 1.67877382 265.68789018 -26.76171875 265.62109375 C-26.96119614 266.56677719 -27.16067352 267.51246063 -27.36619568 268.48680115 C-27.63134476 269.73566605 -27.89649384 270.98453094 -28.16967773 272.27124023 C-28.43103012 273.50567368 -28.69238251 274.74010712 -28.96165466 276.01194763 C-30.05922135 280.9631492 -31.3888843 285.82111962 -32.82421875 290.68359375 C-33.11586914 291.6772998 -33.40751953 292.67100586 -33.70800781 293.69482422 C-36.27449076 302.28104447 -39.10118321 310.77174394 -42.01171875 319.24609375 C-42.43590088 320.48496338 -42.86008301 321.72383301 -43.29711914 323.00024414 C-43.70309326 324.16676514 -44.10906738 325.33328613 -44.52734375 326.53515625 C-44.88602539 327.56592285 -45.24470703 328.59668945 -45.61425781 329.65869141 C-46.80324672 332.72830659 -48.28956169 335.67677964 -49.76171875 338.62109375 C-57.68171875 337.13609375 -57.68171875 337.13609375 -65.76171875 335.62109375 C-65.76171875 336.61109375 -65.76171875 337.60109375 -65.76171875 338.62109375 C-64.95734375 338.96140625 -64.95734375 338.96140625 -64.13671875 339.30859375 C-60.97671012 341.05491431 -58.49402045 343.26137865 -55.76171875 345.62109375 C-54.98828125 344.41453125 -54.98828125 344.41453125 -54.19921875 343.18359375 C-51.12966118 339.95662297 -49.11303416 339.87213118 -44.76171875 339.62109375 C-45.09171875 341.60109375 -45.42171875 343.58109375 -45.76171875 345.62109375 C-42.46171875 345.62109375 -39.16171875 345.62109375 -35.76171875 345.62109375 C-36.2578726 350.21051683 -36.2578726 350.21051683 -38.80859375 352.2890625 C-39.77539062 352.94841797 -39.77539062 352.94841797 -40.76171875 353.62109375 C-39.74851563 354.0078125 -38.7353125 354.39453125 -37.69140625 354.79296875 C-36.33969708 355.31863343 -34.98814275 355.84469638 -33.63671875 356.37109375 C-32.9715625 356.62375 -32.30640625 356.87640625 -31.62109375 357.13671875 C-23.10903211 360.47478214 -18.87568914 364.08905225 -14.953125 372.42578125 C-13.31502385 376.81911482 -12.78237401 380.95300424 -12.76171875 385.62109375 C-17.50520395 386.38414321 -22.05284353 386.74939008 -26.85546875 386.75390625 C-27.51632477 386.75536148 -28.17718079 386.75681671 -28.85806274 386.75831604 C-30.99267402 386.76054704 -33.12712356 386.7543127 -35.26171875 386.74609375 C-36.3553775 386.74326889 -36.3553775 386.74326889 -37.47113037 386.74038696 C-46.94487697 386.71170381 -56.41779887 386.62831942 -65.88671875 386.30859375 C-66.79615234 386.28619629 -67.70558594 386.26379883 -68.64257812 386.24072266 C-75.14926144 385.96692658 -80.20479485 384.91576904 -85.19921875 380.43359375 C-85.71484375 379.83546875 -86.23046875 379.23734375 -86.76171875 378.62109375 C-89.84355123 379.32293597 -89.84355123 379.32293597 -91.19921875 381.62109375 C-93.0889517 384.03995193 -93.79834713 384.116909 -96.76171875 384.62109375 C-98.61409951 384.71250296 -100.46959084 384.75114036 -102.32421875 384.74609375 C-103.27425781 384.74867188 -104.22429687 384.75125 -105.203125 384.75390625 C-107.76171875 384.62109375 -107.76171875 384.62109375 -110.76171875 383.62109375 C-111.36458553 351.52539392 -111.36458553 351.52539392 -106.76171875 344.62109375 C-106.14777654 341.88651628 -105.60886652 339.19180392 -105.13671875 336.43359375 C-105.00265625 335.68400391 -104.86859375 334.93441406 -104.73046875 334.16210938 C-104.40126456 332.31621447 -104.08065377 330.46879066 -103.76171875 328.62109375 C-106.07171875 327.96109375 -108.38171875 327.30109375 -110.76171875 326.62109375 C-109.26183497 317.75499568 -106.6992777 309.22198065 -104.13671875 300.62109375 C-103.50625251 298.49820322 -102.8770818 296.3749584 -102.25112915 294.25073242 C-101.68920587 292.34463293 -101.12280064 290.43985642 -100.55615234 288.53515625 C-99.67404487 285.80289901 -99.67404487 285.80289901 -99.76171875 283.62109375 C-100.76138672 283.3271875 -100.76138672 283.3271875 -101.78125 283.02734375 C-119.60284667 277.24467182 -130.87833912 263.05681434 -141.76171875 248.62109375 C-142.27686035 247.94014648 -142.79200195 247.25919922 -143.32275391 246.55761719 C-144.87290036 244.5012712 -146.41333549 242.43810954 -147.94921875 240.37109375 C-148.67214111 239.40502197 -148.67214111 239.40502197 -149.40966797 238.41943359 C-152.76171875 233.85627176 -152.76171875 233.85627176 -152.76171875 231.62109375 C-153.42171875 231.62109375 -154.08171875 231.62109375 -154.76171875 231.62109375 C-155.62818542 230.19097402 -156.47953704 228.75168756 -157.32421875 227.30859375 C-157.79988281 226.50808594 -158.27554688 225.70757812 -158.765625 224.8828125 C-159.76171875 222.62109375 -159.76171875 222.62109375 -158.76171875 219.62109375 C-160.08171875 219.62109375 -161.40171875 219.62109375 -162.76171875 219.62109375 C-162.73851562 220.39195312 -162.7153125 221.1628125 -162.69140625 221.95703125 C-162.67335937 222.95992187 -162.6553125 223.9628125 -162.63671875 224.99609375 C-162.61351562 225.99382812 -162.5903125 226.9915625 -162.56640625 228.01953125 C-162.76171875 230.62109375 -162.76171875 230.62109375 -164.76171875 232.62109375 C-166.88671875 232.24609375 -166.88671875 232.24609375 -168.76171875 231.62109375 C-169.25671875 229.14609375 -169.25671875 229.14609375 -169.76171875 226.62109375 C-170.16003906 227.19859375 -170.55835938 227.77609375 -170.96875 228.37109375 C-171.49855469 229.11359375 -172.02835938 229.85609375 -172.57421875 230.62109375 C-173.09628906 231.36359375 -173.61835938 232.10609375 -174.15625 232.87109375 C-174.68605469 233.44859375 -175.21585938 234.02609375 -175.76171875 234.62109375 C-176.75171875 234.62109375 -177.74171875 234.62109375 -178.76171875 234.62109375 C-180.03605155 230.28836224 -179.27852025 227.80098186 -177.76171875 223.62109375 C-178.86128906 224.05421875 -179.96085937 224.48734375 -181.09375 224.93359375 C-199.60622294 232.01034908 -199.60622294 232.01034908 -208.9921875 228.3671875 C-217.95754096 224.09338101 -217.95754096 224.09338101 -220.76171875 220.62109375 C-220.92120459 217.75034868 -220.23257064 216.18828709 -218.40625 213.98828125 C-214.7732379 210.28044739 -210.84882914 206.88268116 -206.91796875 203.49609375 C-204.56208917 201.44750281 -202.25664415 199.34906373 -199.94921875 197.24609375 C-195.57061808 193.29663618 -191.08545164 189.5139991 -186.4765625 185.8359375 C-184.69430576 184.38192372 -182.95424748 182.8742776 -181.265625 181.3125 C-175.00850499 175.69610908 -170.14350658 174.39066659 -161.76171875 174.62109375 C-161.78234375 173.32171875 -161.80296875 172.02234375 -161.82421875 170.68359375 C-161.22113868 165.00383967 -158.16049799 162.21454482 -154.18359375 158.37109375 C-151.49492418 156.42831316 -150.09367628 155.5383122 -146.76171875 155.62109375 C-144.25390625 157.70703125 -144.25390625 157.70703125 -141.76171875 160.62109375 C-140.95992188 161.52085937 -140.158125 162.420625 -139.33203125 163.34765625 C-124.20245668 181.28079416 -124.20245668 181.28079416 -124.76171875 189.62109375 C-123.11171875 188.96109375 -121.46171875 188.30109375 -119.76171875 187.62109375 C-119.10171875 188.61109375 -118.44171875 189.60109375 -117.76171875 190.62109375 C-115.78171875 176.43109375 -113.80171875 162.24109375 -111.76171875 147.62109375 C-117.20671875 145.64109375 -117.20671875 145.64109375 -122.76171875 143.62109375 C-132.00581266 137.8602816 -137.14504864 130.16588373 -139.76171875 119.62109375 C-143.1754886 102.86258719 -139.40447279 86.07411796 -130.94921875 71.49609375 C-123.88009583 62.20524649 -115.99822709 53.65169953 -104.69921875 49.74609375 C-102.4919203 48.99387263 -102.4919203 48.99387263 -100.76171875 47.62109375 C-99.42156236 44.32305263 -98.97113165 41.16084728 -98.76171875 37.62109375 C-100.15390625 37.46640625 -100.15390625 37.46640625 -101.57421875 37.30859375 C-104.99618937 36.57052166 -105.64745586 36.24094124 -107.76171875 33.62109375 C-110.75804258 27.41800195 -112.60627504 21.49819501 -111.76171875 14.62109375 C-110.37549012 11.98725936 -109.50382129 10.94101591 -106.77734375 9.765625 C-104.30668277 8.36271091 -103.84148589 7.27214265 -102.76171875 4.68359375 C-100.10015793 -0.93525688 -100.10015793 -0.93525688 -96.76171875 -2.37890625 C-92.5171475 -2.78021117 -88.82032944 -2.73177648 -84.76171875 -1.37890625 C-83.85421875 -1.70890625 -82.94671875 -2.03890625 -82.01171875 -2.37890625 C-78.06187003 -3.59424432 -75.73578424 -3.48281333 -71.76171875 -2.37890625 C-69.26171875 -0.25390625 -69.26171875 -0.25390625 -67.76171875 2.62109375 C-67.84694566 7.47902742 -68.8857267 9.86979978 -71.76171875 13.62109375 C-72.01296701 16.28871139 -72.01296701 16.28871139 -71.76171875 18.62109375 C-71.24609375 17.96109375 -70.73046875 17.30109375 -70.19921875 16.62109375 C-68.99265625 15.13609375 -68.99265625 15.13609375 -67.76171875 13.62109375 C-67.26414063 12.99332031 -66.7665625 12.36554688 -66.25390625 11.71875 C-61.99992772 6.5645109 -57.51963477 2.98741463 -51.76171875 -0.37890625 C-51.13652344 -0.75917969 -50.51132813 -1.13945313 -49.8671875 -1.53125 C-34.22721799 -10.25670667 -14.9431927 -9.55697013 0 0 Z M-166.76171875 218.62109375 C-166.76171875 222.25109375 -166.76171875 225.88109375 -166.76171875 229.62109375 C-166.10171875 229.29109375 -165.44171875 228.96109375 -164.76171875 228.62109375 C-164.46609508 223.29938881 -164.46609508 223.29938881 -166.76171875 218.62109375 Z M-171.76171875 219.62109375 C-173.16809836 221.26410809 -173.16809836 221.26410809 -174.44921875 223.37109375 C-174.90683594 224.0671875 -175.36445313 224.76328125 -175.8359375 225.48046875 C-177.1287713 227.87471838 -177.1287713 227.87471838 -175.76171875 231.62109375 C-173.78171875 227.66109375 -171.80171875 223.70109375 -169.76171875 219.62109375 C-170.42171875 219.62109375 -171.08171875 219.62109375 -171.76171875 219.62109375 Z M-51.38671875 344.12109375 C-52.17046875 344.94609375 -52.95421875 345.77109375 -53.76171875 346.62109375 C-53.43171875 347.28109375 -53.10171875 347.94109375 -52.76171875 348.62109375 C-50.78171875 346.31109375 -48.80171875 344.00109375 -46.76171875 341.62109375 C-49.12450611 341.39120869 -49.12450611 341.39120869 -51.38671875 344.12109375 Z M-45.44921875 349.05859375 C-46.25746094 349.34605469 -47.06570312 349.63351562 -47.8984375 349.9296875 C-48.51332031 350.15785156 -49.12820312 350.38601563 -49.76171875 350.62109375 C-48.00702799 351.83290036 -48.00702799 351.83290036 -45.76171875 352.62109375 C-43.56162715 352.00366462 -43.56162715 352.00366462 -41.51171875 350.74609375 C-40.45210937 350.16214844 -40.45210937 350.16214844 -39.37109375 349.56640625 C-38.57445312 349.09847656 -38.57445312 349.09847656 -37.76171875 348.62109375 C-41.24043496 347.46152168 -42.1039152 347.84652724 -45.44921875 349.05859375 Z " fill="#E5E2E2" transform="translate(257.76171875,63.37890625)"/>
<path d="M0 0 C0.33 43.23 0.66 86.46 1 131 C9.25 131.33 17.5 131.66 26 132 C23.74642899 145.52142604 23.74642899 145.52142604 22.40625 150.05859375 C22.10291748 151.09024658 21.79958496 152.12189941 21.48706055 153.18481445 C21.16133057 154.25820068 20.83560059 155.33158691 20.5 156.4375 C20.15686768 157.58114014 19.81373535 158.72478027 19.46020508 159.90307617 C16.71223074 168.9335327 13.75262558 177.88577686 10.6875 186.8125 C10.05714844 188.6531604 10.05714844 188.6531604 9.4140625 190.53100586 C7.52952358 195.94261692 5.57744151 200.84511699 3 206 C-2.28 205.01 -7.56 204.02 -13 203 C-13 203.99 -13 204.98 -13 206 C-12.195625 206.3403125 -12.195625 206.3403125 -11.375 206.6875 C-8.21499137 208.43382056 -5.7323017 210.6402849 -3 213 C-2.2265625 211.7934375 -2.2265625 211.7934375 -1.4375 210.5625 C1.63205757 207.33552922 3.64868459 207.25103743 8 207 C7.67 208.98 7.34 210.96 7 213 C10.3 213 13.6 213 17 213 C16.50384615 217.58942308 16.50384615 217.58942308 13.953125 219.66796875 C12.98632812 220.32732422 12.98632812 220.32732422 12 221 C13.01320312 221.38671875 14.02640625 221.7734375 15.0703125 222.171875 C16.42202167 222.69753968 17.773576 223.22360263 19.125 223.75 C20.12273437 224.12898438 20.12273437 224.12898438 21.140625 224.515625 C29.65268664 227.85368839 33.88602961 231.4679585 37.80859375 239.8046875 C39.4466949 244.19802107 39.97934474 248.33191049 40 253 C35.2565148 253.76304946 30.70887522 254.12829633 25.90625 254.1328125 C25.24539398 254.13426773 24.58453796 254.13572296 23.90365601 254.13722229 C21.76904473 254.13945329 19.63459519 254.13321895 17.5 254.125 C16.77089417 254.12311676 16.04178833 254.12123352 15.29058838 254.11929321 C5.81684178 254.09061006 -3.65608012 254.00722567 -13.125 253.6875 C-14.03443359 253.66510254 -14.94386719 253.64270508 -15.88085938 253.61962891 C-22.38754269 253.34583283 -27.4430761 252.29467529 -32.4375 247.8125 C-32.953125 247.214375 -33.46875 246.61625 -34 246 C-37.08183248 246.70184222 -37.08183248 246.70184222 -38.4375 249 C-40.32723295 251.41885818 -41.03662838 251.49581525 -44 252 C-45.85238076 252.09140921 -47.70787209 252.13004661 -49.5625 252.125 C-50.51253906 252.12757813 -51.46257812 252.13015625 -52.44140625 252.1328125 C-55 252 -55 252 -58 251 C-58.60286678 218.90430017 -58.60286678 218.90430017 -54 212 C-53.38605779 209.26542253 -52.84714777 206.57071017 -52.375 203.8125 C-52.2409375 203.06291016 -52.106875 202.31332031 -51.96875 201.54101562 C-51.63954581 199.69512072 -51.31893502 197.84769691 -51 196 C-53.31 195.34 -55.62 194.68 -58 194 C-56.50011622 185.13390193 -53.93755895 176.6008869 -51.375 168 C-50.74453376 165.87710947 -50.11536305 163.75386465 -49.4894104 161.62963867 C-48.92748712 159.72353918 -48.36108189 157.81876267 -47.79443359 155.9140625 C-46.91232612 153.18180526 -46.91232612 153.18180526 -47 151 C-47.66644531 150.8040625 -48.33289063 150.608125 -49.01953125 150.40625 C-66.84112792 144.62357807 -78.11662037 130.43572059 -89 116 C-89.5151416 115.31905273 -90.0302832 114.63810547 -90.56103516 113.93652344 C-92.11118161 111.88017745 -93.65161674 109.81701579 -95.1875 107.75 C-95.66944824 107.10595215 -96.15139648 106.4619043 -96.64794922 105.79833984 C-100 101.23517801 -100 101.23517801 -100 99 C-100.66 99 -101.32 99 -102 99 C-102.86646667 97.56988027 -103.71781829 96.13059381 -104.5625 94.6875 C-105.03816406 93.88699219 -105.51382813 93.08648437 -106.00390625 92.26171875 C-107 90 -107 90 -106 87 C-107.32 87 -108.64 87 -110 87 C-109.97679687 87.77085937 -109.95359375 88.54171875 -109.9296875 89.3359375 C-109.91164062 90.33882813 -109.89359375 91.34171875 -109.875 92.375 C-109.85179687 93.37273437 -109.82859375 94.37046875 -109.8046875 95.3984375 C-110 98 -110 98 -112 100 C-114.125 99.625 -114.125 99.625 -116 99 C-116.33 97.35 -116.66 95.7 -117 94 C-117.39832031 94.5775 -117.79664063 95.155 -118.20703125 95.75 C-118.73683594 96.4925 -119.26664063 97.235 -119.8125 98 C-120.33457031 98.7425 -120.85664062 99.485 -121.39453125 100.25 C-121.92433594 100.8275 -122.45414063 101.405 -123 102 C-123.99 102 -124.98 102 -126 102 C-127.2743328 97.66726849 -126.5168015 95.17988811 -125 91 C-126.09957031 91.433125 -127.19914062 91.86625 -128.33203125 92.3125 C-146.84450419 99.38925533 -146.84450419 99.38925533 -156.23046875 95.74609375 C-165.19582221 91.47228726 -165.19582221 91.47228726 -168 88 C-168.15948584 85.12925493 -167.47085189 83.56719334 -165.64453125 81.3671875 C-162.01151915 77.65935364 -158.08711039 74.26158741 -154.15625 70.875 C-151.80037042 68.82640906 -149.4949254 66.72796998 -147.1875 64.625 C-142.80889933 60.67554243 -138.32373289 56.89290535 -133.71484375 53.21484375 C-131.93258701 51.76082997 -130.19252873 50.25318385 -128.50390625 48.69140625 C-122.24678624 43.07501533 -117.38178783 41.76957284 -109 42 C-109.020625 40.700625 -109.04125 39.40125 -109.0625 38.0625 C-108.45941993 32.38274592 -105.39877924 29.59345107 -101.421875 25.75 C-98.73320543 23.80721941 -97.33195753 22.91721845 -94 23 C-91.4921875 25.0859375 -91.4921875 25.0859375 -89 28 C-88.19820313 28.89976562 -87.39640625 29.79953125 -86.5703125 30.7265625 C-71.44073793 48.65970041 -71.44073793 48.65970041 -72 57 C-70.35 56.34 -68.7 55.68 -67 55 C-66.34 55.99 -65.68 56.98 -65 58 C-64.823479 56.70263916 -64.64695801 55.40527832 -64.46508789 54.06860352 C-63.81145389 49.27293181 -63.15230569 44.47803173 -62.49145508 39.68334961 C-62.20575967 37.60478134 -61.92157691 35.52600459 -61.63891602 33.44702148 C-61.23327134 30.46542655 -60.82226103 27.48461425 -60.41015625 24.50390625 C-60.22103416 23.10078941 -60.22103416 23.10078941 -60.02809143 21.66932678 C-59.90804245 20.80850998 -59.78799347 19.94769318 -59.66430664 19.06079102 C-59.50775352 17.91828636 -59.50775352 17.91828636 -59.34803772 16.75270081 C-59 15 -59 15 -58 14 C-56.04477968 13.74563748 -54.08542436 13.52303056 -52.125 13.3125 C-44.45981084 12.26619005 -37.44718917 10.07805585 -30.1171875 7.6640625 C-24.63442896 5.85931223 -19.10863548 4.22293311 -13.5625 2.625 C-12.22143188 2.23103027 -12.22143188 2.23103027 -10.85327148 1.82910156 C-9.59752319 1.46896973 -9.59752319 1.46896973 -8.31640625 1.1015625 C-7.57849854 0.88838379 -6.84059082 0.67520508 -6.08032227 0.45556641 C-4 0 -4 0 0 0 Z M-114 86 C-114 89.63 -114 93.26 -114 97 C-113.34 96.67 -112.68 96.34 -112 96 C-111.70437633 90.67829506 -111.70437633 90.67829506 -114 86 Z M-119 87 C-120.40637961 88.64301434 -120.40637961 88.64301434 -121.6875 90.75 C-122.14511719 91.44609375 -122.60273437 92.1421875 -123.07421875 92.859375 C-124.36705255 95.25362463 -124.36705255 95.25362463 -123 99 C-121.02 95.04 -119.04 91.08 -117 87 C-117.66 87 -118.32 87 -119 87 Z M1.375 211.5 C0.59125 212.325 -0.1925 213.15 -1 214 C-0.67 214.66 -0.34 215.32 0 216 C1.98 213.69 3.96 211.38 6 209 C3.63721264 208.77011494 3.63721264 208.77011494 1.375 211.5 Z M7.3125 216.4375 C6.50425781 216.72496094 5.69601563 217.01242187 4.86328125 217.30859375 C4.24839844 217.53675781 3.63351563 217.76492188 3 218 C4.75469076 219.21180661 4.75469076 219.21180661 7 220 C9.2000916 219.38257087 9.2000916 219.38257087 11.25 218.125 C12.30960938 217.54105469 12.30960938 217.54105469 13.390625 216.9453125 C14.18726563 216.47738281 14.18726563 216.47738281 15 216 C11.52128379 214.84042793 10.65780355 215.22543349 7.3125 216.4375 Z " fill="#F20B0B" transform="translate(205,196)"/>
<path d="M0 0 C2.09378362 1.51644015 3.96574423 3.11919162 5.86328125 4.87109375 C9.45584431 8.10778971 12.479814 8.85359903 17.23828125 9.62109375 C18.16640625 9.55921875 19.09453125 9.49734375 20.05078125 9.43359375 C22.23828125 9.62109375 22.23828125 9.62109375 23.98828125 11.55859375 C27.04045769 19.03642602 26.35588942 25.94839019 24.23828125 33.62109375 C23.90828125 34.28109375 23.57828125 34.94109375 23.23828125 35.62109375 C21.30078125 35.30859375 21.30078125 35.30859375 19.23828125 34.62109375 C18.90828125 33.63109375 18.57828125 32.64109375 18.23828125 31.62109375 C17.57828125 31.62109375 16.91828125 31.62109375 16.23828125 31.62109375 C15.57828125 32.94109375 14.91828125 34.26109375 14.23828125 35.62109375 C12.58828125 35.62109375 10.93828125 35.62109375 9.23828125 35.62109375 C8.24828125 33.64109375 8.24828125 33.64109375 7.23828125 31.62109375 C6.61953125 32.61109375 6.61953125 32.61109375 5.98828125 33.62109375 C5.41078125 34.28109375 4.83328125 34.94109375 4.23828125 35.62109375 C2.91828125 35.62109375 1.59828125 35.62109375 0.23828125 35.62109375 C-0.26539632 34.16402649 -0.76454431 32.70539279 -1.26171875 31.24609375 C-1.679375 30.02792969 -1.679375 30.02792969 -2.10546875 28.78515625 C-2.76171875 26.62109375 -2.76171875 26.62109375 -2.76171875 24.62109375 C-13.65171875 24.62109375 -24.54171875 24.62109375 -35.76171875 24.62109375 C-35.43171875 20.99109375 -35.10171875 17.36109375 -34.76171875 13.62109375 C-36.11790374 14.7464348 -36.11790374 14.7464348 -35.82421875 17.68359375 C-35.80359375 18.65296875 -35.78296875 19.62234375 -35.76171875 20.62109375 C-36.42171875 20.62109375 -37.08171875 20.62109375 -37.76171875 20.62109375 C-37.76171875 21.94109375 -37.76171875 23.26109375 -37.76171875 24.62109375 C-38.60476562 24.67007813 -39.4478125 24.7190625 -40.31640625 24.76953125 C-41.41210938 24.84429687 -42.5078125 24.9190625 -43.63671875 24.99609375 C-45.27253906 25.10050781 -45.27253906 25.10050781 -46.94140625 25.20703125 C-49.89218349 25.35362866 -49.89218349 25.35362866 -51.76171875 27.62109375 C-52.42759236 32.77655695 -52.44879793 37.9893864 -52.51171875 43.18359375 C-52.52250458 43.93286133 -52.53329041 44.68212891 -52.54440308 45.45410156 C-52.63522002 58.41181382 -50.40528861 67.57386725 -41.76171875 77.62109375 C-40.26428756 79.11852494 -38.77347636 78.95312068 -36.69921875 79.18359375 C-35.39984375 79.32796875 -34.10046875 79.47234375 -32.76171875 79.62109375 C-32.76171875 78.96109375 -32.76171875 78.30109375 -32.76171875 77.62109375 C7.82828125 77.62109375 48.41828125 77.62109375 90.23828125 77.62109375 C90.23828125 80.59109375 90.23828125 83.56109375 90.23828125 86.62109375 C50.30828125 86.62109375 10.37828125 86.62109375 -30.76171875 86.62109375 C-29.49259019 95.3718614 -29.49259019 95.3718614 -26.76171875 103.62109375 C5.41328125 104.11609375 5.41328125 104.11609375 38.23828125 104.62109375 C38.23828125 107.59109375 38.23828125 110.56109375 38.23828125 113.62109375 C30.14585529 113.91470403 22.05351991 114.1693072 13.95842648 114.37493038 C10.19899631 114.47163331 6.4409312 114.58146203 2.68286133 114.72192383 C-0.94774432 114.85712796 -4.57780205 114.95702044 -8.21011162 115.03305244 C-9.59187414 115.06807059 -10.97338171 115.11555437 -12.35426521 115.17600822 C-23.07630259 115.63335693 -23.07630259 115.63335693 -27.17745972 113.17019653 C-30.27162268 110.2329359 -31.96360152 107.84645672 -32.76171875 103.62109375 C-33.798125 104.04261719 -34.83453125 104.46414062 -35.90234375 104.8984375 C-37.27207966 105.45196091 -38.64187443 106.00533869 -40.01171875 106.55859375 C-40.69363281 106.83638672 -41.37554687 107.11417969 -42.078125 107.40039062 C-45.28095513 108.69085131 -48.40009409 109.83909419 -51.76171875 110.62109375 C-51.84421875 111.38421875 -51.92671875 112.14734375 -52.01171875 112.93359375 C-52.90787669 116.14482636 -53.977829 116.91483874 -56.76171875 118.62109375 C-59.79962287 114.24651181 -59.79962287 114.24651181 -59.63671875 111.55859375 C-58.61931426 109.30576951 -57.3274345 107.52718248 -55.76171875 105.62109375 C-57.41171875 106.94109375 -59.06171875 108.26109375 -60.76171875 109.62109375 C-62.32421875 106.80859375 -62.32421875 106.80859375 -63.76171875 103.62109375 C-63.26671875 102.13609375 -63.26671875 102.13609375 -62.76171875 100.62109375 C-60.19921875 99.43359375 -60.19921875 99.43359375 -57.76171875 98.62109375 C-60.86723541 98.62109375 -62.11432959 99.16046525 -64.76171875 100.62109375 C-66.38671875 97.87109375 -66.38671875 97.87109375 -67.76171875 94.62109375 C-67.04911696 92.42390491 -66.37622442 91.23559942 -64.76171875 89.62109375 C-66.74171875 90.61109375 -66.74171875 90.61109375 -68.76171875 91.62109375 C-69.42171875 89.64109375 -70.08171875 87.66109375 -70.76171875 85.62109375 C-67.29671875 84.63109375 -67.29671875 84.63109375 -63.76171875 83.62109375 C-67.00657283 83.62109375 -69.02788627 83.82722379 -72.0625 84.64453125 C-72.87525391 84.86109375 -73.68800781 85.07765625 -74.52539062 85.30078125 C-75.36650391 85.53023438 -76.20761719 85.7596875 -77.07421875 85.99609375 C-77.90373047 86.2178125 -78.73324219 86.43953125 -79.58789062 86.66796875 C-83.28379981 87.65976758 -86.96610035 88.67868568 -90.6328125 89.7734375 C-95.25353117 91.02524268 -99.21535194 91.13654935 -103.76171875 89.62109375 C-105.65642691 89.55254425 -107.55340215 89.53629003 -109.44921875 89.55859375 C-110.44308594 89.56761719 -111.43695313 89.57664062 -112.4609375 89.5859375 C-113.22019531 89.59753906 -113.97945312 89.60914063 -114.76171875 89.62109375 C-114.76171875 90.28109375 -114.76171875 90.94109375 -114.76171875 91.62109375 C-110.80171875 91.95109375 -106.84171875 92.28109375 -102.76171875 92.62109375 C-106.44906633 95.07932547 -109.45871846 95.63351991 -113.76171875 96.62109375 C-113.76171875 97.28109375 -113.76171875 97.94109375 -113.76171875 98.62109375 C-113.13910156 98.32976562 -112.51648438 98.0384375 -111.875 97.73828125 C-105.0771308 94.72332671 -98.21247418 92.43430417 -91.07421875 90.37109375 C-90.19612549 90.11312012 -89.31803223 89.85514648 -88.41333008 89.58935547 C-82.84963413 88.01942493 -77.52292738 87.11140938 -71.76171875 86.62109375 C-69.92464941 90.8185858 -68.09167983 95.0178351 -66.26245117 99.21875 C-65.63987187 100.64697251 -65.01618407 102.07471236 -64.39135742 103.50195312 C-63.49234338 105.55602498 -62.5973579 107.61181174 -61.703125 109.66796875 C-61.28432823 110.62132111 -61.28432823 110.62132111 -60.85707092 111.59393311 C-58.15488913 117.82840977 -58.15488913 117.82840977 -57.76171875 120.62109375 C-62.27809503 127.38171873 -69.94210337 131.54474853 -76.76171875 135.62109375 C-77.75171875 136.28109375 -78.74171875 136.94109375 -79.76171875 137.62109375 C-80.75171875 137.62109375 -81.74171875 137.62109375 -82.76171875 137.62109375 C-82.43171875 138.61109375 -82.10171875 139.60109375 -81.76171875 140.62109375 C-84.177771 141.43545962 -86.59451873 142.24764772 -89.01171875 143.05859375 C-90.03458984 143.40374023 -90.03458984 143.40374023 -91.078125 143.75585938 C-101.48936537 147.2431195 -112.03442507 148.9008496 -122.32421875 144.05859375 C-131.36188445 138.86133023 -136.7134677 130.95446928 -139.515625 120.921875 C-143.05405629 103.57613838 -139.75054699 86.67079761 -130.94921875 71.49609375 C-123.88009583 62.20524649 -115.99822709 53.65169953 -104.69921875 49.74609375 C-102.4919203 48.99387263 -102.4919203 48.99387263 -100.76171875 47.62109375 C-99.42156236 44.32305263 -98.97113165 41.16084728 -98.76171875 37.62109375 C-99.68984375 37.51796875 -100.61796875 37.41484375 -101.57421875 37.30859375 C-104.99618937 36.57052166 -105.64745586 36.24094124 -107.76171875 33.62109375 C-110.75804258 27.41800195 -112.60627504 21.49819501 -111.76171875 14.62109375 C-110.37549012 11.98725936 -109.50382129 10.94101591 -106.77734375 9.765625 C-104.30668277 8.36271091 -103.84148589 7.27214265 -102.76171875 4.68359375 C-100.10015793 -0.93525688 -100.10015793 -0.93525688 -96.76171875 -2.37890625 C-92.5171475 -2.78021117 -88.82032944 -2.73177648 -84.76171875 -1.37890625 C-83.85421875 -1.70890625 -82.94671875 -2.03890625 -82.01171875 -2.37890625 C-78.06187003 -3.59424432 -75.73578424 -3.48281333 -71.76171875 -2.37890625 C-69.26171875 -0.25390625 -69.26171875 -0.25390625 -67.76171875 2.62109375 C-67.84694566 7.47902742 -68.8857267 9.86979978 -71.76171875 13.62109375 C-72.01296701 16.28871139 -72.01296701 16.28871139 -71.76171875 18.62109375 C-71.24609375 17.96109375 -70.73046875 17.30109375 -70.19921875 16.62109375 C-69.39484375 15.63109375 -68.59046875 14.64109375 -67.76171875 13.62109375 C-67.26414062 12.99332031 -66.7665625 12.36554688 -66.25390625 11.71875 C-61.99992772 6.5645109 -57.51963477 2.98741463 -51.76171875 -0.37890625 C-50.82392578 -0.94931641 -50.82392578 -0.94931641 -49.8671875 -1.53125 C-34.22721799 -10.25670667 -14.9431927 -9.55697013 0 0 Z " fill="#FEA898" transform="translate(257.76171875,63.37890625)"/>
<path d="M0 0 C8.59413721 0.51211107 16.83155324 1.78836453 25.25 3.5625 C26.95736328 3.91344727 26.95736328 3.91344727 28.69921875 4.27148438 C31.46750142 4.84142492 34.23430339 5.41766365 37 6 C37 7.32 37 8.64 37 10 C37.53625 10.226875 38.0725 10.45375 38.625 10.6875 C41.78500863 12.43382056 44.2676983 14.6402849 47 17 C47.515625 16.195625 48.03125 15.39125 48.5625 14.5625 C51.63205757 11.33552922 53.64868459 11.25103743 58 11 C57.67 12.98 57.34 14.96 57 17 C60.3 17 63.6 17 67 17 C66.50384615 21.58942308 66.50384615 21.58942308 63.953125 23.66796875 C63.30859375 24.10753906 62.6640625 24.54710937 62 25 C63.01320313 25.38671875 64.02640625 25.7734375 65.0703125 26.171875 C66.42202167 26.69753968 67.773576 27.22360263 69.125 27.75 C69.79015625 28.00265625 70.4553125 28.2553125 71.140625 28.515625 C79.65268664 31.85368839 83.88602961 35.4679585 87.80859375 43.8046875 C89.4466949 48.19802107 89.97934474 52.33191049 90 57 C85.2565148 57.76304946 80.70887522 58.12829633 75.90625 58.1328125 C75.24539398 58.13426773 74.58453796 58.13572296 73.90365601 58.13722229 C71.76904473 58.13945329 69.63459519 58.13321895 67.5 58.125 C66.77089417 58.12311676 66.04178833 58.12123352 65.29058838 58.11929321 C55.81684178 58.09061006 46.34391988 58.00722567 36.875 57.6875 C35.96556641 57.66510254 35.05613281 57.64270508 34.11914062 57.61962891 C27.61245731 57.34583283 22.5569239 56.29467529 17.5625 51.8125 C17.046875 51.214375 16.53125 50.61625 16 50 C12.91816752 50.70184222 12.91816752 50.70184222 11.5625 53 C9.67276705 55.41885818 8.96337162 55.49581525 6 56 C4.14761924 56.09140921 2.29212791 56.13004661 0.4375 56.125 C-0.51253906 56.12757813 -1.46257812 56.13015625 -2.44140625 56.1328125 C-5 56 -5 56 -8 55 C-8.60286678 22.90430017 -8.60286678 22.90430017 -4 16 C-3.23025166 13.27216922 -2.52479734 10.56812205 -1.875 7.8125 C-1.69324219 7.06291016 -1.51148438 6.31332031 -1.32421875 5.54101562 C-0.87748314 3.69529219 -0.4380306 1.84780868 0 0 Z M51.375 15.5 C50.59125 16.325 49.8075 17.15 49 18 C49.33 18.66 49.66 19.32 50 20 C51.98 17.69 53.96 15.38 56 13 C53.63721264 12.77011494 53.63721264 12.77011494 51.375 15.5 Z M57.3125 20.4375 C56.50425781 20.72496094 55.69601563 21.01242187 54.86328125 21.30859375 C54.24839844 21.53675781 53.63351563 21.76492188 53 22 C54.75469076 23.21180661 54.75469076 23.21180661 57 24 C59.2000916 23.38257087 59.2000916 23.38257087 61.25 22.125 C62.30960938 21.54105469 62.30960938 21.54105469 63.390625 20.9453125 C64.18726563 20.47738281 64.18726563 20.47738281 65 20 C61.52128379 18.84042793 60.65780355 19.22543349 57.3125 20.4375 Z " fill="#F95A51" transform="translate(155,392)"/>
<path d="M0 0 C3.43657004 3.28355023 6.15208298 7.20314173 9 11 C9.67796631 11.88002686 9.67796631 11.88002686 10.36962891 12.77783203 C11.76342209 14.58971455 13.13465014 16.41661483 14.5 18.25 C15.15005005 19.09824341 15.15005005 19.09824341 15.81323242 19.96362305 C18.71370071 23.95707197 19.58018738 27.12550906 20 32 C20.33 32.99 20.66 33.98 21 35 C14.7042267 40.83302788 8.33569844 46.45869484 1.62890625 51.8203125 C-0.93135089 53.94308142 -3.29414615 56.19285615 -5.6875 58.5 C-9.767851 62.21208827 -12.52651716 63 -18 63 C-17.97679687 63.77085937 -17.95359375 64.54171875 -17.9296875 65.3359375 C-17.91164062 66.33882813 -17.89359375 67.34171875 -17.875 68.375 C-17.85179687 69.37273437 -17.82859375 70.37046875 -17.8046875 71.3984375 C-18 74 -18 74 -20 76 C-22.125 75.625 -22.125 75.625 -24 75 C-24.33 73.35 -24.66 71.7 -25 70 C-25.39832031 70.5775 -25.79664063 71.155 -26.20703125 71.75 C-26.73683594 72.4925 -27.26664063 73.235 -27.8125 74 C-28.33457031 74.7425 -28.85664062 75.485 -29.39453125 76.25 C-29.92433594 76.8275 -30.45414063 77.405 -31 78 C-31.99 78 -32.98 78 -34 78 C-35.2743328 73.66726849 -34.5168015 71.17988811 -33 67 C-34.09957031 67.433125 -35.19914062 67.86625 -36.33203125 68.3125 C-54.84450419 75.38925533 -54.84450419 75.38925533 -64.23046875 71.74609375 C-73.19582221 67.47228726 -73.19582221 67.47228726 -76 64 C-76.15948584 61.12925493 -75.47085189 59.56719334 -73.64453125 57.3671875 C-70.01151915 53.65935364 -66.08711039 50.26158741 -62.15625 46.875 C-59.80037042 44.82640906 -57.4949254 42.72796998 -55.1875 40.625 C-50.80889933 36.67554243 -46.32373289 32.89290535 -41.71484375 29.21484375 C-39.93258701 27.76082997 -38.19252873 26.25318385 -36.50390625 24.69140625 C-30.24678624 19.07501533 -25.38178783 17.76957284 -17 18 C-17.020625 16.700625 -17.04125 15.40125 -17.0625 14.0625 C-16.40011837 7.53183113 -11.84602376 3.98352045 -7 0 C-4.2143705 -1.39281475 -2.93928882 -0.95363593 0 0 Z M-22 62 C-22 65.63 -22 69.26 -22 73 C-21.34 72.67 -20.68 72.34 -20 72 C-19.70437633 66.67829506 -19.70437633 66.67829506 -22 62 Z M-27 63 C-28.40637961 64.64301434 -28.40637961 64.64301434 -29.6875 66.75 C-30.14511719 67.44609375 -30.60273437 68.1421875 -31.07421875 68.859375 C-32.36705255 71.25362463 -32.36705255 71.25362463 -31 75 C-29.02 71.04 -27.04 67.08 -25 63 C-25.66 63 -26.32 63 -27 63 Z " fill="#F95A51" transform="translate(113,220)"/>
<path d="M0 0 C1.32 0 2.64 0 4 0 C5.53979492 1.82006836 5.53979492 1.82006836 6.98046875 4.33984375 C7.50447266 5.23767578 8.02847656 6.13550781 8.56835938 7.06054688 C9.36983398 8.48463867 9.36983398 8.48463867 10.1875 9.9375 C11.26355615 11.80122417 12.34034008 13.66452839 13.41796875 15.52734375 C13.89000732 16.35999756 14.3620459 17.19265137 14.84838867 18.05053711 C15.85304325 19.93609916 15.85304325 19.93609916 17 21 C18.34747084 21.23075082 19.70377565 21.41153063 21.0625 21.5625 C22.361875 21.706875 23.66125 21.85125 25 22 C25 21.34 25 20.68 25 20 C65.59 20 106.18 20 148 20 C148 22.97 148 25.94 148 29 C108.07 29 68.14 29 27 29 C28.26912856 37.75076765 28.26912856 37.75076765 31 46 C63.175 46.495 63.175 46.495 96 47 C96 49.97 96 52.94 96 56 C87.90757404 56.29361028 79.81523866 56.54821345 71.72014523 56.75383663 C67.96071506 56.85053956 64.20264995 56.96036828 60.44458008 57.10083008 C56.81397443 57.23603421 53.1839167 57.33592669 49.55160713 57.41195869 C48.16984461 57.44697684 46.78833704 57.49446062 45.40745354 57.55491447 C34.68541616 58.01226318 34.68541616 58.01226318 30.58425903 55.54910278 C27.49009607 52.61184215 25.79811723 50.22536297 25 46 C23.96359375 46.42152344 22.9271875 46.84304687 21.859375 47.27734375 C20.48963909 47.83086716 19.11984432 48.38424494 17.75 48.9375 C17.06808594 49.21529297 16.38617188 49.49308594 15.68359375 49.77929688 C12.48076362 51.06975756 9.36162466 52.21800044 6 53 C5.9175 53.763125 5.835 54.52625 5.75 55.3125 C4.85384206 58.52373261 3.78388975 59.29374499 1 61 C-2.03790412 56.62541806 -2.03790412 56.62541806 -1.875 53.9375 C-0.85759551 51.68467576 0.43428425 49.90608873 2 48 C0.35 49.32 -1.3 50.64 -3 52 C-4.5625 49.1875 -4.5625 49.1875 -6 46 C-5.67 45.01 -5.34 44.02 -5 43 C-2.4375 41.8125 -2.4375 41.8125 0 41 C-3.10551666 41 -4.35261084 41.5393715 -7 43 C-8.625 40.25 -8.625 40.25 -10 37 C-9.28739821 34.80281116 -8.61450567 33.61450567 -7 32 C-8.32 32.66 -9.64 33.32 -11 34 C-11.66 32.02 -12.32 30.04 -13 28 C-11.88625 27.7525 -10.7725 27.505 -9.625 27.25 C-5.98256046 26.44709191 -5.98256046 26.44709191 -5 24.1875 C-4.67 23.465625 -4.34 22.74375 -4 22 C-1.77582074 20.16740159 0.58768059 18.57381266 3 17 C2.71125 16.5153125 2.4225 16.030625 2.125 15.53125 C-0.72223712 10.39040519 -1.5146046 6.86649246 -1 1 C-0.67 0.67 -0.34 0.34 0 0 Z " fill="#FB8165" transform="translate(200,121)"/>
<path d="M0 0 C7.19305212 -0.35965261 7.19305212 -0.35965261 10.10246372 0.9370575 C13.17975697 4.28259514 12.54762995 7.91387205 12.50120544 12.30004883 C12.50673984 13.26421376 12.51227424 14.2283787 12.51797634 15.22176075 C12.53163862 18.46710958 12.51658315 21.71169677 12.50170898 24.95703125 C12.50549012 27.27770313 12.51098846 29.59837275 12.51808167 31.91903687 C12.5320802 38.23300426 12.52083553 44.5467005 12.50437045 50.86065292 C12.4905538 57.45764141 12.49697616 64.05461361 12.50050354 70.65161133 C12.50393933 81.73165101 12.48979402 92.81158848 12.46655273 103.89160156 C12.44263103 115.29724136 12.43554806 126.70273805 12.44604492 138.10839844 C12.45866404 151.84471003 12.45616996 165.58092076 12.44038582 179.31723022 C12.43461616 184.56759181 12.43471639 189.81790551 12.43945122 195.06826782 C12.44421153 201.2471963 12.43415847 207.42592583 12.41249657 213.60481644 C12.40691563 215.87725783 12.40647529 218.1497183 12.41144943 220.4221611 C12.41737197 223.51498114 12.40495531 226.60718665 12.38768005 229.69995117 C12.3936901 230.60743009 12.39970014 231.514909 12.40589231 232.44988728 C12.39745237 233.27609168 12.38901243 234.10229609 12.38031673 234.95353699 C12.37877304 236.02475689 12.37877304 236.02475689 12.37719816 237.11761761 C11.88510163 239.57339268 10.95011644 240.47446272 9 242 C6.73828125 242.29296875 6.73828125 242.29296875 4.3125 242.1875 C3.10013672 242.14689453 3.10013672 242.14689453 1.86328125 242.10546875 C1.24839844 242.07066406 0.63351562 242.03585937 0 242 C0.48721358 241.5884583 0.97442716 241.1769166 1.47640479 240.75290394 C3.32462706 238.62651493 3.37562975 237.73013357 3.37752342 234.95353699 C3.38534666 234.12733258 3.39316991 233.30112818 3.40123022 232.44988728 C3.39453805 231.54240836 3.38784589 230.63492945 3.38095093 229.69995117 C3.3856309 228.73578624 3.39031087 227.7716213 3.39513266 226.77823925 C3.40714145 223.533011 3.39760238 220.28820047 3.38818359 217.04296875 C3.39224668 214.72229769 3.39758707 212.40162857 3.40411377 210.08096313 C3.41782445 203.76704314 3.41247321 197.45326973 3.40297651 191.13934708 C3.39539934 184.54235682 3.40242011 177.9453794 3.40713501 171.34838867 C3.41354909 159.55796203 3.40360543 147.76759724 3.388357 135.97718132 C3.37495331 125.28195492 3.37728125 114.5868262 3.39111328 103.89160156 C3.40715959 91.47839389 3.41314828 79.06524853 3.40427649 66.6520319 C3.39959109 60.07857479 3.3989989 53.505185 3.40888596 46.93173218 C3.41752984 40.75281426 3.41158089 34.57408142 3.39420319 28.39518356 C3.39022454 26.12273847 3.39139578 23.8502779 3.39799118 21.5778389 C3.40614233 18.48502941 3.39596297 15.3928197 3.38095093 12.30004883 C3.38764309 11.39256991 3.39433526 10.485091 3.40123022 9.55011272 C3.39340697 8.72390832 3.38558373 7.89770391 3.37752342 7.04646301 C3.37703637 6.33231641 3.37654931 5.6181698 3.37604749 4.88238239 C2.89417881 2.47029048 1.84743394 1.56049859 0 0 Z " fill="#FFFFFF" transform="translate(451,87)"/>
<path d="M0 0 C2.5 2.125 2.5 2.125 4 5 C3.93596578 8.6499507 3.81290473 11.01580234 1.45092773 13.87548828 C-0.41034454 16.60084438 -0.29460753 18.15956942 -0.15234375 21.4296875 C-0.12462891 22.47253906 -0.09691406 23.51539063 -0.06835938 24.58984375 C0.01857585 26.77230721 0.10969246 28.95460829 0.20507812 31.13671875 C0.43209751 40.11782711 0.43209751 40.11782711 -1.75390625 43.6953125 C-3.94394299 45.94248064 -4.9119878 46.7794277 -8 47 C-8.03738281 47.69867188 -8.07476562 48.39734375 -8.11328125 49.1171875 C-8.17902344 50.02726562 -8.24476563 50.93734375 -8.3125 51.875 C-8.37050781 52.77992187 -8.42851562 53.68484375 -8.48828125 54.6171875 C-9 57 -9 57 -12 59 C-18.40621129 59.8792839 -22.03971167 57.68997059 -27 54 C-28 53 -28 53 -28.1328125 50.8203125 C-28.13023437 49.93085937 -28.12765625 49.04140625 -28.125 48.125 C-28.12886719 46.79855469 -28.12886719 46.79855469 -28.1328125 45.4453125 C-28 43 -28 43 -27 40 C-27.928125 39.896875 -28.85625 39.79375 -29.8125 39.6875 C-33.23447062 38.94942791 -33.88573711 38.61984749 -36 36 C-38.99632383 29.7969082 -40.84455629 23.87710126 -40 17 C-38.61377137 14.36616561 -37.74210254 13.31992216 -35.015625 12.14453125 C-32.54496402 10.74161716 -32.07976714 9.6510489 -31 7.0625 C-28.33843918 1.44364937 -28.33843918 1.44364937 -25 0 C-20.75542875 -0.40130492 -17.05861069 -0.35287023 -13 1 C-12.0925 0.67 -11.185 0.34 -10.25 0 C-6.30015128 -1.21533807 -3.97406549 -1.10390708 0 0 Z " fill="#EC795F" transform="translate(186,61)"/>
<path d="M0 0 C40.59 0 81.18 0 123 0 C123 3.3 123 6.6 123 10 C82.41 10 41.82 10 0 10 C0 6.7 0 3.4 0 0 Z " fill="#EC8181" transform="translate(225,218)"/>
<path d="M0 0 C40.59 0 81.18 0 123 0 C123 3.3 123 6.6 123 10 C82.41 10 41.82 10 0 10 C0 6.7 0 3.4 0 0 Z " fill="#EC8181" transform="translate(225,114)"/>
<path d="M0 0 C2.375 2.375 2.375 2.375 4 5 C2.76574477 8.70276569 1.37754451 9.5035057 -1.6875 11.875 C-6.37776219 15.61255268 -10.81604788 19.52003527 -15.1875 23.625 C-19.4283957 27.60364849 -23.68447214 31.53852588 -28.08984375 35.3359375 C-30.36204511 37.31540126 -32.58459872 39.3458317 -34.8125 41.375 C-38.21083552 44.44746773 -41.67590523 47.38442622 -45.25 50.25 C-48.50008937 52.86118292 -51.61678422 55.54660525 -54.6328125 58.421875 C-55.25381836 59.01323242 -55.87482422 59.60458984 -56.51464844 60.21386719 C-57.73214907 61.38279562 -58.94152441 62.56026101 -60.14160156 63.74707031 C-65.662641 69.05172319 -65.662641 69.05172319 -70 69 C-72.40932935 67.66729071 -73.98426996 65.92197516 -76 64 C-75.85223613 59.1237924 -73.36383534 56.97016178 -70.015625 53.8125 C-67.4164234 51.47523344 -64.80453307 49.15659772 -62.15625 46.875 C-59.80037042 44.82640906 -57.4949254 42.72796998 -55.1875 40.625 C-50.80889933 36.67554243 -46.32373289 32.89290535 -41.71484375 29.21484375 C-39.93258701 27.76082997 -38.19252873 26.25318385 -36.50390625 24.69140625 C-30.24678624 19.07501533 -25.38178783 17.76957284 -17 18 C-17.020625 16.700625 -17.04125 15.40125 -17.0625 14.0625 C-16.40011837 7.53183113 -11.84602376 3.98352045 -7 0 C-4.20824656 -1.39587672 -2.93876905 -0.97958968 0 0 Z " fill="#FCAAA5" transform="translate(113,220)"/>
<path d="M0 0 C2.10827055 3.16240582 2.33817465 4.50657469 2.625 8.1875 C2.73714844 9.53908203 2.73714844 9.53908203 2.8515625 10.91796875 C2.90054688 11.60503906 2.94953125 12.29210937 3 13 C-1.7434852 13.76304946 -6.29112478 14.12829633 -11.09375 14.1328125 C-11.75460602 14.13426773 -12.41546204 14.13572296 -13.09634399 14.13722229 C-15.23095527 14.13945329 -17.36540481 14.13321895 -19.5 14.125 C-20.22910583 14.12311676 -20.95821167 14.12123352 -21.70941162 14.11929321 C-31.18315822 14.09061006 -40.65608012 14.00722567 -50.125 13.6875 C-51.03443359 13.66510254 -51.94386719 13.64270508 -52.88085938 13.61962891 C-59.38754269 13.34583283 -64.4430761 12.29467529 -69.4375 7.8125 C-69.953125 7.214375 -70.46875 6.61625 -71 6 C-74.08183248 6.70184222 -74.08183248 6.70184222 -75.4375 9 C-77.32723295 11.41885818 -78.03662838 11.49581525 -81 12 C-82.85238076 12.09140921 -84.70787209 12.13004661 -86.5625 12.125 C-87.51253906 12.12757813 -88.46257812 12.13015625 -89.44140625 12.1328125 C-92 12 -92 12 -95 11 C-95 7.7 -95 4.4 -95 1 C-82.64830272 0.80009887 -70.29648222 0.61634311 -57.94423866 0.45341206 C-52.20909 0.37725113 -46.47413555 0.29545141 -40.73925781 0.20092773 C-35.20864523 0.10997557 -29.67800897 0.03362266 -24.14704514 -0.03244972 C-22.03297741 -0.06030118 -19.91897323 -0.09348501 -17.80507278 -0.13199425 C-14.85262156 -0.18488396 -11.90051658 -0.21910297 -8.94775391 -0.2487793 C-8.0666243 -0.26891586 -7.18549469 -0.28905243 -6.27766418 -0.30979919 C-3.84707642 -0.32279968 -3.84707642 -0.32279968 0 0 Z " fill="#FCA9A5" transform="translate(242,436)"/>
<path d="M0 0 C40.59 0 81.18 0 123 0 C123 2.97 123 5.94 123 9 C60.63 9.495 60.63 9.495 -3 10 C-3 9.34 -3 8.68 -3 8 C-1.02 7.67 0.96 7.34 3 7 C3 6.01 3 5.02 3 4 C1.35 3.67 -0.3 3.34 -2 3 C-1.34 2.67 -0.68 2.34 0 2 C0 1.34 0 0.68 0 0 Z " fill="#EC7878" transform="translate(225,141)"/>
<path d="M0 0 C2.5 2.125 2.5 2.125 4 5 C4 10.68406471 1.95091483 14.33565075 -1 19 C-2.65 18.67 -4.3 18.34 -6 18 C-5.01 17.34 -4.02 16.68 -3 16 C-3 15.34 -3 14.68 -3 14 C-6.3 14 -9.6 14 -13 14 C-13 14.66 -13 15.32 -13 16 C-12.34 16.33 -11.68 16.66 -11 17 C-11.99 17 -12.98 17 -14 17 C-14.04125 17.928125 -14.0825 18.85625 -14.125 19.8125 C-15 23 -15 23 -17.6875 24.875 C-23.05119604 26.69663262 -27.51285265 26.04517092 -33 25 C-34.32 26.65 -35.64 28.3 -37 30 C-40.37318554 25.50241928 -40.51804578 22.43948065 -40 17 C-38.61377137 14.36616561 -37.74210254 13.31992216 -35.015625 12.14453125 C-32.54496402 10.74161716 -32.07976714 9.6510489 -31 7.0625 C-28.33843918 1.44364937 -28.33843918 1.44364937 -25 0 C-20.75542875 -0.40130492 -17.05861069 -0.35287023 -13 1 C-12.0925 0.67 -11.185 0.34 -10.25 0 C-6.30015128 -1.21533807 -3.97406549 -1.10390708 0 0 Z " fill="#030101" transform="translate(186,61)"/>
<path d="M0 0 C23.76 0 47.52 0 72 0 C72 3.3 72 6.6 72 10 C48.24 10 24.48 10 0 10 C0 6.7 0 3.4 0 0 Z " fill="#EC8282" transform="translate(225,193)"/>
<path d="M0 0 C9.23997552 -0.02312524 18.47994114 -0.04091601 27.71993923 -0.05181217 C32.00999915 -0.05704061 36.30003933 -0.06413753 40.59008789 -0.07543945 C44.726794 -0.08626975 48.86348108 -0.09227714 53.00020027 -0.09487724 C54.58192304 -0.09673124 56.16364471 -0.10035136 57.74535942 -0.10573006 C59.95322838 -0.1129424 62.16101773 -0.11399086 64.36889648 -0.11352539 C65.62798325 -0.115746 66.88707001 -0.11796661 68.18431091 -0.12025452 C71 0 71 0 72 1 C72 3.97 72 6.94 72 10 C48.24 10 24.48 10 0 10 C0 6.7 0 3.4 0 0 Z " fill="#EC8282" transform="translate(354,114)"/>
<path d="M0 0 C0.65742188 0.21914062 1.31484375 0.43828125 1.9921875 0.6640625 C2.9821875 0.6640625 3.9721875 0.6640625 4.9921875 0.6640625 C5.3221875 0.3340625 5.6521875 0.0040625 5.9921875 -0.3359375 C9.05699771 -0.4972433 11.04768028 -0.31743991 13.9921875 0.6640625 C14.8171875 0.5815625 15.6421875 0.4990625 16.4921875 0.4140625 C18.9921875 0.6640625 18.9921875 0.6640625 20.7421875 2.6015625 C23.79436394 10.07939477 23.10979567 16.99135894 20.9921875 24.6640625 C20.6621875 25.3240625 20.3321875 25.9840625 19.9921875 26.6640625 C18.0546875 26.3515625 18.0546875 26.3515625 15.9921875 25.6640625 C15.6621875 24.6740625 15.3321875 23.6840625 14.9921875 22.6640625 C14.3321875 22.6640625 13.6721875 22.6640625 12.9921875 22.6640625 C12.3321875 23.9840625 11.6721875 25.3040625 10.9921875 26.6640625 C9.3421875 26.6640625 7.6921875 26.6640625 5.9921875 26.6640625 C5.3321875 25.3440625 4.6721875 24.0240625 3.9921875 22.6640625 C3.5796875 23.3240625 3.1671875 23.9840625 2.7421875 24.6640625 C2.1646875 25.3240625 1.5871875 25.9840625 0.9921875 26.6640625 C-0.3278125 26.6640625 -1.6478125 26.6640625 -3.0078125 26.6640625 C-3.26175781 25.76042969 -3.51570313 24.85679688 -3.77734375 23.92578125 C-4.29361328 22.15654297 -4.29361328 22.15654297 -4.8203125 20.3515625 C-5.15675781 19.17980469 -5.49320313 18.00804687 -5.83984375 16.80078125 C-6.91872309 13.90332269 -7.63238434 12.54943098 -10.0078125 10.6640625 C-8.77444473 6.47061207 -5.18015191 -0.86671802 0 0 Z " fill="#D06B54" transform="translate(261.0078125,72.3359375)"/>
<path d="M0 0 C23.43 0 46.86 0 71 0 C71 2.97 71 5.94 71 9 C47.57 9 24.14 9 0 9 C0 6.03 0 3.06 0 0 Z " fill="#EC7C7C" transform="translate(355,219)"/>
<path d="M0 0 C23.43 0 46.86 0 71 0 C71 2.97 71 5.94 71 9 C47.57 9 24.14 9 0 9 C0 6.03 0 3.06 0 0 Z " fill="#EC7979" transform="translate(354,141)"/>
<path d="M0 0 C0.36491043 0.48608231 0.72982086 0.97216461 1.10578918 1.47297668 C3.82482053 3.66493137 5.84185458 3.39885739 9.30737305 3.43237305 C11.25905647 3.46206429 11.25905647 3.46206429 13.25016785 3.49235535 C14.67068335 3.49912517 16.09120042 3.50557203 17.51171875 3.51171875 C18.96476261 3.52856329 20.41779188 3.54671324 21.87080383 3.56611633 C25.69299764 3.61364742 29.5151323 3.64343635 33.33752441 3.66955566 C37.23880701 3.69934573 41.13988571 3.74588132 45.04101562 3.79101562 C52.69390932 3.87708396 60.34681778 3.94441319 68 4 C68 6.97 68 9.94 68 13 C59.90757404 13.29361028 51.81523866 13.54821345 43.72014523 13.75383663 C39.96071506 13.85053956 36.20264995 13.96036828 32.44458008 14.10083008 C28.81397443 14.23603421 25.1839167 14.33592669 21.55160713 14.41195869 C20.16984461 14.44697684 18.78833704 14.49446062 17.40745354 14.55491447 C6.64725325 15.01389102 6.64725325 15.01389102 2.58206177 12.51174927 C-0.64979836 9.3977816 -2.85852395 6.66870965 -3 2 C-2.01 1.34 -1.02 0.68 0 0 Z " fill="#EC7878" transform="translate(228,164)"/>
<path d="M0 0 C8.25 0 16.5 0 25 0 C25 8.25 25 16.5 25 25 C16.75 25 8.5 25 0 25 C0 16.75 0 8.5 0 0 Z " fill="#FDFDFD" transform="translate(225,283)"/>
<path d="M0 0 C8.25 0 16.5 0 25 0 C25 8.25 25 16.5 25 25 C16.75 25 8.5 25 0 25 C0 16.75 0 8.5 0 0 Z " fill="#FEFEFE" transform="translate(225,250)"/>
<path d="M0 0 C19.8 0 39.6 0 60 0 C60 3.3 60 6.6 60 10 C40.2 10 20.4 10 0 10 C0 6.7 0 3.4 0 0 Z " fill="#EC8181" transform="translate(303,193)"/>
<path d="M0 0 C19.8 0 39.6 0 60 0 C60 2.97 60 5.94 60 9 C40.2 9 20.4 9 0 9 C0 6.03 0 3.06 0 0 Z " fill="#EC7979" transform="translate(303,168)"/>
<path d="M0 0 C18.81 0 37.62 0 57 0 C57 2.97 57 5.94 57 9 C38.19 9 19.38 9 0 9 C0 6.03 0 3.06 0 0 Z " fill="#EC7D7D" transform="translate(369,168)"/>
<path d="M0 0 C18.48 0 36.96 0 56 0 C56 2.97 56 5.94 56 9 C37.52 9 19.04 9 0 9 C0 6.03 0 3.06 0 0 Z " fill="#EC7C7C" transform="translate(370,193)"/>
<path d="M0 0 C8.59413721 0.51211107 16.83155324 1.78836453 25.25 3.5625 C26.38824219 3.79646484 27.52648437 4.03042969 28.69921875 4.27148438 C31.46750142 4.84142492 34.23430339 5.41766365 37 6 C36.62890625 7.94140625 36.62890625 7.94140625 36 10 C33.9375 10.9375 33.9375 10.9375 31 12 C28.91886911 13.24137632 26.89355982 14.5503314 24.8671875 15.87890625 C16.91076551 20.65608849 5.53047488 17.88073462 -3 16 C-2.52013969 10.43109483 -1.70084819 5.32932432 0 0 Z " fill="#FB7F64" transform="translate(155,392)"/>
<path d="M0 0 C0.495 0.99 0.495 0.99 1 2 C-1.31 2.66 -3.62 3.32 -6 4 C-5.01 5.65 -4.02 7.3 -3 9 C-2.21625 8.484375 -1.4325 7.96875 -0.625 7.4375 C0.674375 6.7259375 0.674375 6.7259375 2 6 C2.66 6.33 3.32 6.66 4 7 C2.02 8.32 0.04 9.64 -2 11 C-1.34 12.98 -0.68 14.96 0 17 C3.10551666 17 4.35261084 16.4606285 7 15 C7 15.66 7 16.32 7 17 C4.5 18.625 4.5 18.625 2 20 C2.66 22.31 3.32 24.62 4 27 C5.65 25.68 7.3 24.36 9 23 C9.66 23.33 10.32 23.66 11 24 C10.154375 24.721875 9.30875 25.44375 8.4375 26.1875 C5.69214482 28.71845014 5.69214482 28.71845014 6.0625 31.6875 C6.88303421 34.1427942 6.88303421 34.1427942 9 36 C9.99 35.01 10.98 34.02 12 33 C12.66 33.33 13.32 33.66 14 34 C13.67 34.33 13.34 34.66 13 35 C12.76321284 37.69235776 12.57801975 40.36498156 12.4375 43.0625 C12.37272461 44.20041992 12.37272461 44.20041992 12.30664062 45.36132812 C12.20026367 47.24065438 12.09960066 49.12030244 12 51 C7.94052163 52.17736056 3.87697071 53.3400023 -0.1875 54.5 C-1.33798828 54.83386719 -2.48847656 55.16773438 -3.67382812 55.51171875 C-4.78564453 55.82753906 -5.89746094 56.14335937 -7.04296875 56.46875 C-8.06414795 56.76201172 -9.08532715 57.05527344 -10.13745117 57.35742188 C-12.86914953 57.970627 -15.21302737 58.1253578 -18 58 C-18 57.34 -18 56.68 -18 56 C-17.31035156 55.64808594 -16.62070313 55.29617187 -15.91015625 54.93359375 C-7.27699803 50.39792901 -0.05781986 45.70486598 6 38 C5.60619141 37.0713916 5.21238281 36.1427832 4.80664062 35.18603516 C3.34942699 31.74728389 1.89690193 28.30656896 0.44580078 24.86523438 C-0.18345026 23.37478328 -0.81397934 21.8848711 -1.44580078 20.39550781 C-2.35263534 18.25725741 -3.25488789 16.11712448 -4.15625 13.9765625 C-4.44060913 13.30879791 -4.72496826 12.64103333 -5.01794434 11.95303345 C-7 7.22774341 -7 7.22774341 -7 5 C-18.84098815 7.97992286 -30.60597472 10.98442377 -42.13671875 15.01953125 C-44.41983197 15.801334 -46.64924773 16.46807795 -49 17 C-49 16.34 -49 15.68 -49 15 C-46.36 14.01 -43.72 13.02 -41 12 C-43.97 11.67 -46.94 11.34 -50 11 C-50 9.68 -50 8.36 -50 7 C-48.22925083 6.97294271 -46.45838289 6.95357805 -44.6875 6.9375 C-43.70136719 6.92589844 -42.71523437 6.91429687 -41.69921875 6.90234375 C-39 7 -39 7 -36 8 C-31.03062154 8.26717089 -27.05134493 7.65703728 -22.3125 6.1875 C-16.71349895 4.50062148 -11.10846764 2.98973709 -5.42578125 1.61328125 C-3.59648861 1.15080308 -1.79002175 0.59667392 0 0 Z " fill="#FEE8E4" transform="translate(193,145)"/>
<path d="M0 0 C2.3046875 1.53125 2.3046875 1.53125 4 3 C4 6.4398759 3.53558242 8.43271292 1.15234375 10.95703125 C-0.85220487 12.69289258 -2.9229651 14.3515596 -5 16 C0.28 16 5.56 16 11 16 C11.33 14.68 11.66 13.36 12 12 C15.37287736 9.37665094 17.75651873 8.63627303 22 9 C22.495 10.98 22.495 10.98 23 13 C19.6659053 15.19097652 16.95820859 16.43454163 13 17 C13 17.66 13 18.32 13 19 C17.29 19.99 21.58 20.98 26 22 C26 22.66 26 23.32 26 24 C24.62383557 23.93883714 23.24890621 23.84975557 21.875 23.75 C21.10929687 23.70359375 20.34359375 23.6571875 19.5546875 23.609375 C17 23 17 23 14.3828125 20.98632812 C10.1035072 18.47359516 7.17079123 18.48072175 2.3203125 18.609375 C1.50754852 18.61503479 0.69478455 18.62069458 -0.14260864 18.62652588 C-2.72068945 18.64879162 -5.29734431 18.69896685 -7.875 18.75 C-9.63018816 18.7700778 -11.38539826 18.78832633 -13.140625 18.8046875 C-17.42762689 18.84862388 -21.71357227 18.91758089 -26 19 C-26 18.67 -26 18.34 -26 18 C-21.38 17.67 -16.76 17.34 -12 17 C-12 16.34 -12 15.68 -12 15 C-12.66 15 -13.32 15 -14 15 C-16.5099972 11.23500419 -16.61476744 9.45706394 -16 5 C-11.63725404 -0.3960279 -6.76746258 -1.3400916 0 0 Z " fill="#A9A9A9" transform="translate(411,282)"/>
<path d="M0 0 C0.66 0.33 1.32 0.66 2 1 C1.17113281 1.99902344 0.34226563 2.99804688 -0.51171875 4.02734375 C-3.27418479 7.93182397 -3.4062059 10.91242839 -2.8125 15.5625 C-1.97191886 25.06255909 -1.83000606 34.52193636 -1.81771851 44.05245972 C-1.81426308 45.75586504 -1.80620936 47.45926777 -1.79336548 49.16262817 C-1.6381784 69.8668122 -1.6381784 69.8668122 -5.75 77.0625 C-8 79 -8 79 -10.875 79.5625 C-17.39970022 78.38805396 -20.11653841 75.0946029 -23.8125 69.875 C-25.33169124 67.61465806 -26.78249994 65.43500012 -28 63 C-31.85349382 64.6317426 -34.75987957 67.21519257 -37.875 69.9375 C-42.71665838 74.09766738 -47.61836816 78.16453986 -52.625 82.125 C-53.51227783 82.83450806 -53.51227783 82.83450806 -54.41748047 83.55834961 C-56.93893862 85.54137519 -58.93091415 86.97697138 -62 88 C-62 87.34 -62 86.68 -62 86 C-60.13709711 84.4419912 -58.26816023 82.99611597 -56.3125 81.5625 C-51.51977699 77.96911413 -46.86162251 74.27239748 -42.3125 70.375 C-38.36355444 67.00334051 -34.40484875 63.65034877 -30.375 60.375 C-29.59898437 59.74335938 -28.82296875 59.11171875 -28.0234375 58.4609375 C-26 57 -26 57 -23 56 C-23.495 53.03 -23.495 53.03 -24 50 C-22.68 50.66 -21.36 51.32 -20 52 C-20 52.99 -20 53.98 -20 55 C-19.814375 55.66 -19.62875 56.32 -19.4375 57 C-19 59 -19 59 -20 62 C-20.66 60.68 -21.32 59.36 -22 58 C-23.32 58.66 -24.64 59.32 -26 60 C-24.68866267 66.39276947 -20.50625406 70.54068609 -16 75 C-13.29120665 76.35439668 -10.99066732 76.06501451 -8 76 C-7.51279787 74.64870353 -7.03571816 73.29375684 -6.5625 71.9375 C-6.29566406 71.18339844 -6.02882812 70.42929687 -5.75390625 69.65234375 C-3.83130454 62.88837193 -3.84303032 56.15689033 -3.875 49.1875 C-3.87693359 48.15882813 -3.87886719 47.13015625 -3.88085938 46.0703125 C-3.94602079 34.03717101 -4.44994447 22.01929848 -5 10 C-5.66 9.67 -6.32 9.34 -7 9 C-4.69 6.03 -2.38 3.06 0 0 Z " fill="#B90808" transform="translate(165,207)"/>
<path d="M0 0 C1.9296875 0.8515625 1.9296875 0.8515625 3.9296875 3.8515625 C4.35522454 6.98313684 4.25397779 10.13162216 4.2421875 13.2890625 C4.25830078 14.14822266 4.27441406 15.00738281 4.29101562 15.89257812 C4.29383547 19.52735612 4.27147796 22.15220665 2.66015625 25.44921875 C0.9296875 26.8515625 0.9296875 26.8515625 -3.0703125 26.8515625 C-3.32425781 25.94792969 -3.57820313 25.04429688 -3.83984375 24.11328125 C-4.35611328 22.34404297 -4.35611328 22.34404297 -4.8828125 20.5390625 C-5.21925781 19.36730469 -5.55570313 18.19554687 -5.90234375 16.98828125 C-6.98122309 14.09082269 -7.69488434 12.73693098 -10.0703125 10.8515625 C-8.77585425 6.45040445 -5.29462916 -0.37961492 0 0 Z " fill="#FB8266" transform="translate(261.0703125,72.1484375)"/>
<path d="M0 0 C0 5.61 0 11.22 0 17 C-7.92 17 -15.84 17 -24 17 C-24 13.7 -24 10.4 -24 7 C-20.86217036 8.56891482 -18.49160748 10.02310093 -15.75 12.125 C-15.04359375 12.66382813 -14.3371875 13.20265625 -13.609375 13.7578125 C-13.07828125 14.16773438 -12.5471875 14.57765625 -12 15 C-11.7421875 14.44699219 -11.484375 13.89398438 -11.21875 13.32421875 C-9.82590283 10.66798777 -8.2151703 8.27260655 -6.5 5.8125 C-5.58734375 4.49185547 -5.58734375 4.49185547 -4.65625 3.14453125 C-2.2276867 0 -2.2276867 0 0 0 Z " fill="#FEFEFE" transform="translate(250,291)"/>
<path d="M0 0 C0 4.95 0 9.9 0 15 C-4.10140153 16.19786017 -8.20563371 17.38365648 -12.3125 18.5625 C-14.06336914 19.07586914 -14.06336914 19.07586914 -15.84960938 19.59960938 C-16.96787109 19.91865234 -18.08613281 20.23769531 -19.23828125 20.56640625 C-20.26993408 20.86490479 -21.30158691 21.16340332 -22.36450195 21.47094727 C-25 22 -25 22 -28 21 C-27.17757812 20.52691406 -26.35515625 20.05382812 -25.5078125 19.56640625 C-16.96117832 14.50356176 -9.75799451 8.86708433 -2.78515625 1.734375 C-1 0 -1 0 0 0 Z " fill="#FBA596" transform="translate(205,181)"/>
<path d="M0 0 C1.67542976 0.28604898 3.34385343 0.61781233 5 1 C8.3538996 8.67417705 8.90189523 15.88114445 5.94921875 23.828125 C5.63597656 24.54484375 5.32273437 25.2615625 5 26 C1.125 25.125 1.125 25.125 0 24 C-1.16235209 16.38013628 -1.35954682 8.69853196 -1 1 C-0.67 0.67 -0.34 0.34 0 0 Z " fill="#FB8165" transform="translate(276,73)"/>
<path d="M0 0 C-0.33 1.98 -0.66 3.96 -1 6 C2.3 6 5.6 6 9 6 C8.69080748 8.86003076 8.41927517 10.54718282 6.4375 12.6875 C1.63303675 15.27451867 -3.5484818 16.34071989 -9 16 C-8 14 -8 14 -5.85546875 13.21875 C-4.97503906 12.9815625 -4.09460938 12.744375 -3.1875 12.5 C0.09474484 11.60792755 3.00403062 10.62019789 6 9 C5.14277344 9.20496094 4.28554687 9.40992188 3.40234375 9.62109375 C-2.38403171 10.98451255 -8.09206816 12.31303118 -14 13 C-12.48268615 8.44805844 -10.06964403 4.65996019 -7 1 C-4.53721199 -0.231394 -2.7204945 -0.07159196 0 0 Z M-6.625 4.5 C-7.40875 5.325 -8.1925 6.15 -9 7 C-8.67 7.66 -8.34 8.32 -8 9 C-6.02 6.69 -4.04 4.38 -2 2 C-4.36278736 1.77011494 -4.36278736 1.77011494 -6.625 4.5 Z " fill="#BA1210" transform="translate(213,403)"/>
<path d="M0 0 C0.99 0.66 1.98 1.32 3 2 C3 4.97050469 2.41100884 6.58130875 0.328125 8.703125 C-4.98543537 12.97794425 -4.98543537 12.97794425 -8.875 13.0625 C-11 12 -11 12 -13 9 C-13.41519209 5.67846329 -13.63717157 3.83109336 -11.5625 1.125 C-7.7905183 -0.53099197 -4.06173896 -0.57597403 0 0 Z " fill="#E3E3E3" transform="translate(410,284)"/>
<path d="M0 0 C3.22492816 3.22492816 3.15845551 6.20001728 3.1875 10.5625 C3.20167969 11.53316406 3.21585938 12.50382812 3.23046875 13.50390625 C3 16 3 16 1 18 C-1.125 17.625 -1.125 17.625 -3 17 C-3.33 15.35 -3.66 13.7 -4 12 C-4.39832031 12.5775 -4.79664062 13.155 -5.20703125 13.75 C-5.73683594 14.4925 -6.26664062 15.235 -6.8125 16 C-7.33457031 16.7425 -7.85664062 17.485 -8.39453125 18.25 C-8.92433594 18.8275 -9.45414062 19.405 -10 20 C-10.99 20 -11.98 20 -13 20 C-14.45685249 15.76188366 -13.66265993 12.99318272 -12.03515625 9.00390625 C-10.4320369 5.90050916 -8.3674879 3.55944638 -6 1 C-5.67 1.66 -5.34 2.32 -5 3 C-5.99609375 5.27734375 -5.99609375 5.27734375 -7.4375 7.9375 C-9.54330981 11.74428811 -9.54330981 11.74428811 -10 16 C-9.51789063 15.07316406 -9.03578125 14.14632813 -8.5390625 13.19140625 C-7.9013418 11.98161257 -7.26330452 10.77198574 -6.625 9.5625 C-6.30789062 8.95083984 -5.99078125 8.33917969 -5.6640625 7.70898438 C-3.2265625 3.11328125 -3.2265625 3.11328125 -1 2 C-0.67 5.96 -0.34 9.92 0 14 C0 9.38 0 4.76 0 0 Z " fill="#B30909" transform="translate(92,278)"/>
<path d="M0 0 C1.32 0.66 2.64 1.32 4 2 C2.55797524 6.15151338 0.4989562 9.29978445 -2.125 12.8125 C-3.21167969 14.27623047 -3.21167969 14.27623047 -4.3203125 15.76953125 C-4.87460938 16.50558594 -5.42890625 17.24164063 -6 18 C-9.92300272 16.17495091 -12.73787272 13.81729174 -16 11 C-15.67 9.68 -15.34 8.36 -15 7 C-11 7 -11 7 -7 9 C-4.69 6.03 -2.38 3.06 0 0 Z " fill="#DADADA" transform="translate(244,288)"/>
<path d="M0 0 C1.32 0 2.64 0 4 0 C5.55566406 1.82006836 5.55566406 1.82006836 7.015625 4.33984375 C7.54414063 5.23767578 8.07265625 6.13550781 8.6171875 7.06054688 C9.15601563 8.00994141 9.69484375 8.95933594 10.25 9.9375 C10.80429688 10.88302734 11.35859375 11.82855469 11.9296875 12.80273438 C16 19.79545105 16 19.79545105 16 21 C12.04 21 8.08 21 4 21 C4 20.34 4 19.68 4 19 C7.465 18.505 7.465 18.505 11 18 C10.278125 17.67 9.55625 17.34 8.8125 17 C4.9345398 14.24233942 3.36131881 11.11544135 1 7 C2.32 9.97 3.64 12.94 5 16 C4.34 16 3.68 16 3 16 C-0.57823196 10.63265206 -1.5560192 7.44982271 -1 1 C-0.67 0.67 -0.34 0.34 0 0 Z " fill="#AF1815" transform="translate(200,121)"/>
<path d="M0 0 C0.99 0.99 1.98 1.98 3 3 C-4.13470024 9.61029287 -11.40568342 15.91867105 -19 22 C-20 19 -20 19 -18.625 15.25 C-14.72905925 7.91646447 -7.12136339 3.78795925 0 0 Z " fill="#FB7C62" transform="translate(131,252)"/>
<path d="M0 0 C0.33 0.66 0.66 1.32 1 2 C-0.65 2.99 -2.3 3.98 -4 5 C-3.34 7.31 -2.68 9.62 -2 12 C-0.35 10.68 1.3 9.36 3 8 C3.66 8.33 4.32 8.66 5 9 C4.154375 9.721875 3.30875 10.44375 2.4375 11.1875 C-0.30785518 13.71845014 -0.30785518 13.71845014 0.0625 16.6875 C0.88303421 19.1427942 0.88303421 19.1427942 3 21 C3.99 20.01 4.98 19.02 6 18 C6.66 18.33 7.32 18.66 8 19 C0.24725661 27.16018684 -7.0666963 34.49226575 -17 40 C-18.32837891 40.82951172 -18.32837891 40.82951172 -19.68359375 41.67578125 C-22 43 -22 43 -24 43 C-24 42.34 -24 41.68 -24 41 C-23.31035156 40.64808594 -22.62070313 40.29617187 -21.91015625 39.93359375 C-13.34036377 35.43121993 -5.92718168 30.75704985 0 23 C-0.5053125 21.79601562 -1.010625 20.59203125 -1.53125 19.3515625 C-2.18768492 17.7761187 -2.84392483 16.20059364 -3.5 14.625 C-3.83386719 13.8309375 -4.16773438 13.036875 -4.51171875 12.21875 C-4.82753906 11.45820313 -5.14335937 10.69765625 -5.46875 9.9140625 C-5.76201172 9.2123291 -6.05527344 8.5105957 -6.35742188 7.78759766 C-7 6 -7 6 -7 4 C-4.69 2.68 -2.38 1.36 0 0 Z " fill="#FEEBE7" transform="translate(199,160)"/>
<path d="M0 0 C-1.41708252 0.30224487 -1.41708252 0.30224487 -2.86279297 0.6105957 C-6.21318464 1.69346604 -6.21318464 1.69346604 -7.35205078 4.74291992 C-7.63032715 5.89381104 -7.90860352 7.04470215 -8.1953125 8.23046875 C-8.51886719 9.50986328 -8.84242188 10.78925781 -9.17578125 12.10742188 C-9.49296434 13.46726695 -9.80936849 14.82729395 -10.125 16.1875 C-10.44682749 17.49733464 -10.77102623 18.80658906 -11.09765625 20.11523438 C-11.74879795 22.73482753 -12.38692773 25.35710297 -13.01660156 27.98193359 C-14.55792593 34.35238829 -16.28530231 40.6744315 -18 47 C-18.66 47 -19.32 47 -20 47 C-16.81651515 31.87350364 -12.9409937 16.94477948 -9 2 C-12.96 2 -16.92 2 -21 2 C-21 1.67 -21 1.34 -21 1 C-18.25091555 0.63685675 -15.50116549 0.28419159 -12.75 -0.0625 C-11.97269531 -0.16626953 -11.19539062 -0.27003906 -10.39453125 -0.37695312 C-9.64042969 -0.47041016 -8.88632813 -0.56386719 -8.109375 -0.66015625 C-7.41811523 -0.74918213 -6.72685547 -0.83820801 -6.01464844 -0.92993164 C-3.82569152 -1.00606235 -2.08994187 -0.6249336 0 0 Z " fill="#BC0808" transform="translate(180,345)"/>
<path d="M0 0 C5.31651784 3.0380102 8.89647133 6.688387 12 12 C12.875 15.5 12.875 15.5 13 18 C11.68 18.33 10.36 18.66 9 19 C4.18526266 14.05151996 0 7.13432579 0 0 Z " fill="#EB0A0A" transform="translate(143,260)"/>
<path d="M0 0 C0.33 0.99 0.66 1.98 1 3 C2.98 3 4.96 3 7 3 C6.360625 3.226875 5.72125 3.45375 5.0625 3.6875 C4.381875 4.120625 3.70125 4.55375 3 5 C2.65846063 6.66500443 2.32550502 8.33178677 2 10 C-0.0625 11.8125 -0.0625 11.8125 -2 13 C-5.01974448 8.65156794 -5.01974448 8.65156794 -4.9375 5.9375 C-3.72383388 3.42925669 -2.05439184 1.85557973 0 0 Z " fill="#FDAB9A" transform="translate(203,169)"/>
<path d="M0 0 C2.12508244 3.18762365 2.5020163 5.26512223 3 9 C1.02 9.99 -0.96 10.98 -3 12 C-6.16216216 6.64864865 -6.16216216 6.64864865 -5.4375 3.75 C-3.80275034 1.75986998 -2.37438095 0.94975238 0 0 Z " fill="#FEA998" transform="translate(196,152)"/>
<path d="M0 0 C4.4114727 3.23507998 4.84694558 6.84557192 5.703125 11.953125 C5.85007813 12.96632812 5.85007813 12.96632812 6 14 C4.87105124 13.06725891 3.74699124 12.12859878 2.625 11.1875 C1.99851563 10.66542969 1.37203125 10.14335937 0.7265625 9.60546875 C-1 8 -1 8 -3 5 C-2.75 2.875 -2.75 2.875 -2 1 C-1.34 0.67 -0.68 0.34 0 0 Z " fill="#B01111" transform="translate(228,164)"/>
<path d="M0 0 C0.66 1.98 1.32 3.96 2 6 C-0.97 8.475 -0.97 8.475 -4 11 C-5.5625 8.1875 -5.5625 8.1875 -7 5 C-5.64703851 0.94111554 -4.27479763 0 0 0 Z " fill="#FEA999" transform="translate(201,162)"/>
<path d="M0 0 C-0.21484375 1.890625 -0.21484375 1.890625 -1 4 C-3.06640625 5.046875 -3.06640625 5.046875 -5.5625 5.75 C-6.80193359 6.11351562 -6.80193359 6.11351562 -8.06640625 6.484375 C-9.02353516 6.73960937 -9.02353516 6.73960937 -10 7 C-10.33 6.01 -10.66 5.02 -11 4 C-7.20307814 1.17438373 -4.81430721 -0.56638908 0 0 Z " fill="#ACACAC" transform="translate(433,291)"/>
<path d="M0 0 C4.74136766 3.55602574 7.56614286 6.54816 10 12 C9.75 14.9375 9.75 14.9375 9 17 C5.74456771 16.65120368 4.98126893 15.97866739 2.75 13.4375 C2.1725 12.633125 1.595 11.82875 1 11 C1.33 10.34 1.66 9.68 2 9 C2.928125 10.2065625 2.928125 10.2065625 3.875 11.4375 C5.74164041 14.03874519 5.74164041 14.03874519 8 15 C6.49699471 11.04472291 5.09801349 7.89242319 2.3125 4.6875 C0 2 0 2 0 0 Z " fill="#BB0808" transform="translate(146,262)"/>
<path d="M0 0 C2.04737082 2.47096478 3.89316313 4.80490659 5.4375 7.625 C7.2624327 10.3988977 9.11333371 11.43963984 12 13 C12 13.33 12 13.66 12 14 C9.36 14 6.72 14 4 14 C3.67 14.66 3.34 15.32 3 16 C3.2475 15.154375 3.495 14.30875 3.75 13.4375 C4.093134 8.71940744 2.47401441 6.97341709 0 3 C0 2.01 0 1.02 0 0 Z " fill="#F0816F" transform="translate(200,126)"/>
<path d="M0 0 C1.77049689 -0.05410687 3.54146849 -0.09284119 5.3125 -0.125 C6.29863281 -0.14820313 7.28476563 -0.17140625 8.30078125 -0.1953125 C11 0 11 0 14 2 C12.12175109 3.87824891 8.96064724 3.39102397 6.4375 3.5625 C5.23996094 3.64628906 4.04242188 3.73007813 2.80859375 3.81640625 C1.88175781 3.87699219 0.95492187 3.93757812 0 4 C0 2.68 0 1.36 0 0 Z " fill="#FFD3CA" transform="translate(143,152)"/>
<path d="M0 0 C2.46800047 1.15173355 4.04783565 2.04783565 6 4 C-4.89 4 -15.78 4 -27 4 C-27 3.67 -27 3.34 -27 3 C-18.09 3 -9.18 3 0 3 C0 2.01 0 1.02 0 0 Z " fill="#D7A9A0" transform="translate(249,84)"/>
<path d="M0 0 C0.66 1.32 1.32 2.64 2 4 C-0.31 5.32 -2.62 6.64 -5 8 C-5.66 6.02 -6.32 4.04 -7 2 C-2.25 0 -2.25 0 0 0 Z " fill="#FEAB9B" transform="translate(194,147)"/>
<path d="M0 0 C0.59167969 0.27714844 1.18335938 0.55429688 1.79296875 0.83984375 C7.69046431 3.55774153 7.69046431 3.55774153 14 5 C14 6.32 14 7.64 14 9 C8.61774638 7.45216236 4.06345609 6.06345609 0 2 C0 1.34 0 0.68 0 0 Z " fill="#1E0F0C" transform="translate(163,104)"/>
<path d="M0 0 C0.721875 0.103125 1.44375 0.20625 2.1875 0.3125 C1.8575 1.6325 1.5275 2.9525 1.1875 4.3125 C-0.1325 4.3125 -1.4525 4.3125 -2.8125 4.3125 C-5.56291666 6.72916771 -5.56291666 6.72916771 -7.8125 9.3125 C-7.8125 5.3125 -7.8125 5.3125 -5.625 2.5625 C-2.8125 0.3125 -2.8125 0.3125 0 0 Z " fill="#B30808" transform="translate(210.8125,402.6875)"/>
<path d="M0 0 C2.64752004 2.57784846 4.94432065 4.91648098 7 8 C4.69 8 2.38 8 0 8 C0 5.36 0 2.72 0 0 Z " fill="#EB7D7D" transform="translate(225,169)"/>
<path d="M0 0 C1.36125 0.12375 1.36125 0.12375 2.75 0.25 C2.75 0.91 2.75 1.57 2.75 2.25 C-0.75776784 3.85355101 -3.39354879 4.47036864 -7.25 4.25 C-4.83923194 1.28290085 -3.90322061 0.30024774 0 0 Z " fill="#B20808" transform="translate(212.25,409.75)"/>
<path d="M0 0 C1.6415049 3.2830098 0.51888624 6.42545033 0 10 C-1.32 9.01 -2.64 8.02 -4 7 C-2.92598892 4.08482708 -2.22189824 2.22189824 0 0 Z " fill="#FEAB9B" transform="translate(255,76)"/>
<path d="M0 0 C0.7425 0.0825 1.485 0.165 2.25 0.25 C0.27579865 2.77259061 -0.71745642 3.2429808 -3.9375 3.9375 C-5.3296875 4.0921875 -5.3296875 4.0921875 -6.75 4.25 C-3.42692308 0.31153846 -3.42692308 0.31153846 0 0 Z " fill="#D6D6D6" transform="translate(430.75,292.75)"/>
<path d="M0 0 C0.33 0.66 0.66 1.32 1 2 C0.06553465 4.03144641 -0.93224776 6.03533587 -2 8 C-2.99 8 -3.98 8 -5 8 C-3.62845496 5.04590299 -2.01136276 2.55991624 0 0 Z " fill="#BD1615" transform="translate(86,279)"/>
</svg>