<svg xmlns="http://www.w3.org/2000/svg" version="1.1" viewBox="83.8 62.47 361.72 391.09">
<path d="M0 0 C0.93502336 -0.00538554 1.87004672 -0.01077108 2.83340412 -0.01631981 C5.97411642 -0.03065504 9.11441055 -0.02348189 12.25514221 -0.01637268 C14.50375204 -0.02207333 16.75235896 -0.0290364 19.0009613 -0.03717041 C25.1145431 -0.05515055 31.22798174 -0.0539243 37.34158206 -0.04822803 C42.44121562 -0.04514321 47.5408214 -0.05122073 52.64045101 -0.05726677 C65.35694774 -0.07213071 78.07334296 -0.06848506 90.78983349 -0.05640347 C101.83432627 -0.04647084 112.87865153 -0.05941128 123.92311846 -0.08333766 C135.2629658 -0.10771889 146.60271298 -0.11693901 157.94259411 -0.11068493 C164.30933078 -0.10730889 170.67592902 -0.1097734 177.04264641 -0.12693596 C183.02874427 -0.14236743 189.01452152 -0.13849157 195.00060654 -0.11963081 C197.19964981 -0.11593443 199.39871664 -0.11908376 201.59773827 -0.1295166 C204.59580532 -0.14265617 207.59279999 -0.1312411 210.59082031 -0.11352539 C211.90142202 -0.1279329 211.90142202 -0.1279329 213.23850054 -0.14263147 C217.27029442 -0.09348855 219.36265676 0.08437751 222.87565708 2.23150539 C225.92431549 5.54599269 225.98490436 8.27633754 225.99312305 12.59985924 C225.9975809 13.68608491 226.00203874 14.77231059 226.00663167 15.89145219 C226.00644731 17.08938799 226.00626295 18.28732379 226.006073 19.52156067 C226.00974969 20.7905809 226.01342637 22.05960113 226.01721448 23.36707652 C226.02723793 26.89653644 226.03095181 30.42597935 226.03360379 33.95545149 C226.0375057 37.75921827 226.04708397 41.56297156 226.05581665 45.36672974 C226.07558207 54.55504785 226.08564641 63.74336707 226.09454444 72.93170112 C226.09892636 77.25654258 226.10429334 81.58138281 226.10953331 85.9062233 C226.12654406 100.27851546 226.14103963 114.65080685 226.14828205 129.02310753 C226.150192 132.75303015 226.15211232 136.48295277 226.15406799 140.21287537 C226.15455173 141.1399485 226.15503547 142.06702164 226.15553387 143.0221879 C226.16383946 158.05009816 226.18918596 173.07792895 226.22164867 188.10580449 C226.25469055 203.52720445 226.27272812 218.94856397 226.27592629 234.36999953 C226.27809383 243.03164767 226.2868782 251.69317985 226.31238747 260.35479355 C226.33405512 267.72907361 226.34216429 275.10320955 226.33242068 282.47751783 C226.32786477 286.24121602 226.32983664 290.00461661 226.34918213 293.76827431 C226.36995973 297.84567146 226.35986494 301.92240376 226.34664917 305.99983215 C226.35761842 307.19330651 226.36858766 308.38678086 226.37988931 309.6164211 C226.316906 317.62754298 226.316906 317.62754298 223.9350462 321.58065224 C219.21823157 325.68605839 215.28453212 325.66104307 209.15577698 325.58299255 C208.31798706 325.58016266 207.48019714 325.57733276 206.61701965 325.57441711 C203.94750034 325.56324354 201.27831948 325.53814426 198.60890198 325.51268005 C196.79640683 325.5026466 194.98390641 325.49352139 193.17140198 325.4853363 C188.73377205 325.46331345 184.29639435 325.42880309 179.85890198 325.38768005 C179.87984924 326.67343933 179.90079651 327.95919861 179.92237854 329.28392029 C179.99516658 334.08653991 180.04084228 338.88911144 180.07862854 343.69212341 C180.09865594 345.76479817 180.12588609 347.83741705 180.16065979 349.90989685 C180.20956997 352.90133001 180.23195991 355.8920116 180.24952698 358.8837738 C180.27017212 359.79976852 180.29081726 360.71576324 180.31208801 361.65951538 C180.31478623 369.52073511 178.03085696 375.1607755 173.67140198 381.63768005 C167.96889469 387.21346495 161.39327211 390.50027408 153.39561462 390.53485107 C151.69245087 390.54558403 151.69245087 390.54558403 149.95487976 390.55653381 C148.70810455 390.55922272 147.46132935 390.56191162 146.17677307 390.56468201 C144.86430603 390.5712532 143.55183899 390.5778244 142.19960022 390.58459473 C137.84385905 390.60562355 133.48811759 390.6159984 129.13233948 390.6259613 C127.63088081 390.63000979 126.12942232 390.63412674 124.62796402 390.63831139 C117.57092737 390.65736323 110.51390116 390.6715923 103.45684373 390.67992336 C95.32248791 390.68968559 87.18840495 390.71597837 79.05414522 390.75642425 C72.76015097 390.7866406 66.46623467 390.80139758 60.17216933 390.80470437 C56.41646376 390.80704927 52.66104967 390.81593557 48.90542221 390.84116554 C45.36766928 390.8645473 41.83039762 390.8686395 38.29258728 390.85840416 C36.38704794 390.85767732 34.4815325 390.87669901 32.57609558 390.89646912 C23.76988199 390.84340526 17.87838762 389.09310308 10.60890198 384.20018005 C1.46602022 374.84950553 1.85890198 366.6532895 1.85890198 353.38768005 C13.40890198 353.38768005 24.95890198 353.38768005 36.85890198 353.38768005 C36.85890198 344.14768005 36.85890198 334.90768005 36.85890198 325.38768005 C33.76386292 325.4340863 30.66882385 325.48049255 27.47999573 325.52830505 C24.46821226 325.55953819 21.45644714 325.58380461 18.44459534 325.60740662 C16.35824959 325.62746919 14.27195971 325.65472595 12.18580627 325.68943787 C9.17956219 325.73819165 6.17406429 325.76070273 3.16749573 325.77830505 C2.24117844 325.7989502 1.31486115 325.81959534 0.36047363 325.84086609 C-5.66219995 325.84293291 -9.2707219 325.02420628 -14.14109802 321.38768005 C-16.16620804 318.26001441 -16.39215496 315.76921195 -16.39557362 312.08368778 C-16.40140581 311.00243785 -16.407238 309.92118792 -16.41324693 308.80717283 C-16.40946761 307.61993178 -16.40568828 306.43269072 -16.40179443 305.20947266 C-16.40561998 303.94776511 -16.40944553 302.68605756 -16.413387 301.38611645 C-16.42369329 297.88168944 -16.42147852 294.37736445 -16.41720641 290.87292898 C-16.41474395 287.09439761 -16.42374734 283.3158911 -16.4312439 279.53736877 C-16.44400621 272.13404005 -16.44578269 264.73074757 -16.44344363 257.32740969 C-16.44166207 251.31114354 -16.44340664 245.29488841 -16.44766808 239.27862358 C-16.44826326 238.42302253 -16.44885845 237.56742148 -16.44947168 236.68589313 C-16.4506834 234.94785492 -16.45189754 233.20981671 -16.45311406 231.4717785 C-16.46399544 215.16520034 -16.46182424 198.85864285 -16.45572921 182.55206352 C-16.4505592 167.62769327 -16.46181665 152.70338827 -16.48082743 137.77903093 C-16.50018968 122.46155587 -16.50846469 107.14411171 -16.50470418 91.82662433 C-16.50278972 83.2242642 -16.50530347 74.62195962 -16.51941872 66.01960945 C-16.53131294 58.69659967 -16.53275946 51.37367963 -16.52062855 44.05066866 C-16.51472611 40.31334632 -16.51367789 36.57618828 -16.52563095 32.83887672 C-16.53842993 28.79007698 -16.52805788 24.74167089 -16.51531982 20.69287109 C-16.52269411 19.50786076 -16.53006839 18.32285042 -16.53766614 17.10193068 C-16.5304596 16.018073 -16.52325306 14.93421532 -16.51582813 13.81751347 C-16.51588315 12.8829117 -16.51593816 11.94830994 -16.51599485 10.98538691 C-15.95519595 7.09954138 -14.12228508 4.47334247 -11.52491665 1.59941006 C-7.77944056 -0.30447042 -4.14327516 -0.02842724 0 0 Z " fill="#F1F1F1" transform="translate(219.14109802246094,62.61231994628906)"/>
<path d="M0 0 C0.93502336 -0.00538554 1.87004672 -0.01077108 2.83340412 -0.01631981 C5.97411642 -0.03065504 9.11441055 -0.02348189 12.25514221 -0.01637268 C14.50375204 -0.02207333 16.75235896 -0.0290364 19.0009613 -0.03717041 C25.1145431 -0.05515055 31.22798174 -0.0539243 37.34158206 -0.04822803 C42.44121562 -0.04514321 47.5408214 -0.05122073 52.64045101 -0.05726677 C65.35694774 -0.07213071 78.07334296 -0.06848506 90.78983349 -0.05640347 C101.83432627 -0.04647084 112.87865153 -0.05941128 123.92311846 -0.08333766 C135.2629658 -0.10771889 146.60271298 -0.11693901 157.94259411 -0.11068493 C164.30933078 -0.10730889 170.67592902 -0.1097734 177.04264641 -0.12693596 C183.02874427 -0.14236743 189.01452152 -0.13849157 195.00060654 -0.11963081 C197.19964981 -0.11593443 199.39871664 -0.11908376 201.59773827 -0.1295166 C204.59580532 -0.14265617 207.59279999 -0.1312411 210.59082031 -0.11352539 C211.90142202 -0.1279329 211.90142202 -0.1279329 213.23850054 -0.14263147 C217.27029442 -0.09348855 219.36265676 0.08437751 222.87565708 2.23150539 C225.92431549 5.54599269 225.98490436 8.27633754 225.99312305 12.59985924 C225.9975809 13.68608491 226.00203874 14.77231059 226.00663167 15.89145219 C226.00644731 17.08938799 226.00626295 18.28732379 226.006073 19.52156067 C226.00974969 20.7905809 226.01342637 22.05960113 226.01721448 23.36707652 C226.02723793 26.89653644 226.03095181 30.42597935 226.03360379 33.95545149 C226.0375057 37.75921827 226.04708397 41.56297156 226.05581665 45.36672974 C226.07558207 54.55504785 226.08564641 63.74336707 226.09454444 72.93170112 C226.09892636 77.25654258 226.10429334 81.58138281 226.10953331 85.9062233 C226.12654406 100.27851546 226.14103963 114.65080685 226.14828205 129.02310753 C226.150192 132.75303015 226.15211232 136.48295277 226.15406799 140.21287537 C226.15455173 141.1399485 226.15503547 142.06702164 226.15553387 143.0221879 C226.16383946 158.05009816 226.18918596 173.07792895 226.22164867 188.10580449 C226.25469055 203.52720445 226.27272812 218.94856397 226.27592629 234.36999953 C226.27809383 243.03164767 226.2868782 251.69317985 226.31238747 260.35479355 C226.33405512 267.72907361 226.34216429 275.10320955 226.33242068 282.47751783 C226.32786477 286.24121602 226.32983664 290.00461661 226.34918213 293.76827431 C226.36995973 297.84567146 226.35986494 301.92240376 226.34664917 305.99983215 C226.35761842 307.19330651 226.36858766 308.38678086 226.37988931 309.6164211 C226.316906 317.62754298 226.316906 317.62754298 223.9350462 321.58065224 C219.21823157 325.68605839 215.28453212 325.66104307 209.15577698 325.58299255 C208.31798706 325.58016266 207.48019714 325.57733276 206.61701965 325.57441711 C203.94750034 325.56324354 201.27831948 325.53814426 198.60890198 325.51268005 C196.79640683 325.5026466 194.98390641 325.49352139 193.17140198 325.4853363 C188.73377205 325.46331345 184.29639435 325.42880309 179.85890198 325.38768005 C179.87984924 326.67343933 179.90079651 327.95919861 179.92237854 329.28392029 C179.99516658 334.08653991 180.04084228 338.88911144 180.07862854 343.69212341 C180.09865594 345.76479817 180.12588609 347.83741705 180.16065979 349.90989685 C180.20956997 352.90133001 180.23195991 355.8920116 180.24952698 358.8837738 C180.27017212 359.79976852 180.29081726 360.71576324 180.31208801 361.65951538 C180.31478623 369.52073511 178.03085696 375.1607755 173.67140198 381.63768005 C167.96889469 387.21346495 161.39327211 390.50027408 153.39561462 390.53485107 C151.69245087 390.54558403 151.69245087 390.54558403 149.95487976 390.55653381 C148.70810455 390.55922272 147.46132935 390.56191162 146.17677307 390.56468201 C144.86430603 390.5712532 143.55183899 390.5778244 142.19960022 390.58459473 C137.84385905 390.60562355 133.48811759 390.6159984 129.13233948 390.6259613 C127.63088081 390.63000979 126.12942232 390.63412674 124.62796402 390.63831139 C117.57092737 390.65736323 110.51390116 390.6715923 103.45684373 390.67992336 C95.32248791 390.68968559 87.18840495 390.71597837 79.05414522 390.75642425 C72.76015097 390.7866406 66.46623467 390.80139758 60.17216933 390.80470437 C56.41646376 390.80704927 52.66104967 390.81593557 48.90542221 390.84116554 C45.36766928 390.8645473 41.83039762 390.8686395 38.29258728 390.85840416 C36.38704794 390.85767732 34.4815325 390.87669901 32.57609558 390.89646912 C23.76988199 390.84340526 17.87838762 389.09310308 10.60890198 384.20018005 C1.46602022 374.84950553 1.85890198 366.6532895 1.85890198 353.38768005 C13.40890198 353.38768005 24.95890198 353.38768005 36.85890198 353.38768005 C36.85890198 344.14768005 36.85890198 334.90768005 36.85890198 325.38768005 C33.76386292 325.4340863 30.66882385 325.48049255 27.47999573 325.52830505 C24.46821226 325.55953819 21.45644714 325.58380461 18.44459534 325.60740662 C16.35824959 325.62746919 14.27195971 325.65472595 12.18580627 325.68943787 C9.17956219 325.73819165 6.17406429 325.76070273 3.16749573 325.77830505 C2.24117844 325.7989502 1.31486115 325.81959534 0.36047363 325.84086609 C-5.66219995 325.84293291 -9.2707219 325.02420628 -14.14109802 321.38768005 C-16.16620804 318.26001441 -16.39215496 315.76921195 -16.39557362 312.08368778 C-16.40140581 311.00243785 -16.407238 309.92118792 -16.41324693 308.80717283 C-16.40946761 307.61993178 -16.40568828 306.43269072 -16.40179443 305.20947266 C-16.40561998 303.94776511 -16.40944553 302.68605756 -16.413387 301.38611645 C-16.42369329 297.88168944 -16.42147852 294.37736445 -16.41720641 290.87292898 C-16.41474395 287.09439761 -16.42374734 283.3158911 -16.4312439 279.53736877 C-16.44400621 272.13404005 -16.44578269 264.73074757 -16.44344363 257.32740969 C-16.44166207 251.31114354 -16.44340664 245.29488841 -16.44766808 239.27862358 C-16.44826326 238.42302253 -16.44885845 237.56742148 -16.44947168 236.68589313 C-16.4506834 234.94785492 -16.45189754 233.20981671 -16.45311406 231.4717785 C-16.46399544 215.16520034 -16.46182424 198.85864285 -16.45572921 182.55206352 C-16.4505592 167.62769327 -16.46181665 152.70338827 -16.48082743 137.77903093 C-16.50018968 122.46155587 -16.50846469 107.14411171 -16.50470418 91.82662433 C-16.50278972 83.2242642 -16.50530347 74.62195962 -16.51941872 66.01960945 C-16.53131294 58.69659967 -16.53275946 51.37367963 -16.52062855 44.05066866 C-16.51472611 40.31334632 -16.51367789 36.57618828 -16.52563095 32.83887672 C-16.53842993 28.79007698 -16.52805788 24.74167089 -16.51531982 20.69287109 C-16.52269411 19.50786076 -16.53006839 18.32285042 -16.53766614 17.10193068 C-16.5304596 16.018073 -16.52325306 14.93421532 -16.51582813 13.81751347 C-16.51588315 12.8829117 -16.51593816 11.94830994 -16.51599485 10.98538691 C-15.95519595 7.09954138 -14.12228508 4.47334247 -11.52491665 1.59941006 C-7.77944056 -0.30447042 -4.14327516 -0.02842724 0 0 Z M-6.14109802 14.38768005 C-6.44415853 16.58073464 -6.44415853 16.58073464 -6.3927803 19.15722656 C-6.3979958 20.17015998 -6.40321129 21.1830934 -6.40858483 22.22672176 C-6.40189267 23.90849939 -6.40189267 23.90849939 -6.39506531 25.62425232 C-6.39818529 26.80878022 -6.40130527 27.99330812 -6.4045198 29.21373081 C-6.41113922 32.5118872 -6.40872663 35.80981735 -6.40254736 39.10796022 C-6.39803827 42.66083352 -6.40499893 46.21368648 -6.4105072 49.76655579 C-6.41941942 56.73066681 -6.41747108 63.69473483 -6.41168192 70.65884757 C-6.4071726 76.31668181 -6.40654935 81.97450396 -6.40872955 87.63233948 C-6.40903602 88.43634581 -6.40934249 89.24035215 -6.40965824 90.06872231 C-6.41029766 91.70183778 -6.41094609 93.33495325 -6.41160342 94.96806872 C-6.41731207 110.29644236 -6.41074045 125.62479211 -6.40000269 140.95316184 C-6.39106669 154.11721894 -6.39261858 167.28124077 -6.40184021 180.44529724 C-6.41253341 195.71729965 -6.4167627 210.9892811 -6.41061568 226.26128674 C-6.40997856 227.88853136 -6.40934982 229.515776 -6.40872955 231.14302063 C-6.408421 231.94374121 -6.40811245 232.74446179 -6.40779455 233.56944662 C-6.40606475 239.22314713 -6.40898882 244.87683438 -6.41368866 250.53053284 C-6.41928696 257.41668656 -6.41780328 264.30279467 -6.40712717 271.18894315 C-6.40185623 274.70509303 -6.39983775 278.22116674 -6.40642548 281.73731613 C-6.41344611 285.54195681 -6.40508651 289.34647164 -6.39506531 293.15110779 C-6.39952675 294.27229287 -6.40398819 295.39347795 -6.40858483 296.54863834 C-6.40336934 297.56157176 -6.39815384 298.57450518 -6.3927803 299.61813354 C-6.3924556 300.49724113 -6.39213089 301.37634871 -6.39179635 302.28209591 C-6.33526273 304.60588019 -6.33526273 304.60588019 -4.14109802 306.38768005 C9.38890198 306.38768005 22.91890198 306.38768005 36.85890198 306.38768005 C36.85890198 268.43768005 36.85890198 230.48768005 36.85890198 191.38768005 C29.59890198 191.05768005 22.33890198 190.72768005 14.85890198 190.38768005 C13.85890198 189.38768005 13.85890198 189.38768005 13.72608948 187.57518005 C13.7286676 186.85330505 13.73124573 186.13143005 13.73390198 185.38768005 C13.73003479 184.30486755 13.73003479 184.30486755 13.72608948 183.20018005 C13.85890198 181.38768005 13.85890198 181.38768005 14.85890198 180.38768005 C17.18196887 180.28564233 19.47545823 180.24879766 21.79919434 180.25396729 C22.53367705 180.25170173 23.26815977 180.24943617 24.02489954 180.24710196 C26.50465754 180.24073358 28.98436128 180.24159313 31.46412659 180.24241638 C33.23440624 180.23942666 35.00468525 180.23602457 36.77496338 180.23223877 C41.59720218 180.22337563 46.41942326 180.22105969 51.24166942 180.22042298 C55.26030878 180.21947584 59.27894397 180.2157998 63.29758173 180.21225089 C72.7746483 180.20409757 82.25170536 180.20166746 91.72877502 180.20237732 C101.52117293 180.20297838 111.31351579 180.19242289 121.10589975 180.17663366 C129.49909028 180.16358024 137.89226278 180.15819249 146.28546339 180.15883273 C151.30457558 180.15908836 156.32363889 180.15620144 161.34274101 180.14565468 C166.06143163 180.13601055 170.78002627 180.13586902 175.49872017 180.14317131 C177.23460657 180.14422176 178.97049883 180.14182723 180.70637512 180.13581085 C183.06824021 180.12815251 185.42976872 180.13269438 187.79162598 180.14044189 C188.48548887 180.13529833 189.17935176 180.13015477 189.8942408 180.12485534 C194.63063072 180.1594088 194.63063072 180.1594088 196.85890198 182.38768005 C197.10890198 185.38768005 197.10890198 185.38768005 196.85890198 188.38768005 C194.85890198 190.38768005 194.85890198 190.38768005 179.85890198 191.38768005 C179.85890198 229.33768005 179.85890198 267.28768005 179.85890198 306.38768005 C191.07890198 306.38768005 202.29890198 306.38768005 213.85890198 306.38768005 C217.00705733 303.81921863 217.00705733 303.81921863 217.2337988 301.16430944 C217.23374379 300.28861934 217.23368877 299.41292925 217.23363209 298.51070309 C217.2444419 296.99354148 217.2444419 296.99354148 217.2554701 295.44573015 C217.24809581 294.33134886 217.24072153 293.21696756 217.23312378 292.06881714 C217.23709819 290.88751836 217.24107259 289.70621959 217.24516743 288.48912388 C217.25314497 285.20452128 217.24760884 281.92043787 217.23641694 278.63587725 C217.22759317 275.09596916 217.2360131 271.55609725 217.24227905 268.01618958 C217.25177949 261.07959783 217.24515653 254.14310991 217.23301611 247.20652585 C217.21941353 239.13469596 217.2210324 231.06289096 217.22314944 222.99105252 C217.22634109 208.59304827 217.21466113 194.19509347 217.19508362 179.79710388 C217.17607516 165.81401565 217.16899677 151.83098536 217.17457581 137.84788513 C217.18062817 122.63337091 217.18046677 107.41888218 217.16908997 92.20437008 C217.16788264 90.5833197 217.16667665 88.96226933 217.16547203 87.34121895 C217.16486849 86.54355747 217.16426495 85.74589599 217.16364313 84.92406295 C217.15975756 79.2923944 217.16016005 73.66073533 217.16205788 68.02906609 C217.16417594 61.17038018 217.15898526 54.31174511 217.14444432 47.45307355 C217.13718106 43.95109651 217.13313968 40.44919367 217.13768768 36.94721031 C217.14248924 33.1579431 217.13188582 29.36881187 217.11959839 25.57955933 C217.12337771 24.46294731 217.12715704 23.3463353 217.13105088 22.19588655 C217.12521869 21.18705323 217.1193865 20.17821991 217.11337757 19.13881588 C217.11251079 18.26328813 217.11164402 17.38776039 217.11075097 16.4857015 C217.05174666 14.16866498 217.05174666 14.16866498 214.85890198 12.38768005 C211.98024009 12.18976556 209.19766169 12.11850614 206.31776428 12.13371277 C205.4231686 12.13059279 204.52857291 12.12747281 203.60686827 12.12425828 C200.59120429 12.1162427 197.57573955 12.12261573 194.56007385 12.12889099 C192.40541465 12.12618271 190.25075637 12.1226227 188.09609985 12.11827087 C182.23054564 12.10912524 176.36506149 12.11270007 170.499506 12.11902905 C164.37316824 12.12407782 158.24683664 12.11940073 152.12049866 12.11625671 C141.83065204 12.11261378 131.54083409 12.11742473 121.25099182 12.12693787 C109.33922576 12.13782303 97.42752816 12.13429768 85.51576376 12.12328506 C75.30515502 12.11422148 65.09456694 12.11292234 54.88395548 12.11816239 C48.77833846 12.12128722 42.67275365 12.12167742 36.56713867 12.11508942 C30.8282086 12.10933008 25.08936715 12.11328686 19.3504467 12.12487793 C17.23883652 12.1275321 15.12721893 12.12674661 13.01561165 12.1223526 C10.14365216 12.11692547 7.27198058 12.12369662 4.40003967 12.13371277 C3.55511192 12.12925133 2.71018416 12.12478988 1.83965254 12.12019324 C-2.62283062 11.96178548 -2.62283062 11.96178548 -6.14109802 14.38768005 Z " fill="#F1EFEF" transform="translate(219.14109802246094,62.61231994628906)"/>
<path d="M0 0 C3.36624106 1.90639162 6.5232592 3.73966564 7.921875 7.48828125 C8.33933117 10.28623154 8.40542756 13.04795971 8.5 15.875 C8.87329875 21.53142511 10.16812946 24.90987878 13.1640625 29.62890625 C15.01965106 33.14651478 14.70711089 35.76940662 14.25 39.6875 C13.62400383 41.36986471 12.96247732 43.0398962 12.25 44.6875 C11.71885984 47.49495515 11.86015737 49.05723177 13.37109375 51.5 C13.82613281 52.16 14.28117187 52.82 14.75 53.5 C17.64206552 57.84631438 17.93907575 60.51943188 17.25 65.6875 C16.4765625 66.6775 16.4765625 66.6775 15.6875 67.6875 C13.90048672 69.7427945 13.90048672 69.7427945 14.375 73.125 C15.18074678 77.89750016 16.37147227 82.59554972 17.48046875 87.3046875 C21.07292733 103.09691658 21.07292733 103.09691658 19.25 109.6875 C17.01829927 112.54296802 15.07255572 113.21368515 11.5625 113.875 C10.75425781 114.03355469 9.94601563 114.19210938 9.11328125 114.35546875 C8.19095703 114.51982422 8.19095703 114.51982422 7.25 114.6875 C7.85046071 119.43797448 8.45504072 124.1879159 9.0625 128.9375 C9.19730774 129.99260773 9.19730774 129.99260773 9.33483887 131.06903076 C10.56029142 140.63559915 11.85156026 150.18505489 13.38598633 159.70800781 C13.96963159 163.40374615 14.39800437 166.94298933 14.25 170.6875 C13.26 170.6875 12.27 170.6875 11.25 170.6875 C11.51103516 171.42983887 11.77207031 172.17217773 12.04101562 172.93701172 C29.97337162 224.07249097 29.97337162 224.07249097 32.25 240.6875 C32.3634375 241.46996094 32.476875 242.25242187 32.59375 243.05859375 C34.29101304 266.18380263 11.7337863 298.40312762 -1.55810547 315.41381836 C-2.99094245 317.64695475 -2.99094245 317.64695475 -2.51293945 320.28857422 C-0.18054884 327.62235668 3.42129701 334.53812287 7.5625 341 C10.27262578 345.3418769 11.1570546 348.57550317 11.25 353.6875 C10.25 354.6875 10.25 354.6875 6.4375 354.8125 C3.56082025 354.78151243 1.00227001 354.60492334 -1.75 353.6875 C-0.904375 354.595 -0.05875 355.5025 0.8125 356.4375 C3.25883348 359.36066119 3.25883348 359.36066119 3.1875 362 C2.25 363.6875 2.25 363.6875 0.25 364.6875 C-15.0275202 365.5048159 -30.90301301 364.59959671 -45.75 360.6875 C-46.83795878 354.95099008 -46.69199161 350.82960614 -45.25 345.15625 C-43.68272787 338.1548254 -43.59613644 331.9356605 -44.0625 324.8125 C-44.18737563 322.29327719 -44.30545915 319.77371162 -44.41796875 317.25390625 C-44.44834229 316.5866301 -44.47871582 315.91935394 -44.51000977 315.2318573 C-44.86287789 306.95280984 -44.87656692 298.67181448 -44.87533569 290.38641357 C-44.87511488 288.65224072 -44.87718654 286.9180658 -44.88174438 285.18389893 C-44.90131693 277.24284508 -44.87125867 269.35477794 -44.2421875 261.43359375 C-43.13591047 247.44356812 -44.00477287 233.62744709 -44.97680664 219.65942383 C-45.18927013 216.59950648 -45.39303025 213.53909555 -45.59570312 210.47851562 C-45.72866059 208.51559066 -45.86210627 206.55269868 -45.99609375 204.58984375 C-46.0565538 203.68354721 -46.11701385 202.77725067 -46.17930603 201.8434906 C-46.4924091 197.39610232 -46.99467703 193.08508711 -47.75 188.6875 C-47.8349737 187.06802962 -47.88050027 185.44591524 -47.8828125 183.82421875 C-47.88410156 182.93669922 -47.88539062 182.04917969 -47.88671875 181.13476562 C-47.88285156 180.22404297 -47.87898438 179.31332031 -47.875 178.375 C-47.87886719 177.47587891 -47.88273437 176.57675781 -47.88671875 175.65039062 C-47.87843011 169.91879324 -47.48020368 164.37265722 -46.75 158.6875 C-47.74 158.0275 -48.73 157.3675 -49.75 156.6875 C-49.33427734 155.09421875 -49.33427734 155.09421875 -48.91015625 153.46875 C-48.54401364 152.04173263 -48.17814278 150.61464552 -47.8125 149.1875 C-47.63009766 148.49140625 -47.44769531 147.7953125 -47.25976562 147.078125 C-44.69772392 137.01628849 -41.77027483 122.78684519 -45.9140625 112.9140625 C-46.96272513 111.25233556 -48.02057013 109.59637946 -49.0859375 107.9453125 C-54.52248023 97.30194011 -57.82609228 80.64221272 -56.75 68.6875 C-54.94588437 65.03791366 -53.1546074 62.91810485 -49.75 60.6875 C-50.059375 60.1925 -50.36875 59.6975 -50.6875 59.1875 C-52.43942056 55.06533398 -53.61424208 50.96112147 -51.98828125 46.68359375 C-50.50732882 44.04650745 -48.88815523 41.82565523 -46.75 39.6875 C-46.43727011 37.15599276 -46.43727011 37.15599276 -46.375 34.3125 C-45.97332213 29.0145074 -45.97332213 29.0145074 -44 26.125 C-41.75 24.6875 -41.75 24.6875 -39.1796875 23.95703125 C-36.48297439 22.91224509 -36.48297439 22.91224509 -35.9296875 20.078125 C-35.82914063 19.04171875 -35.72859375 18.0053125 -35.625 16.9375 C-34.77461221 10.46682201 -33.69881567 6.55158455 -28.875 1.9375 C-20.54972165 -4.05670041 -9.21381595 -4.50513534 0 0 Z M-10.75 208.6875 C-12.66769514 215.6404781 -13.72895548 222.61680733 -14.703125 229.7578125 C-14.96322357 231.65806686 -14.96322357 231.65806686 -15.22857666 233.59671021 C-16.96959443 246.59187093 -18.13372961 259.63076426 -19.18798828 272.69824219 C-19.50610596 276.63812223 -19.83618758 280.57687399 -20.16796875 284.515625 C-20.3782781 287.04942332 -20.58793916 289.58327555 -20.796875 292.1171875 C-20.89369568 293.2806369 -20.99051636 294.4440863 -21.090271 295.64279175 C-21.52071728 301.00944966 -21.86816172 306.30339347 -21.75 311.6875 C-18.926028 309.29903682 -18.17542318 307.36514899 -17.34375 303.796875 C-15.70977046 297.34985211 -13.55562093 291.17236093 -11.25 284.9375 C-10.82146729 283.77532959 -10.39293457 282.61315918 -9.95141602 281.41577148 C-5.85896482 270.55841358 -0.97098017 260.16111095 4.28540039 249.82446289 C5.21826364 247.75780837 5.87830128 245.92326631 6.25 243.6875 C5.36136027 241.32943894 5.36136027 241.32943894 3.875 238.8125 C0.13218546 231.75738246 -2.76946628 224.42359158 -5.67724609 216.99072266 C-6.04672363 216.06179199 -6.41620117 215.13286133 -6.796875 214.17578125 C-7.12526367 213.33571533 -7.45365234 212.49564941 -7.79199219 211.63012695 C-8.59194369 209.51470046 -8.59194369 209.51470046 -10.75 208.6875 Z M-13.75 345.6875 C-13.42 346.3475 -13.09 347.0075 -12.75 347.6875 C-12.09 347.3575 -11.43 347.0275 -10.75 346.6875 C-11.74 346.3575 -12.73 346.0275 -13.75 345.6875 Z M-8.75 348.6875 C-8.42 349.3475 -8.09 350.0075 -7.75 350.6875 C-7.09 350.3575 -6.43 350.0275 -5.75 349.6875 C-6.74 349.3575 -7.73 349.0275 -8.75 348.6875 Z " fill="#253036" transform="translate(140.75,87.3125)"/>
<path d="M0 0 C0.93502336 -0.00538554 1.87004672 -0.01077108 2.83340412 -0.01631981 C5.97411642 -0.03065504 9.11441055 -0.02348189 12.25514221 -0.01637268 C14.50375204 -0.02207333 16.75235896 -0.0290364 19.0009613 -0.03717041 C25.1145431 -0.05515055 31.22798174 -0.0539243 37.34158206 -0.04822803 C42.44121562 -0.04514321 47.5408214 -0.05122073 52.64045101 -0.05726677 C65.35694774 -0.07213071 78.07334296 -0.06848506 90.78983349 -0.05640347 C101.83432627 -0.04647084 112.87865153 -0.05941128 123.92311846 -0.08333766 C135.2629658 -0.10771889 146.60271298 -0.11693901 157.94259411 -0.11068493 C164.30933078 -0.10730889 170.67592902 -0.1097734 177.04264641 -0.12693596 C183.02874427 -0.14236743 189.01452152 -0.13849157 195.00060654 -0.11963081 C197.19964981 -0.11593443 199.39871664 -0.11908376 201.59773827 -0.1295166 C204.59580532 -0.14265617 207.59279999 -0.1312411 210.59082031 -0.11352539 C211.90142202 -0.1279329 211.90142202 -0.1279329 213.23850054 -0.14263147 C217.27029442 -0.09348855 219.36265676 0.08437751 222.87565708 2.23150539 C225.92431549 5.54599269 225.98490436 8.27633754 225.99312305 12.59985924 C225.9975809 13.68608491 226.00203874 14.77231059 226.00663167 15.89145219 C226.00644731 17.08938799 226.00626295 18.28732379 226.006073 19.52156067 C226.00974969 20.7905809 226.01342637 22.05960113 226.01721448 23.36707652 C226.02723793 26.89653644 226.03095181 30.42597935 226.03360379 33.95545149 C226.0375057 37.75921827 226.04708397 41.56297156 226.05581665 45.36672974 C226.07558207 54.55504785 226.08564641 63.74336707 226.09454444 72.93170112 C226.09892636 77.25654258 226.10429334 81.58138281 226.10953331 85.9062233 C226.12654406 100.27851546 226.14103963 114.65080685 226.14828205 129.02310753 C226.150192 132.75303015 226.15211232 136.48295277 226.15406799 140.21287537 C226.15455173 141.1399485 226.15503547 142.06702164 226.15553387 143.0221879 C226.16383946 158.05009816 226.18918596 173.07792895 226.22164867 188.10580449 C226.25469055 203.52720445 226.27272812 218.94856397 226.27592629 234.36999953 C226.27809383 243.03164767 226.2868782 251.69317985 226.31238747 260.35479355 C226.33405512 267.72907361 226.34216429 275.10320955 226.33242068 282.47751783 C226.32786477 286.24121602 226.32983664 290.00461661 226.34918213 293.76827431 C226.36995973 297.84567146 226.35986494 301.92240376 226.34664917 305.99983215 C226.35761842 307.19330651 226.36858766 308.38678086 226.37988931 309.6164211 C226.316906 317.62754298 226.316906 317.62754298 223.9350462 321.58065224 C219.21823157 325.68605839 215.28453212 325.66104307 209.15577698 325.58299255 C208.31798706 325.58016266 207.48019714 325.57733276 206.61701965 325.57441711 C203.94750034 325.56324354 201.27831948 325.53814426 198.60890198 325.51268005 C196.79640683 325.5026466 194.98390641 325.49352139 193.17140198 325.4853363 C188.73377205 325.46331345 184.29639435 325.42880309 179.85890198 325.38768005 C179.87984924 326.67343933 179.90079651 327.95919861 179.92237854 329.28392029 C179.99516658 334.08653991 180.04084228 338.88911144 180.07862854 343.69212341 C180.09865594 345.76479817 180.12588609 347.83741705 180.16065979 349.90989685 C180.20956997 352.90133001 180.23195991 355.8920116 180.24952698 358.8837738 C180.27017212 359.79976852 180.29081726 360.71576324 180.31208801 361.65951538 C180.31478623 369.52073511 178.03085696 375.1607755 173.67140198 381.63768005 C167.96889469 387.21346495 161.39327211 390.50027408 153.39561462 390.53485107 C151.69245087 390.54558403 151.69245087 390.54558403 149.95487976 390.55653381 C148.70810455 390.55922272 147.46132935 390.56191162 146.17677307 390.56468201 C144.86430603 390.5712532 143.55183899 390.5778244 142.19960022 390.58459473 C137.84385905 390.60562355 133.48811759 390.6159984 129.13233948 390.6259613 C127.63088081 390.63000979 126.12942232 390.63412674 124.62796402 390.63831139 C117.57092737 390.65736323 110.51390116 390.6715923 103.45684373 390.67992336 C95.32248791 390.68968559 87.18840495 390.71597837 79.05414522 390.75642425 C72.76015097 390.7866406 66.46623467 390.80139758 60.17216933 390.80470437 C56.41646376 390.80704927 52.66104967 390.81593557 48.90542221 390.84116554 C45.36766928 390.8645473 41.83039762 390.8686395 38.29258728 390.85840416 C36.38704794 390.85767732 34.4815325 390.87669901 32.57609558 390.89646912 C23.76988199 390.84340526 17.87838762 389.09310308 10.60890198 384.20018005 C1.46602022 374.84950553 1.85890198 366.6532895 1.85890198 353.38768005 C13.40890198 353.38768005 24.95890198 353.38768005 36.85890198 353.38768005 C36.85890198 344.14768005 36.85890198 334.90768005 36.85890198 325.38768005 C33.76386292 325.4340863 30.66882385 325.48049255 27.47999573 325.52830505 C24.46821226 325.55953819 21.45644714 325.58380461 18.44459534 325.60740662 C16.35824959 325.62746919 14.27195971 325.65472595 12.18580627 325.68943787 C9.17956219 325.73819165 6.17406429 325.76070273 3.16749573 325.77830505 C2.24117844 325.7989502 1.31486115 325.81959534 0.36047363 325.84086609 C-5.66219995 325.84293291 -9.2707219 325.02420628 -14.14109802 321.38768005 C-16.16620804 318.26001441 -16.39215496 315.76921195 -16.39557362 312.08368778 C-16.40140581 311.00243785 -16.407238 309.92118792 -16.41324693 308.80717283 C-16.40946761 307.61993178 -16.40568828 306.43269072 -16.40179443 305.20947266 C-16.40561998 303.94776511 -16.40944553 302.68605756 -16.413387 301.38611645 C-16.42369329 297.88168944 -16.42147852 294.37736445 -16.41720641 290.87292898 C-16.41474395 287.09439761 -16.42374734 283.3158911 -16.4312439 279.53736877 C-16.44400621 272.13404005 -16.44578269 264.73074757 -16.44344363 257.32740969 C-16.44166207 251.31114354 -16.44340664 245.29488841 -16.44766808 239.27862358 C-16.44826326 238.42302253 -16.44885845 237.56742148 -16.44947168 236.68589313 C-16.4506834 234.94785492 -16.45189754 233.20981671 -16.45311406 231.4717785 C-16.46399544 215.16520034 -16.46182424 198.85864285 -16.45572921 182.55206352 C-16.4505592 167.62769327 -16.46181665 152.70338827 -16.48082743 137.77903093 C-16.50018968 122.46155587 -16.50846469 107.14411171 -16.50470418 91.82662433 C-16.50278972 83.2242642 -16.50530347 74.62195962 -16.51941872 66.01960945 C-16.53131294 58.69659967 -16.53275946 51.37367963 -16.52062855 44.05066866 C-16.51472611 40.31334632 -16.51367789 36.57618828 -16.52563095 32.83887672 C-16.53842993 28.79007698 -16.52805788 24.74167089 -16.51531982 20.69287109 C-16.52269411 19.50786076 -16.53006839 18.32285042 -16.53766614 17.10193068 C-16.5304596 16.018073 -16.52325306 14.93421532 -16.51582813 13.81751347 C-16.51588315 12.8829117 -16.51593816 11.94830994 -16.51599485 10.98538691 C-15.95519595 7.09954138 -14.12228508 4.47334247 -11.52491665 1.59941006 C-7.77944056 -0.30447042 -4.14327516 -0.02842724 0 0 Z M-6.14109802 14.38768005 C-6.44415853 16.58073464 -6.44415853 16.58073464 -6.3927803 19.15722656 C-6.3979958 20.17015998 -6.40321129 21.1830934 -6.40858483 22.22672176 C-6.40189267 23.90849939 -6.40189267 23.90849939 -6.39506531 25.62425232 C-6.39818529 26.80878022 -6.40130527 27.99330812 -6.4045198 29.21373081 C-6.41113922 32.5118872 -6.40872663 35.80981735 -6.40254736 39.10796022 C-6.39803827 42.66083352 -6.40499893 46.21368648 -6.4105072 49.76655579 C-6.41941942 56.73066681 -6.41747108 63.69473483 -6.41168192 70.65884757 C-6.4071726 76.31668181 -6.40654935 81.97450396 -6.40872955 87.63233948 C-6.40903602 88.43634581 -6.40934249 89.24035215 -6.40965824 90.06872231 C-6.41029766 91.70183778 -6.41094609 93.33495325 -6.41160342 94.96806872 C-6.41731207 110.29644236 -6.41074045 125.62479211 -6.40000269 140.95316184 C-6.39106669 154.11721894 -6.39261858 167.28124077 -6.40184021 180.44529724 C-6.41253341 195.71729965 -6.4167627 210.9892811 -6.41061568 226.26128674 C-6.40997856 227.88853136 -6.40934982 229.515776 -6.40872955 231.14302063 C-6.408421 231.94374121 -6.40811245 232.74446179 -6.40779455 233.56944662 C-6.40606475 239.22314713 -6.40898882 244.87683438 -6.41368866 250.53053284 C-6.41928696 257.41668656 -6.41780328 264.30279467 -6.40712717 271.18894315 C-6.40185623 274.70509303 -6.39983775 278.22116674 -6.40642548 281.73731613 C-6.41344611 285.54195681 -6.40508651 289.34647164 -6.39506531 293.15110779 C-6.39952675 294.27229287 -6.40398819 295.39347795 -6.40858483 296.54863834 C-6.40336934 297.56157176 -6.39815384 298.57450518 -6.3927803 299.61813354 C-6.3924556 300.49724113 -6.39213089 301.37634871 -6.39179635 302.28209591 C-6.33526273 304.60588019 -6.33526273 304.60588019 -4.14109802 306.38768005 C9.38890198 306.38768005 22.91890198 306.38768005 36.85890198 306.38768005 C36.85890198 268.43768005 36.85890198 230.48768005 36.85890198 191.38768005 C29.59890198 191.05768005 22.33890198 190.72768005 14.85890198 190.38768005 C13.85890198 189.38768005 13.85890198 189.38768005 13.72608948 187.57518005 C13.7286676 186.85330505 13.73124573 186.13143005 13.73390198 185.38768005 C13.73003479 184.30486755 13.73003479 184.30486755 13.72608948 183.20018005 C13.85890198 181.38768005 13.85890198 181.38768005 14.85890198 180.38768005 C17.18196887 180.28564233 19.47545823 180.24879766 21.79919434 180.25396729 C22.53367705 180.25170173 23.26815977 180.24943617 24.02489954 180.24710196 C26.50465754 180.24073358 28.98436128 180.24159313 31.46412659 180.24241638 C33.23440624 180.23942666 35.00468525 180.23602457 36.77496338 180.23223877 C41.59720218 180.22337563 46.41942326 180.22105969 51.24166942 180.22042298 C55.26030878 180.21947584 59.27894397 180.2157998 63.29758173 180.21225089 C72.7746483 180.20409757 82.25170536 180.20166746 91.72877502 180.20237732 C101.52117293 180.20297838 111.31351579 180.19242289 121.10589975 180.17663366 C129.49909028 180.16358024 137.89226278 180.15819249 146.28546339 180.15883273 C151.30457558 180.15908836 156.32363889 180.15620144 161.34274101 180.14565468 C166.06143163 180.13601055 170.78002627 180.13586902 175.49872017 180.14317131 C177.23460657 180.14422176 178.97049883 180.14182723 180.70637512 180.13581085 C183.06824021 180.12815251 185.42976872 180.13269438 187.79162598 180.14044189 C188.48548887 180.13529833 189.17935176 180.13015477 189.8942408 180.12485534 C194.63063072 180.1594088 194.63063072 180.1594088 196.85890198 182.38768005 C197.10890198 185.38768005 197.10890198 185.38768005 196.85890198 188.38768005 C194.85890198 190.38768005 194.85890198 190.38768005 179.85890198 191.38768005 C179.85890198 229.33768005 179.85890198 267.28768005 179.85890198 306.38768005 C191.07890198 306.38768005 202.29890198 306.38768005 213.85890198 306.38768005 C217.00705733 303.81921863 217.00705733 303.81921863 217.2337988 301.16430944 C217.23374379 300.28861934 217.23368877 299.41292925 217.23363209 298.51070309 C217.2444419 296.99354148 217.2444419 296.99354148 217.2554701 295.44573015 C217.24809581 294.33134886 217.24072153 293.21696756 217.23312378 292.06881714 C217.23709819 290.88751836 217.24107259 289.70621959 217.24516743 288.48912388 C217.25314497 285.20452128 217.24760884 281.92043787 217.23641694 278.63587725 C217.22759317 275.09596916 217.2360131 271.55609725 217.24227905 268.01618958 C217.25177949 261.07959783 217.24515653 254.14310991 217.23301611 247.20652585 C217.21941353 239.13469596 217.2210324 231.06289096 217.22314944 222.99105252 C217.22634109 208.59304827 217.21466113 194.19509347 217.19508362 179.79710388 C217.17607516 165.81401565 217.16899677 151.83098536 217.17457581 137.84788513 C217.18062817 122.63337091 217.18046677 107.41888218 217.16908997 92.20437008 C217.16788264 90.5833197 217.16667665 88.96226933 217.16547203 87.34121895 C217.16486849 86.54355747 217.16426495 85.74589599 217.16364313 84.92406295 C217.15975756 79.2923944 217.16016005 73.66073533 217.16205788 68.02906609 C217.16417594 61.17038018 217.15898526 54.31174511 217.14444432 47.45307355 C217.13718106 43.95109651 217.13313968 40.44919367 217.13768768 36.94721031 C217.14248924 33.1579431 217.13188582 29.36881187 217.11959839 25.57955933 C217.12337771 24.46294731 217.12715704 23.3463353 217.13105088 22.19588655 C217.12521869 21.18705323 217.1193865 20.17821991 217.11337757 19.13881588 C217.11251079 18.26328813 217.11164402 17.38776039 217.11075097 16.4857015 C217.05174666 14.16866498 217.05174666 14.16866498 214.85890198 12.38768005 C211.98024009 12.18976556 209.19766169 12.11850614 206.31776428 12.13371277 C205.4231686 12.13059279 204.52857291 12.12747281 203.60686827 12.12425828 C200.59120429 12.1162427 197.57573955 12.12261573 194.56007385 12.12889099 C192.40541465 12.12618271 190.25075637 12.1226227 188.09609985 12.11827087 C182.23054564 12.10912524 176.36506149 12.11270007 170.499506 12.11902905 C164.37316824 12.12407782 158.24683664 12.11940073 152.12049866 12.11625671 C141.83065204 12.11261378 131.54083409 12.11742473 121.25099182 12.12693787 C109.33922576 12.13782303 97.42752816 12.13429768 85.51576376 12.12328506 C75.30515502 12.11422148 65.09456694 12.11292234 54.88395548 12.11816239 C48.77833846 12.12128722 42.67275365 12.12167742 36.56713867 12.11508942 C30.8282086 12.10933008 25.08936715 12.11328686 19.3504467 12.12487793 C17.23883652 12.1275321 15.12721893 12.12674661 13.01561165 12.1223526 C10.14365216 12.11692547 7.27198058 12.12369662 4.40003967 12.13371277 C3.55511192 12.12925133 2.71018416 12.12478988 1.83965254 12.12019324 C-2.62283062 11.96178548 -2.62283062 11.96178548 -6.14109802 14.38768005 Z M37.85890198 191.38768005 C37.85890198 244.84768005 37.85890198 298.30768005 37.85890198 353.38768005 C66.89890198 353.38768005 95.93890198 353.38768005 125.85890198 353.38768005 C125.85890198 357.01768005 125.85890198 360.64768005 125.85890198 364.38768005 C126.44061271 367.40530446 127.07919684 370.41505422 127.85890198 373.38768005 C125.85890198 368.38768005 125.85890198 368.38768005 124.85890198 354.38768005 C84.59890198 354.38768005 44.33890198 354.38768005 2.85890198 354.38768005 C2.81562249 369.37247085 2.81562249 369.37247085 10.14517593 382.05562401 C18.1740353 388.29634766 26.18356108 390.26973607 36.14503479 390.0688324 C37.30746201 390.06970856 38.46988922 390.07058472 39.6675415 390.07148743 C43.46641427 390.06734514 47.26346704 390.02084823 51.06202698 389.97361755 C53.7129159 389.96241341 56.3637072 389.95358354 59.01460266 389.94789124 C65.25126218 389.929343 71.48728043 389.8802449 77.72365928 389.8197943 C84.83132913 389.75241365 91.93903181 389.71966151 99.04694223 389.68962169 C113.65125755 389.62713453 128.25507077 389.52179809 142.85890198 389.38768005 C142.21952698 388.91330505 141.58015198 388.43893005 140.92140198 387.95018005 C138.85890198 386.38768005 138.85890198 386.38768005 137.85890198 385.38768005 C138.54855042 385.67643005 139.23819885 385.96518005 139.94874573 386.26268005 C147.4160208 389.21271465 153.1299903 391.06607617 160.87452698 388.31736755 C169.23950744 384.54694532 173.35292592 380.35623929 177.41159058 372.30918884 C179.96449135 365.35103483 179.24943671 357.63142506 179.19947815 350.32322693 C179.19863113 348.58807897 179.19910849 346.85292993 179.20080566 345.11778259 C179.2016641 340.42409614 179.18406287 335.7306411 179.16308379 331.03700829 C179.14429174 326.12563128 179.14256456 321.2142486 179.13900757 316.30284119 C179.12969453 307.0099068 179.10509077 297.71707866 179.0749591 288.424191 C179.03511182 275.86141497 179.01895422 263.29860975 179.00145245 250.73578644 C178.97326917 230.95300477 178.91349465 211.17044729 178.85890198 191.38768005 C132.32890198 191.38768005 85.79890198 191.38768005 37.85890198 191.38768005 Z " fill="#283339" transform="translate(219.14109802246094,62.61231994628906)"/>
<path d="M0 0 C3.36624106 1.90639162 6.5232592 3.73966564 7.921875 7.48828125 C8.33933117 10.28623154 8.40542756 13.04795971 8.5 15.875 C8.87329875 21.53142511 10.16812946 24.90987878 13.1640625 29.62890625 C15.01965106 33.14651478 14.70711089 35.76940662 14.25 39.6875 C13.62400383 41.36986471 12.96247732 43.0398962 12.25 44.6875 C11.71885984 47.49495515 11.86015737 49.05723177 13.37109375 51.5 C13.82613281 52.16 14.28117187 52.82 14.75 53.5 C17.64206552 57.84631438 17.93907575 60.51943188 17.25 65.6875 C16.4765625 66.6775 16.4765625 66.6775 15.6875 67.6875 C13.90048672 69.7427945 13.90048672 69.7427945 14.375 73.125 C15.18074678 77.89750016 16.37147227 82.59554972 17.48046875 87.3046875 C21.07292733 103.09691658 21.07292733 103.09691658 19.25 109.6875 C17.01829927 112.54296802 15.07255572 113.21368515 11.5625 113.875 C10.75425781 114.03355469 9.94601563 114.19210938 9.11328125 114.35546875 C8.19095703 114.51982422 8.19095703 114.51982422 7.25 114.6875 C7.85046071 119.43797448 8.45504072 124.1879159 9.0625 128.9375 C9.19730774 129.99260773 9.19730774 129.99260773 9.33483887 131.06903076 C10.56029142 140.63559915 11.85156026 150.18505489 13.38598633 159.70800781 C13.96963159 163.40374615 14.39800437 166.94298933 14.25 170.6875 C-5.89797162 177.40349054 -31.77638385 165.03239321 -49.75 156.6875 C-49.33427734 155.09421875 -49.33427734 155.09421875 -48.91015625 153.46875 C-48.54401364 152.04173263 -48.17814278 150.61464552 -47.8125 149.1875 C-47.63009766 148.49140625 -47.44769531 147.7953125 -47.25976562 147.078125 C-44.69772392 137.01628849 -41.77027483 122.78684519 -45.9140625 112.9140625 C-46.96272513 111.25233556 -48.02057013 109.59637946 -49.0859375 107.9453125 C-54.52248023 97.30194011 -57.82609228 80.64221272 -56.75 68.6875 C-54.94588437 65.03791366 -53.1546074 62.91810485 -49.75 60.6875 C-50.059375 60.1925 -50.36875 59.6975 -50.6875 59.1875 C-52.43942056 55.06533398 -53.61424208 50.96112147 -51.98828125 46.68359375 C-50.50732882 44.04650745 -48.88815523 41.82565523 -46.75 39.6875 C-46.43727011 37.15599276 -46.43727011 37.15599276 -46.375 34.3125 C-45.97332213 29.0145074 -45.97332213 29.0145074 -44 26.125 C-41.75 24.6875 -41.75 24.6875 -39.1796875 23.95703125 C-36.48297439 22.91224509 -36.48297439 22.91224509 -35.9296875 20.078125 C-35.82914063 19.04171875 -35.72859375 18.0053125 -35.625 16.9375 C-34.77461221 10.46682201 -33.69881567 6.55158455 -28.875 1.9375 C-20.54972165 -4.05670041 -9.21381595 -4.50513534 0 0 Z " fill="#D02B33" transform="translate(140.75,87.3125)"/>
<path d="M0 0 C3.36624106 1.90639162 6.5232592 3.73966564 7.921875 7.48828125 C8.33933117 10.28623154 8.40542756 13.04795971 8.5 15.875 C8.87329875 21.53142511 10.16812946 24.90987878 13.1640625 29.62890625 C15.01965106 33.14651478 14.70711089 35.76940662 14.25 39.6875 C13.62400383 41.36986471 12.96247732 43.0398962 12.25 44.6875 C11.71885984 47.49495515 11.86015737 49.05723177 13.37109375 51.5 C13.82613281 52.16 14.28117187 52.82 14.75 53.5 C17.64206552 57.84631438 17.93907575 60.51943188 17.25 65.6875 C16.4765625 66.6775 16.4765625 66.6775 15.6875 67.6875 C13.90048672 69.7427945 13.90048672 69.7427945 14.375 73.125 C15.18644947 77.98457939 16.42102965 82.76534925 17.62890625 87.5390625 C18.24761821 90.67542625 18.36007387 93.50014345 18.25 96.6875 C17.486875 96.914375 16.72375 97.14125 15.9375 97.375 C13.05884548 98.45266321 13.05884548 98.45266321 11.9375 101.1875 C10.25 103.6875 10.25 103.6875 6.9375 104.625 C6.2465625 104.75390625 5.555625 104.8828125 4.84375 105.015625 C0.12085324 106.23902597 -4.25707608 108.5031989 -8.67578125 110.54296875 C-11.75 111.6875 -11.75 111.6875 -14.75 110.6875 C-14.44707031 109.76195312 -14.14414063 108.83640625 -13.83203125 107.8828125 C-10.61694626 97.69739218 -8.40847114 87.46585314 -6.53833008 76.95166016 C-5.34966611 70.36852245 -3.83593751 64.04578609 -1.75 57.6875 C-0.1 58.0175 1.55 58.3475 3.25 58.6875 C2.59 55.7175 1.93 52.7475 1.25 49.6875 C-5.275434 48.68357024 -5.275434 48.68357024 -11.75 49.6875 C-12.08 51.6675 -12.41 53.6475 -12.75 55.6875 C-13.08 55.6875 -13.41 55.6875 -13.75 55.6875 C-13.80607422 54.78257812 -13.80607422 54.78257812 -13.86328125 53.859375 C-14.31253341 47.69382228 -14.31253341 47.69382228 -17.75 42.6875 C-15.44 43.3475 -13.13 44.0075 -10.75 44.6875 C-10.75 45.3475 -10.75 46.0075 -10.75 46.6875 C-9.14479996 46.62726735 -7.54065673 46.53841401 -5.9375 46.4375 C-5.04417969 46.39109375 -4.15085938 46.3446875 -3.23046875 46.296875 C-0.63707616 45.89007728 -0.63707616 45.89007728 1.03125 43.875 C2.69408066 40.89043216 2.92598068 38.05730093 3.25 34.6875 C1.93 34.3575 0.61 34.0275 -0.75 33.6875 C-1.245 31.7075 -1.245 31.7075 -1.75 29.6875 C-1.09 30.3475 -0.43 31.0075 0.25 31.6875 C2.31874034 32.3300235 2.31874034 32.3300235 4.25 32.6875 C4.25 31.3675 4.25 30.0475 4.25 28.6875 C3.59 28.6875 2.93 28.6875 2.25 28.6875 C2.58 27.0375 2.91 25.3875 3.25 23.6875 C1.93 23.6875 0.61 23.6875 -0.75 23.6875 C-0.75 23.0275 -0.75 22.3675 -0.75 21.6875 C0.57 21.3575 1.89 21.0275 3.25 20.6875 C3.023125 19.40875 2.79625 18.13 2.5625 16.8125 C2.37107422 15.73355469 2.37107422 15.73355469 2.17578125 14.6328125 C1.36709658 12.41251503 1.36709658 12.41251503 -1.33203125 11.4296875 C-2.12996094 11.18476562 -2.92789063 10.93984375 -3.75 10.6875 C-4.12511719 11.30238281 -4.50023437 11.91726562 -4.88671875 12.55078125 C-10.17443813 20.90191488 -10.17443813 20.90191488 -14.75 22.6875 C-19.40035802 23.70212357 -23.10792891 23.70649122 -27.75 22.6875 C-28.70020416 24.927335 -28.70020416 24.927335 -28.75 27.6875 C-26.54245093 30.22932045 -26.54245093 30.22932045 -23.75 32.6875 C-22.30316384 34.63197408 -21.04042566 36.63237765 -19.75 38.6875 C-20.245 39.6775 -20.245 39.6775 -20.75 40.6875 C-21.41 40.0275 -22.07 39.3675 -22.75 38.6875 C-22.99234375 39.60273437 -23.2346875 40.51796875 -23.484375 41.4609375 C-23.81953125 42.64945313 -24.1546875 43.83796875 -24.5 45.0625 C-24.82484375 46.24585938 -25.1496875 47.42921875 -25.484375 48.6484375 C-26.75 51.6875 -26.75 51.6875 -28.890625 53.1015625 C-29.50421875 53.29492188 -30.1178125 53.48828125 -30.75 53.6875 C-30.75 54.3475 -30.75 55.0075 -30.75 55.6875 C-30.069375 55.935 -29.38875 56.1825 -28.6875 56.4375 C-26.36725661 57.42483761 -24.44479646 58.44692994 -22.3125 59.75 C-19.17553465 61.60053438 -16.40569509 62.33084682 -12.75 62.6875 C-12.75 60.7075 -12.75 58.7275 -12.75 56.6875 C-12.42 56.6875 -12.09 56.6875 -11.75 56.6875 C-11.34925211 62.78050357 -12.71696357 67.43333797 -14.8125 73.125 C-15.28187988 74.43355957 -15.28187988 74.43355957 -15.76074219 75.76855469 C-18.28094727 82.67960659 -21.12168254 89.41783936 -24.171875 96.109375 C-25.85547131 99.92663792 -27.31763017 103.77005481 -28.75 107.6875 C-29.20375 107.06875 -29.6575 106.45 -30.125 105.8125 C-31.72108919 103.62830167 -31.72108919 103.62830167 -33.75 101.6875 C-34.2346875 101.96464844 -34.719375 102.24179688 -35.21875 102.52734375 C-40.1638373 105.19959285 -44.14544133 106.28717438 -49.75 106.6875 C-52.18660506 98.99425967 -54.16541382 91.32431205 -55.5625 83.375 C-55.69825439 82.64748535 -55.83400879 81.9199707 -55.97387695 81.17041016 C-56.82760854 76.02474233 -57.19670407 70.76106341 -55.75 65.6875 C-53.91476224 63.49202138 -52.17312129 62.28572894 -49.75 60.6875 C-50.059375 60.1925 -50.36875 59.6975 -50.6875 59.1875 C-52.43942056 55.06533398 -53.61424208 50.96112147 -51.98828125 46.68359375 C-50.50732882 44.04650745 -48.88815523 41.82565523 -46.75 39.6875 C-46.43727011 37.15599276 -46.43727011 37.15599276 -46.375 34.3125 C-45.97332213 29.0145074 -45.97332213 29.0145074 -44 26.125 C-41.75 24.6875 -41.75 24.6875 -39.1796875 23.95703125 C-36.48297439 22.91224509 -36.48297439 22.91224509 -35.9296875 20.078125 C-35.82914063 19.04171875 -35.72859375 18.0053125 -35.625 16.9375 C-34.77461221 10.46682201 -33.69881567 6.55158455 -28.875 1.9375 C-20.54972165 -4.05670041 -9.21381595 -4.50513534 0 0 Z " fill="#283137" transform="translate(140.75,87.3125)"/>
<path d="M0 0 C40.26 0 80.52 0 122 0 C122.495 6.93 122.495 6.93 123 14 C124.85675011 21.53622105 129.30491756 27.87653463 135.85546875 32.234375 C137.61011313 33.15489005 137.61011313 33.15489005 140 34 C140 34.33 140 34.66 140 35 C124.69173269 35.1405874 109.38349527 35.24617431 94.0747261 35.31087303 C86.96544983 35.34172162 79.85657626 35.38372744 72.74755859 35.45263672 C66.54636398 35.51271726 60.34546121 35.55121445 54.1439836 35.56453097 C50.86459992 35.57230713 47.58623823 35.59360777 44.3070755 35.63438034 C40.63293413 35.67822828 36.96049562 35.68392183 33.28613281 35.68115234 C31.68174095 35.71350983 31.68174095 35.71350983 30.04493713 35.746521 C21.39342491 35.67641004 13.30275773 33.17072989 6.96059036 27.02316856 C0.08690212 18.73881871 0 10.77392001 0 0 Z " fill="#F1F1F1" transform="translate(222,417)"/>
<path d="M0 0 C1.33557701 -0.00639748 1.33557701 -0.00639748 2.69813538 -0.01292419 C3.68257629 -0.01247101 4.66701721 -0.01201782 5.68128967 -0.0115509 C6.71210159 -0.01490952 7.74291351 -0.01826813 8.80496216 -0.02172852 C12.23127936 -0.03127054 15.65754788 -0.03318324 19.08387756 -0.03425598 C21.4542035 -0.03746624 23.82452923 -0.04083013 26.19485474 -0.04434204 C31.17080647 -0.05034142 36.14674082 -0.05218111 41.12269592 -0.05158997 C47.51335365 -0.05148828 53.90390042 -0.06514326 60.29453182 -0.08236217 C65.19200151 -0.09345524 70.08944415 -0.09551001 74.98692513 -0.09498024 C77.34374436 -0.09616433 79.7005642 -0.1006099 82.05737114 -0.10831261 C85.34745535 -0.11805852 88.63729568 -0.11525591 91.92738342 -0.10920715 C92.90980011 -0.11482666 93.8922168 -0.12044617 94.90440369 -0.12623596 C96.24421043 -0.11994423 96.24421043 -0.11994423 97.61108398 -0.11352539 C98.38962203 -0.11407016 99.16816008 -0.11461493 99.97029018 -0.1151762 C101.86903381 0.13371277 101.86903381 0.13371277 103.86903381 2.13371277 C104.12782288 4.53215027 104.12782288 4.53215027 104.13465881 7.50871277 C104.138526 9.10972839 104.138526 9.10972839 104.14247131 10.74308777 C104.13473694 11.86199402 104.12700256 12.98090027 104.11903381 14.13371277 C104.13063538 15.81207214 104.13063538 15.81207214 104.14247131 17.52433777 C104.13989319 18.59168152 104.13731506 19.65902527 104.13465881 20.75871277 C104.13240295 21.74097839 104.13014709 22.72324402 104.12782288 23.73527527 C103.86903381 26.13371277 103.86903381 26.13371277 101.86903381 28.13371277 C99.97029018 28.38260174 99.97029018 28.38260174 97.61108398 28.38095093 C96.27127724 28.38724266 96.27127724 28.38724266 94.90440369 28.3936615 C93.43077866 28.38523224 93.43077866 28.38523224 91.92738342 28.37663269 C90.89481918 28.37853104 89.86225494 28.38042938 88.79840088 28.38238525 C85.37265012 28.38610123 81.9471096 28.37537778 78.52137756 28.36418152 C76.1500857 28.36299016 73.77879337 28.36253646 71.40750122 28.36279297 C66.43330438 28.36122672 61.45917938 28.35292574 56.48500061 28.33952332 C50.09317815 28.32252406 43.70143466 28.31870915 37.30959225 28.3194685 C32.41216267 28.31919723 27.51475053 28.31372316 22.61732674 28.30646706 C20.25968622 28.30327398 17.90204373 28.3013115 15.54440117 28.30057335 C12.25666273 28.29841705 8.96900988 28.28968856 5.68128967 28.27897644 C4.2046283 28.27965622 4.2046283 28.27965622 2.69813538 28.28034973 C1.8077507 28.27608475 0.91736603 28.27181976 0 28.26742554 C-0.77816102 28.26574969 -1.55632204 28.26407385 -2.3580637 28.26234722 C-4.13096619 28.13371277 -4.13096619 28.13371277 -5.13096619 27.13371277 C-5.23068404 25.21912995 -5.26177207 23.3008896 -5.26377869 21.38371277 C-5.26506775 20.21840027 -5.26635681 19.05308777 -5.26768494 17.85246277 C-5.26381775 16.62527527 -5.25995056 15.39808777 -5.25596619 14.13371277 C-5.25983337 12.90652527 -5.26370056 11.67933777 -5.26768494 10.41496277 C-5.26639587 9.24965027 -5.26510681 8.08433777 -5.26377869 6.88371277 C-5.26265076 5.80605652 -5.26152283 4.72840027 -5.26036072 3.61808777 C-5.04818402 -0.4557048 -3.66755436 0.00789843 0 0 Z " fill="#F0E4E5" transform="translate(262.13096618652344,130.8662872314453)"/>
<path d="M0 0 C5.75 2.625 5.75 2.625 8 6 C8.125 8.6875 8.125 8.6875 8 11 C6.68 11.33 5.36 11.66 4 12 C6.475 12.99 6.475 12.99 9 14 C8 17 8 17 7 19 C7.66 19 8.32 19 9 19 C9 20.32 9 21.64 9 23 C7.35 22.67 5.7 22.34 4 22 C4.495 22.99 4.495 22.99 5 24 C6.32 24 7.64 24 9 24 C8.71551893 28.19609583 8.38333001 31.20000694 6.5625 35 C2.64877962 38.05461103 -1.21110665 37.41125993 -6 37 C-6 36.34 -6 35.68 -6 35 C-8.97 34.505 -8.97 34.505 -12 34 C-11.525625 34.391875 -11.05125 34.78375 -10.5625 35.1875 C-8.64820367 37.40808374 -8.38733012 39.13375709 -8 42 C-7.67 41.525625 -7.34 41.05125 -7 40.5625 C-4.02615418 38.23918295 -0.73693287 37.84937507 3 38 C5.20703125 38.69921875 5.20703125 38.69921875 7 40 C7.609375 42.1640625 7.609375 42.1640625 7.75 44.625 C7.80671875 45.44226563 7.8634375 46.25953125 7.921875 47.1015625 C7.94765625 47.72804687 7.9734375 48.35453125 8 49 C6.68 49 5.36 49 4 49 C1.29527683 57.58258524 -0.72326867 66.18631501 -2.5 75 C-4.27673133 83.81368499 -6.29527683 92.41741476 -9 101 C-3.84353148 99.35023701 1.04665688 97.29463103 6 95.12109375 C9 94 9 94 12.27734375 93.50390625 C13.62505859 93.25447266 13.62505859 93.25447266 15 93 C16.03013277 91.35178756 17.03114628 89.68496298 18 88 C20.6875 87.1875 20.6875 87.1875 23 87 C24.96634851 91.74236993 25.22661303 94.99919304 24 100 C21.5014505 103.54689195 18.13423739 103.97433775 14.0625 104.9375 C13.37244873 105.1037085 12.68239746 105.26991699 11.97143555 105.44116211 C7.8890219 106.40313872 3.79070423 107.2483545 -0.328125 108.0390625 C-1.21894775 108.21058838 -2.10977051 108.38211426 -3.02758789 108.55883789 C-4.76963537 108.88869966 -6.5136079 109.20858818 -8.25952148 109.51733398 C-12.82658743 110.36968843 -16.05565366 111.43938456 -20 114 C-25.84652867 114.5657931 -29.79676582 113.98704184 -35 111 C-39.44268065 106.96404363 -41.94805033 102.58586298 -44 97 C-42.77023438 96.60167969 -42.77023438 96.60167969 -41.515625 96.1953125 C-40.43796875 95.84210938 -39.3603125 95.48890625 -38.25 95.125 C-37.18265625 94.77695313 -36.1153125 94.42890625 -35.015625 94.0703125 C-32.54450739 93.1932578 -30.3026308 92.24073795 -28 91 C-26.68 92.65 -25.36 94.3 -24 96 C-23.731875 95.29359375 -23.46375 94.5871875 -23.1875 93.859375 C-21.16584936 88.56584241 -19.12368559 83.28540438 -16.9921875 78.03515625 C-16.46818359 76.74109863 -16.46818359 76.74109863 -15.93359375 75.42089844 C-15.24467661 73.72339134 -14.55215419 72.02734148 -13.85546875 70.33300781 C-11.54965364 64.64365967 -9.66726633 58.90744553 -8 53 C-8.85851562 53.06960937 -9.71703125 53.13921875 -10.6015625 53.2109375 C-14.6939782 52.95692549 -16.88450542 51.73653376 -20.375 49.625 C-21.43460938 48.99851563 -22.49421875 48.37203125 -23.5859375 47.7265625 C-24.38257812 47.15679687 -25.17921875 46.58703125 -26 46 C-26 45.34 -26 44.68 -26 44 C-25.37609375 43.43796875 -24.7521875 42.8759375 -24.109375 42.296875 C-21.43559496 39.38542562 -21.01970015 37.09850077 -20.25 33.25 C-20.00765625 32.07953125 -19.7653125 30.9090625 -19.515625 29.703125 C-19.34546875 28.81109375 -19.1753125 27.9190625 -19 27 C-18.01 27.66 -17.02 28.32 -16 29 C-17.60326408 25.96223647 -18.83255442 24.12359078 -21.625 22.0625 C-24 20 -24 20 -24.9375 16.875 C-24.958125 15.92625 -24.97875 14.9775 -25 14 C-24.34 13.34 -23.68 12.68 -23 12 C-21.08203125 12.12890625 -21.08203125 12.12890625 -18.8125 12.5625 C-14.05734386 13.19601197 -11.22638264 12.43829768 -7 10 C-3.42764728 6.98334659 -1.40482097 4.46988491 0 0 Z " fill="#FABCB9" transform="translate(136,97)"/>
<path d="M0 0 C0.69249865 0.00377932 1.3849973 0.00755865 2.09848076 0.0114525 C2.83311234 0.00762695 3.56774392 0.0038014 4.32463706 -0.00014007 C6.79901104 -0.01050153 9.27315433 -0.00647203 11.74754387 -0.0025093 C13.51634998 -0.00685404 15.28515421 -0.01203639 17.05395561 -0.01799697 C21.86795577 -0.03142389 26.68187759 -0.03196154 31.49589282 -0.02943367 C35.509522 -0.02836644 39.52313517 -0.03324095 43.53676093 -0.03803909 C53.00286734 -0.04914708 62.46893408 -0.04956445 71.93504387 -0.04352492 C81.71213887 -0.03748305 91.48909004 -0.04979861 101.26616049 -0.07109499 C109.65005178 -0.08868767 118.03389719 -0.09471604 126.41780627 -0.09145725 C131.42968967 -0.08964049 136.44147049 -0.09231949 141.45333725 -0.10617179 C146.16552329 -0.11870762 150.87748449 -0.11684648 155.5896669 -0.1037609 C157.32190834 -0.10138626 159.05416539 -0.10416136 160.78638893 -0.11238402 C163.14581081 -0.12277868 165.50446799 -0.11481032 167.86386162 -0.10207289 C168.55412955 -0.10944718 169.24439748 -0.11682146 169.95558262 -0.12441921 C172.76738412 -0.09234428 174.62459914 -0.01930718 176.9700256 1.60803777 C178.65874361 4.22307277 178.42296601 6.24572491 178.04466301 9.27214891 C176.9700256 10.93626004 176.9700256 10.93626004 175.04466301 12.27214891 C172.56724814 12.56457551 170.34134918 12.67283826 167.86386162 12.64637071 C167.12767005 12.65034512 166.39147848 12.65431952 165.63297808 12.65841436 C163.15925312 12.66806032 160.68609679 12.65620576 158.21238762 12.64446336 C156.44181151 12.64689055 154.67123677 12.65060916 152.90066582 12.65552598 C148.08674022 12.66494789 143.27301748 12.65549901 138.4591077 12.64219385 C133.42850809 12.6308976 128.39791874 12.6349854 123.36731011 12.63694078 C114.9194766 12.63782425 106.47172327 12.62673154 98.02391106 12.60833055 C88.24623034 12.58715528 78.46866704 12.58365418 68.69096804 12.58989251 C59.29741725 12.59557969 49.90390796 12.58994858 40.51036316 12.57871896 C36.50679881 12.57406509 32.50325978 12.57320251 28.49969345 12.57530481 C23.7891658 12.57718327 19.07875831 12.56911804 14.36825806 12.55324441 C12.63560155 12.54898846 10.90293288 12.54815976 9.17027336 12.55093461 C6.81287565 12.55413823 4.45584111 12.54512112 2.09848076 12.53284532 C1.40598211 12.53662464 0.71348346 12.54040397 0 12.54429781 C-4.72700771 12.50047818 -4.72700771 12.50047818 -6.95533699 10.27214891 C-7.22096199 8.39714891 -7.22096199 8.39714891 -7.20533699 6.27214891 C-7.21049324 5.57089891 -7.21564949 4.86964891 -7.22096199 4.14714891 C-6.60780194 -0.18103965 -3.69494062 0.03425231 0 0 Z " fill="#D62B33" transform="translate(238.95533698797226,241.7278510928154)"/>
<path d="M0 0 C0.85078125 0.43119141 0.85078125 0.43119141 1.71875 0.87109375 C3.9612284 1.98081337 6.21869335 3.03513074 8.5 4.0625 C9.2528125 4.40410156 10.005625 4.74570312 10.78125 5.09765625 C12.84495938 5.93694651 14.82782697 6.52113458 17 7 C16.896875 7.78375 16.79375 8.5675 16.6875 9.375 C17.13858899 14.60763226 19.48302757 18.45432029 22 23 C22.43054688 23.77988281 22.86109375 24.55976563 23.3046875 25.36328125 C24.134194 26.85484729 24.96489682 28.34574873 25.796875 29.8359375 C31.69120148 40.4380702 31.69120148 40.4380702 31 45 C30 46 30 46 26.1875 46.125 C23.31082025 46.09401243 20.75227001 45.91742334 18 45 C19.2684375 46.36125 19.2684375 46.36125 20.5625 47.75 C23.00883348 50.67316119 23.00883348 50.67316119 22.9375 53.3125 C22 55 22 55 20 56 C4.7224798 56.8173159 -11.15301301 55.91209671 -26 52 C-27.55776357 43.78633752 -25.96157703 37.04052368 -24 29 C-23.65725594 27.33524314 -23.32004778 25.66926879 -23 24 C-21.80761719 24.02320313 -20.61523438 24.04640625 -19.38671875 24.0703125 C-17.82031876 24.08907178 -16.253912 24.10727181 -14.6875 24.125 C-13.90181641 24.14175781 -13.11613281 24.15851563 -12.30664062 24.17578125 C-11.54931641 24.18222656 -10.79199219 24.18867188 -10.01171875 24.1953125 C-8.96697388 24.21102295 -8.96697388 24.21102295 -7.90112305 24.22705078 C-5.668827 24.10574595 -5.668827 24.10574595 -3 22 C-3.33 21.67 -3.66 21.34 -4 21 C-3.90997602 18.97591245 -3.75358962 16.95455713 -3.5625 14.9375 C-3.46066406 13.83277344 -3.35882813 12.72804688 -3.25390625 11.58984375 C-3.17011719 10.73519531 -3.08632812 9.88054687 -3 9 C-2.34 9 -1.68 9 -1 9 C-1.66 8.67 -2.32 8.34 -3 8 C-1.125 2.25 -1.125 2.25 0 0 Z M6 37 C6.33 37.66 6.66 38.32 7 39 C7.66 38.67 8.32 38.34 9 38 C8.01 37.67 7.02 37.34 6 37 Z M11 40 C11.33 40.66 11.66 41.32 12 42 C12.66 41.67 13.32 41.34 14 41 C13.01 40.67 12.02 40.34 11 40 Z " fill="#E1817C" transform="translate(121,396)"/>
<path d="M0 0 C2.46484375 1.375 2.46484375 1.375 4.9375 3 C8.64836228 5.31859557 11.53644039 6.76507581 16 7 C16 5.02 16 3.04 16 1 C16.33 1 16.66 1 17 1 C17.40074789 7.09300357 16.03303643 11.74583797 13.9375 17.4375 C13.62458008 18.30987305 13.31166016 19.18224609 12.98925781 20.08105469 C10.46905273 26.99210659 7.62831746 33.73033936 4.578125 40.421875 C2.89452869 44.23913792 1.43236983 48.08255481 0 52 C-0.45375 51.38125 -0.9075 50.7625 -1.375 50.125 C-2.97108919 47.94080167 -2.97108919 47.94080167 -5 46 C-5.4846875 46.27714844 -5.969375 46.55429688 -6.46875 46.83984375 C-11.4138373 49.51209285 -15.39544133 50.59967438 -21 51 C-23.43660506 43.30675967 -25.41541382 35.63681205 -26.8125 27.6875 C-26.94825439 26.95998535 -27.08400879 26.2324707 -27.22387695 25.48291016 C-28.18919583 19.66467602 -28.98246094 12.94171624 -25.546875 7.84375 C-24.95390625 7.4003125 -24.3609375 6.956875 -23.75 6.5 C-23.16734375 6.0359375 -22.5846875 5.571875 -21.984375 5.09375 C-19.66171963 3.81354625 -17.6009452 3.48078078 -15 3 C-12.46681553 1.97881001 -9.98759097 0.86937716 -7.5 -0.2578125 C-4.48723803 -1.15222621 -2.97850985 -0.96020818 0 0 Z " fill="#CD2C34" transform="translate(112,143)"/>
<path d="M0 0 C5.75 2.625 5.75 2.625 8 6 C8.125 8.6875 8.125 8.6875 8 11 C6.68 11.33 5.36 11.66 4 12 C6.475 12.99 6.475 12.99 9 14 C8 17 8 17 7 19 C7.66 19 8.32 19 9 19 C9 20.32 9 21.64 9 23 C7.35 22.67 5.7 22.34 4 22 C4.33 22.66 4.66 23.32 5 24 C6.32 24 7.64 24 9 24 C8.71551893 28.19609583 8.38333001 31.20000694 6.5625 35 C2.64877962 38.05461103 -1.21110665 37.41125993 -6 37 C-6 36.34 -6 35.68 -6 35 C-7.98 34.67 -9.96 34.34 -12 34 C-11.50886719 34.39832031 -11.01773438 34.79664063 -10.51171875 35.20703125 C-8.56816575 37.5121755 -8.683464 38.7196719 -8.8125 41.6875 C-8.83957031 42.49574219 -8.86664063 43.30398437 -8.89453125 44.13671875 C-8.92933594 44.75160156 -8.96414062 45.36648437 -9 46 C-8.34 46.33 -7.68 46.66 -7 47 C-7.33 48.98 -7.66 50.96 -8 53 C-13.15193648 53.41772458 -15.98555898 52.28034087 -20.375 49.625 C-21.43460937 48.99851563 -22.49421875 48.37203125 -23.5859375 47.7265625 C-24.38257812 47.15679687 -25.17921875 46.58703125 -26 46 C-26 45.34 -26 44.68 -26 44 C-25.37609375 43.43796875 -24.7521875 42.8759375 -24.109375 42.296875 C-21.43559496 39.38542562 -21.01970015 37.09850077 -20.25 33.25 C-20.00765625 32.07953125 -19.7653125 30.9090625 -19.515625 29.703125 C-19.26039062 28.36507812 -19.26039062 28.36507812 -19 27 C-18.01 27.66 -17.02 28.32 -16 29 C-17.60326408 25.96223647 -18.83255442 24.12359078 -21.625 22.0625 C-24 20 -24 20 -24.9375 16.875 C-24.958125 15.92625 -24.97875 14.9775 -25 14 C-24.34 13.34 -23.68 12.68 -23 12 C-21.08203125 12.12890625 -21.08203125 12.12890625 -18.8125 12.5625 C-14.05734386 13.19601197 -11.22638264 12.43829768 -7 10 C-3.42764728 6.98334659 -1.40482097 4.46988491 0 0 Z " fill="#F5B9B7" transform="translate(136,97)"/>
<path d="M0 0 C7.49728697 2.89368971 11.48375726 6.73708114 15 14 C17.81411539 21.95179627 20.45220229 30.50407826 20 39 C19.236875 39.226875 18.47375 39.45375 17.6875 39.6875 C14.80884548 40.76516321 14.80884548 40.76516321 13.6875 43.5 C12 46 12 46 8.6875 46.9375 C7.65109375 47.13085938 7.65109375 47.13085938 6.59375 47.328125 C1.87085324 48.55152597 -2.50707608 50.8156989 -6.92578125 52.85546875 C-10 54 -10 54 -13 53 C-12.69707031 52.07445312 -12.39414063 51.14890625 -12.08203125 50.1953125 C-8.86694626 40.00989218 -6.65847114 29.77835314 -4.78833008 19.26416016 C-3.59966611 12.68102245 -2.08593751 6.35828609 0 0 Z " fill="#D02D34" transform="translate(139,145)"/>
<path d="M0 0 C5.208738 1.10184842 9.06297885 4.412998 12.71484375 8.2109375 C14.53512401 9.96174141 16.47918581 11.17076698 18.625 12.5 C22.69441464 15.17969624 25.57978359 17.59316817 28.25 21.6875 C28.1875 24 28.1875 24 27.25 25.6875 C15.48636819 31.5693159 -8.51414471 25.91157835 -20.75 22.6875 C-21.79559253 16.10026707 -21.58292414 11.09516041 -19.75 4.6875 C-17.5 4 -17.5 4 -14.75 3.6875 C-13.40210653 4.66778616 -12.06787285 5.66721135 -10.75 6.6875 C-8.6754644 6.8365712 -8.6754644 6.8365712 -6.75 5.6875 C-5.821875 4.4190625 -5.821875 4.4190625 -4.875 3.125 C-2.75 0.6875 -2.75 0.6875 0 0 Z " fill="#DA7E7A" transform="translate(115.75,425.3125)"/>
<path d="M0 0 C2.0625 1.125 2.0625 1.125 3.0625 3.125 C4.0525 3.455 5.0425 3.785 6.0625 4.125 C6.0625 5.445 6.0625 6.765 6.0625 8.125 C7.0525 8.455 8.0425 8.785 9.0625 9.125 C9.0625 13.415 9.0625 17.705 9.0625 22.125 C8.0725 22.455 7.0825 22.785 6.0625 23.125 C6.0625 24.445 6.0625 25.765 6.0625 27.125 C5.0725 27.455 4.0825 27.785 3.0625 28.125 C2.7325 29.115 2.4025 30.105 2.0625 31.125 C-3.56619645 32.53217411 -10.39459882 33.07250582 -15.9375 31.125 C-20.8398303 27.3898912 -22.8291179 23.05286497 -23.9375 17.125 C-24.07933406 12.16967242 -22.98856096 8.08007903 -19.9375 4.125 C-14.12350193 -1.10759826 -7.37504674 -2.19682243 0 0 Z " fill="#86C721" transform="translate(399.9375,129.875)"/>
<path d="M0 0 C1.33557701 -0.00639748 1.33557701 -0.00639748 2.69813538 -0.01292419 C3.68257629 -0.01247101 4.66701721 -0.01201782 5.68128967 -0.0115509 C6.71210159 -0.01490952 7.74291351 -0.01826813 8.80496216 -0.02172852 C12.23127936 -0.03127054 15.65754788 -0.03318324 19.08387756 -0.03425598 C21.4542035 -0.03746624 23.82452923 -0.04083013 26.19485474 -0.04434204 C31.17080647 -0.05034142 36.14674082 -0.05218111 41.12269592 -0.05158997 C47.51335365 -0.05148828 53.90390042 -0.06514326 60.29453182 -0.08236217 C65.19200151 -0.09345524 70.08944415 -0.09551001 74.98692513 -0.09498024 C77.34374436 -0.09616433 79.7005642 -0.1006099 82.05737114 -0.10831261 C85.34745535 -0.11805852 88.63729568 -0.11525591 91.92738342 -0.10920715 C92.90980011 -0.11482666 93.8922168 -0.12044617 94.90440369 -0.12623596 C96.24421043 -0.11994423 96.24421043 -0.11994423 97.61108398 -0.11352539 C98.38962203 -0.11407016 99.16816008 -0.11461493 99.97029018 -0.1151762 C101.86903381 0.13371277 101.86903381 0.13371277 103.86903381 2.13371277 C104.12782288 4.53215027 104.12782288 4.53215027 104.13465881 7.50871277 C104.138526 9.10972839 104.138526 9.10972839 104.14247131 10.74308777 C104.13473694 11.86199402 104.12700256 12.98090027 104.11903381 14.13371277 C104.13063538 15.81207214 104.13063538 15.81207214 104.14247131 17.52433777 C104.13989319 18.59168152 104.13731506 19.65902527 104.13465881 20.75871277 C104.13240295 21.74097839 104.13014709 22.72324402 104.12782288 23.73527527 C103.86903381 26.13371277 103.86903381 26.13371277 101.86903381 28.13371277 C99.97029018 28.38260174 99.97029018 28.38260174 97.61108398 28.38095093 C96.27127724 28.38724266 96.27127724 28.38724266 94.90440369 28.3936615 C93.43077866 28.38523224 93.43077866 28.38523224 91.92738342 28.37663269 C90.89481918 28.37853104 89.86225494 28.38042938 88.79840088 28.38238525 C85.37265012 28.38610123 81.9471096 28.37537778 78.52137756 28.36418152 C76.1500857 28.36299016 73.77879337 28.36253646 71.40750122 28.36279297 C66.43330438 28.36122672 61.45917938 28.35292574 56.48500061 28.33952332 C50.09317815 28.32252406 43.70143466 28.31870915 37.30959225 28.3194685 C32.41216267 28.31919723 27.51475053 28.31372316 22.61732674 28.30646706 C20.25968622 28.30327398 17.90204373 28.3013115 15.54440117 28.30057335 C12.25666273 28.29841705 8.96900988 28.28968856 5.68128967 28.27897644 C4.2046283 28.27965622 4.2046283 28.27965622 2.69813538 28.28034973 C1.8077507 28.27608475 0.91736603 28.27181976 0 28.26742554 C-0.77816102 28.26574969 -1.55632204 28.26407385 -2.3580637 28.26234722 C-4.13096619 28.13371277 -4.13096619 28.13371277 -5.13096619 27.13371277 C-5.23068404 25.21912995 -5.26177207 23.3008896 -5.26377869 21.38371277 C-5.26506775 20.21840027 -5.26635681 19.05308777 -5.26768494 17.85246277 C-5.26381775 16.62527527 -5.25995056 15.39808777 -5.25596619 14.13371277 C-5.25983337 12.90652527 -5.26370056 11.67933777 -5.26768494 10.41496277 C-5.26639587 9.24965027 -5.26510681 8.08433777 -5.26377869 6.88371277 C-5.26265076 5.80605652 -5.26152283 4.72840027 -5.26036072 3.61808777 C-5.04818402 -0.4557048 -3.66755436 0.00789843 0 0 Z M-3.13096619 3.13371277 C-3.23013189 4.75628821 -3.26176395 6.38311108 -3.26377869 8.00871277 C-3.26506775 8.99355652 -3.26635681 9.97840027 -3.26768494 10.99308777 C-3.26381775 12.02949402 -3.25995056 13.06590027 -3.25596619 14.13371277 C-3.25983337 15.17011902 -3.26370056 16.20652527 -3.26768494 17.27433777 C-3.26639587 18.25918152 -3.26510681 19.24402527 -3.26377869 20.25871277 C-3.26265076 21.16879089 -3.26152283 22.07886902 -3.26036072 23.01652527 C-3.36656627 25.11899757 -3.36656627 25.11899757 -2.13096619 26.13371277 C-0.448454 26.25691789 1.23912454 26.3116012 2.92591858 26.33903503 C4.5514138 26.36895287 4.5514138 26.36895287 6.20974731 26.3994751 C7.39797592 26.41618759 8.58620453 26.43290009 9.81044006 26.45011902 C11.03947556 26.47090012 12.26851105 26.49168121 13.53479004 26.51309204 C16.15864887 26.55649917 18.78245747 26.59805173 21.40638733 26.63639832 C25.33479882 26.69387742 29.26303598 26.76020491 33.19129944 26.82707214 C62.53917872 27.47195393 62.53917872 27.47195393 91.86903381 26.63371277 C92.76235413 26.58601746 93.65567444 26.53832214 94.57606506 26.48918152 C96.67403528 26.37638742 98.77159921 26.25606312 100.86903381 26.13371277 C102.62649694 23.11214717 103.08885753 21.09927866 102.88075256 17.62199402 C102.83370178 16.7821698 102.786651 15.94234558 102.73817444 15.07707214 C102.67823303 14.20888855 102.61829163 13.34070496 102.55653381 12.44621277 C102.50819397 11.56642761 102.45985413 10.68664246 102.41004944 9.78019714 C102.50634422 5.62375917 102.50634422 5.62375917 100.86903381 2.13371277 C99.53063908 2.03629209 98.18716557 2.00739718 96.8452301 2.00672913 C95.97864273 2.0039093 95.11205536 2.00108948 94.21920776 1.9981842 C92.78226814 2.00122055 92.78226814 2.00122055 91.31629944 2.00431824 C90.31314194 2.00256592 89.30998444 2.0008136 88.27642822 1.99900818 C84.9426961 1.99458761 81.60901653 1.99752838 78.27528381 2.00090027 C75.9698231 2.00022729 73.66436245 1.99925731 71.35890198 1.9980011 C66.51998725 1.99652385 61.68109094 1.99867956 56.84217834 2.00334167 C50.62408736 2.00903897 44.40603953 2.00576011 38.18795013 1.99976921 C33.42520316 1.99616434 28.66246651 1.99730184 23.89971924 1.999897 C21.60627233 2.00056648 19.3128245 1.99973715 17.01937866 1.99741745 C13.82014975 1.99489213 10.62099179 1.99872982 7.42176819 2.00431824 C6.46380844 2.00229401 5.50584869 2.00026978 4.51885986 1.9981842 C3.21897881 2.00241394 3.21897881 2.00241394 1.89283752 2.00672913 C0.75683231 2.00729466 0.75683231 2.00729466 -0.4021225 2.00787163 C-2.16176129 1.94653886 -2.16176129 1.94653886 -3.13096619 3.13371277 Z " fill="#D63139" transform="translate(262.13096618652344,130.8662872314453)"/>
<path d="M0 0 C0.33 0 0.66 0 1 0 C1 37.95 1 75.9 1 115 C11.89 115 22.78 115 34 115 C34 115.33 34 115.66 34 116 C23.11 116 12.22 116 1 116 C1.04640625 120.37121094 1.0928125 124.74242187 1.140625 129.24609375 C1.16638502 132.75185949 1.18806332 136.25759816 1.20700073 139.76340485 C1.22804246 143.45306175 1.25611651 147.14234553 1.30175781 150.83178711 C1.34551408 154.39150198 1.36919905 157.95085714 1.37950897 161.51082039 C1.39039642 163.51648459 1.42157424 165.52200594 1.45318604 167.52745056 C1.45542025 176.70178833 -0.09484641 182.68377182 -5.1875 190.25 C-10.89000728 195.8257849 -17.46562987 199.11259402 -25.46328735 199.14717102 C-27.16645111 199.15790398 -27.16645111 199.15790398 -28.90402222 199.16885376 C-30.15079742 199.17154266 -31.39757263 199.17423157 -32.68212891 199.17700195 C-34.65082947 199.18685875 -34.65082947 199.18685875 -36.65930176 199.19691467 C-41.01504293 199.21794349 -45.37078439 199.22831835 -49.7265625 199.23828125 C-51.22802117 199.24232974 -52.72947966 199.24644669 -54.23093796 199.25063133 C-61.28797461 199.26968318 -68.34500082 199.28391225 -75.40205824 199.2922433 C-83.53641406 199.30200553 -91.67049703 199.32829832 -99.80475676 199.36874419 C-106.09875101 199.39896054 -112.39266731 199.41371753 -118.68673265 199.41702431 C-122.44243822 199.41936921 -126.1978523 199.42825551 -129.95347977 199.45348549 C-133.49123269 199.47686724 -137.02850435 199.48095944 -140.5663147 199.47072411 C-142.47185404 199.46999727 -144.37736948 199.48901896 -146.2828064 199.50878906 C-153.16158163 199.46733943 -159.17390643 198.96734611 -165 195 C-165.66 194.01 -166.32 193.02 -167 192 C-164.25905306 193.07976698 -161.65085044 194.18301306 -159.03733826 195.55293274 C-153.98667646 197.70420443 -148.87133738 197.39512996 -143.46508789 197.34057617 C-141.75180298 197.34123329 -141.75180298 197.34123329 -140.00390625 197.34190369 C-136.24331334 197.33982021 -132.48317091 197.31650912 -128.72265625 197.29296875 C-126.10949446 197.28737125 -123.49632952 197.28310188 -120.88316345 197.28010559 C-114.71739959 197.27080267 -108.55179639 197.24621289 -102.38610309 197.21605712 C-95.36312251 197.18245826 -88.34013403 197.16601336 -81.31709301 197.15097082 C-66.87797935 197.11966159 -52.43899193 197.06693546 -38 197 C-39.98 195.68 -41.96 194.36 -44 193 C-40.70298243 193 -38.90532981 193.75678777 -35.875 195 C-27.80955169 197.93865613 -22.74639357 198.07021895 -14.8125 194.5625 C-8.04416594 190.91535948 -4.71236385 186.37483598 -1.94953346 179.31621361 C-0.88485014 175.597843 -0.73807471 172.46345803 -0.7215271 168.59683228 C-0.7128385 167.51108463 -0.7128385 167.51108463 -0.70397437 166.40340269 C-0.6870349 163.98975522 -0.68410313 161.57629966 -0.68115234 159.16259766 C-0.67184998 157.42773981 -0.66168085 155.69288643 -0.65071106 153.95803833 C-0.62343175 149.25607371 -0.60826776 144.55413902 -0.59528303 139.85211611 C-0.57964347 134.93534192 -0.55285586 130.01862877 -0.5272522 125.10189819 C-0.48047906 115.79480477 -0.44372784 106.48769986 -0.41057932 97.18054903 C-0.37234761 86.58323399 -0.32294018 75.98598027 -0.27259517 65.38871694 C-0.16929709 43.59252325 -0.08002975 21.79629073 0 0 Z " fill="#485156" transform="translate(398,254)"/>
<path d="M0 0 C4.06898785 1.95006379 7.79656043 4.36234083 11.60546875 6.7734375 C17.8268832 10.65506186 23.8773441 14.18718604 30.91796875 16.3984375 C30.96068975 18.06455655 30.95860707 19.73226635 30.91796875 21.3984375 C29.91796875 22.3984375 29.91796875 22.3984375 27.34765625 22.71875 C22.83274016 22.29708358 19.89069974 20.56323341 16.04296875 18.2734375 C15.33479004 17.86617432 14.62661133 17.45891113 13.89697266 17.03930664 C10.15789189 14.85451549 6.66726413 12.562839 3.29296875 9.8359375 C0.86569381 7.93146024 -0.14711877 7.38312279 -3.26953125 6.6484375 C-7.41058694 7.75271902 -8.63316401 9.94121316 -11.08203125 13.3984375 C-14.99796571 12.61525061 -18.4460976 11.00663892 -22.08203125 9.3984375 C-21.75203125 6.4284375 -21.42203125 3.4584375 -21.08203125 0.3984375 C-19.87804687 0.41003906 -18.6740625 0.42164063 -17.43359375 0.43359375 C-15.85807446 0.44297184 -14.2825535 0.45207202 -12.70703125 0.4609375 C-11.5159375 0.47350586 -11.5159375 0.47350586 -10.30078125 0.48632812 C-6.84488703 0.50097174 -3.04776432 -0.88059232 0 0 Z " fill="#F58983" transform="translate(119.08203125,419.6015625)"/>
<path d="M0 0 C3.114375 -0.020625 6.22875 -0.04125 9.4375 -0.0625 C10.91174438 -0.07615601 10.91174438 -0.07615601 12.41577148 -0.09008789 C13.18477783 -0.09258545 13.95378418 -0.09508301 14.74609375 -0.09765625 C15.93223267 -0.10551147 15.93223267 -0.10551147 17.14233398 -0.11352539 C19 0 19 0 20 1 C20.08651611 2.41570123 20.10704904 3.835595 20.09765625 5.25390625 C20.09515869 6.0229126 20.09266113 6.79191895 20.09008789 7.58422852 C20.08098389 8.56705811 20.07187988 9.5498877 20.0625 10.5625 C20.041875 13.676875 20.02125 16.79125 20 20 C13.4 20 6.8 20 0 20 C0 13.4 0 6.8 0 0 Z " fill="#D83D45" transform="translate(272,300)"/>
<path d="M0 0 C6.27 0 12.54 0 19 0 C19 6.27 19 12.54 19 19 C12.73 19 6.46 19 0 19 C0 12.73 0 6.46 0 0 Z " fill="#D62F36" transform="translate(272,374)"/>
<path d="M0 0 C6.27 0 12.54 0 19 0 C19 6.27 19 12.54 19 19 C12.73 19 6.46 19 0 19 C0 12.73 0 6.46 0 0 Z " fill="#D7333B" transform="translate(272,337)"/>
<path d="M0 0 C6.27 0 12.54 0 19 0 C19 6.27 19 12.54 19 19 C12.73 19 6.46 19 0 19 C0 12.73 0 6.46 0 0 Z " fill="#D62F37" transform="translate(272,264)"/>
<path d="M0 0 C28.05 0 56.1 0 85 0 C85 1.32 85 2.64 85 4 C56.95 4 28.9 4 0 4 C0 2.68 0 1.36 0 0 Z " fill="#D7373F" transform="translate(299,306)"/>
<path d="M0 0 C27.72 0 55.44 0 84 0 C84 1.32 84 2.64 84 4 C55.95 4 27.9 4 -1 4 C-0.67 2.68 -0.34 1.36 0 0 Z " fill="#D9434A" transform="translate(300,379)"/>
<path d="M0 0 C22.11 0 44.22 0 67 0 C67 1.32 67 2.64 67 4 C44.89 4 22.78 4 0 4 C0 2.68 0 1.36 0 0 Z " fill="#D7383F" transform="translate(299,391)"/>
<path d="M0 0 C22.11 0 44.22 0 67 0 C67 1.32 67 2.64 67 4 C45.22 4 23.44 4 1 4 C0.67 2.68 0.34 1.36 0 0 Z " fill="#D7383F" transform="translate(299,318)"/>
<path d="M0 0 C5.75 2.625 5.75 2.625 8 6 C8.125 8.6875 8.125 8.6875 8 11 C6.68 11.33 5.36 11.66 4 12 C3.67 14.31 3.34 16.62 3 19 C2.34 19 1.68 19 1 19 C0.71125 19.78375 0.4225 20.5675 0.125 21.375 C-1 24 -1 24 -3 26 C-5.5 25.875 -5.5 25.875 -8 25 C-10.42363044 21.88390372 -10.17392151 18.82627315 -10 15 C-11.98 15 -13.96 15 -16 15 C-14 13 -14 13 -10.6875 11.6875 C-5.93638998 9.71776897 -2.88089736 6.8876372 -0.6875 2.1875 C-0.460625 1.465625 -0.23375 0.74375 0 0 Z " fill="#E6B0AE" transform="translate(136,97)"/>
<path d="M0 0 C28.38 0 56.76 0 86 0 C86 0.99 86 1.98 86 3 C57.62 3 29.24 3 0 3 C0 2.01 0 1.02 0 0 Z " fill="#D62B33" transform="translate(299,343)"/>
<path d="M0 0 C4 0 8 0 12 0 C13.7634375 -0.061875 13.7634375 -0.061875 15.5625 -0.125 C19 0 19 0 21 2 C21.125 4.375 21.125 4.375 21 7 C20.78918149 10.89459074 20.78918149 10.89459074 22 14 C20.1875 13.8125 20.1875 13.8125 18 13 C16.25 10.4375 16.25 10.4375 15 8 C14.67 9.98 14.34 11.96 14 14 C9.38 14 4.76 14 0 14 C0 9.38 0 4.76 0 0 Z " fill="#EFDEDE" transform="translate(283,138)"/>
<path d="M0 0 C28.38 0 56.76 0 86 0 C85.67 0.99 85.34 1.98 85 3 C56.95 3 28.9 3 0 3 C0 2.01 0 1.02 0 0 Z " fill="#D62B33" transform="translate(299,270)"/>
<path d="M0 0 C22.44 0 44.88 0 68 0 C67.67 0.99 67.34 1.98 67 3 C44.89 3 22.78 3 0 3 C0 2.01 0 1.02 0 0 Z " fill="#D62C33" transform="translate(299,355)"/>
<path d="M0 0 C22.44 0 44.88 0 68 0 C67.67 0.99 67.34 1.98 67 3 C44.89 3 22.78 3 0 3 C0 2.01 0 1.02 0 0 Z " fill="#D62C33" transform="translate(299,282)"/>
<path d="M0 0 C2.74094694 1.07976698 5.34914956 2.18301306 7.96266174 3.55293274 C13.01332354 5.70420443 18.12866262 5.39512996 23.53491211 5.34057617 C25.24819702 5.34123329 25.24819702 5.34123329 26.99609375 5.34190369 C30.75668666 5.33982021 34.51682909 5.31650912 38.27734375 5.29296875 C40.89050554 5.28737125 43.50367048 5.28310188 46.11683655 5.28010559 C52.28260041 5.27080267 58.44820361 5.24621289 64.61389691 5.21605712 C71.63687749 5.18245826 78.65986597 5.16601336 85.68290699 5.15097082 C100.12202065 5.11966159 114.56100807 5.06693546 129 5 C127.02 3.68 125.04 2.36 123 1 C126.29701757 1 128.09467019 1.75678777 131.125 3 C138.69763385 5.82724984 145.16753508 5.33318552 153 4 C148.96936096 6.68709269 146.27177681 7.12669949 141.53671265 7.14717102 C139.83354889 7.15790398 139.83354889 7.15790398 138.09597778 7.16885376 C136.84920258 7.17154266 135.60242737 7.17423157 134.31787109 7.17700195 C132.34917053 7.18685875 132.34917053 7.18685875 130.34069824 7.19691467 C125.98495707 7.21794349 121.62921561 7.22831835 117.2734375 7.23828125 C115.77197883 7.24232974 114.27052034 7.24644669 112.76906204 7.25063133 C105.71202539 7.26968318 98.65499918 7.28391225 91.59794176 7.2922433 C83.46358594 7.30200553 75.32950297 7.32829832 67.19524324 7.36874419 C60.90124899 7.39896054 54.60733269 7.41371753 48.31326735 7.41702431 C44.55756178 7.41936921 40.8021477 7.42825551 37.04652023 7.45348549 C33.50876731 7.47686724 29.97149565 7.48095944 26.4336853 7.47072411 C24.52814596 7.46999727 22.62263052 7.48901896 20.7171936 7.50878906 C13.83841837 7.46733943 7.82609357 6.96734611 2 3 C1.34 2.01 0.68 1.02 0 0 Z " fill="#384247" transform="translate(231,446)"/>
<path d="M0 0 C1.9375 1.625 1.9375 1.625 3 4 C2.93439072 7.739729 2.76345433 10.0603639 0.375 13 C-3.11581787 14.46981805 -5.39148956 13.98413921 -9 13 C-11 11.3125 -11 11.3125 -12 9 C-11.8670506 5.74273969 -11.60528959 3.76319122 -9.5625 1.1875 C-6.14492535 -1.40985674 -4.10871029 -1.09006599 0 0 Z " fill="#485257" transform="translate(309,196)"/>
<path d="M0 0 C5.94 0.33 11.88 0.66 18 1 C16.91229421 6.43852895 15.94624796 7.43875184 12 11 C11.34 11.66 10.68 12.32 10 13 C6.16131924 12.57347992 2.4967607 10.54664416 -1 9 C-0.67 6.03 -0.34 3.06 0 0 Z " fill="#FABDBA" transform="translate(98,420)"/>
<path d="M0 0 C0.5671875 0.28746094 1.134375 0.57492187 1.71875 0.87109375 C3.9612284 1.98081337 6.21869335 3.03513074 8.5 4.0625 C9.2528125 4.40410156 10.005625 4.74570312 10.78125 5.09765625 C12.84495938 5.93694651 14.82782697 6.52113458 17 7 C16.67 8.65 16.34 10.3 16 12 C8.22033898 15 8.22033898 15 4.125 15 C1.22574687 13.63564559 0.46254464 11.78579931 -1 9 C-1.66 8.67 -2.32 8.34 -3 8 C-1.125 2.25 -1.125 2.25 0 0 Z " fill="#F8BCBA" transform="translate(121,396)"/>
<path d="M0 0 C2.5 1.5625 2.5 1.5625 4 4 C4 7.77684879 3.78395245 10.03513544 1.375 13 C-2.07663304 14.45331917 -4.42809484 13.92604949 -8 13 C-10.46324069 9.30513897 -10.38991688 7.36706908 -10 3 C-7.7773391 -1.05308751 -4.20075589 -0.5158823 0 0 Z " fill="#424B50" transform="translate(354,196)"/>
<path d="M0 0 C6.0546875 -0.1953125 6.0546875 -0.1953125 8 0 C10 2 10 2 10.3125 5.9375 C10.23081662 8.43791894 10.12109418 9.77205801 8.9375 12 C5.97912322 13.52690415 3.26283401 13.18468872 0 13 C0 8.71 0 4.42 0 0 Z " fill="#D7383F" transform="translate(343,139)"/>
<path d="M0 0 C5.75 2.625 5.75 2.625 8 6 C8.125 8.6875 8.125 8.6875 8 11 C7.38125 11.061875 6.7625 11.12375 6.125 11.1875 C3.72238859 11.828919 3.72238859 11.828919 2.75 14.5625 C2.5025 15.366875 2.255 16.17125 2 17 C1.34 17 0.68 17 0 17 C-0.2475 16.21625 -0.495 15.4325 -0.75 14.625 C-2.15389099 11.67682892 -3.00675737 11.0975223 -6 10 C-5.38125 9.278125 -4.7625 8.55625 -4.125 7.8125 C-2.16333647 5.21618062 -1.04684 3.05328334 0 0 Z " fill="#F6BBB8" transform="translate(136,97)"/>
<path d="M0 0 C8.91 0 17.82 0 27 0 C27 1.32 27 2.64 27 4 C18.09 4 9.18 4 0 4 C0 2.68 0 1.36 0 0 Z " fill="#333D43" transform="translate(226,96)"/>
<path d="M0 0 C8.91 0 17.82 0 27 0 C27 1.32 27 2.64 27 4 C18.09 4 9.18 4 0 4 C0 2.68 0 1.36 0 0 Z " fill="#333D43" transform="translate(226,88)"/>
<path d="M0 0 C2.5 0.4375 2.5 0.4375 4.01171875 2.14453125 C5.57477291 4.55270131 6.6918321 6.92065058 7.8125 9.5625 C9.52965602 13.48220874 11.43263973 17.02947938 13.75 20.625 C16.48749049 25.012004 17.30948219 28.2935192 17.5 33.4375 C16.51 33.4375 15.52 33.4375 14.5 33.4375 C14.62375 32.468125 14.7475 31.49875 14.875 30.5 C14.86423275 25.23481569 12.11771881 21.10230409 8.5 17.4375 C5.92223207 16.39301519 4.33587521 16.3807825 1.5 16.4375 C1.5 16.1075 1.5 15.7775 1.5 15.4375 C3.48 15.4375 5.46 15.4375 7.5 15.4375 C7.5 14.7775 7.5 14.1175 7.5 13.4375 C5.19 13.4375 2.88 13.4375 0.5 13.4375 C0.83 12.7775 1.16 12.1175 1.5 11.4375 C0.84 11.1075 0.18 10.7775 -0.5 10.4375 C-0.5 9.7775 -0.5 9.1175 -0.5 8.4375 C1.15 8.4375 2.8 8.4375 4.5 8.4375 C4.5 7.7775 4.5 7.1175 4.5 6.4375 C2.85 6.4375 1.2 6.4375 -0.5 6.4375 C0.49 5.7775 1.48 5.1175 2.5 4.4375 C2.5 3.7775 2.5 3.1175 2.5 2.4375 C-0.14 2.7675 -2.78 3.0975 -5.5 3.4375 C-3.73470379 1.20765215 -2.84766278 0.49834099 0 0 Z " fill="#735354" transform="translate(134.5,407.5625)"/>
<path d="M0 0 C3.3 0 6.6 0 10 0 C10 0.99 10 1.98 10 3 C7.69 3 5.38 3 3 3 C3 3.99 3 4.98 3 6 C4.65 6 6.3 6 8 6 C8 6.66 8 7.32 8 8 C6.35 8 4.7 8 3 8 C3 8.99 3 9.98 3 11 C5.31 11 7.62 11 10 11 C10 11.99 10 12.98 10 14 C6.7 14 3.4 14 0 14 C0 9.38 0 4.76 0 0 Z " fill="#DC565C" transform="translate(331,138)"/>
<path d="M0 0 C2.97 0 5.94 0 9 0 C9 0.99 9 1.98 9 3 C7.02 3 5.04 3 3 3 C3 3.99 3 4.98 3 6 C4.65 6 6.3 6 8 6 C8 6.66 8 7.32 8 8 C6.35 8 4.7 8 3 8 C3 8.99 3 9.98 3 11 C4.98 11 6.96 11 9 11 C9 11.99 9 12.98 9 14 C6.03 14 3.06 14 0 14 C0 9.38 0 4.76 0 0 Z " fill="#DA4D54" transform="translate(283,138)"/>
<path d="M0 0 C-1.51553404 3.47775179 -3.5773456 5.9557984 -6.125 8.75 C-7.21167969 9.94882813 -7.21167969 9.94882813 -8.3203125 11.171875 C-8.87460937 11.77515625 -9.42890625 12.3784375 -10 13 C-13.78043163 12.22167584 -15.51409299 11.01860137 -18 8 C-18 7.01 -18 6.02 -18 5 C-17.4225 5.165 -16.845 5.33 -16.25 5.5 C-13.73335631 6.14462031 -13.73335631 6.14462031 -10 6 C-8.37514541 4.7087646 -8.37514541 4.7087646 -7 3 C-4.41723649 -0.03193978 -4.3828775 0 0 0 Z " fill="#F2F9E7" transform="translate(402,140)"/>
<path d="M0 0 C0.99 0.103125 1.98 0.20625 3 0.3125 C5 3.3125 5 3.3125 4.75 5.875 C4 8.3125 4 8.3125 2 10.3125 C-3.56818182 9.74431818 -3.56818182 9.74431818 -5 8.3125 C-5.1875 5.375 -5.1875 5.375 -5 2.3125 C-3 0.3125 -3 0.3125 0 0 Z " fill="#E6E6E7" transform="translate(305,197.6875)"/>
<path d="M0 0 C6.27 0 12.54 0 19 0 C19 1.32 19 2.64 19 4 C12.73 4 6.46 4 0 4 C0 2.68 0 1.36 0 0 Z " fill="#343E44" transform="translate(226,104)"/>
<path d="M0 0 C2.97 0 5.94 0 9 0 C9 0.99 9 1.98 9 3 C7.02 3 5.04 3 3 3 C3 3.99 3 4.98 3 6 C4.65 6 6.3 6 8 6 C8 6.99 8 7.98 8 9 C6.35 9 4.7 9 3 9 C3 10.65 3 12.3 3 14 C2.01 14 1.02 14 0 14 C0 9.38 0 4.76 0 0 Z " fill="#DA4C53" transform="translate(314,138)"/>
<path d="M0 0 C2.5 0.25 2.5 0.25 4.5 2.25 C4.6875 5.3125 4.6875 5.3125 4.5 8.25 C3.5 9.25 3.5 9.25 0.5625 9.4375 C-2.5 9.25 -2.5 9.25 -4.5 7.25 C-4.75 4.75 -4.75 4.75 -4.5 2.25 C-2.5 0.25 -2.5 0.25 0 0 Z " fill="#ECECED" transform="translate(350.5,197.75)"/>
<path d="M0 0 C2.33294775 -0.04241723 4.66702567 -0.04092937 7 0 C8 1 8 1 8.0625 3.3125 C8.041875 4.199375 8.02125 5.08625 8 6 C7.78918149 9.89459074 7.78918149 9.89459074 9 13 C7.1875 12.8125 7.1875 12.8125 5 12 C3.25 9.4375 3.25 9.4375 2 7 C1.67 8.65 1.34 10.3 1 12 C0.34 12 -0.32 12 -1 12 C-1 9.69 -1 7.38 -1 5 C0.98 5 2.96 5 5 5 C5 4.01 5 3.02 5 2 C3.35 2 1.7 2 0 2 C0 1.34 0 0.68 0 0 Z " fill="#D9454C" transform="translate(296,139)"/>
<path d="M0 0 C0.99 0 1.98 0 3 0 C3.66 2.31 4.32 4.62 5 7 C5.99 5.02 6.98 3.04 8 1 C8.99 1.33 9.98 1.66 11 2 C9.68 5.96 8.36 9.92 7 14 C6.01 13.67 5.02 13.34 4 13 C2.83203125 10.56640625 2.83203125 10.56640625 1.8125 7.5625 C1.46832031 6.57378906 1.12414062 5.58507812 0.76953125 4.56640625 C0 2 0 2 0 0 Z " fill="#DB5157" transform="translate(270,138)"/>
<path d="M0 0 C0.66 0.33 1.32 0.66 2 1 C0.52278578 4.45201639 -1.43794001 6.64961936 -4.125 9.25 C-4.84945313 9.95640625 -5.57390625 10.6628125 -6.3203125 11.390625 C-6.87460938 11.92171875 -7.42890625 12.4528125 -8 13 C-9.98 11.35 -11.96 9.7 -14 8 C-13.67 7.01 -13.34 6.02 -13 5 C-11.515 5.99 -11.515 5.99 -10 7 C-6.62843336 6.68806372 -5.01805345 5.36019346 -2.75 2.9375 C-2.22921875 2.38964844 -1.7084375 1.84179688 -1.171875 1.27734375 C-0.78515625 0.85582031 -0.3984375 0.43429688 0 0 Z " fill="#394348" transform="translate(262,98)"/>
<path d="M0 0 C1.32 0.33 2.64 0.66 4 1 C3 4 3 4 2 6 C2.66 6 3.32 6 4 6 C4 7.32 4 8.64 4 10 C3.2575 9.835 2.515 9.67 1.75 9.5 C-1.19006578 8.88074304 -1.19006578 8.88074304 -5 9 C-4.625 7.0625 -4.625 7.0625 -4 5 C-3.34 4.67 -2.68 4.34 -2 4 C-0.86649466 1.98330173 -0.86649466 1.98330173 0 0 Z " fill="#E9B2B0" transform="translate(141,110)"/>
<path d="M0 0 C-0.33 0.66 -0.66 1.32 -1 2 C-1.639375 1.814375 -2.27875 1.62875 -2.9375 1.4375 C-3.618125 1.293125 -4.29875 1.14875 -5 1 C-6.58272601 2.58272601 -6.34735747 4.38034003 -6.5625 6.5625 C-6.64628906 7.38878906 -6.73007813 8.21507813 -6.81640625 9.06640625 C-6.87699219 9.70449219 -6.93757812 10.34257813 -7 11 C-9 9 -9 9 -9.125 5.875 C-9.08375 4.92625 -9.0425 3.9775 -9 3 C-10.98 3 -12.96 3 -15 3 C-10.34961623 -1.65038377 -5.94183406 -2.75353286 0 0 Z " fill="#746567" transform="translate(135,109)"/>
<path d="M0 0 C3.80876563 5.45923073 7.31489612 10.85689081 6.875 17.6875 C5.885 17.6875 4.895 17.6875 3.875 17.6875 C3.99875 16.718125 4.1225 15.74875 4.25 14.75 C4.23923275 9.48481569 1.49271881 5.35230409 -2.125 1.6875 C-4.70276793 0.64301519 -6.28912479 0.6307825 -9.125 0.6875 C-9.125 0.3575 -9.125 0.0275 -9.125 -0.3125 C-2.85033333 -1.7605 -2.85033333 -1.7605 0 0 Z " fill="#403B40" transform="translate(145.125,423.3125)"/>
<path d="M0 0 C-1.3904499 3.10442031 -3.01571598 5.3656443 -5.375 7.8125 C-5.96023438 8.43769531 -6.54546875 9.06289063 -7.1484375 9.70703125 C-9 11 -9 11 -11.1484375 10.828125 C-13.60195941 9.73076921 -14.05164187 8.44992516 -15 6 C-12.525 6.99 -12.525 6.99 -10 8 C-9.44570313 7.4225 -8.89140625 6.845 -8.3203125 6.25 C-7.23363281 5.13625 -7.23363281 5.13625 -6.125 4 C-5.40570313 3.2575 -4.68640625 2.515 -3.9453125 1.75 C-2 0 -2 0 0 0 Z " fill="#EDD5D6" transform="translate(290,378)"/>
<path d="M0 0 C0.33 0.66 0.66 1.32 1 2 C-0.07507629 3.29854721 -1.16043736 4.58858361 -2.25 5.875 C-2.85328125 6.59429687 -3.4565625 7.31359375 -4.078125 8.0546875 C-5.97087634 9.97052118 -7.53657727 10.96449045 -10 12 C-12 10.625 -12 10.625 -14 9 C-14 8.34 -14 7.68 -14 7 C-11.525 7.99 -11.525 7.99 -9 9 C-6.03 6.03 -3.06 3.06 0 0 Z " fill="#EDD2D3" transform="translate(289,304)"/>
<path d="M0 0 C2.31 0.66 4.62 1.32 7 2 C7 2.66 7 3.32 7 4 C8.32 4.33 9.64 4.66 11 5 C8 7 8 7 6 7 C5.67 8.98 5.34 10.96 5 13 C4.67 13 4.34 13 4 13 C3.96261719 12.39671875 3.92523438 11.7934375 3.88671875 11.171875 C3.43746659 5.00632228 3.43746659 5.00632228 0 0 Z " fill="#7E6B6E" transform="translate(123,130)"/>
<path d="M0 0 C0.66 0 1.32 0 2 0 C0.52278578 3.45201639 -1.43794001 5.64961936 -4.125 8.25 C-4.84945313 8.95640625 -5.57390625 9.6628125 -6.3203125 10.390625 C-6.87460937 10.92171875 -7.42890625 11.4528125 -8 12 C-9.7074998 10.71937515 -11.37373596 9.38232443 -13 8 C-13 7.34 -13 6.68 -13 6 C-11.02 6.66 -9.04 7.32 -7 8 C-6.27683594 7.13375 -6.27683594 7.13375 -5.5390625 6.25 C-4.90742188 5.5075 -4.27578125 4.765 -3.625 4 C-2.99851562 3.2575 -2.37203125 2.515 -1.7265625 1.75 C-0.87191406 0.88375 -0.87191406 0.88375 0 0 Z " fill="#EED8D9" transform="translate(288,341)"/>
<path d="M0 0 C0.66 0 1.32 0 2 0 C0.52278578 3.45201639 -1.43794001 5.64961936 -4.125 8.25 C-4.84945313 8.95640625 -5.57390625 9.6628125 -6.3203125 10.390625 C-6.87460937 10.92171875 -7.42890625 11.4528125 -8 12 C-9.7074998 10.71937515 -11.37373596 9.38232443 -13 8 C-13 7.34 -13 6.68 -13 6 C-11.02 6.66 -9.04 7.32 -7 8 C-6.27683594 7.13375 -6.27683594 7.13375 -5.5390625 6.25 C-4.90742188 5.5075 -4.27578125 4.765 -3.625 4 C-2.99851562 3.2575 -2.37203125 2.515 -1.7265625 1.75 C-0.87191406 0.88375 -0.87191406 0.88375 0 0 Z " fill="#EED6D8" transform="translate(288,268)"/>
<path d="M0 0 C2.475 0.495 2.475 0.495 5 1 C5 2.98 5 4.96 5 7 C3.35 7.33 1.7 7.66 0 8 C0 5.36 0 2.72 0 0 Z " fill="#EFE2E3" transform="translate(345,141)"/>
<path d="M0 0 C0 0.66 0 1.32 0 2 C-2.31 2.66 -4.62 3.32 -7 4 C-7 5.98 -7 7.96 -7 10 C-7.99 10 -8.98 10 -10 10 C-10.35915493 3.65492958 -10.35915493 3.65492958 -8.9375 1.0625 C-5.98831309 -0.55479605 -3.29132441 -0.18630138 0 0 Z " fill="#323D42" transform="translate(354,196)"/>
<path d="M0 0 C0.99 0.33 1.98 0.66 3 1 C1.68 4.96 0.36 8.92 -1 13 C-1.66 13 -2.32 13 -3 13 C-2.68991116 11.39536551 -2.37683713 9.79130769 -2.0625 8.1875 C-1.88847656 7.29417969 -1.71445312 6.40085938 -1.53515625 5.48046875 C-1 3 -1 3 0 0 Z " fill="#DA474E" transform="translate(278,139)"/>
<path d="M0 0 C5.44736842 0.48421053 5.44736842 0.48421053 7.875 2.75 C9.18152386 5.36304771 9.24038873 7.11533524 9 10 C8.896875 9.360625 8.79375 8.72125 8.6875 8.0625 C8.460625 7.381875 8.23375 6.70125 8 6 C7.01 5.67 6.02 5.34 5 5 C5 4.34 5 3.68 5 3 C3.35 3 1.7 3 0 3 C0 2.01 0 1.02 0 0 Z " fill="#4D565B" transform="translate(303,195)"/>
<path d="M0 0 C2.31 0 4.62 0 7 0 C7 0.33 7 0.66 7 1 C5.02 1 3.04 1 1 1 C1 1.66 1 2.32 1 3 C2.65 3 4.3 3 6 3 C6 3.99 6 4.98 6 6 C4.02 6 2.04 6 0 6 C0 4.02 0 2.04 0 0 Z " fill="#E6A1A5" transform="translate(295,138)"/>
<path d="M0 0 C2.64 0 5.28 0 8 0 C8.33 1.32 8.66 2.64 9 4 C5.99580359 5.0013988 3.12290635 5.51421457 0 6 C0 5.34 0 4.68 0 4 C3.465 3.505 3.465 3.505 7 3 C7 2.34 7 1.68 7 1 C4.36 1.66 1.72 2.32 -1 3 C-0.67 2.01 -0.34 1.02 0 0 Z " fill="#94797B" transform="translate(135,138)"/>
<path d="M0 0 C0.33 0.99 0.66 1.98 1 3 C1.66 3 2.32 3 3 3 C3.33 2.01 3.66 1.02 4 0 C4.33 0.99 4.66 1.98 5 3 C4.34 3.66 3.68 4.32 3 5 C2.67 5.680625 2.34 6.36125 2 7.0625 C1 9 1 9 -1 10 C-0.67 8.35 -0.34 6.7 0 5 C-0.66 5 -1.32 5 -2 5 C-2 4.01 -2 3.02 -2 2 C-1.34 2 -0.68 2 0 2 C0 1.34 0 0.68 0 0 Z " fill="#6D5F62" transform="translate(135,111)"/>
<path d="M0 0 C2.97 0 5.94 0 9 0 C9 0.99 9 1.98 9 3 C6.36 3 3.72 3 1 3 C0.67 2.01 0.34 1.02 0 0 Z " fill="#DD5E64" transform="translate(314,138)"/>
<path d="M0 0 C1.875 0.6875 1.875 0.6875 2.875 1.6875 C3.01615161 4.35808851 2.91747107 7.01182238 2.875 9.6875 C1.4143715 7.04011084 0.875 5.79301666 0.875 2.6875 C-2.095 2.1925 -2.095 2.1925 -5.125 1.6875 C-2.125 -0.3125 -2.125 -0.3125 0 0 Z " fill="#DC565C" transform="translate(350.125,139.3125)"/>
<path d="M0 0 C2.33294775 -0.04241723 4.66702567 -0.04092937 7 0 C8 1 8 1 8.0625 3.5625 C8.041875 4.366875 8.02125 5.17125 8 6 C7.01 6.495 7.01 6.495 6 7 C6 5.35 6 3.7 6 2 C4.02 2 2.04 2 0 2 C0 1.34 0 0.68 0 0 Z " fill="#D7373F" transform="translate(296,139)"/>
<path d="M0 0 C0.33 0 0.66 0 1 0 C1.25 2.8125 1.25 2.8125 1 6 C-0.75 7.875 -0.75 7.875 -3 9 C-4.32 9 -5.64 9 -7 9 C-7 8.34 -7 7.68 -7 7 C-5.824375 6.6596875 -5.824375 6.6596875 -4.625 6.3125 C-1.78125 5.21875 -1.78125 5.21875 -0.6875 2.375 C-0.460625 1.59125 -0.23375 0.8075 0 0 Z " fill="#2B353B" transform="translate(310,201)"/>
<path d="M0 0 C-0.763125 0.5775 -1.52625 1.155 -2.3125 1.75 C-4.66200917 3.71703093 -6.29323505 5.48476744 -8 8 C-7.74438677 5.6568787 -7.40729228 3.32156597 -7 1 C-4.53721199 -0.231394 -2.7204945 -0.07159196 0 0 Z " fill="#303A40" transform="translate(306,196)"/>
<path d="M0 0 C3.1875 0.875 3.1875 0.875 6 2 C5.67 2.66 5.34 3.32 5 4 C4.360625 3.814375 3.72125 3.62875 3.0625 3.4375 C2.381875 3.293125 1.70125 3.14875 1 3 C0.67 3.33 0.34 3.66 0 4 C-1.99958364 4.04080783 -4.00045254 4.04254356 -6 4 C-4 2.66666667 -2 1.33333333 0 0 Z " fill="#907779" transform="translate(129,107)"/>
<path d="M0 0 C2.31 0.33 4.62 0.66 7 1 C7.33 1.99 7.66 2.98 8 4 C5.69 3.67 3.38 3.34 1 3 C0.67 2.01 0.34 1.02 0 0 Z " fill="#586065" transform="translate(345,206)"/>
</svg>