<svg xmlns="http://www.w3.org/2000/svg" version="1.1" viewBox="30 296.62 1291.66 121.85">
<path d="M0 0 C22.77 0 45.54 0 69 0 C69.7455625 3.7278125 70.1281059 6.55547703 70.1328125 10.265625 C70.13410156 11.23757813 70.13539062 12.20953125 70.13671875 13.2109375 C70.13285156 14.21382813 70.12898438 15.21671875 70.125 16.25 C70.12886719 17.26835937 70.13273437 18.28671875 70.13671875 19.3359375 C70.13542969 20.30273438 70.13414063 21.26953125 70.1328125 22.265625 C70.13168457 23.15024414 70.13055664 24.03486328 70.12939453 24.94628906 C70 27 70 27 69 28 C66.1883662 28.08861992 63.40141745 28.11522355 60.58984375 28.09765625 C59.74780899 28.0962413 58.90577423 28.09482635 58.03822327 28.09336853 C55.33794665 28.08775263 52.63775172 28.07519748 49.9375 28.0625 C48.11132932 28.05748705 46.28515734 28.05292379 44.45898438 28.04882812 C39.97262458 28.03777804 35.48632616 28.02050279 31 28 C31 33.28 31 38.56 31 44 C43.21 44 55.42 44 68 44 C68 53.24 68 62.48 68 72 C55.79 72 43.58 72 31 72 C31 77.61 31 83.22 31 89 C43.54 89 56.08 89 69 89 C69.73287817 92.66439084 70.39987636 96.31352622 71 100 C79.74631234 78.59249861 88.36408362 57.13481473 96.93066406 35.65478516 C100.60553234 26.44475229 104.28591963 17.23706759 108.0390625 8.05859375 C108.47187027 6.99343285 108.47187027 6.99343285 108.91342163 5.90675354 C110.88230221 1.11769779 110.88230221 1.11769779 112 0 C114.07262076 -0.08767112 116.14820294 -0.10695873 118.22265625 -0.09765625 C119.48271484 -0.09443359 120.74277344 -0.09121094 122.04101562 -0.08789062 C123.38151109 -0.07953403 124.72200588 -0.07106907 126.0625 -0.0625 C127.40689942 -0.0574866 128.7513006 -0.05292342 130.09570312 -0.04882812 C133.39717941 -0.03699488 136.69856803 -0.02050971 140 0 C140.51832397 1.29973755 140.51832397 1.29973755 141.04711914 2.62573242 C147.84356458 19.66336476 154.66617608 36.69002044 161.5625 53.6875 C161.98017136 54.71694229 161.98017136 54.71694229 162.40628052 55.7671814 C164.60248296 61.17881432 166.80144837 66.58932001 169 72 C173.29 82.56 177.58 93.12 182 104 C182.495 52.52 182.495 52.52 183 0 C243.29512557 0 243.29512557 0 260.86328125 16.52490234 C268.12977922 23.82348743 273.62155041 32.9358166 276 43 C276.18175781 43.69867188 276.36351562 44.39734375 276.55078125 45.1171875 C278.28728906 56.26103763 278.37839416 69.51838973 274 80 C273.5978125 80.9796875 273.195625 81.959375 272.78125 82.96875 C266.64231877 96.47439871 255.8191658 107.18594414 242.06791687 112.85588074 C231.07291664 116.95624984 220.32815932 117.41246418 208.76171875 117.29296875 C207.14362485 117.28735819 205.52552579 117.28309502 203.90742493 117.28010559 C199.69391256 117.2687715 195.48072137 117.23940616 191.26733398 117.20599365 C186.9497512 117.17504287 182.6321154 117.16154738 178.31445312 117.14648438 C169.87615637 117.11452272 161.43811838 117.06346903 153 117 C152.22241722 115.21125226 151.45336505 113.41879603 150.6875 111.625 C150.25824219 110.62726563 149.82898437 109.62953125 149.38671875 108.6015625 C147.67499171 104.15589396 146.36887352 99.56291173 145 95 C132.46 95.33 119.92 95.66 107 96 C104.36 102.93 101.72 109.86 99 117 C66.33 117 33.66 117 0 117 C0 78.39 0 39.78 0 0 Z M6 6 C6 40.65 6 75.3 6 111 C24.81 111 43.62 111 63 111 C63 105.72 63 100.44 63 95 C50.46 95 37.92 95 25 95 C25 85.76 25 76.52 25 67 C37.21 67 49.42 67 62 67 C62 61.39 62 55.78 62 50 C49.79 50 37.58 50 25 50 C25 40.76 25 31.52 25 22 C37.54 22 50.08 22 63 22 C63 16.72 63 11.44 63 6 C44.19 6 25.38 6 6 6 Z M116 6 C108.40168366 24.11401092 100.83751028 42.23674365 93.58789062 60.49365234 C90.73196663 67.68260271 87.84411207 74.85724739 84.921875 82.01953125 C84.57515747 82.87026718 84.22843994 83.72100311 83.87121582 84.59751892 C82.49084522 87.98417056 81.1104621 91.37079515 79.72314453 94.75460815 C78.76556395 97.09040493 77.8121128 99.42784965 76.859375 101.765625 C76.42440704 102.82116325 76.42440704 102.82116325 75.98065186 103.89802551 C74.49966407 107.33738861 74.49966407 107.33738861 74 111 C80.6 111 87.2 111 94 111 C97.31409263 103.58379293 97.31409263 103.58379293 100.25 96.0625 C100.58515625 95.14597656 100.9203125 94.22945313 101.265625 93.28515625 C102.1019855 91.08269475 102.1019855 91.08269475 102 89 C125.265 89.495 125.265 89.495 149 90 C151.31 96.27 153.62 102.54 156 109 C156.33 109.66 156.66 110.32 157 111 C163.6 111 170.2 111 177 111 C176.13332285 106.66661424 175.00799846 103.22480811 173.3671875 99.15625 C173.0987352 98.48726685 172.8302829 97.81828369 172.55369568 97.12902832 C171.66500222 94.91763309 170.77007227 92.70882024 169.875 90.5 C169.24600342 88.93893681 168.61734744 87.37773634 167.98901367 85.81640625 C166.33254405 81.70407269 164.67034923 77.59407998 163.00616455 73.48486328 C162.01872362 71.04624059 161.03237299 68.60717991 160.04638672 66.16796875 C156.59347551 57.62712567 153.13248645 49.08960179 149.66299438 40.55548096 C147.92328046 36.27549558 146.18749252 31.99395457 144.4561615 27.71057129 C143.66850563 25.76242205 142.87976654 23.81471556 142.09057617 21.8671875 C141.13704505 19.51377803 140.18528962 17.15964806 139.2355957 14.8046875 C138.61237427 13.26941406 138.61237427 13.26941406 137.9765625 11.703125 C137.61643066 10.81270508 137.25629883 9.92228516 136.88525391 9.00488281 C136.1630796 7.04266721 136.1630796 7.04266721 135 6 C133.58429877 5.91348389 132.164405 5.89295096 130.74609375 5.90234375 C129.46508789 5.90717773 129.46508789 5.90717773 128.15820312 5.91210938 C127.26037109 5.92048828 126.36253906 5.92886719 125.4375 5.9375 C124.53580078 5.94201172 123.63410156 5.94652344 122.70507812 5.95117188 C120.46998686 5.96299775 118.23502563 5.9794778 116 6 Z M189 6 C189 40.65 189 75.3 189 111 C225.94570997 112.60956112 225.94570997 112.60956112 256.3125 96.25 C267.18045984 84.69310451 271.64688077 71.76910388 271.47265625 56.02978516 C270.95356462 41.9776363 265.53647149 29.5371032 255.25390625 19.87890625 C235.12795388 3.10146589 215.5041247 6 189 6 Z " fill="#FFFFFF" transform="translate(1044,299)"/>
<path d="M0 0 C9.24 0 18.48 0 28 0 C36.36485149 20.03161805 44.49472925 40.14739812 52.52832031 60.31396484 C58.61207914 75.57440424 64.80107594 90.78445913 71 106 C71.33 71.02 71.66 36.04 72 0 C82.23 0 92.46 0 103 0 C103 14.52 103 29.04 103 44 C112.9 44 122.8 44 133 44 C133 29.48 133 14.96 133 0 C143.23 0 153.46 0 164 0 C164 38.61 164 77.22 164 117 C153.77 117 143.54 117 133 117 C133 102.15 133 87.3 133 72 C123.1 72 113.2 72 103 72 C103 86.85 103 101.7 103 117 C82.54 117 62.08 117 41 117 C36 105 36 105 33 95 C20.46 95.33 7.92 95.66 -5 96 C-7.64 102.93 -10.28 109.86 -13 117 C-24.22 117 -35.44 117 -47 117 C-45.21940653 111.65821958 -43.49411114 106.55744025 -41.375 101.3828125 C-41.11953903 100.75599075 -40.86407806 100.12916901 -40.60087585 99.48335266 C-40.03641464 98.09891713 -39.47070574 96.71498981 -38.90390015 95.33151245 C-37.26959901 91.34201668 -35.64494301 87.34859266 -34.01953125 83.35546875 C-33.64818558 82.44372391 -33.2768399 81.53197906 -32.89424133 80.59260559 C-29.26464187 71.67120707 -25.66839353 62.73649068 -22.07421875 53.80078125 C-21.46258772 52.28057361 -20.85094422 50.76037098 -20.23928833 49.24017334 C-17.7704577 43.10370439 -15.30180316 36.96716595 -12.83618164 30.82940674 C-11.36171004 27.15903705 -9.88566843 23.48930237 -8.40854836 19.81999779 C-7.85672313 18.4483186 -7.30550337 17.07639566 -6.75491905 15.70421791 C-5.99399196 13.80797278 -5.23081325 11.91263165 -4.4675293 10.01733398 C-3.82257759 8.41268532 -3.82257759 8.41268532 -3.16459656 6.77561951 C-2.20014659 4.47701565 -1.11478639 2.22957278 0 0 Z M4 6 C3.06800781 8.2996875 2.13601563 10.599375 1.17578125 12.96875 C0.22827444 15.30648126 -0.71927843 17.64419385 -1.6668396 19.98190308 C-2.34869333 21.66412155 -3.03051694 23.34635223 -3.71231079 25.02859497 C-7.29306188 33.86343708 -10.87492002 42.69781235 -14.46875 51.52734375 C-19.63469796 64.22029941 -24.78921793 76.91769766 -29.89004517 89.63699341 C-30.41468872 90.944898 -30.9398811 92.25258259 -31.46566772 93.56002808 C-32.19114924 95.3648179 -32.91398799 97.17066937 -33.63671875 98.9765625 C-34.25099731 100.50917725 -34.25099731 100.50917725 -34.87768555 102.07275391 C-36.00625886 105.0163245 -37.0030905 108.00927149 -38 111 C-31.07 111 -24.14 111 -17 111 C-15.845 107.926875 -14.69 104.85375 -13.5 101.6875 C-13.13455078 100.72287842 -12.76910156 99.75825684 -12.39257812 98.7644043 C-11.9662207 97.61838745 -11.9662207 97.61838745 -11.53125 96.44921875 C-11.09135742 95.27879028 -11.09135742 95.27879028 -10.64257812 94.0847168 C-9.85272117 91.88576681 -9.85272117 91.88576681 -10 89 C13.265 89.495 13.265 89.495 37 90 C39.64 96.93 42.28 103.86 45 111 C51.93 111 58.86 111 66 111 C60.4757338 96.39491569 54.77071159 81.89814995 48.75830078 67.48706055 C44.62755121 57.56707269 40.60693528 47.60559614 36.625 37.625 C36.33612915 36.90095978 36.0472583 36.17691956 35.74963379 35.43093872 C34.37000988 31.9716752 32.99173796 28.51187546 31.61425781 25.05175781 C29.08412085 18.69799341 26.54126374 12.34932057 24 6 C17.4 6 10.8 6 4 6 Z M78 6 C78 40.65 78 75.3 78 111 C84.27 111 90.54 111 97 111 C97 96.48 97 81.96 97 67 C110.86 67 124.72 67 139 67 C139 81.52 139 96.04 139 111 C145.27 111 151.54 111 158 111 C158 76.35 158 41.7 158 6 C151.73 6 145.46 6 139 6 C139 20.52 139 35.04 139 50 C125.14 50 111.28 50 97 50 C97 35.48 97 20.96 97 6 C90.73 6 84.46 6 78 6 Z " fill="#FFFFFF" transform="translate(870,299)"/>
<path d="M0 0 C12.49807732 10.50842977 19.69246207 24.01454749 22.27734375 40 C22.49648438 39.05640625 22.715625 38.1128125 22.94140625 37.140625 C27.02949395 20.25985183 34.60489504 6.32976553 49.19140625 -3.76171875 C63.80450532 -12.43653599 80.07149615 -14.35970106 96.52734375 -10.4375 C109.03575902 -7.11807551 117.67264158 -0.461365 126.27734375 9 C124.89166162 12.0910713 123.26958771 14.29834957 120.94140625 16.75 C120.28914062 17.4409375 119.636875 18.131875 118.96484375 18.84375 C118.28421875 19.5553125 117.60359375 20.266875 116.90234375 21 C116.22945312 21.7115625 115.5565625 22.423125 114.86328125 23.15625 C111.71133553 26.48192501 108.54268174 29.78489798 105.27734375 33 C104.78105469 32.32453125 104.28476562 31.6490625 103.7734375 30.953125 C98.76706941 24.3792982 94.63277834 19.71473471 86.27734375 18 C79.40832852 17.28739808 73.92804785 17.85301758 68.27734375 22 C61.24800246 28.1093457 57.85363776 35.44500106 56.8984375 44.65234375 C56.57536549 54.91769634 58.04624147 63.42913003 64.65234375 71.5 C69.49337229 76.56908556 74.64375675 78.72049331 81.52734375 79.25 C88.01288966 78.81763027 93.68026686 76.72477347 98.27734375 72 C99.59734375 69.36 100.91734375 66.72 102.27734375 64 C93.69734375 64 85.11734375 64 76.27734375 64 C76.27734375 55.75 76.27734375 47.5 76.27734375 39 C95.41734375 39 114.55734375 39 134.27734375 39 C134.27734375 77.71794872 134.27734375 77.71794872 121.83984375 91.75 C120.99421875 92.4925 120.14859375 93.235 119.27734375 94 C118.80039062 94.46792969 118.3234375 94.93585938 117.83203125 95.41796875 C107.04394522 105.55460031 92.71576665 109.5159453 78.20898438 109.3515625 C61.06996592 108.76112741 47.79534539 101.18571188 36.27734375 89 C28.37692351 79.82625195 24.47397932 68.7819544 22.27734375 57 C22.05820312 58.02738281 21.8390625 59.05476563 21.61328125 60.11328125 C18.50874247 73.97049326 13.42924368 83.83071668 3.27734375 94 C2.62765625 94.66128906 1.97796875 95.32257813 1.30859375 96.00390625 C-9.32264093 106.090508 -24.22656436 109.56052663 -38.5625 109.41723633 C-55.69346978 108.76827392 -69.73379794 102.13191198 -81.5703125 89.56640625 C-92.84461804 76.12317804 -96.61833886 59.53872752 -95.44897461 42.30932617 C-93.9131798 25.26565587 -86.00543063 11.45488717 -73.28564453 0.29833984 C-52.21358899 -17.20575128 -21.50084985 -15.79402456 0 0 Z M-74.72265625 10 C-85.95961078 23.2495434 -90.67550691 37.78773042 -89.45141602 55.06396484 C-88.19538146 68.28321375 -82.22061776 81.56542522 -72.0234375 90.31640625 C-58.15229257 100.74243022 -46.15996462 104.14671235 -28.72265625 103 C-14.57929706 100.97221718 -3.03470724 93.9525266 5.46484375 82.625 C14.96289973 68.98300454 18.25031811 54.44910853 15.80859375 37.8046875 C12.30870122 21.84684418 3.42325296 9.93939615 -9.87890625 0.69140625 C-30.61708937 -11.64325487 -58.27121246 -7.53022699 -74.72265625 10 Z M49.27734375 4 C48.66503906 4.45117188 48.05273438 4.90234375 47.421875 5.3671875 C36.59898792 13.82480787 30.31935911 27.32676202 28.49609375 40.73828125 C27.33091361 58.1119494 31.32764494 73.09705744 42.4609375 86.66015625 C50.95609815 95.90858237 62.54062771 102.2951975 75.19140625 103.2109375 C89.60563734 103.65815708 104.89509195 99.92416998 115.69140625 89.8125 C119.13171139 85.88072269 121.77716239 81.57335155 124.27734375 77 C124.93476563 75.80310547 124.93476563 75.80310547 125.60546875 74.58203125 C130.07742739 64.67758764 128.27734375 56.67359242 128.27734375 45 C113.09734375 45 97.91734375 45 82.27734375 45 C82.27734375 49.29 82.27734375 53.58 82.27734375 58 C90.85734375 58 99.43734375 58 108.27734375 58 C105.47817257 74.7950271 105.47817257 74.7950271 98.9375 79.78515625 C94.5200776 82.59503546 90.5949753 84.77371781 85.27734375 85 C84.61347656 85.06058594 83.94960938 85.12117188 83.265625 85.18359375 C75.5027066 85.63067282 68.65899755 83.12905757 62.52734375 78.375 C55.65336315 71.95603467 51.45211946 63.1780728 50.94140625 53.80078125 C50.69150415 41.45452512 51.95049106 30.77267021 60.21484375 20.9765625 C67.0910692 14.38684644 74.41091232 11.64419103 83.80859375 11.78515625 C91.40905123 12.44658847 96.74341045 14.88111169 102.27734375 20 C102.93734375 20 103.59734375 20 104.27734375 20 C104.77234375 21.485 104.77234375 21.485 105.27734375 23 C108.65931603 21.87267591 109.51792189 20.85817627 111.77734375 18.1875 C112.36515625 17.50042969 112.95296875 16.81335938 113.55859375 16.10546875 C115.18883799 14.10841956 116.74794697 12.0749438 118.27734375 10 C109.16248952 0.0030631 97.35263907 -5.28866549 83.90234375 -6.23828125 C70.93363977 -6.50380428 59.61431913 -4.24472185 49.27734375 4 Z " fill="#FFFFFF" transform="translate(305.72265625,309)"/>
<path d="M0 0 C60.46987952 0 60.46987952 0 71 10 C71.82951172 10.78697266 71.82951172 10.78697266 72.67578125 11.58984375 C80.09475373 19.41382218 81.57777771 27.94338749 81.47705078 38.37719727 C81.2479798 44.542054 80.09183852 49.60001814 77 55 C76.4225 56.051875 75.845 57.10375 75.25 58.1875 C71.48926837 62.88841454 66.99971317 66.66685788 62 70 C66.91256707 76.07868147 71.89815364 82.08000212 77 88 C83.1875777 95.18392426 89.30921165 102.4122822 95 110 C95.33 73.7 95.66 37.4 96 0 C118.77 0 141.54 0 165 0 C165 9.24 165 18.48 165 28 C152.46 28 139.92 28 127 28 C127 33.28 127 38.56 127 44 C139.21 44 151.42 44 164 44 C164 53.24 164 62.48 164 72 C151.79 72 139.58 72 127 72 C127 77.61 127 83.22 127 89 C139.54 89 152.08 89 165 89 C165 98.24 165 107.48 165 117 C151.48250465 117.27153351 137.96683131 117.49149626 124.44722176 117.62174606 C118.16885887 117.68427275 111.89246435 117.76901873 105.61523438 117.90527344 C99.55258859 118.03604086 93.49183074 118.10748727 87.42788315 118.13852692 C85.11924393 118.16063377 82.81070368 118.20380797 80.50287247 118.26876068 C61.46355163 118.78310856 61.46355163 118.78310856 56.41650391 114.40301514 C53.78123277 111.55504909 51.88556025 108.38765975 50 105 C48.89400025 103.51807907 47.76914764 102.04960155 46.609375 100.609375 C45.6528306 99.32545712 44.69957169 98.03908336 43.75 96.75 C43.27304687 96.10804688 42.79609375 95.46609375 42.3046875 94.8046875 C40.86806599 92.8710726 39.43402471 90.93554155 38 89 C36.02 86.36 34.04 83.72 32 81 C31.67 92.88 31.34 104.76 31 117 C20.77 117 10.54 117 0 117 C0 78.39 0 39.78 0 0 Z M6 6 C6 40.65 6 75.3 6 111 C12.27 111 18.54 111 25 111 C25 95.16 25 79.32 25 63 C25.66 63 26.32 63 27 63 C27.36351562 63.81597656 27.36351562 63.81597656 27.734375 64.6484375 C29.303308 67.56355375 31.21233252 70.01381684 33.25 72.625 C33.68183594 73.18058594 34.11367188 73.73617187 34.55859375 74.30859375 C35.51476685 75.53795916 36.47253183 76.76608761 37.43164062 77.99316406 C39.69270025 80.88636302 41.94656489 83.78510037 44.19580078 86.6875 C45.40278287 88.23452765 46.62002775 89.77360057 47.84716797 91.3046875 C50.60903421 94.77242174 53.16866083 98.13019155 55.2734375 102.0390625 C58.26999961 107.34417323 58.26999961 107.34417323 63 111 C70.89459763 112.53072738 79.05121998 111.80209208 87 111 C83.24757176 105.88515675 79.35820634 100.96604625 75.1875 96.1875 C66.73493797 86.40280476 58.67868291 76.40162011 51 66 C52.11761719 65.80277344 52.11761719 65.80277344 53.2578125 65.6015625 C60.6108254 63.98850839 66.44853907 59.95722861 71 54 C75.97685747 46.05758145 75.92344011 37.03851988 75 28 C73.2861494 21.39205195 69.63153361 15.3303959 63.80859375 11.59375 C46.09789743 2.05935323 25.51061277 6 6 6 Z M102 6 C102 40.65 102 75.3 102 111 C120.81 111 139.62 111 159 111 C159 105.72 159 100.44 159 95 C146.46 95 133.92 95 121 95 C121 85.76 121 76.52 121 67 C133.21 67 145.42 67 158 67 C158 61.39 158 55.78 158 50 C145.79 50 133.58 50 121 50 C121 40.76 121 31.52 121 22 C133.54 22 146.08 22 159 22 C159 16.72 159 11.44 159 6 C140.19 6 121.38 6 102 6 Z " fill="#FFFFFF" transform="translate(445,299)"/>
<path d="M0 0 C0.6923877 0.34417969 1.38477539 0.68835938 2.09814453 1.04296875 C6.92756336 3.59519009 6.92756336 3.59519009 8.0625 7 C7.10620117 9.43603516 7.10620117 9.43603516 5.60546875 12.2890625 C5.06986328 13.31257813 4.53425781 14.33609375 3.98242188 15.390625 C3.41072266 16.45796875 2.83902344 17.5253125 2.25 18.625 C1.68990234 19.70007813 1.12980469 20.77515625 0.55273438 21.8828125 C-3.66427365 29.86338682 -3.66427365 29.86338682 -5.9375 31 C-7.53125 30.109375 -7.53125 30.109375 -9.4375 28.75 C-16.42283039 24.21521951 -24.57205491 21.74681075 -32.9375 23 C-35.16249233 23.69545595 -35.16249233 23.69545595 -36.9375 25 C-37.75620185 28.56206661 -37.75620185 28.56206661 -37.9375 32 C-34.78859893 33.59792898 -31.60001575 35.09339097 -28.39453125 36.57421875 C-26.17965209 37.61190359 -23.96480973 38.64966697 -21.75 39.6875 C-20.65107422 40.19216797 -19.55214844 40.69683594 -18.41992188 41.21679688 C-7.64377008 46.29964486 3.76082404 53.30436376 9 64.5625 C11.91104378 73.72957577 11.14002002 85.30641957 7.0625 94 C1.10168136 104.34322735 -8.09631089 109.35365768 -19.234375 112.6875 C-38.01962484 117.22621808 -56.66529808 112.78991953 -72.9375 103 C-75.31884703 101.38873462 -77.62599152 99.71200757 -79.9375 98 C-78.40210761 93.81900841 -76.35533375 90.02805135 -74.125 86.1875 C-73.77115234 85.57310059 -73.41730469 84.95870117 -73.05273438 84.32568359 C-70.44540452 79.81984716 -67.74395501 75.38508596 -64.9375 71 C-61.91627326 72.45184809 -59.09581007 74.10610678 -56.25 75.875 C-48.84349573 80.31673057 -41.80015691 84.19990955 -32.9375 84 C-30.00063726 83.25243494 -27.62850466 82.34550233 -24.9375 81 C-23.97781042 77.77195325 -23.44289213 75.09597344 -24.9375 72 C-26.59029992 71.29966105 -28.26128718 70.64228716 -29.9375 70 C-62.00445673 55.11752832 -62.00445673 55.11752832 -67.9375 40 C-70.36850107 32.70699678 -70.00456668 22.26903892 -67.09375 15.11328125 C-61.82742648 5.48800751 -54.27070387 -1.34372952 -43.91796875 -5.09375 C-28.97813978 -9.2362443 -13.73607824 -6.82923664 0 0 Z M-57.9375 12 C-63.40687767 19.38237597 -64.09316143 27.0222228 -62.9375 36 C-61.31640726 41.50999075 -58.26097237 45.25299061 -53.9375 49 C-53.11958984 49.76376953 -53.11958984 49.76376953 -52.28515625 50.54296875 C-46.43064014 55.60915397 -39.79629472 58.62924004 -32.76513672 61.71582031 C-21.75184195 66.6369876 -21.75184195 66.6369876 -18.84375 72.02734375 C-17.86919153 76.60964269 -17.80719551 79.63794795 -19.9375 84 C-22.50808011 87.27164742 -25.54837387 88.72910004 -29.6015625 89.51953125 C-40.7094004 90.61859173 -48.01831294 87.8830698 -57.4921875 82.20703125 C-60.08080647 80.70491739 -60.08080647 80.70491739 -63.9375 81 C-66.5775 85.62 -69.2175 90.24 -71.9375 95 C-61.90527963 105.03222037 -47.16717298 107.99807825 -33.375 108.4375 C-21.56628344 108.16744619 -10.6149307 104.6774307 -2.1875 96.25 C3.7186801 87.71885096 5.24835966 80.43803556 4.0625 70 C1.75801111 61.17092696 -5.8767009 55.0360081 -13.375 50.5 C-19.11973133 47.29789848 -25.05515322 44.51115717 -31.06225586 41.83984375 C-35.94482244 39.6315389 -40.48123137 37.44917906 -43.3125 32.6875 C-44.16780472 29.00968968 -43.97752166 26.64007581 -42.9375 23 C-39.57353752 18.96324503 -35.88786801 17.32603704 -30.78125 16.76171875 C-24.50623037 16.56300979 -19.4779512 17.86439857 -13.6015625 20.02734375 C-11.38385389 20.83703502 -9.23694721 21.48235193 -6.9375 22 C-5.76573482 19.87767021 -4.59995215 17.75242209 -3.4375 15.625 C-3.10363281 15.02171875 -2.76976562 14.4184375 -2.42578125 13.796875 C-0.54976062 10.58585223 -0.54976062 10.58585223 0.0625 7 C-19.5061656 -2.92158797 -42.16367252 -6.2525718 -57.9375 12 Z " fill="#FFFFFF" transform="translate(692.9375,304)"/>
<path d="M0 0 C0.94875 0.7425 1.8975 1.485 2.875 2.25 C2.27845974 6.03995975 1.17432513 8.95356326 -0.62890625 12.33203125 C-1.12197266 13.26337891 -1.61503906 14.19472656 -2.12304688 15.15429688 C-2.89745117 16.59385742 -2.89745117 16.59385742 -3.6875 18.0625 C-4.20763672 19.04154297 -4.72777344 20.02058594 -5.26367188 21.02929688 C-6.54509168 23.4393066 -7.83234711 25.84600219 -9.125 28.25 C-9.72497803 27.94586182 -10.32495605 27.64172363 -10.94311523 27.32836914 C-13.64516464 25.99291516 -16.40389772 24.84302263 -19.1875 23.6875 C-20.23035156 23.25308594 -21.27320313 22.81867188 -22.34765625 22.37109375 C-26.09088952 20.86011211 -29.04117534 20.07256526 -33.0625 20 C-34.34447266 19.96132813 -34.34447266 19.96132813 -35.65234375 19.921875 C-38.6980754 20.32604792 -40.02500137 21.00870215 -42.125 23.25 C-42.73958965 25.75806936 -42.73958965 25.75806936 -42.125 28.25 C-37.73623043 33.24190457 -30.30321507 35.51711561 -24.3125 38.0625 C-11.96696051 43.3636033 -0.61622224 50.3572619 4.73828125 63.34375 C7.55402112 72.99771528 5.90157042 83.02571382 1.5625 91.94921875 C0.38227037 94.08503204 -0.83232008 96.18069025 -2.125 98.25 C-2.785 98.25 -3.445 98.25 -4.125 98.25 C-4.125 98.91 -4.125 99.57 -4.125 100.25 C-15.63530497 110.15081318 -31.31116711 112.55189847 -46.01806641 111.47314453 C-60.12302503 109.97929376 -73.43200073 104.61038825 -84.125 95.25 C-83.55374343 90.77929643 -81.83635873 87.78334291 -79.4375 84 C-79.08171875 83.43514893 -78.7259375 82.87029785 -78.359375 82.28833008 C-75.36344479 77.55484088 -72.28180782 72.87759329 -69.125 68.25 C-66.63945453 69.73602007 -64.15947084 71.22871897 -61.6953125 72.75 C-53.68102132 77.66611472 -45.79545334 82.31251061 -36.06640625 80.96484375 C-32.39063908 80.05545437 -31.27714952 79.47822427 -29.125 76.25 C-28.66666182 73.74204253 -28.66666182 73.74204253 -29.125 71.25 C-33.43927859 66.5881823 -40.41064452 64.07662813 -46.0625 61.3125 C-57.60756181 55.64908687 -68.30369347 49.39608772 -73.0625 36.75 C-75.60542999 27.6049288 -74.43646259 17.31585671 -69.87109375 8.953125 C-63.49698683 -0.00883459 -55.01984534 -6.55995691 -44.25 -9 C-29.4010893 -11.50110635 -12.45031584 -8.7797048 0 0 Z M-61.03515625 7.546875 C-66.70655261 15.23295631 -69.47488404 22.6428466 -68.125 32.25 C-64.69046497 43.2705226 -56.46701902 49.24380886 -46.6875 54.4375 C-43.19234981 56.2516867 -39.66712022 57.99124482 -36.11328125 59.6875 C-30.674624 62.2889504 -25.93705298 64.62589405 -23.125 70.25 C-22.78055453 75.50279338 -22.54758249 79.07634624 -26.125 83.25 C-32.5044137 87.13312138 -39.0052195 88.21884735 -46.375 86.82421875 C-52.7833108 85.15025295 -58.05374634 82.1629066 -63.65625 78.67578125 C-65.93850398 77.08329407 -65.93850398 77.08329407 -68.125 77.25 C-69.7567293 79.72410219 -71.27200164 82.18659659 -72.75 84.75 C-73.17023437 85.46542969 -73.59046875 86.18085938 -74.0234375 86.91796875 C-75.06388589 88.69146033 -76.09528904 90.47025266 -77.125 92.25 C-67.9907464 101.87886389 -52.80839165 105.10374315 -40.10717773 105.65014648 C-28.35354522 105.86486956 -17.14819572 103.08394608 -8.125 95.25 C-2.45687015 89.45369635 -0.06702218 81.61947233 0.25 73.625 C-0.1106963 65.71742723 -3.1912125 60.19733263 -8.58203125 54.47265625 C-13.53282736 50.14546272 -19.29764442 47.20892346 -25.125 44.25 C-25.82383301 43.89486328 -26.52266602 43.53972656 -27.24267578 43.17382812 C-30.0569028 41.75118216 -32.87364315 40.33508166 -35.70703125 38.95092773 C-45.52208864 34.15436704 -45.52208864 34.15436704 -48.125 30.25 C-48.46043441 26.09061328 -48.53233724 23.32824565 -47.0625 19.4375 C-43.8852871 15.85032415 -40.51616402 14.59459657 -35.90234375 13.9296875 C-28.50463097 13.56882346 -22.05377885 15.91224128 -15.125 18.25 C-13.79613749 18.60073256 -12.46455332 18.94261458 -11.125 19.25 C-10.08955826 17.34118566 -9.07209915 15.42260796 -8.0625 13.5 C-7.49402344 12.43265625 -6.92554688 11.3653125 -6.33984375 10.265625 C-4.99959692 7.44737504 -4.99959692 7.44737504 -5.0703125 5.0234375 C-7.94367067 0.19193894 -16.66771622 -1.0474042 -21.7890625 -2.51171875 C-35.85928167 -5.74282771 -51.3302684 -4.1228061 -61.03515625 7.546875 Z " fill="#FFFFFF" transform="translate(788.125,306.75)"/>
<path d="M0 0 C61.10663777 0 61.10663777 0 73.94921875 11.828125 C80.90612751 19.19582266 82.48873412 29.35500761 82.2421875 39.17578125 C81.44466166 48.47596165 78.34640194 56.09155509 72 63 C68.81122288 65.59378663 65.51115942 67.86645846 62 70 C62.54527344 70.59425781 63.09054688 71.18851562 63.65234375 71.80078125 C68.47587592 77.10254396 73.10753026 82.51174034 77.6171875 88.08203125 C80.20756904 91.254187 82.84726175 94.38005208 85.5 97.5 C87.33520038 99.66509143 89.16837309 101.83188476 91 104 C91.45036621 104.53286621 91.90073242 105.06573242 92.36474609 105.61474609 C93.64456474 107.13432586 94.91622152 108.66076838 96.1875 110.1875 C96.92355469 111.06792969 97.65960938 111.94835937 98.41796875 112.85546875 C100 115 100 115 100 117 C62.16126241 119.94553047 62.16126241 119.94553047 54.87109375 113.7421875 C51.98672263 110.29366912 50.03183284 106.44322546 48.18652344 102.36132812 C46.17018413 98.34856397 43.26716608 95.09429398 40.375 91.6875 C37.51943239 88.16965824 34.71921267 84.62561689 32 81 C31.67 92.88 31.34 104.76 31 117 C20.77 117 10.54 117 0 117 C0 78.39 0 39.78 0 0 Z M6 6 C6 40.65 6 75.3 6 111 C12.27 111 18.54 111 25 111 C25 95.16 25 79.32 25 63 C30.63263666 68.63263666 30.63263666 68.63263666 32.69140625 71.20703125 C33.15506592 71.78541748 33.61872559 72.36380371 34.09643555 72.9597168 C34.58023682 73.57113525 35.06403809 74.18255371 35.5625 74.8125 C36.07917236 75.4619458 36.59584473 76.1113916 37.12817383 76.78051758 C40.3614165 80.86669856 43.53945152 84.99160586 46.66479492 89.16088867 C47.67956811 90.51147905 48.70320641 91.85545406 49.7355957 93.19262695 C52.08049983 96.25915666 54.18921457 99.21424602 55.91015625 102.67578125 C58.02228439 106.49196182 59.3432828 108.57118415 63 111 C70.89774009 112.44134816 79.05259801 111.73456257 87 111 C85.11712299 106.9745575 82.47642773 103.87929598 79.5625 100.5625 C78.47359025 99.30761097 77.3850569 98.05239524 76.296875 96.796875 C75.74580078 96.16330078 75.19472656 95.52972656 74.62695312 94.87695312 C54.09503546 71.19007092 54.09503546 71.19007092 52 67 C52.92941406 66.59910156 53.85882813 66.19820312 54.81640625 65.78515625 C63.73163032 61.7616842 70.02104506 57.85375502 74.078125 48.51953125 C76.91406439 40.20507258 77.05504204 31.29436535 74 23 C70.4305756 16.39353992 65.50096225 12.5838638 59 9 C42.43224573 4.34267323 42.43224573 4.34267323 6 6 Z " fill="#FFFFFF" transform="translate(119,299)"/>
<path d="M0 0 C62.9156612 0 62.9156612 0 74.25 10.8125 C82.26988607 19.35131988 84.5115926 28.62765256 84.25 40.203125 C83.19822525 51.96985498 78.35364848 60.66716648 69.48046875 68.30859375 C58.49689075 76.97713189 44.29977484 76 31 76 C31 89.53 31 103.06 31 117 C20.77 117 10.54 117 0 117 C0 78.39 0 39.78 0 0 Z M6 6 C6 40.65 6 75.3 6 111 C12.27 111 18.54 111 25 111 C25 97.47 25 83.94 25 70 C28.3825 70.061875 31.765 70.12375 35.25 70.1875 C43.53153113 70.23483344 51.18233454 70.03538516 59 67 C59.80308594 66.69449219 60.60617188 66.38898438 61.43359375 66.07421875 C68.82228615 62.64775937 73.9493376 56.14792843 76.94140625 48.63671875 C77.50986286 46.39866928 77.81959865 44.30111948 78 42 C78.06832031 41.19820313 78.13664062 40.39640625 78.20703125 39.5703125 C78.57493128 30.82246743 76.53210417 22.66817151 70.91796875 15.8203125 C54.3607327 0.10611291 25.18893177 6 6 6 Z " fill="#FFFFFF" transform="translate(30,299)"/>
<path d="M0 0 C10.06929608 6.44072091 14.85145591 14.72182633 17.421875 26.171875 C18.64072316 37.62904773 16.92545366 48.26074266 10.734375 58.109375 C8.234375 60.984375 8.234375 60.984375 5.734375 63.109375 C4.5278125 64.1921875 4.5278125 64.1921875 3.296875 65.296875 C-4.39850516 70.73994877 -15.01041489 70.01449853 -23.9921875 68.71484375 C-30.90583827 66.82152949 -36.67873037 61.95317889 -40.6484375 56.0546875 C-46.32467648 45.24881034 -47.24501132 31.42015583 -44.203125 19.609375 C-41.14180328 11.28775399 -35.90711662 4.55533376 -28.265625 0.109375 C-20.2558443 -3.14280282 -8.00143055 -3.75288335 0 0 Z M-30.51171875 9.33984375 C-37.32587714 16.21470734 -39.54610189 24.29363643 -39.640625 33.859375 C-39.59253184 42.70749285 -38.1427613 50.40393567 -31.953125 57.109375 C-26.62016989 61.85230103 -20.41219575 64.12218247 -13.265625 64.109375 C-5.54407429 63.24748937 -0.10042508 61.60347949 4.859375 55.421875 C11.08537701 46.60303925 12.88519807 36.52821424 11.046875 25.859375 C9.24035435 18.30593629 5.75748421 11.40100981 -0.328125 6.421875 C-10.7293542 1.77451727 -21.57005268 1.91555132 -30.51171875 9.33984375 Z " fill="#FFFFFF" transform="translate(283.265625,323.890625)"/>
<path d="M0 0 C20.17391304 0 20.17391304 0 28 6 C28 6.66 28 7.32 28 8 C28.59683594 8.24621094 29.19367188 8.49242187 29.80859375 8.74609375 C35.38858979 11.93892571 38.76795557 19.41827729 40.53125 25.421875 C42.55612601 36.55869306 41.23328572 47.13514782 35.25 56.75 C29.45343095 64.78583045 23.58898944 68.375645 14 71 C9.38 71 4.76 71 0 71 C0 47.57 0 24.14 0 0 Z M6 6 C6 25.8 6 45.6 6 66 C16.492141 64.092338 23.17378768 62.28267784 29.6796875 54.0703125 C34.86390337 45.94121662 36.51616202 36.92635166 34.45703125 27.51953125 C32.06384101 19.62597007 27.79107388 13.67921554 21 9 C15.63909233 6.18235758 12.32269321 6 6 6 Z " fill="#FFFFFF" transform="translate(1253,322)"/>
<path d="M0 0 C21.421875 0 21.421875 0 29.72265625 7.5 C32.3620906 10.59951924 32.19187484 13.99030163 32.25 17.875 C32.27578125 18.90367187 32.3015625 19.93234375 32.328125 20.9921875 C31.80671377 25.77179045 29.67307599 28.31089839 26.375 31.6875 C18.7947794 37.56679305 9.14120606 36 0 36 C0 24.12 0 12.24 0 0 Z M6 6 C6 13.92 6 21.84 6 30 C12.62301447 30.23733281 12.62301447 30.23733281 18.3125 28.6875 C19.26576172 28.32205078 19.26576172 28.32205078 20.23828125 27.94921875 C22.97411766 26.47514281 24.61484685 24.77030631 26 22 C26.5291425 15.60256368 26.5291425 15.60256368 24 10 C17.41986728 6.13774819 13.84232373 6 6 6 Z " fill="#FFFFFF" transform="translate(55,319)"/>
<path d="M0 0 C2.64575195 1.0246582 2.64575195 1.0246582 4.40673828 4.19580078 C4.95155507 5.59555338 5.47385815 7.00420104 5.9777832 8.41918945 C6.25925705 9.16295334 6.5407309 9.90671722 6.83073425 10.67301941 C7.42231725 12.24740899 8.00422698 13.82546222 8.57714844 15.40673828 C9.4537359 17.8247012 10.35831625 20.2306081 11.26879883 22.63598633 C11.84013269 24.16726442 12.4098485 25.6991474 12.9777832 27.23168945 C13.38079399 28.3115789 13.38079399 28.3115789 13.79194641 29.4132843 C15.03323144 32.8563826 15.64575195 35.31575768 15.64575195 39.0246582 C4.75575195 39.0246582 -6.13424805 39.0246582 -17.35424805 39.0246582 C-15.58641534 33.13188251 -13.92030007 27.62198937 -11.69018555 21.95825195 C-10.96702148 20.1184375 -10.96702148 20.1184375 -10.22924805 18.24145508 C-9.98303711 17.62133545 -9.73682617 17.00121582 -9.4831543 16.36230469 C-8.71886893 14.43599866 -7.96194941 12.50690908 -7.20581055 10.57739258 C-3.04354905 0.03187789 -3.04354905 0.03187789 0 0 Z M-1.35424805 13.0246582 C-2.52639295 15.98085039 -3.6910228 18.9399461 -4.85424805 21.8996582 C-5.35504883 23.16229492 -5.35504883 23.16229492 -5.8659668 24.45043945 C-6.18178711 25.25610352 -6.49760742 26.06176758 -6.82299805 26.8918457 C-7.11625977 27.63547363 -7.40952148 28.37910156 -7.71166992 29.14526367 C-8.46208795 31.00903033 -8.46208795 31.00903033 -8.35424805 33.0246582 C-3.07424805 33.0246582 2.20575195 33.0246582 7.64575195 33.0246582 C5.44332667 26.30726109 3.08842551 19.65831483 0.64575195 13.0246582 C-0.01424805 13.0246582 -0.67424805 13.0246582 -1.35424805 13.0246582 Z " fill="#FFFFFF" transform="translate(884.354248046875,332.975341796875)"/>
<path d="M0 0 C1.65 0 3.3 0 5 0 C8.90272154 9.65990665 12.7946536 19.32482223 16.5 29.0625 C16.75475098 29.72185547 17.00950195 30.38121094 17.27197266 31.06054688 C18.33048674 33.87039366 19 35.96750757 19 39 C8.11 39 -2.78 39 -14 39 C-12.21724957 33.05749856 -10.50118581 27.42662648 -8.30078125 21.6796875 C-8.0608696 21.05015167 -7.82095795 20.42061584 -7.57377625 19.77200317 C-6.8233295 17.80505002 -6.06802919 15.8400057 -5.3125 13.875 C-4.79589779 12.52356214 -4.27961945 11.17200042 -3.76367188 9.8203125 C-2.51283904 6.54544107 -1.257653 3.2722593 0 0 Z M2 12 C0.82504857 14.93425371 -0.33850852 17.87289513 -1.5 20.8125 C-1.83386719 21.64587891 -2.16773438 22.47925781 -2.51171875 23.33789062 C-2.82753906 24.14033203 -3.14335938 24.94277344 -3.46875 25.76953125 C-3.90864258 26.87711792 -3.90864258 26.87711792 -4.35742188 28.00708008 C-5.15343666 30.12688312 -5.15343666 30.12688312 -5 33 C0.28 33 5.56 33 11 33 C10.07123493 30.24676762 9.13243408 27.49768065 8.1875 24.75 C7.92646484 23.97269531 7.66542969 23.19539063 7.39648438 22.39453125 C6.03836918 18.47108736 4.81763632 15.14762977 2 12 Z " fill="#FFFFFF" transform="translate(1167,333)"/>
<path d="M0 0 C20 0 20 0 27 6 C30.79989803 11.19319398 30.75439278 16.81573358 30 23 C29.00471885 26.98775982 27.51790163 29.74808581 24.328125 32.37890625 C16.51608062 36.72397745 9.22018488 35 0 35 C0 23.45 0 11.9 0 0 Z M6 6 C6 13.59 6 21.18 6 29 C15.0163644 29.47183273 15.0163644 29.47183273 22 26 C24.58772701 21.8150208 24.6667676 17.78704947 24 13 C22.46209424 9.98826789 21.32469309 8.53551423 18.1640625 7.2578125 C13.89696341 6.06433268 10.568518 6 6 6 Z " fill="#FFFFFF" transform="translate(144,319)"/>
<path d="M0 0 C18.97985693 0 18.97985693 0 24.5 4.4375 C29.52543877 9.58857474 30.06692469 14.00158919 30 21 C29.1905471 25.40459055 27.7940956 28.2059044 24.625 31.375 C15.89637017 36.77843751 12.08626176 35 0 35 C0 23.45 0 11.9 0 0 Z M6 6 C6 13.59 6 21.18 6 29 C14.67267372 29.41127748 14.67267372 29.41127748 21.578125 25.6953125 C24.17313148 22.60126631 24.08023211 18.91131523 24 15 C23.34936214 11.531783 23.34936214 11.531783 21 9 C15.89874413 6.36451752 11.77880548 6 6 6 Z " fill="#FFFFFF" transform="translate(470,319)"/>
</svg>