<svg xmlns="http://www.w3.org/2000/svg" version="1.1" viewBox="54 293.49 1236 121.92">
<path d="M0 0 C9.24 0 18.48 0 28 0 C33.61866959 12.36107309 33.61866959 12.36107309 35.4453125 16.984375 C35.87303955 18.06114502 36.3007666 19.13791504 36.74145508 20.24731445 C37.42630981 21.9811438 37.42630981 21.9811438 38.125 23.75 C39.17138732 26.38482778 40.22035049 29.01862724 41.26953125 31.65234375 C41.55384506 32.36653976 41.83815887 33.08073578 42.13108826 33.8165741 C45.90716065 43.29215196 49.73225301 52.74799037 53.55584717 62.20446777 C54.38284112 64.24984083 55.20954972 66.29532928 56.03594971 68.34094238 C57.21735635 71.26530661 58.39956768 74.18934425 59.58203125 77.11328125 C59.9234465 77.95846817 60.26486176 78.80365509 60.61662292 79.67445374 C64.03979398 88.13237969 67.52564471 96.56228001 71 105 C71.33 70.35 71.66 35.7 72 0 C81.9 0 91.8 0 102 0 C108.68607781 6.8253711 108.68607781 6.8253711 109.953125 10.28515625 C112.2335117 15.81568172 115.46638983 20.58241765 118.75 25.5625 C119.81121246 27.22797697 120.86833082 28.89606794 121.921875 30.56640625 C127.93492838 40.05251632 133.97016649 49.52454734 140 59 C140.495 29.795 140.495 29.795 141 0 C151.56 0 162.12 0 173 0 C173.33 34.32 173.66 68.64 174 104 C181.68796323 85.32923216 189.35403855 66.68017393 196.83203125 47.9296875 C200.23897123 39.38972761 203.66567723 30.8577693 207.10842896 22.33218384 C207.78209898 20.66241814 208.45453872 18.99215551 209.1257019 17.32138062 C210.06235371 14.99028401 211.00329113 12.66096217 211.9453125 10.33203125 C212.2249736 9.6334903 212.5046347 8.93494934 212.79277039 8.21524048 C214.00033993 5.2417865 215.21173872 2.68239192 217 0 C219.70556641 -0.34057617 219.70556641 -0.34057617 223.1015625 -0.29296875 C224.31328125 -0.28330078 225.525 -0.27363281 226.7734375 -0.26367188 C228.04445313 -0.23853516 229.31546875 -0.21339844 230.625 -0.1875 C231.90375 -0.17396484 233.1825 -0.16042969 234.5 -0.14648438 C237.66708282 -0.11103196 240.83333541 -0.06161441 244 0 C247.74968466 7.11961923 250.69738066 14.50512809 253.65625 21.98046875 C254.20435138 23.35702125 254.7528215 24.73342698 255.30163574 26.10969543 C256.74663925 29.73545642 258.18781273 33.36272583 259.62780762 36.99047852 C262.1745262 43.40557174 264.72649151 49.8185736 267.28125 56.23046875 C267.56019104 56.93100246 267.83913208 57.63153618 268.12652588 58.35329819 C272.64674196 69.69877027 277.26860428 80.99923694 281.98059082 92.2664032 C291 113.88206598 291 113.88206598 291 117 C279.78 117 268.56 117 257 117 C255.845 113.926875 254.69 110.85375 253.5 107.6875 C253.13455078 106.72287842 252.76910156 105.75825684 252.39257812 104.7644043 C251.9662207 103.61838745 251.9662207 103.61838745 251.53125 102.44921875 C251.09135742 101.27879028 251.09135742 101.27879028 250.64257812 100.0847168 C250 98 250 98 250 95 C237.13 95 224.26 95 211 95 C210.67 96.65 210.34 98.3 210 100 C209.57367611 101.32840982 209.11595207 102.64721889 208.625 103.953125 C208.36203125 104.654375 208.0990625 105.355625 207.828125 106.078125 C207.55484375 106.79484375 207.2815625 107.5115625 207 108.25 C206.59007812 109.34828125 206.59007812 109.34828125 206.171875 110.46875 C204.13225446 115.86774554 204.13225446 115.86774554 203 117 C195.23656021 117.74699335 187.3728354 117.75822665 179.57575321 117.91112614 C175.96760888 117.98319199 172.36614222 118.08537214 168.76147461 118.26196289 C145.55220037 119.3708342 145.55220037 119.3708342 139.76550293 115.50863647 C136.29463321 111.8299676 134.39004962 107.63310195 132.71078491 102.90872192 C131.80797151 100.48433207 130.52743013 98.49419405 129.0390625 96.38671875 C128.6363916 95.76853271 128.2337207 95.15034668 127.81884766 94.51342773 C127.42487793 93.91087158 127.0309082 93.30831543 126.625 92.6875 C118.94563779 80.87877453 111.46545804 68.94473287 104 57 C103.67 76.8 103.34 96.6 103 117 C82.54 117 62.08 117 41 117 C38.36 110.07 35.72 103.14 33 96 C14.19 95.505 14.19 95.505 -5 95 C-5.99 98.3 -6.98 101.6 -8 105 C-10.475 110.94 -10.475 110.94 -13 117 C-23.89 117 -34.78 117 -46 117 C-45.26789466 112.60736796 -44.6658087 109.7499172 -43.0234375 105.80859375 C-42.60779541 104.80078857 -42.19215332 103.7929834 -41.76391602 102.75463867 C-41.30557373 101.65998291 -40.84723145 100.56532715 -40.375 99.4375 C-39.63293414 97.64079552 -38.89089983 95.84407778 -38.14985657 94.04695129 C-37.61830731 92.75870044 -37.08596856 91.47077509 -36.55290222 90.18315125 C-33.50517577 82.8201747 -30.51100086 75.43561354 -27.51934814 68.04971313 C-26.55957255 65.68027288 -25.5989143 63.3111918 -24.63818359 60.94213867 C-20.06434397 49.65782458 -15.53460273 38.35631626 -11.02270508 27.04711914 C-7.41171237 18.00435505 -3.73297348 8.99307248 0 0 Z M4 6 C2.28247369 10.2929374 0.56501022 14.58589991 -1.15234375 18.87890625 C-1.41874098 19.54483858 -1.68513821 20.21077091 -1.95960808 20.89688301 C-5.66352763 30.15610183 -9.36553964 39.41608064 -13.06558228 48.67684937 C-15.04286729 53.62573536 -17.02077776 58.57437131 -18.99881935 63.52295494 C-20.44114621 67.13141774 -21.88312927 70.7400173 -23.32446289 74.34887695 C-24.75751499 77.93695011 -26.19141654 81.52468273 -27.62589836 85.11218452 C-28.16240712 86.45437055 -28.6986157 87.7966766 -29.23449898 89.13911247 C-33.88665642 100.79238423 -33.88665642 100.79238423 -35.84741211 105.17797852 C-37.18905287 107.95482762 -37.18905287 107.95482762 -37 111 C-30.4 111 -23.8 111 -17 111 C-14.36 104.07 -11.72 97.14 -9 90 C14.265 89.505 14.265 89.505 38 89 C38.33 90.65 38.66 92.3 39 94 C39.44070447 95.41184154 39.91068699 96.81489354 40.41015625 98.20703125 C40.6512915 98.88483643 40.89242676 99.5626416 41.14086914 100.26098633 C41.44500732 101.10298584 41.74914551 101.94498535 42.0625 102.8125 C43.031875 105.514375 44.00125 108.21625 45 111 C51.93 111 58.86 111 66 111 C61.06205877 97.55782666 55.74484744 84.27404043 50.40380859 70.98838806 C48.58623996 66.46566733 46.77839801 61.93916583 44.9765625 57.41015625 C38.1301293 40.21143955 31.11789005 23.08798428 24 6 C17.4 6 10.8 6 4 6 Z M78 6 C78 40.65 78 75.3 78 111 C84.27 111 90.54 111 97 111 C97 88.23 97 65.46 97 42 C103.74636387 44.24878796 103.74636387 44.24878796 105.640625 47.60546875 C106.06593506 48.3337085 106.49124512 49.06194824 106.92944336 49.81225586 C107.5831189 50.98800171 107.5831189 50.98800171 108.25 52.1875 C109.21221211 53.84007674 110.17709963 55.49109837 111.14453125 57.140625 C111.86310303 58.3771582 111.86310303 58.3771582 112.59619141 59.63867188 C114.58860341 62.99008212 116.74300525 66.21616237 118.9375 69.4375 C122.19893902 74.25731246 125.37053428 79.12217419 128.4609375 84.05371094 C129.48356248 85.6791396 130.51608743 87.29838338 131.55859375 88.91113281 C134.40454978 93.32994906 136.96446779 97.71310765 139.13452148 102.50463867 C141.0006528 105.63094186 143.59288545 108.26833068 146 111 C152.93 111 159.86 111 167 111 C167 76.35 167 41.7 167 6 C160.4 6 153.8 6 147 6 C147 28.77 147 51.54 147 75 C142 74 142 74 140.66064453 72.59912109 C140.32145996 71.99664551 139.98227539 71.39416992 139.6328125 70.7734375 C139.2303833 70.0837085 138.8279541 69.39397949 138.41333008 68.68334961 C137.98818115 67.92159424 137.56303223 67.15983887 137.125 66.375 C136.15585182 64.71539435 135.1830108 63.05794123 134.20703125 61.40234375 C133.68963379 60.52046387 133.17223633 59.63858398 132.63916016 58.72998047 C129.82762554 54.04743949 126.8168559 49.49779519 123.8125 44.9375 C118.20075345 36.3851225 112.639804 27.80255695 107.125 19.1875 C106.42866455 18.10138428 105.7323291 17.01526855 105.01489258 15.89624023 C104.05232544 14.39105835 104.05232544 14.39105835 103.0703125 12.85546875 C102.50070801 11.96496826 101.93110352 11.07446777 101.34423828 10.15698242 C100 8 100 8 99 6 C92.07 6 85.14 6 78 6 Z M221 6 C214.76430802 18.72636309 209.726298 31.96345098 204.5 45.125 C203.52032742 47.5856532 202.54034492 50.04618304 201.56005859 52.5065918 C200.09193077 56.19177039 198.6241313 59.87707664 197.1578064 63.56297302 C194.26916988 70.8230335 191.36624993 78.07709697 188.4453125 85.32421875 C187.78317206 86.96922578 187.12106136 88.61424478 186.45898438 90.25927734 C185.55002723 92.51742677 184.64011339 94.77516121 183.72680664 97.03155518 C182.91119449 99.04717552 182.09965836 101.06438955 181.2890625 103.08203125 C180.84256348 104.18780518 180.39606445 105.2935791 179.93603516 106.43286133 C178.88581308 108.85775446 178.88581308 108.85775446 179 111 C185.6 111 192.2 111 199 111 C199.763125 109.205625 200.52625 107.41125 201.3125 105.5625 C201.74175781 104.55316406 202.17101562 103.54382813 202.61328125 102.50390625 C204.23871298 98.39682946 205.60321411 94.19035766 207 90 C230.265 89.505 230.265 89.505 254 89 C254.99 92.3 255.98 95.6 257 99 C257.85629778 101.22396213 258.74567245 103.43588732 259.6875 105.625 C260.450625 107.39875 261.21375 109.1725 262 111 C268.6 111 275.2 111 282 111 C279.47269822 103.41216795 279.47269822 103.41216795 276.6875 95.9453125 C276.25800049 94.8512207 275.82850098 93.75712891 275.38598633 92.62988281 C274.92861084 91.47327148 274.47123535 90.31666016 274 89.125 C273.50870233 87.87858284 273.01741012 86.63216352 272.52612305 85.38574219 C268.91724975 76.24662399 265.22778139 67.14123717 261.50048828 58.04980469 C258.558749 50.86258893 255.65951075 43.65970857 252.78515625 36.4453125 C252.4210817 35.532052 252.05700714 34.6187915 251.68190002 33.67785645 C249.85718936 29.09941178 248.03563552 24.51974146 246.21801758 19.93847656 C245.54908452 18.25842626 244.88006207 16.57841154 244.2109375 14.8984375 C243.90104385 14.11437531 243.59115021 13.33031311 243.27186584 12.52249146 C242.06656824 9.00133769 242.06656824 9.00133769 240 6 C238.58429877 5.91348389 237.164405 5.89295096 235.74609375 5.90234375 C234.46508789 5.90717773 234.46508789 5.90717773 233.15820312 5.91210938 C232.26037109 5.92048828 231.36253906 5.92886719 230.4375 5.9375 C229.53580078 5.94201172 228.63410156 5.94652344 227.70507812 5.95117188 C225.46998686 5.96299775 223.23502563 5.9794778 221 6 Z " fill="#FFFFFF" transform="translate(696,296)"/>
<path d="M0 0 C9.24 0 18.48 0 28 0 C36.36485149 20.03161805 44.49472925 40.14739812 52.52832031 60.31396484 C58.61207914 75.57440424 64.80107594 90.78445913 71 106 C71.33 71.02 71.66 36.04 72 0 C81.9 0 91.8 0 102 0 C109.09525375 7.72130555 109.09525375 7.72130555 110.5859375 11.62109375 C113.3286513 18.05740935 117.15698498 23.67580609 121 29.5 C122.27396727 31.48757807 123.54479314 33.47717311 124.8125 35.46875 C129.85128724 43.32775398 134.92842648 51.16211365 140 59 C140.495 29.795 140.495 29.795 141 0 C151.23 0 161.46 0 172 0 C172 38.61 172 77.22 172 117 C162.1 117 152.2 117 142 117 C134.75327278 109.05647208 134.75327278 109.05647208 133.2734375 105.16796875 C130.84779423 99.40457842 127.55624421 94.39690531 124.125 89.1875 C123.06248245 87.51598656 122.00266645 85.84275332 120.9453125 84.16796875 C115.34577517 75.41384059 109.6634118 66.71294124 104 58 C103.67 77.47 103.34 96.94 103 117 C82.54 117 62.08 117 41 117 C36 105 36 105 33 95 C20.46 95.33 7.92 95.66 -5 96 C-7.64 102.93 -10.28 109.86 -13 117 C-24.22 117 -35.44 117 -47 117 C-45.21940653 111.65821958 -43.49411114 106.55744025 -41.375 101.3828125 C-41.11953903 100.75599075 -40.86407806 100.12916901 -40.60087585 99.48335266 C-40.03641464 98.09891713 -39.47070574 96.71498981 -38.90390015 95.33151245 C-37.26959901 91.34201668 -35.64494301 87.34859266 -34.01953125 83.35546875 C-33.64818558 82.44372391 -33.2768399 81.53197906 -32.89424133 80.59260559 C-29.26464187 71.67120707 -25.66839353 62.73649068 -22.07421875 53.80078125 C-21.46258772 52.28057361 -20.85094422 50.76037098 -20.23928833 49.24017334 C-17.7704577 43.10370439 -15.30180316 36.96716595 -12.83618164 30.82940674 C-11.36171004 27.15903705 -9.88566843 23.48930237 -8.40854836 19.81999779 C-7.85672313 18.4483186 -7.30550337 17.07639566 -6.75491905 15.70421791 C-5.99399196 13.80797278 -5.23081325 11.91263165 -4.4675293 10.01733398 C-3.82257759 8.41268532 -3.82257759 8.41268532 -3.16459656 6.77561951 C-2.20014659 4.47701565 -1.11478639 2.22957278 0 0 Z M4 6 C3.06800781 8.2996875 2.13601563 10.599375 1.17578125 12.96875 C0.22827444 15.30648126 -0.71927843 17.64419385 -1.6668396 19.98190308 C-2.34869333 21.66412155 -3.03051694 23.34635223 -3.71231079 25.02859497 C-7.29306188 33.86343708 -10.87492002 42.69781235 -14.46875 51.52734375 C-19.63469796 64.22029941 -24.78921793 76.91769766 -29.89004517 89.63699341 C-30.41468872 90.944898 -30.9398811 92.25258259 -31.46566772 93.56002808 C-32.19114924 95.3648179 -32.91398799 97.17066937 -33.63671875 98.9765625 C-34.25099731 100.50917725 -34.25099731 100.50917725 -34.87768555 102.07275391 C-36.00625886 105.0163245 -37.0030905 108.00927149 -38 111 C-31.07 111 -24.14 111 -17 111 C-15.845 107.926875 -14.69 104.85375 -13.5 101.6875 C-13.13455078 100.72287842 -12.76910156 99.75825684 -12.39257812 98.7644043 C-11.9662207 97.61838745 -11.9662207 97.61838745 -11.53125 96.44921875 C-11.09135742 95.27879028 -11.09135742 95.27879028 -10.64257812 94.0847168 C-9.85272117 91.88576681 -9.85272117 91.88576681 -10 89 C13.265 89.495 13.265 89.495 37 90 C39.64 96.93 42.28 103.86 45 111 C51.93 111 58.86 111 66 111 C60.4757338 96.39491569 54.77071159 81.89814995 48.75830078 67.48706055 C44.62755121 57.56707269 40.60693528 47.60559614 36.625 37.625 C36.33612915 36.90095978 36.0472583 36.17691956 35.74963379 35.43093872 C34.37000988 31.9716752 32.99173796 28.51187546 31.61425781 25.05175781 C29.08412085 18.69799341 26.54126374 12.34932057 24 6 C17.4 6 10.8 6 4 6 Z M78 6 C78 40.65 78 75.3 78 111 C84.27 111 90.54 111 97 111 C97 88.23 97 65.46 97 42 C102 43 102 43 104.11328125 45.71875 C104.86140276 46.97029316 105.59318169 48.2316833 106.3125 49.5 C107.18264886 50.96097604 108.05521576 52.42051357 108.9296875 53.87890625 C109.41147461 54.6898877 109.89326172 55.50086914 110.38964844 56.33642578 C113.47134977 61.4336607 116.715701 66.42812464 119.9375 71.4375 C121.32031873 73.593746 122.70313131 75.74999596 124.0859375 77.90625 C125.39058367 79.93752654 126.69526866 81.96877816 128 84 C128.83192871 85.29744141 128.83192871 85.29744141 129.68066406 86.62109375 C130.44588379 87.81412109 130.44588379 87.81412109 131.2265625 89.03125 C131.94585938 90.15394287 131.94585938 90.15394287 132.6796875 91.29931641 C133.58639326 92.70131659 134.50277039 94.09711939 135.4296875 95.48583984 C137.35781575 98.37585437 139.04640246 101.09922988 140.5234375 104.2578125 C141.98609277 107.54012375 141.98609277 107.54012375 146 111 C152.6 111 159.2 111 166 111 C166 76.35 166 41.7 166 6 C159.73 6 153.46 6 147 6 C147 28.77 147 51.54 147 75 C142 74 142 74 140.2175293 71.98828125 C139.67523682 71.10527344 139.13294434 70.22226562 138.57421875 69.3125 C137.9505542 68.31605469 137.32688965 67.31960938 136.68432617 66.29296875 C135.69589722 64.66294922 135.69589722 64.66294922 134.6875 63 C133.62517026 61.29338296 132.56281679 59.58678008 131.49897766 57.88110352 C130.39436021 56.10589213 129.29640638 54.32668612 128.19921875 52.546875 C124.7635725 46.98787179 121.22030051 41.49754386 117.6875 36 C116.36697997 33.93763287 115.04666266 31.87513592 113.7265625 29.8125 C110.34583005 24.53695662 106.96014161 19.26467092 103.5625 14 C103.10770264 13.29359375 102.65290527 12.5871875 102.18432617 11.859375 C100.29395747 8.77341353 100.29395747 8.77341353 98 6 C91.4 6 84.8 6 78 6 Z " fill="#FFFFFF" transform="translate(1118,296)"/>
<path d="M0 0 C59.51521739 0 59.51521739 0 71 9 C78.38208388 16.50720394 81.43007759 24.30231859 82.0625 34.7109375 C81.86210926 45.25650039 79.35642164 54.71902092 71.78125 62.1875 C68.64224062 65.04114489 65.53187262 67.64541826 62 70 C62.76183594 70.88300781 63.52367187 71.76601563 64.30859375 72.67578125 C69.85273198 79.11492113 75.33870077 85.58746683 80.69140625 92.1875 C83.89492012 96.09025802 87.17002003 99.93124844 90.45922852 103.76196289 C93.89237009 107.78474018 93.89237009 107.78474018 95 110 C95.33 73.7 95.66 37.4 96 0 C106.23 0 116.46 0 127 0 C127 38.61 127 77.22 127 117 C110.78875 117.4640625 110.78875 117.4640625 94.25 117.9375 C89.16706543 118.14234009 89.16706543 118.14234009 83.98144531 118.35131836 C61.30204463 118.88550813 61.30204463 118.88550813 55.37060547 113.83813477 C52.66163395 110.82342911 50.74197257 107.60105237 49.00778198 103.95204163 C47.31122846 100.66587145 44.9557008 97.91506274 42.625 95.0625 C39.04924846 90.39927763 35.52631263 85.70175017 32 81 C31.67 92.88 31.34 104.76 31 117 C20.77 117 10.54 117 0 117 C0 78.39 0 39.78 0 0 Z M6 6 C6 40.65 6 75.3 6 111 C12.27 111 18.54 111 25 111 C25 95.16 25 79.32 25 63 C28.55868434 66.55868434 31.45124025 69.72824747 34.4375 73.6875 C35.30924708 74.83643003 36.18168377 75.98483703 37.0546875 77.1328125 C37.52358398 77.7505957 37.99248047 78.36837891 38.47558594 79.00488281 C40.11957448 81.15649626 41.78008444 83.29447255 43.4453125 85.4296875 C44.03755615 86.19079834 44.6297998 86.95190918 45.23999023 87.73608398 C46.45701426 89.28960334 47.68316034 90.83601867 48.91821289 92.37524414 C51.59985255 95.74472456 54.0984935 98.96790167 56.05078125 102.81640625 C58.12641202 106.58098711 59.38465485 108.62615073 63 111 C70.9050966 112.42181059 79.04780953 111.73500516 87 111 C84.09198114 106.43420317 80.87760605 102.37925192 77.3125 98.3125 C76.23731313 97.07245333 75.16310306 95.83155909 74.08984375 94.58984375 C73.56374512 93.98124512 73.03764648 93.37264648 72.49560547 92.74560547 C69.68475183 89.46489971 66.96959382 86.10705955 64.24609375 82.75390625 C60.2063948 77.80088406 56.0992799 72.90373149 52 68 C54.18469601 65.81530399 56.0185932 64.97345111 58.8125 63.6875 C63.0119518 61.61190888 66.00235976 59.68281515 69 56 C69.44085938 55.45988281 69.88171875 54.91976562 70.3359375 54.36328125 C75.6477095 47.04040482 76.71087801 38.00319391 75.4375 29.1875 C73.59386211 21.20999767 69.82239473 15.89963044 63.11328125 11.25 C46.39165364 1.35920363 23.37942348 6 6 6 Z M102 6 C102 40.65 102 75.3 102 111 C108.27 111 114.54 111 121 111 C121 76.35 121 41.7 121 6 C114.73 6 108.46 6 102 6 Z " fill="#FFFFFF" transform="translate(54,296)"/>
<path d="M0 0 C9.9 0 19.8 0 30 0 C37.87526143 11.25037347 37.87526143 11.25037347 40.69140625 15.671875 C41.31966309 16.65591309 41.94791992 17.63995117 42.59521484 18.65380859 C43.24441895 19.67555176 43.89362305 20.69729492 44.5625 21.75 C45.24779785 22.82459473 45.9330957 23.89918945 46.63916016 25.00634766 C48.76180193 28.33606798 50.88124812 31.6678034 53 35 C54.36061361 37.13806123 55.72128893 39.27608318 57.08203125 41.4140625 C58.94182242 44.33629014 60.8011786 47.25878562 62.65844727 50.18261719 C63.20170654 51.03758789 63.74496582 51.89255859 64.3046875 52.7734375 C64.77890137 53.52028809 65.25311523 54.26713867 65.74169922 55.03662109 C66.8095886 56.7028932 67.90219093 58.35328639 69 60 C69.33 40.2 69.66 20.4 70 0 C80.23 0 90.46 0 101 0 C101 38.61 101 77.22 101 117 C91.1 117 81.2 117 71 117 C63.12473857 105.74962653 63.12473857 105.74962653 60.30859375 101.328125 C59.68033691 100.34408691 59.05208008 99.36004883 58.40478516 98.34619141 C57.75558105 97.32444824 57.10637695 96.30270508 56.4375 95.25 C55.75220215 94.17540527 55.0669043 93.10081055 54.36083984 91.99365234 C52.23819807 88.66393202 50.11875188 85.3321966 48 82 C46.63938639 79.86193877 45.27871107 77.72391682 43.91796875 75.5859375 C42.05817758 72.66370986 40.1988214 69.74121438 38.34155273 66.81738281 C37.79829346 65.96241211 37.25503418 65.10744141 36.6953125 64.2265625 C36.22109863 63.47971191 35.74688477 62.73286133 35.25830078 61.96337891 C34.1904114 60.2971068 33.09780907 58.64671361 32 57 C31.67 76.8 31.34 96.6 31 117 C20.77 117 10.54 117 0 117 C0 78.39 0 39.78 0 0 Z M6 6 C6 40.65 6 75.3 6 111 C12.27 111 18.54 111 25 111 C25 88.23 25 65.46 25 42 C31.73696938 44.24565646 31.73696938 44.24565646 34.41015625 48.8984375 C35.2921167 50.3848877 35.2921167 50.3848877 36.19189453 51.90136719 C36.78856934 52.92391602 37.38524414 53.94646484 38 55 C39.19765558 56.89398211 40.40471773 58.78204855 41.62109375 60.6640625 C42.23887695 61.62916748 42.85666016 62.59427246 43.49316406 63.58862305 C44.13479492 64.59062744 44.77642578 65.59263184 45.4375 66.625 C46.83726509 68.81118158 48.23700386 70.99738002 49.63671875 73.18359375 C49.99271149 73.73958755 50.34870422 74.29558136 50.71548462 74.86842346 C52.92780545 78.32401381 55.1386562 81.78053966 57.34828186 85.237854 C58.44433388 86.95278934 59.54061648 88.66757707 60.63696289 90.38232422 C62.01550346 92.53861332 63.39361601 94.69517613 64.77124023 96.85205078 C65.71205444 98.32327393 65.71205444 98.32327393 66.671875 99.82421875 C67.2194043 100.68104248 67.76693359 101.53786621 68.33105469 102.4206543 C70.19312293 105.29847041 72.09865442 108.14798164 74 111 C80.93 111 87.86 111 95 111 C95 76.35 95 41.7 95 6 C88.73 6 82.46 6 76 6 C76 28.77 76 51.54 76 75 C74.02 75 72.04 75 70 75 C69.65195312 73.99259766 69.65195312 73.99259766 69.296875 72.96484375 C67.65512066 69.21155596 65.5102894 65.96917354 63.25 62.5625 C62.24784305 61.03311191 61.24658405 59.50313515 60.24609375 57.97265625 C59.71612793 57.16328613 59.18616211 56.35391602 58.64013672 55.52001953 C56.41403491 52.09968269 54.22154282 48.65871427 52.0378418 45.21118164 C50.87890988 43.39004977 49.70961397 41.57547563 48.53051758 39.76733398 C45.57061728 35.2021852 42.75559667 30.63467286 40.22743225 25.81341553 C39.29192979 24.04448422 38.31720881 22.29647874 37.3425293 20.54882812 C36.10488536 18.32446332 34.92740675 16.06515415 33.82348633 13.77148438 C31.91937763 10.09967178 31.91937763 10.09967178 27 6 C20.07 6 13.14 6 6 6 Z " fill="#FFFFFF" transform="translate(323,296)"/>
<path d="M0 0 C3.51630143 3.17766026 6.81190923 6.49451082 10 10 C8.61431787 13.0910713 6.99224396 15.29834957 4.6640625 17.75 C4.01179687 18.4409375 3.35953125 19.131875 2.6875 19.84375 C2.006875 20.5553125 1.32625 21.266875 0.625 22 C-0.04789063 22.7115625 -0.72078125 23.423125 -1.4140625 24.15625 C-4.56600822 27.48192501 -7.73466201 30.78489798 -11 34 C-11.74443359 32.98679687 -11.74443359 32.98679687 -12.50390625 31.953125 C-17.51027434 25.3792982 -21.64456541 20.71473471 -30 19 C-36.86901523 18.28739808 -42.3492959 18.85301758 -48 23 C-55.02934129 29.1093457 -58.42370599 36.44500106 -59.37890625 45.65234375 C-59.70197826 55.91769634 -58.23110228 64.42913003 -51.625 72.5 C-46.78397146 77.56908556 -41.633587 79.72049331 -34.75 80.25 C-28.26445409 79.81763027 -22.59707689 77.72477347 -18 73 C-16.68 70.36 -15.36 67.72 -14 65 C-22.58 65 -31.16 65 -40 65 C-40 56.75 -40 48.5 -40 40 C-20.86 40 -1.72 40 18 40 C18 78.71794872 18 78.71794872 5.5625 92.75 C4.716875 93.4925 3.87125 94.235 3 95 C2.52304687 95.46792969 2.04609375 95.93585938 1.5546875 96.41796875 C-9.23339853 106.55460031 -23.5615771 110.5159453 -38.06835938 110.3515625 C-55.20737783 109.76112741 -68.48199836 102.18571188 -80 90 C-91.47790187 76.67217988 -94.83911047 59.97026687 -93.796875 42.80957031 C-92.35115668 26.07750676 -84.52309359 11.18406404 -71.68066406 0.27246094 C-51.13217819 -15.28516666 -20.65549855 -15.50617004 0 0 Z M-67 5 C-67.61230469 5.45117188 -68.22460938 5.90234375 -68.85546875 6.3671875 C-79.67835583 14.82480787 -85.95798464 28.32676202 -87.78125 41.73828125 C-88.94643014 59.1119494 -84.94969881 74.09705744 -73.81640625 87.66015625 C-65.3212456 96.90858237 -53.73671604 103.2951975 -41.0859375 104.2109375 C-26.67170641 104.65815708 -11.3822518 100.92416998 -0.5859375 90.8125 C2.85436764 86.88072269 5.49981864 82.57335155 8 78 C8.65742187 76.80310547 8.65742187 76.80310547 9.328125 75.58203125 C13.80008364 65.67758764 12 57.67359242 12 46 C-3.18 46 -18.36 46 -34 46 C-34 50.29 -34 54.58 -34 59 C-25.42 59 -16.84 59 -8 59 C-10.79917118 75.7950271 -10.79917118 75.7950271 -17.33984375 80.78515625 C-21.75726615 83.59503546 -25.68236845 85.77371781 -31 86 C-31.66386719 86.06058594 -32.32773437 86.12117188 -33.01171875 86.18359375 C-40.77463715 86.63067282 -47.6183462 84.12905757 -53.75 79.375 C-60.6239806 72.95603467 -64.82522429 64.1780728 -65.3359375 54.80078125 C-65.5858396 42.45452512 -64.32685269 31.77267021 -56.0625 21.9765625 C-49.18627455 15.38684644 -41.86643143 12.64419103 -32.46875 12.78515625 C-24.86829252 13.44658847 -19.5339333 15.88111169 -14 21 C-13.34 21 -12.68 21 -12 21 C-11.505 22.485 -11.505 22.485 -11 24 C-7.61802772 22.87267591 -6.75942186 21.85817627 -4.5 19.1875 C-3.9121875 18.50042969 -3.324375 17.81335938 -2.71875 17.10546875 C-1.08850576 15.10841956 0.47060322 13.0749438 2 11 C-7.11485423 1.0030631 -18.92470468 -4.28866549 -32.375 -5.23828125 C-45.34370398 -5.50380428 -56.66302462 -3.24472185 -67 5 Z " fill="#FFFFFF" transform="translate(523,305)"/>
<path d="M0 0 C10.23 0 20.46 0 31 0 C31.01981934 2.16425537 31.03963867 4.32851074 31.06005859 6.55834961 C31.12717399 13.73491622 31.20480965 20.91134183 31.28752708 28.08774471 C31.33732505 32.43582449 31.38365561 36.78388189 31.421875 41.13208008 C31.45893742 45.33378057 31.5053522 49.53528604 31.55806351 53.73681831 C31.57649674 55.33421954 31.59164487 56.93166239 31.60334396 58.52912712 C31.67328622 67.75502281 32.05054481 76.15163443 35 85 C41.11831304 87.98071661 48.01301529 87.86894101 54.4375 86 C57.89198763 83.30381454 58.86848846 80.10091816 60 76 C60.2805886 73.29262224 60.43805327 70.8142349 60.43237305 68.11523438 C60.4425647 67.3727948 60.45275635 66.63035522 60.46325684 65.86541748 C60.4931543 63.44144925 60.50261661 61.01787763 60.51171875 58.59375 C60.52858276 56.901232 60.54673531 55.2087264 60.56611633 53.51623535 C60.61343565 49.08418654 60.64336147 44.65218799 60.66955566 40.2199707 C60.69945282 35.68821286 60.74595151 31.15662791 60.79101562 26.625 C60.8768429 17.75009078 60.94427924 8.87514577 61 0 C65.39656173 -0.02465504 69.7930872 -0.04283842 74.18969727 -0.05493164 C75.68644918 -0.05997121 77.18319616 -0.06680287 78.67993164 -0.07543945 C80.82699807 -0.08752159 82.97399962 -0.09323191 85.12109375 -0.09765625 C87.06133423 -0.10551147 87.06133423 -0.10551147 89.04077148 -0.11352539 C92 0 92 0 93 1 C93.10502064 3.25149013 93.13857716 5.50632568 93.14526367 7.76025391 C93.14862228 8.46782333 93.1519809 9.17539276 93.15544128 9.90440369 C93.16499503 12.26180754 93.16689792 14.61914044 93.16796875 16.9765625 C93.17118302 18.62071766 93.17454722 20.26487254 93.17805481 21.9090271 C93.18406038 25.37099874 93.18589372 28.83294539 93.18530273 32.29492188 C93.18520211 36.69117733 93.19874337 41.08726762 93.21607494 45.48348427 C93.22731271 48.88970646 93.22921822 52.29589055 93.22869301 55.70212936 C93.22985975 57.31973199 93.2342065 58.93733604 93.24202538 60.5549202 C93.39453228 95.42676218 93.39453228 95.42676218 81.52734375 107.890625 C69.29574308 118.09937981 54.45659057 120.0053067 39 119 C27.81187903 117.49571483 17.07060755 114.25403045 9 106 C-0.50541478 93.34168351 -0.42749773 79.56956789 -0.29296875 64.453125 C-0.28736211 62.58697859 -0.28309707 60.72082772 -0.28010559 58.85467529 C-0.26874085 53.98192806 -0.23934732 49.1094561 -0.20599365 44.23681641 C-0.17511067 39.2490613 -0.16156158 34.261261 -0.14648438 29.2734375 C-0.11446823 19.51548561 -0.06177031 9.75780894 0 0 Z M6 6 C5.93193722 15.70191268 5.87701943 25.40366405 5.84456348 35.10576248 C5.82897798 39.61194047 5.80787149 44.11794515 5.77368164 48.62402344 C5.74083211 52.98124622 5.72309363 57.3383034 5.71536827 61.69564056 C5.7098703 63.34923658 5.69913558 65.00282462 5.68280983 66.65634918 C5.55266925 80.39712139 6.02608783 93.46258996 16 104 C27.32022385 113.12174766 41.02425136 114.18865903 55 113 C65.08337049 111.29233242 74.05868289 107.28067412 80.484375 99.11328125 C88.35319159 87.33319994 87.14677155 72.52275593 87.09765625 58.9296875 C87.09578729 57.3969833 87.09436565 55.8642785 87.09336853 54.33157349 C87.08958097 50.33022361 87.07978354 46.328911 87.06866455 42.32757568 C87.05836883 38.23140975 87.05385356 34.13523769 87.04882812 30.0390625 C87.03815727 22.0260228 87.02059169 14.01302035 87 6 C80.4 6 73.8 6 67 6 C66.9906543 8.0931958 66.98130859 10.1863916 66.97167969 12.34301758 C66.93775601 19.2961264 66.88212275 26.24894323 66.81609726 33.20181751 C66.77676121 37.4131242 66.74450536 41.62422614 66.72900391 45.83569336 C66.71374504 49.9078768 66.67913886 53.9794968 66.63169098 58.05142784 C66.61697153 59.5969214 66.60896446 61.14249544 66.60811615 62.68805885 C66.59836658 71.55263962 66.40236431 80.01803425 62 88 C56.12282258 93.14253024 50.51445844 93.29743316 42.98046875 93.21484375 C37.7218586 92.83578273 34.44041608 91.47934625 30.6875 87.625 C26.51592605 81.13588497 25.89356977 74.6772191 25.79467773 67.07666016 C25.78477814 66.4125412 25.77487854 65.74842224 25.76467896 65.06417847 C25.73332413 62.88917493 25.70841058 60.71414961 25.68359375 58.5390625 C25.66300169 57.02305565 25.64200465 55.50705424 25.62062073 53.99105835 C25.56563249 50.01601599 25.51612148 46.04092383 25.46777344 42.0657959 C25.41738781 38.00345468 25.36179112 33.94118508 25.30664062 29.87890625 C25.19934373 21.91932996 25.09831854 13.95969226 25 6 C18.73 6 12.46 6 6 6 Z " fill="#FFFFFF" transform="translate(983,296)"/>
<path d="M0 0 C13.6900698 -0.58639508 29.15653355 3.26103614 39.68359375 12.2109375 C39.08827896 15.83025848 38.10150847 18.75976701 36.46875 22.0390625 C36.02982422 22.92078125 35.59089844 23.8025 35.13867188 24.7109375 C34.67912109 25.6184375 34.21957031 26.5259375 33.74609375 27.4609375 C33.29041016 28.38390625 32.83472656 29.306875 32.36523438 30.2578125 C31.70491211 31.57265625 31.70491211 31.57265625 31.03125 32.9140625 C30.62914307 33.71489258 30.22703613 34.51572266 29.81274414 35.34082031 C28.68359375 37.2109375 28.68359375 37.2109375 26.68359375 38.2109375 C24.8359375 37.3203125 24.8359375 37.3203125 22.62109375 35.9609375 C15.06459662 31.62741918 7.52805458 28.78441156 -1.31640625 30.2109375 C-4.11815455 31.6741266 -4.11815455 31.6741266 -5.31640625 34.2109375 C-5.53949042 36.6879335 -5.53949042 36.6879335 -4.31640625 39.2109375 C-1.74431648 40.9216341 0.61179854 42.25653999 3.37109375 43.5859375 C4.13550781 43.97386475 4.89992187 44.36179199 5.6875 44.76147461 C9.30146458 46.58684189 12.94672794 48.34119856 16.609375 50.06640625 C28.22445651 55.6137184 36.22881402 61.83245385 41.796875 73.5546875 C44.784317 82.50385296 42.76590343 92.90622802 38.93359375 101.2734375 C33.55235549 111.23652718 26.29498125 115.63507354 15.61328125 119.25 C-3.59797059 124.40188959 -22.06953342 120.88284089 -39.109375 111.2109375 C-42.04165036 109.38228344 -44.67793712 107.43699055 -47.31640625 105.2109375 C-45.8721596 100.17936854 -43.66791285 96.12146288 -40.94140625 91.7109375 C-40.5546875 91.07285156 -40.16796875 90.43476563 -39.76953125 89.77734375 C-37.37941168 85.8553019 -34.88834172 82.01599272 -32.31640625 78.2109375 C-29.01840656 79.76339169 -26.04733151 81.64675045 -23.00390625 83.6484375 C-15.68838548 88.3028892 -9.21401966 91.49566113 -0.31640625 91.2109375 C2.62437513 90.42389293 5.48295457 89.41157668 7.68359375 87.2109375 C8.521118 84.42811219 8.521118 84.42811219 7.68359375 81.2109375 C3.10679301 76.62176703 -3.43200867 74.14247528 -9.19140625 71.3359375 C-21.5512101 65.28853405 -31.42570398 58.81011048 -36.25390625 45.3984375 C-38.66078114 36.15775711 -36.97537794 26.46940627 -32.31640625 18.2109375 C-26.3808724 9.51502284 -17.5318584 3.11467195 -7.19140625 0.7734375 C-4.79594601 0.43177122 -2.40910712 0.21937906 0 0 Z M-26.31640625 20.2109375 C-30.76063751 26.73664416 -32.13701074 34.86405143 -30.9453125 42.62890625 C-28.14068082 52.74996841 -20.7029751 58.07078565 -12.0078125 63.19921875 C-7.37359274 65.78079854 -2.60291007 68.11488387 2.21459961 70.33398438 C7.02323387 72.61682851 11.2172548 75.2782596 13.68359375 80.2109375 C13.77914792 81.66673337 13.81344066 83.1270171 13.80859375 84.5859375 C13.81246094 85.74222656 13.81246094 85.74222656 13.81640625 86.921875 C13.68551938 89.17774878 13.42766673 91.07699234 12.68359375 93.2109375 C10.62109375 94.3359375 10.62109375 94.3359375 7.68359375 95.2109375 C5.88921875 95.79875 5.88921875 95.79875 4.05859375 96.3984375 C-4.72501071 98.466141 -12.52251157 96.26803336 -20.31640625 92.2109375 C-21.23421875 91.7571875 -22.15203125 91.3034375 -23.09765625 90.8359375 C-25.51178337 89.64243645 -27.91679401 88.43328695 -30.31640625 87.2109375 C-31.87831506 89.44907503 -33.41524507 91.69862798 -34.94140625 93.9609375 C-35.38742188 94.59515625 -35.8334375 95.229375 -36.29296875 95.8828125 C-38.7294095 99.36241205 -38.7294095 99.36241205 -39.0078125 103.4375 C-36.58615245 105.97660777 -33.75949673 107.36348496 -30.62890625 108.8359375 C-30.02884766 109.135 -29.42878906 109.4340625 -28.81054688 109.7421875 C-16.00099518 115.96121797 -0.16048618 117.46201987 13.55859375 113.5859375 C23.34178949 110.14081213 29.84505441 105.51077412 34.68359375 96.2109375 C37.51663113 89.25711848 37.69060449 81.70585712 35.62109375 74.5234375 C28.56413319 62.45831138 18.07595725 57.11835049 5.68652344 51.63305664 C-0.88483801 48.65789228 -7.24034633 45.32502739 -11.31640625 39.2109375 C-11.65661713 35.53666001 -11.58831175 32.91469292 -10.25390625 29.4609375 C-7.10739093 25.80691971 -3.73127977 24.55895091 0.90625 23.890625 C8.30396278 23.52976096 14.7548149 25.87317878 21.68359375 28.2109375 C23.00359375 28.5409375 24.32359375 28.8709375 25.68359375 29.2109375 C29.14859375 21.7859375 29.14859375 21.7859375 32.68359375 14.2109375 C11.67179252 3.84511556 -9.66925504 1.29753545 -26.31640625 20.2109375 Z " fill="#FFFFFF" transform="translate(233.31640625,293.7890625)"/>
<path d="M0 0 C27.72 0 55.44 0 84 0 C84 9.24 84 18.48 84 28 C75.42 28 66.84 28 58 28 C58 57.37 58 86.74 58 117 C47.77 117 37.54 117 27 117 C27 87.63 27 58.26 27 28 C18.09 28 9.18 28 0 28 C0 18.76 0 9.52 0 0 Z M6 6 C6 11.28 6 16.56 6 22 C14.91 22 23.82 22 33 22 C33 51.37 33 80.74 33 111 C39.27 111 45.54 111 52 111 C52 81.63 52 52.26 52 22 C60.58 22 69.16 22 78 22 C78 16.72 78 11.44 78 6 C54.24 6 30.48 6 6 6 Z " fill="#FFFFFF" transform="translate(575,296)"/>
<path d="M0 0 C10.23 0 20.46 0 31 0 C31 38.61 31 77.22 31 117 C20.77 117 10.54 117 0 117 C0 78.39 0 39.78 0 0 Z M6 6 C6 40.65 6 75.3 6 111 C12.27 111 18.54 111 25 111 C25 76.35 25 41.7 25 6 C18.73 6 12.46 6 6 6 Z " fill="#FFFFFF" transform="translate(282,296)"/>
<path d="M0 0 C1.65 0 3.3 0 5 0 C6.83822975 4.74860137 8.67115818 9.49920229 10.49926758 14.25170898 C11.12152217 15.86717453 11.74520552 17.48209051 12.37036133 19.09643555 C13.27023156 21.42092135 14.1648949 23.74735438 15.05859375 26.07421875 C15.3377916 26.79212082 15.61698944 27.51002289 15.90464783 28.24967957 C17.29029903 31.87273122 18.23342477 35.16712386 19 39 C8.11 39 -2.78 39 -14 39 C-13.16340464 33.98042782 -11.93737541 29.84430346 -10.05859375 25.1953125 C-9.6278933 24.1093428 -9.6278933 24.1093428 -9.18849182 23.00143433 C-8.27704996 20.70703126 -7.35742093 18.41601479 -6.4375 16.125 C-5.81521005 14.56271704 -5.19345955 13.00021909 -4.57226562 11.4375 C-3.05440774 7.62248405 -1.52920242 3.81048201 0 0 Z M2 12 C-0.64 18.93 -3.28 25.86 -6 33 C-0.72 33 4.56 33 10 33 C9.17609619 27.83420569 9.17609619 27.83420569 7.58984375 23.1328125 C7.32236328 22.47539062 7.05488281 21.81796875 6.77929688 21.140625 C6.50150391 20.47546875 6.22371094 19.8103125 5.9375 19.125 C5.65583984 18.43664062 5.37417969 17.74828125 5.08398438 17.0390625 C4.39484734 15.35710091 3.69819202 13.67822303 3 12 C2.67 12 2.34 12 2 12 Z " fill="#FFFFFF" transform="translate(924,330)"/>
<path d="M0 0 C2.64575195 1.0246582 2.64575195 1.0246582 4.40673828 4.19580078 C4.95155507 5.59555338 5.47385815 7.00420104 5.9777832 8.41918945 C6.25925705 9.16295334 6.5407309 9.90671722 6.83073425 10.67301941 C7.42231725 12.24740899 8.00422698 13.82546222 8.57714844 15.40673828 C9.4537359 17.8247012 10.35831625 20.2306081 11.26879883 22.63598633 C11.84013269 24.16726442 12.4098485 25.6991474 12.9777832 27.23168945 C13.38079399 28.3115789 13.38079399 28.3115789 13.79194641 29.4132843 C15.03323144 32.8563826 15.64575195 35.31575768 15.64575195 39.0246582 C4.75575195 39.0246582 -6.13424805 39.0246582 -17.35424805 39.0246582 C-15.58641534 33.13188251 -13.92030007 27.62198937 -11.69018555 21.95825195 C-10.96702148 20.1184375 -10.96702148 20.1184375 -10.22924805 18.24145508 C-9.98303711 17.62133545 -9.73682617 17.00121582 -9.4831543 16.36230469 C-8.71886893 14.43599866 -7.96194941 12.50690908 -7.20581055 10.57739258 C-3.04354905 0.03187789 -3.04354905 0.03187789 0 0 Z M-1.35424805 13.0246582 C-2.52639295 15.98085039 -3.6910228 18.9399461 -4.85424805 21.8996582 C-5.35504883 23.16229492 -5.35504883 23.16229492 -5.8659668 24.45043945 C-6.18178711 25.25610352 -6.49760742 26.06176758 -6.82299805 26.8918457 C-7.11625977 27.63547363 -7.40952148 28.37910156 -7.71166992 29.14526367 C-8.46208795 31.00903033 -8.46208795 31.00903033 -8.35424805 33.0246582 C-3.07424805 33.0246582 2.20575195 33.0246582 7.64575195 33.0246582 C5.44332667 26.30726109 3.08842551 19.65831483 0.64575195 13.0246582 C-0.01424805 13.0246582 -0.67424805 13.0246582 -1.35424805 13.0246582 Z " fill="#FFFFFF" transform="translate(1132.354248046875,329.975341796875)"/>
<path d="M0 0 C2.37231445 0.02294922 2.37231445 0.02294922 5 1 C6.3079893 3.2750862 7.17900743 5.19184846 8.04296875 7.6328125 C8.2975032 8.30287323 8.55203766 8.97293396 8.81428528 9.66329956 C9.62439656 11.81061892 10.40575916 13.96721243 11.1875 16.125 C11.72412714 17.55535819 12.2625199 18.9850553 12.80273438 20.4140625 C15.10867406 26.5673023 17.19069373 32.66742805 19 39 C8.11 39 -2.78 39 -14 39 C-12.69633252 33.13349634 -11.52855608 28.29262646 -9.43359375 22.8125 C-9.07516136 21.86963135 -9.07516136 21.86963135 -8.70948792 20.90771484 C-8.21070809 19.59930084 -7.70897918 18.29200735 -7.2043457 16.98583984 C-6.42933444 14.97885429 -5.66418818 12.96830791 -4.90039062 10.95703125 C-1.15239312 1.15239312 -1.15239312 1.15239312 0 0 Z M2 12 C-0.96415819 18.9241798 -3.72564796 25.81783567 -6 33 C-0.72 33 4.56 33 10 33 C7.9376064 25.88474206 5.59810321 18.93706745 3 12 C2.67 12 2.34 12 2 12 Z " fill="#FFFFFF" transform="translate(708,330)"/>
<path d="M0 0 C20.09517386 0 20.09517386 0 26.66015625 6.44140625 C30.33811203 10.7198446 30.37945523 15.12119584 30.25 20.56640625 C29.76626483 25.27526584 28.00629666 28.04666632 24.625 31.25 C16.13409633 36.91060245 11.78355296 35 0 35 C0 23.45 0 11.9 0 0 Z M6 6 C6 13.59 6 21.18 6 29 C14.75368079 29.66611573 14.75368079 29.66611573 21 26 C23.33772514 23.09799637 23.96474659 21.27699106 24.4375 17.5625 C23.90120358 13.19551484 22.99983163 11.22481901 20 8 C15.32978934 5.92324675 11.11743791 6 6 6 Z " fill="#FFFFFF" transform="translate(79,316)"/>
</svg>